<?xml version="1.0" encoding="us-ascii" standalone="no"?><svg xmlns="http://www.w3.org/2000/svg" xmlns:xlink="http://www.w3.org/1999/xlink" contentStyleType="text/css" height="348px" preserveAspectRatio="none" style="width:567px;height:348px;background:#FFFFFF;" version="1.1" viewBox="0 0 567 348" width="567px" zoomAndPan="magnify"><defs/><g><!--class Journalisation--><g id="elem_Journalisation"><polygon fill="#FFFFFF" points="192.5,150,192.5,150.2102,202.6111,149.5857,212.7222,150.1933,222.8333,150.3997,232.9444,149.2866,243.0556,149.9223,253.1667,149.5735,263.2778,149.6165,273.3889,149.9318,283.5,149.3086,293.6111,150.5536,303.7222,149.3697,313.8333,149.8022,323.9444,150.4319,334.0556,149.9142,344.1667,150.0682,354.2778,149.9681,364.3889,150.1785,374.5,150,374.5305,150.0736,374.9283,150.3268,375.2927,150.4996,375.6473,150.6485,375.9467,150.6642,376.2678,150.7322,376.4105,150.7914,376.6305,151.1754,376.3386,151.3473,376.9161,151.8794,376.7622,152.1086,377,152.5,377.5338,152.5,376.505,162.6016,376.9315,172.7031,377.7416,182.8047,376.9513,192.9063,377.1053,203.0078,377,213.1094,377.1043,213.1526,376.9817,213.516,376.7059,213.816,376.6491,214.2067,376.2379,214.4506,376.2678,214.8771,376.304,214.9647,375.9841,215.1924,375.6174,215.3069,375.2853,215.5053,374.7919,215.3142,374.5,215.6094,374.5,214.9572,364.3889,214.988,354.2778,215.5505,344.1667,215.4128,334.0556,216.2908,323.9444,215.4347,313.8333,215.2663,303.7222,215.8376,293.6111,214.9425,283.5,215.0902,273.3889,216.2583,263.2778,216.045,253.1667,216.3439,243.0556,215.2876,232.9444,215.9286,222.8333,216.1998,212.7222,215.137,202.6111,215.5135,192.5,215.6094,192.5161,215.6482,192.2296,215.6636,191.7924,215.3152,191.4983,215.3125,191.0151,214.853,190.7322,214.8771,190.5237,214.7908,190.7409,214.5878,190.2186,214.0786,190.4496,213.8814,190.2101,213.4893,190,213.1094,189.7321,213.1094,189.6462,203.0078,190.4588,192.9063,189.7007,182.8047,190.5919,172.7031,189.4473,162.6016,190,152.5,190.1901,152.5788,190.2956,152.2082,190.3683,151.8241,190.4539,151.4454,190.8096,151.1785,190.7322,150.7322,190.8105,150.9212,191.1074,150.6379,191.4736,150.5219,191.7763,150.2528,192.2378,150.3671,192.5,150" style="stroke:#000000;stroke-width:0.5;"/><polygon fill="#B4A7E5" points="246.3108,168.6756,244.6984,170.8788,242.7912,174.1057,240.0636,176.2804,237.1974,177.4696,234.912,177.5728,231.9747,176.0855,229.2032,175.1139,227.0995,173.1412,225.9961,170.8828,225.3417,169.0845,224.7006,166.7357,223.66,164.7145,224.4596,162.741,225.1602,160.5792,227.7893,158.8695,229.639,156.6511,231.9284,155.9144,234.6501,155.2801,238.1404,155.657,240.0521,156.5585,242.2747,156.9672,244.9772,159.736,245.9193,162.659,246.3286,164.6534,245.865,167.9399" style="stroke:#181818;stroke-width:1.0;"/><path d="M236.2031,162.6406 L236.2031,169.2969 L237.9219,169.2969 Q238.5313,169.2969 238.7969,169.5313 Q239.0625,169.7656 239.0625,170.1563 Q239.0625,170.5313 238.7969,170.7656 Q238.5313,171 237.9219,171 L232.7813,171 Q232.1719,171 231.9063,170.7656 Q231.6406,170.5313 231.6406,170.1406 Q231.6406,169.7656 231.9063,169.5313 Q232.1719,169.2969 232.7813,169.2969 L234.5,169.2969 L234.5,162.6406 L232.7813,162.6406 Q232.1719,162.6406 231.9063,162.4063 Q231.6406,162.1719 231.6406,161.7813 Q231.6406,161.4063 231.9063,161.1719 Q232.1719,160.9375 232.7813,160.9375 L237.9219,160.9375 Q238.5313,160.9375 238.7969,161.1719 Q239.0625,161.4063 239.0625,161.7813 Q239.0625,162.1719 238.7969,162.4063 Q238.5313,162.6406 237.9219,162.6406 L236.2031,162.6406 Z " fill="#000000"/><text fill="#000000" font-family="sans-serif" font-size="14" font-style="italic" lengthAdjust="spacing" textLength="88" x="255.75" y="171.7285">Journalisation</text><path d="M191,182 L191,182.2802 L200.7368,181.4476 L210.4737,182.2577 L220.2105,182.5329 L229.9474,181.0488 L239.6842,181.8964 L249.4211,181.4313 L259.1579,181.4887 L268.8947,181.9091 L278.6316,181.0782 L288.3684,182.7382 L298.1053,181.1596 L307.8421,181.7363 L317.5789,182.5759 L327.3158,181.8856 L337.0526,182.091 L346.7895,181.9574 L356.5263,182.238 L366.2632,182.3188 L376,182 " fill="#FFFFFF" style="stroke:#000000;stroke-width:0.5;"/><path d="M191,190 L191,190.2802 L200.7368,189.4476 L210.4737,190.2577 L220.2105,190.5329 L229.9474,189.0488 L239.6842,189.8964 L249.4211,189.4313 L259.1579,189.4887 L268.8947,189.9091 L278.6316,189.0782 L288.3684,190.7382 L298.1053,189.1596 L307.8421,189.7363 L317.5789,190.5759 L327.3158,189.8856 L337.0526,190.091 L346.7895,189.9574 L356.5263,190.238 L366.2632,190.3188 L376,190 " fill="#FFFFFF" style="stroke:#000000;stroke-width:0.5;"/><text fill="#000000" font-family="sans-serif" font-size="14" lengthAdjust="spacing" textLength="175" x="196" y="208.5332">+Ecrire(p_message : string)</text></g><!--class JournalisationConsole--><g id="elem_JournalisationConsole"><polygon fill="#FFFFFF" points="9.5,276,9.5,276.2102,19.66,275.5857,29.82,276.1933,39.98,276.3997,50.14,275.2866,60.3,275.9223,70.46,275.5735,80.62,275.6165,90.78,275.9318,100.94,275.3086,111.1,276.5536,121.26,275.3697,131.42,275.8022,141.58,276.4319,151.74,275.9142,161.9,276.0682,172.06,275.9681,182.22,276.1785,192.38,276.2391,202.54,276.5857,212.7,276.6711,222.86,276.6793,233.02,276.2546,243.18,276.4636,253.34,276.7022,263.5,276,263.408,275.7779,263.9401,276.3554,264.1693,276.2016,264.6288,276.6037,264.8511,276.4333,265.2678,276.7322,265.2467,276.7235,265.6426,277.1804,265.5457,277.4331,265.7395,277.8063,265.9578,278.1896,266,278.5,266.4162,278.5,265.9961,288.6016,266.2872,298.7031,265.4276,308.8047,266.2844,318.9063,266.5482,329.0078,266,339.1094,266.1369,339.1661,266.0423,339.5411,265.5583,339.7549,265.3598,340.0868,265.2228,340.4443,265.2678,340.8771,265.2603,340.859,264.8891,340.9631,264.6476,341.3799,264.1848,341.2627,263.8098,341.3573,263.5,341.6094,263.5,341.8376,253.34,340.9425,243.18,341.0902,233.02,342.2583,222.86,342.045,212.7,342.3439,202.54,341.2876,192.38,341.9286,182.22,342.1998,172.06,341.137,161.9,341.5135,151.74,341.7354,141.58,342.2611,131.42,341.6052,121.26,342.0719,111.1,341.0556,100.94,340.9321,90.78,342.113,80.62,340.8924,70.46,342.1183,60.3,341.816,50.14,341.3415,39.98,341.2556,29.82,342.0681,19.66,341.31,9.5,341.6094,9.5755,341.7916,9.0759,341.2927,8.8717,341.5066,8.5011,341.3192,8.117,341.099,7.7322,340.8771,7.7468,340.8832,7.8096,340.6163,7.6283,340.2483,7.345,339.8381,7.229,339.4971,7,339.1094,6.8697,339.1094,7.7165,329.0078,7.1549,318.9063,7.1726,308.8047,6.3916,298.7031,6.5948,288.6016,7,278.5,7.1634,278.5677,7.2788,278.2013,7.2797,277.7874,7.3401,277.3982,7.5184,277.0579,7.7322,276.7322,7.6447,276.5209,8.1387,276.7135,8.5337,276.6671,8.86,276.455,9.2351,276.3605,9.5,276" style="stroke:#000000;stroke-width:0.5;"/><polygon fill="#ADD1B2" points="73.8108,294.6756,72.1984,296.8788,70.2912,300.1057,67.5636,302.2804,64.6974,303.4696,62.412,303.5728,59.4747,302.0855,56.7032,301.1139,54.5995,299.1412,53.4961,296.8828,52.8417,295.0845,52.2006,292.7357,51.16,290.7145,51.9596,288.741,52.6602,286.5792,55.2893,284.8695,57.139,282.6511,59.4284,281.9144,62.1501,281.2801,65.6404,281.657,67.5521,282.5585,69.7747,282.9672,72.4772,285.736,73.4193,288.659,73.8286,290.6534,73.365,293.9399" style="stroke:#181818;stroke-width:1.0;"/><path d="M65.5156,287.875 Q65.6719,287.6563 65.8594,287.5469 Q66.0469,287.4375 66.2656,287.4375 Q66.6406,287.4375 66.875,287.6953 Q67.1094,287.9531 67.1094,288.5625 L67.1094,290.0156 Q67.1094,290.625 66.875,290.8906 Q66.6406,291.1563 66.2656,291.1563 Q65.9219,291.1563 65.7188,290.9531 Q65.5156,290.7656 65.4063,290.25 Q65.3594,289.8906 65.1719,289.7031 Q64.8438,289.3281 64.2344,289.1094 Q63.625,288.8906 63,288.8906 Q62.2344,288.8906 61.6016,289.2188 Q60.9688,289.5469 60.4766,290.2969 Q59.9844,291.0469 59.9844,292.0781 L59.9844,293.1719 Q59.9844,294.4063 60.875,295.2266 Q61.7656,296.0469 63.3594,296.0469 Q64.2969,296.0469 64.9531,295.7969 Q65.3438,295.6406 65.7656,295.2031 Q66.0313,294.9375 66.1797,294.8594 Q66.3281,294.7813 66.5313,294.7813 Q66.8594,294.7813 67.1172,295.0391 Q67.375,295.2969 67.375,295.6406 Q67.375,295.9844 67.0313,296.3906 Q66.5313,296.9688 65.7344,297.2969 Q64.6563,297.75 63.3594,297.75 Q61.8438,297.75 60.6406,297.125 Q59.6563,296.625 58.9688,295.5547 Q58.2813,294.4844 58.2813,293.2031 L58.2813,292.0469 Q58.2813,290.7188 58.8984,289.5703 Q59.5156,288.4219 60.6094,287.8047 Q61.7031,287.1875 62.9375,287.1875 Q63.6719,287.1875 64.3203,287.3516 Q64.9688,287.5156 65.5156,287.875 Z " fill="#000000"/><text fill="#000000" font-family="sans-serif" font-size="14" lengthAdjust="spacing" textLength="139" x="83.25" y="297.7285">JournalisationConsole</text><path d="M8,308 L8,308.2802 L17.8846,307.4476 L27.7692,308.2577 L37.6538,308.5329 L47.5385,307.0488 L57.4231,307.8964 L67.3077,307.4313 L77.1923,307.4887 L87.0769,307.9091 L96.9615,307.0782 L106.8462,308.7382 L116.7308,307.1596 L126.6154,307.7363 L136.5,308.5759 L146.3846,307.8856 L156.2692,308.091 L166.1538,307.9574 L176.0385,308.238 L185.9231,308.3188 L195.8077,308.7809 L205.6923,308.8947 L215.5769,308.9057 L225.4615,308.3395 L235.3462,308.6181 L245.2308,308.9363 L255.1154,307.0384 L265,308 " fill="#FFFFFF" style="stroke:#000000;stroke-width:0.5;"/><path d="M8,316 L8,316.2802 L17.8846,315.4476 L27.7692,316.2577 L37.6538,316.5329 L47.5385,315.0488 L57.4231,315.8964 L67.3077,315.4313 L77.1923,315.4887 L87.0769,315.9091 L96.9615,315.0782 L106.8462,316.7382 L116.7308,315.1596 L126.6154,315.7363 L136.5,316.5759 L146.3846,315.8856 L156.2692,316.091 L166.1538,315.9574 L176.0385,316.238 L185.9231,316.3188 L195.8077,316.7809 L205.6923,316.8947 L215.5769,316.9057 L225.4615,316.3395 L235.3462,316.6181 L245.2308,316.9363 L255.1154,315.0384 L265,316 " fill="#FFFFFF" style="stroke:#000000;stroke-width:0.5;"/><text fill="#000000" font-family="sans-serif" font-size="14" lengthAdjust="spacing" textLength="247" x="13" y="334.5332">+Ecrire(p_message : string) &#171;override&#187;</text></g><!--class JournalisationFichier--><g id="elem_JournalisationFichier"><polygon fill="#FFFFFF" points="303.5,276,303.5,276.2102,313.66,275.5857,323.82,276.1933,333.98,276.3997,344.14,275.2866,354.3,275.9223,364.46,275.5735,374.62,275.6165,384.78,275.9318,394.94,275.3086,405.1,276.5536,415.26,275.3697,425.42,275.8022,435.58,276.4319,445.74,275.9142,455.9,276.0682,466.06,275.9681,476.22,276.1785,486.38,276.2391,496.54,276.5857,506.7,276.6711,516.86,276.6793,527.02,276.2546,537.18,276.4636,547.34,276.7022,557.5,276,557.408,275.7779,557.9401,276.3554,558.1693,276.2016,558.6288,276.6037,558.8511,276.4333,559.2678,276.7322,559.2467,276.7235,559.6426,277.1804,559.5457,277.4331,559.7395,277.8063,559.9578,278.1896,560,278.5,560.4162,278.5,559.9961,288.6016,560.2872,298.7031,559.4276,308.8047,560.2844,318.9063,560.5482,329.0078,560,339.1094,560.1369,339.1661,560.0423,339.5411,559.5583,339.7549,559.3598,340.0868,559.2228,340.4443,559.2678,340.8771,559.2603,340.859,558.8891,340.9631,558.6476,341.3799,558.1848,341.2627,557.8098,341.3573,557.5,341.6094,557.5,341.8376,547.34,340.9425,537.18,341.0902,527.02,342.2583,516.86,342.045,506.7,342.3439,496.54,341.2876,486.38,341.9286,476.22,342.1998,466.06,341.137,455.9,341.5135,445.74,341.7354,435.58,342.2611,425.42,341.6052,415.26,342.0719,405.1,341.0556,394.94,340.9321,384.78,342.113,374.62,340.8924,364.46,342.1183,354.3,341.816,344.14,341.3415,333.98,341.2556,323.82,342.0681,313.66,341.31,303.5,341.6094,303.5755,341.7916,303.0759,341.2927,302.8717,341.5066,302.5011,341.3192,302.117,341.099,301.7322,340.8771,301.7468,340.8832,301.8096,340.6163,301.6283,340.2483,301.345,339.8381,301.229,339.4971,301,339.1094,300.8697,339.1094,301.7165,329.0078,301.1549,318.9063,301.1726,308.8047,300.3916,298.7031,300.5948,288.6016,301,278.5,301.1634,278.5677,301.2788,278.2013,301.2797,277.7874,301.3401,277.3982,301.5184,277.0579,301.7322,276.7322,301.6447,276.5209,302.1387,276.7135,302.5337,276.6671,302.86,276.455,303.2351,276.3605,303.5,276" style="stroke:#000000;stroke-width:0.5;"/><polygon fill="#ADD1B2" points="372.3108,294.6756,370.6984,296.8788,368.7912,300.1057,366.0636,302.2804,363.1974,303.4696,360.912,303.5728,357.9747,302.0855,355.2032,301.1139,353.0995,299.1412,351.9961,296.8828,351.3417,295.0845,350.7006,292.7357,349.66,290.7145,350.4596,288.741,351.1602,286.5792,353.7893,284.8695,355.639,282.6511,357.9284,281.9144,360.6501,281.2801,364.1404,281.657,366.0521,282.5585,368.2747,282.9672,370.9772,285.736,371.9193,288.659,372.3286,290.6534,371.865,293.9399" style="stroke:#181818;stroke-width:1.0;"/><path d="M364.0156,287.875 Q364.1719,287.6563 364.3594,287.5469 Q364.5469,287.4375 364.7656,287.4375 Q365.1406,287.4375 365.375,287.6953 Q365.6094,287.9531 365.6094,288.5625 L365.6094,290.0156 Q365.6094,290.625 365.375,290.8906 Q365.1406,291.1563 364.7656,291.1563 Q364.4219,291.1563 364.2188,290.9531 Q364.0156,290.7656 363.9063,290.25 Q363.8594,289.8906 363.6719,289.7031 Q363.3438,289.3281 362.7344,289.1094 Q362.125,288.8906 361.5,288.8906 Q360.7344,288.8906 360.1016,289.2188 Q359.4688,289.5469 358.9766,290.2969 Q358.4844,291.0469 358.4844,292.0781 L358.4844,293.1719 Q358.4844,294.4063 359.375,295.2266 Q360.2656,296.0469 361.8594,296.0469 Q362.7969,296.0469 363.4531,295.7969 Q363.8438,295.6406 364.2656,295.2031 Q364.5313,294.9375 364.6797,294.8594 Q364.8281,294.7813 365.0313,294.7813 Q365.3594,294.7813 365.6172,295.0391 Q365.875,295.2969 365.875,295.6406 Q365.875,295.9844 365.5313,296.3906 Q365.0313,296.9688 364.2344,297.2969 Q363.1563,297.75 361.8594,297.75 Q360.3438,297.75 359.1406,297.125 Q358.1563,296.625 357.4688,295.5547 Q356.7813,294.4844 356.7813,293.2031 L356.7813,292.0469 Q356.7813,290.7188 357.3984,289.5703 Q358.0156,288.4219 359.1094,287.8047 Q360.2031,287.1875 361.4375,287.1875 Q362.1719,287.1875 362.8203,287.3516 Q363.4688,287.5156 364.0156,287.875 Z " fill="#000000"/><text fill="#000000" font-family="sans-serif" font-size="14" lengthAdjust="spacing" textLength="130" x="381.75" y="297.7285">JournalisationFichier</text><path d="M302,308 L302,308.2802 L311.8846,307.4476 L321.7692,308.2577 L331.6538,308.5329 L341.5385,307.0488 L351.4231,307.8964 L361.3077,307.4313 L371.1923,307.4887 L381.0769,307.9091 L390.9615,307.0782 L400.8462,308.7382 L410.7308,307.1596 L420.6154,307.7363 L430.5,308.5759 L440.3846,307.8856 L450.2692,308.091 L460.1538,307.9574 L470.0385,308.238 L479.9231,308.3188 L489.8077,308.7809 L499.6923,308.8947 L509.5769,308.9057 L519.4615,308.3395 L529.3462,308.6181 L539.2308,308.9363 L549.1154,307.0384 L559,308 " fill="#FFFFFF" style="stroke:#000000;stroke-width:0.5;"/><path d="M302,316 L302,316.2802 L311.8846,315.4476 L321.7692,316.2577 L331.6538,316.5329 L341.5385,315.0488 L351.4231,315.8964 L361.3077,315.4313 L371.1923,315.4887 L381.0769,315.9091 L390.9615,315.0782 L400.8462,316.7382 L410.7308,315.1596 L420.6154,315.7363 L430.5,316.5759 L440.3846,315.8856 L450.2692,316.091 L460.1538,315.9574 L470.0385,316.238 L479.9231,316.3188 L489.8077,316.7809 L499.6923,316.8947 L509.5769,316.9057 L519.4615,316.3395 L529.3462,316.6181 L539.2308,316.9363 L549.1154,315.0384 L559,316 " fill="#FFFFFF" style="stroke:#000000;stroke-width:0.5;"/><text fill="#000000" font-family="sans-serif" font-size="14" lengthAdjust="spacing" textLength="247" x="307" y="334.5332">+Ecrire(p_message : string) &#171;override&#187;</text></g><!--class UneClasse--><g id="elem_UneClasse"><polygon fill="#FFFFFF" points="159.5,7,159.5,7.2102,169.42,6.5857,179.34,7.1933,189.26,7.3997,199.18,6.2866,209.1,6.9223,219.02,6.5735,228.94,6.6165,238.86,6.9318,248.78,6.3086,258.7,7.5536,268.62,6.3697,278.54,6.8022,288.46,7.4319,298.38,6.9142,308.3,7.0682,318.22,6.9681,328.14,7.1785,338.06,7.2391,347.98,7.5857,357.9,7.6711,367.82,7.6793,377.74,7.2546,387.66,7.4636,397.58,7.7022,407.5,7,407.408,6.7779,407.9401,7.3554,408.1693,7.2016,408.6288,7.6037,408.8511,7.4333,409.2678,7.7322,409.2467,7.7235,409.6426,8.1804,409.5457,8.4331,409.7395,8.8063,409.9578,9.1896,410,9.5,410.4162,9.5,409.9961,19.2773,410.2872,29.0547,409.4276,38.832,410.2844,48.6094,410.5482,58.3867,410.4445,68.1641,410.613,77.9414,410,87.7188,409.8512,87.6571,409.6527,87.9891,409.5157,88.3466,409.5425,88.7719,409.3537,89.1079,409.2678,89.4865,409.3547,89.6964,408.8919,89.5792,408.5169,89.6738,408.2362,89.9962,407.7685,89.8669,407.5,90.2188,407.5,89.6996,397.58,90.8677,387.66,90.6544,377.74,90.9532,367.82,89.897,357.9,90.5379,347.98,90.8092,338.06,89.7463,328.14,90.1229,318.22,90.3447,308.3,90.8705,298.38,90.2146,288.46,90.6813,278.54,89.665,268.62,89.5415,258.7,90.7224,248.78,89.5018,238.86,90.7277,228.94,90.4254,219.02,89.9508,209.1,89.865,199.18,90.6775,189.26,89.9194,179.34,90.8106,169.42,89.666,159.5,90.2188,159.5788,90.4089,159.2082,90.2214,158.8241,90.0013,158.4454,89.794,158.1785,89.8567,157.7322,89.4865,157.9212,89.5648,157.6379,89.1546,157.5219,88.8136,157.2528,88.4092,157.3671,88.1637,157,87.7188,157.1549,87.7188,157.1726,77.9414,156.3916,68.1641,156.5948,58.3867,157.5307,48.6094,157.4298,38.832,156.9571,29.0547,156.6778,19.2773,157,9.5,156.9326,9.4721,156.9351,9.0589,157.4206,8.8458,157.6671,8.5337,157.7479,8.1529,157.7322,7.7322,157.8209,7.9462,158.0683,7.5437,158.4505,7.4662,158.7435,7.1735,159.1827,7.2339,159.5,7" style="stroke:#000000;stroke-width:0.5;"/><polygon fill="#ADD1B2" points="256.3108,25.6756,254.6984,27.8788,252.7912,31.1057,250.0636,33.2804,247.1974,34.4696,244.912,34.5728,241.9747,33.0855,239.2032,32.1139,237.0995,30.1412,235.9961,27.8828,235.3417,26.0845,234.7006,23.7357,233.66,21.7145,234.4596,19.741,235.1602,17.5792,237.7893,15.8695,239.639,13.6511,241.9284,12.9144,244.6501,12.2801,248.1404,12.657,250.0521,13.5585,252.2747,13.9672,254.9772,16.736,255.9193,19.659,256.3286,21.6534,255.865,24.9399" style="stroke:#181818;stroke-width:1.0;"/><path d="M248.0156,18.875 Q248.1719,18.6563 248.3594,18.5469 Q248.5469,18.4375 248.7656,18.4375 Q249.1406,18.4375 249.375,18.6953 Q249.6094,18.9531 249.6094,19.5625 L249.6094,21.0156 Q249.6094,21.625 249.375,21.8906 Q249.1406,22.1563 248.7656,22.1563 Q248.4219,22.1563 248.2188,21.9531 Q248.0156,21.7656 247.9063,21.25 Q247.8594,20.8906 247.6719,20.7031 Q247.3438,20.3281 246.7344,20.1094 Q246.125,19.8906 245.5,19.8906 Q244.7344,19.8906 244.1016,20.2188 Q243.4688,20.5469 242.9766,21.2969 Q242.4844,22.0469 242.4844,23.0781 L242.4844,24.1719 Q242.4844,25.4063 243.375,26.2266 Q244.2656,27.0469 245.8594,27.0469 Q246.7969,27.0469 247.4531,26.7969 Q247.8438,26.6406 248.2656,26.2031 Q248.5313,25.9375 248.6797,25.8594 Q248.8281,25.7813 249.0313,25.7813 Q249.3594,25.7813 249.6172,26.0391 Q249.875,26.2969 249.875,26.6406 Q249.875,26.9844 249.5313,27.3906 Q249.0313,27.9688 248.2344,28.2969 Q247.1563,28.75 245.8594,28.75 Q244.3438,28.75 243.1406,28.125 Q242.1563,27.625 241.4688,26.5547 Q240.7813,25.4844 240.7813,24.2031 L240.7813,23.0469 Q240.7813,21.7188 241.3984,20.5703 Q242.0156,19.4219 243.1094,18.8047 Q244.2031,18.1875 245.4375,18.1875 Q246.1719,18.1875 246.8203,18.3516 Q247.4688,18.5156 248.0156,18.875 Z " fill="#000000"/><text fill="#000000" font-family="sans-serif" font-size="14" lengthAdjust="spacing" textLength="68" x="265.75" y="28.7285">UneClasse</text><path d="M158,39 L158,39.2802 L168.04,38.4476 L178.08,39.2577 L188.12,39.5329 L198.16,38.0488 L208.2,38.8964 L218.24,38.4313 L228.28,38.4887 L238.32,38.9091 L248.36,38.0782 L258.4,39.7382 L268.44,38.1596 L278.48,38.7363 L288.52,39.5759 L298.56,38.8856 L308.6,39.091 L318.64,38.9574 L328.68,39.238 L338.72,39.3188 L348.76,39.7809 L358.8,39.8947 L368.84,39.9057 L378.88,39.3395 L388.92,39.6181 L398.96,39.9363 L409,39 " fill="#FFFFFF" style="stroke:#000000;stroke-width:0.5;"/><path d="M158,47 L158,47.2802 L168.04,46.4476 L178.08,47.2577 L188.12,47.5329 L198.16,46.0488 L208.2,46.8964 L218.24,46.4313 L228.28,46.4887 L238.32,46.9091 L248.36,46.0782 L258.4,47.7382 L268.44,46.1596 L278.48,46.7363 L288.52,47.5759 L298.56,46.8856 L308.6,47.091 L318.64,46.9574 L328.68,47.238 L338.72,47.3188 L348.76,47.7809 L358.8,47.8947 L368.84,47.9057 L378.88,47.3395 L388.92,47.6181 L398.96,47.9363 L409,47 " fill="#FFFFFF" style="stroke:#000000;stroke-width:0.5;"/><text fill="#000000" font-family="sans-serif" font-size="14" lengthAdjust="spacing" textLength="241" x="163" y="65.5332">+ctor(p_journalisation : Journalisation)</text><text fill="#000000" font-family="sans-serif" font-size="14" lengthAdjust="spacing" textLength="43" x="163" y="83.1426">+Foo()</text></g><!--reverse link Journalisation to JournalisationConsole--><g id="link_Journalisation_JournalisationConsole"><path d="M231.5006,227.8651 L231.6813,228.0793 L223.0086,234.3064 L215.3952,241.7892 L207.4368,248.8631 L198.3441,254.5923 L190.7548,262.1037 L182.3191,268.6118 L174.55,275.91 " fill="none" style="stroke:#181818;stroke-width:1.0;stroke-dasharray:7.0,7.0;"/><polygon fill="none" points="245.26,216.26,245.2859,216.3251,241.6834,217.5354,238.2327,219.1273,234.7326,220.595,231.0698,221.654,227.6322,223.2787,227.6124,223.262,229.0709,225.0216,230.6292,226.8654,232.2569,228.7678,233.6455,230.4684,235.369,232.4516,235.5265,232.5478,237.1679,229.1038,239.2691,225.9406,241.4265,222.8117,243.2574,219.4834,245.26,216.26" style="stroke:#181818;stroke-width:1.0;"/></g><!--reverse link Journalisation to JournalisationFichier--><g id="link_Journalisation_JournalisationFichier"><path d="M335.4994,227.8651 L335.6801,228.0793 L343.279,234.3064 L351.9372,241.7892 L360.2504,248.8631 L367.4293,254.5923 L376.1116,262.1037 L383.9475,268.6118 L392.45,275.91 " fill="none" style="stroke:#181818;stroke-width:1.0;stroke-dasharray:7.0,7.0;"/><polygon fill="none" points="321.74,216.26,321.7998,216.2965,323.6003,219.4263,325.7514,222.7702,327.7883,226.0444,329.4499,229.0893,331.631,232.4516,331.6112,232.4349,333.0697,230.5254,334.628,228.7,336.2557,226.9332,337.6443,224.9647,339.3678,223.2787,339.436,223.4501,335.7645,221.6798,332.2923,220.41,328.8444,219.2012,325.255,217.6372,321.74,216.26" style="stroke:#181818;stroke-width:1.0;"/></g><!--link UneClasse to Journalisation--><g id="link_UneClasse_Journalisation"><path d="M283.5,90.34 L283.7802,90.34 L282.9476,101.056 L283.7577,111.772 L284.0329,122.488 L282.5488,133.204 L283.5,143.92 " fill="none" style="stroke:#181818;stroke-width:1.0;stroke-dasharray:7.0,7.0;"/><polygon fill="#181818" points="283.5,149.92,283.564,149.9485,284.1738,148.0639,285.1589,146.3462,286.0217,144.5741,286.4827,142.6234,287.5,140.92,287.4817,140.9017,286.5995,141.6195,285.8096,142.4296,285.0839,143.3039,284.137,143.957,283.5,144.92,283.6305,145.0505,282.5514,143.9714,281.8534,143.2734,281.2018,142.6218,280.2798,141.6998,279.5,140.92,279.5208,140.9292,280.2903,142.7157,281.1544,144.5442,281.9728,146.3524,282.8784,148.1993,283.5,149.92" style="stroke:#181818;stroke-width:1.0;"/></g><!--SRC=[dP1TIyDG38Rlyoi2tcm8fTTI2beSwAs8bt8yZMssBXavgO8V_zrk7TCLXU6vJ9uyvqtIYcKJBAmnTY6bItVZfzxf9ghSyHjX3kc0j47gLsDt4dJhwKThDutlWCEx2d7LcFPILzgfuKFBJcD7hIORgsTvdiCdmAts9g7Z59nLiFZ8CZokLIf9Epg1N71icGm0xeMgRIJ2B2id5C2OzfiPSvzZTBNPvd5v_D75P7w-fnUgi_bs1HOdUmwH9k31UnsDZGRpcb8A3GtAD1nQcjtucERNdKymO57e2vbnJMNvbsv_c7_elW00]--></g></svg>