<?xml version="1.0" encoding="UTF-8" standalone="no"?><svg xmlns="http://www.w3.org/2000/svg" xmlns:xlink="http://www.w3.org/1999/xlink" contentScriptType="application/ecmascript" contentStyleType="text/css" height="334px" preserveAspectRatio="none" style="width:494px;height:334px;" version="1.1" viewBox="0 0 494 334" width="494px" zoomAndPan="magnify"><defs><filter height="300%" id="f1wc4jde2xzkiu" width="300%" x="-1" y="-1"><feGaussianBlur result="blurOut" stdDeviation="2.0"/><feColorMatrix in="blurOut" result="blurOut2" type="matrix" values="0 0 0 0 0 0 0 0 0 0 0 0 0 0 0 0 0 0 .4 0"/><feOffset dx="4.0" dy="4.0" in="blurOut2" result="blurOut3"/><feBlend in="SourceGraphic" in2="blurOut3" mode="normal"/></filter></defs><g><!--class Journalisation--><polygon fill="#FFFFFF" filter="url(#f1wc4jde2xzkiu)" points="164,142,164,142.2102,174.0625,141.5857,184.125,142.1933,194.1875,142.3997,204.25,141.2866,214.3125,141.9223,224.375,141.5735,234.4375,141.6165,244.5,141.9318,254.5625,141.3086,264.625,142.5536,274.6875,141.3697,284.75,141.8022,294.8125,142.4319,304.875,141.9142,314.9375,142.0682,325,142,324.9681,142,325.1785,152.1592,325.2391,162.3184,325.5857,172.4775,325.6711,182.6367,325.6793,192.7959,325,202.9551,325,203.2097,314.9375,203.4187,304.875,203.6573,294.8125,202.2339,284.75,203.6336,274.6875,202.6586,264.625,203.4889,254.5625,202.4601,244.5,202.8866,234.4375,203.6967,224.375,202.9063,214.3125,203.0604,204.25,203.2937,194.1875,203.3713,184.125,202.9512,174.0625,203.2423,164,202.9551,163.4276,202.9551,164.2844,192.7959,164.5482,182.6367,164.4445,172.4775,164.613,162.3184,163.5169,152.1592,164,142" style="stroke: #000000; stroke-width: 1.5;"/><polygon fill="#B4A7E5" points="213.4608,160.6756,211.8484,162.8788,209.9412,166.1057,207.2136,168.2804,204.3474,169.4696,202.062,169.5728,199.1247,168.0855,196.3532,167.1139,194.2495,165.1412,193.1461,162.8828,192.4917,161.0845,191.8506,158.7357,190.81,156.7145,191.6096,154.741,192.3102,152.5792,194.9393,150.8695,196.789,148.6511,199.0784,147.9144,201.8001,147.2801,205.2904,147.657,207.2021,148.5585,209.4247,148.9672,212.1272,151.736,213.0693,154.659,213.4786,156.6534,213.015,159.9399" style="stroke: #000000; stroke-width: 1.0;"/><path d="M198.8277,154.2651 L198.8277,152.1069 L206.2071,152.1069 L206.2071,154.2651 L203.7418,154.2651 L203.7418,162.3418 L206.2071,162.3418 L206.2071,164.5 L198.8277,164.5 L198.8277,162.3418 L201.2931,162.3418 L201.2931,154.2651 Z "/><text fill="#000000" font-family="sans-serif" font-size="12" font-style="italic" lengthAdjust="spacingAndGlyphs" textLength="77" x="221.6" y="162.5352">Journalisation</text><path d="M165,174 L165,174.2802 L174.9375,173.4476 L184.875,174.2577 L194.8125,174.5329 L204.75,173.0488 L214.6875,173.8964 L224.625,173.4313 L234.5625,173.4887 L244.5,173.9091 L254.4375,173.0782 L264.375,174.7382 L274.3125,173.1596 L284.25,173.7363 L294.1875,174.5759 L304.125,173.8856 L314.0625,174.091 L324,174 " fill="#FFFFFF" style="stroke: #000000; stroke-width: 1.5;"/><path d="M165,182 L165,182.2802 L174.9375,181.4476 L184.875,182.2577 L194.8125,182.5329 L204.75,181.0488 L214.6875,181.8964 L224.625,181.4313 L234.5625,181.4887 L244.5,181.9091 L254.4375,181.0782 L264.375,182.7382 L274.3125,181.1596 L284.25,181.7363 L294.1875,182.5759 L304.125,181.8856 L314.0625,182.091 L324,182 " fill="#FFFFFF" style="stroke: #000000; stroke-width: 1.5;"/><text fill="#000000" font-family="sans-serif" font-size="11" lengthAdjust="spacingAndGlyphs" textLength="149" x="170" y="196.6348">+Ecrire(p_message : string)</text><!--class JournalisationConsole--><polygon fill="#FFFFFF" filter="url(#f1wc4jde2xzkiu)" points="6,263,6,263.2102,16.0455,262.5857,26.0909,263.1933,36.1364,263.3997,46.1818,262.2866,56.2273,262.9223,66.2727,262.5735,76.3182,262.6165,86.3636,262.9318,96.4091,262.3086,106.4545,263.5536,116.5,262.3697,126.5455,262.8022,136.5909,263.4319,146.6364,262.9142,156.6818,263.0682,166.7273,262.9681,176.7727,263.1785,186.8182,263.2391,196.8636,263.5857,206.9091,263.6711,216.9545,263.6793,227,263,227.2546,263,227.4636,273.1592,227.7022,283.3184,226.2788,293.4775,227.6785,303.6367,226.7035,313.7959,227,323.9551,227,324.4889,216.9545,323.4601,206.9091,323.8866,196.8636,324.6967,186.8182,323.9063,176.7727,324.0604,166.7273,324.2937,156.6818,324.3713,146.6364,323.9512,136.5909,324.2423,126.5455,323.3827,116.5,324.2395,106.4545,324.5033,96.4091,324.3996,86.3636,324.5681,76.3182,323.472,66.2727,323.3029,56.2273,323.3337,46.1818,323.8962,36.1364,323.7585,26.0909,324.6365,16.0455,323.7804,6,323.9551,5.6569,323.9551,6.2283,313.7959,5.3332,303.6367,5.4809,293.4775,6.649,283.3184,6.4357,273.1592,6,263" style="stroke: #000000; stroke-width: 1.5;"/><polygon fill="#ADD1B2" points="62.3108,281.6756,60.6984,283.8788,58.7912,287.1057,56.0636,289.2804,53.1974,290.4696,50.912,290.5728,47.9747,289.0855,45.2032,288.1139,43.0995,286.1412,41.9961,283.8828,41.3417,282.0845,40.7006,279.7357,39.66,277.7145,40.4596,275.741,41.1602,273.5792,43.7893,271.8695,45.639,269.6511,47.9284,268.9144,50.6501,268.2801,54.1404,268.657,56.0521,269.5585,58.2747,269.9672,60.9772,272.736,61.9193,275.659,62.3286,277.6534,61.865,280.9399" style="stroke: #000000; stroke-width: 1.0;"/><path d="M53.7231,285.1431 Q53.1421,285.4419 52.5029,285.5913 Q51.8638,285.7407 51.1582,285.7407 Q48.6514,285.7407 47.3315,284.0889 Q46.0117,282.437 46.0117,279.3159 Q46.0117,276.1865 47.3315,274.5347 Q48.6514,272.8828 51.1582,272.8828 Q51.8638,272.8828 52.5112,273.0322 Q53.1587,273.1816 53.7231,273.4805 L53.7231,276.2031 Q53.0923,275.6221 52.4988,275.3523 Q51.9053,275.0825 51.2744,275.0825 Q49.9297,275.0825 49.2449,276.1492 Q48.5601,277.2158 48.5601,279.3159 Q48.5601,281.4077 49.2449,282.4744 Q49.9297,283.541 51.2744,283.541 Q51.9053,283.541 52.4988,283.2712 Q53.0923,283.0015 53.7231,282.4204 Z "/><text fill="#000000" font-family="sans-serif" font-size="12" lengthAdjust="spacingAndGlyphs" textLength="122" x="71.75" y="283.5352">JournalisationConsole</text><path d="M7,295 L7,295.2802 L16.9545,294.4476 L26.9091,295.2577 L36.8636,295.5329 L46.8182,294.0488 L56.7727,294.8964 L66.7273,294.4313 L76.6818,294.4887 L86.6364,294.9091 L96.5909,294.0782 L106.5455,295.7382 L116.5,294.1596 L126.4545,294.7363 L136.4091,295.5759 L146.3636,294.8856 L156.3182,295.091 L166.2727,294.9574 L176.2273,295.238 L186.1818,295.3188 L196.1364,295.7809 L206.0909,295.8947 L216.0455,295.9057 L226,295 " fill="#FFFFFF" style="stroke: #000000; stroke-width: 1.5;"/><path d="M7,303 L7,303.2802 L16.9545,302.4476 L26.9091,303.2577 L36.8636,303.5329 L46.8182,302.0488 L56.7727,302.8964 L66.7273,302.4313 L76.6818,302.4887 L86.6364,302.9091 L96.5909,302.0782 L106.5455,303.7382 L116.5,302.1596 L126.4545,302.7363 L136.4091,303.5759 L146.3636,302.8856 L156.3182,303.091 L166.2727,302.9574 L176.2273,303.238 L186.1818,303.3188 L196.1364,303.7809 L206.0909,303.8947 L216.0455,303.9057 L226,303 " fill="#FFFFFF" style="stroke: #000000; stroke-width: 1.5;"/><text fill="#000000" font-family="sans-serif" font-size="11" lengthAdjust="spacingAndGlyphs" textLength="209" x="12" y="317.6348">+Ecrire(p_message : string) «override»</text><!--class JournalisationFichier--><polygon fill="#FFFFFF" filter="url(#f1wc4jde2xzkiu)" points="262,263,262,263.2102,272.0455,262.5857,282.0909,263.1933,292.1364,263.3997,302.1818,262.2866,312.2273,262.9223,322.2727,262.5735,332.3182,262.6165,342.3636,262.9318,352.4091,262.3086,362.4545,263.5536,372.5,262.3697,382.5455,262.8022,392.5909,263.4319,402.6364,262.9142,412.6818,263.0682,422.7273,262.9681,432.7727,263.1785,442.8182,263.2391,452.8636,263.5857,462.9091,263.6711,472.9545,263.6793,483,263,483.2546,263,483.4636,273.1592,483.7022,283.3184,482.2788,293.4775,483.6785,303.6367,482.7035,313.7959,483,323.9551,483,324.4889,472.9545,323.4601,462.9091,323.8866,452.8636,324.6967,442.8182,323.9063,432.7727,324.0604,422.7273,324.2937,412.6818,324.3713,402.6364,323.9512,392.5909,324.2423,382.5455,323.3827,372.5,324.2395,362.4545,324.5033,352.4091,324.3996,342.3636,324.5681,332.3182,323.472,322.2727,323.3029,312.2273,323.3337,302.1818,323.8962,292.1364,323.7585,282.0909,324.6365,272.0455,323.7804,262,323.9551,261.6569,323.9551,262.2283,313.7959,261.3332,303.6367,261.4809,293.4775,262.649,283.3184,262.4357,273.1592,262,263" style="stroke: #000000; stroke-width: 1.5;"/><polygon fill="#ADD1B2" points="322.3108,281.6756,320.6984,283.8788,318.7912,287.1057,316.0636,289.2804,313.1974,290.4696,310.912,290.5728,307.9747,289.0855,305.2032,288.1139,303.0995,286.1412,301.9961,283.8828,301.3417,282.0845,300.7006,279.7357,299.66,277.7145,300.4596,275.741,301.1602,273.5792,303.7893,271.8695,305.639,269.6511,307.9284,268.9144,310.6501,268.2801,314.1404,268.657,316.0521,269.5585,318.2747,269.9672,320.9772,272.736,321.9193,275.659,322.3286,277.6534,321.865,280.9399" style="stroke: #000000; stroke-width: 1.0;"/><path d="M313.7231,285.1431 Q313.1421,285.4419 312.5029,285.5913 Q311.8638,285.7407 311.1582,285.7407 Q308.6514,285.7407 307.3315,284.0889 Q306.0117,282.437 306.0117,279.3159 Q306.0117,276.1865 307.3315,274.5347 Q308.6514,272.8828 311.1582,272.8828 Q311.8638,272.8828 312.5112,273.0322 Q313.1587,273.1816 313.7231,273.4805 L313.7231,276.2031 Q313.0923,275.6221 312.4988,275.3523 Q311.9053,275.0825 311.2744,275.0825 Q309.9297,275.0825 309.2449,276.1492 Q308.5601,277.2158 308.5601,279.3159 Q308.5601,281.4077 309.2449,282.4744 Q309.9297,283.541 311.2744,283.541 Q311.9053,283.541 312.4988,283.2712 Q313.0923,283.0015 313.7231,282.4204 Z "/><text fill="#000000" font-family="sans-serif" font-size="12" lengthAdjust="spacingAndGlyphs" textLength="114" x="331.75" y="283.5352">JournalisationFichier</text><path d="M263,295 L263,295.2802 L272.9545,294.4476 L282.9091,295.2577 L292.8636,295.5329 L302.8182,294.0488 L312.7727,294.8964 L322.7273,294.4313 L332.6818,294.4887 L342.6364,294.9091 L352.5909,294.0782 L362.5455,295.7382 L372.5,294.1596 L382.4545,294.7363 L392.4091,295.5759 L402.3636,294.8856 L412.3182,295.091 L422.2727,294.9574 L432.2273,295.238 L442.1818,295.3188 L452.1364,295.7809 L462.0909,295.8947 L472.0455,295.9057 L482,295 " fill="#FFFFFF" style="stroke: #000000; stroke-width: 1.5;"/><path d="M263,303 L263,303.2802 L272.9545,302.4476 L282.9091,303.2577 L292.8636,303.5329 L302.8182,302.0488 L312.7727,302.8964 L322.7273,302.4313 L332.6818,302.4887 L342.6364,302.9091 L352.5909,302.0782 L362.5455,303.7382 L372.5,302.1596 L382.4545,302.7363 L392.4091,303.5759 L402.3636,302.8856 L412.3182,303.091 L422.2727,302.9574 L432.2273,303.238 L442.1818,303.3188 L452.1364,303.7809 L462.0909,303.8947 L472.0455,303.9057 L482,303 " fill="#FFFFFF" style="stroke: #000000; stroke-width: 1.5;"/><text fill="#000000" font-family="sans-serif" font-size="11" lengthAdjust="spacingAndGlyphs" textLength="209" x="268" y="317.6348">+Ecrire(p_message : string) «override»</text><!--class UneClasse--><polygon fill="#FFFFFF" filter="url(#f1wc4jde2xzkiu)" points="134,8,134,8.2102,144.0455,7.5857,154.0909,8.1933,164.1364,8.3997,174.1818,7.2866,184.2273,7.9223,194.2727,7.5735,204.3182,7.6165,214.3636,7.9318,224.4091,7.3086,234.4545,8.5536,244.5,7.3697,254.5455,7.8022,264.5909,8.4319,274.6364,7.9142,284.6818,8.0682,294.7273,7.9681,304.7727,8.1785,314.8182,8.2391,324.8636,8.5857,334.9091,8.6711,344.9545,8.6793,355,8,355.2546,8,355.4636,18.5586,355.7022,29.1172,354.2788,39.6758,355.6785,50.2344,354.7035,60.793,355.5338,71.3516,355,81.9102,355,81.4151,344.9545,81.8417,334.9091,82.6518,324.8636,81.8614,314.8182,82.0155,304.7727,82.2488,294.7273,82.3264,284.6818,81.9063,274.6364,82.1974,264.5909,81.3377,254.5455,82.1945,244.5,82.4584,234.4545,82.3547,224.4091,82.5232,214.3636,81.4271,204.3182,81.258,194.2727,81.2888,184.2273,81.8513,174.1818,81.7136,164.1364,82.5916,154.0909,81.7355,144.0455,81.5671,134,81.9102,134.2283,81.9102,133.3332,71.3516,133.4809,60.793,134.649,50.2344,134.4357,39.6758,134.7345,29.1172,133.6782,18.5586,134,8" style="stroke: #000000; stroke-width: 1.5;"/><polygon fill="#ADD1B2" points="221.8108,26.6756,220.1984,28.8788,218.2912,32.1057,215.5636,34.2804,212.6974,35.4696,210.412,35.5728,207.4747,34.0855,204.7032,33.1139,202.5995,31.1412,201.4961,28.8828,200.8417,27.0845,200.2006,24.7357,199.16,22.7145,199.9596,20.741,200.6602,18.5792,203.2893,16.8695,205.139,14.6511,207.4284,13.9144,210.1501,13.2801,213.6404,13.657,215.5521,14.5585,217.7747,14.9672,220.4772,17.736,221.4193,20.659,221.8286,22.6534,221.365,25.9399" style="stroke: #000000; stroke-width: 1.0;"/><path d="M213.2231,30.1431 Q212.6421,30.4419 212.0029,30.5913 Q211.3638,30.7407 210.6582,30.7407 Q208.1514,30.7407 206.8315,29.0889 Q205.5117,27.437 205.5117,24.3159 Q205.5117,21.1865 206.8315,19.5347 Q208.1514,17.8828 210.6582,17.8828 Q211.3638,17.8828 212.0112,18.0322 Q212.6587,18.1816 213.2231,18.4805 L213.2231,21.2031 Q212.5923,20.6221 211.9988,20.3523 Q211.4053,20.0825 210.7744,20.0825 Q209.4297,20.0825 208.7449,21.1492 Q208.0601,22.2158 208.0601,24.3159 Q208.0601,26.4077 208.7449,27.4744 Q209.4297,28.541 210.7744,28.541 Q211.4053,28.541 211.9988,28.2712 Q212.5923,28.0015 213.2231,27.4204 Z "/><text fill="#000000" font-family="sans-serif" font-size="12" lengthAdjust="spacingAndGlyphs" textLength="59" x="231.25" y="28.5352">UneClasse</text><path d="M135,40 L135,40.2802 L144.9545,39.4476 L154.9091,40.2577 L164.8636,40.5329 L174.8182,39.0488 L184.7727,39.8964 L194.7273,39.4313 L204.6818,39.4887 L214.6364,39.9091 L224.5909,39.0782 L234.5455,40.7382 L244.5,39.1596 L254.4545,39.7363 L264.4091,40.5759 L274.3636,39.8856 L284.3182,40.091 L294.2727,39.9574 L304.2273,40.238 L314.1818,40.3188 L324.1364,40.7809 L334.0909,40.8947 L344.0455,40.9057 L354,40 " fill="#FFFFFF" style="stroke: #000000; stroke-width: 1.5;"/><path d="M135,48 L135,48.2802 L144.9545,47.4476 L154.9091,48.2577 L164.8636,48.5329 L174.8182,47.0488 L184.7727,47.8964 L194.7273,47.4313 L204.6818,47.4887 L214.6364,47.9091 L224.5909,47.0782 L234.5455,48.7382 L244.5,47.1596 L254.4545,47.7363 L264.4091,48.5759 L274.3636,47.8856 L284.3182,48.091 L294.2727,47.9574 L304.2273,48.238 L314.1818,48.3188 L324.1364,48.7809 L334.0909,48.8947 L344.0455,48.9057 L354,48 " fill="#FFFFFF" style="stroke: #000000; stroke-width: 1.5;"/><text fill="#000000" font-family="sans-serif" font-size="11" lengthAdjust="spacingAndGlyphs" textLength="209" x="140" y="62.6348">+ctor(p_journalisation : Journalisation)</text><text fill="#000000" font-family="sans-serif" font-size="11" lengthAdjust="spacingAndGlyphs" textLength="37" x="140" y="75.5898">+Foo()</text><!--reverse link Journalisation to JournalisationConsole--><path d="M197.79,216.93 L197.9808,217.1353 L190.3739,223.0697 L183.8855,230.2073 L177.0328,236.9532 L168.9824,242.4105 L162.5195,249.5755 L155.1628,255.7792 L148.51,262.74 " fill="none" style="stroke: #A80036; stroke-width: 1.0; stroke-dasharray: 7.0,7.0;"/><polygon fill="none" points="193.12,211.71,193.1481,211.7742,196.9467,209.8855,200.9098,208.373,204.8194,206.7381,208.5527,204.7001,212.53,203.22,212.5071,203.2079,210.4282,206.9037,208.4649,210.6604,206.5819,214.4594,204.4221,218.1126,202.65,221.97,202.7852,222.0956,200.5901,219.775,198.7897,217.8211,197.0375,215.912,195.0051,213.7425,193.12,211.71" style="stroke: #A80036; stroke-width: 1.0;"/><!--reverse link Journalisation to JournalisationFichier--><path d="M291.21,216.93 L291.4008,217.1353 L297.8739,223.0697 L305.4655,230.2073 L312.6928,236.9532 L318.7224,242.4105 L326.3395,249.5755 L333.0628,255.7792 L340.49,262.74 " fill="none" style="stroke: #A80036; stroke-width: 1.0; stroke-dasharray: 7.0,7.0;"/><polygon fill="none" points="286.35,221.97,286.412,222.0027,284.2518,218.1556,282.455,214.5,280.5399,210.7821,278.2356,206.8591,276.47,203.22,276.4596,203.1963,280.295,204.7878,284.1828,206.4989,288.1069,208.2932,291.9056,209.8009,295.88,211.71,296.0152,211.8356,293.8201,213.619,292.0197,215.7691,290.2675,217.964,288.2351,219.8985,286.35,221.97" style="stroke: #A80036; stroke-width: 1.0;"/><!--link UneClasse to Journalisation--><path d="M244.5,82.3 L244.7802,82.3 L243.9476,93.14 L244.7577,103.98 L245.0329,114.82 L243.5488,125.66 L244.5,136.5 " fill="none" style="stroke: #A80036; stroke-width: 1.0; stroke-dasharray: 7.0,7.0;"/><polygon fill="#A80036" points="244.5,141.62,244.564,141.6485,245.1738,139.7639,246.1589,138.0462,247.0217,136.2741,247.4827,134.3234,248.5,132.62,248.4817,132.6017,247.5995,133.3195,246.8096,134.1296,246.0839,135.0039,245.137,135.657,244.5,136.62,244.6305,136.7505,243.5514,135.6714,242.8534,134.9734,242.2018,134.3218,241.2798,133.3998,240.5,132.62,240.5208,132.6292,241.2903,134.4157,242.1544,136.2442,242.9728,138.0524,243.8784,139.8993,244.5,141.62" style="stroke: #A80036; stroke-width: 1.0;"/><!--
@startuml InjectionDependancesLog
skinparam classAttributeIconSize 0
skinparam handwritten true
skinparam class {
    BackgroundColor White
    BorderColor #000
}

Journalisation <|.. JournalisationConsole
Journalisation <|.. JournalisationFichier


UneClasse ..> Journalisation

class UneClasse {
    + ctor(p_journalisation : Journalisation)
    + Foo()
}

interface Journalisation {
    + Ecrire(p_message : string)
}

class JournalisationConsole {
    + Ecrire(p_message : string) <<override>>
}

class JournalisationFichier {
    + Ecrire(p_message : string) <<override>>
}

@enduml

PlantUML version 1.2019.09(Mon Aug 26 12:19:51 EDT 2019)
(GPL source distribution)
Java Runtime: OpenJDK Runtime Environment
JVM: OpenJDK 64-Bit Server VM
Java Version: 13.0.2+8
Operating System: Mac OS X
OS Version: 10.15.4
Default Encoding: UTF-8
Language: fr
Country: CA
--></g></svg>