<?xml version="1.0" encoding="UTF-8" standalone="no"?><svg xmlns="http://www.w3.org/2000/svg" xmlns:xlink="http://www.w3.org/1999/xlink" contentScriptType="application/ecmascript" contentStyleType="text/css" height="265px" preserveAspectRatio="none" style="width:696px;height:265px;" version="1.1" viewBox="0 0 696 265" width="696px" zoomAndPan="magnify"><defs><filter height="300%" id="fbxuh4z0mgibx" width="300%" x="-1" y="-1"><feGaussianBlur result="blurOut" stdDeviation="2.0"/><feColorMatrix in="blurOut" result="blurOut2" type="matrix" values="0 0 0 0 0 0 0 0 0 0 0 0 0 0 0 0 0 0 .4 0"/><feOffset dx="4.0" dy="4.0" in="blurOut2" result="blurOut3"/><feBlend in="SourceGraphic" in2="blurOut3" mode="normal"/></filter></defs><g><!--class FormeGeometrique--><polygon fill="#BDD7EE" filter="url(#fbxuh4z0mgibx)" points="277,8,277,8.2102,287.2143,7.5857,297.4286,8.1933,307.6429,8.3997,317.8571,7.2866,328.0714,7.9223,338.2857,7.5735,348.5,7.6165,358.7143,7.9318,368.9286,7.3086,379.1429,8.5536,389.3571,7.3697,399.5714,7.8022,409.7857,8.4319,420,8,419.9142,8,420.0682,18.5586,419.9681,29.1172,420.1785,39.6758,420.2391,50.2344,420.5857,60.793,420.6711,71.3516,420,81.9102,420,82.5894,409.7857,82.1648,399.5714,82.3737,389.3571,82.6124,379.1429,81.189,368.9286,82.5887,358.7143,81.6137,348.5,82.444,338.2857,81.4151,328.0714,81.8417,317.8571,82.6518,307.6429,81.8614,297.4286,82.0155,287.2143,82.2488,277,81.9102,277.4162,81.9102,276.9961,71.3516,277.2872,60.793,276.4276,50.2344,277.2844,39.6758,277.5482,29.1172,277.4445,18.5586,277,8" style="stroke: #000000; stroke-width: 1.5;"/><polygon fill="#BDD7EE" points="277,8,277,8.2102,287.2143,7.5857,297.4286,8.1933,307.6429,8.3997,317.8571,7.2866,328.0714,7.9223,338.2857,7.5735,348.5,7.6165,358.7143,7.9318,368.9286,7.3086,379.1429,8.5536,389.3571,7.3697,399.5714,7.8022,409.7857,8.4319,420,8,419.9714,8,420.0227,14.4,419.9894,20.8,420.0595,27.2,420.0797,33.6,420,40,420,40.5857,409.7857,40.6711,399.5714,40.6793,389.3571,40.2546,379.1429,40.4636,368.9286,40.7022,358.7143,39.2788,348.5,40.6785,338.2857,39.7035,328.0714,40.5338,317.8571,39.505,307.6429,39.9315,297.4286,40.7416,287.2143,39.9513,277,40,277.0351,40,277.1129,33.6,277.1387,27.2,276.9987,20.8,277.0957,14.4,277,8" style="stroke: #000000; stroke-width: 1.5;"/><polygon fill="#A9DCDF" points="303.0608,26.6756,301.4484,28.8788,299.5412,32.1057,296.8136,34.2804,293.9474,35.4696,291.662,35.5728,288.7247,34.0855,285.9532,33.1139,283.8495,31.1412,282.7461,28.8828,282.0917,27.0845,281.4506,24.7357,280.41,22.7145,281.2096,20.741,281.9102,18.5792,284.5393,16.8695,286.389,14.6511,288.6784,13.9144,291.4001,13.2801,294.8904,13.657,296.8021,14.5585,299.0247,14.9672,301.7272,17.736,302.6693,20.659,303.0786,22.6534,302.615,25.9399" style="stroke: #000000; stroke-width: 1.0;"/><path d="M292.1133,19.5981 L290.9595,24.6699 L293.2754,24.6699 Z M290.6191,17.3569 L293.6157,17.3569 L296.9609,29.75 L294.5122,29.75 L293.7485,26.687 L290.4697,26.687 L289.7227,29.75 L287.2739,29.75 Z "/><text fill="#000000" font-family="sans-serif" font-size="12" font-style="italic" lengthAdjust="spacingAndGlyphs" textLength="111" x="306" y="28.5352">FormeGeometrique</text><path d="M278,40 L278,40.2802 L288.0714,39.4476 L298.1429,40.2577 L308.2143,40.5329 L318.2857,39.0488 L328.3571,39.8964 L338.4286,39.4313 L348.5,39.4887 L358.5714,39.9091 L368.6429,39.0782 L378.7143,40.7382 L388.7857,39.1596 L398.8571,39.7363 L408.9286,40.5759 L419,40 " fill="#BDD7EE" style="stroke: #000000; stroke-width: 1.5;"/><path d="M278,48 L278,48.2802 L288.0714,47.4476 L298.1429,48.2577 L308.2143,48.5329 L318.2857,47.0488 L328.3571,47.8964 L338.4286,47.4313 L348.5,47.4887 L358.5714,47.9091 L368.6429,47.0782 L378.7143,48.7382 L388.7857,47.1596 L398.8571,47.7363 L408.9286,48.5759 L419,48 " fill="#BDD7EE" style="stroke: #000000; stroke-width: 1.5;"/><text fill="#000000" font-family="sans-serif" font-size="11" font-style="italic" lengthAdjust="spacingAndGlyphs" textLength="64" x="283" y="62.6348">+Dessiner()</text><text fill="#000000" font-family="sans-serif" font-size="11" font-style="italic" lengthAdjust="spacingAndGlyphs" textLength="129" x="283" y="75.5898">+CalculerAire() : double</text><!--class Carre--><polygon fill="#A9D18E" filter="url(#fbxuh4z0mgibx)" points="6,148.5,6,148.7102,15.8571,148.0857,25.7143,148.6933,35.5714,148.8997,45.4286,147.7866,55.2857,148.4223,65.1429,148.0735,75,148.1165,84.8571,148.4318,94.7143,147.8086,104.5714,149.0536,114.4286,147.8697,124.2857,148.3022,134.1429,148.9319,144,148.4142,153.8571,148.5682,163.7143,148.4681,173.5714,148.6785,183.4286,148.7391,193.2857,149.0857,203.1429,149.1711,213,148.5,213.6793,148.5,213.2546,158.482,213.4636,168.4641,213.7022,178.4461,212.2788,188.4281,213.6785,198.4102,212.7035,208.3922,213.5338,218.3742,212.505,228.3563,212.9315,238.3383,213,248.3203,213,249.0619,203.1429,248.2716,193.2857,248.4256,183.4286,248.6589,173.5714,248.7365,163.7143,248.3164,153.8571,248.6075,144,247.7479,134.1429,248.6047,124.2857,248.8685,114.4286,248.7648,104.5714,248.9333,94.7143,247.8372,84.8571,247.6681,75,247.6989,65.1429,248.2614,55.2857,248.1238,45.4286,249.0017,35.5714,248.1456,25.7143,247.9773,15.8571,248.5486,6,248.3203,5.3332,248.3203,5.4809,238.3383,6.649,228.3563,6.4357,218.3742,6.7345,208.3922,5.6782,198.4102,6.3192,188.4281,6.5904,178.4461,5.5276,168.4641,5.9041,158.482,6,148.5" style="stroke: #000000; stroke-width: 1.5;"/><polygon fill="#A9D18E" points="6,148.5,6,148.7102,15.8571,148.0857,25.7143,148.6933,35.5714,148.8997,45.4286,147.7866,55.2857,148.4223,65.1429,148.0735,75,148.1165,84.8571,148.4318,94.7143,147.8086,104.5714,149.0536,114.4286,147.8697,124.2857,148.3022,134.1429,148.9319,144,148.4142,153.8571,148.5682,163.7143,148.4681,173.5714,148.6785,183.4286,148.7391,193.2857,149.0857,203.1429,149.1711,213,148.5,213.2264,148.5,213.0849,154.9,213.1545,161.3,213.2341,167.7,212.7596,174.1,213,180.5,213,181.1785,203.1429,180.2035,193.2857,181.0338,183.4286,180.005,173.5714,180.4315,163.7143,181.2416,153.8571,180.4513,144,180.6053,134.1429,180.8386,124.2857,180.9162,114.4286,180.4961,104.5714,180.7872,94.7143,179.9276,84.8571,180.7844,75,181.0482,65.1429,180.9445,55.2857,181.113,45.4286,180.0169,35.5714,179.8478,25.7143,179.8786,15.8571,180.4411,6,180.5,5.9345,180.5,6.2271,174.1,5.9418,167.7,5.8856,161.3,6.0761,154.9,6,148.5" style="stroke: #000000; stroke-width: 1.5;"/><polygon fill="#ADD1B2" points="100.3108,167.1756,98.6984,169.3788,96.7912,172.6057,94.0636,174.7804,91.1974,175.9696,88.912,176.0728,85.9747,174.5855,83.2032,173.6139,81.0995,171.6412,79.9961,169.3828,79.3417,167.5845,78.7006,165.2357,77.66,163.2145,78.4596,161.241,79.1602,159.0792,81.7893,157.3695,83.639,155.1511,85.9284,154.4144,88.6501,153.7801,92.1404,154.157,94.0521,155.0585,96.2747,155.4672,98.9772,158.236,99.9193,161.159,100.3286,163.1534,99.865,166.4399" style="stroke: #000000; stroke-width: 1.0;"/><path d="M91.7231,170.6431 Q91.1421,170.9419 90.5029,171.0913 Q89.8638,171.2407 89.1582,171.2407 Q86.6514,171.2407 85.3315,169.5889 Q84.0117,167.937 84.0117,164.8159 Q84.0117,161.6865 85.3315,160.0347 Q86.6514,158.3828 89.1582,158.3828 Q89.8638,158.3828 90.5112,158.5322 Q91.1587,158.6816 91.7231,158.9805 L91.7231,161.7031 Q91.0923,161.1221 90.4988,160.8523 Q89.9053,160.5825 89.2744,160.5825 Q87.9297,160.5825 87.2449,161.6492 Q86.5601,162.7158 86.5601,164.8159 Q86.5601,166.9077 87.2449,167.9744 Q87.9297,169.041 89.2744,169.041 Q89.9053,169.041 90.4988,168.7712 Q91.0923,168.5015 91.7231,167.9204 Z "/><text fill="#000000" font-family="sans-serif" font-size="12" lengthAdjust="spacingAndGlyphs" textLength="32" x="109.75" y="169.0352">Carre</text><path d="M7,180.5 L7,180.7802 L16.7619,179.9476 L26.5238,180.7577 L36.2857,181.0329 L46.0476,179.5488 L55.8095,180.3964 L65.5714,179.9313 L75.3333,179.9887 L85.0952,180.4091 L94.8571,179.5782 L104.619,181.2382 L114.381,179.6596 L124.1429,180.2363 L133.9048,181.0759 L143.6667,180.3856 L153.4286,180.591 L163.1905,180.4574 L172.9524,180.738 L182.7143,180.8188 L192.4762,181.2809 L202.2381,181.3947 L212,180.5 " fill="#A9D18E" style="stroke: #000000; stroke-width: 1.5;"/><text fill="#000000" font-family="sans-serif" font-size="11" lengthAdjust="spacingAndGlyphs" textLength="195" x="12" y="195.1348">+LongueurCote : double «get» «set»</text><text fill="#000000" font-family="sans-serif" font-size="11" lengthAdjust="spacingAndGlyphs" textLength="186" x="12" y="208.0898">+PointDepart : Point2D «get» «set»</text><path d="M7,214.4102 L7,214.6904 L16.7619,213.8577 L26.5238,214.6679 L36.2857,214.9431 L46.0476,213.459 L55.8095,214.3065 L65.5714,213.8415 L75.3333,213.8988 L85.0952,214.3193 L94.8571,213.4883 L104.619,215.1483 L114.381,213.5698 L124.1429,214.1465 L133.9048,214.9861 L143.6667,214.2958 L153.4286,214.5011 L163.1905,214.3676 L172.9524,214.6482 L182.7143,214.729 L192.4762,215.1911 L202.2381,215.3049 L212,214.4102 " fill="#A9D18E" style="stroke: #000000; stroke-width: 1.5;"/><text fill="#000000" font-family="sans-serif" font-size="11" lengthAdjust="spacingAndGlyphs" textLength="124" x="12" y="229.0449">+Dessiner() «override»</text><text fill="#000000" font-family="sans-serif" font-size="11" lengthAdjust="spacingAndGlyphs" textLength="189" x="12" y="242">+CalculerAire() : double «override»</text><!--class Rectangle--><polygon fill="#A9D18E" filter="url(#fbxuh4z0mgibx)" points="248,142,248,142.2102,258.05,141.5857,268.1,142.1933,278.15,142.3997,288.2,141.2866,298.25,141.9223,308.3,141.5735,318.35,141.6165,328.4,141.9318,338.45,141.3086,348.5,142.5536,358.55,141.3697,368.6,141.8022,378.65,142.4319,388.7,141.9142,398.75,142.0682,408.8,141.9681,418.85,142.1785,428.9,142.2391,438.95,142.5857,449,142,449.6711,142,449.6793,152.2523,449.2546,162.5046,449.4636,172.7569,449.7022,183.0092,448.2788,193.2615,449.6785,203.5138,448.7035,213.7662,449.5338,224.0185,448.505,234.2708,448.9315,244.5231,449,254.7754,449,255.517,438.95,254.7267,428.9,254.8807,418.85,255.114,408.8,255.1916,398.75,254.7715,388.7,255.0626,378.65,254.203,368.6,255.0598,358.55,255.3236,348.5,255.2199,338.45,255.3884,328.4,254.2923,318.35,254.1232,308.3,254.154,298.25,254.7165,288.2,254.5789,278.15,255.4568,268.1,254.6007,258.05,254.4323,248,254.7754,248.2283,254.7754,247.3332,244.5231,247.4809,234.2708,248.649,224.0185,248.4357,213.7662,248.7345,203.5138,247.6782,193.2615,248.3192,183.0092,248.5904,172.7569,247.5276,162.5046,247.9041,152.2523,248,142" style="stroke: #000000; stroke-width: 1.5;"/><polygon fill="#A9D18E" points="248,142,248,142.2102,258.05,141.5857,268.1,142.1933,278.15,142.3997,288.2,141.2866,298.25,141.9223,308.3,141.5735,318.35,141.6165,328.4,141.9318,338.45,141.3086,348.5,142.5536,358.55,141.3697,368.6,141.8022,378.65,142.4319,388.7,141.9142,398.75,142.0682,408.8,141.9681,418.85,142.1785,428.9,142.2391,438.95,142.5857,449,142,449.2237,142,449.2264,148.4,449.0849,154.8,449.1545,161.2,449.2341,167.6,449,174,449,173.2788,438.95,174.6785,428.9,173.7035,418.85,174.5338,408.8,173.505,398.75,173.9315,388.7,174.7416,378.65,173.9513,368.6,174.1053,358.55,174.3386,348.5,174.4162,338.45,173.9961,328.4,174.2872,318.35,173.4276,308.3,174.2844,298.25,174.5482,288.2,174.4445,278.15,174.613,268.1,173.5169,258.05,173.3478,248,174,247.7929,174,247.9804,167.6,247.9345,161.2,248.2271,154.8,247.9418,148.4,248,142" style="stroke: #000000; stroke-width: 1.5;"/><polygon fill="#ADD1B2" points="327.3108,160.6756,325.6984,162.8788,323.7912,166.1057,321.0636,168.2804,318.1974,169.4696,315.912,169.5728,312.9747,168.0855,310.2032,167.1139,308.0995,165.1412,306.9961,162.8828,306.3417,161.0845,305.7006,158.7357,304.66,156.7145,305.4596,154.741,306.1602,152.5792,308.7893,150.8695,310.639,148.6511,312.9284,147.9144,315.6501,147.2801,319.1404,147.657,321.0521,148.5585,323.2747,148.9672,325.9772,151.736,326.9193,154.659,327.3286,156.6534,326.865,159.9399" style="stroke: #000000; stroke-width: 1.0;"/><path d="M318.7231,164.1431 Q318.1421,164.4419 317.5029,164.5913 Q316.8638,164.7407 316.1582,164.7407 Q313.6514,164.7407 312.3315,163.0889 Q311.0117,161.437 311.0117,158.3159 Q311.0117,155.1865 312.3315,153.5347 Q313.6514,151.8828 316.1582,151.8828 Q316.8638,151.8828 317.5112,152.0322 Q318.1587,152.1816 318.7231,152.4805 L318.7231,155.2031 Q318.0923,154.6221 317.4988,154.3523 Q316.9053,154.0825 316.2744,154.0825 Q314.9297,154.0825 314.2449,155.1492 Q313.5601,156.2158 313.5601,158.3159 Q313.5601,160.4077 314.2449,161.4744 Q314.9297,162.541 316.2744,162.541 Q316.9053,162.541 317.4988,162.2712 Q318.0923,162.0015 318.7231,161.4204 Z "/><text fill="#000000" font-family="sans-serif" font-size="12" lengthAdjust="spacingAndGlyphs" textLength="56" x="336.75" y="162.5352">Rectangle</text><path d="M249,174 L249,174.2802 L258.95,173.4476 L268.9,174.2577 L278.85,174.5329 L288.8,173.0488 L298.75,173.8964 L308.7,173.4313 L318.65,173.4887 L328.6,173.9091 L338.55,173.0782 L348.5,174.7382 L358.45,173.1596 L368.4,173.7363 L378.35,174.5759 L388.3,173.8856 L398.25,174.091 L408.2,173.9574 L418.15,174.238 L428.1,174.3188 L438.05,174.7809 L448,174 " fill="#A9D18E" style="stroke: #000000; stroke-width: 1.5;"/><text fill="#000000" font-family="sans-serif" font-size="11" lengthAdjust="spacingAndGlyphs" textLength="161" x="254" y="188.6348">+Hauteur : double «get» «set»</text><text fill="#000000" font-family="sans-serif" font-size="11" lengthAdjust="spacingAndGlyphs" textLength="160" x="254" y="201.5898">+Largeur : double «get» «set»</text><text fill="#000000" font-family="sans-serif" font-size="11" lengthAdjust="spacingAndGlyphs" textLength="186" x="254" y="214.5449">+PointDepart : Point2D «get» «set»</text><path d="M249,220.8652 L249,221.1455 L258.95,220.3128 L268.9,221.1229 L278.85,221.3981 L288.8,219.914 L298.75,220.7616 L308.7,220.2966 L318.65,220.3539 L328.6,220.7744 L338.55,219.9434 L348.5,221.6034 L358.45,220.0249 L368.4,220.6015 L378.35,221.4412 L388.3,220.7509 L398.25,220.9562 L408.2,220.8226 L418.15,221.1033 L428.1,221.1841 L438.05,221.6462 L448,220.8652 " fill="#A9D18E" style="stroke: #000000; stroke-width: 1.5;"/><text fill="#000000" font-family="sans-serif" font-size="11" lengthAdjust="spacingAndGlyphs" textLength="124" x="254" y="235.5">+Dessiner() «override»</text><text fill="#000000" font-family="sans-serif" font-size="11" lengthAdjust="spacingAndGlyphs" textLength="189" x="254" y="248.4551">+CalculerAire() : double «override»</text><!--class Cercle--><polygon fill="#A9D18E" filter="url(#fbxuh4z0mgibx)" points="484,148.5,484,148.7102,494.05,148.0857,504.1,148.6933,514.15,148.8997,524.2,147.7866,534.25,148.4223,544.3,148.0735,554.35,148.1165,564.4,148.4318,574.45,147.8086,584.5,149.0536,594.55,147.8697,604.6,148.3022,614.65,148.9319,624.7,148.4142,634.75,148.5682,644.8,148.4681,654.85,148.6785,664.9,148.7391,674.95,149.0857,685,148.5,685.6711,148.5,685.6793,158.482,685.2546,168.4641,685.4636,178.4461,685.7022,188.4281,684.2788,198.4102,685.6785,208.3922,684.7035,218.3742,685.5338,228.3563,684.505,238.3383,685,248.3203,685,248.2518,674.95,249.0619,664.9,248.2716,654.85,248.4256,644.8,248.6589,634.75,248.7365,624.7,248.3164,614.65,248.6075,604.6,247.7479,594.55,248.6047,584.5,248.8685,574.45,248.7648,564.4,248.9333,554.35,247.8372,544.3,247.6681,534.25,247.6989,524.2,248.2614,514.15,248.1238,504.1,249.0017,494.05,248.1456,484,248.3203,483.6569,248.3203,484.2283,238.3383,483.3332,228.3563,483.4809,218.3742,484.649,208.3922,484.4357,198.4102,484.7345,188.4281,483.6782,178.4461,484.3192,168.4641,484.5904,158.482,484,148.5" style="stroke: #000000; stroke-width: 1.5;"/><polygon fill="#A9D18E" points="484,148.5,484,148.7102,494.05,148.0857,504.1,148.6933,514.15,148.8997,524.2,147.7866,534.25,148.4223,544.3,148.0735,554.35,148.1165,564.4,148.4318,574.45,147.8086,584.5,149.0536,594.55,147.8697,604.6,148.3022,614.65,148.9319,624.7,148.4142,634.75,148.5682,644.8,148.4681,654.85,148.6785,664.9,148.7391,674.95,149.0857,685,148.5,685.2237,148.5,685.2264,154.9,685.0849,161.3,685.1545,167.7,685.2341,174.1,685,180.5,685,179.7788,674.95,181.1785,664.9,180.2035,654.85,181.0338,644.8,180.005,634.75,180.4315,624.7,181.2416,614.65,180.4513,604.6,180.6053,594.55,180.8386,584.5,180.9162,574.45,180.4961,564.4,180.7872,554.35,179.9276,544.3,180.7844,534.25,181.0482,524.2,180.9445,514.15,181.113,504.1,180.0169,494.05,179.8478,484,180.5,483.7929,180.5,483.9804,174.1,483.9345,167.7,484.2271,161.3,483.9418,154.9,484,148.5" style="stroke: #000000; stroke-width: 1.5;"/><polygon fill="#ADD1B2" points="573.3108,167.1756,571.6984,169.3788,569.7912,172.6057,567.0636,174.7804,564.1974,175.9696,561.912,176.0728,558.9747,174.5855,556.2032,173.6139,554.0995,171.6412,552.9961,169.3828,552.3417,167.5845,551.7006,165.2357,550.66,163.2145,551.4596,161.241,552.1602,159.0792,554.7893,157.3695,556.639,155.1511,558.9284,154.4144,561.6501,153.7801,565.1404,154.157,567.0521,155.0585,569.2747,155.4672,571.9772,158.236,572.9193,161.159,573.3286,163.1534,572.865,166.4399" style="stroke: #000000; stroke-width: 1.0;"/><path d="M564.7231,170.6431 Q564.1421,170.9419 563.5029,171.0913 Q562.8638,171.2407 562.1582,171.2407 Q559.6514,171.2407 558.3315,169.5889 Q557.0117,167.937 557.0117,164.8159 Q557.0117,161.6865 558.3315,160.0347 Q559.6514,158.3828 562.1582,158.3828 Q562.8638,158.3828 563.5112,158.5322 Q564.1587,158.6816 564.7231,158.9805 L564.7231,161.7031 Q564.0923,161.1221 563.4988,160.8523 Q562.9053,160.5825 562.2744,160.5825 Q560.9297,160.5825 560.2449,161.6492 Q559.5601,162.7158 559.5601,164.8159 Q559.5601,166.9077 560.2449,167.9744 Q560.9297,169.041 562.2744,169.041 Q562.9053,169.041 563.4988,168.7712 Q564.0923,168.5015 564.7231,167.9204 Z "/><text fill="#000000" font-family="sans-serif" font-size="12" lengthAdjust="spacingAndGlyphs" textLength="36" x="582.75" y="169.0352">Cercle</text><path d="M485,180.5 L485,180.7802 L494.95,179.9476 L504.9,180.7577 L514.85,181.0329 L524.8,179.5488 L534.75,180.3964 L544.7,179.9313 L554.65,179.9887 L564.6,180.4091 L574.55,179.5782 L584.5,181.2382 L594.45,179.6596 L604.4,180.2363 L614.35,181.0759 L624.3,180.3856 L634.25,180.591 L644.2,180.4574 L654.15,180.738 L664.1,180.8188 L674.05,181.2809 L684,180.5 " fill="#A9D18E" style="stroke: #000000; stroke-width: 1.5;"/><text fill="#000000" font-family="sans-serif" font-size="11" lengthAdjust="spacingAndGlyphs" textLength="151" x="490" y="195.1348">+Rayon : double «get» «set»</text><text fill="#000000" font-family="sans-serif" font-size="11" lengthAdjust="spacingAndGlyphs" textLength="159" x="490" y="208.0898">+Centre : Point2D «get» «set»</text><path d="M485,214.4102 L485,214.6904 L494.95,213.8577 L504.9,214.6679 L514.85,214.9431 L524.8,213.459 L534.75,214.3065 L544.7,213.8415 L554.65,213.8988 L564.6,214.3193 L574.55,213.4883 L584.5,215.1483 L594.45,213.5698 L604.4,214.1465 L614.35,214.9861 L624.3,214.2958 L634.25,214.5011 L644.2,214.3676 L654.15,214.6482 L664.1,214.729 L674.05,215.1911 L684,214.4102 " fill="#A9D18E" style="stroke: #000000; stroke-width: 1.5;"/><text fill="#000000" font-family="sans-serif" font-size="11" lengthAdjust="spacingAndGlyphs" textLength="124" x="490" y="229.0449">+Dessiner() «override»</text><text fill="#000000" font-family="sans-serif" font-size="11" lengthAdjust="spacingAndGlyphs" textLength="189" x="490" y="242">+CalculerAire() : double «override»</text><!--reverse link FormeGeometrique to Carre--><path d="M274.44,92.95 L274.59,93.1867 L265.4252,98.0104 L257.14,104.2217 L248.5683,109.9811 L239.0547,114.2546 L230.7895,120.4975 L221.8215,125.6317 L213.1332,131.2071 L204.6393,137.0892 L195.4755,141.9144 L187.25,148.22 " fill="none" style="stroke: #A80036; stroke-width: 1.0;"/><polygon fill="none" points="270.92,86.89,270.9358,86.9582,275.0168,85.7975,279.1906,85.0368,283.3341,84.1458,287.3782,82.8264,291.56,82.1,291.5397,82.0839,288.8185,85.3358,286.1998,88.6687,283.6522,92.0579,280.8593,95.253,278.41,98.72,278.5659,98.8187,276.7345,96.2416,275.3583,93.9527,274.0376,91.699,272.3938,89.2407,270.92,86.89" style="stroke: #A80036; stroke-width: 1.0;"/><!--reverse link FormeGeometrique to Rectangle--><path d="M348.5,102.36 L348.5934,102.36 L348.3159,110.282 L348.5859,118.204 L348.6776,126.126 L348.1829,134.048 L348.5,141.97 " fill="none" style="stroke: #A80036; stroke-width: 1.0;"/><polygon fill="none" points="341.5,102.29,341.5661,102.3131,342.7696,98.2444,344.3608,94.3113,345.8257,90.334,346.8756,86.2114,348.5,82.29,348.4755,82.2814,349.7658,86.243,351.1793,90.2478,352.6786,94.2825,353.8825,98.2139,355.5,102.29,355.5,102.4745,352.7,102.0799,349.9,102.2241,347.1,102.434,344.3,102.2614,341.5,102.29" style="stroke: #A80036; stroke-width: 1.0;"/><!--reverse link FormeGeometrique to Cercle--><path d="M421.63,92.95 L421.7814,93.1858 L429.9416,98.0121 L438.9892,104.2209 L447.7479,109.9795 L455.5562,114.2575 L464.624,120.4978 L472.9828,125.6335 L481.6238,131.2087 L490.4609,137.0895 L498.622,141.9173 L507.73,148.22 " fill="none" style="stroke: #A80036; stroke-width: 1.0;"/><polygon fill="none" points="417.78,98.79,417.8352,98.8332,415.0612,95.3669,412.6108,92.1537,410.055,88.8581,407.1527,85.2915,404.73,82.1,404.724,82.0748,408.8191,82.9437,412.9444,83.9396,417.0907,85.0239,421.1646,85.8038,425.34,87.01,425.4953,87.1097,423.6512,89.2525,422.2605,91.6864,420.9252,94.1558,419.2679,96.4186,417.78,98.79" style="stroke: #A80036; stroke-width: 1.0;"/><!--
@startuml DiagClasseFormeGeometriquesAbstract

skinparam classAttributeIconSize 0
skinparam handwritten true

skinparam class {
    BackgroundColor White
    BorderColor #000
}

abstract class FormeGeometrique #BDD7EE {
    + Dessiner() {abstract}
    + CalculerAire() : double {abstract}
}

class Carre #A9D18E {
    + LongueurCote : double <<get>> <<set>>
    + PointDepart : Point2D <<get>> <<set>>
    + Dessiner() <<override>>
    + CalculerAire() : double <<override>>
}

class Rectangle #A9D18E {
    + Hauteur : double <<get>> <<set>>
    + Largeur : double <<get>> <<set>>
    + PointDepart : Point2D <<get>> <<set>>
    + Dessiner() <<override>>
    + CalculerAire() : double <<override>>
}

class Cercle #A9D18E {
    + Rayon : double <<get>> <<set>>
    + Centre : Point2D <<get>> <<set>>
    + Dessiner() <<override>>
    + CalculerAire() : double <<override>>
}

FormeGeometrique <|- - Carre
FormeGeometrique <|- - Rectangle
FormeGeometrique <|- - Cercle



@enduml

PlantUML version 1.2019.09(Mon Aug 26 12:19:51 EDT 2019)
(GPL source distribution)
Java Runtime: OpenJDK Runtime Environment
JVM: OpenJDK 64-Bit Server VM
Java Version: 13.0.2+8
Operating System: Mac OS X
OS Version: 10.15.4
Default Encoding: UTF-8
Language: fr
Country: CA
--></g></svg>