<?xml version="1.0" encoding="UTF-8" standalone="no"?><svg xmlns="http://www.w3.org/2000/svg" xmlns:xlink="http://www.w3.org/1999/xlink" contentScriptType="application/ecmascript" contentStyleType="text/css" height="261px" preserveAspectRatio="none" style="width:240px;height:261px;" version="1.1" viewBox="0 0 240 261" width="240px" zoomAndPan="magnify"><defs><filter height="300%" id="fe899c926ye9w" width="300%" x="-1" y="-1"><feGaussianBlur result="blurOut" stdDeviation="2.0"/><feColorMatrix in="blurOut" result="blurOut2" type="matrix" values="0 0 0 0 0 0 0 0 0 0 0 0 0 0 0 0 0 0 .4 0"/><feOffset dx="4.0" dy="4.0" in="blurOut2" result="blurOut3"/><feBlend in="SourceGraphic" in2="blurOut3" mode="normal"/></filter></defs><g><!--class MatchSoccer--><rect fill="#FFFFFF" filter="url(#fe899c926ye9w)" height="60.9551" id="MatchSoccer" style="stroke: #000000; stroke-width: 1.5;" width="114" x="60.5" y="8"/><ellipse cx="80.45" cy="24" fill="#ADD1B2" rx="11" ry="11" style="stroke: #000000; stroke-width: 1.0;"/><path d="M82.9231,30.1431 Q82.3421,30.4419 81.7029,30.5913 Q81.0638,30.7407 80.3582,30.7407 Q77.8514,30.7407 76.5315,29.0889 Q75.2117,27.437 75.2117,24.3159 Q75.2117,21.1865 76.5315,19.5347 Q77.8514,17.8828 80.3582,17.8828 Q81.0638,17.8828 81.7112,18.0322 Q82.3587,18.1816 82.9231,18.4805 L82.9231,21.2031 Q82.2923,20.6221 81.6988,20.3523 Q81.1053,20.0825 80.4744,20.0825 Q79.1297,20.0825 78.4449,21.1492 Q77.7601,22.2158 77.7601,24.3159 Q77.7601,26.4077 78.4449,27.4744 Q79.1297,28.541 80.4744,28.541 Q81.1053,28.541 81.6988,28.2712 Q82.2923,28.0015 82.9231,27.4204 Z "/><text fill="#000000" font-family="sans-serif" font-size="12" lengthAdjust="spacingAndGlyphs" textLength="71" x="95.55" y="28.5352">MatchSoccer</text><line style="stroke: #000000; stroke-width: 1.5;" x1="61.5" x2="173.5" y1="40" y2="40"/><text fill="#000000" font-family="sans-serif" font-size="11" lengthAdjust="spacingAndGlyphs" textLength="102" x="66.5" y="54.6348">-m_arbitre: Arbitre</text><line style="stroke: #000000; stroke-width: 1.5;" x1="61.5" x2="173.5" y1="60.9551" y2="60.9551"/><!--class Arbitre--><rect fill="#FFFFFF" filter="url(#fe899c926ye9w)" height="60.9551" id="Arbitre" style="stroke: #000000; stroke-width: 1.5;" width="223" x="6" y="190"/><ellipse cx="93.25" cy="206" fill="#ADD1B2" rx="11" ry="11" style="stroke: #000000; stroke-width: 1.0;"/><path d="M95.7231,212.1431 Q95.1421,212.4419 94.5029,212.5913 Q93.8638,212.7407 93.1582,212.7407 Q90.6514,212.7407 89.3315,211.0889 Q88.0117,209.437 88.0117,206.3159 Q88.0117,203.1865 89.3315,201.5347 Q90.6514,199.8828 93.1582,199.8828 Q93.8638,199.8828 94.5112,200.0322 Q95.1587,200.1816 95.7231,200.4805 L95.7231,203.2031 Q95.0923,202.6221 94.4988,202.3523 Q93.9053,202.0825 93.2744,202.0825 Q91.9297,202.0825 91.2449,203.1492 Q90.5601,204.2158 90.5601,206.3159 Q90.5601,208.4077 91.2449,209.4744 Q91.9297,210.541 93.2744,210.541 Q93.9053,210.541 94.4988,210.2712 Q95.0923,210.0015 95.7231,209.4204 Z "/><text fill="#000000" font-family="sans-serif" font-size="12" lengthAdjust="spacingAndGlyphs" textLength="40" x="113.75" y="210.5352">Arbitre</text><line style="stroke: #000000; stroke-width: 1.5;" x1="7" x2="228" y1="222" y2="222"/><text fill="#000000" font-family="sans-serif" font-size="11" lengthAdjust="spacingAndGlyphs" textLength="211" x="12" y="236.6348">-m_matchsSoccer : List&lt;MatchSoccer&gt;</text><line style="stroke: #000000; stroke-width: 1.5;" x1="7" x2="228" y1="242.9551" y2="242.9551"/><!--link MatchSoccer to Arbitre--><path d="M117.5,69.22 C117.5,102.57 117.5,156.36 117.5,189.73 " fill="none" id="MatchSoccer-Arbitre" style="stroke: #A80036; stroke-width: 1.0;"/><text fill="#000000" font-family="sans-serif" font-size="13" lengthAdjust="spacingAndGlyphs" textLength="6" x="110.8813" y="89.7079">*</text><text fill="#000000" font-family="sans-serif" font-size="13" lengthAdjust="spacingAndGlyphs" textLength="8" x="108.675" y="179.4418">1</text><!--
@startuml MatchSoccerAssociationSimple
skinparam classAttributeIconSize 0
skinparam class {
    BackgroundColor White
    BorderColor #000
}

MatchSoccer "*" - - - "1" Arbitre

class MatchSoccer {
    - m_arbitre: Arbitre
}
class Arbitre {
    - m_matchsSoccer : List<MatchSoccer>
}
@enduml

PlantUML version 1.2019.09(Mon Aug 26 12:19:51 EDT 2019)
(GPL source distribution)
Java Runtime: OpenJDK Runtime Environment
JVM: OpenJDK 64-Bit Server VM
Java Version: 13.0.2+8
Operating System: Mac OS X
OS Version: 10.15.2
Default Encoding: UTF-8
Language: fr
Country: CA
--></g></svg>