<?xml version="1.0" encoding="UTF-8" standalone="no"?><svg xmlns="http://www.w3.org/2000/svg" xmlns:xlink="http://www.w3.org/1999/xlink" contentScriptType="application/ecmascript" contentStyleType="text/css" height="205px" preserveAspectRatio="none" style="width:188px;height:205px;" version="1.1" viewBox="0 0 188 205" width="188px" zoomAndPan="magnify"><defs><filter height="300%" id="f1x44hcp2n1fv9" width="300%" x="-1" y="-1"><feGaussianBlur result="blurOut" stdDeviation="2.0"/><feColorMatrix in="blurOut" result="blurOut2" type="matrix" values="0 0 0 0 0 0 0 0 0 0 0 0 0 0 0 0 0 0 .4 0"/><feOffset dx="4.0" dy="4.0" in="blurOut2" result="blurOut3"/><feBlend in="SourceGraphic" in2="blurOut3" mode="normal"/></filter></defs><g><!--class CoursPlanifie--><rect fill="#FFFFFF" filter="url(#f1x44hcp2n1fv9)" height="60.9551" id="CoursPlanifie" style="stroke: #000000; stroke-width: 1.5;" width="171" x="6" y="8"/><ellipse cx="50.25" cy="24" fill="#ADD1B2" rx="11" ry="11" style="stroke: #000000; stroke-width: 1.0;"/><path d="M52.7231,30.1431 Q52.1421,30.4419 51.5029,30.5913 Q50.8638,30.7407 50.1582,30.7407 Q47.6514,30.7407 46.3315,29.0889 Q45.0117,27.437 45.0117,24.3159 Q45.0117,21.1865 46.3315,19.5347 Q47.6514,17.8828 50.1582,17.8828 Q50.8638,17.8828 51.5112,18.0322 Q52.1587,18.1816 52.7231,18.4805 L52.7231,21.2031 Q52.0923,20.6221 51.4988,20.3523 Q50.9053,20.0825 50.2744,20.0825 Q48.9297,20.0825 48.2449,21.1492 Q47.5601,22.2158 47.5601,24.3159 Q47.5601,26.4077 48.2449,27.4744 Q48.9297,28.541 50.2744,28.541 Q50.9053,28.541 51.4988,28.2712 Q52.0923,28.0015 52.7231,27.4204 Z "/><text fill="#000000" font-family="sans-serif" font-size="12" lengthAdjust="spacingAndGlyphs" textLength="74" x="70.75" y="28.5352">CoursPlanifie</text><line style="stroke: #000000; stroke-width: 1.5;" x1="7" x2="176" y1="40" y2="40"/><text fill="#000000" font-family="sans-serif" font-size="11" lengthAdjust="spacingAndGlyphs" textLength="159" x="12" y="54.6348">-m_etudiants: List&lt;Etudiant&gt;</text><line style="stroke: #000000; stroke-width: 1.5;" x1="7" x2="176" y1="60.9551" y2="60.9551"/><!--class Etudiant--><rect fill="#FFFFFF" filter="url(#f1x44hcp2n1fv9)" height="48" id="Etudiant" style="stroke: #000000; stroke-width: 1.5;" width="79" x="52" y="146"/><ellipse cx="67" cy="162" fill="#ADD1B2" rx="11" ry="11" style="stroke: #000000; stroke-width: 1.0;"/><path d="M69.4731,168.1431 Q68.8921,168.4419 68.2529,168.5913 Q67.6138,168.7407 66.9082,168.7407 Q64.4014,168.7407 63.0815,167.0889 Q61.7617,165.437 61.7617,162.3159 Q61.7617,159.1865 63.0815,157.5347 Q64.4014,155.8828 66.9082,155.8828 Q67.6138,155.8828 68.2612,156.0322 Q68.9087,156.1816 69.4731,156.4805 L69.4731,159.2031 Q68.8423,158.6221 68.2488,158.3523 Q67.6553,158.0825 67.0244,158.0825 Q65.6797,158.0825 64.9949,159.1492 Q64.3101,160.2158 64.3101,162.3159 Q64.3101,164.4077 64.9949,165.4744 Q65.6797,166.541 67.0244,166.541 Q67.6553,166.541 68.2488,166.2712 Q68.8423,166.0015 69.4731,165.4204 Z "/><text fill="#000000" font-family="sans-serif" font-size="12" lengthAdjust="spacingAndGlyphs" textLength="47" x="81" y="166.5352">Etudiant</text><line style="stroke: #000000; stroke-width: 1.5;" x1="53" x2="130" y1="178" y2="178"/><line style="stroke: #000000; stroke-width: 1.5;" x1="53" x2="130" y1="186" y2="186"/><!--reverse link CoursPlanifie to Etudiant--><path d="M91.5,82.5 C91.5,103.65 91.5,128.32 91.5,145.88 " fill="none" id="CoursPlanifie&lt;-Etudiant" style="stroke: #A80036; stroke-width: 1.0;"/><polygon fill="#FFFFFF" points="91.5,69.21,87.5,75.21,91.5,81.21,95.5,75.21,91.5,69.21" style="stroke: #A80036; stroke-width: 1.0;"/><text fill="#000000" font-family="sans-serif" font-size="13" lengthAdjust="spacingAndGlyphs" textLength="77" x="92.5" y="112.5684">est suivi par</text><text fill="#000000" font-family="sans-serif" font-size="13" lengthAdjust="spacingAndGlyphs" textLength="6" x="84.8813" y="89.6958">*</text><text fill="#000000" font-family="sans-serif" font-size="13" lengthAdjust="spacingAndGlyphs" textLength="6" x="84.7313" y="135.3855">*</text><!--
@startuml EtudiantAgregation
skinparam classAttributeIconSize 0
skinparam class {
    BackgroundColor White
    BorderColor #000
}

CoursPlanifie "*" o- - "*" Etudiant : est suivi par

class CoursPlanifie {
    - m_etudiants: List<Etudiant>
}
class Etudiant {

}
@enduml

PlantUML version 1.2019.09(Mon Aug 26 12:19:51 EDT 2019)
(GPL source distribution)
Java Runtime: OpenJDK Runtime Environment
JVM: OpenJDK 64-Bit Server VM
Java Version: 13.0.2+8
Operating System: Mac OS X
OS Version: 10.15.2
Default Encoding: UTF-8
Language: fr
Country: CA
--></g></svg>