<?xml version="1.0" encoding="us-ascii" standalone="no"?><svg xmlns="http://www.w3.org/2000/svg" xmlns:xlink="http://www.w3.org/1999/xlink" contentStyleType="text/css" height="649px" preserveAspectRatio="none" style="width:514px;height:649px;background:#FFFFFF;" version="1.1" viewBox="0 0 514 649" width="514px" zoomAndPan="magnify"><defs/><g><rect fill="#FFFFFF" height="427.9219" style="stroke:#181818;stroke-width:1.0;" width="10" x="59" y="114.9609"/><rect fill="#FFFFFF" height="151.7578" style="stroke:#181818;stroke-width:1.0;" width="10" x="217" y="114.9609"/><rect fill="#FFFFFF" height="246.8125" style="stroke:#181818;stroke-width:1.0;" width="10" x="217" y="296.0703"/><rect fill="#FFFFFF" height="60.7031" style="stroke:#181818;stroke-width:1.0;" width="10" x="402" y="451.8281"/><rect fill="none" height="420.9219" style="stroke:#000000;stroke-width:1.5;" width="498.5" x="10" y="129.9609"/><rect fill="none" height="111.4063" style="stroke:#000000;stroke-width:1.5;" width="478.5" x="20" y="155.3125"/><rect fill="none" height="48.7031" style="stroke:#000000;stroke-width:1.5;" width="316" x="172.5" y="211.0156"/><rect fill="none" height="111.4063" style="stroke:#000000;stroke-width:1.5;" width="478.5" x="20" y="311.0703"/><rect fill="none" height="48.7031" style="stroke:#000000;stroke-width:1.5;" width="316" x="172.5" y="366.7734"/><line style="stroke:#181818;stroke-width:0.5;stroke-dasharray:5.0,5.0;" x1="64" x2="64" y1="82.6094" y2="567.8828"/><line style="stroke:#181818;stroke-width:0.5;stroke-dasharray:5.0,5.0;" x1="221.5" x2="221.5" y1="82.6094" y2="567.8828"/><line style="stroke:#181818;stroke-width:0.5;stroke-dasharray:5.0,5.0;" x1="406.5" x2="406.5" y1="82.6094" y2="567.8828"/><text fill="#000000" font-family="sans-serif" font-size="14" lengthAdjust="spacing" textLength="62" x="30" y="79.5332">Utilisateur</text><ellipse cx="64" cy="13.5" fill="#E2E2F0" rx="8" ry="8" style="stroke:#181818;stroke-width:0.5;"/><path d="M64,21.5 L64,48.5 M51,29.5 L77,29.5 M64,48.5 L51,63.5 M64,48.5 L77,63.5 " fill="none" style="stroke:#181818;stroke-width:0.5;"/><text fill="#000000" font-family="sans-serif" font-size="14" lengthAdjust="spacing" textLength="62" x="30" y="581.416">Utilisateur</text><ellipse cx="64" cy="592.9922" fill="#E2E2F0" rx="8" ry="8" style="stroke:#181818;stroke-width:0.5;"/><path d="M64,600.9922 L64,627.9922 M51,608.9922 L77,608.9922 M64,627.9922 L51,642.9922 M64,627.9922 L77,642.9922 " fill="none" style="stroke:#181818;stroke-width:0.5;"/><rect fill="#E2E2F0" height="31.6094" rx="2.5" ry="2.5" style="stroke:#181818;stroke-width:0.5;" width="79" x="182.5" y="50"/><text fill="#000000" font-family="sans-serif" font-size="14" lengthAdjust="spacing" textLength="65" x="189.5" y="71.5332">SousPrgm</text><rect fill="#E2E2F0" height="31.6094" rx="2.5" ry="2.5" style="stroke:#181818;stroke-width:0.5;" width="79" x="182.5" y="566.8828"/><text fill="#000000" font-family="sans-serif" font-size="14" lengthAdjust="spacing" textLength="65" x="189.5" y="588.416">SousPrgm</text><rect fill="#E2E2F0" height="31.6094" rx="2.5" ry="2.5" style="stroke:#181818;stroke-width:0.5;" width="143" x="335.5" y="50"/><text fill="#000000" font-family="sans-serif" font-size="14" lengthAdjust="spacing" textLength="129" x="342.5" y="71.5332">MonnayeurCafetiere</text><rect fill="#E2E2F0" height="31.6094" rx="2.5" ry="2.5" style="stroke:#181818;stroke-width:0.5;" width="143" x="335.5" y="566.8828"/><text fill="#000000" font-family="sans-serif" font-size="14" lengthAdjust="spacing" textLength="129" x="342.5" y="588.416">MonnayeurCafetiere</text><rect fill="#FFFFFF" height="427.9219" style="stroke:#181818;stroke-width:1.0;" width="10" x="59" y="114.9609"/><rect fill="#FFFFFF" height="151.7578" style="stroke:#181818;stroke-width:1.0;" width="10" x="217" y="114.9609"/><rect fill="#FFFFFF" height="246.8125" style="stroke:#181818;stroke-width:1.0;" width="10" x="217" y="296.0703"/><rect fill="#FFFFFF" height="60.7031" style="stroke:#181818;stroke-width:1.0;" width="10" x="402" y="451.8281"/><polygon fill="#181818" points="395,110.9609,405,114.9609,395,118.9609,399,114.9609" style="stroke:#181818;stroke-width:1.0;"/><line style="stroke:#181818;stroke-width:1.0;" x1="227" x2="401" y1="114.9609" y2="114.9609"/><text fill="#000000" font-family="sans-serif" font-size="13" lengthAdjust="spacing" textLength="51" x="234" y="110.1045">Initialiser</text><path d="M10,129.9609 L83,129.9609 L83,138.3125 L73,148.3125 L10,148.3125 L10,129.9609 " fill="#EEEEEE" style="stroke:#000000;stroke-width:1.5;"/><rect fill="none" height="420.9219" style="stroke:#000000;stroke-width:1.5;" width="498.5" x="10" y="129.9609"/><text fill="#000000" font-family="sans-serif" font-size="13" font-weight="bold" lengthAdjust="spacing" textLength="28" x="25" y="144.4561">loop</text><text fill="#000000" font-family="sans-serif" font-size="11" font-weight="bold" lengthAdjust="spacing" textLength="28" x="98" y="143.3799">[vrai]</text><path d="M20,155.3125 L93,155.3125 L93,163.6641 L83,173.6641 L20,173.6641 L20,155.3125 " fill="#EEEEEE" style="stroke:#000000;stroke-width:1.5;"/><rect fill="none" height="111.4063" style="stroke:#000000;stroke-width:1.5;" width="478.5" x="20" y="155.3125"/><text fill="#000000" font-family="sans-serif" font-size="13" font-weight="bold" lengthAdjust="spacing" textLength="28" x="35" y="169.8076">loop</text><text fill="#000000" font-family="sans-serif" font-size="11" font-weight="bold" lengthAdjust="spacing" textLength="90" x="108" y="168.7314">[valeurPiece &gt; 0]</text><polygon fill="#181818" points="205,192.0156,215,196.0156,205,200.0156,209,196.0156" style="stroke:#181818;stroke-width:1.0;"/><line style="stroke:#181818;stroke-width:1.0;" x1="69" x2="211" y1="196.0156" y2="196.0156"/><text fill="#000000" font-family="sans-serif" font-size="13" lengthAdjust="spacing" textLength="124" x="76" y="191.1592">Ins&#232;re une pi&#232;ce ou 0</text><path d="M172.5,211.0156 L233.5,211.0156 L233.5,219.3672 L223.5,229.3672 L172.5,229.3672 L172.5,211.0156 " fill="#EEEEEE" style="stroke:#000000;stroke-width:1.5;"/><rect fill="none" height="48.7031" style="stroke:#000000;stroke-width:1.5;" width="316" x="172.5" y="211.0156"/><text fill="#000000" font-family="sans-serif" font-size="13" font-weight="bold" lengthAdjust="spacing" textLength="16" x="187.5" y="225.5107">alt</text><text fill="#000000" font-family="sans-serif" font-size="11" font-weight="bold" lengthAdjust="spacing" textLength="90" x="248.5" y="224.4346">[valeurPiece &gt; 0]</text><polygon fill="#181818" points="395,247.7188,405,251.7188,395,255.7188,399,251.7188" style="stroke:#181818;stroke-width:1.0;"/><line style="stroke:#181818;stroke-width:1.0;" x1="227" x2="401" y1="251.7188" y2="251.7188"/><text fill="#000000" font-family="sans-serif" font-size="13" lengthAdjust="spacing" textLength="156" x="234" y="246.8623">RecevoirPiece(valeurPiece)</text><polygon fill="#181818" points="205,292.0703,215,296.0703,205,300.0703,209,296.0703" style="stroke:#181818;stroke-width:1.0;"/><line style="stroke:#181818;stroke-width:1.0;" x1="69" x2="211" y1="296.0703" y2="296.0703"/><text fill="#000000" font-family="sans-serif" font-size="13" lengthAdjust="spacing" textLength="96" x="76" y="291.2139">EffectueUnChoix</text><path d="M20,311.0703 L93,311.0703 L93,319.4219 L83,329.4219 L20,329.4219 L20,311.0703 " fill="#EEEEEE" style="stroke:#000000;stroke-width:1.5;"/><rect fill="none" height="111.4063" style="stroke:#000000;stroke-width:1.5;" width="478.5" x="20" y="311.0703"/><text fill="#000000" font-family="sans-serif" font-size="13" font-weight="bold" lengthAdjust="spacing" textLength="28" x="35" y="325.5654">loop</text><text fill="#000000" font-family="sans-serif" font-size="11" font-weight="bold" lengthAdjust="spacing" textLength="72" x="108" y="324.4893">[!totalAtteint]</text><polygon fill="#181818" points="205,347.7734,215,351.7734,205,355.7734,209,351.7734" style="stroke:#181818;stroke-width:1.0;"/><line style="stroke:#181818;stroke-width:1.0;" x1="69" x2="211" y1="351.7734" y2="351.7734"/><text fill="#000000" font-family="sans-serif" font-size="13" lengthAdjust="spacing" textLength="124" x="76" y="346.917">Ins&#232;re une pi&#232;ce ou 0</text><path d="M172.5,366.7734 L233.5,366.7734 L233.5,375.125 L223.5,385.125 L172.5,385.125 L172.5,366.7734 " fill="#EEEEEE" style="stroke:#000000;stroke-width:1.5;"/><rect fill="none" height="48.7031" style="stroke:#000000;stroke-width:1.5;" width="316" x="172.5" y="366.7734"/><text fill="#000000" font-family="sans-serif" font-size="13" font-weight="bold" lengthAdjust="spacing" textLength="16" x="187.5" y="381.2686">alt</text><text fill="#000000" font-family="sans-serif" font-size="11" font-weight="bold" lengthAdjust="spacing" textLength="90" x="248.5" y="380.1924">[valeurPiece &gt; 0]</text><polygon fill="#181818" points="395,403.4766,405,407.4766,395,411.4766,399,407.4766" style="stroke:#181818;stroke-width:1.0;"/><line style="stroke:#181818;stroke-width:1.0;" x1="227" x2="401" y1="407.4766" y2="407.4766"/><text fill="#000000" font-family="sans-serif" font-size="13" lengthAdjust="spacing" textLength="156" x="234" y="402.6201">RecevoirPiece(valeurPiece)</text><polygon fill="#181818" points="390,447.8281,400,451.8281,390,455.8281,394,451.8281" style="stroke:#181818;stroke-width:1.0;"/><line style="stroke:#181818;stroke-width:1.0;" x1="227" x2="396" y1="451.8281" y2="451.8281"/><text fill="#000000" font-family="sans-serif" font-size="13" lengthAdjust="spacing" textLength="89" x="234" y="446.9717">ConfirmerVente</text><polygon fill="#181818" points="390,478.1797,400,482.1797,390,486.1797,394,482.1797" style="stroke:#181818;stroke-width:1.0;"/><line style="stroke:#181818;stroke-width:1.0;" x1="227" x2="396" y1="482.1797" y2="482.1797"/><text fill="#000000" font-family="sans-serif" font-size="13" lengthAdjust="spacing" textLength="90" x="234" y="477.3232">RendreMonnaie</text><polygon fill="#181818" points="238,508.5313,228,512.5313,238,516.5313,234,512.5313" style="stroke:#181818;stroke-width:1.0;"/><line style="stroke:#181818;stroke-width:1.0;stroke-dasharray:2.0,2.0;" x1="232" x2="406" y1="512.5313" y2="512.5313"/><text fill="#000000" font-family="sans-serif" font-size="13" lengthAdjust="spacing" textLength="100" x="244" y="507.6748">Monnaie &#224; rendre</text><polygon fill="#181818" points="75,538.8828,65,542.8828,75,546.8828,71,542.8828" style="stroke:#181818;stroke-width:1.0;"/><line style="stroke:#181818;stroke-width:1.0;stroke-dasharray:2.0,2.0;" x1="69" x2="221" y1="542.8828" y2="542.8828"/><text fill="#000000" font-family="sans-serif" font-size="13" lengthAdjust="spacing" textLength="40" x="81" y="538.0264">Pi&#232;ces</text><!--SRC=[tLEzJiCm4Dxz5CTMXaZCLLK9HGmCI55HsQta0YUvligvHF0sZ7sFl1Ys2yOffM76atrtttVV_LZNmWwsGeOwBTWxfHwvxohtl8DY3GzihNxpvbAtA8GEOGdtbeIq1w2FDinx69mc1VxeMcZmF1F6u3Y6QUFV5M6Di8QRw9YWlb8dJqOJv2HfGKGt7hoStYBiQJnuIkvpJYE_vWjdjigDHmrCH_WYexfEF6YRT6_mV1KXHbqkvQvjiPOUjxPyONfLtmsx4XPjRaMGhFoRTgMMp9AMR5joEtHFQ0Md6_OJeFuer3OEeujE8AkYE8_vZ8Rn7Lo4gvEHpuhnQlBXBA6AG-ZKfTt9xFb_Yltx0000]--></g></svg>