<?xml version="1.0" encoding="UTF-8" standalone="no"?><svg xmlns="http://www.w3.org/2000/svg" xmlns:xlink="http://www.w3.org/1999/xlink" contentScriptType="application/ecmascript" contentStyleType="text/css" height="643px" preserveAspectRatio="none" style="width:550px;height:643px;" version="1.1" viewBox="0 0 550 643" width="550px" zoomAndPan="magnify"><defs><filter height="300%" id="fsvadstsfk121" width="300%" x="-1" y="-1"><feGaussianBlur result="blurOut" stdDeviation="2.0"/><feColorMatrix in="blurOut" result="blurOut2" type="matrix" values="0 0 0 0 0 0 0 0 0 0 0 0 0 0 0 0 0 0 .4 0"/><feOffset dx="4.0" dy="4.0" in="blurOut2" result="blurOut3"/><feBlend in="SourceGraphic" in2="blurOut3" mode="normal"/></filter></defs><g><rect fill="#FFFFFF" filter="url(#fsvadstsfk121)" height="413.3477" style="stroke: #A80036; stroke-width: 1.0;" width="10" x="66" y="117.7988"/><rect fill="#FFFFFF" filter="url(#fsvadstsfk121)" height="146.5527" style="stroke: #A80036; stroke-width: 1.0;" width="10" x="234" y="117.7988"/><rect fill="#FFFFFF" filter="url(#fsvadstsfk121)" height="238.4844" style="stroke: #A80036; stroke-width: 1.0;" width="10" x="234" y="292.6621"/><rect fill="#FFFFFF" filter="url(#fsvadstsfk121)" height="58.6211" style="stroke: #A80036; stroke-width: 1.0;" width="10" x="426" y="443.2148"/><rect fill="#FFFFFF" filter="url(#fsvadstsfk121)" height="406.3477" style="stroke: #000000; stroke-width: 2.0;" width="526.5" x="13" y="132.7988"/><rect fill="#FFFFFF" filter="url(#fsvadstsfk121)" height="107.2422" style="stroke: #000000; stroke-width: 2.0;" width="506.5" x="23" y="157.1094"/><rect fill="#FFFFFF" filter="url(#fsvadstsfk121)" height="46.6211" style="stroke: #000000; stroke-width: 2.0;" width="334" x="185.5" y="210.7305"/><rect fill="#FFFFFF" filter="url(#fsvadstsfk121)" height="107.2422" style="stroke: #000000; stroke-width: 2.0;" width="506.5" x="23" y="307.6621"/><rect fill="#FFFFFF" filter="url(#fsvadstsfk121)" height="46.6211" style="stroke: #000000; stroke-width: 2.0;" width="334" x="185.5" y="361.2832"/><line style="stroke: #A80036; stroke-width: 1.0; stroke-dasharray: 5.0,5.0;" x1="71" x2="71" y1="86.4883" y2="556.1465"/><line style="stroke: #A80036; stroke-width: 1.0; stroke-dasharray: 5.0,5.0;" x1="238.5" x2="238.5" y1="86.4883" y2="556.1465"/><line style="stroke: #A80036; stroke-width: 1.0; stroke-dasharray: 5.0,5.0;" x1="430.5" x2="430.5" y1="86.4883" y2="556.1465"/><text fill="#000000" font-family="sans-serif" font-size="14" lengthAdjust="spacingAndGlyphs" textLength="70" x="33" y="83.5352">Utilisateur</text><ellipse cx="71" cy="13" fill="#FEFECE" filter="url(#fsvadstsfk121)" rx="8" ry="8" style="stroke: #A80036; stroke-width: 2.0;"/><path d="M71,21 L71,48 M58,29 L84,29 M71,48 L58,63 M71,48 L84,63 " fill="none" filter="url(#fsvadstsfk121)" style="stroke: #A80036; stroke-width: 2.0;"/><text fill="#000000" font-family="sans-serif" font-size="14" lengthAdjust="spacingAndGlyphs" textLength="70" x="33" y="568.6816">Utilisateur</text><ellipse cx="71" cy="581.6348" fill="#FEFECE" filter="url(#fsvadstsfk121)" rx="8" ry="8" style="stroke: #A80036; stroke-width: 2.0;"/><path d="M71,589.6348 L71,616.6348 M58,597.6348 L84,597.6348 M71,616.6348 L58,631.6348 M71,616.6348 L84,631.6348 " fill="none" filter="url(#fsvadstsfk121)" style="stroke: #A80036; stroke-width: 2.0;"/><rect fill="#FEFECE" filter="url(#fsvadstsfk121)" height="30.4883" style="stroke: #A80036; stroke-width: 1.5;" width="83" x="195.5" y="51"/><text fill="#000000" font-family="sans-serif" font-size="14" lengthAdjust="spacingAndGlyphs" textLength="69" x="202.5" y="71.5352">SousPrgm</text><rect fill="#FEFECE" filter="url(#fsvadstsfk121)" height="30.4883" style="stroke: #A80036; stroke-width: 1.5;" width="83" x="195.5" y="555.1465"/><text fill="#000000" font-family="sans-serif" font-size="14" lengthAdjust="spacingAndGlyphs" textLength="69" x="202.5" y="575.6816">SousPrgm</text><rect fill="#FEFECE" filter="url(#fsvadstsfk121)" height="30.4883" style="stroke: #A80036; stroke-width: 1.5;" width="153" x="352.5" y="51"/><text fill="#000000" font-family="sans-serif" font-size="14" lengthAdjust="spacingAndGlyphs" textLength="139" x="359.5" y="71.5352">MonnayeurCafetiere</text><rect fill="#FEFECE" filter="url(#fsvadstsfk121)" height="30.4883" style="stroke: #A80036; stroke-width: 1.5;" width="153" x="352.5" y="555.1465"/><text fill="#000000" font-family="sans-serif" font-size="14" lengthAdjust="spacingAndGlyphs" textLength="139" x="359.5" y="575.6816">MonnayeurCafetiere</text><rect fill="#FFFFFF" filter="url(#fsvadstsfk121)" height="413.3477" style="stroke: #A80036; stroke-width: 1.0;" width="10" x="66" y="117.7988"/><rect fill="#FFFFFF" filter="url(#fsvadstsfk121)" height="146.5527" style="stroke: #A80036; stroke-width: 1.0;" width="10" x="234" y="117.7988"/><rect fill="#FFFFFF" filter="url(#fsvadstsfk121)" height="238.4844" style="stroke: #A80036; stroke-width: 1.0;" width="10" x="234" y="292.6621"/><rect fill="#FFFFFF" filter="url(#fsvadstsfk121)" height="58.6211" style="stroke: #A80036; stroke-width: 1.0;" width="10" x="426" y="443.2148"/><polygon fill="#A80036" points="419,113.7988,429,117.7988,419,121.7988,423,117.7988" style="stroke: #A80036; stroke-width: 1.0;"/><line style="stroke: #A80036; stroke-width: 1.0;" x1="244" x2="425" y1="117.7988" y2="117.7988"/><text fill="#000000" font-family="sans-serif" font-size="13" lengthAdjust="spacingAndGlyphs" textLength="59" x="251" y="113.0566">Initialiser</text><path d="M13,132.7988 L87,132.7988 L87,139.7988 L77,149.7988 L13,149.7988 L13,132.7988 " fill="#EEEEEE" style="stroke: #000000; stroke-width: 1.0;"/><rect fill="none" height="406.3477" style="stroke: #000000; stroke-width: 2.0;" width="526.5" x="13" y="132.7988"/><text fill="#000000" font-family="sans-serif" font-size="13" font-weight="bold" lengthAdjust="spacingAndGlyphs" textLength="29" x="28" y="146.3672">loop</text><text fill="#000000" font-family="sans-serif" font-size="11" font-weight="bold" lengthAdjust="spacingAndGlyphs" textLength="30" x="102" y="145.4336">[vrai]</text><path d="M23,157.1094 L97,157.1094 L97,164.1094 L87,174.1094 L23,174.1094 L23,157.1094 " fill="#EEEEEE" style="stroke: #000000; stroke-width: 1.0;"/><rect fill="none" height="107.2422" style="stroke: #000000; stroke-width: 2.0;" width="506.5" x="23" y="157.1094"/><text fill="#000000" font-family="sans-serif" font-size="13" font-weight="bold" lengthAdjust="spacingAndGlyphs" textLength="29" x="38" y="170.6777">loop</text><text fill="#000000" font-family="sans-serif" font-size="11" font-weight="bold" lengthAdjust="spacingAndGlyphs" textLength="96" x="112" y="169.7441">[valeurPiece &gt; 0]</text><polygon fill="#A80036" points="222,191.7305,232,195.7305,222,199.7305,226,195.7305" style="stroke: #A80036; stroke-width: 1.0;"/><line style="stroke: #A80036; stroke-width: 1.0;" x1="76" x2="228" y1="195.7305" y2="195.7305"/><text fill="#000000" font-family="sans-serif" font-size="13" lengthAdjust="spacingAndGlyphs" textLength="134" x="83" y="190.9883">Insère une pièce ou 0</text><path d="M185.5,210.7305 L247.5,210.7305 L247.5,217.7305 L237.5,227.7305 L185.5,227.7305 L185.5,210.7305 " fill="#EEEEEE" style="stroke: #000000; stroke-width: 1.0;"/><rect fill="none" height="46.6211" style="stroke: #000000; stroke-width: 2.0;" width="334" x="185.5" y="210.7305"/><text fill="#000000" font-family="sans-serif" font-size="13" font-weight="bold" lengthAdjust="spacingAndGlyphs" textLength="17" x="200.5" y="224.2988">alt</text><text fill="#000000" font-family="sans-serif" font-size="11" font-weight="bold" lengthAdjust="spacingAndGlyphs" textLength="96" x="262.5" y="223.3652">[valeurPiece &gt; 0]</text><polygon fill="#A80036" points="419,245.3516,429,249.3516,419,253.3516,423,249.3516" style="stroke: #A80036; stroke-width: 1.0;"/><line style="stroke: #A80036; stroke-width: 1.0;" x1="244" x2="425" y1="249.3516" y2="249.3516"/><text fill="#000000" font-family="sans-serif" font-size="13" lengthAdjust="spacingAndGlyphs" textLength="163" x="251" y="244.6094">RecevoirPiece(valeurPiece)</text><polygon fill="#A80036" points="222,288.6621,232,292.6621,222,296.6621,226,292.6621" style="stroke: #A80036; stroke-width: 1.0;"/><line style="stroke: #A80036; stroke-width: 1.0;" x1="76" x2="228" y1="292.6621" y2="292.6621"/><text fill="#000000" font-family="sans-serif" font-size="13" lengthAdjust="spacingAndGlyphs" textLength="105" x="83" y="287.9199">EffectueUnChoix</text><path d="M23,307.6621 L97,307.6621 L97,314.6621 L87,324.6621 L23,324.6621 L23,307.6621 " fill="#EEEEEE" style="stroke: #000000; stroke-width: 1.0;"/><rect fill="none" height="107.2422" style="stroke: #000000; stroke-width: 2.0;" width="506.5" x="23" y="307.6621"/><text fill="#000000" font-family="sans-serif" font-size="13" font-weight="bold" lengthAdjust="spacingAndGlyphs" textLength="29" x="38" y="321.2305">loop</text><text fill="#000000" font-family="sans-serif" font-size="11" font-weight="bold" lengthAdjust="spacingAndGlyphs" textLength="73" x="112" y="320.2969">[!totalAtteint]</text><polygon fill="#A80036" points="222,342.2832,232,346.2832,222,350.2832,226,346.2832" style="stroke: #A80036; stroke-width: 1.0;"/><line style="stroke: #A80036; stroke-width: 1.0;" x1="76" x2="228" y1="346.2832" y2="346.2832"/><text fill="#000000" font-family="sans-serif" font-size="13" lengthAdjust="spacingAndGlyphs" textLength="134" x="83" y="341.541">Insère une pièce ou 0</text><path d="M185.5,361.2832 L247.5,361.2832 L247.5,368.2832 L237.5,378.2832 L185.5,378.2832 L185.5,361.2832 " fill="#EEEEEE" style="stroke: #000000; stroke-width: 1.0;"/><rect fill="none" height="46.6211" style="stroke: #000000; stroke-width: 2.0;" width="334" x="185.5" y="361.2832"/><text fill="#000000" font-family="sans-serif" font-size="13" font-weight="bold" lengthAdjust="spacingAndGlyphs" textLength="17" x="200.5" y="374.8516">alt</text><text fill="#000000" font-family="sans-serif" font-size="11" font-weight="bold" lengthAdjust="spacingAndGlyphs" textLength="96" x="262.5" y="373.918">[valeurPiece &gt; 0]</text><polygon fill="#A80036" points="419,395.9043,429,399.9043,419,403.9043,423,399.9043" style="stroke: #A80036; stroke-width: 1.0;"/><line style="stroke: #A80036; stroke-width: 1.0;" x1="244" x2="425" y1="399.9043" y2="399.9043"/><text fill="#000000" font-family="sans-serif" font-size="13" lengthAdjust="spacingAndGlyphs" textLength="163" x="251" y="395.1621">RecevoirPiece(valeurPiece)</text><polygon fill="#A80036" points="414,439.2148,424,443.2148,414,447.2148,418,443.2148" style="stroke: #A80036; stroke-width: 1.0;"/><line style="stroke: #A80036; stroke-width: 1.0;" x1="244" x2="420" y1="443.2148" y2="443.2148"/><text fill="#000000" font-family="sans-serif" font-size="13" lengthAdjust="spacingAndGlyphs" textLength="98" x="251" y="438.4727">ConfirmerVente</text><polygon fill="#A80036" points="414,468.5254,424,472.5254,414,476.5254,418,472.5254" style="stroke: #A80036; stroke-width: 1.0;"/><line style="stroke: #A80036; stroke-width: 1.0;" x1="244" x2="420" y1="472.5254" y2="472.5254"/><text fill="#000000" font-family="sans-serif" font-size="13" lengthAdjust="spacingAndGlyphs" textLength="96" x="251" y="467.7832">RendreMonnaie</text><polygon fill="#A80036" points="255,497.8359,245,501.8359,255,505.8359,251,501.8359" style="stroke: #A80036; stroke-width: 1.0;"/><line style="stroke: #A80036; stroke-width: 1.0; stroke-dasharray: 2.0,2.0;" x1="249" x2="430" y1="501.8359" y2="501.8359"/><text fill="#000000" font-family="sans-serif" font-size="13" lengthAdjust="spacingAndGlyphs" textLength="108" x="261" y="497.0938">Monnaie à rendre</text><polygon fill="#A80036" points="82,527.1465,72,531.1465,82,535.1465,78,531.1465" style="stroke: #A80036; stroke-width: 1.0;"/><line style="stroke: #A80036; stroke-width: 1.0; stroke-dasharray: 2.0,2.0;" x1="76" x2="238" y1="531.1465" y2="531.1465"/><text fill="#000000" font-family="sans-serif" font-size="13" lengthAdjust="spacingAndGlyphs" textLength="39" x="88" y="526.4043">Pièces</text><!--
@startuml Cafetiere1

actor Utilisateur

SousPrgm -> MonnayeurCafetiere : Initialiser

loop vrai
    activate Utilisateur
    loop valeurPiece > 0
        activate SousPrgm
        Utilisateur -> SousPrgm : Insère une pièce ou 0
        alt valeurPiece > 0
            SousPrgm -> MonnayeurCafetiere : RecevoirPiece(valeurPiece)
        end
        deactivate SousPrgm
    end

    Utilisateur -> SousPrgm : EffectueUnChoix

    loop !totalAtteint
        activate SousPrgm
        Utilisateur -> SousPrgm : Insère une pièce ou 0
        alt valeurPiece > 0
            SousPrgm -> MonnayeurCafetiere : RecevoirPiece(valeurPiece)
        end
    end

    SousPrgm -> MonnayeurCafetiere : ConfirmerVente
    activate MonnayeurCafetiere
    SousPrgm -> MonnayeurCafetiere : RendreMonnaie
    SousPrgm <- - MonnayeurCafetiere : Monnaie à rendre
    deactivate MonnayeurCafetiere
    SousPrgm - -> Utilisateur : Pièces
    deactivate SousPrgm
    deactivate Utilisateur
end


@enduml

PlantUML version 1.2019.09(Mon Aug 26 12:19:51 EDT 2019)
(GPL source distribution)
Java Runtime: OpenJDK Runtime Environment
JVM: OpenJDK 64-Bit Server VM
Java Version: 13.0.2+8
Operating System: Mac OS X
OS Version: 10.15.2
Default Encoding: UTF-8
Language: fr
Country: CA
--></g></svg>