<?xml version="1.0" encoding="UTF-8" standalone="no"?><svg xmlns="http://www.w3.org/2000/svg" xmlns:xlink="http://www.w3.org/1999/xlink" contentScriptType="application/ecmascript" contentStyleType="text/css" height="356px" preserveAspectRatio="none" style="width:344px;height:356px;" version="1.1" viewBox="0 0 344 356" width="344px" zoomAndPan="magnify"><defs><filter height="300%" id="fqy5e1x8ml7se" width="300%" x="-1" y="-1"><feGaussianBlur result="blurOut" stdDeviation="2.0"/><feColorMatrix in="blurOut" result="blurOut2" type="matrix" values="0 0 0 0 0 0 0 0 0 0 0 0 0 0 0 0 0 0 .4 0"/><feOffset dx="4.0" dy="4.0" in="blurOut2" result="blurOut3"/><feBlend in="SourceGraphic" in2="blurOut3" mode="normal"/></filter></defs><g><!--class CoursPlanifie--><rect fill="#FFFFFF" filter="url(#fqy5e1x8ml7se)" height="73.9102" id="CoursPlanifie" style="stroke: #000000; stroke-width: 1.5;" width="223" x="6" y="8"/><ellipse cx="76.25" cy="24" fill="#ADD1B2" rx="11" ry="11" style="stroke: #000000; stroke-width: 1.0;"/><path d="M78.7231,30.1431 Q78.1421,30.4419 77.5029,30.5913 Q76.8638,30.7407 76.1582,30.7407 Q73.6514,30.7407 72.3315,29.0889 Q71.0117,27.437 71.0117,24.3159 Q71.0117,21.1865 72.3315,19.5347 Q73.6514,17.8828 76.1582,17.8828 Q76.8638,17.8828 77.5112,18.0322 Q78.1587,18.1816 78.7231,18.4805 L78.7231,21.2031 Q78.0923,20.6221 77.4988,20.3523 Q76.9053,20.0825 76.2744,20.0825 Q74.9297,20.0825 74.2449,21.1492 Q73.5601,22.2158 73.5601,24.3159 Q73.5601,26.4077 74.2449,27.4744 Q74.9297,28.541 76.2744,28.541 Q76.9053,28.541 77.4988,28.2712 Q78.0923,28.0015 78.7231,27.4204 Z "/><text fill="#000000" font-family="sans-serif" font-size="12" lengthAdjust="spacingAndGlyphs" textLength="74" x="96.75" y="28.5352">CoursPlanifie</text><line style="stroke: #000000; stroke-width: 1.5;" x1="7" x2="228" y1="40" y2="40"/><text fill="#000000" font-family="sans-serif" font-size="11" lengthAdjust="spacingAndGlyphs" textLength="159" x="12" y="54.6348">-m_etudiants: List&lt;Etudiant&gt;</text><text fill="#000000" font-family="sans-serif" font-size="11" lengthAdjust="spacingAndGlyphs" textLength="211" x="12" y="67.5898">-m_seancesCours: List&lt;SeanceCours&gt;</text><line style="stroke: #000000; stroke-width: 1.5;" x1="7" x2="228" y1="73.9102" y2="73.9102"/><!--class SeanceCours--><rect fill="#FFFFFF" filter="url(#fqy5e1x8ml7se)" height="48" id="SeanceCours" style="stroke: #000000; stroke-width: 1.5;" width="105" x="6" y="165.5"/><ellipse cx="21" cy="181.5" fill="#ADD1B2" rx="11" ry="11" style="stroke: #000000; stroke-width: 1.0;"/><path d="M23.4731,187.6431 Q22.8921,187.9419 22.2529,188.0913 Q21.6138,188.2407 20.9082,188.2407 Q18.4014,188.2407 17.0815,186.5889 Q15.7617,184.937 15.7617,181.8159 Q15.7617,178.6865 17.0815,177.0347 Q18.4014,175.3828 20.9082,175.3828 Q21.6138,175.3828 22.2612,175.5322 Q22.9087,175.6816 23.4731,175.9805 L23.4731,178.7031 Q22.8423,178.1221 22.2488,177.8523 Q21.6553,177.5825 21.0244,177.5825 Q19.6797,177.5825 18.9949,178.6492 Q18.3101,179.7158 18.3101,181.8159 Q18.3101,183.9077 18.9949,184.9744 Q19.6797,186.041 21.0244,186.041 Q21.6553,186.041 22.2488,185.7712 Q22.8423,185.5015 23.4731,184.9204 Z "/><text fill="#000000" font-family="sans-serif" font-size="12" lengthAdjust="spacingAndGlyphs" textLength="73" x="35" y="186.0352">SeanceCours</text><line style="stroke: #000000; stroke-width: 1.5;" x1="7" x2="110" y1="197.5" y2="197.5"/><line style="stroke: #000000; stroke-width: 1.5;" x1="7" x2="110" y1="205.5" y2="205.5"/><!--class Etudiant--><rect fill="#FFFFFF" filter="url(#fqy5e1x8ml7se)" height="60.9551" id="Etudiant" style="stroke: #000000; stroke-width: 1.5;" width="187" x="146" y="159"/><ellipse cx="211.75" cy="175" fill="#ADD1B2" rx="11" ry="11" style="stroke: #000000; stroke-width: 1.0;"/><path d="M214.2231,181.1431 Q213.6421,181.4419 213.0029,181.5913 Q212.3638,181.7407 211.6582,181.7407 Q209.1514,181.7407 207.8315,180.0889 Q206.5117,178.437 206.5117,175.3159 Q206.5117,172.1865 207.8315,170.5347 Q209.1514,168.8828 211.6582,168.8828 Q212.3638,168.8828 213.0112,169.0322 Q213.6587,169.1816 214.2231,169.4805 L214.2231,172.2031 Q213.5923,171.6221 212.9988,171.3523 Q212.4053,171.0825 211.7744,171.0825 Q210.4297,171.0825 209.7449,172.1492 Q209.0601,173.2158 209.0601,175.3159 Q209.0601,177.4077 209.7449,178.4744 Q210.4297,179.541 211.7744,179.541 Q212.4053,179.541 212.9988,179.2712 Q213.5923,179.0015 214.2231,178.4204 Z "/><text fill="#000000" font-family="sans-serif" font-size="12" lengthAdjust="spacingAndGlyphs" textLength="47" x="232.25" y="179.5352">Etudiant</text><line style="stroke: #000000; stroke-width: 1.5;" x1="147" x2="332" y1="191" y2="191"/><text fill="#000000" font-family="sans-serif" font-size="11" lengthAdjust="spacingAndGlyphs" textLength="175" x="152" y="205.6348">-m_carteEtudiant : CarteEtudiant</text><line style="stroke: #000000; stroke-width: 1.5;" x1="147" x2="332" y1="211.9551" y2="211.9551"/><!--class CarteEtudiant--><rect fill="#FFFFFF" filter="url(#fqy5e1x8ml7se)" height="48" id="CarteEtudiant" style="stroke: #000000; stroke-width: 1.5;" width="110" x="184.5" y="297"/><ellipse cx="199.5" cy="313" fill="#ADD1B2" rx="11" ry="11" style="stroke: #000000; stroke-width: 1.0;"/><path d="M201.9731,319.1431 Q201.3921,319.4419 200.7529,319.5913 Q200.1138,319.7407 199.4082,319.7407 Q196.9014,319.7407 195.5815,318.0889 Q194.2617,316.437 194.2617,313.3159 Q194.2617,310.1865 195.5815,308.5347 Q196.9014,306.8828 199.4082,306.8828 Q200.1138,306.8828 200.7612,307.0322 Q201.4087,307.1816 201.9731,307.4805 L201.9731,310.2031 Q201.3423,309.6221 200.7488,309.3523 Q200.1553,309.0825 199.5244,309.0825 Q198.1797,309.0825 197.4949,310.1492 Q196.8101,311.2158 196.8101,313.3159 Q196.8101,315.4077 197.4949,316.4744 Q198.1797,317.541 199.5244,317.541 Q200.1553,317.541 200.7488,317.2712 Q201.3423,317.0015 201.9731,316.4204 Z "/><text fill="#000000" font-family="sans-serif" font-size="12" lengthAdjust="spacingAndGlyphs" textLength="78" x="213.5" y="317.5352">CarteEtudiant</text><line style="stroke: #000000; stroke-width: 1.5;" x1="185.5" x2="293.5" y1="329" y2="329"/><line style="stroke: #000000; stroke-width: 1.5;" x1="185.5" x2="293.5" y1="337" y2="337"/><!--link CoursPlanifie to SeanceCours--><path d="M102.46,82.33 C92.39,106.65 79.33,138.2 70.07,160.56 " fill="none" id="CoursPlanifie-&gt;SeanceCours" style="stroke: #A80036; stroke-width: 1.0;"/><polygon fill="#A80036" points="68.15,165.19,75.2934,158.4098,70.066,160.5717,67.9041,155.3442,68.15,165.19" style="stroke: #A80036; stroke-width: 1.0;"/><text fill="#000000" font-family="sans-serif" font-size="13" lengthAdjust="spacingAndGlyphs" textLength="8" x="91.3065" y="102.3565">1</text><text fill="#000000" font-family="sans-serif" font-size="13" lengthAdjust="spacingAndGlyphs" textLength="22" x="45.8041" y="154.6468">0..*</text><!--link CoursPlanifie to Etudiant--><path d="M148.6,82.33 C167.74,104.68 192.1,133.14 210.78,154.96 " fill="none" id="CoursPlanifie-&gt;Etudiant" style="stroke: #A80036; stroke-width: 1.0;"/><polygon fill="#A80036" points="214.2,158.95,211.4004,149.5074,210.9543,155.1467,205.3151,154.7006,214.2,158.95" style="stroke: #A80036; stroke-width: 1.0;"/><text fill="#000000" font-family="sans-serif" font-size="13" lengthAdjust="spacingAndGlyphs" textLength="77" x="186.5" y="125.5684">est suivi par</text><text fill="#000000" font-family="sans-serif" font-size="13" lengthAdjust="spacingAndGlyphs" textLength="22" x="129.9291" y="102.3565">0..*</text><text fill="#000000" font-family="sans-serif" font-size="13" lengthAdjust="spacingAndGlyphs" textLength="22" x="184.2594" y="148.2338">0..*</text><!--link Etudiant to CarteEtudiant--><path d="M239.5,220.21 C239.5,241.69 239.5,270.53 239.5,291.68 " fill="none" id="Etudiant-&gt;CarteEtudiant" style="stroke: #A80036; stroke-width: 1.0;"/><polygon fill="#A80036" points="239.5,296.88,243.5,287.88,239.5,291.88,235.5,287.88,239.5,296.88" style="stroke: #A80036; stroke-width: 1.0;"/><text fill="#000000" font-family="sans-serif" font-size="13" lengthAdjust="spacingAndGlyphs" textLength="52" x="240.5" y="263.5684">possède</text><text fill="#000000" font-family="sans-serif" font-size="13" lengthAdjust="spacingAndGlyphs" textLength="8" x="230.675" y="240.6958">1</text><text fill="#000000" font-family="sans-serif" font-size="13" lengthAdjust="spacingAndGlyphs" textLength="8" x="230.475" y="286.3855">1</text><!--
@startuml CoursSeanceAssociationDirigee
skinparam classAttributeIconSize 0
skinparam class {
    BackgroundColor White
    BorderColor #000
}

CoursPlanifie "1" - -> "0..*" SeanceCours
CoursPlanifie "0..*" - -> "0..*" Etudiant : est suivi par
Etudiant "1" - -> "1" CarteEtudiant : "possède"

class Etudiant {
    - m_carteEtudiant : CarteEtudiant
}
class CarteEtudiant {
}
class CoursPlanifie {
    - m_etudiants: List<Etudiant>
}
class Etudiant {

}
class CoursPlanifie {
    - m_seancesCours: List<SeanceCours>
}
class SeanceCours {
}
@enduml

PlantUML version 1.2019.09(Mon Aug 26 12:19:51 EDT 2019)
(GPL source distribution)
Java Runtime: OpenJDK Runtime Environment
JVM: OpenJDK 64-Bit Server VM
Java Version: 13.0.2+8
Operating System: Mac OS X
OS Version: 10.15.2
Default Encoding: UTF-8
Language: fr
Country: CA
--></g></svg>