<?xml version="1.0" encoding="us-ascii" standalone="no"?><svg xmlns="http://www.w3.org/2000/svg" xmlns:xlink="http://www.w3.org/1999/xlink" contentStyleType="text/css" height="367px" preserveAspectRatio="none" style="width:428px;height:367px;background:#FFFFFF;" version="1.1" viewBox="0 0 428 367" width="428px" zoomAndPan="magnify"><defs/><g><!--class CoursPlanifie--><g id="elem_CoursPlanifie"><rect codeLine="22" fill="#FFFFFF" height="83.2188" id="CoursPlanifie" rx="2.5" ry="2.5" style="stroke:#000000;stroke-width:0.5;" width="259" x="7" y="7"/><ellipse cx="90.25" cy="23" fill="#ADD1B2" rx="11" ry="11" style="stroke:#181818;stroke-width:1.0;"/><path d="M93.0156,18.875 Q93.1719,18.6563 93.3594,18.5469 Q93.5469,18.4375 93.7656,18.4375 Q94.1406,18.4375 94.375,18.6953 Q94.6094,18.9531 94.6094,19.5625 L94.6094,21.0156 Q94.6094,21.625 94.375,21.8906 Q94.1406,22.1563 93.7656,22.1563 Q93.4219,22.1563 93.2188,21.9531 Q93.0156,21.7656 92.9063,21.25 Q92.8594,20.8906 92.6719,20.7031 Q92.3438,20.3281 91.7344,20.1094 Q91.125,19.8906 90.5,19.8906 Q89.7344,19.8906 89.1016,20.2188 Q88.4688,20.5469 87.9766,21.2969 Q87.4844,22.0469 87.4844,23.0781 L87.4844,24.1719 Q87.4844,25.4063 88.375,26.2266 Q89.2656,27.0469 90.8594,27.0469 Q91.7969,27.0469 92.4531,26.7969 Q92.8438,26.6406 93.2656,26.2031 Q93.5313,25.9375 93.6797,25.8594 Q93.8281,25.7813 94.0313,25.7813 Q94.3594,25.7813 94.6172,26.0391 Q94.875,26.2969 94.875,26.6406 Q94.875,26.9844 94.5313,27.3906 Q94.0313,27.9688 93.2344,28.2969 Q92.1563,28.75 90.8594,28.75 Q89.3438,28.75 88.1406,28.125 Q87.1563,27.625 86.4688,26.5547 Q85.7813,25.4844 85.7813,24.2031 L85.7813,23.0469 Q85.7813,21.7188 86.3984,20.5703 Q87.0156,19.4219 88.1094,18.8047 Q89.2031,18.1875 90.4375,18.1875 Q91.1719,18.1875 91.8203,18.3516 Q92.4688,18.5156 93.0156,18.875 Z " fill="#000000"/><text fill="#000000" font-family="sans-serif" font-size="14" lengthAdjust="spacing" textLength="84" x="110.75" y="28.7285">CoursPlanifie</text><line style="stroke:#000000;stroke-width:0.5;" x1="8" x2="265" y1="39" y2="39"/><text fill="#000000" font-family="sans-serif" font-size="14" lengthAdjust="spacing" textLength="180" x="13" y="57.5332">-m_etudiants: List&lt;Etudiant&gt;</text><text fill="#000000" font-family="sans-serif" font-size="14" lengthAdjust="spacing" textLength="247" x="13" y="75.1426">-m_seancesCours: List&lt;SeanceCours&gt;</text><line style="stroke:#000000;stroke-width:0.5;" x1="8" x2="265" y1="82.2188" y2="82.2188"/></g><!--class SeanceCours--><g id="elem_SeanceCours"><rect codeLine="25" fill="#FFFFFF" height="48" id="SeanceCours" rx="2.5" ry="2.5" style="stroke:#000000;stroke-width:0.5;" width="118" x="48.5" y="177"/><ellipse cx="63.5" cy="193" fill="#ADD1B2" rx="11" ry="11" style="stroke:#181818;stroke-width:1.0;"/><path d="M66.2656,188.875 Q66.4219,188.6563 66.6094,188.5469 Q66.7969,188.4375 67.0156,188.4375 Q67.3906,188.4375 67.625,188.6953 Q67.8594,188.9531 67.8594,189.5625 L67.8594,191.0156 Q67.8594,191.625 67.625,191.8906 Q67.3906,192.1563 67.0156,192.1563 Q66.6719,192.1563 66.4688,191.9531 Q66.2656,191.7656 66.1563,191.25 Q66.1094,190.8906 65.9219,190.7031 Q65.5938,190.3281 64.9844,190.1094 Q64.375,189.8906 63.75,189.8906 Q62.9844,189.8906 62.3516,190.2188 Q61.7188,190.5469 61.2266,191.2969 Q60.7344,192.0469 60.7344,193.0781 L60.7344,194.1719 Q60.7344,195.4063 61.625,196.2266 Q62.5156,197.0469 64.1094,197.0469 Q65.0469,197.0469 65.7031,196.7969 Q66.0938,196.6406 66.5156,196.2031 Q66.7813,195.9375 66.9297,195.8594 Q67.0781,195.7813 67.2813,195.7813 Q67.6094,195.7813 67.8672,196.0391 Q68.125,196.2969 68.125,196.6406 Q68.125,196.9844 67.7813,197.3906 Q67.2813,197.9688 66.4844,198.2969 Q65.4063,198.75 64.1094,198.75 Q62.5938,198.75 61.3906,198.125 Q60.4063,197.625 59.7188,196.5547 Q59.0313,195.4844 59.0313,194.2031 L59.0313,193.0469 Q59.0313,191.7188 59.6484,190.5703 Q60.2656,189.4219 61.3594,188.8047 Q62.4531,188.1875 63.6875,188.1875 Q64.4219,188.1875 65.0703,188.3516 Q65.7188,188.5156 66.2656,188.875 Z " fill="#000000"/><text fill="#000000" font-family="sans-serif" font-size="14" lengthAdjust="spacing" textLength="86" x="77.5" y="198.7285">SeanceCours</text><line style="stroke:#000000;stroke-width:0.5;" x1="49.5" x2="165.5" y1="209" y2="209"/><line style="stroke:#000000;stroke-width:0.5;" x1="49.5" x2="165.5" y1="217" y2="217"/></g><!--class Etudiant--><g id="elem_Etudiant"><rect codeLine="19" fill="#FFFFFF" height="65.6094" id="Etudiant" rx="2.5" ry="2.5" style="stroke:#000000;stroke-width:0.5;" width="219" x="202" y="168"/><ellipse cx="281.25" cy="184" fill="#ADD1B2" rx="11" ry="11" style="stroke:#181818;stroke-width:1.0;"/><path d="M284.0156,179.875 Q284.1719,179.6563 284.3594,179.5469 Q284.5469,179.4375 284.7656,179.4375 Q285.1406,179.4375 285.375,179.6953 Q285.6094,179.9531 285.6094,180.5625 L285.6094,182.0156 Q285.6094,182.625 285.375,182.8906 Q285.1406,183.1563 284.7656,183.1563 Q284.4219,183.1563 284.2188,182.9531 Q284.0156,182.7656 283.9063,182.25 Q283.8594,181.8906 283.6719,181.7031 Q283.3438,181.3281 282.7344,181.1094 Q282.125,180.8906 281.5,180.8906 Q280.7344,180.8906 280.1016,181.2188 Q279.4688,181.5469 278.9766,182.2969 Q278.4844,183.0469 278.4844,184.0781 L278.4844,185.1719 Q278.4844,186.4063 279.375,187.2266 Q280.2656,188.0469 281.8594,188.0469 Q282.7969,188.0469 283.4531,187.7969 Q283.8438,187.6406 284.2656,187.2031 Q284.5313,186.9375 284.6797,186.8594 Q284.8281,186.7813 285.0313,186.7813 Q285.3594,186.7813 285.6172,187.0391 Q285.875,187.2969 285.875,187.6406 Q285.875,187.9844 285.5313,188.3906 Q285.0313,188.9688 284.2344,189.2969 Q283.1563,189.75 281.8594,189.75 Q280.3438,189.75 279.1406,189.125 Q278.1563,188.625 277.4688,187.5547 Q276.7813,186.4844 276.7813,185.2031 L276.7813,184.0469 Q276.7813,182.7188 277.3984,181.5703 Q278.0156,180.4219 279.1094,179.8047 Q280.2031,179.1875 281.4375,179.1875 Q282.1719,179.1875 282.8203,179.3516 Q283.4688,179.5156 284.0156,179.875 Z " fill="#000000"/><text fill="#000000" font-family="sans-serif" font-size="14" lengthAdjust="spacing" textLength="52" x="301.75" y="189.7285">Etudiant</text><line style="stroke:#000000;stroke-width:0.5;" x1="203" x2="420" y1="200" y2="200"/><text fill="#000000" font-family="sans-serif" font-size="14" lengthAdjust="spacing" textLength="207" x="208" y="218.5332">-m_carteEtudiant : CarteEtudiant</text><line style="stroke:#000000;stroke-width:0.5;" x1="203" x2="420" y1="225.6094" y2="225.6094"/></g><!--class CarteEtudiant--><g id="elem_CarteEtudiant"><rect codeLine="14" fill="#FFFFFF" height="48" id="CarteEtudiant" rx="2.5" ry="2.5" style="stroke:#000000;stroke-width:0.5;" width="119" x="252" y="312"/><ellipse cx="267" cy="328" fill="#ADD1B2" rx="11" ry="11" style="stroke:#181818;stroke-width:1.0;"/><path d="M269.7656,323.875 Q269.9219,323.6563 270.1094,323.5469 Q270.2969,323.4375 270.5156,323.4375 Q270.8906,323.4375 271.125,323.6953 Q271.3594,323.9531 271.3594,324.5625 L271.3594,326.0156 Q271.3594,326.625 271.125,326.8906 Q270.8906,327.1563 270.5156,327.1563 Q270.1719,327.1563 269.9688,326.9531 Q269.7656,326.7656 269.6563,326.25 Q269.6094,325.8906 269.4219,325.7031 Q269.0938,325.3281 268.4844,325.1094 Q267.875,324.8906 267.25,324.8906 Q266.4844,324.8906 265.8516,325.2188 Q265.2188,325.5469 264.7266,326.2969 Q264.2344,327.0469 264.2344,328.0781 L264.2344,329.1719 Q264.2344,330.4063 265.125,331.2266 Q266.0156,332.0469 267.6094,332.0469 Q268.5469,332.0469 269.2031,331.7969 Q269.5938,331.6406 270.0156,331.2031 Q270.2813,330.9375 270.4297,330.8594 Q270.5781,330.7813 270.7813,330.7813 Q271.1094,330.7813 271.3672,331.0391 Q271.625,331.2969 271.625,331.6406 Q271.625,331.9844 271.2813,332.3906 Q270.7813,332.9688 269.9844,333.2969 Q268.9063,333.75 267.6094,333.75 Q266.0938,333.75 264.8906,333.125 Q263.9063,332.625 263.2188,331.5547 Q262.5313,330.4844 262.5313,329.2031 L262.5313,328.0469 Q262.5313,326.7188 263.1484,325.5703 Q263.7656,324.4219 264.8594,323.8047 Q265.9531,323.1875 267.1875,323.1875 Q267.9219,323.1875 268.5703,323.3516 Q269.2188,323.5156 269.7656,323.875 Z " fill="#000000"/><text fill="#000000" font-family="sans-serif" font-size="14" lengthAdjust="spacing" textLength="87" x="281" y="333.7285">CarteEtudiant</text><line style="stroke:#000000;stroke-width:0.5;" x1="253" x2="370" y1="344" y2="344"/><line style="stroke:#000000;stroke-width:0.5;" x1="253" x2="370" y1="352" y2="352"/></g><!--link CoursPlanifie to SeanceCours--><g id="link_CoursPlanifie_SeanceCours"><path codeLine="7" d="M128.65,90.23 C123.32,117.91 117.5854,147.6584 113.1454,170.6984 " fill="none" id="CoursPlanifie-to-SeanceCours" style="stroke:#181818;stroke-width:1.0;"/><polygon fill="#181818" points="112.01,176.59,117.6408,168.5095,112.9561,171.6803,109.7853,166.9957,112.01,176.59" style="stroke:#181818;stroke-width:1.0;"/><text fill="#000000" font-family="sans-serif" font-size="13" lengthAdjust="spacing" textLength="7" x="119.8411" y="111.6614">1</text><text fill="#000000" font-family="sans-serif" font-size="13" lengthAdjust="spacing" textLength="20" x="90.6718" y="166.228">0..*</text></g><!--link CoursPlanifie to Etudiant--><g id="link_CoursPlanifie_Etudiant"><path codeLine="8" d="M183.86,90.23 C212.2,114.6 243.1702,141.2386 269.5402,163.9086 " fill="none" id="CoursPlanifie-to-Etudiant" style="stroke:#181818;stroke-width:1.0;"/><polygon fill="#181818" points="274.09,167.82,269.8729,158.9197,270.2985,164.5605,264.6577,164.9861,274.09,167.82" style="stroke:#181818;stroke-width:1.0;"/><text fill="#000000" font-family="sans-serif" font-size="13" lengthAdjust="spacing" textLength="69" x="234.5" y="134.4951">est suivi par</text><text fill="#000000" font-family="sans-serif" font-size="13" lengthAdjust="spacing" textLength="20" x="169.8143" y="111.6614">0..*</text><text fill="#000000" font-family="sans-serif" font-size="13" lengthAdjust="spacing" textLength="20" x="244.3117" y="156.8983">0..*</text></g><!--link Etudiant to CarteEtudiant--><g id="link_Etudiant_CarteEtudiant"><path codeLine="9" d="M311.5,234.2 C311.5,258.18 311.5,284.37 311.5,305.85 " fill="none" id="Etudiant-to-CarteEtudiant" style="stroke:#181818;stroke-width:1.0;"/><polygon fill="#181818" points="311.5,311.85,315.5,302.85,311.5,306.85,307.5,302.85,311.5,311.85" style="stroke:#181818;stroke-width:1.0;"/><text fill="#000000" font-family="sans-serif" font-size="13" lengthAdjust="spacing" textLength="49" x="312.5" y="278.4951">poss&#232;de</text><text fill="#000000" font-family="sans-serif" font-size="13" lengthAdjust="spacing" textLength="7" x="303.8766" y="255.1">1</text><text fill="#000000" font-family="sans-serif" font-size="13" lengthAdjust="spacing" textLength="7" x="303.6031" y="301.1517">1</text></g><!--SRC=[XP0nQWCn44LxdM9Gki0QkJN1a2mk32uCBb86HJj91gybencbYCbzV0zVB9kLiwjr4pM2-Vy_vW_loHzjj0TmhML-58dqcWJNBlWTVI4OnLCBd1Hqxycw_NiCoJTrQ4E4vmyIp4g83SOylJF6g6-bwf0YRrlhwOqGz5n3LIr1czdiNiCEhNVOMswDsL1uLv8QibvW0SW2dEYJeDjE3S80x_xQHi4Yee-1-N9kK2kLomnYRbN1uSNTX2QGhamEJj6dSJufC5BnQkK5R8ZbuI-w7985x5yQzoVZNhu2YokEp6Buk-CF]--></g></svg>