<?xml version="1.0" encoding="UTF-8" standalone="no"?><svg xmlns="http://www.w3.org/2000/svg" xmlns:xlink="http://www.w3.org/1999/xlink" contentScriptType="application/ecmascript" contentStyleType="text/css" height="386px" preserveAspectRatio="none" style="width:1650px;height:386px;" version="1.1" viewBox="0 0 1650 386" width="1650px" zoomAndPan="magnify"><defs><filter height="300%" id="fczejdj3rviv3" width="300%" x="-1" y="-1"><feGaussianBlur result="blurOut" stdDeviation="2.0"/><feColorMatrix in="blurOut" result="blurOut2" type="matrix" values="0 0 0 0 0 0 0 0 0 0 0 0 0 0 0 0 0 0 .4 0"/><feOffset dx="4.0" dy="4.0" in="blurOut2" result="blurOut3"/><feBlend in="SourceGraphic" in2="blurOut3" mode="normal"/></filter></defs><g><!--class DepotDonneesClients--><polygon fill="#FFFFFF" filter="url(#fczejdj3rviv3)" points="592,129,592,129.2102,602.0217,128.5857,612.0435,129.1933,622.0652,129.3997,632.087,128.2866,642.1087,128.9223,652.1304,128.5735,662.1522,128.6165,672.1739,128.9318,682.1957,128.3086,692.2174,129.5536,702.2391,128.3697,712.2609,128.8022,722.2826,129.4319,732.3043,128.9142,742.3261,129.0682,752.3478,128.9681,762.3696,129.1785,772.3913,129.2391,782.413,129.5857,792.4348,129.6711,802.4565,129.6793,812.4783,129.2546,822.5,129.4636,832.5217,129.7022,842.5435,128.2788,852.5652,129.6785,862.587,128.7035,872.6087,129.5338,882.6304,128.505,892.6522,128.9315,902.6739,129.7416,912.6957,128.9513,922.7174,129.1053,932.7391,129.3386,942.7609,129.4162,952.7826,128.9961,962.8043,129.2872,972.8261,128.4276,982.8478,129.2844,992.8696,129.5482,1002.8913,129.4445,1012.913,129.613,1022.9348,128.5169,1032.9565,128.3478,1042.9783,128.3786,1053,129,1052.9411,129,1052.8035,138.6517,1053.6814,148.3034,1052.8253,157.9551,1052.6569,167.6068,1053.2283,177.2585,1052.3332,186.9102,1052.4809,196.5618,1053.649,206.2135,1053,215.8652,1053,216.3009,1042.9783,216.5997,1032.9565,215.5434,1022.9348,216.1844,1012.913,216.4557,1002.8913,215.3928,992.8696,215.7694,982.8478,215.9912,972.8261,216.517,962.8043,215.861,952.7826,216.3278,942.7609,215.3114,932.7391,215.188,922.7174,216.3688,912.6957,215.1483,902.6739,216.3742,892.6522,216.0719,882.6304,215.5973,872.6087,215.5115,862.587,216.324,852.5652,215.5659,842.5435,216.4571,832.5217,215.3125,822.5,216.4827,812.4783,216.3495,802.4565,216.1102,792.4348,215.9125,782.413,216.5918,772.3913,216.4788,762.3696,216.0345,752.3478,216.1334,742.3261,215.735,732.3043,216.5817,722.2826,216.0201,712.2609,216.0378,702.2391,215.2569,692.2174,215.46,682.1957,216.396,672.1739,216.295,662.1522,215.8223,652.1304,215.5431,642.1087,215.6463,632.087,215.1791,622.0652,216.28,612.0435,216.6048,602.0217,216.3916,592,215.8652,592.6949,215.8652,591.8633,206.2135,592.0872,196.5618,591.6124,186.9102,592.284,177.2585,592.2468,167.6068,592.5524,157.9551,591.7703,148.3034,591.8656,138.6517,592,129" style="stroke: #000000; stroke-width: 1.5;"/><polygon fill="#B4A7E5" points="767.8108,147.6756,766.1984,149.8788,764.2912,153.1057,761.5636,155.2804,758.6974,156.4696,756.412,156.5728,753.4747,155.0855,750.7032,154.1139,748.5995,152.1412,747.4961,149.8828,746.8417,148.0845,746.2006,145.7357,745.16,143.7145,745.9596,141.741,746.6602,139.5792,749.2893,137.8695,751.139,135.6511,753.4284,134.9144,756.1501,134.2801,759.6404,134.657,761.5521,135.5585,763.7747,135.9672,766.4772,138.736,767.4193,141.659,767.8286,143.6534,767.365,146.9399" style="stroke: #000000; stroke-width: 1.0;"/><path d="M753.1777,141.2651 L753.1777,139.1069 L760.5571,139.1069 L760.5571,141.2651 L758.0918,141.2651 L758.0918,149.3418 L760.5571,149.3418 L760.5571,151.5 L753.1777,151.5 L753.1777,149.3418 L755.6431,149.3418 L755.6431,141.2651 Z "/><text fill="#000000" font-family="sans-serif" font-size="12" font-style="italic" lengthAdjust="spacingAndGlyphs" textLength="123" x="777.25" y="149.5352">DepotDonneesClients</text><path d="M593,161 L593,161.2802 L602.9783,160.4476 L612.9565,161.2577 L622.9348,161.5329 L632.913,160.0488 L642.8913,160.8964 L652.8696,160.4313 L662.8478,160.4887 L672.8261,160.9091 L682.8043,160.0782 L692.7826,161.7382 L702.7609,160.1596 L712.7391,160.7363 L722.7174,161.5759 L732.6957,160.8856 L742.6739,161.091 L752.6522,160.9574 L762.6304,161.238 L772.6087,161.3188 L782.587,161.7809 L792.5652,161.8947 L802.5435,161.9057 L812.5217,161.3395 L822.5,161.6181 L832.4783,161.9363 L842.4565,160.0384 L852.4348,161.9047 L862.413,160.6047 L872.3913,161.7117 L882.3696,160.34 L892.3478,160.9087 L902.3261,161.9888 L912.3043,160.935 L922.2826,161.1404 L932.2609,161.4515 L942.2391,161.555 L952.2174,160.9948 L962.1957,161.383 L972.1739,160.2368 L982.1522,161.3792 L992.1304,161.7309 L1002.1087,161.5927 L1012.087,161.8174 L1022.0652,160.3559 L1032.0435,160.1304 L1042.0217,160.1715 L1052,161 " fill="#FFFFFF" style="stroke: #000000; stroke-width: 1.5;"/><path d="M593,169 L593,169.2802 L602.9783,168.4476 L612.9565,169.2577 L622.9348,169.5329 L632.913,168.0488 L642.8913,168.8964 L652.8696,168.4313 L662.8478,168.4887 L672.8261,168.9091 L682.8043,168.0782 L692.7826,169.7382 L702.7609,168.1596 L712.7391,168.7363 L722.7174,169.5759 L732.6957,168.8856 L742.6739,169.091 L752.6522,168.9574 L762.6304,169.238 L772.6087,169.3188 L782.587,169.7809 L792.5652,169.8947 L802.5435,169.9057 L812.5217,169.3395 L822.5,169.6181 L832.4783,169.9363 L842.4565,168.0384 L852.4348,169.9047 L862.413,168.6047 L872.3913,169.7117 L882.3696,168.34 L892.3478,168.9087 L902.3261,169.9888 L912.3043,168.935 L922.2826,169.1404 L932.2609,169.4515 L942.2391,169.555 L952.2174,168.9948 L962.1957,169.383 L972.1739,168.2368 L982.1522,169.3792 L992.1304,169.7309 L1002.1087,169.5927 L1012.087,169.8174 L1022.0652,168.3559 L1032.0435,168.1304 L1042.0217,168.1715 L1052,169 " fill="#FFFFFF" style="stroke: #000000; stroke-width: 1.5;"/><text fill="#000000" font-family="sans-serif" font-size="11" font-style="italic" lengthAdjust="spacingAndGlyphs" textLength="261" x="598" y="183.6348">+ObtenirClient(p_identifiantClient : Guid) : Client</text><text fill="#000000" font-family="sans-serif" font-size="11" font-style="italic" lengthAdjust="spacingAndGlyphs" textLength="449" x="598" y="196.5898">+ChercherClientsParNumeroTelephone(p_numeroTelephone : string) : List&lt;Client&gt;</text><text fill="#000000" font-family="sans-serif" font-size="11" font-style="italic" lengthAdjust="spacingAndGlyphs" textLength="190" x="598" y="209.5449">+EnregistrerClient(p_client : Client)</text><!--class DepotDonneesClientsMariaDb--><polygon fill="#FFFFFF" filter="url(#fczejdj3rviv3)" points="6,276,6,276.2102,16.0192,275.5857,26.0385,276.1933,36.0577,276.3997,46.0769,275.2866,56.0962,275.9223,66.1154,275.5735,76.1346,275.6165,86.1538,275.9318,96.1731,275.3086,106.1923,276.5536,116.2115,275.3697,126.2308,275.8022,136.25,276.4319,146.2692,275.9142,156.2885,276.0682,166.3077,275.9681,176.3269,276.1785,186.3462,276.2391,196.3654,276.5857,206.3846,276.6711,216.4038,276.6793,226.4231,276.2546,236.4423,276.4636,246.4615,276.7022,256.4808,275.2788,266.5,276.6785,276.5192,275.7035,286.5385,276.5338,296.5577,275.505,306.5769,275.9315,316.5962,276.7416,326.6154,275.9513,336.6346,276.1053,346.6538,276.3386,356.6731,276.4162,366.6923,275.9961,376.7115,276.2872,386.7308,275.4276,396.75,276.2844,406.7692,276.5482,416.7885,276.4445,426.8077,276.613,436.8269,275.5169,446.8462,275.3478,456.8654,275.3786,466.8846,275.9411,476.9038,275.8035,486.9231,276.6814,496.9423,275.8253,506.9615,275.6569,516.9808,276.2283,527,276,526.3332,276,526.4809,285.982,527.649,295.9641,527.4357,305.9461,527.7345,315.9281,526.6782,325.9102,527.3192,335.8922,527.5904,345.8742,526.5276,355.8563,526.9041,365.8383,527,375.8203,527,375.9463,516.9808,376.4721,506.9615,375.8161,496.9423,376.2829,486.9231,375.2665,476.9038,375.1431,466.8846,376.3239,456.8654,375.1034,446.8462,376.3293,436.8269,376.0269,426.8077,375.5524,416.7885,375.4665,406.7692,376.2791,396.75,375.521,386.7308,376.4122,376.7115,375.2676,366.6923,376.4377,356.6731,376.3046,346.6538,376.0653,336.6346,375.8675,326.6154,376.5469,316.5962,376.4339,306.5769,375.9896,296.5577,376.0885,286.5385,375.69,276.5192,376.5368,266.5,375.9752,256.4808,375.9929,246.4615,375.212,236.4423,375.4151,226.4231,376.3511,216.4038,376.2501,206.3846,375.7774,196.3654,375.4981,186.3462,375.6014,176.3269,375.1341,166.3077,376.235,156.2885,376.5599,146.2692,376.3467,136.25,376.5152,126.2308,375.6836,116.2115,375.9075,106.1923,375.4327,96.1731,376.1044,86.1538,376.0671,76.1346,376.3727,66.1154,375.5907,56.0962,375.6859,46.0769,376.2638,36.0577,376.3876,26.0385,375.3078,16.0192,375.6264,6,375.8203,6.1493,375.8203,5.3892,365.8383,6.3534,355.8563,6.258,345.8742,5.8992,335.8922,6.1422,325.9102,6.7287,315.9281,5.6871,305.9461,6.315,295.9641,6.2856,285.982,6,276" style="stroke: #000000; stroke-width: 1.5;"/><polygon fill="#ADD1B2" points="187.3108,294.6756,185.6984,296.8788,183.7912,300.1057,181.0636,302.2804,178.1974,303.4696,175.912,303.5728,172.9747,302.0855,170.2032,301.1139,168.0995,299.1412,166.9961,296.8828,166.3417,295.0845,165.7006,292.7357,164.66,290.7145,165.4596,288.741,166.1602,286.5792,168.7893,284.8695,170.639,282.6511,172.9284,281.9144,175.6501,281.2801,179.1404,281.657,181.0521,282.5585,183.2747,282.9672,185.9772,285.736,186.9193,288.659,187.3286,290.6534,186.865,293.9399" style="stroke: #000000; stroke-width: 1.0;"/><path d="M178.7231,298.1431 Q178.1421,298.4419 177.5029,298.5913 Q176.8638,298.7407 176.1582,298.7407 Q173.6514,298.7407 172.3315,297.0889 Q171.0117,295.437 171.0117,292.3159 Q171.0117,289.1865 172.3315,287.5347 Q173.6514,285.8828 176.1582,285.8828 Q176.8638,285.8828 177.5112,286.0322 Q178.1587,286.1816 178.7231,286.4805 L178.7231,289.2031 Q178.0923,288.6221 177.4988,288.3523 Q176.9053,288.0825 176.2744,288.0825 Q174.9297,288.0825 174.2449,289.1492 Q173.5601,290.2158 173.5601,292.3159 Q173.5601,294.4077 174.2449,295.4744 Q174.9297,296.541 176.2744,296.541 Q176.9053,296.541 177.4988,296.2712 Q178.0923,296.0015 178.7231,295.4204 Z "/><text fill="#000000" font-family="sans-serif" font-size="12" lengthAdjust="spacingAndGlyphs" textLength="172" x="196.75" y="296.5352">DepotDonneesClientsMariaDb</text><path d="M7,308 L7,308.2802 L16.9808,307.4476 L26.9615,308.2577 L36.9423,308.5329 L46.9231,307.0488 L56.9038,307.8964 L66.8846,307.4313 L76.8654,307.4887 L86.8462,307.9091 L96.8269,307.0782 L106.8077,308.7382 L116.7885,307.1596 L126.7692,307.7363 L136.75,308.5759 L146.7308,307.8856 L156.7115,308.091 L166.6923,307.9574 L176.6731,308.238 L186.6538,308.3188 L196.6346,308.7809 L206.6154,308.8947 L216.5962,308.9057 L226.5769,308.3395 L236.5577,308.6181 L246.5385,308.9363 L256.5192,307.0384 L266.5,308.9047 L276.4808,307.6047 L286.4615,308.7117 L296.4423,307.34 L306.4231,307.9087 L316.4038,308.9888 L326.3846,307.935 L336.3654,308.1404 L346.3462,308.4515 L356.3269,308.555 L366.3077,307.9948 L376.2885,308.383 L386.2692,307.2368 L396.25,308.3792 L406.2308,308.7309 L416.2115,308.5927 L426.1923,308.8174 L436.1731,307.3559 L446.1538,307.1304 L456.1346,307.1715 L466.1154,307.9215 L476.0962,307.738 L486.0769,308.9085 L496.0577,307.7671 L506.0385,307.5426 L516.0192,308.3044 L526,308 " fill="#FFFFFF" style="stroke: #000000; stroke-width: 1.5;"/><path d="M7,316 L7,316.2802 L16.9808,315.4476 L26.9615,316.2577 L36.9423,316.5329 L46.9231,315.0488 L56.9038,315.8964 L66.8846,315.4313 L76.8654,315.4887 L86.8462,315.9091 L96.8269,315.0782 L106.8077,316.7382 L116.7885,315.1596 L126.7692,315.7363 L136.75,316.5759 L146.7308,315.8856 L156.7115,316.091 L166.6923,315.9574 L176.6731,316.238 L186.6538,316.3188 L196.6346,316.7809 L206.6154,316.8947 L216.5962,316.9057 L226.5769,316.3395 L236.5577,316.6181 L246.5385,316.9363 L256.5192,315.0384 L266.5,316.9047 L276.4808,315.6047 L286.4615,316.7117 L296.4423,315.34 L306.4231,315.9087 L316.4038,316.9888 L326.3846,315.935 L336.3654,316.1404 L346.3462,316.4515 L356.3269,316.555 L366.3077,315.9948 L376.2885,316.383 L386.2692,315.2368 L396.25,316.3792 L406.2308,316.7309 L416.2115,316.5927 L426.1923,316.8174 L436.1731,315.3559 L446.1538,315.1304 L456.1346,315.1715 L466.1154,315.9215 L476.0962,315.738 L486.0769,316.9085 L496.0577,315.7671 L506.0385,315.5426 L516.0192,316.3044 L526,316 " fill="#FFFFFF" style="stroke: #000000; stroke-width: 1.5;"/><text fill="#000000" font-family="sans-serif" font-size="11" lengthAdjust="spacingAndGlyphs" textLength="187" x="12" y="330.6348">+ctor(p_chaineConnexion : string)</text><text fill="#000000" font-family="sans-serif" font-size="11" lengthAdjust="spacingAndGlyphs" textLength="321" x="12" y="343.5898">+ObtenirClient(p_identifiantClient : Guid) : Client «override»</text><text fill="#000000" font-family="sans-serif" font-size="11" lengthAdjust="spacingAndGlyphs" textLength="509" x="12" y="356.5449">+ChercherClientsParNumeroTelephone(p_numeroTelephone : string) : List&lt;Client&gt; «override»</text><text fill="#000000" font-family="sans-serif" font-size="11" lengthAdjust="spacingAndGlyphs" textLength="250" x="12" y="369.5">+EnregistrerClient(p_client : Client) «override»</text><!--class DepotDonneesClientsXML--><polygon fill="#FFFFFF" filter="url(#fczejdj3rviv3)" points="562,276,562,276.2102,572.0192,275.5857,582.0385,276.1933,592.0577,276.3997,602.0769,275.2866,612.0962,275.9223,622.1154,275.5735,632.1346,275.6165,642.1538,275.9318,652.1731,275.3086,662.1923,276.5536,672.2115,275.3697,682.2308,275.8022,692.25,276.4319,702.2692,275.9142,712.2885,276.0682,722.3077,275.9681,732.3269,276.1785,742.3462,276.2391,752.3654,276.5857,762.3846,276.6711,772.4038,276.6793,782.4231,276.2546,792.4423,276.4636,802.4615,276.7022,812.4808,275.2788,822.5,276.6785,832.5192,275.7035,842.5385,276.5338,852.5577,275.505,862.5769,275.9315,872.5962,276.7416,882.6154,275.9513,892.6346,276.1053,902.6538,276.3386,912.6731,276.4162,922.6923,275.9961,932.7115,276.2872,942.7308,275.4276,952.75,276.2844,962.7692,276.5482,972.7885,276.4445,982.8077,276.613,992.8269,275.5169,1002.8462,275.3478,1012.8654,275.3786,1022.8846,275.9411,1032.9038,275.8035,1042.9231,276.6814,1052.9423,275.8253,1062.9615,275.6569,1072.9808,276.2283,1083,276,1082.3332,276,1082.4809,285.982,1083.649,295.9641,1083.4357,305.9461,1083.7345,315.9281,1082.6782,325.9102,1083.3192,335.8922,1083.5904,345.8742,1082.5276,355.8563,1082.9041,365.8383,1083,375.8203,1083,375.9463,1072.9808,376.4721,1062.9615,375.8161,1052.9423,376.2829,1042.9231,375.2665,1032.9038,375.1431,1022.8846,376.3239,1012.8654,375.1034,1002.8462,376.3293,992.8269,376.0269,982.8077,375.5524,972.7885,375.4665,962.7692,376.2791,952.75,375.521,942.7308,376.4122,932.7115,375.2676,922.6923,376.4377,912.6731,376.3046,902.6538,376.0653,892.6346,375.8675,882.6154,376.5469,872.5962,376.4339,862.5769,375.9896,852.5577,376.0885,842.5385,375.69,832.5192,376.5368,822.5,375.9752,812.4808,375.9929,802.4615,375.212,792.4423,375.4151,782.4231,376.3511,772.4038,376.2501,762.3846,375.7774,752.3654,375.4981,742.3462,375.6014,732.3269,375.1341,722.3077,376.235,712.2885,376.5599,702.2692,376.3467,692.25,376.5152,682.2308,375.6836,672.2115,375.9075,662.1923,375.4327,652.1731,376.1044,642.1538,376.0671,632.1346,376.3727,622.1154,375.5907,612.0962,375.6859,602.0769,376.2638,592.0577,376.3876,582.0385,375.3078,572.0192,375.6264,562,375.8203,562.1493,375.8203,561.3892,365.8383,562.3534,355.8563,562.258,345.8742,561.8992,335.8922,562.1422,325.9102,562.7287,315.9281,561.6871,305.9461,562.315,295.9641,562.2856,285.982,562,276" style="stroke: #000000; stroke-width: 1.5;"/><polygon fill="#ADD1B2" points="755.8108,294.6756,754.1984,296.8788,752.2912,300.1057,749.5636,302.2804,746.6974,303.4696,744.412,303.5728,741.4747,302.0855,738.7032,301.1139,736.5995,299.1412,735.4961,296.8828,734.8417,295.0845,734.2006,292.7357,733.16,290.7145,733.9596,288.741,734.6602,286.5792,737.2893,284.8695,739.139,282.6511,741.4284,281.9144,744.1501,281.2801,747.6404,281.657,749.5521,282.5585,751.7747,282.9672,754.4772,285.736,755.4193,288.659,755.8286,290.6534,755.365,293.9399" style="stroke: #000000; stroke-width: 1.0;"/><path d="M747.2231,298.1431 Q746.6421,298.4419 746.0029,298.5913 Q745.3638,298.7407 744.6582,298.7407 Q742.1514,298.7407 740.8315,297.0889 Q739.5117,295.437 739.5117,292.3159 Q739.5117,289.1865 740.8315,287.5347 Q742.1514,285.8828 744.6582,285.8828 Q745.3638,285.8828 746.0112,286.0322 Q746.6587,286.1816 747.2231,286.4805 L747.2231,289.2031 Q746.5923,288.6221 745.9988,288.3523 Q745.4053,288.0825 744.7744,288.0825 Q743.4297,288.0825 742.7449,289.1492 Q742.0601,290.2158 742.0601,292.3159 Q742.0601,294.4077 742.7449,295.4744 Q743.4297,296.541 744.7744,296.541 Q745.4053,296.541 745.9988,296.2712 Q746.5923,296.0015 747.2231,295.4204 Z "/><text fill="#000000" font-family="sans-serif" font-size="12" lengthAdjust="spacingAndGlyphs" textLength="147" x="765.25" y="296.5352">DepotDonneesClientsXML</text><path d="M563,308 L563,308.2802 L572.9808,307.4476 L582.9615,308.2577 L592.9423,308.5329 L602.9231,307.0488 L612.9038,307.8964 L622.8846,307.4313 L632.8654,307.4887 L642.8462,307.9091 L652.8269,307.0782 L662.8077,308.7382 L672.7885,307.1596 L682.7692,307.7363 L692.75,308.5759 L702.7308,307.8856 L712.7115,308.091 L722.6923,307.9574 L732.6731,308.238 L742.6538,308.3188 L752.6346,308.7809 L762.6154,308.8947 L772.5962,308.9057 L782.5769,308.3395 L792.5577,308.6181 L802.5385,308.9363 L812.5192,307.0384 L822.5,308.9047 L832.4808,307.6047 L842.4615,308.7117 L852.4423,307.34 L862.4231,307.9087 L872.4038,308.9888 L882.3846,307.935 L892.3654,308.1404 L902.3462,308.4515 L912.3269,308.555 L922.3077,307.9948 L932.2885,308.383 L942.2692,307.2368 L952.25,308.3792 L962.2308,308.7309 L972.2115,308.5927 L982.1923,308.8174 L992.1731,307.3559 L1002.1538,307.1304 L1012.1346,307.1715 L1022.1154,307.9215 L1032.0962,307.738 L1042.0769,308.9085 L1052.0577,307.7671 L1062.0385,307.5426 L1072.0192,308.3044 L1082,308 " fill="#FFFFFF" style="stroke: #000000; stroke-width: 1.5;"/><path d="M563,316 L563,316.2802 L572.9808,315.4476 L582.9615,316.2577 L592.9423,316.5329 L602.9231,315.0488 L612.9038,315.8964 L622.8846,315.4313 L632.8654,315.4887 L642.8462,315.9091 L652.8269,315.0782 L662.8077,316.7382 L672.7885,315.1596 L682.7692,315.7363 L692.75,316.5759 L702.7308,315.8856 L712.7115,316.091 L722.6923,315.9574 L732.6731,316.238 L742.6538,316.3188 L752.6346,316.7809 L762.6154,316.8947 L772.5962,316.9057 L782.5769,316.3395 L792.5577,316.6181 L802.5385,316.9363 L812.5192,315.0384 L822.5,316.9047 L832.4808,315.6047 L842.4615,316.7117 L852.4423,315.34 L862.4231,315.9087 L872.4038,316.9888 L882.3846,315.935 L892.3654,316.1404 L902.3462,316.4515 L912.3269,316.555 L922.3077,315.9948 L932.2885,316.383 L942.2692,315.2368 L952.25,316.3792 L962.2308,316.7309 L972.2115,316.5927 L982.1923,316.8174 L992.1731,315.3559 L1002.1538,315.1304 L1012.1346,315.1715 L1022.1154,315.9215 L1032.0962,315.738 L1042.0769,316.9085 L1052.0577,315.7671 L1062.0385,315.5426 L1072.0192,316.3044 L1082,316 " fill="#FFFFFF" style="stroke: #000000; stroke-width: 1.5;"/><text fill="#000000" font-family="sans-serif" font-size="11" lengthAdjust="spacingAndGlyphs" textLength="175" x="568" y="330.6348">+ctor(p_nomFichierXML : string)</text><text fill="#000000" font-family="sans-serif" font-size="11" lengthAdjust="spacingAndGlyphs" textLength="321" x="568" y="343.5898">+ObtenirClient(p_identifiantClient : Guid) : Client «override»</text><text fill="#000000" font-family="sans-serif" font-size="11" lengthAdjust="spacingAndGlyphs" textLength="509" x="568" y="356.5449">+ChercherClientsParNumeroTelephone(p_numeroTelephone : string) : List&lt;Client&gt; «override»</text><text fill="#000000" font-family="sans-serif" font-size="11" lengthAdjust="spacingAndGlyphs" textLength="250" x="568" y="369.5">+EnregistrerClient(p_client : Client) «override»</text><!--class DepotDonneesClientsFichierPlat--><polygon fill="#FFFFFF" filter="url(#fczejdj3rviv3)" points="1118,276,1118,276.2102,1128.0192,275.5857,1138.0385,276.1933,1148.0577,276.3997,1158.0769,275.2866,1168.0962,275.9223,1178.1154,275.5735,1188.1346,275.6165,1198.1538,275.9318,1208.1731,275.3086,1218.1923,276.5536,1228.2115,275.3697,1238.2308,275.8022,1248.25,276.4319,1258.2692,275.9142,1268.2885,276.0682,1278.3077,275.9681,1288.3269,276.1785,1298.3462,276.2391,1308.3654,276.5857,1318.3846,276.6711,1328.4038,276.6793,1338.4231,276.2546,1348.4423,276.4636,1358.4615,276.7022,1368.4808,275.2788,1378.5,276.6785,1388.5192,275.7035,1398.5385,276.5338,1408.5577,275.505,1418.5769,275.9315,1428.5962,276.7416,1438.6154,275.9513,1448.6346,276.1053,1458.6538,276.3386,1468.6731,276.4162,1478.6923,275.9961,1488.7115,276.2872,1498.7308,275.4276,1508.75,276.2844,1518.7692,276.5482,1528.7885,276.4445,1538.8077,276.613,1548.8269,275.5169,1558.8462,275.3478,1568.8654,275.3786,1578.8846,275.9411,1588.9038,275.8035,1598.9231,276.6814,1608.9423,275.8253,1618.9615,275.6569,1628.9808,276.2283,1639,276,1638.3332,276,1638.4809,285.982,1639.649,295.9641,1639.4357,305.9461,1639.7345,315.9281,1638.6782,325.9102,1639.3192,335.8922,1639.5904,345.8742,1638.5276,355.8563,1638.9041,365.8383,1639,375.8203,1639,375.9463,1628.9808,376.4721,1618.9615,375.8161,1608.9423,376.2829,1598.9231,375.2665,1588.9038,375.1431,1578.8846,376.3239,1568.8654,375.1034,1558.8462,376.3293,1548.8269,376.0269,1538.8077,375.5524,1528.7885,375.4665,1518.7692,376.2791,1508.75,375.521,1498.7308,376.4122,1488.7115,375.2676,1478.6923,376.4377,1468.6731,376.3046,1458.6538,376.0653,1448.6346,375.8675,1438.6154,376.5469,1428.5962,376.4339,1418.5769,375.9896,1408.5577,376.0885,1398.5385,375.69,1388.5192,376.5368,1378.5,375.9752,1368.4808,375.9929,1358.4615,375.212,1348.4423,375.4151,1338.4231,376.3511,1328.4038,376.2501,1318.3846,375.7774,1308.3654,375.4981,1298.3462,375.6014,1288.3269,375.1341,1278.3077,376.235,1268.2885,376.5599,1258.2692,376.3467,1248.25,376.5152,1238.2308,375.6836,1228.2115,375.9075,1218.1923,375.4327,1208.1731,376.1044,1198.1538,376.0671,1188.1346,376.3727,1178.1154,375.5907,1168.0962,375.6859,1158.0769,376.2638,1148.0577,376.3876,1138.0385,375.3078,1128.0192,375.6264,1118,375.8203,1118.1493,375.8203,1117.3892,365.8383,1118.3534,355.8563,1118.258,345.8742,1117.8992,335.8922,1118.1422,325.9102,1118.7287,315.9281,1117.6871,305.9461,1118.315,295.9641,1118.2856,285.982,1118,276" style="stroke: #000000; stroke-width: 1.5;"/><polygon fill="#ADD1B2" points="1294.8108,294.6756,1293.1984,296.8788,1291.2912,300.1057,1288.5636,302.2804,1285.6974,303.4696,1283.412,303.5728,1280.4747,302.0855,1277.7032,301.1139,1275.5995,299.1412,1274.4961,296.8828,1273.8417,295.0845,1273.2006,292.7357,1272.16,290.7145,1272.9596,288.741,1273.6602,286.5792,1276.2893,284.8695,1278.139,282.6511,1280.4284,281.9144,1283.1501,281.2801,1286.6404,281.657,1288.5521,282.5585,1290.7747,282.9672,1293.4772,285.736,1294.4193,288.659,1294.8286,290.6534,1294.365,293.9399" style="stroke: #000000; stroke-width: 1.0;"/><path d="M1286.2231,298.1431 Q1285.6421,298.4419 1285.0029,298.5913 Q1284.3638,298.7407 1283.6582,298.7407 Q1281.1514,298.7407 1279.8315,297.0889 Q1278.5117,295.437 1278.5117,292.3159 Q1278.5117,289.1865 1279.8315,287.5347 Q1281.1514,285.8828 1283.6582,285.8828 Q1284.3638,285.8828 1285.0112,286.0322 Q1285.6587,286.1816 1286.2231,286.4805 L1286.2231,289.2031 Q1285.5923,288.6221 1284.9988,288.3523 Q1284.4053,288.0825 1283.7744,288.0825 Q1282.4297,288.0825 1281.7449,289.1492 Q1281.0601,290.2158 1281.0601,292.3159 Q1281.0601,294.4077 1281.7449,295.4744 Q1282.4297,296.541 1283.7744,296.541 Q1284.4053,296.541 1284.9988,296.2712 Q1285.5923,296.0015 1286.2231,295.4204 Z "/><text fill="#000000" font-family="sans-serif" font-size="12" lengthAdjust="spacingAndGlyphs" textLength="181" x="1304.25" y="296.5352">DepotDonneesClientsFichierPlat</text><path d="M1119,308 L1119,308.2802 L1128.9808,307.4476 L1138.9615,308.2577 L1148.9423,308.5329 L1158.9231,307.0488 L1168.9038,307.8964 L1178.8846,307.4313 L1188.8654,307.4887 L1198.8462,307.9091 L1208.8269,307.0782 L1218.8077,308.7382 L1228.7885,307.1596 L1238.7692,307.7363 L1248.75,308.5759 L1258.7308,307.8856 L1268.7115,308.091 L1278.6923,307.9574 L1288.6731,308.238 L1298.6538,308.3188 L1308.6346,308.7809 L1318.6154,308.8947 L1328.5962,308.9057 L1338.5769,308.3395 L1348.5577,308.6181 L1358.5385,308.9363 L1368.5192,307.0384 L1378.5,308.9047 L1388.4808,307.6047 L1398.4615,308.7117 L1408.4423,307.34 L1418.4231,307.9087 L1428.4038,308.9888 L1438.3846,307.935 L1448.3654,308.1404 L1458.3462,308.4515 L1468.3269,308.555 L1478.3077,307.9948 L1488.2885,308.383 L1498.2692,307.2368 L1508.25,308.3792 L1518.2308,308.7309 L1528.2115,308.5927 L1538.1923,308.8174 L1548.1731,307.3559 L1558.1538,307.1304 L1568.1346,307.1715 L1578.1154,307.9215 L1588.0962,307.738 L1598.0769,308.9085 L1608.0577,307.7671 L1618.0385,307.5426 L1628.0192,308.3044 L1638,308 " fill="#FFFFFF" style="stroke: #000000; stroke-width: 1.5;"/><path d="M1119,316 L1119,316.2802 L1128.9808,315.4476 L1138.9615,316.2577 L1148.9423,316.5329 L1158.9231,315.0488 L1168.9038,315.8964 L1178.8846,315.4313 L1188.8654,315.4887 L1198.8462,315.9091 L1208.8269,315.0782 L1218.8077,316.7382 L1228.7885,315.1596 L1238.7692,315.7363 L1248.75,316.5759 L1258.7308,315.8856 L1268.7115,316.091 L1278.6923,315.9574 L1288.6731,316.238 L1298.6538,316.3188 L1308.6346,316.7809 L1318.6154,316.8947 L1328.5962,316.9057 L1338.5769,316.3395 L1348.5577,316.6181 L1358.5385,316.9363 L1368.5192,315.0384 L1378.5,316.9047 L1388.4808,315.6047 L1398.4615,316.7117 L1408.4423,315.34 L1418.4231,315.9087 L1428.4038,316.9888 L1438.3846,315.935 L1448.3654,316.1404 L1458.3462,316.4515 L1468.3269,316.555 L1478.3077,315.9948 L1488.2885,316.383 L1498.2692,315.2368 L1508.25,316.3792 L1518.2308,316.7309 L1528.2115,316.5927 L1538.1923,316.8174 L1548.1731,315.3559 L1558.1538,315.1304 L1568.1346,315.1715 L1578.1154,315.9215 L1588.0962,315.738 L1598.0769,316.9085 L1608.0577,315.7671 L1618.0385,315.5426 L1628.0192,316.3044 L1638,316 " fill="#FFFFFF" style="stroke: #000000; stroke-width: 1.5;"/><text fill="#000000" font-family="sans-serif" font-size="11" lengthAdjust="spacingAndGlyphs" textLength="208" x="1124" y="330.6348">+ctor(p_nomFichierFichierPlat : string)</text><text fill="#000000" font-family="sans-serif" font-size="11" lengthAdjust="spacingAndGlyphs" textLength="321" x="1124" y="343.5898">+ObtenirClient(p_identifiantClient : Guid) : Client «override»</text><text fill="#000000" font-family="sans-serif" font-size="11" lengthAdjust="spacingAndGlyphs" textLength="509" x="1124" y="356.5449">+ChercherClientsParNumeroTelephone(p_numeroTelephone : string) : List&lt;Client&gt; «override»</text><text fill="#000000" font-family="sans-serif" font-size="11" lengthAdjust="spacingAndGlyphs" textLength="250" x="1124" y="369.5">+EnregistrerClient(p_client : Client) «override»</text><!--class SousProgramme--><polygon fill="#FFFFFF" filter="url(#fczejdj3rviv3)" points="760,8,760,8.2102,769.6154,7.5857,779.2308,8.1933,788.8462,8.3997,798.4615,7.2866,808.0769,7.9223,817.6923,7.5735,827.3077,7.6165,836.9231,7.9318,846.5385,7.3086,856.1538,8.5536,865.7692,7.3697,875.3846,7.8022,885,8,885.4319,8,884.9142,18.1592,885.0682,28.3184,884.9681,38.4775,885.1785,48.6367,885.2391,58.7959,885,68.9551,885,69.5408,875.3846,69.6261,865.7692,69.6343,856.1538,69.2097,846.5385,69.4187,836.9231,69.6573,827.3077,68.2339,817.6923,69.6336,808.0769,68.6586,798.4615,69.4889,788.8462,68.4601,779.2308,68.8866,769.6154,69.6967,760,68.9551,759.9513,68.9551,760.1053,58.7959,760.3386,48.6367,760.4162,38.4775,759.9961,28.3184,760.2872,18.1592,760,8" style="stroke: #000000; stroke-width: 1.5;"/><polygon fill="#ADD1B2" points="786.0608,26.6756,784.4484,28.8788,782.5412,32.1057,779.8136,34.2804,776.9474,35.4696,774.662,35.5728,771.7247,34.0855,768.9532,33.1139,766.8495,31.1412,765.7461,28.8828,765.0917,27.0845,764.4506,24.7357,763.41,22.7145,764.2096,20.741,764.9102,18.5792,767.5393,16.8695,769.389,14.6511,771.6784,13.9144,774.4001,13.2801,777.8904,13.657,779.8021,14.5585,782.0247,14.9672,784.7272,17.736,785.6693,20.659,786.0786,22.6534,785.615,25.9399" style="stroke: #000000; stroke-width: 1.0;"/><path d="M777.4731,30.1431 Q776.8921,30.4419 776.2529,30.5913 Q775.6138,30.7407 774.9082,30.7407 Q772.4014,30.7407 771.0815,29.0889 Q769.7617,27.437 769.7617,24.3159 Q769.7617,21.1865 771.0815,19.5347 Q772.4014,17.8828 774.9082,17.8828 Q775.6138,17.8828 776.2612,18.0322 Q776.9087,18.1816 777.4731,18.4805 L777.4731,21.2031 Q776.8423,20.6221 776.2488,20.3523 Q775.6553,20.0825 775.0244,20.0825 Q773.6797,20.0825 772.9949,21.1492 Q772.3101,22.2158 772.3101,24.3159 Q772.3101,26.4077 772.9949,27.4744 Q773.6797,28.541 775.0244,28.541 Q775.6553,28.541 776.2488,28.2712 Q776.8423,28.0015 777.4731,27.4204 Z "/><text fill="#000000" font-family="sans-serif" font-size="12" lengthAdjust="spacingAndGlyphs" textLength="93" x="789" y="28.5352">SousProgramme</text><path d="M761,40 L761,40.2802 L771.25,39.4476 L781.5,40.2577 L791.75,40.5329 L802,39.0488 L812.25,39.8964 L822.5,39.4313 L832.75,39.4887 L843,39.9091 L853.25,39.0782 L863.5,40.7382 L873.75,39.1596 L884,40 " fill="#FFFFFF" style="stroke: #000000; stroke-width: 1.5;"/><path d="M761,48 L761,48.2802 L771.25,47.4476 L781.5,48.2577 L791.75,48.5329 L802,47.0488 L812.25,47.8964 L822.5,47.4313 L832.75,47.4887 L843,47.9091 L853.25,47.0782 L863.5,48.7382 L873.75,47.1596 L884,48 " fill="#FFFFFF" style="stroke: #000000; stroke-width: 1.5;"/><text fill="#000000" font-family="sans-serif" font-size="11" lengthAdjust="spacingAndGlyphs" textLength="25" x="766" y="62.6348">[...]()</text><!--reverse link DepotDonneesClients to DepotDonneesClientsMariaDb--><path d="M646.96,221.33 L647.0337,221.6004 L637.2653,223.3989 L627.9287,226.7825 L618.4515,229.6499 L608.5119,230.8199 L599.1851,234.2396 L589.5134,236.3928 L579.9789,239.05 L570.5399,242.0576 L560.772,243.8577 L551.6588,248.0613 L541.6943,249.1401 L532.2964,252.2984 L522.9676,255.7104 L513.2366,257.6463 L503.7411,260.4464 L494.1564,262.9194 L484.6807,265.792 L475.1524,268.4719 L465.7243,271.5196 L456.2047,274.2314 L446.42,275.97 " fill="none" style="stroke: #A80036; stroke-width: 1.0; stroke-dasharray: 7.0,7.0;"/><polygon fill="none" points="645.38,214.51,645.3849,214.5799,649.5963,214.6702,653.8365,215.1703,658.0674,215.5369,662.2673,215.4648,666.51,216,666.4953,215.9787,662.9394,218.2869,659.4575,220.7027,656.0271,223.1933,652.4193,225.4262,649.06,228.02,649.2381,228.0685,648.1213,225.2628,647.5244,222.5987,646.9909,219.9518,646.0884,217.2045,645.38,214.51" style="stroke: #A80036; stroke-width: 1.0;"/><!--reverse link DepotDonneesClients to DepotDonneesClientsXML--><path d="M822.5,236.17 L822.5934,236.17 L822.3159,244.088 L822.5859,252.006 L822.6776,259.924 L822.1829,267.842 L822.5,275.76 " fill="none" style="stroke: #A80036; stroke-width: 1.0; stroke-dasharray: 7.0,7.0;"/><polygon fill="none" points="815.5,236.1,815.5661,236.1231,816.7696,232.0544,818.3608,228.1213,819.8257,224.144,820.8756,220.0214,822.5,216.1,822.4755,216.0914,823.7658,220.053,825.1793,224.0578,826.6786,228.0925,827.8825,232.0239,829.5,236.1,829.5,236.2845,826.7,235.8899,823.9,236.0341,821.1,236.244,818.3,236.0714,815.5,236.1" style="stroke: #A80036; stroke-width: 1.0;"/><!--reverse link DepotDonneesClients to DepotDonneesClientsFichierPlat--><path d="M998.04,221.33 L998.1137,221.6004 L1007.4443,223.3989 L1017.2068,226.7825 L1026.8287,229.6499 L1035.988,230.8199 L1045.7604,234.2396 L1055.1877,236.3928 L1064.7522,239.05 L1074.4123,242.0576 L1083.7434,243.8577 L1093.7293,248.0613 L1102.8638,249.1401 L1112.565,252.2984 L1122.3352,255.7104 L1131.7033,257.6463 L1141.3068,260.4464 L1150.8212,262.9194 L1160.4445,265.792 L1170.0152,268.4719 L1179.6862,271.5196 L1189.2657,274.2314 L1198.58,275.97 " fill="none" style="stroke: #A80036; stroke-width: 1.0; stroke-dasharray: 7.0,7.0;"/><polygon fill="none" points="995.94,228.02,995.9797,228.0777,992.3717,225.5023,988.9965,223.2651,985.5456,220.9177,981.8451,218.2082,978.49,216,978.4882,215.9742,982.706,215.5602,986.933,215.2765,991.1664,215.0833,995.3778,214.5781,999.62,214.51,999.7981,214.5585,998.6813,217.1568,998.0844,219.8967,997.5509,222.6538,996.6484,225.3105,995.94,228.02" style="stroke: #A80036; stroke-width: 1.0;"/><!--link SousProgramme to DepotDonneesClients--><path d="M822.5,69.12 L822.7802,69.12 L821.9476,80.068 L822.7577,91.016 L823.0329,101.964 L821.5488,112.912 L822.5,123.86 " fill="none" style="stroke: #A80036; stroke-width: 1.0; stroke-dasharray: 7.0,7.0;"/><polygon fill="#A80036" points="822.5,128.96,822.564,128.9885,823.1738,127.1039,824.1589,125.3862,825.0217,123.6141,825.4827,121.6634,826.5,119.96,826.4817,119.9417,825.5995,120.6595,824.8096,121.4696,824.0839,122.3439,823.137,122.997,822.5,123.96,822.6305,124.0905,821.5514,123.0114,820.8534,122.3134,820.2018,121.6618,819.2798,120.7398,818.5,119.96,818.5208,119.9692,819.2903,121.7557,820.1544,123.5842,820.9728,125.3924,821.8784,127.2393,822.5,128.96" style="stroke: #A80036; stroke-width: 1.0;"/><!--
@startuml InjectionDependances
skinparam classAttributeIconSize 0
skinparam handwritten true
skinparam class {
    BackgroundColor White
    BorderColor #000
}

DepotDonneesClients <|.. DepotDonneesClientsMariaDb
DepotDonneesClients <|.. DepotDonneesClientsXML
DepotDonneesClients <|.. DepotDonneesClientsFichierPlat


SousProgramme ..> DepotDonneesClients

class SousProgramme {
    [...]()
}

interface DepotDonneesClients {
    + ObtenirClient(p_identifiantClient : Guid) : Client {abstract}
    + ChercherClientsParNumeroTelephone(p_numeroTelephone : string) : List<Client> {abstract}
    + EnregistrerClient(p_client : Client) {abstract}
}

class DepotDonneesClientsMariaDb {
    + ctor(p_chaineConnexion : string)
    + ObtenirClient(p_identifiantClient : Guid) : Client <<override>>
    + ChercherClientsParNumeroTelephone(p_numeroTelephone : string) : List<Client> <<override>>
    + EnregistrerClient(p_client : Client) <<override>>
}

class DepotDonneesClientsXML {
    + ctor(p_nomFichierXML : string)
    + ObtenirClient(p_identifiantClient : Guid) : Client <<override>>
    + ChercherClientsParNumeroTelephone(p_numeroTelephone : string) : List<Client> <<override>>
    + EnregistrerClient(p_client : Client) <<override>>
}

class DepotDonneesClientsFichierPlat {
    + ctor(p_nomFichierFichierPlat : string)
    + ObtenirClient(p_identifiantClient : Guid) : Client <<override>>
    + ChercherClientsParNumeroTelephone(p_numeroTelephone : string) : List<Client> <<override>>
    + EnregistrerClient(p_client : Client) <<override>>
}

@enduml

PlantUML version 1.2019.09(Mon Aug 26 12:19:51 EDT 2019)
(GPL source distribution)
Java Runtime: OpenJDK Runtime Environment
JVM: OpenJDK 64-Bit Server VM
Java Version: 13.0.2+8
Operating System: Mac OS X
OS Version: 10.15.4
Default Encoding: UTF-8
Language: fr
Country: CA
--></g></svg>