<?xml version="1.0" encoding="us-ascii" standalone="no"?><svg xmlns="http://www.w3.org/2000/svg" xmlns:xlink="http://www.w3.org/1999/xlink" contentStyleType="text/css" height="419px" preserveAspectRatio="none" style="width:1908px;height:419px;background:#FFFFFF;" version="1.1" viewBox="0 0 1908 419" width="1908px" zoomAndPan="magnify"><defs/><g><!--class DepotDonneesClients--><g id="elem_DepotDonneesClients"><polygon fill="#FFFFFF" points="688,133,688,133.2102,698.0377,132.5857,708.0755,133.1933,718.1132,133.3997,728.1509,132.2866,738.1887,132.9223,748.2264,132.5735,758.2642,132.6165,768.3019,132.9318,778.3396,132.3086,788.3774,133.5536,798.4151,132.3697,808.4528,132.8022,818.4906,133.4319,828.5283,132.9142,838.566,133.0682,848.6038,132.9681,858.6415,133.1785,868.6792,133.2391,878.717,133.5857,888.7547,133.6711,898.7925,133.6793,908.8302,133.2546,918.8679,133.4636,928.9057,133.7022,938.9434,132.2788,948.9811,133.6785,959.0189,132.7035,969.0566,133.5338,979.0943,132.505,989.1321,132.9315,999.1698,133.7416,1009.2075,132.9513,1019.2453,133.1053,1029.283,133.3386,1039.3208,133.4162,1049.3585,132.9961,1059.3962,133.2872,1069.434,132.4276,1079.4717,133.2844,1089.5094,133.5482,1099.5472,133.4445,1109.5849,133.613,1119.6226,132.5169,1129.6604,132.3478,1139.6981,132.3786,1149.7358,132.9411,1159.7736,132.8035,1169.8113,133.6814,1179.8491,132.8253,1189.8868,132.6569,1199.9245,133.2283,1209.9623,132.3332,1220,133,1219.9338,132.8401,1220.4363,133.3463,1220.7627,133.4271,1221.1544,133.6655,1221.3732,133.4867,1221.7678,133.7322,1221.8661,133.773,1222.096,134.1611,1221.9152,134.3791,1222.1776,134.7807,1222.3924,135.1625,1222.5,135.5,1223.1518,135.5,1222.4958,145.0828,1222.9626,154.6656,1221.9462,164.2484,1221.8227,173.8313,1223.0036,183.4141,1221.7831,192.9969,1223.009,202.5797,1222.7066,212.1625,1222.2321,221.7453,1222.5,231.3281,1222.3911,231.283,1222.4948,231.7402,1222.1149,231.997,1222.2429,232.4643,1221.744,232.6718,1221.7678,233.0959,1221.8465,233.286,1221.476,233.3915,1221.0919,233.4642,1220.7131,233.5498,1220.4462,233.9054,1220,233.8281,1220,234.4417,1209.9623,233.9974,1199.9245,234.0963,1189.8868,233.6979,1179.8491,234.5446,1169.8113,233.983,1159.7736,234.0007,1149.7358,233.2198,1139.6981,233.4229,1129.6604,234.3589,1119.6226,234.2579,1109.5849,233.7852,1099.5472,233.506,1089.5094,233.6092,1079.4717,233.1419,1069.434,234.2429,1059.3962,234.5677,1049.3585,234.3545,1039.3208,234.5231,1029.283,233.6914,1019.2453,233.9153,1009.2075,233.4405,999.1698,234.1122,989.1321,234.0749,979.0943,234.3805,969.0566,233.5985,959.0189,233.6937,948.9811,234.2716,938.9434,234.3955,928.9057,233.3156,918.8679,233.6342,908.8302,233.9774,898.7925,233.2173,888.7547,234.1815,878.717,234.0861,868.6792,233.7274,858.6415,233.9704,848.6038,234.5568,838.566,233.5153,828.5283,234.1431,818.4906,234.1138,808.4528,233.9439,798.4151,233.969,788.3774,233.9416,778.3396,233.204,768.3019,233.4273,758.2642,233.3666,748.2264,233.8919,738.1887,233.9163,728.1509,233.9899,718.1132,233.5371,708.0755,233.7606,698.0377,233.7079,688,233.8281,688.0736,234.0058,687.7009,233.813,687.231,233.3857,686.93,233.3663,686.5122,233.0646,686.2322,233.0959,686.321,233.1327,686.2732,232.82,686.107,232.4583,685.6588,231.9797,685.7893,231.7409,685.5,231.3281,684.7572,231.3281,685.7002,221.7453,685.2007,212.1625,685.5967,202.5797,685.7403,192.9969,685.9721,183.4141,684.7801,173.8313,685.9755,164.2484,685.6782,154.6656,685.8553,145.0828,685.5,135.5,685.7303,135.5954,685.6481,135.1471,685.8469,134.8153,686.0051,134.4666,686.1465,134.1109,686.2322,133.7322,686.2321,133.732,686.6764,133.8047,686.8616,133.2516,687.365,133.467,687.5668,132.9543,688,133" style="stroke:#000000;stroke-width:0.5;"/><polygon fill="#B4A7E5" points="891.8108,151.6756,890.1984,153.8788,888.2912,157.1057,885.5636,159.2804,882.6974,160.4696,880.412,160.5728,877.4747,159.0855,874.7032,158.1139,872.5995,156.1412,871.4961,153.8828,870.8417,152.0845,870.2006,149.7357,869.16,147.7145,869.9596,145.741,870.6602,143.5792,873.2893,141.8695,875.139,139.6511,877.4284,138.9144,880.1501,138.2801,883.6404,138.657,885.5521,139.5585,887.7747,139.9672,890.4772,142.736,891.4193,145.659,891.8286,147.6534,891.365,150.9399" style="stroke:#181818;stroke-width:1.0;"/><path d="M881.7031,145.6406 L881.7031,152.2969 L883.4219,152.2969 Q884.0313,152.2969 884.2969,152.5313 Q884.5625,152.7656 884.5625,153.1563 Q884.5625,153.5313 884.2969,153.7656 Q884.0313,154 883.4219,154 L878.2813,154 Q877.6719,154 877.4063,153.7656 Q877.1406,153.5313 877.1406,153.1406 Q877.1406,152.7656 877.4063,152.5313 Q877.6719,152.2969 878.2813,152.2969 L880,152.2969 L880,145.6406 L878.2813,145.6406 Q877.6719,145.6406 877.4063,145.4063 Q877.1406,145.1719 877.1406,144.7813 Q877.1406,144.4063 877.4063,144.1719 Q877.6719,143.9375 878.2813,143.9375 L883.4219,143.9375 Q884.0313,143.9375 884.2969,144.1719 Q884.5625,144.4063 884.5625,144.7813 Q884.5625,145.1719 884.2969,145.4063 Q884.0313,145.6406 883.4219,145.6406 L881.7031,145.6406 Z " fill="#000000"/><text fill="#000000" font-family="sans-serif" font-size="14" font-style="italic" lengthAdjust="spacing" textLength="138" x="901.25" y="154.7285">DepotDonneesClients</text><path d="M686.5,165 L686.5,165.2802 L696.4074,164.4476 L706.3148,165.2577 L716.2222,165.5329 L726.1296,164.0488 L736.037,164.8964 L745.9444,164.4313 L755.8519,164.4887 L765.7593,164.9091 L775.6667,164.0782 L785.5741,165.7382 L795.4815,164.1596 L805.3889,164.7363 L815.2963,165.5759 L825.2037,164.8856 L835.1111,165.091 L845.0185,164.9574 L854.9259,165.238 L864.8333,165.3188 L874.7407,165.7809 L884.6481,165.8947 L894.5556,165.9057 L904.463,165.3395 L914.3704,165.6181 L924.2778,165.9363 L934.1852,164.0384 L944.0926,165.9047 L954,164.6047 L963.9074,165.7117 L973.8148,164.34 L983.7222,164.9087 L993.6296,165.9888 L1003.537,164.935 L1013.4444,165.1404 L1023.3519,165.4515 L1033.2593,165.555 L1043.1667,164.9948 L1053.0741,165.383 L1062.9815,164.2368 L1072.8889,165.3792 L1082.7963,165.7309 L1092.7037,165.5927 L1102.6111,165.8174 L1112.5185,164.3559 L1122.4259,164.1304 L1132.3333,164.1715 L1142.2407,164.9215 L1152.1481,164.738 L1162.0556,165.9085 L1171.963,164.7671 L1181.8704,164.5426 L1191.7778,165.3044 L1201.6852,164.1109 L1211.5926,164.3078 L1221.5,165 " fill="#FFFFFF" style="stroke:#000000;stroke-width:0.5;"/><path d="M686.5,173 L686.5,173.2802 L696.4074,172.4476 L706.3148,173.2577 L716.2222,173.5329 L726.1296,172.0488 L736.037,172.8964 L745.9444,172.4313 L755.8519,172.4887 L765.7593,172.9091 L775.6667,172.0782 L785.5741,173.7382 L795.4815,172.1596 L805.3889,172.7363 L815.2963,173.5759 L825.2037,172.8856 L835.1111,173.091 L845.0185,172.9574 L854.9259,173.238 L864.8333,173.3188 L874.7407,173.7809 L884.6481,173.8947 L894.5556,173.9057 L904.463,173.3395 L914.3704,173.6181 L924.2778,173.9363 L934.1852,172.0384 L944.0926,173.9047 L954,172.6047 L963.9074,173.7117 L973.8148,172.34 L983.7222,172.9087 L993.6296,173.9888 L1003.537,172.935 L1013.4444,173.1404 L1023.3519,173.4515 L1033.2593,173.555 L1043.1667,172.9948 L1053.0741,173.383 L1062.9815,172.2368 L1072.8889,173.3792 L1082.7963,173.7309 L1092.7037,173.5927 L1102.6111,173.8174 L1112.5185,172.3559 L1122.4259,172.1304 L1132.3333,172.1715 L1142.2407,172.9215 L1152.1481,172.738 L1162.0556,173.9085 L1171.963,172.7671 L1181.8704,172.5426 L1191.7778,173.3044 L1201.6852,172.1109 L1211.5926,172.3078 L1221.5,173 " fill="#FFFFFF" style="stroke:#000000;stroke-width:0.5;"/><text fill="#000000" font-family="sans-serif" font-size="14" font-style="italic" lengthAdjust="spacing" textLength="304" x="691.5" y="191.5332">+ObtenirClient(p_identifiantClient : Guid) : Client</text><text fill="#000000" font-family="sans-serif" font-size="14" font-style="italic" lengthAdjust="spacing" textLength="525" x="691.5" y="209.1426">+ChercherClientsParNumeroTelephone(p_numeroTelephone : string) : List&lt;Client&gt;</text><text fill="#000000" font-family="sans-serif" font-size="14" font-style="italic" lengthAdjust="spacing" textLength="221" x="691.5" y="226.752">+EnregistrerClient(p_client : Client)</text></g><!--class DepotDonneesClientsMariaDb--><g id="elem_DepotDonneesClientsMariaDb"><polygon fill="#FFFFFF" points="9.5,294,9.5,294.2102,19.55,293.5857,29.6,294.1933,39.65,294.3997,49.7,293.2866,59.75,293.9223,69.8,293.5735,79.85,293.6165,89.9,293.9318,99.95,293.3086,110,294.5536,120.05,293.3697,130.1,293.8022,140.15,294.4319,150.2,293.9142,160.25,294.0682,170.3,293.9681,180.35,294.1785,190.4,294.2391,200.45,294.5857,210.5,294.6711,220.55,294.6793,230.6,294.2546,240.65,294.4636,250.7,294.7022,260.75,293.2788,270.8,294.6785,280.85,293.7035,290.9,294.5338,300.95,293.505,311,293.9315,321.05,294.7416,331.1,293.9513,341.15,294.1053,351.2,294.3386,361.25,294.4162,371.3,293.9961,381.35,294.2872,391.4,293.4276,401.45,294.2844,411.5,294.5482,421.55,294.4445,431.6,294.613,441.65,293.5169,451.7,293.3478,461.75,293.3786,471.8,293.9411,481.85,293.8035,491.9,294.6814,501.95,293.8253,512,293.6569,522.05,294.2283,532.1,293.3332,542.15,293.4809,552.2,294.649,562.25,294.4357,572.3,294.7345,582.35,293.6782,592.4,294.3192,602.45,294.5904,612.5,294,612.4397,293.8545,612.8413,294.1169,613.2232,294.3317,613.6438,294.6401,613.9137,294.5845,614.2678,294.7322,614.4102,294.7912,614.2437,295.0151,614.3521,295.3529,614.8622,295.8571,614.6328,296.055,615,296.5,615.509,296.5,615.2066,306.8125,614.7321,317.125,614.6462,327.4375,615.4588,337.75,614.7007,348.0625,615.5919,358.375,614.4473,368.6875,615.6174,379,615.4843,389.3125,615.245,399.625,615,409.9375,615.0145,409.9435,615.0773,410.3837,614.8961,410.7229,614.6128,411.0198,614.4968,411.3859,614.2678,411.7053,614.2512,411.6652,614.0056,412.0724,613.5804,412.0459,613.2291,412.1978,612.776,412.1037,612.5,412.4375,612.5,412.0323,602.45,412.9682,592.4,412.8673,582.35,412.3946,572.3,412.1153,562.25,412.2186,552.2,411.7513,542.15,412.8522,532.1,413.1771,522.05,412.9639,512,413.1324,501.95,412.3008,491.9,412.5247,481.85,412.0499,471.8,412.7215,461.75,412.6843,451.7,412.9899,441.65,412.2078,431.6,412.3031,421.55,412.881,411.5,413.0048,401.45,411.925,391.4,412.2436,381.35,412.5868,371.3,411.8267,361.25,412.7909,351.2,412.6955,341.15,412.3367,331.1,412.5797,321.05,413.1662,311,412.1246,300.95,412.7525,290.9,412.7231,280.85,412.5533,270.8,412.5784,260.75,412.551,250.7,411.8133,240.65,412.0367,230.6,411.976,220.55,412.5013,210.5,412.5256,200.45,412.5992,190.4,412.1465,180.35,412.37,170.3,412.3173,160.25,413.0144,150.2,412.8641,140.15,411.952,130.1,412.3646,120.05,411.8603,110,412.7259,99.95,413.046,89.9,412.9821,79.85,412.0019,69.8,412.9015,59.75,411.6947,49.7,412.6377,39.65,412.1382,29.6,412.5342,19.55,412.6778,9.5,412.4375,9.5602,412.5829,9.0546,412.0693,8.8535,412.291,8.4621,412.053,8.1311,411.9611,7.7322,411.7053,7.9625,411.8007,7.5875,411.3524,7.4933,411.0205,7.3586,410.6718,7.2072,410.3162,7,409.9375,6.9992,409.9375,7.7107,399.625,6.3903,389.3125,7.5653,379,6.376,368.6875,6.4597,358.375,7.04,348.0625,7.0283,337.75,6.5072,327.4375,7.4137,317.125,7.1089,306.8125,7,296.5,7.2238,296.5927,7.3519,296.2315,7.1548,295.7357,7.3168,295.3886,7.546,295.0693,7.7322,294.7322,7.7776,294.8417,8.1372,294.7099,8.4778,294.5321,8.7493,294.1876,9.2276,294.3424,9.5,294" style="stroke:#000000;stroke-width:0.5;"/><polygon fill="#ADD1B2" points="222.3108,312.6756,220.6984,314.8788,218.7912,318.1057,216.0636,320.2804,213.1974,321.4696,210.912,321.5728,207.9747,320.0855,205.2032,319.1139,203.0995,317.1412,201.9961,314.8828,201.3417,313.0845,200.7006,310.7357,199.66,308.7145,200.4596,306.741,201.1602,304.5792,203.7893,302.8695,205.639,300.6511,207.9284,299.9144,210.6501,299.2801,214.1404,299.657,216.0521,300.5585,218.2747,300.9672,220.9772,303.736,221.9193,306.659,222.3286,308.6534,221.865,311.9399" style="stroke:#181818;stroke-width:1.0;"/><path d="M214.0156,305.875 Q214.1719,305.6563 214.3594,305.5469 Q214.5469,305.4375 214.7656,305.4375 Q215.1406,305.4375 215.375,305.6953 Q215.6094,305.9531 215.6094,306.5625 L215.6094,308.0156 Q215.6094,308.625 215.375,308.8906 Q215.1406,309.1563 214.7656,309.1563 Q214.4219,309.1563 214.2188,308.9531 Q214.0156,308.7656 213.9063,308.25 Q213.8594,307.8906 213.6719,307.7031 Q213.3438,307.3281 212.7344,307.1094 Q212.125,306.8906 211.5,306.8906 Q210.7344,306.8906 210.1016,307.2188 Q209.4688,307.5469 208.9766,308.2969 Q208.4844,309.0469 208.4844,310.0781 L208.4844,311.1719 Q208.4844,312.4063 209.375,313.2266 Q210.2656,314.0469 211.8594,314.0469 Q212.7969,314.0469 213.4531,313.7969 Q213.8438,313.6406 214.2656,313.2031 Q214.5313,312.9375 214.6797,312.8594 Q214.8281,312.7813 215.0313,312.7813 Q215.3594,312.7813 215.6172,313.0391 Q215.875,313.2969 215.875,313.6406 Q215.875,313.9844 215.5313,314.3906 Q215.0313,314.9688 214.2344,315.2969 Q213.1563,315.75 211.8594,315.75 Q210.3438,315.75 209.1406,315.125 Q208.1563,314.625 207.4688,313.5547 Q206.7813,312.4844 206.7813,311.2031 L206.7813,310.0469 Q206.7813,308.7188 207.3984,307.5703 Q208.0156,306.4219 209.1094,305.8047 Q210.2031,305.1875 211.4375,305.1875 Q212.1719,305.1875 212.8203,305.3516 Q213.4688,305.5156 214.0156,305.875 Z " fill="#000000"/><text fill="#000000" font-family="sans-serif" font-size="14" lengthAdjust="spacing" textLength="191" x="231.75" y="315.7285">DepotDonneesClientsMariaDb</text><path d="M8,326 L8,326.2802 L17.9344,325.4476 L27.8689,326.2577 L37.8033,326.5329 L47.7377,325.0488 L57.6721,325.8964 L67.6066,325.4313 L77.541,325.4887 L87.4754,325.9091 L97.4098,325.0782 L107.3443,326.7382 L117.2787,325.1596 L127.2131,325.7363 L137.1475,326.5759 L147.082,325.8856 L157.0164,326.091 L166.9508,325.9574 L176.8852,326.238 L186.8197,326.3188 L196.7541,326.7809 L206.6885,326.8947 L216.623,326.9057 L226.5574,326.3395 L236.4918,326.6181 L246.4262,326.9363 L256.3607,325.0384 L266.2951,326.9047 L276.2295,325.6047 L286.1639,326.7117 L296.0984,325.34 L306.0328,325.9087 L315.9672,326.9888 L325.9016,325.935 L335.8361,326.1404 L345.7705,326.4515 L355.7049,326.555 L365.6393,325.9948 L375.5738,326.383 L385.5082,325.2368 L395.4426,326.3792 L405.377,326.7309 L415.3115,326.5927 L425.2459,326.8174 L435.1803,325.3559 L445.1148,325.1304 L455.0492,325.1715 L464.9836,325.9215 L474.918,325.738 L484.8525,326.9085 L494.7869,325.7671 L504.7213,325.5426 L514.6557,326.3044 L524.5902,325.1109 L534.5246,325.3078 L544.459,326.8653 L554.3934,326.5809 L564.3279,326.9793 L574.2623,325.5709 L584.1967,326.4256 L594.1311,326.7872 L604.0656,325.3701 L614,326 " fill="#FFFFFF" style="stroke:#000000;stroke-width:0.5;"/><path d="M8,334 L8,334.2802 L17.9344,333.4476 L27.8689,334.2577 L37.8033,334.5329 L47.7377,333.0488 L57.6721,333.8964 L67.6066,333.4313 L77.541,333.4887 L87.4754,333.9091 L97.4098,333.0782 L107.3443,334.7382 L117.2787,333.1596 L127.2131,333.7363 L137.1475,334.5759 L147.082,333.8856 L157.0164,334.091 L166.9508,333.9574 L176.8852,334.238 L186.8197,334.3188 L196.7541,334.7809 L206.6885,334.8947 L216.623,334.9057 L226.5574,334.3395 L236.4918,334.6181 L246.4262,334.9363 L256.3607,333.0384 L266.2951,334.9047 L276.2295,333.6047 L286.1639,334.7117 L296.0984,333.34 L306.0328,333.9087 L315.9672,334.9888 L325.9016,333.935 L335.8361,334.1404 L345.7705,334.4515 L355.7049,334.555 L365.6393,333.9948 L375.5738,334.383 L385.5082,333.2368 L395.4426,334.3792 L405.377,334.7309 L415.3115,334.5927 L425.2459,334.8174 L435.1803,333.3559 L445.1148,333.1304 L455.0492,333.1715 L464.9836,333.9215 L474.918,333.738 L484.8525,334.9085 L494.7869,333.7671 L504.7213,333.5426 L514.6557,334.3044 L524.5902,333.1109 L534.5246,333.3078 L544.459,334.8653 L554.3934,334.5809 L564.3279,334.9793 L574.2623,333.5709 L584.1967,334.4256 L594.1311,334.7872 L604.0656,333.3701 L614,334 " fill="#FFFFFF" style="stroke:#000000;stroke-width:0.5;"/><text fill="#000000" font-family="sans-serif" font-size="14" lengthAdjust="spacing" textLength="214" x="13" y="352.5332">+ctor(p_chaineConnexion : string)</text><text fill="#000000" font-family="sans-serif" font-size="14" lengthAdjust="spacing" textLength="376" x="13" y="370.1426">+ObtenirClient(p_identifiantClient : Guid) : Client &#171;override&#187;</text><text fill="#000000" font-family="sans-serif" font-size="14" lengthAdjust="spacing" textLength="596" x="13" y="387.752">+ChercherClientsParNumeroTelephone(p_numeroTelephone : string) : List&lt;Client&gt; &#171;override&#187;</text><text fill="#000000" font-family="sans-serif" font-size="14" lengthAdjust="spacing" textLength="293" x="13" y="405.3613">+EnregistrerClient(p_client : Client) &#171;override&#187;</text></g><!--class DepotDonneesClientsXML--><g id="elem_DepotDonneesClientsXML"><polygon fill="#FFFFFF" points="652.5,294,652.5,294.2102,662.55,293.5857,672.6,294.1933,682.65,294.3997,692.7,293.2866,702.75,293.9223,712.8,293.5735,722.85,293.6165,732.9,293.9318,742.95,293.3086,753,294.5536,763.05,293.3697,773.1,293.8022,783.15,294.4319,793.2,293.9142,803.25,294.0682,813.3,293.9681,823.35,294.1785,833.4,294.2391,843.45,294.5857,853.5,294.6711,863.55,294.6793,873.6,294.2546,883.65,294.4636,893.7,294.7022,903.75,293.2788,913.8,294.6785,923.85,293.7035,933.9,294.5338,943.95,293.505,954,293.9315,964.05,294.7416,974.1,293.9513,984.15,294.1053,994.2,294.3386,1004.25,294.4162,1014.3,293.9961,1024.35,294.2872,1034.4,293.4276,1044.45,294.2844,1054.5,294.5482,1064.55,294.4445,1074.6,294.613,1084.65,293.5169,1094.7,293.3478,1104.75,293.3786,1114.8,293.9411,1124.85,293.8035,1134.9,294.6814,1144.95,293.8253,1155,293.6569,1165.05,294.2283,1175.1,293.3332,1185.15,293.4809,1195.2,294.649,1205.25,294.4357,1215.3,294.7345,1225.35,293.6782,1235.4,294.3192,1245.45,294.5904,1255.5,294,1255.4397,293.8545,1255.8413,294.1169,1256.2232,294.3317,1256.6438,294.6401,1256.9137,294.5845,1257.2678,294.7322,1257.4102,294.7912,1257.2437,295.0151,1257.3521,295.3529,1257.8622,295.8571,1257.6328,296.055,1258,296.5,1258.509,296.5,1258.2066,306.8125,1257.7321,317.125,1257.6462,327.4375,1258.4588,337.75,1257.7007,348.0625,1258.5919,358.375,1257.4473,368.6875,1258.6174,379,1258.4843,389.3125,1258.245,399.625,1258,409.9375,1258.0145,409.9435,1258.0773,410.3837,1257.8961,410.7229,1257.6128,411.0198,1257.4968,411.3859,1257.2678,411.7053,1257.2512,411.6652,1257.0056,412.0724,1256.5804,412.0459,1256.2291,412.1978,1255.776,412.1037,1255.5,412.4375,1255.5,412.0323,1245.45,412.9682,1235.4,412.8673,1225.35,412.3946,1215.3,412.1153,1205.25,412.2186,1195.2,411.7513,1185.15,412.8522,1175.1,413.1771,1165.05,412.9639,1155,413.1324,1144.95,412.3008,1134.9,412.5247,1124.85,412.0499,1114.8,412.7215,1104.75,412.6843,1094.7,412.9899,1084.65,412.2078,1074.6,412.3031,1064.55,412.881,1054.5,413.0048,1044.45,411.925,1034.4,412.2436,1024.35,412.5868,1014.3,411.8267,1004.25,412.7909,994.2,412.6955,984.15,412.3367,974.1,412.5797,964.05,413.1662,954,412.1246,943.95,412.7525,933.9,412.7231,923.85,412.5533,913.8,412.5784,903.75,412.551,893.7,411.8133,883.65,412.0367,873.6,411.976,863.55,412.5013,853.5,412.5256,843.45,412.5992,833.4,412.1465,823.35,412.37,813.3,412.3173,803.25,413.0144,793.2,412.8641,783.15,411.952,773.1,412.3646,763.05,411.8603,753,412.7259,742.95,413.046,732.9,412.9821,722.85,412.0019,712.8,412.9015,702.75,411.6947,692.7,412.6377,682.65,412.1382,672.6,412.5342,662.55,412.6778,652.5,412.4375,652.5602,412.5829,652.0546,412.0693,651.8535,412.291,651.4621,412.053,651.1311,411.9611,650.7322,411.7053,650.9625,411.8007,650.5875,411.3524,650.4933,411.0205,650.3586,410.6718,650.2072,410.3162,650,409.9375,649.9992,409.9375,650.7107,399.625,649.3903,389.3125,650.5653,379,649.376,368.6875,649.4597,358.375,650.04,348.0625,650.0283,337.75,649.5072,327.4375,650.4137,317.125,650.1089,306.8125,650,296.5,650.2238,296.5927,650.3519,296.2315,650.1548,295.7357,650.3168,295.3886,650.546,295.0693,650.7322,294.7322,650.7776,294.8417,651.1372,294.7099,651.4778,294.5321,651.7493,294.1876,652.2276,294.3424,652.5,294" style="stroke:#000000;stroke-width:0.5;"/><polygon fill="#ADD1B2" points="878.3108,312.6756,876.6984,314.8788,874.7912,318.1057,872.0636,320.2804,869.1974,321.4696,866.912,321.5728,863.9747,320.0855,861.2032,319.1139,859.0995,317.1412,857.9961,314.8828,857.3417,313.0845,856.7006,310.7357,855.66,308.7145,856.4596,306.741,857.1602,304.5792,859.7893,302.8695,861.639,300.6511,863.9284,299.9144,866.6501,299.2801,870.1404,299.657,872.0521,300.5585,874.2747,300.9672,876.9772,303.736,877.9193,306.659,878.3286,308.6534,877.865,311.9399" style="stroke:#181818;stroke-width:1.0;"/><path d="M870.0156,305.875 Q870.1719,305.6563 870.3594,305.5469 Q870.5469,305.4375 870.7656,305.4375 Q871.1406,305.4375 871.375,305.6953 Q871.6094,305.9531 871.6094,306.5625 L871.6094,308.0156 Q871.6094,308.625 871.375,308.8906 Q871.1406,309.1563 870.7656,309.1563 Q870.4219,309.1563 870.2188,308.9531 Q870.0156,308.7656 869.9063,308.25 Q869.8594,307.8906 869.6719,307.7031 Q869.3438,307.3281 868.7344,307.1094 Q868.125,306.8906 867.5,306.8906 Q866.7344,306.8906 866.1016,307.2188 Q865.4688,307.5469 864.9766,308.2969 Q864.4844,309.0469 864.4844,310.0781 L864.4844,311.1719 Q864.4844,312.4063 865.375,313.2266 Q866.2656,314.0469 867.8594,314.0469 Q868.7969,314.0469 869.4531,313.7969 Q869.8438,313.6406 870.2656,313.2031 Q870.5313,312.9375 870.6797,312.8594 Q870.8281,312.7813 871.0313,312.7813 Q871.3594,312.7813 871.6172,313.0391 Q871.875,313.2969 871.875,313.6406 Q871.875,313.9844 871.5313,314.3906 Q871.0313,314.9688 870.2344,315.2969 Q869.1563,315.75 867.8594,315.75 Q866.3438,315.75 865.1406,315.125 Q864.1563,314.625 863.4688,313.5547 Q862.7813,312.4844 862.7813,311.2031 L862.7813,310.0469 Q862.7813,308.7188 863.3984,307.5703 Q864.0156,306.4219 865.1094,305.8047 Q866.2031,305.1875 867.4375,305.1875 Q868.1719,305.1875 868.8203,305.3516 Q869.4688,305.5156 870.0156,305.875 Z " fill="#000000"/><text fill="#000000" font-family="sans-serif" font-size="14" lengthAdjust="spacing" textLength="165" x="887.75" y="315.7285">DepotDonneesClientsXML</text><path d="M651,326 L651,326.2802 L660.9344,325.4476 L670.8689,326.2577 L680.8033,326.5329 L690.7377,325.0488 L700.6721,325.8964 L710.6066,325.4313 L720.541,325.4887 L730.4754,325.9091 L740.4098,325.0782 L750.3443,326.7382 L760.2787,325.1596 L770.2131,325.7363 L780.1475,326.5759 L790.082,325.8856 L800.0164,326.091 L809.9508,325.9574 L819.8852,326.238 L829.8197,326.3188 L839.7541,326.7809 L849.6885,326.8947 L859.623,326.9057 L869.5574,326.3395 L879.4918,326.6181 L889.4262,326.9363 L899.3607,325.0384 L909.2951,326.9047 L919.2295,325.6047 L929.1639,326.7117 L939.0984,325.34 L949.0328,325.9087 L958.9672,326.9888 L968.9016,325.935 L978.8361,326.1404 L988.7705,326.4515 L998.7049,326.555 L1008.6393,325.9948 L1018.5738,326.383 L1028.5082,325.2368 L1038.4426,326.3792 L1048.377,326.7309 L1058.3115,326.5927 L1068.2459,326.8174 L1078.1803,325.3559 L1088.1148,325.1304 L1098.0492,325.1715 L1107.9836,325.9215 L1117.918,325.738 L1127.8525,326.9085 L1137.7869,325.7671 L1147.7213,325.5426 L1157.6557,326.3044 L1167.5902,325.1109 L1177.5246,325.3078 L1187.459,326.8653 L1197.3934,326.5809 L1207.3279,326.9793 L1217.2623,325.5709 L1227.1967,326.4256 L1237.1311,326.7872 L1247.0656,325.3701 L1257,326 " fill="#FFFFFF" style="stroke:#000000;stroke-width:0.5;"/><path d="M651,334 L651,334.2802 L660.9344,333.4476 L670.8689,334.2577 L680.8033,334.5329 L690.7377,333.0488 L700.6721,333.8964 L710.6066,333.4313 L720.541,333.4887 L730.4754,333.9091 L740.4098,333.0782 L750.3443,334.7382 L760.2787,333.1596 L770.2131,333.7363 L780.1475,334.5759 L790.082,333.8856 L800.0164,334.091 L809.9508,333.9574 L819.8852,334.238 L829.8197,334.3188 L839.7541,334.7809 L849.6885,334.8947 L859.623,334.9057 L869.5574,334.3395 L879.4918,334.6181 L889.4262,334.9363 L899.3607,333.0384 L909.2951,334.9047 L919.2295,333.6047 L929.1639,334.7117 L939.0984,333.34 L949.0328,333.9087 L958.9672,334.9888 L968.9016,333.935 L978.8361,334.1404 L988.7705,334.4515 L998.7049,334.555 L1008.6393,333.9948 L1018.5738,334.383 L1028.5082,333.2368 L1038.4426,334.3792 L1048.377,334.7309 L1058.3115,334.5927 L1068.2459,334.8174 L1078.1803,333.3559 L1088.1148,333.1304 L1098.0492,333.1715 L1107.9836,333.9215 L1117.918,333.738 L1127.8525,334.9085 L1137.7869,333.7671 L1147.7213,333.5426 L1157.6557,334.3044 L1167.5902,333.1109 L1177.5246,333.3078 L1187.459,334.8653 L1197.3934,334.5809 L1207.3279,334.9793 L1217.2623,333.5709 L1227.1967,334.4256 L1237.1311,334.7872 L1247.0656,333.3701 L1257,334 " fill="#FFFFFF" style="stroke:#000000;stroke-width:0.5;"/><text fill="#000000" font-family="sans-serif" font-size="14" lengthAdjust="spacing" textLength="202" x="656" y="352.5332">+ctor(p_nomFichierXML : string)</text><text fill="#000000" font-family="sans-serif" font-size="14" lengthAdjust="spacing" textLength="376" x="656" y="370.1426">+ObtenirClient(p_identifiantClient : Guid) : Client &#171;override&#187;</text><text fill="#000000" font-family="sans-serif" font-size="14" lengthAdjust="spacing" textLength="596" x="656" y="387.752">+ChercherClientsParNumeroTelephone(p_numeroTelephone : string) : List&lt;Client&gt; &#171;override&#187;</text><text fill="#000000" font-family="sans-serif" font-size="14" lengthAdjust="spacing" textLength="293" x="656" y="405.3613">+EnregistrerClient(p_client : Client) &#171;override&#187;</text></g><!--class DepotDonneesClientsFichierPlat--><g id="elem_DepotDonneesClientsFichierPlat"><polygon fill="#FFFFFF" points="1295.5,294,1295.5,294.2102,1305.55,293.5857,1315.6,294.1933,1325.65,294.3997,1335.7,293.2866,1345.75,293.9223,1355.8,293.5735,1365.85,293.6165,1375.9,293.9318,1385.95,293.3086,1396,294.5536,1406.05,293.3697,1416.1,293.8022,1426.15,294.4319,1436.2,293.9142,1446.25,294.0682,1456.3,293.9681,1466.35,294.1785,1476.4,294.2391,1486.45,294.5857,1496.5,294.6711,1506.55,294.6793,1516.6,294.2546,1526.65,294.4636,1536.7,294.7022,1546.75,293.2788,1556.8,294.6785,1566.85,293.7035,1576.9,294.5338,1586.95,293.505,1597,293.9315,1607.05,294.7416,1617.1,293.9513,1627.15,294.1053,1637.2,294.3386,1647.25,294.4162,1657.3,293.9961,1667.35,294.2872,1677.4,293.4276,1687.45,294.2844,1697.5,294.5482,1707.55,294.4445,1717.6,294.613,1727.65,293.5169,1737.7,293.3478,1747.75,293.3786,1757.8,293.9411,1767.85,293.8035,1777.9,294.6814,1787.95,293.8253,1798,293.6569,1808.05,294.2283,1818.1,293.3332,1828.15,293.4809,1838.2,294.649,1848.25,294.4357,1858.3,294.7345,1868.35,293.6782,1878.4,294.3192,1888.45,294.5904,1898.5,294,1898.4397,293.8545,1898.8413,294.1169,1899.2232,294.3317,1899.6438,294.6401,1899.9137,294.5845,1900.2678,294.7322,1900.4102,294.7912,1900.2437,295.0151,1900.3521,295.3529,1900.8622,295.8571,1900.6328,296.055,1901,296.5,1901.509,296.5,1901.2066,306.8125,1900.7321,317.125,1900.6462,327.4375,1901.4588,337.75,1900.7007,348.0625,1901.5919,358.375,1900.4473,368.6875,1901.6174,379,1901.4843,389.3125,1901.245,399.625,1901,409.9375,1901.0145,409.9435,1901.0773,410.3837,1900.8961,410.7229,1900.6128,411.0198,1900.4968,411.3859,1900.2678,411.7053,1900.2512,411.6652,1900.0056,412.0724,1899.5804,412.0459,1899.2291,412.1978,1898.776,412.1037,1898.5,412.4375,1898.5,412.0323,1888.45,412.9682,1878.4,412.8673,1868.35,412.3946,1858.3,412.1153,1848.25,412.2186,1838.2,411.7513,1828.15,412.8522,1818.1,413.1771,1808.05,412.9639,1798,413.1324,1787.95,412.3008,1777.9,412.5247,1767.85,412.0499,1757.8,412.7215,1747.75,412.6843,1737.7,412.9899,1727.65,412.2078,1717.6,412.3031,1707.55,412.881,1697.5,413.0048,1687.45,411.925,1677.4,412.2436,1667.35,412.5868,1657.3,411.8267,1647.25,412.7909,1637.2,412.6955,1627.15,412.3367,1617.1,412.5797,1607.05,413.1662,1597,412.1246,1586.95,412.7525,1576.9,412.7231,1566.85,412.5533,1556.8,412.5784,1546.75,412.551,1536.7,411.8133,1526.65,412.0367,1516.6,411.976,1506.55,412.5013,1496.5,412.5256,1486.45,412.5992,1476.4,412.1465,1466.35,412.37,1456.3,412.3173,1446.25,413.0144,1436.2,412.8641,1426.15,411.952,1416.1,412.3646,1406.05,411.8603,1396,412.7259,1385.95,413.046,1375.9,412.9821,1365.85,412.0019,1355.8,412.9015,1345.75,411.6947,1335.7,412.6377,1325.65,412.1382,1315.6,412.5342,1305.55,412.6778,1295.5,412.4375,1295.5602,412.5829,1295.0546,412.0693,1294.8535,412.291,1294.4621,412.053,1294.1311,411.9611,1293.7322,411.7053,1293.9625,411.8007,1293.5875,411.3524,1293.4933,411.0205,1293.3586,410.6718,1293.2072,410.3162,1293,409.9375,1292.9992,409.9375,1293.7107,399.625,1292.3903,389.3125,1293.5653,379,1292.376,368.6875,1292.4597,358.375,1293.04,348.0625,1293.0283,337.75,1292.5072,327.4375,1293.4137,317.125,1293.1089,306.8125,1293,296.5,1293.2238,296.5927,1293.3519,296.2315,1293.1548,295.7357,1293.3168,295.3886,1293.546,295.0693,1293.7322,294.7322,1293.7776,294.8417,1294.1372,294.7099,1294.4778,294.5321,1294.7493,294.1876,1295.2276,294.3424,1295.5,294" style="stroke:#000000;stroke-width:0.5;"/><polygon fill="#ADD1B2" points="1501.3108,312.6756,1499.6984,314.8788,1497.7912,318.1057,1495.0636,320.2804,1492.1974,321.4696,1489.912,321.5728,1486.9747,320.0855,1484.2032,319.1139,1482.0995,317.1412,1480.9961,314.8828,1480.3417,313.0845,1479.7006,310.7357,1478.66,308.7145,1479.4596,306.741,1480.1602,304.5792,1482.7893,302.8695,1484.639,300.6511,1486.9284,299.9144,1489.6501,299.2801,1493.1404,299.657,1495.0521,300.5585,1497.2747,300.9672,1499.9772,303.736,1500.9193,306.659,1501.3286,308.6534,1500.865,311.9399" style="stroke:#181818;stroke-width:1.0;"/><path d="M1493.0156,305.875 Q1493.1719,305.6563 1493.3594,305.5469 Q1493.5469,305.4375 1493.7656,305.4375 Q1494.1406,305.4375 1494.375,305.6953 Q1494.6094,305.9531 1494.6094,306.5625 L1494.6094,308.0156 Q1494.6094,308.625 1494.375,308.8906 Q1494.1406,309.1563 1493.7656,309.1563 Q1493.4219,309.1563 1493.2188,308.9531 Q1493.0156,308.7656 1492.9063,308.25 Q1492.8594,307.8906 1492.6719,307.7031 Q1492.3438,307.3281 1491.7344,307.1094 Q1491.125,306.8906 1490.5,306.8906 Q1489.7344,306.8906 1489.1016,307.2188 Q1488.4688,307.5469 1487.9766,308.2969 Q1487.4844,309.0469 1487.4844,310.0781 L1487.4844,311.1719 Q1487.4844,312.4063 1488.375,313.2266 Q1489.2656,314.0469 1490.8594,314.0469 Q1491.7969,314.0469 1492.4531,313.7969 Q1492.8438,313.6406 1493.2656,313.2031 Q1493.5313,312.9375 1493.6797,312.8594 Q1493.8281,312.7813 1494.0313,312.7813 Q1494.3594,312.7813 1494.6172,313.0391 Q1494.875,313.2969 1494.875,313.6406 Q1494.875,313.9844 1494.5313,314.3906 Q1494.0313,314.9688 1493.2344,315.2969 Q1492.1563,315.75 1490.8594,315.75 Q1489.3438,315.75 1488.1406,315.125 Q1487.1563,314.625 1486.4688,313.5547 Q1485.7813,312.4844 1485.7813,311.2031 L1485.7813,310.0469 Q1485.7813,308.7188 1486.3984,307.5703 Q1487.0156,306.4219 1488.1094,305.8047 Q1489.2031,305.1875 1490.4375,305.1875 Q1491.1719,305.1875 1491.8203,305.3516 Q1492.4688,305.5156 1493.0156,305.875 Z " fill="#000000"/><text fill="#000000" font-family="sans-serif" font-size="14" lengthAdjust="spacing" textLength="205" x="1510.75" y="315.7285">DepotDonneesClientsFichierPlat</text><path d="M1294,326 L1294,326.2802 L1303.9344,325.4476 L1313.8689,326.2577 L1323.8033,326.5329 L1333.7377,325.0488 L1343.6721,325.8964 L1353.6066,325.4313 L1363.541,325.4887 L1373.4754,325.9091 L1383.4098,325.0782 L1393.3443,326.7382 L1403.2787,325.1596 L1413.2131,325.7363 L1423.1475,326.5759 L1433.082,325.8856 L1443.0164,326.091 L1452.9508,325.9574 L1462.8852,326.238 L1472.8197,326.3188 L1482.7541,326.7809 L1492.6885,326.8947 L1502.623,326.9057 L1512.5574,326.3395 L1522.4918,326.6181 L1532.4262,326.9363 L1542.3607,325.0384 L1552.2951,326.9047 L1562.2295,325.6047 L1572.1639,326.7117 L1582.0984,325.34 L1592.0328,325.9087 L1601.9672,326.9888 L1611.9016,325.935 L1621.8361,326.1404 L1631.7705,326.4515 L1641.7049,326.555 L1651.6393,325.9948 L1661.5738,326.383 L1671.5082,325.2368 L1681.4426,326.3792 L1691.377,326.7309 L1701.3115,326.5927 L1711.2459,326.8174 L1721.1803,325.3559 L1731.1148,325.1304 L1741.0492,325.1715 L1750.9836,325.9215 L1760.918,325.738 L1770.8525,326.9085 L1780.7869,325.7671 L1790.7213,325.5426 L1800.6557,326.3044 L1810.5902,325.1109 L1820.5246,325.3078 L1830.459,326.8653 L1840.3934,326.5809 L1850.3279,326.9793 L1860.2623,325.5709 L1870.1967,326.4256 L1880.1311,326.7872 L1890.0656,325.3701 L1900,326 " fill="#FFFFFF" style="stroke:#000000;stroke-width:0.5;"/><path d="M1294,334 L1294,334.2802 L1303.9344,333.4476 L1313.8689,334.2577 L1323.8033,334.5329 L1333.7377,333.0488 L1343.6721,333.8964 L1353.6066,333.4313 L1363.541,333.4887 L1373.4754,333.9091 L1383.4098,333.0782 L1393.3443,334.7382 L1403.2787,333.1596 L1413.2131,333.7363 L1423.1475,334.5759 L1433.082,333.8856 L1443.0164,334.091 L1452.9508,333.9574 L1462.8852,334.238 L1472.8197,334.3188 L1482.7541,334.7809 L1492.6885,334.8947 L1502.623,334.9057 L1512.5574,334.3395 L1522.4918,334.6181 L1532.4262,334.9363 L1542.3607,333.0384 L1552.2951,334.9047 L1562.2295,333.6047 L1572.1639,334.7117 L1582.0984,333.34 L1592.0328,333.9087 L1601.9672,334.9888 L1611.9016,333.935 L1621.8361,334.1404 L1631.7705,334.4515 L1641.7049,334.555 L1651.6393,333.9948 L1661.5738,334.383 L1671.5082,333.2368 L1681.4426,334.3792 L1691.377,334.7309 L1701.3115,334.5927 L1711.2459,334.8174 L1721.1803,333.3559 L1731.1148,333.1304 L1741.0492,333.1715 L1750.9836,333.9215 L1760.918,333.738 L1770.8525,334.9085 L1780.7869,333.7671 L1790.7213,333.5426 L1800.6557,334.3044 L1810.5902,333.1109 L1820.5246,333.3078 L1830.459,334.8653 L1840.3934,334.5809 L1850.3279,334.9793 L1860.2623,333.5709 L1870.1967,334.4256 L1880.1311,334.7872 L1890.0656,333.3701 L1900,334 " fill="#FFFFFF" style="stroke:#000000;stroke-width:0.5;"/><text fill="#000000" font-family="sans-serif" font-size="14" lengthAdjust="spacing" textLength="242" x="1299" y="352.5332">+ctor(p_nomFichierFichierPlat : string)</text><text fill="#000000" font-family="sans-serif" font-size="14" lengthAdjust="spacing" textLength="376" x="1299" y="370.1426">+ObtenirClient(p_identifiantClient : Guid) : Client &#171;override&#187;</text><text fill="#000000" font-family="sans-serif" font-size="14" lengthAdjust="spacing" textLength="596" x="1299" y="387.752">+ChercherClientsParNumeroTelephone(p_numeroTelephone : string) : List&lt;Client&gt; &#171;override&#187;</text><text fill="#000000" font-family="sans-serif" font-size="14" lengthAdjust="spacing" textLength="293" x="1299" y="405.3613">+EnregistrerClient(p_client : Client) &#171;override&#187;</text></g><!--class SousProgramme--><g id="elem_SousProgramme"><polygon fill="#FFFFFF" points="888,7,888,7.2102,898.1538,6.5857,908.3077,7.1933,918.4615,7.3997,928.6154,6.2866,938.7692,6.9223,948.9231,6.5735,959.0769,6.6165,969.2308,6.9318,979.3846,6.3086,989.5385,7.5536,999.6923,6.3697,1009.8462,6.8022,1020,7,1020.0551,7.133,1020.3426,7.12,1020.7158,7.3139,1021.0566,7.4295,1021.437,7.6408,1021.7678,7.7322,1021.8414,7.7627,1022.0946,8.1605,1022.2673,8.5249,1022.4163,8.8795,1022.432,9.1789,1022.5,9.5,1022.9636,9.5,1023.2022,19.6016,1021.7788,29.7031,1023.1785,39.8047,1022.2035,49.9063,1023.0338,60.0078,1022.5,70.1094,1022.3476,70.0462,1022.3325,70.4542,1022.4355,70.9111,1022.0457,71.1638,1021.9466,71.537,1021.7678,71.8771,1021.811,71.9814,1021.4673,72.1518,1021.0602,72.1688,1020.7437,72.4049,1020.2805,72.2866,1020,72.6094,1020,72.8938,1009.8462,73.1576,999.6923,73.0539,989.5385,73.2224,979.3846,72.1263,969.2308,71.9572,959.0769,71.988,948.9231,72.5505,938.7692,72.4128,928.6154,73.2908,918.4615,72.4347,908.3077,72.2663,898.1538,72.8376,888,72.6094,887.9149,72.404,887.5802,72.3031,887.3757,72.5163,886.9949,72.3042,886.6795,72.2498,886.2322,71.8771,886.1331,71.8361,886.1841,71.5643,886.1212,71.2453,885.6474,70.7562,885.6169,70.4507,885.5,70.1094,885.626,70.1094,886.1518,60.0078,885.4958,49.9063,885.9626,39.8047,884.9462,29.7031,884.8227,19.6016,885.5,9.5,885.6551,9.5642,885.4257,9.055,885.9496,8.8578,886.003,8.4657,886.0033,8.0516,886.2322,7.7322,886.1871,7.6233,886.6443,7.7271,886.9012,7.3472,887.3684,7.4752,887.5759,6.9762,888,7" style="stroke:#000000;stroke-width:0.5;"/><polygon fill="#ADD1B2" points="911.5608,25.6756,909.9484,27.8788,908.0412,31.1057,905.3136,33.2804,902.4474,34.4696,900.162,34.5728,897.2247,33.0855,894.4532,32.1139,892.3495,30.1412,891.2461,27.8828,890.5917,26.0845,889.9506,23.7357,888.91,21.7145,889.7096,19.741,890.4102,17.5792,893.0393,15.8695,894.889,13.6511,897.1784,12.9144,899.9001,12.2801,903.3904,12.657,905.3021,13.5585,907.5247,13.9672,910.2272,16.736,911.1693,19.659,911.5786,21.6534,911.115,24.9399" style="stroke:#181818;stroke-width:1.0;"/><path d="M903.2656,18.875 Q903.4219,18.6563 903.6094,18.5469 Q903.7969,18.4375 904.0156,18.4375 Q904.3906,18.4375 904.625,18.6953 Q904.8594,18.9531 904.8594,19.5625 L904.8594,21.0156 Q904.8594,21.625 904.625,21.8906 Q904.3906,22.1563 904.0156,22.1563 Q903.6719,22.1563 903.4688,21.9531 Q903.2656,21.7656 903.1563,21.25 Q903.1094,20.8906 902.9219,20.7031 Q902.5938,20.3281 901.9844,20.1094 Q901.375,19.8906 900.75,19.8906 Q899.9844,19.8906 899.3516,20.2188 Q898.7188,20.5469 898.2266,21.2969 Q897.7344,22.0469 897.7344,23.0781 L897.7344,24.1719 Q897.7344,25.4063 898.625,26.2266 Q899.5156,27.0469 901.1094,27.0469 Q902.0469,27.0469 902.7031,26.7969 Q903.0938,26.6406 903.5156,26.2031 Q903.7813,25.9375 903.9297,25.8594 Q904.0781,25.7813 904.2813,25.7813 Q904.6094,25.7813 904.8672,26.0391 Q905.125,26.2969 905.125,26.6406 Q905.125,26.9844 904.7813,27.3906 Q904.2813,27.9688 903.4844,28.2969 Q902.4063,28.75 901.1094,28.75 Q899.5938,28.75 898.3906,28.125 Q897.4063,27.625 896.7188,26.5547 Q896.0313,25.4844 896.0313,24.2031 L896.0313,23.0469 Q896.0313,21.7188 896.6484,20.5703 Q897.2656,19.4219 898.3594,18.8047 Q899.4531,18.1875 900.6875,18.1875 Q901.4219,18.1875 902.0703,18.3516 Q902.7188,18.5156 903.2656,18.875 Z " fill="#000000"/><text fill="#000000" font-family="sans-serif" font-size="14" lengthAdjust="spacing" textLength="105" x="914.5" y="28.7285">SousProgramme</text><path d="M886.5,39 L886.5,39.2802 L896.1429,38.4476 L905.7857,39.2577 L915.4286,39.5329 L925.0714,38.0488 L934.7143,38.8964 L944.3571,38.4313 L954,38.4887 L963.6429,38.9091 L973.2857,38.0782 L982.9286,39.7382 L992.5714,38.1596 L1002.2143,38.7363 L1011.8571,39.5759 L1021.5,39 " fill="#FFFFFF" style="stroke:#000000;stroke-width:0.5;"/><path d="M886.5,47 L886.5,47.2802 L896.1429,46.4476 L905.7857,47.2577 L915.4286,47.5329 L925.0714,46.0488 L934.7143,46.8964 L944.3571,46.4313 L954,46.4887 L963.6429,46.9091 L973.2857,46.0782 L982.9286,47.7382 L992.5714,46.1596 L1002.2143,46.7363 L1011.8571,47.5759 L1021.5,47 " fill="#FFFFFF" style="stroke:#000000;stroke-width:0.5;"/><text fill="#000000" font-family="sans-serif" font-size="14" lengthAdjust="spacing" textLength="30" x="891.5" y="65.5332">[...]()</text></g><!--reverse link DepotDonneesClients to DepotDonneesClientsMariaDb--><g id="link_DepotDonneesClients_DepotDonneesClientsMariaDb"><path d="M746.2713,238.6174 L746.3419,238.8886 L736.4683,240.6002 L727.0089,243.9016 L717.4145,246.6853 L707.3767,247.7665 L697.9267,251.1041 L688.1458,253.1715 L678.4965,255.7443 L668.9388,258.6686 L659.0656,260.3819 L649.8204,264.5057 L639.7588,265.4955 L630.2405,268.5709 L620.7884,271.9008 L610.9507,273.7502 L601.3388,276.4663 L591.6414,278.8544 L582.0485,281.6434 L572.4052,284.239 L562.8579,287.2035 L553.2229,289.8311 L543.562,292.359 L533.67,294 " fill="none" style="stroke:#181818;stroke-width:1.0;stroke-dasharray:7.0,7.0;"/><polygon fill="none" points="763.69,234.08,763.6947,234.1499,759.8945,233.6884,756.1218,233.6368,752.3402,233.4516,748.5291,232.8277,744.7588,232.8112,744.7337,232.8046,745.2262,235.0978,745.8451,237.4239,746.5518,239.7729,746.9557,242.0431,747.7837,244.4236,747.8844,244.5784,750.8505,242.1788,754.1103,240.2309,757.406,238.3382,760.4932,236.1248,763.69,234.08" style="stroke:#181818;stroke-width:1.0;"/></g><!--reverse link DepotDonneesClients to DepotDonneesClientsXML--><g id="link_DepotDonneesClients_DepotDonneesClientsXML"><path d="M954,252.3 L954.0934,252.3 L953.8159,260.608 L954.0859,268.916 L954.1776,277.224 L953.6829,285.532 L954,293.84 " fill="none" style="stroke:#181818;stroke-width:1.0;stroke-dasharray:7.0,7.0;"/><polygon fill="none" points="954,234.3,954.0665,234.3222,952.669,237.8563,951.6611,241.5204,950.5264,245.1421,948.9744,248.6248,948,252.3,948,252.2741,950.4,252.1578,952.8,252.1722,955.2,252.2773,957.6,252.0695,960,252.3,960.1751,252.3584,958.6007,248.6336,957.5375,245.0792,956.5366,241.5455,955.1729,237.891,954,234.3" style="stroke:#181818;stroke-width:1.0;"/></g><!--reverse link DepotDonneesClients to DepotDonneesClientsFichierPlat--><g id="link_DepotDonneesClients_DepotDonneesClientsFichierPlat"><path d="M1161.7287,238.6174 L1161.7994,238.8886 L1171.2532,240.6002 L1181.1211,243.9016 L1190.8541,246.6853 L1200.1437,247.7665 L1210.0211,251.1041 L1219.5675,253.1715 L1229.2457,255.7443 L1239.0154,258.6686 L1248.4696,260.3819 L1258.5518,264.5057 L1267.8175,265.4955 L1277.6266,268.5709 L1287.5019,271.9008 L1296.9916,273.7502 L1306.7071,276.4663 L1316.3371,278.8544 L1326.0715,281.6434 L1335.7556,284.239 L1345.5358,287.2035 L1355.2282,289.8311 L1364.8946,292.359 L1374.33,294 " fill="none" style="stroke:#181818;stroke-width:1.0;stroke-dasharray:7.0,7.0;"/><polygon fill="none" points="1144.31,234.08,1144.3482,234.1387,1147.416,236.033,1150.7076,238.2715,1153.9264,240.3979,1156.9054,242.1556,1160.2163,244.4236,1160.1912,244.4171,1160.6837,242.0653,1161.3025,239.7464,1162.0092,237.4504,1162.4132,235.0756,1163.2412,232.8112,1163.2535,232.9953,1159.4409,232.8553,1155.6643,233.2529,1151.8921,233.7161,1148.0943,233.7977,1144.31,234.08" style="stroke:#181818;stroke-width:1.0;"/></g><!--link SousProgramme to DepotDonneesClients--><g id="link_SousProgramme_DepotDonneesClients"><path d="M954,73.11 L954.2802,73.11 L953.4476,83.838 L954.2577,94.566 L954.5329,105.294 L953.0488,116.022 L954,126.75 " fill="none" style="stroke:#181818;stroke-width:1.0;stroke-dasharray:7.0,7.0;"/><polygon fill="#181818" points="954,132.75,954.064,132.7785,954.6738,130.8939,955.6589,129.1762,956.5217,127.4041,956.9827,125.4534,958,123.75,957.9817,123.7317,957.0995,124.4495,956.3096,125.2596,955.5839,126.1339,954.637,126.787,954,127.75,954.1305,127.8805,953.0514,126.8014,952.3534,126.1034,951.7018,125.4518,950.7798,124.5298,950,123.75,950.0208,123.7592,950.7903,125.5457,951.6544,127.3742,952.4728,129.1824,953.3784,131.0293,954,132.75" style="stroke:#181818;stroke-width:1.0;"/></g><!--SRC=[xPFTIiD048NlzoaMl6aHGgwb53HL4LejL50GaSrccWnDPyliHiNQTtTZqfzeArRmIWDXOUQSmyoNZPqWpHIhgTIvilROESQuS72X3Otm1MGex4gIAKgU69q3aeuBs6Yzk-LSIF-SA3r9sHIKH2OtB6yoT51r32V0LVKW34En4A87C-DwXWZ0HZa2EIixhq4WjpG6Yb7ruhqyjuF-Nlepr1a23tFbX10ZKzWXczJlE0KP1Drj5Y6gzPlY2iPT40JthNQvAP837YiDsp9g-Q6yYZrUvAhScZrWuaySeo9NrUIHF2ymQVkpBinLR1qhxHPrHfG1Q__MsKF5byKKs5n33hFC4FXSQbPyciz0IilSFbhNgSpTp-cdn91w1SDwIhqShQgqDrsB9P_TNtIrlNQ6oxXC8K5KIf_Hq7gudqFgTCmZC7jbj_iRcBRaVmjKm_SLAd-HFs8YCwslQzdyXzJuUtV3sXJz7MXl]--></g></svg>