<?xml version="1.0" encoding="UTF-8" standalone="no"?><svg xmlns="http://www.w3.org/2000/svg" xmlns:xlink="http://www.w3.org/1999/xlink" contentScriptType="application/ecmascript" contentStyleType="text/css" height="205px" preserveAspectRatio="none" style="width:164px;height:205px;" version="1.1" viewBox="0 0 164 205" width="164px" zoomAndPan="magnify"><defs><filter height="300%" id="f1uv2gry544t29" width="300%" x="-1" y="-1"><feGaussianBlur result="blurOut" stdDeviation="2.0"/><feColorMatrix in="blurOut" result="blurOut2" type="matrix" values="0 0 0 0 0 0 0 0 0 0 0 0 0 0 0 0 0 0 .4 0"/><feOffset dx="4.0" dy="4.0" in="blurOut2" result="blurOut3"/><feBlend in="SourceGraphic" in2="blurOut3" mode="normal"/></filter></defs><g><!--class MatchSoccer--><rect fill="#FFFFFF" filter="url(#f1uv2gry544t29)" height="60.9551" id="MatchSoccer" style="stroke: #000000; stroke-width: 1.5;" width="114" x="6" y="8"/><ellipse cx="25.95" cy="24" fill="#ADD1B2" rx="11" ry="11" style="stroke: #000000; stroke-width: 1.0;"/><path d="M28.4231,30.1431 Q27.8421,30.4419 27.2029,30.5913 Q26.5638,30.7407 25.8582,30.7407 Q23.3514,30.7407 22.0315,29.0889 Q20.7117,27.437 20.7117,24.3159 Q20.7117,21.1865 22.0315,19.5347 Q23.3514,17.8828 25.8582,17.8828 Q26.5638,17.8828 27.2112,18.0322 Q27.8587,18.1816 28.4231,18.4805 L28.4231,21.2031 Q27.7923,20.6221 27.1988,20.3523 Q26.6053,20.0825 25.9744,20.0825 Q24.6297,20.0825 23.9449,21.1492 Q23.2601,22.2158 23.2601,24.3159 Q23.2601,26.4077 23.9449,27.4744 Q24.6297,28.541 25.9744,28.541 Q26.6053,28.541 27.1988,28.2712 Q27.7923,28.0015 28.4231,27.4204 Z "/><text fill="#000000" font-family="sans-serif" font-size="12" lengthAdjust="spacingAndGlyphs" textLength="71" x="41.05" y="28.5352">MatchSoccer</text><line style="stroke: #000000; stroke-width: 1.5;" x1="7" x2="119" y1="40" y2="40"/><text fill="#000000" font-family="sans-serif" font-size="11" lengthAdjust="spacingAndGlyphs" textLength="102" x="12" y="54.6348">-m_arbitre: Arbitre</text><line style="stroke: #000000; stroke-width: 1.5;" x1="7" x2="119" y1="60.9551" y2="60.9551"/><!--class Arbitre--><rect fill="#FFFFFF" filter="url(#f1uv2gry544t29)" height="48" id="Arbitre" style="stroke: #000000; stroke-width: 1.5;" width="72" x="27" y="146"/><ellipse cx="42" cy="162" fill="#ADD1B2" rx="11" ry="11" style="stroke: #000000; stroke-width: 1.0;"/><path d="M44.4731,168.1431 Q43.8921,168.4419 43.2529,168.5913 Q42.6138,168.7407 41.9082,168.7407 Q39.4014,168.7407 38.0815,167.0889 Q36.7617,165.437 36.7617,162.3159 Q36.7617,159.1865 38.0815,157.5347 Q39.4014,155.8828 41.9082,155.8828 Q42.6138,155.8828 43.2612,156.0322 Q43.9087,156.1816 44.4731,156.4805 L44.4731,159.2031 Q43.8423,158.6221 43.2488,158.3523 Q42.6553,158.0825 42.0244,158.0825 Q40.6797,158.0825 39.9949,159.1492 Q39.3101,160.2158 39.3101,162.3159 Q39.3101,164.4077 39.9949,165.4744 Q40.6797,166.541 42.0244,166.541 Q42.6553,166.541 43.2488,166.2712 Q43.8423,166.0015 44.4731,165.4204 Z "/><text fill="#000000" font-family="sans-serif" font-size="12" lengthAdjust="spacingAndGlyphs" textLength="40" x="56" y="166.5352">Arbitre</text><line style="stroke: #000000; stroke-width: 1.5;" x1="28" x2="98" y1="178" y2="178"/><line style="stroke: #000000; stroke-width: 1.5;" x1="28" x2="98" y1="186" y2="186"/><!--link MatchSoccer to Arbitre--><path d="M63,69.21 C63,90.69 63,119.53 63,140.68 " fill="none" id="MatchSoccer-&gt;Arbitre" style="stroke: #A80036; stroke-width: 1.0;"/><polygon fill="#A80036" points="63,145.88,67,136.88,63,140.88,59,136.88,63,145.88" style="stroke: #A80036; stroke-width: 1.0;"/><text fill="#000000" font-family="sans-serif" font-size="13" lengthAdjust="spacingAndGlyphs" textLength="88" x="64" y="112.5684">est arbitré par</text><text fill="#000000" font-family="sans-serif" font-size="13" lengthAdjust="spacingAndGlyphs" textLength="6" x="56.3813" y="89.6958">*</text><text fill="#000000" font-family="sans-serif" font-size="13" lengthAdjust="spacingAndGlyphs" textLength="8" x="53.975" y="135.3855">1</text><!--
@startuml MatchSoccerAssociationDirigee
skinparam classAttributeIconSize 0
skinparam class {
    BackgroundColor White
    BorderColor #000
}

MatchSoccer "*" - -> "1" Arbitre : "est arbitré par"

class MatchSoccer {
    - m_arbitre: Arbitre
}
class Arbitre {
}
@enduml

PlantUML version 1.2019.09(Mon Aug 26 12:19:51 EDT 2019)
(GPL source distribution)
Java Runtime: OpenJDK Runtime Environment
JVM: OpenJDK 64-Bit Server VM
Java Version: 13.0.2+8
Operating System: Mac OS X
OS Version: 10.15.2
Default Encoding: UTF-8
Language: fr
Country: CA
--></g></svg>