<?xml version="1.0" encoding="UTF-8" standalone="no"?><svg xmlns="http://www.w3.org/2000/svg" xmlns:xlink="http://www.w3.org/1999/xlink" contentScriptType="application/ecmascript" contentStyleType="text/css" height="551px" preserveAspectRatio="none" style="width:253px;height:551px;" version="1.1" viewBox="0 0 253 551" width="253px" zoomAndPan="magnify"><defs><filter height="300%" id="fm6v992cgkgsv" width="300%" x="-1" y="-1"><feGaussianBlur result="blurOut" stdDeviation="2.0"/><feColorMatrix in="blurOut" result="blurOut2" type="matrix" values="0 0 0 0 0 0 0 0 0 0 0 0 0 0 0 0 0 0 .4 0"/><feOffset dx="4.0" dy="4.0" in="blurOut2" result="blurOut3"/><feBlend in="SourceGraphic" in2="blurOut3" mode="normal"/></filter></defs><g><!--class Test--><polygon fill="#FFFFFF" filter="url(#fm6v992cgkgsv)" points="118.5,8,118.5,8.2102,128.5,7.5857,138.5,8.1933,148.5,8.3997,158.5,7.2866,168.5,7.9223,178.5,7.5735,188.5,7.6165,198.5,7.9318,208.5,8,207.8086,8,209.0536,18.1592,207.8697,28.3184,208.3022,38.4775,208.9319,48.6367,208.4142,58.7959,208.5,68.9551,208.5,69.0233,198.5,68.9231,188.5,69.1336,178.5,69.1942,168.5,69.5408,158.5,69.6261,148.5,69.6343,138.5,69.2097,128.5,69.4187,118.5,68.9551,119.2022,68.9551,117.7788,58.7959,119.1785,48.6367,118.2035,38.4775,119.0338,28.3184,118.005,18.1592,118.5,8" style="stroke: #000000; stroke-width: 1.5;"/><polygon fill="#ADD1B2" points="159.4108,26.6756,157.7984,28.8788,155.8912,32.1057,153.1636,34.2804,150.2974,35.4696,148.012,35.5728,145.0747,34.0855,142.3032,33.1139,140.1995,31.1412,139.0961,28.8828,138.4417,27.0845,137.8006,24.7357,136.76,22.7145,137.5596,20.741,138.2602,18.5792,140.8893,16.8695,142.739,14.6511,145.0284,13.9144,147.7501,13.2801,151.2404,13.657,153.1521,14.5585,155.3747,14.9672,158.0772,17.736,159.0193,20.659,159.4286,22.6534,158.965,25.9399" style="stroke: #000000; stroke-width: 1.0;"/><path d="M150.8231,30.1431 Q150.2421,30.4419 149.6029,30.5913 Q148.9638,30.7407 148.2582,30.7407 Q145.7514,30.7407 144.4315,29.0889 Q143.1117,27.437 143.1117,24.3159 Q143.1117,21.1865 144.4315,19.5347 Q145.7514,17.8828 148.2582,17.8828 Q148.9638,17.8828 149.6112,18.0322 Q150.2587,18.1816 150.8231,18.4805 L150.8231,21.2031 Q150.1923,20.6221 149.5988,20.3523 Q149.0053,20.0825 148.3744,20.0825 Q147.0297,20.0825 146.3449,21.1492 Q145.6601,22.2158 145.6601,24.3159 Q145.6601,26.4077 146.3449,27.4744 Q147.0297,28.541 148.3744,28.541 Q149.0053,28.541 149.5988,28.2712 Q150.1923,28.0015 150.8231,27.4204 Z "/><text fill="#000000" font-family="sans-serif" font-size="12" lengthAdjust="spacingAndGlyphs" textLength="25" x="165.65" y="28.5352">Test</text><path d="M119.5,40 L119.5,40.2802 L129.2778,39.4476 L139.0556,40.2577 L148.8333,40.5329 L158.6111,39.0488 L168.3889,39.8964 L178.1667,39.4313 L187.9444,39.4887 L197.7222,39.9091 L207.5,40 " fill="#FFFFFF" style="stroke: #000000; stroke-width: 1.5;"/><path d="M119.5,48 L119.5,48.2802 L129.2778,47.4476 L139.0556,48.2577 L148.8333,48.5329 L158.6111,47.0488 L168.3889,47.8964 L178.1667,47.4313 L187.9444,47.4887 L197.7222,47.9091 L207.5,48 " fill="#FFFFFF" style="stroke: #000000; stroke-width: 1.5;"/><text fill="#000000" font-family="sans-serif" font-size="11" lengthAdjust="spacingAndGlyphs" textLength="78" x="124.5" y="62.6348">+Truc(p_x : X)</text><!--class X--><polygon fill="#FFFFFF" filter="url(#fm6v992cgkgsv)" points="6,129,6,129.2102,15.8571,128.5857,25.7143,129.1933,35.5714,129.3997,45.4286,128.2866,55.2857,128.9223,65.1429,128.5735,75,129,74.6165,129,74.9318,139.1592,74.3086,149.3184,75.5536,159.4775,74.3697,169.6367,74.8022,179.7959,75,189.9551,75,190.387,65.1429,189.8693,55.2857,190.0233,45.4286,189.9231,35.5714,190.1336,25.7143,190.1942,15.8571,190.5408,6,189.9551,6.6711,189.9551,6.6793,179.7959,6.2546,169.6367,6.4636,159.4775,6.7022,149.3184,5.2788,139.1592,6,129" style="stroke: #000000; stroke-width: 1.5;"/><polygon fill="#ADD1B2" points="45.1108,147.6756,43.4984,149.8788,41.5912,153.1057,38.8636,155.2804,35.9974,156.4696,33.712,156.5728,30.7747,155.0855,28.0032,154.1139,25.8995,152.1412,24.7961,149.8828,24.1417,148.0845,23.5006,145.7357,22.46,143.7145,23.2596,141.741,23.9602,139.5792,26.5893,137.8695,28.439,135.6511,30.7284,134.9144,33.4501,134.2801,36.9404,134.657,38.8521,135.5585,41.0747,135.9672,43.7772,138.736,44.7193,141.659,45.1286,143.6534,44.665,146.9399" style="stroke: #000000; stroke-width: 1.0;"/><path d="M36.5231,151.1431 Q35.9421,151.4419 35.3029,151.5913 Q34.6638,151.7407 33.9582,151.7407 Q31.4514,151.7407 30.1315,150.0889 Q28.8117,148.437 28.8117,145.3159 Q28.8117,142.1865 30.1315,140.5347 Q31.4514,138.8828 33.9582,138.8828 Q34.6638,138.8828 35.3112,139.0322 Q35.9587,139.1816 36.5231,139.4805 L36.5231,142.2031 Q35.8923,141.6221 35.2988,141.3523 Q34.7053,141.0825 34.0744,141.0825 Q32.7297,141.0825 32.0449,142.1492 Q31.3601,143.2158 31.3601,145.3159 Q31.3601,147.4077 32.0449,148.4744 Q32.7297,149.541 34.0744,149.541 Q34.7053,149.541 35.2988,149.2712 Q35.8923,149.0015 36.5231,148.4204 Z "/><text fill="#000000" font-family="sans-serif" font-size="12" lengthAdjust="spacingAndGlyphs" textLength="8" x="50.95" y="149.5352">X</text><path d="M7,161 L7,161.2802 L16.5714,160.4476 L26.1429,161.2577 L35.7143,161.5329 L45.2857,160.0488 L54.8571,160.8964 L64.4286,160.4313 L74,161 " fill="#FFFFFF" style="stroke: #000000; stroke-width: 1.5;"/><path d="M7,169 L7,169.2802 L16.5714,168.4476 L26.1429,169.2577 L35.7143,169.5329 L45.2857,168.0488 L54.8571,168.8964 L64.4286,168.4313 L74,169 " fill="#FFFFFF" style="stroke: #000000; stroke-width: 1.5;"/><text fill="#000000" font-family="sans-serif" font-size="11" lengthAdjust="spacingAndGlyphs" textLength="57" x="12" y="183.6348">+getY() : Y</text><!--class A--><polygon fill="#FFFFFF" filter="url(#fm6v992cgkgsv)" points="200.5,492,200.5,492.0701,208.5,491.8619,216.5,492.0644,224.5,492.1332,232.5,491.7622,240.5,492,240.4223,492,240.0735,501.6,240.1165,511.2,240.4318,520.8,239.8086,530.4,240.5,540,240.5,540.1845,232.5,539.7899,224.5,539.9341,216.5,540.144,208.5,539.9714,200.5,540,200.5682,540,200.4681,530.4,200.6785,520.8,200.7391,511.2,201.0857,501.6,200.5,492" style="stroke: #000000; stroke-width: 1.5;"/><polygon fill="#ADD1B2" points="226.5608,510.6756,224.9484,512.8788,223.0412,516.1057,220.3136,518.2804,217.4474,519.4696,215.162,519.5728,212.2247,518.0855,209.4532,517.1139,207.3495,515.1412,206.2461,512.8828,205.5917,511.0845,204.9506,508.7357,203.91,506.7145,204.7096,504.741,205.4102,502.5792,208.0393,500.8695,209.889,498.6511,212.1784,497.9144,214.9001,497.2801,218.3904,497.657,220.3021,498.5585,222.5247,498.9672,225.2272,501.736,226.1693,504.659,226.5786,506.6534,226.115,509.9399" style="stroke: #000000; stroke-width: 1.0;"/><path d="M217.9731,514.1431 Q217.3921,514.4419 216.7529,514.5913 Q216.1138,514.7407 215.4082,514.7407 Q212.9014,514.7407 211.5815,513.0889 Q210.2617,511.437 210.2617,508.3159 Q210.2617,505.1865 211.5815,503.5347 Q212.9014,501.8828 215.4082,501.8828 Q216.1138,501.8828 216.7612,502.0322 Q217.4087,502.1816 217.9731,502.4805 L217.9731,505.2031 Q217.3423,504.6221 216.7488,504.3523 Q216.1553,504.0825 215.5244,504.0825 Q214.1797,504.0825 213.4949,505.1492 Q212.8101,506.2158 212.8101,508.3159 Q212.8101,510.4077 213.4949,511.4744 Q214.1797,512.541 215.5244,512.541 Q216.1553,512.541 216.7488,512.2712 Q217.3423,512.0015 217.9731,511.4204 Z "/><text fill="#000000" font-family="sans-serif" font-size="12" lengthAdjust="spacingAndGlyphs" textLength="8" x="229.5" y="512.5352">A</text><path d="M201.5,524 L201.5,524.0934 L209.1,523.8159 L216.7,524.0859 L224.3,524.1776 L231.9,523.6829 L239.5,524 " fill="#FFFFFF" style="stroke: #000000; stroke-width: 1.5;"/><path d="M201.5,532 L201.5,532.0934 L209.1,531.8159 L216.7,532.0859 L224.3,532.1776 L231.9,531.6829 L239.5,532 " fill="#FFFFFF" style="stroke: #000000; stroke-width: 1.5;"/><!--class Y--><polygon fill="#FFFFFF" filter="url(#fm6v992cgkgsv)" points="77,250,77,250.2102,86.8571,249.5857,96.7143,250.1933,106.5714,250.3997,116.4286,249.2866,126.2857,249.9223,136.1429,249.5735,146,250,145.6165,250,145.9318,260.1592,145.3086,270.3184,146.5536,280.4775,145.3697,290.6367,145.8022,300.7959,146,310.9551,146,311.387,136.1429,310.8693,126.2857,311.0233,116.4286,310.9231,106.5714,311.1336,96.7143,311.1942,86.8571,311.5408,77,310.9551,77.6711,310.9551,77.6793,300.7959,77.2546,290.6367,77.4636,280.4775,77.7022,270.3184,76.2788,260.1592,77,250" style="stroke: #000000; stroke-width: 1.5;"/><polygon fill="#ADD1B2" points="116.5608,268.6756,114.9484,270.8788,113.0412,274.1057,110.3136,276.2804,107.4474,277.4696,105.162,277.5728,102.2247,276.0855,99.4532,275.1139,97.3495,273.1412,96.2461,270.8828,95.5917,269.0845,94.9506,266.7357,93.91,264.7145,94.7096,262.741,95.4102,260.5792,98.0393,258.8695,99.889,256.6511,102.1784,255.9144,104.9001,255.2801,108.3904,255.657,110.3021,256.5585,112.5247,256.9672,115.2272,259.736,116.1693,262.659,116.5786,264.6534,116.115,267.9399" style="stroke: #000000; stroke-width: 1.0;"/><path d="M107.9731,272.1431 Q107.3921,272.4419 106.7529,272.5913 Q106.1138,272.7407 105.4082,272.7407 Q102.9014,272.7407 101.5815,271.0889 Q100.2617,269.437 100.2617,266.3159 Q100.2617,263.1865 101.5815,261.5347 Q102.9014,259.8828 105.4082,259.8828 Q106.1138,259.8828 106.7612,260.0322 Q107.4087,260.1816 107.9731,260.4805 L107.9731,263.2031 Q107.3423,262.6221 106.7488,262.3523 Q106.1553,262.0825 105.5244,262.0825 Q104.1797,262.0825 103.4949,263.1492 Q102.8101,264.2158 102.8101,266.3159 Q102.8101,268.4077 103.4949,269.4744 Q104.1797,270.541 105.5244,270.541 Q106.1553,270.541 106.7488,270.2712 Q107.3423,270.0015 107.9731,269.4204 Z "/><text fill="#000000" font-family="sans-serif" font-size="12" lengthAdjust="spacingAndGlyphs" textLength="7" x="122.5" y="270.5352">Y</text><path d="M78,282 L78,282.2802 L87.5714,281.4476 L97.1429,282.2577 L106.7143,282.5329 L116.2857,281.0488 L125.8571,281.8964 L135.4286,281.4313 L145,282 " fill="#FFFFFF" style="stroke: #000000; stroke-width: 1.5;"/><path d="M78,290 L78,290.2802 L87.5714,289.4476 L97.1429,290.2577 L106.7143,290.5329 L116.2857,289.0488 L125.8571,289.8964 L135.4286,289.4313 L145,290 " fill="#FFFFFF" style="stroke: #000000; stroke-width: 1.5;"/><text fill="#000000" font-family="sans-serif" font-size="11" lengthAdjust="spacingAndGlyphs" textLength="57" x="83" y="304.6348">+getZ() : Z</text><!--class Z--><polygon fill="#FFFFFF" filter="url(#fm6v992cgkgsv)" points="126,371,126,371.2102,136.1111,370.5857,146.2222,371.1933,156.3333,371.3997,166.4444,370.2866,176.5556,370.9223,186.6667,370.5735,196.7778,370.6165,206.8889,370.9318,217,371,216.3086,371,217.5536,381.1592,216.3697,391.3184,216.8022,401.4775,217.4319,411.6367,216.9142,421.7959,217,431.9551,217,432.0233,206.8889,431.9231,196.7778,432.1336,186.6667,432.1942,176.5556,432.5408,166.4444,432.6261,156.3333,432.6343,146.2222,432.2097,136.1111,432.4187,126,431.9551,126.7022,431.9551,125.2788,421.7959,126.6785,411.6367,125.7035,401.4775,126.5338,391.3184,125.505,381.1592,126,371" style="stroke: #000000; stroke-width: 1.5;"/><polygon fill="#ADD1B2" points="175.4608,389.6756,173.8484,391.8788,171.9412,395.1057,169.2136,397.2804,166.3474,398.4696,164.062,398.5728,161.1247,397.0855,158.3532,396.1139,156.2495,394.1412,155.1461,391.8828,154.4917,390.0845,153.8506,387.7357,152.81,385.7145,153.6096,383.741,154.3102,381.5792,156.9393,379.8695,158.789,377.6511,161.0784,376.9144,163.8001,376.2801,167.2904,376.657,169.2021,377.5585,171.4247,377.9672,174.1272,380.736,175.0693,383.659,175.4786,385.6534,175.015,388.9399" style="stroke: #000000; stroke-width: 1.0;"/><path d="M166.8731,393.1431 Q166.2921,393.4419 165.6529,393.5913 Q165.0138,393.7407 164.3082,393.7407 Q161.8014,393.7407 160.4815,392.0889 Q159.1617,390.437 159.1617,387.3159 Q159.1617,384.1865 160.4815,382.5347 Q161.8014,380.8828 164.3082,380.8828 Q165.0138,380.8828 165.6612,381.0322 Q166.3087,381.1816 166.8731,381.4805 L166.8731,384.2031 Q166.2423,383.6221 165.6488,383.3523 Q165.0553,383.0825 164.4244,383.0825 Q163.0797,383.0825 162.3949,384.1492 Q161.7101,385.2158 161.7101,387.3159 Q161.7101,389.4077 162.3949,390.4744 Q163.0797,391.541 164.4244,391.541 Q165.0553,391.541 165.6488,391.2712 Q166.2423,391.0015 166.8731,390.4204 Z "/><text fill="#000000" font-family="sans-serif" font-size="12" lengthAdjust="spacingAndGlyphs" textLength="7" x="183.6" y="391.5352">Z</text><path d="M127,403 L127,403.2802 L136.8889,402.4476 L146.7778,403.2577 L156.6667,403.5329 L166.5556,402.0488 L176.4444,402.8964 L186.3333,402.4313 L196.2222,402.4887 L206.1111,402.9091 L216,403 " fill="#FFFFFF" style="stroke: #000000; stroke-width: 1.5;"/><path d="M127,411 L127,411.2802 L136.8889,410.4476 L146.7778,411.2577 L156.6667,411.5329 L166.5556,410.0488 L176.4444,410.8964 L186.3333,410.4313 L196.2222,410.4887 L206.1111,410.9091 L216,411 " fill="#FFFFFF" style="stroke: #000000; stroke-width: 1.5;"/><text fill="#000000" font-family="sans-serif" font-size="11" lengthAdjust="spacingAndGlyphs" textLength="79" x="132" y="425.6348">+setA(p_A : A)</text><!--link Test to X--><path d="M132.78,69.22 L132.9749,69.4214 L125.2096,75.7755 L118.5867,83.3102 L111.5918,90.4605 L103.3736,96.3464 L96.7767,103.908 L89.2671,110.5263 L82.1207,117.52 L75.29,124.84 " fill="none" style="stroke: #A80036; stroke-width: 1.0; stroke-dasharray: 7.0,7.0;"/><polygon fill="#A80036" points="71.26,128.74,71.2841,128.8058,73.0621,127.933,74.9814,127.4458,76.8547,126.833,78.5768,125.8072,80.5082,125.3532,80.5078,125.3273,79.3747,125.1928,78.2437,125.1889,77.1142,125.2757,75.9796,125.0498,74.8521,125.2619,75.0366,125.2649,74.6603,124.1273,74.8227,122.9984,75.0508,121.8706,74.8965,120.7366,74.9433,119.6058,74.9644,119.6143,74.1968,121.4287,73.5252,123.2818,72.8073,125.1161,72.1777,126.9862,71.26,128.74" style="stroke: #A80036; stroke-width: 1.0;"/><!--link Test to A--><path d="M174.23,69.03 L174.3185,69.06 L174.9916,71.734 L176.1834,74.5837 L177.2062,77.3763 L177.6737,79.9806 L178.91,82.8455 L178.8771,82.8349 L179.694,85.7973 L180.6767,88.8128 L181.7747,91.8652 L182.4754,94.7903 L183.7325,97.8937 L183.9684,97.9638 L184.3917,100.9357 L185.5037,104.1123 L186.6998,107.3138 L187.407,110.37 L188.3713,113.5027 L188.4006,113.5105 L189.1833,116.5985 L190.0994,119.722 L190.9512,122.8284 L191.9258,125.9675 L192.5,129 L192.7896,129.0713 L194.5828,136.3447 L196.1892,143.5721 L198.0691,150.8668 L199.9618,158.1646 L201.4484,165.3626 L201.1366,165.2882 L203.2133,171.6048 L204.2634,177.6767 L206.094,183.9346 L207.1208,190.0009 L208.8064,196.2242 L208.7767,196.2175 L209.761,199.0881 L210.0517,201.8013 L210.7517,204.6073 L211.486,207.4212 L211.9724,210.1788 L212.1532,210.2179 L212.5444,212.8352 L213.2446,215.5191 L213.4448,218.0952 L214.3908,220.8322 L214.8409,223.4622 L215.0797,223.5106 L215.5554,226.0708 L216.1497,228.655 L216.1931,231.1276 L216.6403,233.682 L217.4452,236.309 L217.1738,236.258 L217.8942,238.8331 L218.3088,241.3508 L219.167,243.9517 L219.2677,246.4105 L219.8188,248.9538 L219.6685,248.928 L220.3539,251.5064 L220.3971,253.9746 L220.897,256.5212 L221.8439,259.1445 L221.9948,261.6312 L222.1861,261.661 L222.7198,264.2703 L222.6583,266.7872 L223.3421,269.4199 L223.8636,272.0274 L224.0067,274.5761 L223.7988,274.547 L224.3408,277.2595 L224.8147,279.9626 L225.4223,282.6843 L225.5098,285.3333 L225.8879,288.0229 L226.0919,288.0486 L226.0005,290.8289 L226.3028,293.6588 L227.1803,296.5609 L226.9988,299.3299 L227.6717,302.2064 L227.8965,302.2319 L228.1069,305.2477 L228.2413,308.2549 L228.5473,311.2816 L229.2501,314.3532 L229.3915,317.3612 L229.2591,317.3475 L229.9909,320.6604 L229.8227,323.8803 L230.6779,327.2058 L230.9568,330.4719 L231.0805,333.722 L231.1889,333.7319 L231.7853,341.1795 L232.7699,348.6627 L233.4038,356.1137 L233.891,363.5513 L234.5,371 L234.6189,371.009 L234.7024,374.4209 L235.3378,377.8747 L235.3491,381.2811 L235.6171,384.7069 L235.8008,388.1264 L235.5305,388.1179 L235.7049,390.7947 L236.2047,393.4818 L236.244,396.1543 L236.1181,398.8217 L236.2213,401.4963 L236.0781,401.4915 L236.036,404.1674 L235.7404,406.8349 L236.1414,409.5253 L236.1976,412.2044 L235.7811,414.868 L236.0144,414.8854 L235.8329,418.3174 L235.2081,421.7162 L235.0511,425.1501 L234.5844,428.5607 L234.5,432 L234.6256,432.0131 L234.316,434.8155 L234.1581,437.6337 L233.5193,440.4017 L233.2683,443.2102 L233.0347,446.0205 L233.2299,446.0475 L232.892,448.8912 L232.0242,451.6616 L231.772,454.5171 L231.5307,457.3742 L231.0725,460.2012 L230.8046,460.1574 L230.7773,462.9747 L230.2853,465.7158 L229.6777,468.4381 L229.3341,471.2036 L228.8216,473.9414 L229.1401,473.9999 L228.2185,476.456 L228.0266,479.0461 L227.5475,481.5835 L227.0069,484.1096 L226.49,486.64 " fill="none" style="stroke: #A80036; stroke-width: 1.0; stroke-dasharray: 7.0,7.0;"/><polygon fill="#A80036" points="225.47,491.88,225.5273,491.9204,226.4919,490.1904,227.7922,488.697,228.9832,487.1266,229.8147,485.3028,231.1438,483.8297,231.1294,483.8082,230.1245,484.3407,229.1921,484.9817,228.3103,485.6983,227.2545,486.1548,226.4423,486.9755,226.5957,487.0781,225.6386,485.9183,225.1292,485.0582,224.6745,484.2346,223.9019,483.1984,223.2966,482.274,223.3187,482.279,223.7209,484.1928,224.224,486.1295,224.6784,488.0552,225.2257,490.0019,225.47,491.88" style="stroke: #A80036; stroke-width: 1.0;"/><!--link Test to Y--><path d="M157.02,69.41 L157.2939,69.4693 L154.3668,79.0458 L153.0452,88.9701 L151.2008,98.7812 L147.637,108.2197 L146.3521,118.1519 L143.7842,127.8062 L141.7269,137.5712 L140.0245,147.413 L137.0991,156.9898 L136.6081,167.0941 L132.952,176.5126 L131.4023,186.3875 L130.1095,196.3181 L127.3216,205.9247 L125.4089,215.7209 L123.165,225.4454 L121.326,235.2576 L118.98,244.96 " fill="none" style="stroke: #A80036; stroke-width: 1.0; stroke-dasharray: 7.0,7.0;"/><polygon fill="#A80036" points="117.9,249.97,117.9566,250.0114,118.9511,248.2984,120.2772,246.8278,121.4953,245.2783,122.3583,243.4692,123.7129,242.0195,123.6988,241.9977,122.6848,242.5127,121.7414,243.1375,120.8473,243.8385,119.7837,244.2766,118.9574,245.0831,119.1125,245.183,118.1681,244.0182,117.6765,243.1452,117.2403,242.3078,116.4825,241.2632,115.8938,240.3276,115.9161,240.3323,116.2846,242.2539,116.7545,244.1967,117.1756,246.1293,117.6899,248.0813,117.9,249.97" style="stroke: #A80036; stroke-width: 1.0;"/><!--link Test to Z--><path d="M164.15,69.04 L164.4302,69.0462 L163.8167,78.9078 L164.8457,88.8057 L165.3398,98.6918 L164.075,108.5389 L165.1414,118.4377 L164.8955,128.3074 L165.1718,138.1887 L165.8111,148.078 L165.1994,157.9396 L167.078,167.8564 L165.7188,177.7014 L166.5144,187.5942 L167.5728,197.4928 L167.1017,207.3575 L167.526,217.242 L167.6114,227.1191 L168.111,237.0053 L168.4108,246.8871 L169.0917,256.7773 L169.4245,266.6598 L169.6545,276.5401 L169.3074,286.4075 L169.805,296.2937 L170.3421,306.1807 L168.6637,316.0187 L170.7485,325.94 L169.6678,335.7912 L170.9936,345.6958 L169.8411,355.5454 L170.72,365.44 " fill="none" style="stroke: #A80036; stroke-width: 1.0; stroke-dasharray: 7.0,7.0;"/><polygon fill="#A80036" points="170.84,370.8,170.9046,370.8272,171.4765,368.9308,172.4271,367.1937,173.2543,365.4048,173.6762,363.4452,174.6592,361.7218,174.6406,361.7039,173.7729,362.4392,172.9994,363.2649,172.2913,364.1536,171.3577,364.8255,170.74,365.801,170.8679,365.9341,169.7786,364.8657,169.0627,364.1858,168.3923,363.5533,167.4569,362.645,166.6608,361.8818,166.6814,361.8914,167.487,363.6609,168.3864,365.4743,169.2405,367.2665,170.1809,369.0992,170.84,370.8" style="stroke: #A80036; stroke-width: 1.0;"/><!--link X to Y--><path d="M58.23,190.22 L58.4707,190.3636 L63.2423,199.1336 L69.4247,208.7454 L75.1476,218.083 L79.3598,226.5193 L85.5743,236.1502 L91.15,245.4 " fill="none" style="stroke: #A80036; stroke-width: 1.0; stroke-dasharray: 7.0,7.0;"/><polygon fill="#A80036" points="93.75,249.74,93.8196,249.7484,93.3757,247.7679,93.3395,245.8369,93.1706,243.8897,92.565,241.8896,92.5639,239.9628,92.5387,239.9565,92.15,241.0253,91.8879,242.126,91.7138,243.2488,91.2363,244.2954,91.1838,245.4488,91.2288,245.6277,90.0354,244.969,88.9734,244.8328,87.9274,244.7604,86.7881,244.317,85.6979,244.0687,85.711,244.0873,87.3022,245.1943,88.953,246.3859,90.5751,247.5367,92.252,248.7654,93.75,249.74" style="stroke: #A80036; stroke-width: 1.0;"/><!--link Y to Z--><path d="M126.49,311.22 L126.7402,311.3462 L130.595,320.093 L135.9168,329.5793 L140.7609,338.8249 L144.034,347.2785 L149.3891,356.7817 L154.08,365.95 " fill="none" style="stroke: #A80036; stroke-width: 1.0; stroke-dasharray: 7.0,7.0;"/><polygon fill="#A80036" points="156.5,370.74,156.57,370.7434,156.2651,368.7658,156.3704,366.8084,156.3422,364.8444,155.8746,362.8588,156.0151,360.9031,155.9905,360.895,155.5264,361.9333,155.1864,363.0125,154.9326,364.12,154.3816,365.1297,154.2468,366.2765,154.3045,366.4518,153.1065,365.7232,152.0769,365.5065,151.0678,365.3522,149.9392,364.8346,148.8735,364.5081,148.8879,364.5258,150.392,365.7463,151.9617,367.047,153.4998,368.309,155.0982,369.6448,156.5,370.74" style="stroke: #A80036; stroke-width: 1.0;"/><!--link Z to A--><path d="M184.37,432.06 L184.6269,432.1719 L187.8585,441.0094 L192.5963,450.5029 L196.8436,459.7828 L199.478,468.3601 L204.25,477.8686 L208.34,487.08 " fill="none" style="stroke: #A80036; stroke-width: 1.0; stroke-dasharray: 7.0,7.0;"/><polygon fill="#A80036" points="210.34,491.67,210.4101,491.6707,210.2208,489.699,210.4422,487.7313,210.5298,485.7622,210.1777,483.789,210.4343,481.8216,210.4103,481.8121,209.8859,482.8213,209.483,483.8786,209.1645,484.9693,208.5551,485.9449,208.3532,487.0817,208.4211,487.2533,207.2239,486.4701,206.2249,486.1879,205.2501,485.9669,204.1346,485.3902,203.0931,485.0005,203.1085,485.0173,204.5352,486.3266,206.0321,487.7121,207.4952,489.0609,209.0228,490.4798,210.34,491.67" style="stroke: #A80036; stroke-width: 1.0;"/><!--
@startuml Demeter01
skinparam classAttributeIconSize 0
skinparam handwritten true
skinparam class {
    BackgroundColor White
    BorderColor #000
}

Test ..> X
Test ..> A
Test ..> Y
Test ..> Z

X ..> Y
Y ..> Z
Z ..> A

class Test {
    + Truc(p_x : X)
}

class X {
    + getY() : Y
}

class Y {
    + getZ() : Z
}

class Z {
    + setA(p_A : A)
}


@enduml

PlantUML version 1.2019.09(Mon Aug 26 12:19:51 EDT 2019)
(GPL source distribution)
Java Runtime: OpenJDK Runtime Environment
JVM: OpenJDK 64-Bit Server VM
Java Version: 13.0.2+8
Operating System: Mac OS X
OS Version: 10.15.4
Default Encoding: UTF-8
Language: fr
Country: CA
--></g></svg>