<?xml version="1.0" encoding="UTF-8" standalone="no"?><svg xmlns="http://www.w3.org/2000/svg" xmlns:xlink="http://www.w3.org/1999/xlink" contentScriptType="application/ecmascript" contentStyleType="text/css" height="512px" preserveAspectRatio="none" style="width:235px;height:512px;" version="1.1" viewBox="0 0 235 512" width="235px" zoomAndPan="magnify"><defs><filter height="300%" id="f1698s5y8nftbn" width="300%" x="-1" y="-1"><feGaussianBlur result="blurOut" stdDeviation="2.0"/><feColorMatrix in="blurOut" result="blurOut2" type="matrix" values="0 0 0 0 0 0 0 0 0 0 0 0 0 0 0 0 0 0 .4 0"/><feOffset dx="4.0" dy="4.0" in="blurOut2" result="blurOut3"/><feBlend in="SourceGraphic" in2="blurOut3" mode="normal"/></filter></defs><g><!--class Test--><polygon fill="#FFFFFF" filter="url(#f1698s5y8nftbn)" points="89,8,89,8.2102,99,7.5857,109,8.1933,119,8.3997,129,7.2866,139,7.9223,149,7.5735,159,7.6165,169,7.9318,179,8,178.3086,8,179.5536,18.1592,178.3697,28.3184,178.8022,38.4775,179.4319,48.6367,178.9142,58.7959,179,68.9551,179,69.0233,169,68.9231,159,69.1336,149,69.1942,139,69.5408,129,69.6261,119,69.6343,109,69.2097,99,69.4187,89,68.9551,89.7022,68.9551,88.2788,58.7959,89.6785,48.6367,88.7035,38.4775,89.5338,28.3184,88.505,18.1592,89,8" style="stroke: #000000; stroke-width: 1.5;"/><polygon fill="#ADD1B2" points="129.9108,26.6756,128.2984,28.8788,126.3912,32.1057,123.6636,34.2804,120.7974,35.4696,118.512,35.5728,115.5747,34.0855,112.8032,33.1139,110.6995,31.1412,109.5961,28.8828,108.9417,27.0845,108.3006,24.7357,107.26,22.7145,108.0596,20.741,108.7602,18.5792,111.3893,16.8695,113.239,14.6511,115.5284,13.9144,118.2501,13.2801,121.7404,13.657,123.6521,14.5585,125.8747,14.9672,128.5772,17.736,129.5193,20.659,129.9286,22.6534,129.465,25.9399" style="stroke: #000000; stroke-width: 1.0;"/><path d="M121.3231,30.1431 Q120.7421,30.4419 120.1029,30.5913 Q119.4638,30.7407 118.7582,30.7407 Q116.2514,30.7407 114.9315,29.0889 Q113.6117,27.437 113.6117,24.3159 Q113.6117,21.1865 114.9315,19.5347 Q116.2514,17.8828 118.7582,17.8828 Q119.4638,17.8828 120.1112,18.0322 Q120.7587,18.1816 121.3231,18.4805 L121.3231,21.2031 Q120.6923,20.6221 120.0988,20.3523 Q119.5053,20.0825 118.8744,20.0825 Q117.5297,20.0825 116.8449,21.1492 Q116.1601,22.2158 116.1601,24.3159 Q116.1601,26.4077 116.8449,27.4744 Q117.5297,28.541 118.8744,28.541 Q119.5053,28.541 120.0988,28.2712 Q120.6923,28.0015 121.3231,27.4204 Z "/><text fill="#000000" font-family="sans-serif" font-size="12" lengthAdjust="spacingAndGlyphs" textLength="25" x="136.15" y="28.5352">Test</text><path d="M90,40 L90,40.2802 L99.7778,39.4476 L109.5556,40.2577 L119.3333,40.5329 L129.1111,39.0488 L138.8889,39.8964 L148.6667,39.4313 L158.4444,39.4887 L168.2222,39.9091 L178,40 " fill="#FFFFFF" style="stroke: #000000; stroke-width: 1.5;"/><path d="M90,48 L90,48.2802 L99.7778,47.4476 L109.5556,48.2577 L119.3333,48.5329 L129.1111,47.0488 L138.8889,47.8964 L148.6667,47.4313 L158.4444,47.4887 L168.2222,47.9091 L178,48 " fill="#FFFFFF" style="stroke: #000000; stroke-width: 1.5;"/><text fill="#000000" font-family="sans-serif" font-size="11" lengthAdjust="spacingAndGlyphs" textLength="78" x="95" y="62.6348">+Truc(p_x : X)</text><!--class X--><polygon fill="#FFFFFF" filter="url(#f1698s5y8nftbn)" points="6,129,6,129.0701,14,128.8619,22,129.0644,30,129.1332,38,128.7622,46,129,45.9223,129,45.5735,138.6,45.6165,148.2,45.9318,157.8,45.3086,167.4,46,177,46,177.1845,38,176.7899,30,176.9341,22,177.144,14,176.9714,6,177,6.0682,177,5.9681,167.4,6.1785,157.8,6.2391,148.2,6.5857,138.6,6,129" style="stroke: #000000; stroke-width: 1.5;"/><polygon fill="#ADD1B2" points="32.0608,147.6756,30.4484,149.8788,28.5412,153.1057,25.8136,155.2804,22.9474,156.4696,20.662,156.5728,17.7247,155.0855,14.9532,154.1139,12.8495,152.1412,11.7461,149.8828,11.0917,148.0845,10.4506,145.7357,9.41,143.7145,10.2096,141.741,10.9102,139.5792,13.5393,137.8695,15.389,135.6511,17.6784,134.9144,20.4001,134.2801,23.8904,134.657,25.8021,135.5585,28.0247,135.9672,30.7272,138.736,31.6693,141.659,32.0786,143.6534,31.615,146.9399" style="stroke: #000000; stroke-width: 1.0;"/><path d="M23.4731,151.1431 Q22.8921,151.4419 22.2529,151.5913 Q21.6138,151.7407 20.9082,151.7407 Q18.4014,151.7407 17.0815,150.0889 Q15.7617,148.437 15.7617,145.3159 Q15.7617,142.1865 17.0815,140.5347 Q18.4014,138.8828 20.9082,138.8828 Q21.6138,138.8828 22.2612,139.0322 Q22.9087,139.1816 23.4731,139.4805 L23.4731,142.2031 Q22.8423,141.6221 22.2488,141.3523 Q21.6553,141.0825 21.0244,141.0825 Q19.6797,141.0825 18.9949,142.1492 Q18.3101,143.2158 18.3101,145.3159 Q18.3101,147.4077 18.9949,148.4744 Q19.6797,149.541 21.0244,149.541 Q21.6553,149.541 22.2488,149.2712 Q22.8423,149.0015 23.4731,148.4204 Z "/><text fill="#000000" font-family="sans-serif" font-size="12" lengthAdjust="spacingAndGlyphs" textLength="8" x="35" y="149.5352">X</text><path d="M7,161 L7,161.0934 L14.6,160.8159 L22.2,161.0859 L29.8,161.1776 L37.4,160.6829 L45,161 " fill="#FFFFFF" style="stroke: #000000; stroke-width: 1.5;"/><path d="M7,169 L7,169.0934 L14.6,168.8159 L22.2,169.0859 L29.8,169.1776 L37.4,168.6829 L45,169 " fill="#FFFFFF" style="stroke: #000000; stroke-width: 1.5;"/><!--class A--><polygon fill="#FFFFFF" filter="url(#f1698s5y8nftbn)" points="184,453,184,453.0701,192,452.8619,200,453.0644,208,453.1332,216,452.7622,224,453,223.9223,453,223.5735,462.6,223.6165,472.2,223.9318,481.8,223.3086,491.4,224,501,224,501.1845,216,500.7899,208,500.9341,200,501.144,192,500.9714,184,501,184.0682,501,183.9681,491.4,184.1785,481.8,184.2391,472.2,184.5857,462.6,184,453" style="stroke: #000000; stroke-width: 1.5;"/><polygon fill="#ADD1B2" points="210.0608,471.6756,208.4484,473.8788,206.5412,477.1057,203.8136,479.2804,200.9474,480.4696,198.662,480.5728,195.7247,479.0855,192.9532,478.1139,190.8495,476.1412,189.7461,473.8828,189.0917,472.0845,188.4506,469.7357,187.41,467.7145,188.2096,465.741,188.9102,463.5792,191.5393,461.8695,193.389,459.6511,195.6784,458.9144,198.4001,458.2801,201.8904,458.657,203.8021,459.5585,206.0247,459.9672,208.7272,462.736,209.6693,465.659,210.0786,467.6534,209.615,470.9399" style="stroke: #000000; stroke-width: 1.0;"/><path d="M201.4731,475.1431 Q200.8921,475.4419 200.2529,475.5913 Q199.6138,475.7407 198.9082,475.7407 Q196.4014,475.7407 195.0815,474.0889 Q193.7617,472.437 193.7617,469.3159 Q193.7617,466.1865 195.0815,464.5347 Q196.4014,462.8828 198.9082,462.8828 Q199.6138,462.8828 200.2612,463.0322 Q200.9087,463.1816 201.4731,463.4805 L201.4731,466.2031 Q200.8423,465.6221 200.2488,465.3523 Q199.6553,465.0825 199.0244,465.0825 Q197.6797,465.0825 196.9949,466.1492 Q196.3101,467.2158 196.3101,469.3159 Q196.3101,471.4077 196.9949,472.4744 Q197.6797,473.541 199.0244,473.541 Q199.6553,473.541 200.2488,473.2712 Q200.8423,473.0015 201.4731,472.4204 Z "/><text fill="#000000" font-family="sans-serif" font-size="12" lengthAdjust="spacingAndGlyphs" textLength="8" x="213" y="473.5352">A</text><path d="M185,485 L185,485.0934 L192.6,484.8159 L200.2,485.0859 L207.8,485.1776 L215.4,484.6829 L223,485 " fill="#FFFFFF" style="stroke: #000000; stroke-width: 1.5;"/><path d="M185,493 L185,493.0934 L192.6,492.8159 L200.2,493.0859 L207.8,493.1776 L215.4,492.6829 L223,493 " fill="#FFFFFF" style="stroke: #000000; stroke-width: 1.5;"/><!--class Y--><polygon fill="#FFFFFF" filter="url(#f1698s5y8nftbn)" points="77.5,237,77.5,237.0701,85.3,236.8619,93.1,237.0644,100.9,237.1332,108.7,236.7622,116.5,237,116.4223,237,116.0735,246.6,116.1165,256.2,116.4318,265.8,115.8086,275.4,116.5,285,116.5,285.1845,108.7,284.7899,100.9,284.9341,93.1,285.144,85.3,284.9714,77.5,285,77.5682,285,77.4681,275.4,77.6785,265.8,77.7391,256.2,78.0857,246.6,77.5,237" style="stroke: #000000; stroke-width: 1.5;"/><polygon fill="#ADD1B2" points="103.5608,255.6756,101.9484,257.8788,100.0412,261.1057,97.3136,263.2804,94.4474,264.4696,92.162,264.5728,89.2247,263.0855,86.4532,262.1139,84.3495,260.1412,83.2461,257.8828,82.5917,256.0845,81.9506,253.7357,80.91,251.7145,81.7096,249.741,82.4102,247.5792,85.0393,245.8695,86.889,243.6511,89.1784,242.9144,91.9001,242.2801,95.3904,242.657,97.3021,243.5585,99.5247,243.9672,102.2272,246.736,103.1693,249.659,103.5786,251.6534,103.115,254.9399" style="stroke: #000000; stroke-width: 1.0;"/><path d="M94.9731,259.1431 Q94.3921,259.4419 93.7529,259.5913 Q93.1138,259.7407 92.4082,259.7407 Q89.9014,259.7407 88.5815,258.0889 Q87.2617,256.437 87.2617,253.3159 Q87.2617,250.1865 88.5815,248.5347 Q89.9014,246.8828 92.4082,246.8828 Q93.1138,246.8828 93.7612,247.0322 Q94.4087,247.1816 94.9731,247.4805 L94.9731,250.2031 Q94.3423,249.6221 93.7488,249.3523 Q93.1553,249.0825 92.5244,249.0825 Q91.1797,249.0825 90.4949,250.1492 Q89.8101,251.2158 89.8101,253.3159 Q89.8101,255.4077 90.4949,256.4744 Q91.1797,257.541 92.5244,257.541 Q93.1553,257.541 93.7488,257.2712 Q94.3423,257.0015 94.9731,256.4204 Z "/><text fill="#000000" font-family="sans-serif" font-size="12" lengthAdjust="spacingAndGlyphs" textLength="7" x="106.5" y="257.5352">Y</text><path d="M78.5,269 L78.5,269.0934 L85.9,268.8159 L93.3,269.0859 L100.7,269.1776 L108.1,268.6829 L115.5,269 " fill="#FFFFFF" style="stroke: #000000; stroke-width: 1.5;"/><path d="M78.5,277 L78.5,277.0934 L85.9,276.8159 L93.3,277.0859 L100.7,277.1776 L108.1,276.6829 L115.5,277 " fill="#FFFFFF" style="stroke: #000000; stroke-width: 1.5;"/><!--class Z--><polygon fill="#FFFFFF" filter="url(#f1698s5y8nftbn)" points="148.5,345,148.5,345.0701,156.3,344.8619,164.1,345.0644,171.9,345.1332,179.7,344.7622,187.5,345,187.4223,345,187.0735,354.6,187.1165,364.2,187.4318,373.8,186.8086,383.4,187.5,393,187.5,393.1845,179.7,392.7899,171.9,392.9341,164.1,393.144,156.3,392.9714,148.5,393,148.5682,393,148.4681,383.4,148.6785,373.8,148.7391,364.2,149.0857,354.6,148.5,345" style="stroke: #000000; stroke-width: 1.5;"/><polygon fill="#ADD1B2" points="174.5608,363.6756,172.9484,365.8788,171.0412,369.1057,168.3136,371.2804,165.4474,372.4696,163.162,372.5728,160.2247,371.0855,157.4532,370.1139,155.3495,368.1412,154.2461,365.8828,153.5917,364.0845,152.9506,361.7357,151.91,359.7145,152.7096,357.741,153.4102,355.5792,156.0393,353.8695,157.889,351.6511,160.1784,350.9144,162.9001,350.2801,166.3904,350.657,168.3021,351.5585,170.5247,351.9672,173.2272,354.736,174.1693,357.659,174.5786,359.6534,174.115,362.9399" style="stroke: #000000; stroke-width: 1.0;"/><path d="M165.9731,367.1431 Q165.3921,367.4419 164.7529,367.5913 Q164.1138,367.7407 163.4082,367.7407 Q160.9014,367.7407 159.5815,366.0889 Q158.2617,364.437 158.2617,361.3159 Q158.2617,358.1865 159.5815,356.5347 Q160.9014,354.8828 163.4082,354.8828 Q164.1138,354.8828 164.7612,355.0322 Q165.4087,355.1816 165.9731,355.4805 L165.9731,358.2031 Q165.3423,357.6221 164.7488,357.3523 Q164.1553,357.0825 163.5244,357.0825 Q162.1797,357.0825 161.4949,358.1492 Q160.8101,359.2158 160.8101,361.3159 Q160.8101,363.4077 161.4949,364.4744 Q162.1797,365.541 163.5244,365.541 Q164.1553,365.541 164.7488,365.2712 Q165.3423,365.0015 165.9731,364.4204 Z "/><text fill="#000000" font-family="sans-serif" font-size="12" lengthAdjust="spacingAndGlyphs" textLength="7" x="177.5" y="365.5352">Z</text><path d="M149.5,377 L149.5,377.0934 L156.9,376.8159 L164.3,377.0859 L171.7,377.1776 L179.1,376.6829 L186.5,377 " fill="#FFFFFF" style="stroke: #000000; stroke-width: 1.5;"/><path d="M149.5,385 L149.5,385.0934 L156.9,384.8159 L164.3,385.0859 L171.7,385.1776 L179.1,384.6829 L186.5,385 " fill="#FFFFFF" style="stroke: #000000; stroke-width: 1.5;"/><!--link Test to X--><path d="M105.62,69.06 L105.8222,69.2541 L98.224,75.9662 L91.8109,83.816 L85.0119,91.2953 L76.9438,97.5563 L70.5578,105.432 L63.2248,112.3987 L56.2686,119.7271 L49.64,127.37 " fill="none" style="stroke: #A80036; stroke-width: 1.0; stroke-dasharray: 7.0,7.0;"/><polygon fill="#A80036" points="46.01,131.16,46.0363,131.2249,47.7834,130.2916,49.6849,129.7389,51.536,129.0622,53.2219,127.978,55.1366,127.4579,55.1361,127.432,54.0028,127.3364,52.8719,127.3713,51.7426,127.4969,50.6077,127.3098,49.4807,127.5608,49.6652,127.5641,49.2501,126.4258,49.3736,125.2972,49.5629,124.1698,49.3698,123.0355,49.3778,121.9049,49.3992,121.9126,48.6943,123.7522,48.0866,125.6273,47.432,127.4852,46.867,129.3757,46.01,131.16" style="stroke: #A80036; stroke-width: 1.0;"/><!--link Test to A--><path d="M149.21,69.01 L149.2947,69.0493 L150.3132,71.6689 L151.8284,74.519 L153.1818,77.2941 L154.0033,79.8223 L155.5611,82.6922 L155.5293,82.6786 L156.6673,85.6117 L157.9654,88.6133 L159.3748,91.6625 L160.4007,94.5476 L161.9638,97.6625 L162.1936,97.7503 L162.8967,100.6909 L164.2709,103.8878 L165.7271,107.1159 L166.7068,110.1621 L167.937,113.3041 L167.9659,113.3134 L168.9361,116.4389 L170.0377,119.6068 L171.076,122.7543 L172.2351,125.9407 L173,129 L173.2871,129.0807 L174.4369,133.1598 L175.4014,137.1868 L176.6371,141.29 L177.8855,145.3967 L178.7313,149.3904 L178.4216,149.3074 L180.0262,153.2138 L180.6113,156.8471 L181.9714,160.688 L182.5334,164.3151 L183.7495,168.1175 L183.72,168.1101 L184.9395,171.6597 L185.4691,175.0358 L186.4058,178.5144 L187.3767,182.0015 L188.101,185.4266 L188.2813,185.4683 L188.8455,188.6535 L189.7177,191.9099 L190.0917,195.0511 L191.2088,198.3642 L191.8319,201.563 L192.0704,201.6125 L192.6566,204.6449 L193.3612,207.7019 L193.5155,210.6447 L194.0732,213.6712 L194.9883,216.7719 L194.7165,216.7227 L195.4882,219.6725 L195.9536,222.567 L196.8632,225.5418 L197.0144,228.3794 L197.6164,231.2985 L197.4657,231.2756 L198.1459,234.1318 L198.1818,236.8898 L198.6759,239.7176 L199.6184,242.6137 L199.7624,245.3882 L199.9546,245.4119 L200.4284,248.2077 L200.3045,250.93 L200.9293,253.7444 L201.3909,256.5387 L201.4725,259.2863 L201.2635,259.2665 L201.6941,262.0725 L202.0564,264.8721 L202.5531,267.6845 L202.5269,270.4473 L202.7928,273.2378 L202.9979,273.2519 L202.7426,276.0711 L202.8832,278.9174 L203.6021,281.8033 L203.2563,284.6163 L203.7695,287.4882 L203.9955,287.4986 L203.9971,290.4513 L203.9223,293.4005 L204.02,296.3576 L204.5166,299.3331 L204.4488,302.2826 L204.3158,302.279 L204.7974,305.4066 L204.3745,308.5094 L204.98,311.6404 L205.0064,314.7556 L204.8769,317.8664 L204.9857,317.8679 L204.9425,321.1904 L205.289,324.5181 L205.2833,327.8411 L205.1305,331.1621 L205.0998,334.4848 L205.219,334.4852 L205.0548,338.0642 L205.4439,341.6452 L205.2071,345.2239 L205.2278,348.8036 L205.1639,352.383 L204.8935,352.3819 L204.951,360.5057 L205.3342,368.6307 L205.2566,376.754 L205.0137,384.8765 L205,393 L204.5705,392.9955 L204.5941,403.8949 L203.8571,414.7864 L205.211,425.6998 L205.53,436.6023 L204.43,447.49 " fill="none" style="stroke: #A80036; stroke-width: 1.0; stroke-dasharray: 7.0,7.0;"/><polygon fill="#A80036" points="204.36,452.75,204.4236,452.7794,205.0602,450.9037,206.0698,449.2002,206.9578,447.4407,207.4466,445.4968,208.4882,443.8081,208.4701,443.7895,207.5777,444.4946,206.7764,445.2934,206.0383,446.1572,205.0822,446.7968,204.4314,447.7505,204.5638,447.8791,203.4923,446.7927,202.8072,446.0819,202.1692,445.4168,201.257,444.4852,200.489,443.6938,200.5099,443.7027,201.2534,445.5008,202.0921,447.3397,202.8849,449.1588,203.7653,451.0155,204.36,452.75" style="stroke: #A80036; stroke-width: 1.0;"/><!--link Test to Y--><path d="M129.01,69.24 L129.2864,69.2864 L126.7621,79.2961 L125.8579,89.5777 L124.4262,99.7707 L121.2594,109.6726 L120.3922,119.9603 L118.2304,130.0309 L116.5838,140.1879 L115.2954,150.405 L112.7728,160.4149 L112.7068,170.8372 L109.4468,180.7234 L108.3124,190.9664 L107.4374,201.2528 L105.0535,211.2861 L103.5529,221.4676 L101.76,231.6 " fill="none" style="stroke: #A80036; stroke-width: 1.0; stroke-dasharray: 7.0,7.0;"/><polygon fill="#A80036" points="100.9,236.77,100.9584,236.8087,101.8722,235.0513,103.1284,233.5206,104.2731,231.9162,105.0511,230.0689,106.3367,228.5577,106.3217,228.5366,105.3327,229.0982,104.4195,229.7662,103.5589,230.5081,102.5168,230.9952,101.7289,231.8392,101.8793,231.9462,100.9015,230.7958,100.3627,229.9578,99.8773,229.158,99.0805,228.1364,98.4475,227.2314,98.4695,227.2371,98.9277,229.1365,99.4861,231.0617,99.9962,232.9744,100.5986,234.9109,100.9,236.77" style="stroke: #A80036; stroke-width: 1.0;"/><!--link Test to Z--><path d="M137.08,69.23 L137.3588,69.2588 L137.5679,79.1972 L139.4112,89.3047 L140.7223,99.3571 L140.2835,109.2284 L142.164,119.3397 L142.7388,129.3159 L143.8332,139.3459 L145.2889,149.4132 L145.4997,159.3518 L148.1883,169.5467 L147.6556,179.4083 L149.2666,189.4917 L151.1392,199.6023 L151.4899,209.5553 L152.7316,219.6005 L153.6361,229.6108 L154.9527,239.6638 L156.0705,249.6962 L157.5675,259.7678 L158.7181,269.8036 L159.7664,279.8288 L160.2407,289.7946 L161.5552,299.8473 L162.9091,309.9042 L162.0587,319.7329 L164.9525,329.9491 L165.09,339.88 " fill="none" style="stroke: #A80036; stroke-width: 1.0; stroke-dasharray: 7.0,7.0;"/><polygon fill="#A80036" points="165.61,344.86,165.6766,344.8817,166.0892,342.9444,166.8923,341.1344,167.5683,339.283,167.8261,337.2952,168.6627,335.4962,168.6426,335.4798,167.8389,336.2846,167.1366,337.1717,166.5047,338.1161,165.6301,338.8631,165.0955,339.8865,165.2119,340.0298,164.0849,339.0101,163.2978,338.4085,162.5521,337.858,161.5652,337.0106,160.7051,336.3194,160.7249,336.3307,161.6769,338.0222,162.7187,339.7653,163.7172,341.4834,164.7983,343.2491,165.61,344.86" style="stroke: #A80036; stroke-width: 1.0;"/><!--link X to Y--><path d="M41.41,177 L41.6428,177.1559 L46.2524,184.6083 L52.227,192.9748 L57.7571,201.0437 L61.8254,208.1336 L67.8311,216.5209 L72.7461,224.1778 L78.52,232.41 " fill="none" style="stroke: #A80036; stroke-width: 1.0; stroke-dasharray: 7.0,7.0;"/><polygon fill="#A80036" points="81.38,236.68,81.449,236.692,80.9065,234.7157,80.7686,232.8097,80.499,230.8809,79.796,228.8766,79.6928,226.9767,79.6674,226.9717,79.3341,228.0591,79.1289,229.1718,79.0128,230.3021,78.5898,231.3718,78.5966,232.5263,78.6324,232.7074,77.446,232.101,76.364,232.0232,75.2948,232.0099,74.1514,231.6213,73.047,231.4301,73.0591,231.4494,74.7079,232.4711,76.4119,233.5804,78.0893,234.6475,79.8175,235.7952,81.38,236.68" style="stroke: #A80036; stroke-width: 1.0;"/><!--link Y to Z--><path d="M112.41,285 L112.6428,285.1559 L117.2524,292.6083 L123.227,300.9748 L128.7571,309.0437 L132.8254,316.1336 L138.8311,324.5209 L143.7461,332.1778 L149.52,340.41 " fill="none" style="stroke: #A80036; stroke-width: 1.0; stroke-dasharray: 7.0,7.0;"/><polygon fill="#A80036" points="152.38,344.68,152.449,344.692,151.9065,342.7157,151.7686,340.8097,151.499,338.8809,150.796,336.8766,150.6928,334.9767,150.6674,334.9717,150.3341,336.0591,150.1289,337.1718,150.0128,338.3021,149.5898,339.3718,149.5966,340.5263,149.6324,340.7074,148.446,340.101,147.364,340.0232,146.2948,340.0099,145.1514,339.6213,144.047,339.4301,144.0591,339.4494,145.7079,340.4711,147.4119,341.5804,149.0893,342.6475,150.8175,343.7952,152.38,344.68" style="stroke: #A80036; stroke-width: 1.0;"/><!--link Z to A--><path d="M175.81,393 L176.0754,393.0901 L178.3736,401.9107 L182.2274,411.2595 L185.5746,420.4364 L187.256,429.0474 L191.1452,438.4083 L194.33,447.53 " fill="none" style="stroke: #A80036; stroke-width: 1.0; stroke-dasharray: 7.0,7.0;"/><polygon fill="#A80036" points="196.08,452.68,196.1498,452.6863,196.1198,450.7058,196.4989,448.7623,196.7448,446.8067,196.5526,444.8115,196.9668,442.8711,196.9435,442.8597,196.3397,443.8235,195.853,444.8449,195.4477,445.9064,194.7617,446.8298,194.469,447.9467,194.5504,448.1122,193.3611,447.2586,192.4096,446.8884,191.4872,446.5771,190.3959,445.9227,189.3934,445.4488,189.4101,445.4643,190.7229,446.8878,192.1118,448.3817,193.4639,449.8416,194.886,451.3663,196.08,452.68" style="stroke: #A80036; stroke-width: 1.0;"/><!--
@startuml Demeter01
skinparam classAttributeIconSize 0
skinparam handwritten true
skinparam class {
    BackgroundColor White
    BorderColor #000
}

Test ..> X
Test ..> A
Test ..> Y
Test ..> Z

X ..> Y
Y ..> Z
Z ..> A

class Test {
    + Truc(p_x : X)
}

@enduml

PlantUML version 1.2019.09(Mon Aug 26 12:19:51 EDT 2019)
(GPL source distribution)
Java Runtime: OpenJDK Runtime Environment
JVM: OpenJDK 64-Bit Server VM
Java Version: 13.0.2+8
Operating System: Mac OS X
OS Version: 10.15.4
Default Encoding: UTF-8
Language: fr
Country: CA
--></g></svg>