<?xml version="1.0" encoding="us-ascii" standalone="no"?><svg xmlns="http://www.w3.org/2000/svg" xmlns:xlink="http://www.w3.org/1999/xlink" contentStyleType="text/css" height="566px" preserveAspectRatio="none" style="width:258px;height:566px;background:#FFFFFF;" version="1.1" viewBox="0 0 258 566" width="258px" zoomAndPan="magnify"><defs/><g><!--class Test--><g id="elem_Test"><polygon fill="#FFFFFF" points="127,7,127,7.2102,136.6,6.5857,146.2,7.1933,155.8,7.3997,165.4,6.2866,175,6.9223,184.6,6.5735,194.2,6.6165,203.8,6.9318,213.4,6.3086,223,7,223.0706,7.1705,223.2732,6.9523,223.6819,7.232,224.1158,7.5724,224.4033,7.5594,224.7678,7.7322,224.7888,7.7409,224.9044,8.0817,225.1156,8.4621,225.2808,8.8234,225.5339,9.2212,225.5,9.5,226.1711,9.5,226.1793,19.6016,225.7546,29.7031,225.9636,39.8047,226.2022,49.9063,224.7788,60.0078,225.5,70.1094,225.709,70.1959,225.2622,70.4251,225.3715,70.8846,224.9082,71.1069,224.8931,71.5149,224.7678,71.8771,224.8624,72.1055,224.408,72.0086,224.0741,72.2025,223.7503,72.4208,223.4066,72.5911,223,72.6094,223,72.6055,213.4,72.8966,203.8,72.037,194.2,72.8938,184.6,73.1576,175,73.0539,165.4,73.2224,155.8,72.1263,146.2,71.9572,136.6,71.988,127,72.6094,126.9925,72.5912,126.6214,72.4024,126.3798,72.5263,125.9171,72.1162,125.542,71.9179,125.2322,71.8771,125.3025,71.9063,124.8804,71.4385,124.7795,71.1038,124.9927,70.8993,124.7806,70.5185,124.5,70.1094,125.2345,70.1094,124.1782,60.0078,124.8192,49.9063,125.0904,39.8047,124.0276,29.7031,124.4041,19.6016,124.5,9.5,124.5388,9.5161,124.8472,9.2296,124.7916,8.7924,125.0818,8.4983,124.9152,8.0151,125.2322,7.7322,125.1458,7.5237,125.65,7.7409,125.8479,7.2186,126.3578,7.4496,126.6728,7.2101,127,7" style="stroke:#000000;stroke-width:0.5;"/><polygon fill="#ADD1B2" points="169.0108,25.6756,167.3984,27.8788,165.4912,31.1057,162.7636,33.2804,159.8974,34.4696,157.612,34.5728,154.6747,33.0855,151.9032,32.1139,149.7995,30.1412,148.6961,27.8828,148.0417,26.0845,147.4006,23.7357,146.36,21.7145,147.1596,19.741,147.8602,17.5792,150.4893,15.8695,152.339,13.6511,154.6284,12.9144,157.3501,12.2801,160.8404,12.657,162.7521,13.5585,164.9747,13.9672,167.6772,16.736,168.6193,19.659,169.0286,21.6534,168.565,24.9399" style="stroke:#181818;stroke-width:1.0;"/><path d="M160.7156,18.875 Q160.8719,18.6563 161.0594,18.5469 Q161.2469,18.4375 161.4656,18.4375 Q161.8406,18.4375 162.075,18.6953 Q162.3094,18.9531 162.3094,19.5625 L162.3094,21.0156 Q162.3094,21.625 162.075,21.8906 Q161.8406,22.1563 161.4656,22.1563 Q161.1219,22.1563 160.9188,21.9531 Q160.7156,21.7656 160.6063,21.25 Q160.5594,20.8906 160.3719,20.7031 Q160.0438,20.3281 159.4344,20.1094 Q158.825,19.8906 158.2,19.8906 Q157.4344,19.8906 156.8016,20.2188 Q156.1688,20.5469 155.6766,21.2969 Q155.1844,22.0469 155.1844,23.0781 L155.1844,24.1719 Q155.1844,25.4063 156.075,26.2266 Q156.9656,27.0469 158.5594,27.0469 Q159.4969,27.0469 160.1531,26.7969 Q160.5438,26.6406 160.9656,26.2031 Q161.2313,25.9375 161.3797,25.8594 Q161.5281,25.7813 161.7313,25.7813 Q162.0594,25.7813 162.3172,26.0391 Q162.575,26.2969 162.575,26.6406 Q162.575,26.9844 162.2313,27.3906 Q161.7313,27.9688 160.9344,28.2969 Q159.8563,28.75 158.5594,28.75 Q157.0438,28.75 155.8406,28.125 Q154.8563,27.625 154.1688,26.5547 Q153.4813,25.4844 153.4813,24.2031 L153.4813,23.0469 Q153.4813,21.7188 154.0984,20.5703 Q154.7156,19.4219 155.8094,18.8047 Q156.9031,18.1875 158.1375,18.1875 Q158.8719,18.1875 159.5203,18.3516 Q160.1688,18.5156 160.7156,18.875 Z " fill="#000000"/><text fill="#000000" font-family="sans-serif" font-size="14" lengthAdjust="spacing" textLength="28" x="176.05" y="28.7285">Test</text><path d="M125.5,39 L125.5,39.2802 L135.4,38.4476 L145.3,39.2577 L155.2,39.5329 L165.1,38.0488 L175,38.8964 L184.9,38.4313 L194.8,38.4887 L204.7,38.9091 L214.6,38.0782 L224.5,39 " fill="#FFFFFF" style="stroke:#000000;stroke-width:0.5;"/><path d="M125.5,47 L125.5,47.2802 L135.4,46.4476 L145.3,47.2577 L155.2,47.5329 L165.1,46.0488 L175,46.8964 L184.9,46.4313 L194.8,46.4887 L204.7,46.9091 L214.6,46.0782 L224.5,47 " fill="#FFFFFF" style="stroke:#000000;stroke-width:0.5;"/><text fill="#000000" font-family="sans-serif" font-size="14" lengthAdjust="spacing" textLength="89" x="130.5" y="65.5332">+Truc(p_x : X)</text></g><!--class X--><g id="elem_X"><polygon fill="#FFFFFF" points="9.5,133,9.5,133.2102,18.875,132.5857,28.25,133.1933,37.625,133.3997,47,132.2866,56.375,132.9223,65.75,132.5735,75.125,132.6165,84.5,133,84.4913,132.979,84.7654,132.9335,85.2777,133.4634,85.4803,133.2452,85.889,133.5249,86.2678,133.7322,86.4008,133.7873,86.3878,134.0748,86.5817,134.448,86.6973,134.7888,86.9085,135.1692,87,135.5,87.2391,135.5,87.5857,145.6016,87.6711,155.7031,87.6793,165.8047,87.2546,175.9063,87.4636,186.0078,87,196.1094,87.2163,196.199,86.6315,196.3709,86.9161,196.903,86.4693,197.1322,86.5786,197.5917,86.2678,197.8771,86.2046,197.7247,85.9055,198.0025,85.6553,198.3984,85.2009,198.3015,84.867,198.4954,84.5,198.6094,84.5,198.948,75.125,199.0256,65.75,198.6055,56.375,198.8966,47,198.037,37.625,198.8938,28.25,199.1576,18.875,199.0539,9.5,198.6094,9.5782,198.7982,9.0848,198.3142,8.7097,198.1156,8.3601,197.9787,8.0783,198.0055,7.7322,197.8771,7.6717,197.8521,7.7956,197.6105,7.3855,197.1478,7.1872,196.7727,7.2167,196.492,7,196.1094,6.3332,196.1094,6.4809,186.0078,7.649,175.9063,7.4357,165.8047,7.7345,155.7031,6.6782,145.6016,7,135.5,7.0983,135.5407,7.3283,135.2218,7.1474,134.7326,7.4098,134.4271,7.6246,134.1019,7.7322,133.7322,7.8154,133.9329,8.0853,133.5845,8.4983,133.5818,8.7223,133.1223,9.0601,132.9379,9.5,133" style="stroke:#000000;stroke-width:0.5;"/><polygon fill="#ADD1B2" points="51.0608,151.6756,49.4484,153.8788,47.5412,157.1057,44.8136,159.2804,41.9474,160.4696,39.662,160.5728,36.7247,159.0855,33.9532,158.1139,31.8495,156.1412,30.7461,153.8828,30.0917,152.0845,29.4506,149.7357,28.41,147.7145,29.2096,145.741,29.9102,143.5792,32.5393,141.8695,34.389,139.6511,36.6784,138.9144,39.4001,138.2801,42.8904,138.657,44.8021,139.5585,47.0247,139.9672,49.7272,142.736,50.6693,145.659,51.0786,147.6534,50.615,150.9399" style="stroke:#181818;stroke-width:1.0;"/><path d="M42.7656,144.875 Q42.9219,144.6563 43.1094,144.5469 Q43.2969,144.4375 43.5156,144.4375 Q43.8906,144.4375 44.125,144.6953 Q44.3594,144.9531 44.3594,145.5625 L44.3594,147.0156 Q44.3594,147.625 44.125,147.8906 Q43.8906,148.1563 43.5156,148.1563 Q43.1719,148.1563 42.9688,147.9531 Q42.7656,147.7656 42.6563,147.25 Q42.6094,146.8906 42.4219,146.7031 Q42.0938,146.3281 41.4844,146.1094 Q40.875,145.8906 40.25,145.8906 Q39.4844,145.8906 38.8516,146.2188 Q38.2188,146.5469 37.7266,147.2969 Q37.2344,148.0469 37.2344,149.0781 L37.2344,150.1719 Q37.2344,151.4063 38.125,152.2266 Q39.0156,153.0469 40.6094,153.0469 Q41.5469,153.0469 42.2031,152.7969 Q42.5938,152.6406 43.0156,152.2031 Q43.2813,151.9375 43.4297,151.8594 Q43.5781,151.7813 43.7813,151.7813 Q44.1094,151.7813 44.3672,152.0391 Q44.625,152.2969 44.625,152.6406 Q44.625,152.9844 44.2813,153.3906 Q43.7813,153.9688 42.9844,154.2969 Q41.9063,154.75 40.6094,154.75 Q39.0938,154.75 37.8906,154.125 Q36.9063,153.625 36.2188,152.5547 Q35.5313,151.4844 35.5313,150.2031 L35.5313,149.0469 Q35.5313,147.7188 36.1484,146.5703 Q36.7656,145.4219 37.8594,144.8047 Q38.9531,144.1875 40.1875,144.1875 Q40.9219,144.1875 41.5703,144.3516 Q42.2188,144.5156 42.7656,144.875 Z " fill="#000000"/><text fill="#000000" font-family="sans-serif" font-size="14" lengthAdjust="spacing" textLength="8" x="58" y="154.7285">X</text><path d="M8,165 L8,165.2802 L17.75,164.4476 L27.5,165.2577 L37.25,165.5329 L47,164.0488 L56.75,164.8964 L66.5,164.4313 L76.25,164.4887 L86,165 " fill="#FFFFFF" style="stroke:#000000;stroke-width:0.5;"/><path d="M8,173 L8,173.2802 L17.75,172.4476 L27.5,173.2577 L37.25,173.5329 L47,172.0488 L56.75,172.8964 L66.5,172.4313 L76.25,172.4887 L86,173 " fill="#FFFFFF" style="stroke:#000000;stroke-width:0.5;"/><text fill="#000000" font-family="sans-serif" font-size="14" lengthAdjust="spacing" textLength="68" x="13" y="191.5332">+getY() : Y</text></g><!--class A--><g id="elem_A"><polygon fill="#FFFFFF" points="211,511,211,511.0701,218.2,510.8619,225.4,511.0644,232.6,511.1332,239.8,510.7622,247,511,246.9901,510.9761,247.2991,511.0151,247.6582,511.1748,248.052,511.4184,248.326,511.3729,248.7678,511.7322,248.9383,511.8029,248.7201,512.0054,248.9998,512.4141,249.3401,512.848,249.3271,513.1355,249.5,513.5,249.5227,513.5,249.4894,522.1,249.5595,530.7,249.5797,539.3,249.6952,547.9,249.5,556.5,249.7067,556.5856,249.5627,556.9402,249.2855,557.2396,249.2034,557.6198,249.1305,558.0038,248.7678,558.2678,248.6758,558.0457,248.5008,558.6232,248.0228,558.4693,247.7752,558.8715,247.2904,558.7011,247,559,247,558.9772,239.8,559.2472,232.6,558.9838,225.4,559.0351,218.2,559.1129,211,559,211.0531,559.1282,210.6459,558.8524,210.3295,558.7956,209.8663,558.3844,209.6221,558.5018,209.2322,558.2678,209.4011,558.3377,209.2227,557.9709,209.1281,557.6389,208.6441,557.1455,208.4456,556.7704,208.5,556.5,208.2929,556.5,208.4804,547.9,208.4345,539.3,208.7271,530.7,208.4418,522.1,208.5,513.5,208.3944,513.4562,208.7167,513.1756,208.5875,512.7078,208.7795,512.3731,209.2856,512.1686,209.2322,511.7322,209.2878,511.8664,209.6795,511.812,209.8983,511.3402,210.3336,511.3912,210.7218,511.3283,211,511" style="stroke:#000000;stroke-width:0.5;"/><polygon fill="#ADD1B2" points="234.5608,529.6756,232.9484,531.8788,231.0412,535.1057,228.3136,537.2804,225.4474,538.4696,223.162,538.5728,220.2247,537.0855,217.4532,536.1139,215.3495,534.1412,214.2461,531.8828,213.5917,530.0845,212.9506,527.7357,211.91,525.7145,212.7096,523.741,213.4102,521.5792,216.0393,519.8695,217.889,517.6511,220.1784,516.9144,222.9001,516.2801,226.3904,516.657,228.3021,517.5585,230.5247,517.9672,233.2272,520.736,234.1693,523.659,234.5786,525.6534,234.115,528.9399" style="stroke:#181818;stroke-width:1.0;"/><path d="M226.2656,522.875 Q226.4219,522.6563 226.6094,522.5469 Q226.7969,522.4375 227.0156,522.4375 Q227.3906,522.4375 227.625,522.6953 Q227.8594,522.9531 227.8594,523.5625 L227.8594,525.0156 Q227.8594,525.625 227.625,525.8906 Q227.3906,526.1563 227.0156,526.1563 Q226.6719,526.1563 226.4688,525.9531 Q226.2656,525.7656 226.1563,525.25 Q226.1094,524.8906 225.9219,524.7031 Q225.5938,524.3281 224.9844,524.1094 Q224.375,523.8906 223.75,523.8906 Q222.9844,523.8906 222.3516,524.2188 Q221.7188,524.5469 221.2266,525.2969 Q220.7344,526.0469 220.7344,527.0781 L220.7344,528.1719 Q220.7344,529.4063 221.625,530.2266 Q222.5156,531.0469 224.1094,531.0469 Q225.0469,531.0469 225.7031,530.7969 Q226.0938,530.6406 226.5156,530.2031 Q226.7813,529.9375 226.9297,529.8594 Q227.0781,529.7813 227.2813,529.7813 Q227.6094,529.7813 227.8672,530.0391 Q228.125,530.2969 228.125,530.6406 Q228.125,530.9844 227.7813,531.3906 Q227.2813,531.9688 226.4844,532.2969 Q225.4063,532.75 224.1094,532.75 Q222.5938,532.75 221.3906,532.125 Q220.4063,531.625 219.7188,530.5547 Q219.0313,529.4844 219.0313,528.2031 L219.0313,527.0469 Q219.0313,525.7188 219.6484,524.5703 Q220.2656,523.4219 221.3594,522.8047 Q222.4531,522.1875 223.6875,522.1875 Q224.4219,522.1875 225.0703,522.3516 Q225.7188,522.5156 226.2656,522.875 Z " fill="#000000"/><text fill="#000000" font-family="sans-serif" font-size="14" lengthAdjust="spacing" textLength="9" x="237.5" y="532.7285">A</text><path d="M209.5,543 L209.5,543.0934 L217.3,542.8159 L225.1,543.0859 L232.9,543.1776 L240.7,542.6829 L248.5,543 " fill="#FFFFFF" style="stroke:#000000;stroke-width:0.5;"/><path d="M209.5,551 L209.5,551.0934 L217.3,550.8159 L225.1,551.0859 L232.9,551.1776 L240.7,550.6829 L248.5,551 " fill="#FFFFFF" style="stroke:#000000;stroke-width:0.5;"/></g><!--class Y--><g id="elem_Y"><polygon fill="#FFFFFF" points="82.5,259,82.5,259.2102,92.9286,258.5857,103.3571,259.1933,113.7857,259.3997,124.2143,258.2866,134.6429,258.9223,145.0714,258.5735,155.5,259,155.4511,258.8819,155.8449,259.1255,156.1189,259.08,156.6313,259.6098,156.8338,259.3917,157.2678,259.7322,157.2069,259.707,157.5472,260.1409,157.5342,260.4284,157.7281,260.8016,157.8437,261.1424,158,261.5,158.1785,261.5,158.2391,271.6016,158.5857,281.7031,158.6711,291.8047,158.6793,301.9063,158.2546,312.0078,158,322.1094,158.1428,322.1685,158.0698,322.5525,157.485,322.7245,157.7696,323.2566,157.3229,323.4858,157.2678,323.8771,157.3359,324.0415,156.8511,323.8711,156.5519,324.1489,156.3017,324.5449,155.8473,324.4479,155.5,324.6094,155.5,324.7147,145.0714,324.948,134.6429,325.0256,124.2143,324.6055,113.7857,324.8966,103.3571,324.037,92.9286,324.8938,82.5,324.6094,82.5699,324.7782,82.2032,324.5998,81.8711,324.5053,81.3777,324.0213,81.0026,323.8227,80.7322,323.8771,80.5409,323.7979,80.5677,323.5161,80.3788,323.145,80.5027,322.9034,80.0927,322.4406,80,322.1094,79.6569,322.1094,80.2283,312.0078,79.3332,301.9063,79.4809,291.8047,80.649,281.7031,80.4357,271.6016,80,261.5,80.2262,261.5937,80.0473,261.1054,80.3912,260.8336,80.6212,260.5147,80.4403,260.0255,80.7322,259.7322,80.72,259.7027,81.1019,259.6246,81.5225,259.6401,81.7924,259.2916,82.2055,259.2889,82.5,259" style="stroke:#000000;stroke-width:0.5;"/><polygon fill="#ADD1B2" points="122.7108,277.6756,121.0984,279.8788,119.1912,283.1057,116.4636,285.2804,113.5974,286.4696,111.312,286.5728,108.3747,285.0855,105.6032,284.1139,103.4995,282.1412,102.3961,279.8828,101.7417,278.0845,101.1006,275.7357,100.06,273.7145,100.8596,271.741,101.5602,269.5792,104.1893,267.8695,106.039,265.6511,108.3284,264.9144,111.0501,264.2801,114.5404,264.657,116.4521,265.5585,118.6747,265.9672,121.3772,268.736,122.3193,271.659,122.7286,273.6534,122.265,276.9399" style="stroke:#181818;stroke-width:1.0;"/><path d="M114.4156,270.875 Q114.5719,270.6563 114.7594,270.5469 Q114.9469,270.4375 115.1656,270.4375 Q115.5406,270.4375 115.775,270.6953 Q116.0094,270.9531 116.0094,271.5625 L116.0094,273.0156 Q116.0094,273.625 115.775,273.8906 Q115.5406,274.1563 115.1656,274.1563 Q114.8219,274.1563 114.6188,273.9531 Q114.4156,273.7656 114.3063,273.25 Q114.2594,272.8906 114.0719,272.7031 Q113.7438,272.3281 113.1344,272.1094 Q112.525,271.8906 111.9,271.8906 Q111.1344,271.8906 110.5016,272.2188 Q109.8688,272.5469 109.3766,273.2969 Q108.8844,274.0469 108.8844,275.0781 L108.8844,276.1719 Q108.8844,277.4063 109.775,278.2266 Q110.6656,279.0469 112.2594,279.0469 Q113.1969,279.0469 113.8531,278.7969 Q114.2438,278.6406 114.6656,278.2031 Q114.9313,277.9375 115.0797,277.8594 Q115.2281,277.7813 115.4313,277.7813 Q115.7594,277.7813 116.0172,278.0391 Q116.275,278.2969 116.275,278.6406 Q116.275,278.9844 115.9313,279.3906 Q115.4313,279.9688 114.6344,280.2969 Q113.5563,280.75 112.2594,280.75 Q110.7438,280.75 109.5406,280.125 Q108.5563,279.625 107.8688,278.5547 Q107.1813,277.4844 107.1813,276.2031 L107.1813,275.0469 Q107.1813,273.7188 107.7984,272.5703 Q108.4156,271.4219 109.5094,270.8047 Q110.6031,270.1875 111.8375,270.1875 Q112.5719,270.1875 113.2203,270.3516 Q113.8688,270.5156 114.4156,270.875 Z " fill="#000000"/><text fill="#000000" font-family="sans-serif" font-size="14" lengthAdjust="spacing" textLength="9" x="129.35" y="280.7285">Y</text><path d="M81,291 L81,291.2802 L90.5,290.4476 L100,291.2577 L109.5,291.5329 L119,290.0488 L128.5,290.8964 L138,290.4313 L147.5,290.4887 L157,291 " fill="#FFFFFF" style="stroke:#000000;stroke-width:0.5;"/><path d="M81,299 L81,299.2802 L90.5,298.4476 L100,299.2577 L109.5,299.5329 L119,298.0488 L128.5,298.8964 L138,298.4313 L147.5,298.4887 L157,299 " fill="#FFFFFF" style="stroke:#000000;stroke-width:0.5;"/><text fill="#000000" font-family="sans-serif" font-size="14" lengthAdjust="spacing" textLength="66" x="86" y="317.5332">+getZ() : Z</text></g><!--class Z--><g id="elem_Z"><polygon fill="#FFFFFF" points="127.5,385,127.5,385.2102,137.4,384.5857,147.3,385.1933,157.2,385.3997,167.1,384.2866,177,384.9223,186.9,384.5735,196.8,384.6165,206.7,384.9318,216.6,384.3086,226.5,385,226.5706,385.1705,226.7732,384.9523,227.1819,385.232,227.6158,385.5724,227.9033,385.5594,228.2678,385.7322,228.2888,385.7409,228.4044,386.0817,228.6156,386.4621,228.7808,386.8234,229.0339,387.2212,229,387.5,229.6711,387.5,229.6793,397.6016,229.2546,407.7031,229.4636,417.8047,229.7022,427.9063,228.2788,438.0078,229,448.1094,229.209,448.1959,228.7622,448.4251,228.8715,448.8846,228.4082,449.1069,228.3931,449.5149,228.2678,449.8771,228.3624,450.1055,227.908,450.0086,227.5741,450.2025,227.2503,450.4208,226.9066,450.5911,226.5,450.6094,226.5,450.6055,216.6,450.8966,206.7,450.037,196.8,450.8938,186.9,451.1576,177,451.0539,167.1,451.2224,157.2,450.1263,147.3,449.9572,137.4,449.988,127.5,450.6094,127.4925,450.5912,127.1214,450.4024,126.8798,450.5263,126.4171,450.1162,126.042,449.9179,125.7322,449.8771,125.8025,449.9063,125.3804,449.4385,125.2795,449.1038,125.4927,448.8993,125.2806,448.5185,125,448.1094,125.7345,448.1094,124.6782,438.0078,125.3192,427.9063,125.5904,417.8047,124.5276,407.7031,124.9041,397.6016,125,387.5,125.0388,387.5161,125.3472,387.2296,125.2916,386.7924,125.5818,386.4983,125.4152,386.0151,125.7322,385.7322,125.6458,385.5237,126.15,385.7409,126.3479,385.2186,126.8578,385.4496,127.1728,385.2101,127.5,385" style="stroke:#000000;stroke-width:0.5;"/><polygon fill="#ADD1B2" points="179.8608,403.6756,178.2484,405.8788,176.3412,409.1057,173.6136,411.2804,170.7474,412.4696,168.462,412.5728,165.5247,411.0855,162.7532,410.1139,160.6495,408.1412,159.5461,405.8828,158.8917,404.0845,158.2506,401.7357,157.21,399.7145,158.0096,397.741,158.7102,395.5792,161.3393,393.8695,163.189,391.6511,165.4784,390.9144,168.2001,390.2801,171.6904,390.657,173.6021,391.5585,175.8247,391.9672,178.5272,394.736,179.4693,397.659,179.8786,399.6534,179.415,402.9399" style="stroke:#181818;stroke-width:1.0;"/><path d="M171.5656,396.875 Q171.7219,396.6563 171.9094,396.5469 Q172.0969,396.4375 172.3156,396.4375 Q172.6906,396.4375 172.925,396.6953 Q173.1594,396.9531 173.1594,397.5625 L173.1594,399.0156 Q173.1594,399.625 172.925,399.8906 Q172.6906,400.1563 172.3156,400.1563 Q171.9719,400.1563 171.7688,399.9531 Q171.5656,399.7656 171.4563,399.25 Q171.4094,398.8906 171.2219,398.7031 Q170.8938,398.3281 170.2844,398.1094 Q169.675,397.8906 169.05,397.8906 Q168.2844,397.8906 167.6516,398.2188 Q167.0188,398.5469 166.5266,399.2969 Q166.0344,400.0469 166.0344,401.0781 L166.0344,402.1719 Q166.0344,403.4063 166.925,404.2266 Q167.8156,405.0469 169.4094,405.0469 Q170.3469,405.0469 171.0031,404.7969 Q171.3938,404.6406 171.8156,404.2031 Q172.0813,403.9375 172.2297,403.8594 Q172.3781,403.7813 172.5813,403.7813 Q172.9094,403.7813 173.1672,404.0391 Q173.425,404.2969 173.425,404.6406 Q173.425,404.9844 173.0813,405.3906 Q172.5813,405.9688 171.7844,406.2969 Q170.7063,406.75 169.4094,406.75 Q167.8938,406.75 166.6906,406.125 Q165.7063,405.625 165.0188,404.5547 Q164.3313,403.4844 164.3313,402.2031 L164.3313,401.0469 Q164.3313,399.7188 164.9484,398.5703 Q165.5656,397.4219 166.6594,396.8047 Q167.7531,396.1875 168.9875,396.1875 Q169.7219,396.1875 170.3703,396.3516 Q171.0188,396.5156 171.5656,396.875 Z " fill="#000000"/><text fill="#000000" font-family="sans-serif" font-size="14" lengthAdjust="spacing" textLength="8" x="189.2" y="406.7285">Z</text><path d="M126,417 L126,417.2802 L136.2,416.4476 L146.4,417.2577 L156.6,417.5329 L166.8,416.0488 L177,416.8964 L187.2,416.4313 L197.4,416.4887 L207.6,416.9091 L217.8,416.0782 L228,417 " fill="#FFFFFF" style="stroke:#000000;stroke-width:0.5;"/><path d="M126,425 L126,425.2802 L136.2,424.4476 L146.4,425.2577 L156.6,425.5329 L166.8,424.0488 L177,424.8964 L187.2,424.4313 L197.4,424.4887 L207.6,424.9091 L217.8,424.0782 L228,425 " fill="#FFFFFF" style="stroke:#000000;stroke-width:0.5;"/><text fill="#000000" font-family="sans-serif" font-size="14" lengthAdjust="spacing" textLength="92" x="131" y="443.5332">+setA(p_A : A)</text></g><!--link Test to X--><g id="link_Test_X"><path d="M141.7,73.26 L141.895,73.4613 L134.1579,79.7975 L127.5639,87.3136 L120.5976,94.4455 L112.4072,100.3138 L105.8392,107.8567 L98.3579,114.457 L91.2401,121.4324 L84.4381,128.7339 " fill="none" style="stroke:#181818;stroke-width:1.0;stroke-dasharray:7.0,7.0;"/><polygon fill="#181818" points="80.13,132.91,80.1541,132.9758,81.9317,132.1019,83.8507,131.6136,85.7237,130.9998,87.4451,129.9731,89.3763,129.5179,89.3759,129.492,88.2428,129.3581,87.1118,129.3549,85.9822,129.4424,84.8478,129.2171,83.7201,129.4299,83.9046,129.4328,83.5276,128.2954,83.6894,127.1664,83.9169,126.0384,83.7619,124.9045,83.8081,123.7737,83.8292,123.7822,83.0626,125.597,82.3921,127.4505,81.6752,129.2853,81.0467,131.1557,80.13,132.91" style="stroke:#181818;stroke-width:1.0;"/></g><!--link Test to A--><g id="link_Test_A"><path d="M184.9,73.16 L184.9897,73.1861 L185.5343,75.898 L186.6047,78.7628 L187.5039,81.5778 L187.8399,84.2291 L188.9555,87.107 L188.9222,87.0977 L189.6131,90.0654 L190.4716,93.0799 L191.4468,96.1269 L192.0201,99.0618 L193.1563,102.1538 L193.3942,102.2166 L193.7049,105.1842 L194.7103,108.3352 L195.8005,111.5087 L196.3975,114.5519 L197.2539,117.6636 L197.2834,117.6708 L197.9893,120.7275 L198.8294,123.817 L199.6048,126.8907 L200.5037,129.9945 L201,133 L201.2903,133.0683 L203.0825,140.6727 L204.6874,148.233 L206.5664,155.8579 L208.4583,163.4857 L209.9431,171.0178 L209.6312,170.9436 L211.7677,177.5271 L212.8774,183.8664 L214.7678,190.3913 L215.8542,196.725 L217.5995,203.2155 L217.5699,203.2086 L219.2321,208.961 L220.2012,214.5532 L221.5793,220.2399 L222.9918,225.9346 L224.1565,231.572 L224.3373,231.6115 L224.7398,234.2428 L225.4511,236.9418 L225.6628,239.5313 L226.6198,242.284 L227.0812,244.9282 L227.3198,244.9776 L227.8187,247.5959 L228.436,250.2387 L228.503,252.7675 L228.9734,255.3799 L229.8013,258.0662 L229.5301,258.014 L230.2833,260.6947 L230.731,263.3166 L231.6219,266.0239 L231.756,268.5853 L232.34,271.2335 L232.1898,271.2069 L232.916,273.9399 L233.0005,276.5593 L233.5413,279.2595 L234.5286,282.0388 L234.7208,284.6772 L234.912,284.708 L235.4924,287.5226 L235.4781,290.2416 L236.2087,293.0804 L236.7769,295.8931 L236.9671,298.6449 L236.7593,298.6148 L237.352,301.5866 L237.8766,304.5486 L238.5349,307.5298 L238.6735,310.4358 L239.1023,313.3839 L239.3062,313.4104 L239.2678,316.5037 L239.6229,319.6482 L240.5528,322.8673 L240.4244,325.9489 L241.1498,329.1415 L241.3745,329.1677 L241.6377,332.5569 L241.8248,335.9372 L242.1836,339.3375 L242.9389,342.784 L243.133,346.1652 L243.0007,346.1513 L243.7831,349.9 L243.6656,353.5544 L244.5713,357.316 L244.9009,361.0172 L245.0753,364.7022 L245.1837,364.7125 L245.4811,368.7637 L246.1667,372.8518 L246.5016,376.9066 L246.6899,380.9475 L247,385 L247.1188,385.01 L247.2531,388.7019 L247.9389,392.44 L248.0009,396.1258 L248.3196,399.8332 L248.5539,403.5334 L248.2838,403.5221 L248.4959,406.4222 L249.0335,409.336 L249.1106,412.2304 L249.0227,415.1179 L249.1638,418.015 L249.0206,418.0103 L248.9721,420.9066 L248.6701,423.7947 L249.0648,426.7054 L249.1146,429.605 L248.6917,432.4891 L248.9247,432.5104 L248.661,436.2194 L247.9545,439.8879 L247.7153,443.5992 L247.1668,447.2821 L247,451 L247.1252,451.0162 L246.7258,453.9724 L246.4776,456.9481 L245.75,459.8618 L245.409,462.8256 L245.0853,465.7916 L245.2795,465.8252 L244.8567,468.5896 L243.9067,471.2626 L243.5692,474.0418 L243.2424,476.8228 L242.7,479.5665 L242.4344,479.51 L242.3,482.2048 L241.705,484.8018 L240.9954,487.3744 L240.5475,490.0025 L239.9321,492.5951 L240.2467,492.6719 L239.1846,495.0727 L238.8432,497.6494 L238.2181,500.1569 L237.5323,502.6496 L236.8699,505.1479 " fill="none" style="stroke:#181818;stroke-width:1.0;stroke-dasharray:7.0,7.0;"/><polygon fill="#181818" points="235.38,510.96,235.435,511.0035,236.4936,509.3294,237.8744,507.91,239.1502,506.4077,240.0812,504.6326,241.4896,503.2352,241.4764,503.2129,240.4436,503.6891,239.4773,504.2777,238.5572,504.9445,237.4778,505.342,236.6216,506.1166,236.7804,506.2106,235.8645,505.036,235.4123,504.1358,235.0166,503.2692,234.2918,502.2077,233.7402,501.2486,233.7626,501.2524,234.0576,503.1891,234.4548,505.1431,234.8027,507.0887,235.2445,509.0502,235.38,510.96" style="stroke:#181818;stroke-width:1.0;"/></g><!--link Test to Y--><g id="link_Test_Y"><path d="M167.79,73.17 L168.0635,73.2312 L165.0121,83.0451 L163.5639,93.218 L161.5937,103.274 L157.9067,112.9455 L156.495,123.1266 L153.8024,133.0208 L151.6196,143.0292 L149.7911,153.1169 L146.7414,162.9311 L146.1225,173.2898 L142.3433,182.9406 L140.6673,193.0625 L139.2478,203.2418 L136.3355,213.0868 L134.2971,223.1275 L131.9279,233.0942 L129.963,243.1514 L127.4919,253.0952 " fill="none" style="stroke:#181818;stroke-width:1.0;stroke-dasharray:7.0,7.0;"/><polygon fill="#181818" points="126.18,258.95,126.2363,258.9918,127.2433,257.2862,128.5802,255.8254,129.8096,254.2849,130.686,252.4822,132.0511,251.0424,132.0372,251.0205,131.0194,251.528,130.0715,252.1459,129.1722,252.8404,128.1055,253.2706,127.2733,254.071,127.4291,254.1698,126.4901,253.0029,126.0062,252.1246,125.5777,251.2814,124.8263,250.2334,124.2447,249.2932,124.267,249.2976,124.6213,251.2224,125.0772,253.1676,125.484,255.1029,125.9844,257.057,126.18,258.95" style="stroke:#181818;stroke-width:1.0;"/></g><!--link Test to Z--><g id="link_Test_Z"><path d="M175.17,73.06 L175.4502,73.0615 L174.6701,82.9184 L175.5327,92.784 L175.8604,102.6467 L174.4289,112.5001 L175.329,122.3659 L174.9164,132.2247 L175.0263,142.0863 L175.4992,151.9499 L174.7208,161.8067 L176.4333,171.6769 L174.9073,181.5297 L175.5365,191.3941 L176.4286,201.2599 L175.7908,211.1175 L176.0487,220.9799 L175.9676,230.8405 L176.3008,240.7033 L176.4341,250.565 L176.9487,260.4287 L177.115,270.2906 L177.1785,280.152 L176.6648,290.0103 L176.9959,299.873 L177.3666,309.736 L175.5213,319.5872 L177.44,329.4584 L176.1926,339.3128 L177.3521,349.18 L176.0329,359.034 L176.6541,368.8983 L176.7979,378.7601 " fill="none" style="stroke:#181818;stroke-width:1.0;stroke-dasharray:7.0,7.0;"/><polygon fill="#181818" points="176.83,384.76,176.8942,384.7881,177.4939,382.9003,178.4698,381.1774,179.3231,379.4007,179.7737,377.4476,180.7819,375.7388,180.7634,375.7205,179.8851,376.443,179.0996,377.2574,178.3786,378.1356,177.4352,378.7937,176.8033,379.7601,176.9331,379.8913,175.8513,378.815,175.1484,378.1218,174.4918,377.4753,173.5661,376.5569,172.782,375.7815,172.8027,375.7908,173.5819,377.5728,174.4554,379.3974,175.2835,381.2014,176.1984,383.0445,176.83,384.76" style="stroke:#181818;stroke-width:1.0;"/></g><!--link X to Y--><g id="link_X_Y"><path d="M65.73,199.26 L65.9724,199.4007 L70.522,208.0594 L76.4923,217.543 L82,226.7579 L85.9862,235.0895 L91.9889,244.5919 L97.3482,253.7207 " fill="none" style="stroke:#181818;stroke-width:1.0;stroke-dasharray:7.0,7.0;"/><polygon fill="#181818" points="100.36,258.91,100.4297,258.9175,100.0111,256.9368,100.0008,255.0002,99.8576,253.0492,99.2771,251.051,99.3019,249.1181,99.2768,249.1115,98.8741,250.1751,98.5976,251.2723,98.4089,252.3928,97.9178,253.4329,97.8502,254.5856,97.8975,254.7639,96.7028,254.0922,95.6463,253.9412,94.6067,253.8537,93.4689,253.3966,92.3828,253.1339,92.3961,253.1523,93.972,254.2805,95.6086,255.4925,97.2159,256.6641,98.8791,257.9129,100.36,258.91" style="stroke:#181818;stroke-width:1.0;"/></g><!--link Y to Z--><g id="link_Y_Z"><path d="M134.09,325.26 L134.3438,325.3787 L137.816,334.0617 L142.7763,343.4408 L147.252,352.5932 L150.1342,361.0002 L155.1283,370.3951 L159.4486,379.4748 " fill="none" style="stroke:#181818;stroke-width:1.0;stroke-dasharray:7.0,7.0;"/><polygon fill="#181818" points="161.99,384.91,162.06,384.9113,161.8142,382.9379,161.979,380.9724,162.0101,379.0043,161.6014,377.0278,161.8014,375.0629,161.7771,375.0541,161.2819,376.078,160.9096,377.1464,160.6225,378.2458,160.0414,379.2385,159.8722,380.3807,159.9351,380.5541,158.737,379.7973,157.7226,379.547,156.7307,379.3585,155.6083,378.8104,154.5545,378.4514,154.5694,378.4686,156.0346,379.7351,157.5677,381.0798,159.0681,382.3868,160.6309,383.7657,161.99,384.91" style="stroke:#181818;stroke-width:1.0;"/></g><!--link Z to A--><g id="link_Z_A"><path d="M191.48,451.03 L191.7353,451.1455 L195.0764,459.8678 L199.9144,469.2671 L204.2649,478.4459 L207.0124,486.8998 L211.8845,496.3145 L216.0787,505.4226 " fill="none" style="stroke:#181818;stroke-width:1.0;stroke-dasharray:7.0,7.0;"/><polygon fill="#181818" points="218.55,510.89,218.6201,510.8904,218.3995,508.9194,218.5896,506.9509,218.646,504.9816,218.2626,503.0096,218.488,501.0413,218.4637,501.0322,217.9555,502.0496,217.5694,503.1132,217.2683,504.2088,216.6744,505.194,216.4906,506.3338,216.5557,506.5065,215.3579,505.7378,214.3503,505.4732,213.3659,505.2701,212.2465,504.7091,211.1981,504.3364,211.2132,504.3534,212.6614,505.6392,214.1785,507.0023,215.6623,508.3281,217.2095,509.725,218.55,510.89" style="stroke:#181818;stroke-width:1.0;"/></g><!--SRC=[JOwn2i8m48RtFCM1IuiWdHs4wEHimIQBnFRGe2RbSaLHV7ThKvfc-lc_BtSNRjQrXim3whi9GJAJFNUC-zgxWtqZ529CojMuvacM6HqmTJX3ms_u2EZVrjIt2_dEDJj_zmJ7gsMCn5E35Dj5KHJYAqI9WM6rsa2LeanHfQY5gCPEZOKUTH7t3seyOWabTNNMdbwmXYh_RufEDGaNP9NbFLQ9gZdL0zM9wea6PDaFbpsNm_0V]--></g></svg>