<?xml version="1.0" encoding="UTF-8" standalone="no"?><svg xmlns="http://www.w3.org/2000/svg" xmlns:xlink="http://www.w3.org/1999/xlink" contentScriptType="application/ecmascript" contentStyleType="text/css" height="188px" preserveAspectRatio="none" style="width:240px;height:188px;" version="1.1" viewBox="0 0 240 188" width="240px" zoomAndPan="magnify"><defs><filter height="300%" id="foebuxau9gpsp" width="300%" x="-1" y="-1"><feGaussianBlur result="blurOut" stdDeviation="2.0"/><feColorMatrix in="blurOut" result="blurOut2" type="matrix" values="0 0 0 0 0 0 0 0 0 0 0 0 0 0 0 0 0 0 .4 0"/><feOffset dx="4.0" dy="4.0" in="blurOut2" result="blurOut3"/><feBlend in="SourceGraphic" in2="blurOut3" mode="normal"/></filter></defs><g><!--class CoursPlanifie--><rect fill="#FFFFFF" filter="url(#foebuxau9gpsp)" height="60.9551" id="CoursPlanifie" style="stroke: #000000; stroke-width: 1.5;" width="223" x="6" y="8"/><ellipse cx="76.25" cy="24" fill="#ADD1B2" rx="11" ry="11" style="stroke: #000000; stroke-width: 1.0;"/><path d="M78.7231,30.1431 Q78.1421,30.4419 77.5029,30.5913 Q76.8638,30.7407 76.1582,30.7407 Q73.6514,30.7407 72.3315,29.0889 Q71.0117,27.437 71.0117,24.3159 Q71.0117,21.1865 72.3315,19.5347 Q73.6514,17.8828 76.1582,17.8828 Q76.8638,17.8828 77.5112,18.0322 Q78.1587,18.1816 78.7231,18.4805 L78.7231,21.2031 Q78.0923,20.6221 77.4988,20.3523 Q76.9053,20.0825 76.2744,20.0825 Q74.9297,20.0825 74.2449,21.1492 Q73.5601,22.2158 73.5601,24.3159 Q73.5601,26.4077 74.2449,27.4744 Q74.9297,28.541 76.2744,28.541 Q76.9053,28.541 77.4988,28.2712 Q78.0923,28.0015 78.7231,27.4204 Z "/><text fill="#000000" font-family="sans-serif" font-size="12" lengthAdjust="spacingAndGlyphs" textLength="74" x="96.75" y="28.5352">CoursPlanifie</text><line style="stroke: #000000; stroke-width: 1.5;" x1="7" x2="228" y1="40" y2="40"/><text fill="#000000" font-family="sans-serif" font-size="11" lengthAdjust="spacingAndGlyphs" textLength="211" x="12" y="54.6348">-m_seancesCours: List&lt;SeanceCours&gt;</text><line style="stroke: #000000; stroke-width: 1.5;" x1="7" x2="228" y1="60.9551" y2="60.9551"/><!--class SeanceCours--><rect fill="#FFFFFF" filter="url(#foebuxau9gpsp)" height="48" id="SeanceCours" style="stroke: #000000; stroke-width: 1.5;" width="105" x="65" y="129"/><ellipse cx="80" cy="145" fill="#ADD1B2" rx="11" ry="11" style="stroke: #000000; stroke-width: 1.0;"/><path d="M82.4731,151.1431 Q81.8921,151.4419 81.2529,151.5913 Q80.6138,151.7407 79.9082,151.7407 Q77.4014,151.7407 76.0815,150.0889 Q74.7617,148.437 74.7617,145.3159 Q74.7617,142.1865 76.0815,140.5347 Q77.4014,138.8828 79.9082,138.8828 Q80.6138,138.8828 81.2612,139.0322 Q81.9087,139.1816 82.4731,139.4805 L82.4731,142.2031 Q81.8423,141.6221 81.2488,141.3523 Q80.6553,141.0825 80.0244,141.0825 Q78.6797,141.0825 77.9949,142.1492 Q77.3101,143.2158 77.3101,145.3159 Q77.3101,147.4077 77.9949,148.4744 Q78.6797,149.541 80.0244,149.541 Q80.6553,149.541 81.2488,149.2712 Q81.8423,149.0015 82.4731,148.4204 Z "/><text fill="#000000" font-family="sans-serif" font-size="12" lengthAdjust="spacingAndGlyphs" textLength="73" x="94" y="149.5352">SeanceCours</text><line style="stroke: #000000; stroke-width: 1.5;" x1="66" x2="169" y1="161" y2="161"/><line style="stroke: #000000; stroke-width: 1.5;" x1="66" x2="169" y1="169" y2="169"/><!--link CoursPlanifie to SeanceCours--><path d="M117.5,69.06 C117.5,85.93 117.5,106.98 117.5,123.65 " fill="none" id="CoursPlanifie-&gt;SeanceCours" style="stroke: #A80036; stroke-width: 1.0;"/><polygon fill="#A80036" points="117.5,128.67,121.5,119.67,117.5,123.67,113.5,119.67,117.5,128.67" style="stroke: #A80036; stroke-width: 1.0;"/><text fill="#000000" font-family="sans-serif" font-size="13" lengthAdjust="spacingAndGlyphs" textLength="8" x="108.675" y="89.5149">1</text><text fill="#000000" font-family="sans-serif" font-size="13" lengthAdjust="spacingAndGlyphs" textLength="22" x="92.6813" y="118.1217">0..*</text><!--
@startuml CoursSeanceAssociationDirigee
skinparam classAttributeIconSize 0
skinparam class {
    BackgroundColor White
    BorderColor #000
}

CoursPlanifie "1" - -> "0..*" SeanceCours

class CoursPlanifie {
    - m_seancesCours: List<SeanceCours>
}
class SeanceCours {
}
@enduml

PlantUML version 1.2019.09(Mon Aug 26 12:19:51 EDT 2019)
(GPL source distribution)
Java Runtime: OpenJDK Runtime Environment
JVM: OpenJDK 64-Bit Server VM
Java Version: 13.0.2+8
Operating System: Mac OS X
OS Version: 10.15.2
Default Encoding: UTF-8
Language: fr
Country: CA
--></g></svg>