<?xml version="1.0" encoding="us-ascii" standalone="no"?><svg xmlns="http://www.w3.org/2000/svg" xmlns:xlink="http://www.w3.org/1999/xlink" contentStyleType="text/css" height="665px" preserveAspectRatio="none" style="width:2077px;height:665px;background:#FFFFFF;" version="1.1" viewBox="0 0 2077 665" width="2077px" zoomAndPan="magnify"><defs/><g><!--class ExecutionTransaction--><g id="elem_ExecutionTransaction"><rect codeLine="1" fill="#F1F1F1" height="153.6563" id="ExecutionTransaction" rx="2.5" ry="2.5" style="stroke:#181818;stroke-width:0.5;" width="447" x="394" y="51"/><ellipse cx="545.25" cy="67" fill="#ADD1B2" rx="11" ry="11" style="stroke:#181818;stroke-width:1.0;"/><path d="M548.0156,62.875 Q548.1719,62.6563 548.3594,62.5469 Q548.5469,62.4375 548.7656,62.4375 Q549.1406,62.4375 549.375,62.6953 Q549.6094,62.9531 549.6094,63.5625 L549.6094,65.0156 Q549.6094,65.625 549.375,65.8906 Q549.1406,66.1563 548.7656,66.1563 Q548.4219,66.1563 548.2188,65.9531 Q548.0156,65.7656 547.9063,65.25 Q547.8594,64.8906 547.6719,64.7031 Q547.3438,64.3281 546.7344,64.1094 Q546.125,63.8906 545.5,63.8906 Q544.7344,63.8906 544.1016,64.2188 Q543.4688,64.5469 542.9766,65.2969 Q542.4844,66.0469 542.4844,67.0781 L542.4844,68.1719 Q542.4844,69.4063 543.375,70.2266 Q544.2656,71.0469 545.8594,71.0469 Q546.7969,71.0469 547.4531,70.7969 Q547.8438,70.6406 548.2656,70.2031 Q548.5313,69.9375 548.6797,69.8594 Q548.8281,69.7813 549.0313,69.7813 Q549.3594,69.7813 549.6172,70.0391 Q549.875,70.2969 549.875,70.6406 Q549.875,70.9844 549.5313,71.3906 Q549.0313,71.9688 548.2344,72.2969 Q547.1563,72.75 545.8594,72.75 Q544.3438,72.75 543.1406,72.125 Q542.1563,71.625 541.4688,70.5547 Q540.7813,69.4844 540.7813,68.2031 L540.7813,67.0469 Q540.7813,65.7188 541.3984,64.5703 Q542.0156,63.4219 543.1094,62.8047 Q544.2031,62.1875 545.4375,62.1875 Q546.1719,62.1875 546.8203,62.3516 Q547.4688,62.5156 548.0156,62.875 Z " fill="#000000"/><text fill="#000000" font-family="sans-serif" font-size="14" lengthAdjust="spacing" textLength="136" x="565.75" y="72.7285">ExecutionTransaction</text><line style="stroke:#181818;stroke-width:0.5;" x1="395" x2="840" y1="83" y2="83"/><ellipse cx="405" cy="97.3047" fill="none" rx="3" ry="3" style="stroke:#038048;stroke-width:1.0;"/><text fill="#000000" font-family="sans-serif" font-size="14" lengthAdjust="spacing" textLength="136" x="414" y="101.5332">Solde : decimal &#171;get&#187;</text><ellipse cx="405" cy="114.9141" fill="none" rx="3" ry="3" style="stroke:#038048;stroke-width:1.0;"/><text fill="#000000" font-family="sans-serif" font-size="14" lengthAdjust="spacing" textLength="234" x="414" y="119.1426">&#171;const&#187; LARGEUR_SOLDE : int = 20</text><ellipse cx="405" cy="132.5234" fill="none" rx="3" ry="3" style="stroke:#038048;stroke-width:1.0;"/><text fill="#000000" font-family="sans-serif" font-size="14" lengthAdjust="spacing" text-decoration="underline" textLength="270" x="414" y="136.752">LigneIntersectionTransaction : string &#171;get&#187;</text><ellipse cx="405" cy="150.1328" fill="none" rx="3" ry="3" style="stroke:#038048;stroke-width:1.0;"/><text fill="#000000" font-family="sans-serif" font-size="14" lengthAdjust="spacing" text-decoration="underline" textLength="203" x="414" y="154.3613">EnteteTransaction : string &#171;get&#187;</text><line style="stroke:#181818;stroke-width:0.5;" x1="395" x2="840" y1="161.4375" y2="161.4375"/><ellipse cx="405" cy="175.7422" fill="#84BE84" rx="3" ry="3" style="stroke:#038048;stroke-width:1.0;"/><text fill="#000000" font-family="sans-serif" font-size="14" lengthAdjust="spacing" textLength="421" x="414" y="179.9707">ExecutionTransaction(p_transaction:Transaction, p_solde:decimal)</text><ellipse cx="405" cy="193.3516" fill="#84BE84" rx="3" ry="3" style="stroke:#038048;stroke-width:1.0;"/><text fill="#000000" font-family="sans-serif" font-size="14" lengthAdjust="spacing" textLength="245" x="414" y="197.5801">&#171;sealed&#187; &#171;override&#187; ToString() : string</text></g><!--class Transaction--><g id="elem_Transaction"><rect codeLine="16" fill="#F1F1F1" height="206.4844" id="Transaction" rx="2.5" ry="2.5" style="stroke:#181818;stroke-width:0.5;" width="599" x="318" y="309"/><ellipse cx="575.75" cy="325" fill="#ADD1B2" rx="11" ry="11" style="stroke:#181818;stroke-width:1.0;"/><path d="M578.5156,320.875 Q578.6719,320.6563 578.8594,320.5469 Q579.0469,320.4375 579.2656,320.4375 Q579.6406,320.4375 579.875,320.6953 Q580.1094,320.9531 580.1094,321.5625 L580.1094,323.0156 Q580.1094,323.625 579.875,323.8906 Q579.6406,324.1563 579.2656,324.1563 Q578.9219,324.1563 578.7188,323.9531 Q578.5156,323.7656 578.4063,323.25 Q578.3594,322.8906 578.1719,322.7031 Q577.8438,322.3281 577.2344,322.1094 Q576.625,321.8906 576,321.8906 Q575.2344,321.8906 574.6016,322.2188 Q573.9688,322.5469 573.4766,323.2969 Q572.9844,324.0469 572.9844,325.0781 L572.9844,326.1719 Q572.9844,327.4063 573.875,328.2266 Q574.7656,329.0469 576.3594,329.0469 Q577.2969,329.0469 577.9531,328.7969 Q578.3438,328.6406 578.7656,328.2031 Q579.0313,327.9375 579.1797,327.8594 Q579.3281,327.7813 579.5313,327.7813 Q579.8594,327.7813 580.1172,328.0391 Q580.375,328.2969 580.375,328.6406 Q580.375,328.9844 580.0313,329.3906 Q579.5313,329.9688 578.7344,330.2969 Q577.6563,330.75 576.3594,330.75 Q574.8438,330.75 573.6406,330.125 Q572.6563,329.625 571.9688,328.5547 Q571.2813,327.4844 571.2813,326.2031 L571.2813,325.0469 Q571.2813,323.7188 571.8984,322.5703 Q572.5156,321.4219 573.6094,320.8047 Q574.7031,320.1875 575.9375,320.1875 Q576.6719,320.1875 577.3203,320.3516 Q577.9688,320.5156 578.5156,320.875 Z " fill="#000000"/><text fill="#000000" font-family="sans-serif" font-size="14" lengthAdjust="spacing" textLength="75" x="596.25" y="330.7285">Transaction</text><line style="stroke:#181818;stroke-width:0.5;" x1="319" x2="916" y1="341" y2="341"/><ellipse cx="329" cy="355.3047" fill="none" rx="3" ry="3" style="stroke:#038048;stroke-width:1.0;"/><text fill="#000000" font-family="sans-serif" font-size="14" lengthAdjust="spacing" textLength="158" x="338" y="359.5332">Description : string &#171;get&#187;</text><ellipse cx="329" cy="372.9141" fill="none" rx="3" ry="3" style="stroke:#038048;stroke-width:1.0;"/><text fill="#000000" font-family="sans-serif" font-size="14" lengthAdjust="spacing" textLength="151" x="338" y="377.1426">Montant : decimal &#171;get&#187;</text><ellipse cx="329" cy="390.5234" fill="none" rx="3" ry="3" style="stroke:#038048;stroke-width:1.0;"/><text fill="#000000" font-family="sans-serif" font-size="14" lengthAdjust="spacing" textLength="279" x="338" y="394.752">&#171;const&#187; LARGEUR_DESCRIPTION : int = 40</text><ellipse cx="329" cy="408.1328" fill="none" rx="3" ry="3" style="stroke:#038048;stroke-width:1.0;"/><text fill="#000000" font-family="sans-serif" font-size="14" lengthAdjust="spacing" textLength="215" x="338" y="412.3613">&#171;const&#187; LARGEUR_TYPE : int = 6</text><ellipse cx="329" cy="425.7422" fill="none" rx="3" ry="3" style="stroke:#038048;stroke-width:1.0;"/><text fill="#000000" font-family="sans-serif" font-size="14" lengthAdjust="spacing" textLength="254" x="338" y="429.9707">&#171;const&#187; LARGEUR_MONTANT : int = 15</text><ellipse cx="329" cy="443.3516" fill="none" rx="3" ry="3" style="stroke:#038048;stroke-width:1.0;"/><text fill="#000000" font-family="sans-serif" font-size="14" lengthAdjust="spacing" text-decoration="underline" textLength="270" x="338" y="447.5801">LigneIntersectionTransaction : string &#171;get&#187;</text><ellipse cx="329" cy="460.9609" fill="none" rx="3" ry="3" style="stroke:#038048;stroke-width:1.0;"/><text fill="#000000" font-family="sans-serif" font-size="14" lengthAdjust="spacing" text-decoration="underline" textLength="203" x="338" y="465.1895">EnteteTransaction : string &#171;get&#187;</text><line style="stroke:#181818;stroke-width:0.5;" x1="319" x2="916" y1="472.2656" y2="472.2656"/><ellipse cx="329" cy="486.5703" fill="#84BE84" rx="3" ry="3" style="stroke:#038048;stroke-width:1.0;"/><text fill="#000000" font-family="sans-serif" font-size="14" lengthAdjust="spacing" textLength="573" x="338" y="490.7988">Transaction(p_typeTransaction:TypeTransaction, p_montant:decimal, p_description:string)</text><ellipse cx="329" cy="504.1797" fill="#84BE84" rx="3" ry="3" style="stroke:#038048;stroke-width:1.0;"/><text fill="#000000" font-family="sans-serif" font-size="14" lengthAdjust="spacing" textLength="245" x="338" y="508.4082">&#171;sealed&#187; &#171;override&#187; ToString() : string</text></g><!--class Program--><g id="elem_Program"><rect codeLine="10" fill="#F1F1F1" height="65.6094" id="Program" rx="2.5" ry="2.5" style="stroke:#181818;stroke-width:0.5;" width="165" x="907" y="95"/><ellipse cx="958.25" cy="111" fill="#ADD1B2" rx="11" ry="11" style="stroke:#181818;stroke-width:1.0;"/><path d="M961.0156,106.875 Q961.1719,106.6563 961.3594,106.5469 Q961.5469,106.4375 961.7656,106.4375 Q962.1406,106.4375 962.375,106.6953 Q962.6094,106.9531 962.6094,107.5625 L962.6094,109.0156 Q962.6094,109.625 962.375,109.8906 Q962.1406,110.1563 961.7656,110.1563 Q961.4219,110.1563 961.2188,109.9531 Q961.0156,109.7656 960.9063,109.25 Q960.8594,108.8906 960.6719,108.7031 Q960.3438,108.3281 959.7344,108.1094 Q959.125,107.8906 958.5,107.8906 Q957.7344,107.8906 957.1016,108.2188 Q956.4688,108.5469 955.9766,109.2969 Q955.4844,110.0469 955.4844,111.0781 L955.4844,112.1719 Q955.4844,113.4063 956.375,114.2266 Q957.2656,115.0469 958.8594,115.0469 Q959.7969,115.0469 960.4531,114.7969 Q960.8438,114.6406 961.2656,114.2031 Q961.5313,113.9375 961.6797,113.8594 Q961.8281,113.7813 962.0313,113.7813 Q962.3594,113.7813 962.6172,114.0391 Q962.875,114.2969 962.875,114.6406 Q962.875,114.9844 962.5313,115.3906 Q962.0313,115.9688 961.2344,116.2969 Q960.1563,116.75 958.8594,116.75 Q957.3438,116.75 956.1406,116.125 Q955.1563,115.625 954.4688,114.5547 Q953.7813,113.4844 953.7813,112.2031 L953.7813,111.0469 Q953.7813,109.7188 954.3984,108.5703 Q955.0156,107.4219 956.1094,106.8047 Q957.2031,106.1875 958.4375,106.1875 Q959.1719,106.1875 959.8203,106.3516 Q960.4688,106.5156 961.0156,106.875 Z " fill="#000000"/><text fill="#000000" font-family="sans-serif" font-size="14" lengthAdjust="spacing" textLength="54" x="978.75" y="116.7285">Program</text><line style="stroke:#181818;stroke-width:0.5;" x1="908" x2="1071" y1="127" y2="127"/><line style="stroke:#181818;stroke-width:0.5;" x1="908" x2="1071" y1="135" y2="135"/><text fill="#000000" font-family="sans-serif" font-size="14" lengthAdjust="spacing" text-decoration="underline" textLength="153" x="913" y="153.5332">Main(args:string[]) : void</text></g><!--class StringExtensions--><g id="elem_StringExtensions"><rect codeLine="13" fill="#F1F1F1" height="76.3125" id="StringExtensions" rx="2.5" ry="2.5" style="stroke:#181818;stroke-width:0.5;" width="290" x="1123.5" y="90"/><ellipse cx="1211.75" cy="111.3516" fill="#ADD1B2" rx="11" ry="11" style="stroke:#181818;stroke-width:1.0;"/><path d="M1214.5156,107.2266 Q1214.6719,107.0078 1214.8594,106.8984 Q1215.0469,106.7891 1215.2656,106.7891 Q1215.6406,106.7891 1215.875,107.0469 Q1216.1094,107.3047 1216.1094,107.9141 L1216.1094,109.3672 Q1216.1094,109.9766 1215.875,110.2422 Q1215.6406,110.5078 1215.2656,110.5078 Q1214.9219,110.5078 1214.7188,110.3047 Q1214.5156,110.1172 1214.4063,109.6016 Q1214.3594,109.2422 1214.1719,109.0547 Q1213.8438,108.6797 1213.2344,108.4609 Q1212.625,108.2422 1212,108.2422 Q1211.2344,108.2422 1210.6016,108.5703 Q1209.9688,108.8984 1209.4766,109.6484 Q1208.9844,110.3984 1208.9844,111.4297 L1208.9844,112.5234 Q1208.9844,113.7578 1209.875,114.5781 Q1210.7656,115.3984 1212.3594,115.3984 Q1213.2969,115.3984 1213.9531,115.1484 Q1214.3438,114.9922 1214.7656,114.5547 Q1215.0313,114.2891 1215.1797,114.2109 Q1215.3281,114.1328 1215.5313,114.1328 Q1215.8594,114.1328 1216.1172,114.3906 Q1216.375,114.6484 1216.375,114.9922 Q1216.375,115.3359 1216.0313,115.7422 Q1215.5313,116.3203 1214.7344,116.6484 Q1213.6563,117.1016 1212.3594,117.1016 Q1210.8438,117.1016 1209.6406,116.4766 Q1208.6563,115.9766 1207.9688,114.9063 Q1207.2813,113.8359 1207.2813,112.5547 L1207.2813,111.3984 Q1207.2813,110.0703 1207.8984,108.9219 Q1208.5156,107.7734 1209.6094,107.1563 Q1210.7031,106.5391 1211.9375,106.5391 Q1212.6719,106.5391 1213.3203,106.7031 Q1213.9688,106.8672 1214.5156,107.2266 Z " fill="#000000"/><text fill="#000000" font-family="sans-serif" font-size="12" font-style="italic" lengthAdjust="spacing" textLength="42" x="1263.75" y="107.457">&#171;static&#187;</text><text fill="#000000" font-family="sans-serif" font-size="14" lengthAdjust="spacing" textLength="105" x="1232.25" y="124.627">StringExtensions</text><line style="stroke:#181818;stroke-width:0.5;" x1="1124.5" x2="1412.5" y1="132.7031" y2="132.7031"/><line style="stroke:#181818;stroke-width:0.5;" x1="1124.5" x2="1412.5" y1="140.7031" y2="140.7031"/><ellipse cx="1134.5" cy="155.0078" fill="#84BE84" rx="3" ry="3" style="stroke:#038048;stroke-width:1.0;"/><text fill="#000000" font-family="sans-serif" font-size="14" lengthAdjust="spacing" text-decoration="underline" textLength="264" x="1143.5" y="159.2363">PadBoth(p_str:string, p_length:int) : string</text></g><!--class TypeTransaction--><g id="elem_TypeTransaction"><rect codeLine="36" fill="#F1F1F1" height="83.2188" id="TypeTransaction" rx="2.5" ry="2.5" style="stroke:#181818;stroke-width:0.5;" width="139" x="7" y="575"/><ellipse cx="22" cy="591" fill="#EB937F" rx="11" ry="11" style="stroke:#181818;stroke-width:1.0;"/><path d="M20.8594,591.7969 L20.8594,594.2969 L25.1875,594.2969 L25.1875,593.375 Q25.1875,592.7656 25.4297,592.5 Q25.6719,592.2344 26.0469,592.2344 Q26.4219,592.2344 26.6563,592.5 Q26.8906,592.7656 26.8906,593.375 L26.8906,596 L18.8906,596 Q18.2656,596 18.0078,595.7656 Q17.75,595.5313 17.75,595.1406 Q17.75,594.7656 18.0156,594.5313 Q18.2813,594.2969 18.8906,594.2969 L19.1563,594.2969 L19.1563,587.6406 L18.8906,587.6406 Q18.2656,587.6406 18.0078,587.4063 Q17.75,587.1719 17.75,586.7813 Q17.75,586.4063 18.0078,586.1719 Q18.2656,585.9375 18.8906,585.9375 L26.5156,585.9375 L26.5156,588.5313 Q26.5156,589.1406 26.2891,589.3984 Q26.0625,589.6563 25.6719,589.6563 Q25.2969,589.6563 25.0625,589.3984 Q24.8281,589.1406 24.8281,588.5313 L24.8281,587.6406 L20.8594,587.6406 L20.8594,590.0938 L22.3438,590.0938 Q22.3438,589.4375 22.4688,589.25 Q22.7344,588.8438 23.2031,588.8438 Q23.5781,588.8438 23.8125,589.1016 Q24.0469,589.3594 24.0469,589.9688 L24.0469,591.9375 Q24.0469,592.4844 23.9219,592.6719 Q23.6563,593.0625 23.2031,593.0625 Q22.7344,593.0625 22.4688,592.6563 Q22.3438,592.4688 22.3438,591.7969 L20.8594,591.7969 Z " fill="#000000"/><text fill="#000000" font-family="sans-serif" font-size="14" lengthAdjust="spacing" textLength="107" x="36" y="596.7285">TypeTransaction</text><line style="stroke:#181818;stroke-width:0.5;" x1="8" x2="145" y1="607" y2="607"/><text fill="#000000" font-family="sans-serif" font-size="14" lengthAdjust="spacing" textLength="44" x="13" y="625.5332">DEBIT,</text><text fill="#000000" font-family="sans-serif" font-size="14" lengthAdjust="spacing" textLength="55" x="13" y="643.1426">CREDIT,</text><line style="stroke:#181818;stroke-width:0.5;" x1="8" x2="145" y1="650.2188" y2="650.2188"/></g><!--class TransactionInteret--><g id="elem_TransactionInteret"><rect codeLine="28" fill="#F1F1F1" height="65.6094" id="TransactionInteret" rx="2.5" ry="2.5" style="stroke:#181818;stroke-width:0.5;" width="270" x="181.5" y="583.5"/><ellipse cx="254.75" cy="599.5" fill="#ADD1B2" rx="11" ry="11" style="stroke:#181818;stroke-width:1.0;"/><path d="M257.5156,595.375 Q257.6719,595.1563 257.8594,595.0469 Q258.0469,594.9375 258.2656,594.9375 Q258.6406,594.9375 258.875,595.1953 Q259.1094,595.4531 259.1094,596.0625 L259.1094,597.5156 Q259.1094,598.125 258.875,598.3906 Q258.6406,598.6563 258.2656,598.6563 Q257.9219,598.6563 257.7188,598.4531 Q257.5156,598.2656 257.4063,597.75 Q257.3594,597.3906 257.1719,597.2031 Q256.8438,596.8281 256.2344,596.6094 Q255.625,596.3906 255,596.3906 Q254.2344,596.3906 253.6016,596.7188 Q252.9688,597.0469 252.4766,597.7969 Q251.9844,598.5469 251.9844,599.5781 L251.9844,600.6719 Q251.9844,601.9063 252.875,602.7266 Q253.7656,603.5469 255.3594,603.5469 Q256.2969,603.5469 256.9531,603.2969 Q257.3438,603.1406 257.7656,602.7031 Q258.0313,602.4375 258.1797,602.3594 Q258.3281,602.2813 258.5313,602.2813 Q258.8594,602.2813 259.1172,602.5391 Q259.375,602.7969 259.375,603.1406 Q259.375,603.4844 259.0313,603.8906 Q258.5313,604.4688 257.7344,604.7969 Q256.6563,605.25 255.3594,605.25 Q253.8438,605.25 252.6406,604.625 Q251.6563,604.125 250.9688,603.0547 Q250.2813,601.9844 250.2813,600.7031 L250.2813,599.5469 Q250.2813,598.2188 250.8984,597.0703 Q251.5156,595.9219 252.6094,595.3047 Q253.7031,594.6875 254.9375,594.6875 Q255.6719,594.6875 256.3203,594.8516 Q256.9688,595.0156 257.5156,595.375 Z " fill="#000000"/><text fill="#000000" font-family="sans-serif" font-size="14" lengthAdjust="spacing" textLength="115" x="275.25" y="605.2285">TransactionInteret</text><line style="stroke:#181818;stroke-width:0.5;" x1="182.5" x2="450.5" y1="615.5" y2="615.5"/><line style="stroke:#181818;stroke-width:0.5;" x1="182.5" x2="450.5" y1="623.5" y2="623.5"/><ellipse cx="192.5" cy="637.8047" fill="#84BE84" rx="3" ry="3" style="stroke:#038048;stroke-width:1.0;"/><text fill="#000000" font-family="sans-serif" font-size="14" lengthAdjust="spacing" textLength="244" x="201.5" y="642.0332">TransactionInteret(p_montant:decimal)</text></g><!--class TransactionFrais--><g id="elem_TransactionFrais"><rect codeLine="32" fill="#F1F1F1" height="65.6094" id="TransactionFrais" rx="2.5" ry="2.5" style="stroke:#181818;stroke-width:0.5;" width="262" x="486.5" y="583.5"/><ellipse cx="559.75" cy="599.5" fill="#ADD1B2" rx="11" ry="11" style="stroke:#181818;stroke-width:1.0;"/><path d="M562.5156,595.375 Q562.6719,595.1563 562.8594,595.0469 Q563.0469,594.9375 563.2656,594.9375 Q563.6406,594.9375 563.875,595.1953 Q564.1094,595.4531 564.1094,596.0625 L564.1094,597.5156 Q564.1094,598.125 563.875,598.3906 Q563.6406,598.6563 563.2656,598.6563 Q562.9219,598.6563 562.7188,598.4531 Q562.5156,598.2656 562.4063,597.75 Q562.3594,597.3906 562.1719,597.2031 Q561.8438,596.8281 561.2344,596.6094 Q560.625,596.3906 560,596.3906 Q559.2344,596.3906 558.6016,596.7188 Q557.9688,597.0469 557.4766,597.7969 Q556.9844,598.5469 556.9844,599.5781 L556.9844,600.6719 Q556.9844,601.9063 557.875,602.7266 Q558.7656,603.5469 560.3594,603.5469 Q561.2969,603.5469 561.9531,603.2969 Q562.3438,603.1406 562.7656,602.7031 Q563.0313,602.4375 563.1797,602.3594 Q563.3281,602.2813 563.5313,602.2813 Q563.8594,602.2813 564.1172,602.5391 Q564.375,602.7969 564.375,603.1406 Q564.375,603.4844 564.0313,603.8906 Q563.5313,604.4688 562.7344,604.7969 Q561.6563,605.25 560.3594,605.25 Q558.8438,605.25 557.6406,604.625 Q556.6563,604.125 555.9688,603.0547 Q555.2813,601.9844 555.2813,600.7031 L555.2813,599.5469 Q555.2813,598.2188 555.8984,597.0703 Q556.5156,595.9219 557.6094,595.3047 Q558.7031,594.6875 559.9375,594.6875 Q560.6719,594.6875 561.3203,594.8516 Q561.9688,595.0156 562.5156,595.375 Z " fill="#000000"/><text fill="#000000" font-family="sans-serif" font-size="14" lengthAdjust="spacing" textLength="107" x="580.25" y="605.2285">TransactionFrais</text><line style="stroke:#181818;stroke-width:0.5;" x1="487.5" x2="747.5" y1="615.5" y2="615.5"/><line style="stroke:#181818;stroke-width:0.5;" x1="487.5" x2="747.5" y1="623.5" y2="623.5"/><ellipse cx="497.5" cy="637.8047" fill="#84BE84" rx="3" ry="3" style="stroke:#038048;stroke-width:1.0;"/><text fill="#000000" font-family="sans-serif" font-size="14" lengthAdjust="spacing" textLength="236" x="506.5" y="642.0332">TransactionFrais(p_montant:decimal)</text></g><!--class TransactionRetrait--><g id="elem_TransactionRetrait"><rect codeLine="40" fill="#F1F1F1" height="65.6094" id="TransactionRetrait" rx="2.5" ry="2.5" style="stroke:#181818;stroke-width:0.5;" width="272" x="783.5" y="583.5"/><ellipse cx="856.75" cy="599.5" fill="#ADD1B2" rx="11" ry="11" style="stroke:#181818;stroke-width:1.0;"/><path d="M859.5156,595.375 Q859.6719,595.1563 859.8594,595.0469 Q860.0469,594.9375 860.2656,594.9375 Q860.6406,594.9375 860.875,595.1953 Q861.1094,595.4531 861.1094,596.0625 L861.1094,597.5156 Q861.1094,598.125 860.875,598.3906 Q860.6406,598.6563 860.2656,598.6563 Q859.9219,598.6563 859.7188,598.4531 Q859.5156,598.2656 859.4063,597.75 Q859.3594,597.3906 859.1719,597.2031 Q858.8438,596.8281 858.2344,596.6094 Q857.625,596.3906 857,596.3906 Q856.2344,596.3906 855.6016,596.7188 Q854.9688,597.0469 854.4766,597.7969 Q853.9844,598.5469 853.9844,599.5781 L853.9844,600.6719 Q853.9844,601.9063 854.875,602.7266 Q855.7656,603.5469 857.3594,603.5469 Q858.2969,603.5469 858.9531,603.2969 Q859.3438,603.1406 859.7656,602.7031 Q860.0313,602.4375 860.1797,602.3594 Q860.3281,602.2813 860.5313,602.2813 Q860.8594,602.2813 861.1172,602.5391 Q861.375,602.7969 861.375,603.1406 Q861.375,603.4844 861.0313,603.8906 Q860.5313,604.4688 859.7344,604.7969 Q858.6563,605.25 857.3594,605.25 Q855.8438,605.25 854.6406,604.625 Q853.6563,604.125 852.9688,603.0547 Q852.2813,601.9844 852.2813,600.7031 L852.2813,599.5469 Q852.2813,598.2188 852.8984,597.0703 Q853.5156,595.9219 854.6094,595.3047 Q855.7031,594.6875 856.9375,594.6875 Q857.6719,594.6875 858.3203,594.8516 Q858.9688,595.0156 859.5156,595.375 Z " fill="#000000"/><text fill="#000000" font-family="sans-serif" font-size="14" lengthAdjust="spacing" textLength="117" x="877.25" y="605.2285">TransactionRetrait</text><line style="stroke:#181818;stroke-width:0.5;" x1="784.5" x2="1054.5" y1="615.5" y2="615.5"/><line style="stroke:#181818;stroke-width:0.5;" x1="784.5" x2="1054.5" y1="623.5" y2="623.5"/><ellipse cx="794.5" cy="637.8047" fill="#84BE84" rx="3" ry="3" style="stroke:#038048;stroke-width:1.0;"/><text fill="#000000" font-family="sans-serif" font-size="14" lengthAdjust="spacing" textLength="246" x="803.5" y="642.0332">TransactionRetrait(p_montant:decimal)</text></g><!--class TransactionDepot--><g id="elem_TransactionDepot"><rect codeLine="44" fill="#F1F1F1" height="65.6094" id="TransactionDepot" rx="2.5" ry="2.5" style="stroke:#181818;stroke-width:0.5;" width="268" x="1090.5" y="583.5"/><ellipse cx="1163.75" cy="599.5" fill="#ADD1B2" rx="11" ry="11" style="stroke:#181818;stroke-width:1.0;"/><path d="M1166.5156,595.375 Q1166.6719,595.1563 1166.8594,595.0469 Q1167.0469,594.9375 1167.2656,594.9375 Q1167.6406,594.9375 1167.875,595.1953 Q1168.1094,595.4531 1168.1094,596.0625 L1168.1094,597.5156 Q1168.1094,598.125 1167.875,598.3906 Q1167.6406,598.6563 1167.2656,598.6563 Q1166.9219,598.6563 1166.7188,598.4531 Q1166.5156,598.2656 1166.4063,597.75 Q1166.3594,597.3906 1166.1719,597.2031 Q1165.8438,596.8281 1165.2344,596.6094 Q1164.625,596.3906 1164,596.3906 Q1163.2344,596.3906 1162.6016,596.7188 Q1161.9688,597.0469 1161.4766,597.7969 Q1160.9844,598.5469 1160.9844,599.5781 L1160.9844,600.6719 Q1160.9844,601.9063 1161.875,602.7266 Q1162.7656,603.5469 1164.3594,603.5469 Q1165.2969,603.5469 1165.9531,603.2969 Q1166.3438,603.1406 1166.7656,602.7031 Q1167.0313,602.4375 1167.1797,602.3594 Q1167.3281,602.2813 1167.5313,602.2813 Q1167.8594,602.2813 1168.1172,602.5391 Q1168.375,602.7969 1168.375,603.1406 Q1168.375,603.4844 1168.0313,603.8906 Q1167.5313,604.4688 1166.7344,604.7969 Q1165.6563,605.25 1164.3594,605.25 Q1162.8438,605.25 1161.6406,604.625 Q1160.6563,604.125 1159.9688,603.0547 Q1159.2813,601.9844 1159.2813,600.7031 L1159.2813,599.5469 Q1159.2813,598.2188 1159.8984,597.0703 Q1160.5156,595.9219 1161.6094,595.3047 Q1162.7031,594.6875 1163.9375,594.6875 Q1164.6719,594.6875 1165.3203,594.8516 Q1165.9688,595.0156 1166.5156,595.375 Z " fill="#000000"/><text fill="#000000" font-family="sans-serif" font-size="14" lengthAdjust="spacing" textLength="113" x="1184.25" y="605.2285">TransactionDepot</text><line style="stroke:#181818;stroke-width:0.5;" x1="1091.5" x2="1357.5" y1="615.5" y2="615.5"/><line style="stroke:#181818;stroke-width:0.5;" x1="1091.5" x2="1357.5" y1="623.5" y2="623.5"/><ellipse cx="1101.5" cy="637.8047" fill="#84BE84" rx="3" ry="3" style="stroke:#038048;stroke-width:1.0;"/><text fill="#000000" font-family="sans-serif" font-size="14" lengthAdjust="spacing" textLength="242" x="1110.5" y="642.0332">TransactionDepot(p_montant:decimal)</text></g><!--class CompteAvecMargeCredit--><g id="elem_CompteAvecMargeCredit"><rect codeLine="48" fill="#F1F1F1" height="171.2656" id="CompteAvecMargeCredit" rx="2.5" ry="2.5" style="stroke:#181818;stroke-width:0.5;" width="468" x="1179.5" y="326.5"/><ellipse cx="1330.25" cy="342.5" fill="#ADD1B2" rx="11" ry="11" style="stroke:#181818;stroke-width:1.0;"/><path d="M1333.0156,338.375 Q1333.1719,338.1563 1333.3594,338.0469 Q1333.5469,337.9375 1333.7656,337.9375 Q1334.1406,337.9375 1334.375,338.1953 Q1334.6094,338.4531 1334.6094,339.0625 L1334.6094,340.5156 Q1334.6094,341.125 1334.375,341.3906 Q1334.1406,341.6563 1333.7656,341.6563 Q1333.4219,341.6563 1333.2188,341.4531 Q1333.0156,341.2656 1332.9063,340.75 Q1332.8594,340.3906 1332.6719,340.2031 Q1332.3438,339.8281 1331.7344,339.6094 Q1331.125,339.3906 1330.5,339.3906 Q1329.7344,339.3906 1329.1016,339.7188 Q1328.4688,340.0469 1327.9766,340.7969 Q1327.4844,341.5469 1327.4844,342.5781 L1327.4844,343.6719 Q1327.4844,344.9063 1328.375,345.7266 Q1329.2656,346.5469 1330.8594,346.5469 Q1331.7969,346.5469 1332.4531,346.2969 Q1332.8438,346.1406 1333.2656,345.7031 Q1333.5313,345.4375 1333.6797,345.3594 Q1333.8281,345.2813 1334.0313,345.2813 Q1334.3594,345.2813 1334.6172,345.5391 Q1334.875,345.7969 1334.875,346.1406 Q1334.875,346.4844 1334.5313,346.8906 Q1334.0313,347.4688 1333.2344,347.7969 Q1332.1563,348.25 1330.8594,348.25 Q1329.3438,348.25 1328.1406,347.625 Q1327.1563,347.125 1326.4688,346.0547 Q1325.7813,344.9844 1325.7813,343.7031 L1325.7813,342.5469 Q1325.7813,341.2188 1326.3984,340.0703 Q1327.0156,338.9219 1328.1094,338.3047 Q1329.2031,337.6875 1330.4375,337.6875 Q1331.1719,337.6875 1331.8203,337.8516 Q1332.4688,338.0156 1333.0156,338.375 Z " fill="#000000"/><text fill="#000000" font-family="sans-serif" font-size="14" lengthAdjust="spacing" textLength="158" x="1350.75" y="348.2285">CompteAvecMargeCredit</text><line style="stroke:#181818;stroke-width:0.5;" x1="1180.5" x2="1646.5" y1="358.5" y2="358.5"/><ellipse cx="1190.5" cy="372.8047" fill="none" rx="3" ry="3" style="stroke:#038048;stroke-width:1.0;"/><text fill="#000000" font-family="sans-serif" font-size="14" lengthAdjust="spacing" textLength="442" x="1199.5" y="377.0332">&#171;override&#187; Description : string &#171;get&#187; = "Compte avec marge de cr&#233;dit"</text><ellipse cx="1190.5" cy="390.4141" fill="none" rx="3" ry="3" style="stroke:#038048;stroke-width:1.0;"/><text fill="#000000" font-family="sans-serif" font-size="14" lengthAdjust="spacing" textLength="314" x="1199.5" y="394.6426">&#171;const&#187; FRAIS_TRANSACTION : decimal = 0.25m</text><ellipse cx="1190.5" cy="408.0234" fill="none" rx="3" ry="3" style="stroke:#038048;stroke-width:1.0;"/><text fill="#000000" font-family="sans-serif" font-size="14" lengthAdjust="spacing" textLength="270" x="1199.5" y="412.252">&#171;const&#187; TAUX_INTERET : decimal = 0.05m</text><line style="stroke:#181818;stroke-width:0.5;" x1="1180.5" x2="1646.5" y1="419.3281" y2="419.3281"/><ellipse cx="1190.5" cy="433.6328" fill="#84BE84" rx="3" ry="3" style="stroke:#038048;stroke-width:1.0;"/><text fill="#000000" font-family="sans-serif" font-size="14" lengthAdjust="spacing" textLength="168" x="1199.5" y="437.8613">CompteAvecMargeCredit()</text><ellipse cx="1190.5" cy="451.2422" fill="#84BE84" rx="3" ry="3" style="stroke:#038048;stroke-width:1.0;"/><text fill="#000000" font-family="sans-serif" font-size="14" lengthAdjust="spacing" textLength="270" x="1199.5" y="455.4707">CompteAvecMargeCredit(p_solde:decimal)</text><ellipse cx="1190.5" cy="468.8516" fill="#84BE84" rx="3" ry="3" style="stroke:#038048;stroke-width:1.0;"/><text fill="#000000" font-family="sans-serif" font-size="14" lengthAdjust="spacing" textLength="293" x="1199.5" y="473.0801">&#171;override&#187; Deposer(p_montant:decimal) : void</text><ellipse cx="1190.5" cy="486.4609" fill="#84BE84" rx="3" ry="3" style="stroke:#038048;stroke-width:1.0;"/><text fill="#000000" font-family="sans-serif" font-size="14" lengthAdjust="spacing" textLength="282" x="1199.5" y="490.6895">&#171;override&#187; Retirer(p_montant:decimal) : void</text></g><!--class CompteBancaire--><g id="elem_CompteBancaire"><rect codeLine="65" fill="#F1F1F1" height="241.7031" id="CompteBancaire" rx="2.5" ry="2.5" style="stroke:#181818;stroke-width:0.5;" width="369" x="1457" y="7"/><ellipse cx="1584.75" cy="23" fill="#ADD1B2" rx="11" ry="11" style="stroke:#181818;stroke-width:1.0;"/><path d="M1587.5156,18.875 Q1587.6719,18.6563 1587.8594,18.5469 Q1588.0469,18.4375 1588.2656,18.4375 Q1588.6406,18.4375 1588.875,18.6953 Q1589.1094,18.9531 1589.1094,19.5625 L1589.1094,21.0156 Q1589.1094,21.625 1588.875,21.8906 Q1588.6406,22.1563 1588.2656,22.1563 Q1587.9219,22.1563 1587.7188,21.9531 Q1587.5156,21.7656 1587.4063,21.25 Q1587.3594,20.8906 1587.1719,20.7031 Q1586.8438,20.3281 1586.2344,20.1094 Q1585.625,19.8906 1585,19.8906 Q1584.2344,19.8906 1583.6016,20.2188 Q1582.9688,20.5469 1582.4766,21.2969 Q1581.9844,22.0469 1581.9844,23.0781 L1581.9844,24.1719 Q1581.9844,25.4063 1582.875,26.2266 Q1583.7656,27.0469 1585.3594,27.0469 Q1586.2969,27.0469 1586.9531,26.7969 Q1587.3438,26.6406 1587.7656,26.2031 Q1588.0313,25.9375 1588.1797,25.8594 Q1588.3281,25.7813 1588.5313,25.7813 Q1588.8594,25.7813 1589.1172,26.0391 Q1589.375,26.2969 1589.375,26.6406 Q1589.375,26.9844 1589.0313,27.3906 Q1588.5313,27.9688 1587.7344,28.2969 Q1586.6563,28.75 1585.3594,28.75 Q1583.8438,28.75 1582.6406,28.125 Q1581.6563,27.625 1580.9688,26.5547 Q1580.2813,25.4844 1580.2813,24.2031 L1580.2813,23.0469 Q1580.2813,21.7188 1580.8984,20.5703 Q1581.5156,19.4219 1582.6094,18.8047 Q1583.7031,18.1875 1584.9375,18.1875 Q1585.6719,18.1875 1586.3203,18.3516 Q1586.9688,18.5156 1587.5156,18.875 Z " fill="#000000"/><text fill="#000000" font-family="sans-serif" font-size="14" lengthAdjust="spacing" textLength="105" x="1605.25" y="28.7285">CompteBancaire</text><line style="stroke:#181818;stroke-width:0.5;" x1="1458" x2="1825" y1="39" y2="39"/><ellipse cx="1468" cy="53.3047" fill="none" rx="3" ry="3" style="stroke:#038048;stroke-width:1.0;"/><text fill="#000000" font-family="sans-serif" font-size="14" lengthAdjust="spacing" textLength="136" x="1477" y="57.5332">Solde : decimal &#171;get&#187;</text><ellipse cx="1468" cy="70.9141" fill="none" rx="3" ry="3" style="stroke:#038048;stroke-width:1.0;"/><text fill="#000000" font-family="sans-serif" font-size="14" lengthAdjust="spacing" textLength="343" x="1477" y="75.1426">&#171;virtual&#187; Description : string &#171;get&#187; = "Compte g&#233;n&#233;ral"</text><ellipse cx="1468" cy="88.5234" fill="none" rx="3" ry="3" style="stroke:#038048;stroke-width:1.0;"/><text fill="#000000" font-family="sans-serif" font-size="14" lengthAdjust="spacing" textLength="286" x="1477" y="92.752">&#171;const&#187; LARGEUR_NUMERO_LIGNE : int = 5</text><ellipse cx="1468" cy="106.1328" fill="none" rx="3" ry="3" style="stroke:#038048;stroke-width:1.0;"/><text fill="#000000" font-family="sans-serif" font-size="14" lengthAdjust="spacing" text-decoration="underline" textLength="270" x="1477" y="110.3613">LigneIntersectionTransaction : string &#171;get&#187;</text><ellipse cx="1468" cy="123.7422" fill="none" rx="3" ry="3" style="stroke:#038048;stroke-width:1.0;"/><text fill="#000000" font-family="sans-serif" font-size="14" lengthAdjust="spacing" text-decoration="underline" textLength="203" x="1477" y="127.9707">EnteteTransaction : string &#171;get&#187;</text><line style="stroke:#181818;stroke-width:0.5;" x1="1458" x2="1825" y1="135.0469" y2="135.0469"/><ellipse cx="1468" cy="149.3516" fill="#84BE84" rx="3" ry="3" style="stroke:#038048;stroke-width:1.0;"/><text fill="#000000" font-family="sans-serif" font-size="14" lengthAdjust="spacing" textLength="115" x="1477" y="153.5801">CompteBancaire()</text><ellipse cx="1468" cy="166.9609" fill="#84BE84" rx="3" ry="3" style="stroke:#038048;stroke-width:1.0;"/><text fill="#000000" font-family="sans-serif" font-size="14" lengthAdjust="spacing" textLength="217" x="1477" y="171.1895">CompteBancaire(p_solde:decimal)</text><ellipse cx="1468" cy="184.5703" fill="#84BE84" rx="3" ry="3" style="stroke:#038048;stroke-width:1.0;"/><text fill="#000000" font-family="sans-serif" font-size="14" lengthAdjust="spacing" textLength="268" x="1477" y="188.7988">&#171;virtual&#187; Retirer(p_montant:decimal) : void</text><ellipse cx="1468" cy="202.1797" fill="#84BE84" rx="3" ry="3" style="stroke:#038048;stroke-width:1.0;"/><text fill="#000000" font-family="sans-serif" font-size="14" lengthAdjust="spacing" textLength="279" x="1477" y="206.4082">&#171;virtual&#187; Deposer(p_montant:decimal) : void</text><ellipse cx="1468" cy="219.7891" fill="#84BE84" rx="3" ry="3" style="stroke:#038048;stroke-width:1.0;"/><text fill="#000000" font-family="sans-serif" font-size="14" lengthAdjust="spacing" textLength="208" x="1477" y="224.0176">AfficherHistoriqueCompte() : void</text><ellipse cx="1468" cy="237.3984" fill="#84BE84" rx="3" ry="3" style="stroke:#038048;stroke-width:1.0;"/><text fill="#000000" font-family="sans-serif" font-size="14" lengthAdjust="spacing" textLength="245" x="1477" y="241.627">&#171;sealed&#187; &#171;override&#187; ToString() : string</text></g><!--class CompteAInteret--><g id="elem_CompteAInteret"><rect codeLine="58" fill="#F1F1F1" height="118.4375" id="CompteAInteret" rx="2.5" ry="2.5" style="stroke:#181818;stroke-width:0.5;" width="387" x="1683" y="353"/><ellipse cx="1823.25" cy="369" fill="#ADD1B2" rx="11" ry="11" style="stroke:#181818;stroke-width:1.0;"/><path d="M1826.0156,364.875 Q1826.1719,364.6563 1826.3594,364.5469 Q1826.5469,364.4375 1826.7656,364.4375 Q1827.1406,364.4375 1827.375,364.6953 Q1827.6094,364.9531 1827.6094,365.5625 L1827.6094,367.0156 Q1827.6094,367.625 1827.375,367.8906 Q1827.1406,368.1563 1826.7656,368.1563 Q1826.4219,368.1563 1826.2188,367.9531 Q1826.0156,367.7656 1825.9063,367.25 Q1825.8594,366.8906 1825.6719,366.7031 Q1825.3438,366.3281 1824.7344,366.1094 Q1824.125,365.8906 1823.5,365.8906 Q1822.7344,365.8906 1822.1016,366.2188 Q1821.4688,366.5469 1820.9766,367.2969 Q1820.4844,368.0469 1820.4844,369.0781 L1820.4844,370.1719 Q1820.4844,371.4063 1821.375,372.2266 Q1822.2656,373.0469 1823.8594,373.0469 Q1824.7969,373.0469 1825.4531,372.7969 Q1825.8438,372.6406 1826.2656,372.2031 Q1826.5313,371.9375 1826.6797,371.8594 Q1826.8281,371.7813 1827.0313,371.7813 Q1827.3594,371.7813 1827.6172,372.0391 Q1827.875,372.2969 1827.875,372.6406 Q1827.875,372.9844 1827.5313,373.3906 Q1827.0313,373.9688 1826.2344,374.2969 Q1825.1563,374.75 1823.8594,374.75 Q1822.3438,374.75 1821.1406,374.125 Q1820.1563,373.625 1819.4688,372.5547 Q1818.7813,371.4844 1818.7813,370.2031 L1818.7813,369.0469 Q1818.7813,367.7188 1819.3984,366.5703 Q1820.0156,365.4219 1821.1094,364.8047 Q1822.2031,364.1875 1823.4375,364.1875 Q1824.1719,364.1875 1824.8203,364.3516 Q1825.4688,364.5156 1826.0156,364.875 Z " fill="#000000"/><text fill="#000000" font-family="sans-serif" font-size="14" lengthAdjust="spacing" textLength="98" x="1843.75" y="374.7285">CompteAInteret</text><line style="stroke:#181818;stroke-width:0.5;" x1="1684" x2="2069" y1="385" y2="385"/><ellipse cx="1694" cy="399.3047" fill="none" rx="3" ry="3" style="stroke:#038048;stroke-width:1.0;"/><text fill="#000000" font-family="sans-serif" font-size="14" lengthAdjust="spacing" textLength="314" x="1703" y="403.5332">&#171;const&#187; FRAIS_TRANSACTION : decimal = 0.25m</text><ellipse cx="1694" cy="416.9141" fill="none" rx="3" ry="3" style="stroke:#038048;stroke-width:1.0;"/><text fill="#000000" font-family="sans-serif" font-size="14" lengthAdjust="spacing" textLength="361" x="1703" y="421.1426">&#171;override&#187; Description : string &#171;get&#187; = "Compte &#224; int&#233;r&#234;t"</text><line style="stroke:#181818;stroke-width:0.5;" x1="1684" x2="2069" y1="428.2188" y2="428.2188"/><ellipse cx="1694" cy="442.5234" fill="#84BE84" rx="3" ry="3" style="stroke:#038048;stroke-width:1.0;"/><text fill="#000000" font-family="sans-serif" font-size="14" lengthAdjust="spacing" textLength="108" x="1703" y="446.752">CompteAInteret()</text><ellipse cx="1694" cy="460.1328" fill="#84BE84" rx="3" ry="3" style="stroke:#038048;stroke-width:1.0;"/><text fill="#000000" font-family="sans-serif" font-size="14" lengthAdjust="spacing" textLength="210" x="1703" y="464.3613">CompteAInteret(p_solde:decimal)</text></g><!--link ExecutionTransaction to Transaction--><g id="link_ExecutionTransaction_Transaction"><path codeLine="9" d="M617.5,205.31 C617.5,237.2 617.5,268.73 617.5,302.94 " fill="none" id="ExecutionTransaction-to-Transaction" style="stroke:#181818;stroke-width:1.0;"/><polygon fill="#181818" points="617.5,308.94,621.5,299.94,617.5,303.94,613.5,299.94,617.5,308.94" style="stroke:#181818;stroke-width:1.0;"/><text fill="#000000" font-family="sans-serif" font-size="13" lengthAdjust="spacing" textLength="67" x="548.0398" y="298.2743">Transaction</text></g><!--link Transaction to TypeTransaction--><g id="link_Transaction_TypeTransaction"><path codeLine="27" d="M318.97,515.06 C266.83,534.15 213.34,554.56 163.5,575 C157.8,577.34 157.4129,577.4358 151.5429,580.0158 " fill="none" id="Transaction-to-TypeTransaction" style="stroke:#181818;stroke-width:1.0;"/><polygon fill="#181818" points="146.05,582.43,155.8988,582.4705,150.6274,580.4181,152.6798,575.1467,146.05,582.43" style="stroke:#181818;stroke-width:1.0;"/><text fill="#000000" font-family="sans-serif" font-size="13" lengthAdjust="spacing" textLength="28" x="145.429" y="573.2795">Type</text></g><!--reverse link Transaction to TransactionInteret--><g id="link_Transaction_TransactionInteret"><path codeLine="31" d="M450.745,525.1872 C413.925,549.9572 392.15,564.61 364.35,583.31 " fill="none" id="Transaction-backto-TransactionInteret" style="stroke:#181818;stroke-width:1.0;"/><polygon fill="none" points="465.68,515.14,447.396,520.2089,454.0941,530.1656,465.68,515.14" style="stroke:#181818;stroke-width:1.0;"/></g><!--reverse link Transaction to TransactionFrais--><g id="link_Transaction_TransactionFrais"><path codeLine="35" d="M617.5,533.14 C617.5,557.91 617.5,564.61 617.5,583.31 " fill="none" id="Transaction-backto-TransactionFrais" style="stroke:#181818;stroke-width:1.0;"/><polygon fill="none" points="617.5,515.14,611.5,533.14,623.5,533.14,617.5,515.14" style="stroke:#181818;stroke-width:1.0;"/></g><!--reverse link Transaction to TransactionRetrait--><g id="link_Transaction_TransactionRetrait"><path codeLine="43" d="M784.7801,525.1647 C821.7201,549.9347 843.6,564.61 871.49,583.31 " fill="none" id="Transaction-backto-TransactionRetrait" style="stroke:#181818;stroke-width:1.0;"/><polygon fill="none" points="769.83,515.14,781.4385,530.1481,788.1217,520.1814,769.83,515.14" style="stroke:#181818;stroke-width:1.0;"/></g><!--reverse link Transaction to TransactionDepot--><g id="link_Transaction_TransactionDepot"><path codeLine="47" d="M934.515,518.7561 C1010.985,544.2661 1070.67,564.18 1128.32,583.41 " fill="none" id="Transaction-backto-TransactionDepot" style="stroke:#181818;stroke-width:1.0;"/><polygon fill="none" points="917.44,513.06,932.6163,524.4478,936.4137,513.0645,917.44,513.06" style="stroke:#181818;stroke-width:1.0;"/></g><!--reverse link CompteBancaire to CompteAvecMargeCredit--><g id="link_CompteBancaire_CompteAvecMargeCredit"><path codeLine="57" d="M1533.1639,262.9981 C1512.1939,288.9381 1501.76,301.84 1482.14,326.1 " fill="none" id="CompteBancaire-backto-CompteAvecMargeCredit" style="stroke:#181818;stroke-width:1.0;"/><polygon fill="none" points="1544.48,249,1528.4979,259.226,1537.8299,266.7701,1544.48,249" style="stroke:#181818;stroke-width:1.0;"/></g><!--reverse link CompteBancaire to CompteAInteret--><g id="link_CompteBancaire_CompteAInteret"><path codeLine="64" d="M1753.0226,262.8286 C1783.0026,298.8086 1803.02,322.82 1828.07,352.88 " fill="none" id="CompteBancaire-backto-CompteAInteret" style="stroke:#181818;stroke-width:1.0;"/><polygon fill="none" points="1741.5,249,1748.413,266.6695,1757.6321,258.9878,1741.5,249" style="stroke:#181818;stroke-width:1.0;"/></g><!--SRC=[lLRDZjem4Bxp51OdK9UAhhezeEnAMSXk8q508IkrgYfa9TvWAR5Jsw2jAE_Iw_OrUB4wln37KEXXETcP-UQRcMziuqUGSs2z87ybC2KUWuH3Frs2JGl8tpimfr60m004oCSnZ81XX4ZStHLM7RIJBCH-DpYmN85amTDuWo9QjmXZ63ubN8O5OzDzj9xSnNmw7bcI5XC1Ri5rltBa24Oea9w6GTU8CHmWkV7eN31CmavNOdYsB10RBg30_XQCSKYGJGHY7FbgjIL8AQy2Mn8dq4d4jgNjOwzt1ze77zhWODFoCm5cZ8OCnaNFAz89nAG3MSW7ETMtxsbrQue3IPOZywgj5u48b_5usg0CBNkoKOkOmU2UYgNKHyOhOgQIH8Y4OZcGhJxeNicWcmb5x9_9OMS6NdsVCiIK24X4ANlwAK3SPpZ943bbEGoZlUMOBfCytj6nl7nCcXCuikP3rvvvzjIfvl1Z_wYxztMsdzTFHzqcKySp7Q_o_73pzdFQ74-fc9pBkcvD_REaaD2DGM7gDAJkAdp6hrvF0soIFJ28kOugCrnEbC5QYAnYjT22P6JTszvLjXowrYXTQyw0Y-JTXhKzA4oNfrO0csGZb50jLMQud2Y35JH36YS2cMlaJ-GLWuOC1GTbrKxDgGCfHxYTXm9GnW9n6aoUIk2ptQkCs6wSX0VNjESBppMTkJaiJbTvYcz1__trJTp0UERJbuNjU9PhUOfxltBNLjJfdhGUVOzgvIUK8wPfTtaRQq1IKynEWhQjFALxI7meVNErj6dM9LEFuV-rzd9zTx_JEsltodP_AbdhAQdDtjyAIfTFrbw_4XJ7y_wM6COQCx62qVdLXRjN8ck3KRsqabWfhVfyT83s2Vnx57H9dpTpvlCpzfU8VSPSK8P_h52UNwSHMts8dAU9vKuNO_lHsRzRR_uONVvSR_y2]--></g></svg>