<?xml version="1.0" encoding="UTF-8" standalone="no"?><svg xmlns="http://www.w3.org/2000/svg" xmlns:xlink="http://www.w3.org/1999/xlink" contentScriptType="application/ecmascript" contentStyleType="text/css" height="568px" preserveAspectRatio="none" style="width:1822px;height:568px;" version="1.1" viewBox="0 0 1822 568" width="1822px" zoomAndPan="magnify"><defs><filter height="300%" id="f10qt4s1ou1tse" width="300%" x="-1" y="-1"><feGaussianBlur result="blurOut" stdDeviation="2.0"/><feColorMatrix in="blurOut" result="blurOut2" type="matrix" values="0 0 0 0 0 0 0 0 0 0 0 0 0 0 0 0 0 0 .4 0"/><feOffset dx="4.0" dy="4.0" in="blurOut2" result="blurOut3"/><feBlend in="SourceGraphic" in2="blurOut3" mode="normal"/></filter></defs><g><!--class ExecutionTransaction--><rect fill="#FEFECE" filter="url(#f10qt4s1ou1tse)" height="125.7305" id="ExecutionTransaction" style="stroke: #A80036; stroke-width: 1.5;" width="384" x="361" y="40.5"/><ellipse cx="487.75" cy="56.5" fill="#ADD1B2" rx="11" ry="11" style="stroke: #A80036; stroke-width: 1.0;"/><path d="M490.2231,62.6431 Q489.6421,62.9419 489.0029,63.0913 Q488.3638,63.2407 487.6582,63.2407 Q485.1514,63.2407 483.8315,61.5889 Q482.5117,59.937 482.5117,56.8159 Q482.5117,53.6865 483.8315,52.0347 Q485.1514,50.3828 487.6582,50.3828 Q488.3638,50.3828 489.0112,50.5322 Q489.6587,50.6816 490.2231,50.9805 L490.2231,53.7031 Q489.5923,53.1221 488.9988,52.8523 Q488.4053,52.5825 487.7744,52.5825 Q486.4297,52.5825 485.7449,53.6492 Q485.0601,54.7158 485.0601,56.8159 Q485.0601,58.9077 485.7449,59.9744 Q486.4297,61.041 487.7744,61.041 Q488.4053,61.041 488.9988,60.7712 Q489.5923,60.5015 490.2231,59.9204 Z "/><text fill="#000000" font-family="sans-serif" font-size="12" lengthAdjust="spacingAndGlyphs" textLength="122" x="508.25" y="61.0352">ExecutionTransaction</text><line style="stroke: #A80036; stroke-width: 1.5;" x1="362" x2="744" y1="72.5" y2="72.5"/><ellipse cx="372" cy="83.5" fill="none" rx="3" ry="3" style="stroke: #038048; stroke-width: 1.0;"/><text fill="#000000" font-family="sans-serif" font-size="11" lengthAdjust="spacingAndGlyphs" textLength="111" x="381" y="87.1348">Solde : decimal «get»</text><ellipse cx="372" cy="96.4551" fill="none" rx="3" ry="3" style="stroke: #038048; stroke-width: 1.0;"/><text fill="#000000" font-family="sans-serif" font-size="11" lengthAdjust="spacingAndGlyphs" textLength="188" x="381" y="100.0898">«const» LARGEUR_SOLDE : int = 20</text><ellipse cx="372" cy="109.4102" fill="none" rx="3" ry="3" style="stroke: #038048; stroke-width: 1.0;"/><text fill="#000000" font-family="sans-serif" font-size="11" lengthAdjust="spacingAndGlyphs" text-decoration="underline" textLength="230" x="381" y="113.0449">LigneIntersectionTransaction : string «get»</text><ellipse cx="372" cy="122.3652" fill="none" rx="3" ry="3" style="stroke: #038048; stroke-width: 1.0;"/><text fill="#000000" font-family="sans-serif" font-size="11" lengthAdjust="spacingAndGlyphs" text-decoration="underline" textLength="170" x="381" y="126">EnteteTransaction : string «get»</text><line style="stroke: #A80036; stroke-width: 1.5;" x1="362" x2="744" y1="132.3203" y2="132.3203"/><ellipse cx="372" cy="143.3203" fill="#84BE84" rx="3" ry="3" style="stroke: #038048; stroke-width: 1.0;"/><text fill="#000000" font-family="sans-serif" font-size="11" lengthAdjust="spacingAndGlyphs" textLength="358" x="381" y="146.9551">ExecutionTransaction(p_transaction:Transaction, p_solde:decimal)</text><ellipse cx="372" cy="156.2754" fill="#84BE84" rx="3" ry="3" style="stroke: #038048; stroke-width: 1.0;"/><text fill="#000000" font-family="sans-serif" font-size="11" lengthAdjust="spacingAndGlyphs" textLength="204" x="381" y="159.9102">«sealed» «override» ToString() : string</text><!--class Transaction--><rect fill="#FEFECE" filter="url(#f10qt4s1ou1tse)" height="164.5957" id="Transaction" style="stroke: #A80036; stroke-width: 1.5;" width="514" x="296" y="259"/><ellipse cx="515.25" cy="275" fill="#ADD1B2" rx="11" ry="11" style="stroke: #A80036; stroke-width: 1.0;"/><path d="M517.7231,281.1431 Q517.1421,281.4419 516.5029,281.5913 Q515.8638,281.7407 515.1582,281.7407 Q512.6514,281.7407 511.3315,280.0889 Q510.0117,278.437 510.0117,275.3159 Q510.0117,272.1865 511.3315,270.5347 Q512.6514,268.8828 515.1582,268.8828 Q515.8638,268.8828 516.5112,269.0322 Q517.1587,269.1816 517.7231,269.4805 L517.7231,272.2031 Q517.0923,271.6221 516.4988,271.3523 Q515.9053,271.0825 515.2744,271.0825 Q513.9297,271.0825 513.2449,272.1492 Q512.5601,273.2158 512.5601,275.3159 Q512.5601,277.4077 513.2449,278.4744 Q513.9297,279.541 515.2744,279.541 Q515.9053,279.541 516.4988,279.2712 Q517.0923,279.0015 517.7231,278.4204 Z "/><text fill="#000000" font-family="sans-serif" font-size="12" lengthAdjust="spacingAndGlyphs" textLength="67" x="535.75" y="279.5352">Transaction</text><line style="stroke: #A80036; stroke-width: 1.5;" x1="297" x2="809" y1="291" y2="291"/><ellipse cx="307" cy="302" fill="none" rx="3" ry="3" style="stroke: #038048; stroke-width: 1.0;"/><text fill="#000000" font-family="sans-serif" font-size="11" lengthAdjust="spacingAndGlyphs" textLength="135" x="316" y="305.6348">Description : string «get»</text><ellipse cx="307" cy="314.9551" fill="none" rx="3" ry="3" style="stroke: #038048; stroke-width: 1.0;"/><text fill="#000000" font-family="sans-serif" font-size="11" lengthAdjust="spacingAndGlyphs" textLength="126" x="316" y="318.5898">Montant : decimal «get»</text><ellipse cx="307" cy="327.9102" fill="none" rx="3" ry="3" style="stroke: #038048; stroke-width: 1.0;"/><text fill="#000000" font-family="sans-serif" font-size="11" lengthAdjust="spacingAndGlyphs" textLength="224" x="316" y="331.5449">«const» LARGEUR_DESCRIPTION : int = 40</text><ellipse cx="307" cy="340.8652" fill="none" rx="3" ry="3" style="stroke: #038048; stroke-width: 1.0;"/><text fill="#000000" font-family="sans-serif" font-size="11" lengthAdjust="spacingAndGlyphs" textLength="172" x="316" y="344.5">«const» LARGEUR_TYPE : int = 6</text><ellipse cx="307" cy="353.8203" fill="none" rx="3" ry="3" style="stroke: #038048; stroke-width: 1.0;"/><text fill="#000000" font-family="sans-serif" font-size="11" lengthAdjust="spacingAndGlyphs" textLength="209" x="316" y="357.4551">«const» LARGEUR_MONTANT : int = 15</text><ellipse cx="307" cy="366.7754" fill="none" rx="3" ry="3" style="stroke: #038048; stroke-width: 1.0;"/><text fill="#000000" font-family="sans-serif" font-size="11" lengthAdjust="spacingAndGlyphs" text-decoration="underline" textLength="230" x="316" y="370.4102">LigneIntersectionTransaction : string «get»</text><ellipse cx="307" cy="379.7305" fill="none" rx="3" ry="3" style="stroke: #038048; stroke-width: 1.0;"/><text fill="#000000" font-family="sans-serif" font-size="11" lengthAdjust="spacingAndGlyphs" text-decoration="underline" textLength="170" x="316" y="383.3652">EnteteTransaction : string «get»</text><line style="stroke: #A80036; stroke-width: 1.5;" x1="297" x2="809" y1="389.6855" y2="389.6855"/><ellipse cx="307" cy="400.6855" fill="#84BE84" rx="3" ry="3" style="stroke: #038048; stroke-width: 1.0;"/><text fill="#000000" font-family="sans-serif" font-size="11" lengthAdjust="spacingAndGlyphs" textLength="488" x="316" y="404.3203">Transaction(p_typeTransaction:TypeTransaction, p_montant:decimal, p_description:string)</text><ellipse cx="307" cy="413.6406" fill="#84BE84" rx="3" ry="3" style="stroke: #038048; stroke-width: 1.0;"/><text fill="#000000" font-family="sans-serif" font-size="11" lengthAdjust="spacingAndGlyphs" textLength="204" x="316" y="417.2754">«sealed» «override» ToString() : string</text><!--class Program--><rect fill="#FEFECE" filter="url(#f10qt4s1ou1tse)" height="60.9551" id="Program" style="stroke: #A80036; stroke-width: 1.5;" width="144" x="801" y="73"/><ellipse cx="844.35" cy="89" fill="#ADD1B2" rx="11" ry="11" style="stroke: #A80036; stroke-width: 1.0;"/><path d="M846.8231,95.1431 Q846.2421,95.4419 845.6029,95.5913 Q844.9638,95.7407 844.2582,95.7407 Q841.7514,95.7407 840.4315,94.0889 Q839.1117,92.437 839.1117,89.3159 Q839.1117,86.1865 840.4315,84.5347 Q841.7514,82.8828 844.2582,82.8828 Q844.9638,82.8828 845.6112,83.0322 Q846.2587,83.1816 846.8231,83.4805 L846.8231,86.2031 Q846.1923,85.6221 845.5988,85.3523 Q845.0053,85.0825 844.3744,85.0825 Q843.0297,85.0825 842.3449,86.1492 Q841.6601,87.2158 841.6601,89.3159 Q841.6601,91.4077 842.3449,92.4744 Q843.0297,93.541 844.3744,93.541 Q845.0053,93.541 845.5988,93.2712 Q846.1923,93.0015 846.8231,92.4204 Z "/><text fill="#000000" font-family="sans-serif" font-size="12" lengthAdjust="spacingAndGlyphs" textLength="49" x="864.65" y="93.5352">Program</text><line style="stroke: #A80036; stroke-width: 1.5;" x1="802" x2="944" y1="105" y2="105"/><line style="stroke: #A80036; stroke-width: 1.5;" x1="802" x2="944" y1="113" y2="113"/><text fill="#000000" font-family="sans-serif" font-size="11" lengthAdjust="spacingAndGlyphs" text-decoration="underline" textLength="132" x="807" y="127.6348">Main(args:string[]) : void</text><!--class StringExtensions--><rect fill="#FEFECE" filter="url(#f10qt4s1ou1tse)" height="67.2207" id="StringExtensions" style="stroke: #A80036; stroke-width: 1.5;" width="251" x="990.5" y="70"/><ellipse cx="1065.25" cy="89.1328" fill="#ADD1B2" rx="11" ry="11" style="stroke: #A80036; stroke-width: 1.0;"/><path d="M1067.7231,95.2759 Q1067.1421,95.5747 1066.5029,95.7241 Q1065.8638,95.8735 1065.1582,95.8735 Q1062.6514,95.8735 1061.3315,94.2217 Q1060.0117,92.5698 1060.0117,89.4487 Q1060.0117,86.3193 1061.3315,84.6675 Q1062.6514,83.0156 1065.1582,83.0156 Q1065.8638,83.0156 1066.5112,83.165 Q1067.1587,83.3145 1067.7231,83.6133 L1067.7231,86.3359 Q1067.0923,85.7549 1066.4988,85.4851 Q1065.9053,85.2153 1065.2744,85.2153 Q1063.9297,85.2153 1063.2449,86.282 Q1062.5601,87.3486 1062.5601,89.4487 Q1062.5601,91.5405 1063.2449,92.6072 Q1063.9297,93.6738 1065.2744,93.6738 Q1065.9053,93.6738 1066.4988,93.4041 Q1067.0923,93.1343 1067.7231,92.5532 Z "/><text fill="#000000" font-family="sans-serif" font-size="12" font-style="italic" lengthAdjust="spacingAndGlyphs" textLength="42" x="1111.25" y="86.6016">«static»</text><text fill="#000000" font-family="sans-serif" font-size="12" lengthAdjust="spacingAndGlyphs" textLength="93" x="1085.75" y="100.7344">StringExtensions</text><line style="stroke: #A80036; stroke-width: 1.5;" x1="991.5" x2="1240.5" y1="108.2656" y2="108.2656"/><line style="stroke: #A80036; stroke-width: 1.5;" x1="991.5" x2="1240.5" y1="116.2656" y2="116.2656"/><ellipse cx="1001.5" cy="127.2656" fill="#84BE84" rx="3" ry="3" style="stroke: #038048; stroke-width: 1.0;"/><text fill="#000000" font-family="sans-serif" font-size="11" lengthAdjust="spacingAndGlyphs" text-decoration="underline" textLength="225" x="1010.5" y="130.9004">PadBoth(p_str:string, p_length:int) : string</text><!--class TypeTransaction--><rect fill="#FEFECE" filter="url(#f10qt4s1ou1tse)" height="73.9102" id="TypeTransaction" style="stroke: #A80036; stroke-width: 1.5;" width="128" x="6" y="484"/><ellipse cx="21" cy="500" fill="#EB937F" rx="11" ry="11" style="stroke: #A80036; stroke-width: 1.0;"/><path d="M24.6143,506.5 L16.8945,506.5 L16.8945,494.1069 L24.6143,494.1069 L24.6143,496.2651 L19.3433,496.2651 L19.3433,498.938 L24.1162,498.938 L24.1162,501.0962 L19.3433,501.0962 L19.3433,504.3418 L24.6143,504.3418 Z "/><text fill="#000000" font-family="sans-serif" font-size="12" lengthAdjust="spacingAndGlyphs" textLength="96" x="35" y="504.5352">TypeTransaction</text><line style="stroke: #A80036; stroke-width: 1.5;" x1="7" x2="133" y1="516" y2="516"/><text fill="#000000" font-family="sans-serif" font-size="11" lengthAdjust="spacingAndGlyphs" textLength="33" x="12" y="530.6348">DEBIT,</text><text fill="#000000" font-family="sans-serif" font-size="11" lengthAdjust="spacingAndGlyphs" textLength="42" x="12" y="543.5898">CREDIT,</text><line style="stroke: #A80036; stroke-width: 1.5;" x1="7" x2="133" y1="549.9102" y2="549.9102"/><!--class TransactionInteret--><rect fill="#FEFECE" filter="url(#f10qt4s1ou1tse)" height="60.9551" id="TransactionInteret" style="stroke: #A80036; stroke-width: 1.5;" width="235" x="169.5" y="490.5"/><ellipse cx="230.75" cy="506.5" fill="#ADD1B2" rx="11" ry="11" style="stroke: #A80036; stroke-width: 1.0;"/><path d="M233.2231,512.6431 Q232.6421,512.9419 232.0029,513.0913 Q231.3638,513.2407 230.6582,513.2407 Q228.1514,513.2407 226.8315,511.5889 Q225.5117,509.937 225.5117,506.8159 Q225.5117,503.6865 226.8315,502.0347 Q228.1514,500.3828 230.6582,500.3828 Q231.3638,500.3828 232.0112,500.5322 Q232.6587,500.6816 233.2231,500.9805 L233.2231,503.7031 Q232.5923,503.1221 231.9988,502.8523 Q231.4053,502.5825 230.7744,502.5825 Q229.4297,502.5825 228.7449,503.6492 Q228.0601,504.7158 228.0601,506.8159 Q228.0601,508.9077 228.7449,509.9744 Q229.4297,511.041 230.7744,511.041 Q231.4053,511.041 231.9988,510.7712 Q232.5923,510.5015 233.2231,509.9204 Z "/><text fill="#000000" font-family="sans-serif" font-size="12" lengthAdjust="spacingAndGlyphs" textLength="104" x="251.25" y="511.0352">TransactionInteret</text><line style="stroke: #A80036; stroke-width: 1.5;" x1="170.5" x2="403.5" y1="522.5" y2="522.5"/><line style="stroke: #A80036; stroke-width: 1.5;" x1="170.5" x2="403.5" y1="530.5" y2="530.5"/><ellipse cx="180.5" cy="541.5" fill="#84BE84" rx="3" ry="3" style="stroke: #038048; stroke-width: 1.0;"/><text fill="#000000" font-family="sans-serif" font-size="11" lengthAdjust="spacingAndGlyphs" textLength="209" x="189.5" y="545.1348">TransactionInteret(p_montant:decimal)</text><!--class TransactionFrais--><rect fill="#FEFECE" filter="url(#f10qt4s1ou1tse)" height="60.9551" id="TransactionFrais" style="stroke: #A80036; stroke-width: 1.5;" width="226" x="440" y="490.5"/><ellipse cx="501.75" cy="506.5" fill="#ADD1B2" rx="11" ry="11" style="stroke: #A80036; stroke-width: 1.0;"/><path d="M504.2231,512.6431 Q503.6421,512.9419 503.0029,513.0913 Q502.3638,513.2407 501.6582,513.2407 Q499.1514,513.2407 497.8315,511.5889 Q496.5117,509.937 496.5117,506.8159 Q496.5117,503.6865 497.8315,502.0347 Q499.1514,500.3828 501.6582,500.3828 Q502.3638,500.3828 503.0112,500.5322 Q503.6587,500.6816 504.2231,500.9805 L504.2231,503.7031 Q503.5923,503.1221 502.9988,502.8523 Q502.4053,502.5825 501.7744,502.5825 Q500.4297,502.5825 499.7449,503.6492 Q499.0601,504.7158 499.0601,506.8159 Q499.0601,508.9077 499.7449,509.9744 Q500.4297,511.041 501.7744,511.041 Q502.4053,511.041 502.9988,510.7712 Q503.5923,510.5015 504.2231,509.9204 Z "/><text fill="#000000" font-family="sans-serif" font-size="12" lengthAdjust="spacingAndGlyphs" textLength="94" x="522.25" y="511.0352">TransactionFrais</text><line style="stroke: #A80036; stroke-width: 1.5;" x1="441" x2="665" y1="522.5" y2="522.5"/><line style="stroke: #A80036; stroke-width: 1.5;" x1="441" x2="665" y1="530.5" y2="530.5"/><ellipse cx="451" cy="541.5" fill="#84BE84" rx="3" ry="3" style="stroke: #038048; stroke-width: 1.0;"/><text fill="#000000" font-family="sans-serif" font-size="11" lengthAdjust="spacingAndGlyphs" textLength="200" x="460" y="545.1348">TransactionFrais(p_montant:decimal)</text><!--class TransactionRetrait--><rect fill="#FEFECE" filter="url(#f10qt4s1ou1tse)" height="60.9551" id="TransactionRetrait" style="stroke: #A80036; stroke-width: 1.5;" width="235" x="701.5" y="490.5"/><ellipse cx="762.25" cy="506.5" fill="#ADD1B2" rx="11" ry="11" style="stroke: #A80036; stroke-width: 1.0;"/><path d="M764.7231,512.6431 Q764.1421,512.9419 763.5029,513.0913 Q762.8638,513.2407 762.1582,513.2407 Q759.6514,513.2407 758.3315,511.5889 Q757.0117,509.937 757.0117,506.8159 Q757.0117,503.6865 758.3315,502.0347 Q759.6514,500.3828 762.1582,500.3828 Q762.8638,500.3828 763.5112,500.5322 Q764.1587,500.6816 764.7231,500.9805 L764.7231,503.7031 Q764.0923,503.1221 763.4988,502.8523 Q762.9053,502.5825 762.2744,502.5825 Q760.9297,502.5825 760.2449,503.6492 Q759.5601,504.7158 759.5601,506.8159 Q759.5601,508.9077 760.2449,509.9744 Q760.9297,511.041 762.2744,511.041 Q762.9053,511.041 763.4988,510.7712 Q764.0923,510.5015 764.7231,509.9204 Z "/><text fill="#000000" font-family="sans-serif" font-size="12" lengthAdjust="spacingAndGlyphs" textLength="105" x="782.75" y="511.0352">TransactionRetrait</text><line style="stroke: #A80036; stroke-width: 1.5;" x1="702.5" x2="935.5" y1="522.5" y2="522.5"/><line style="stroke: #A80036; stroke-width: 1.5;" x1="702.5" x2="935.5" y1="530.5" y2="530.5"/><ellipse cx="712.5" cy="541.5" fill="#84BE84" rx="3" ry="3" style="stroke: #038048; stroke-width: 1.0;"/><text fill="#000000" font-family="sans-serif" font-size="11" lengthAdjust="spacingAndGlyphs" textLength="209" x="721.5" y="545.1348">TransactionRetrait(p_montant:decimal)</text><!--class TransactionDepot--><rect fill="#FEFECE" filter="url(#f10qt4s1ou1tse)" height="60.9551" id="TransactionDepot" style="stroke: #A80036; stroke-width: 1.5;" width="232" x="972" y="490.5"/><ellipse cx="1032.75" cy="506.5" fill="#ADD1B2" rx="11" ry="11" style="stroke: #A80036; stroke-width: 1.0;"/><path d="M1035.2231,512.6431 Q1034.6421,512.9419 1034.0029,513.0913 Q1033.3638,513.2407 1032.6582,513.2407 Q1030.1514,513.2407 1028.8315,511.5889 Q1027.5117,509.937 1027.5117,506.8159 Q1027.5117,503.6865 1028.8315,502.0347 Q1030.1514,500.3828 1032.6582,500.3828 Q1033.3638,500.3828 1034.0112,500.5322 Q1034.6587,500.6816 1035.2231,500.9805 L1035.2231,503.7031 Q1034.5923,503.1221 1033.9988,502.8523 Q1033.4053,502.5825 1032.7744,502.5825 Q1031.4297,502.5825 1030.7449,503.6492 Q1030.0601,504.7158 1030.0601,506.8159 Q1030.0601,508.9077 1030.7449,509.9744 Q1031.4297,511.041 1032.7744,511.041 Q1033.4053,511.041 1033.9988,510.7712 Q1034.5923,510.5015 1035.2231,509.9204 Z "/><text fill="#000000" font-family="sans-serif" font-size="12" lengthAdjust="spacingAndGlyphs" textLength="102" x="1053.25" y="511.0352">TransactionDepot</text><line style="stroke: #A80036; stroke-width: 1.5;" x1="973" x2="1203" y1="522.5" y2="522.5"/><line style="stroke: #A80036; stroke-width: 1.5;" x1="973" x2="1203" y1="530.5" y2="530.5"/><ellipse cx="983" cy="541.5" fill="#84BE84" rx="3" ry="3" style="stroke: #038048; stroke-width: 1.0;"/><text fill="#000000" font-family="sans-serif" font-size="11" lengthAdjust="spacingAndGlyphs" textLength="206" x="992" y="545.1348">TransactionDepot(p_montant:decimal)</text><!--class CompteAvecMargeCredit--><rect fill="#FEFECE" filter="url(#f10qt4s1ou1tse)" height="138.6855" id="CompteAvecMargeCredit" style="stroke: #A80036; stroke-width: 1.5;" width="400" x="1043" y="272"/><ellipse cx="1167.25" cy="288" fill="#ADD1B2" rx="11" ry="11" style="stroke: #A80036; stroke-width: 1.0;"/><path d="M1169.7231,294.1431 Q1169.1421,294.4419 1168.5029,294.5913 Q1167.8638,294.7407 1167.1582,294.7407 Q1164.6514,294.7407 1163.3315,293.0889 Q1162.0117,291.437 1162.0117,288.3159 Q1162.0117,285.1865 1163.3315,283.5347 Q1164.6514,281.8828 1167.1582,281.8828 Q1167.8638,281.8828 1168.5112,282.0322 Q1169.1587,282.1816 1169.7231,282.4805 L1169.7231,285.2031 Q1169.0923,284.6221 1168.4988,284.3523 Q1167.9053,284.0825 1167.2744,284.0825 Q1165.9297,284.0825 1165.2449,285.1492 Q1164.5601,286.2158 1164.5601,288.3159 Q1164.5601,290.4077 1165.2449,291.4744 Q1165.9297,292.541 1167.2744,292.541 Q1167.9053,292.541 1168.4988,292.2712 Q1169.0923,292.0015 1169.7231,291.4204 Z "/><text fill="#000000" font-family="sans-serif" font-size="12" lengthAdjust="spacingAndGlyphs" textLength="143" x="1187.75" y="292.5352">CompteAvecMargeCredit</text><line style="stroke: #A80036; stroke-width: 1.5;" x1="1044" x2="1442" y1="304" y2="304"/><ellipse cx="1054" cy="315" fill="none" rx="3" ry="3" style="stroke: #038048; stroke-width: 1.0;"/><text fill="#000000" font-family="sans-serif" font-size="11" lengthAdjust="spacingAndGlyphs" textLength="374" x="1063" y="318.6348">«override» Description : string «get» = "Compte avec marge de crédit"</text><ellipse cx="1054" cy="327.9551" fill="none" rx="3" ry="3" style="stroke: #038048; stroke-width: 1.0;"/><text fill="#000000" font-family="sans-serif" font-size="11" lengthAdjust="spacingAndGlyphs" textLength="259" x="1063" y="331.5898">«const» FRAIS_TRANSACTION : decimal = 0.25m</text><ellipse cx="1054" cy="340.9102" fill="none" rx="3" ry="3" style="stroke: #038048; stroke-width: 1.0;"/><text fill="#000000" font-family="sans-serif" font-size="11" lengthAdjust="spacingAndGlyphs" textLength="224" x="1063" y="344.5449">«const» TAUX_INTERET : decimal = 0.05m</text><line style="stroke: #A80036; stroke-width: 1.5;" x1="1044" x2="1442" y1="350.8652" y2="350.8652"/><ellipse cx="1054" cy="361.8652" fill="#84BE84" rx="3" ry="3" style="stroke: #038048; stroke-width: 1.0;"/><text fill="#000000" font-family="sans-serif" font-size="11" lengthAdjust="spacingAndGlyphs" textLength="142" x="1063" y="365.5">CompteAvecMargeCredit()</text><ellipse cx="1054" cy="374.8203" fill="#84BE84" rx="3" ry="3" style="stroke: #038048; stroke-width: 1.0;"/><text fill="#000000" font-family="sans-serif" font-size="11" lengthAdjust="spacingAndGlyphs" textLength="228" x="1063" y="378.4551">CompteAvecMargeCredit(p_solde:decimal)</text><ellipse cx="1054" cy="387.7754" fill="#84BE84" rx="3" ry="3" style="stroke: #038048; stroke-width: 1.0;"/><text fill="#000000" font-family="sans-serif" font-size="11" lengthAdjust="spacingAndGlyphs" textLength="247" x="1063" y="391.4102">«override» Deposer(p_montant:decimal) : void</text><ellipse cx="1054" cy="400.7305" fill="#84BE84" rx="3" ry="3" style="stroke: #038048; stroke-width: 1.0;"/><text fill="#000000" font-family="sans-serif" font-size="11" lengthAdjust="spacingAndGlyphs" textLength="238" x="1063" y="404.3652">«override» Retirer(p_montant:decimal) : void</text><!--class CompteBancaire--><rect fill="#FEFECE" filter="url(#f10qt4s1ou1tse)" height="190.5059" id="CompteBancaire" style="stroke: #A80036; stroke-width: 1.5;" width="318" x="1282" y="8"/><ellipse cx="1389.75" cy="24" fill="#ADD1B2" rx="11" ry="11" style="stroke: #A80036; stroke-width: 1.0;"/><path d="M1392.2231,30.1431 Q1391.6421,30.4419 1391.0029,30.5913 Q1390.3638,30.7407 1389.6582,30.7407 Q1387.1514,30.7407 1385.8315,29.0889 Q1384.5117,27.437 1384.5117,24.3159 Q1384.5117,21.1865 1385.8315,19.5347 Q1387.1514,17.8828 1389.6582,17.8828 Q1390.3638,17.8828 1391.0112,18.0322 Q1391.6587,18.1816 1392.2231,18.4805 L1392.2231,21.2031 Q1391.5923,20.6221 1390.9988,20.3523 Q1390.4053,20.0825 1389.7744,20.0825 Q1388.4297,20.0825 1387.7449,21.1492 Q1387.0601,22.2158 1387.0601,24.3159 Q1387.0601,26.4077 1387.7449,27.4744 Q1388.4297,28.541 1389.7744,28.541 Q1390.4053,28.541 1390.9988,28.2712 Q1391.5923,28.0015 1392.2231,27.4204 Z "/><text fill="#000000" font-family="sans-serif" font-size="12" lengthAdjust="spacingAndGlyphs" textLength="94" x="1410.25" y="28.5352">CompteBancaire</text><line style="stroke: #A80036; stroke-width: 1.5;" x1="1283" x2="1599" y1="40" y2="40"/><ellipse cx="1293" cy="51" fill="none" rx="3" ry="3" style="stroke: #038048; stroke-width: 1.0;"/><text fill="#000000" font-family="sans-serif" font-size="11" lengthAdjust="spacingAndGlyphs" textLength="111" x="1302" y="54.6348">Solde : decimal «get»</text><ellipse cx="1293" cy="63.9551" fill="none" rx="3" ry="3" style="stroke: #038048; stroke-width: 1.0;"/><text fill="#000000" font-family="sans-serif" font-size="11" lengthAdjust="spacingAndGlyphs" textLength="292" x="1302" y="67.5898">«virtual» Description : string «get» = "Compte général"</text><ellipse cx="1293" cy="76.9102" fill="none" rx="3" ry="3" style="stroke: #038048; stroke-width: 1.0;"/><text fill="#000000" font-family="sans-serif" font-size="11" lengthAdjust="spacingAndGlyphs" textLength="230" x="1302" y="80.5449">«const» LARGEUR_NUMERO_LIGNE : int = 5</text><ellipse cx="1293" cy="89.8652" fill="none" rx="3" ry="3" style="stroke: #038048; stroke-width: 1.0;"/><text fill="#000000" font-family="sans-serif" font-size="11" lengthAdjust="spacingAndGlyphs" text-decoration="underline" textLength="230" x="1302" y="93.5">LigneIntersectionTransaction : string «get»</text><ellipse cx="1293" cy="102.8203" fill="none" rx="3" ry="3" style="stroke: #038048; stroke-width: 1.0;"/><text fill="#000000" font-family="sans-serif" font-size="11" lengthAdjust="spacingAndGlyphs" text-decoration="underline" textLength="170" x="1302" y="106.4551">EnteteTransaction : string «get»</text><line style="stroke: #A80036; stroke-width: 1.5;" x1="1283" x2="1599" y1="112.7754" y2="112.7754"/><ellipse cx="1293" cy="123.7754" fill="#84BE84" rx="3" ry="3" style="stroke: #038048; stroke-width: 1.0;"/><text fill="#000000" font-family="sans-serif" font-size="11" lengthAdjust="spacingAndGlyphs" textLength="95" x="1302" y="127.4102">CompteBancaire()</text><ellipse cx="1293" cy="136.7305" fill="#84BE84" rx="3" ry="3" style="stroke: #038048; stroke-width: 1.0;"/><text fill="#000000" font-family="sans-serif" font-size="11" lengthAdjust="spacingAndGlyphs" textLength="181" x="1302" y="140.3652">CompteBancaire(p_solde:decimal)</text><ellipse cx="1293" cy="149.6855" fill="#84BE84" rx="3" ry="3" style="stroke: #038048; stroke-width: 1.0;"/><text fill="#000000" font-family="sans-serif" font-size="11" lengthAdjust="spacingAndGlyphs" textLength="227" x="1302" y="153.3203">«virtual» Retirer(p_montant:decimal) : void</text><ellipse cx="1293" cy="162.6406" fill="#84BE84" rx="3" ry="3" style="stroke: #038048; stroke-width: 1.0;"/><text fill="#000000" font-family="sans-serif" font-size="11" lengthAdjust="spacingAndGlyphs" textLength="236" x="1302" y="166.2754">«virtual» Deposer(p_montant:decimal) : void</text><ellipse cx="1293" cy="175.5957" fill="#84BE84" rx="3" ry="3" style="stroke: #038048; stroke-width: 1.0;"/><text fill="#000000" font-family="sans-serif" font-size="11" lengthAdjust="spacingAndGlyphs" textLength="181" x="1302" y="179.2305">AfficherHistoriqueCompte() : void</text><ellipse cx="1293" cy="188.5508" fill="#84BE84" rx="3" ry="3" style="stroke: #038048; stroke-width: 1.0;"/><text fill="#000000" font-family="sans-serif" font-size="11" lengthAdjust="spacingAndGlyphs" textLength="204" x="1302" y="192.1855">«sealed» «override» ToString() : string</text><!--class CompteAInteret--><rect fill="#FEFECE" filter="url(#f10qt4s1ou1tse)" height="99.8203" id="CompteAInteret" style="stroke: #A80036; stroke-width: 1.5;" width="333" x="1478.5" y="291.5"/><ellipse cx="1595.75" cy="307.5" fill="#ADD1B2" rx="11" ry="11" style="stroke: #A80036; stroke-width: 1.0;"/><path d="M1598.2231,313.6431 Q1597.6421,313.9419 1597.0029,314.0913 Q1596.3638,314.2407 1595.6582,314.2407 Q1593.1514,314.2407 1591.8315,312.5889 Q1590.5117,310.937 1590.5117,307.8159 Q1590.5117,304.6865 1591.8315,303.0347 Q1593.1514,301.3828 1595.6582,301.3828 Q1596.3638,301.3828 1597.0112,301.5322 Q1597.6587,301.6816 1598.2231,301.9805 L1598.2231,304.7031 Q1597.5923,304.1221 1596.9988,303.8523 Q1596.4053,303.5825 1595.7744,303.5825 Q1594.4297,303.5825 1593.7449,304.6492 Q1593.0601,305.7158 1593.0601,307.8159 Q1593.0601,309.9077 1593.7449,310.9744 Q1594.4297,312.041 1595.7744,312.041 Q1596.4053,312.041 1596.9988,311.7712 Q1597.5923,311.5015 1598.2231,310.9204 Z "/><text fill="#000000" font-family="sans-serif" font-size="12" lengthAdjust="spacingAndGlyphs" textLength="90" x="1616.25" y="312.0352">CompteAInteret</text><line style="stroke: #A80036; stroke-width: 1.5;" x1="1479.5" x2="1810.5" y1="323.5" y2="323.5"/><ellipse cx="1489.5" cy="334.5" fill="none" rx="3" ry="3" style="stroke: #038048; stroke-width: 1.0;"/><text fill="#000000" font-family="sans-serif" font-size="11" lengthAdjust="spacingAndGlyphs" textLength="259" x="1498.5" y="338.1348">«const» FRAIS_TRANSACTION : decimal = 0.25m</text><ellipse cx="1489.5" cy="347.4551" fill="none" rx="3" ry="3" style="stroke: #038048; stroke-width: 1.0;"/><text fill="#000000" font-family="sans-serif" font-size="11" lengthAdjust="spacingAndGlyphs" textLength="307" x="1498.5" y="351.0898">«override» Description : string «get» = "Compte à intérêt"</text><line style="stroke: #A80036; stroke-width: 1.5;" x1="1479.5" x2="1810.5" y1="357.4102" y2="357.4102"/><ellipse cx="1489.5" cy="368.4102" fill="#84BE84" rx="3" ry="3" style="stroke: #038048; stroke-width: 1.0;"/><text fill="#000000" font-family="sans-serif" font-size="11" lengthAdjust="spacingAndGlyphs" textLength="93" x="1498.5" y="372.0449">CompteAInteret()</text><ellipse cx="1489.5" cy="381.3652" fill="#84BE84" rx="3" ry="3" style="stroke: #038048; stroke-width: 1.0;"/><text fill="#000000" font-family="sans-serif" font-size="11" lengthAdjust="spacingAndGlyphs" textLength="179" x="1498.5" y="385">CompteAInteret(p_solde:decimal)</text><!--link ExecutionTransaction to Transaction--><path d="M553,166.51 C553,193.23 553,224.94 553,253.92 " fill="none" id="ExecutionTransaction-&gt;Transaction" style="stroke: #A80036; stroke-width: 1.0;"/><polygon fill="#A80036" points="553,258.93,557,249.93,553,253.93,549,249.93,553,258.93" style="stroke: #A80036; stroke-width: 1.0;"/><text fill="#000000" font-family="sans-serif" font-size="13" lengthAdjust="spacingAndGlyphs" textLength="74" x="475.5891" y="248.228">Transaction</text><!--link Transaction to TypeTransaction--><path d="M312.57,424.06 C259.42,443 203.58,463.61 152,484 C147.75,485.68 143.4,487.45 139.02,489.26 " fill="none" id="Transaction-&gt;TypeTransaction" style="stroke: #A80036; stroke-width: 1.0;"/><polygon fill="#A80036" points="134.27,491.25,144.1164,491.47,138.8833,489.3219,141.0314,484.0887,134.27,491.25" style="stroke: #A80036; stroke-width: 1.0;"/><text fill="#000000" font-family="sans-serif" font-size="13" lengthAdjust="spacingAndGlyphs" textLength="30" x="131.3136" y="481.7992">Type</text><!--reverse link Transaction to TransactionInteret--><path d="M413.86,435.35 C383.89,455.35 354.34,475.06 331.31,490.43 " fill="none" id="Transaction&lt;-TransactionInteret" style="stroke: #A80036; stroke-width: 1.0;"/><polygon fill="none" points="409.99,429.51,430.51,424.24,417.76,441.16,409.99,429.51" style="stroke: #A80036; stroke-width: 1.0;"/><!--reverse link Transaction to TransactionFrais--><path d="M553,444.48 C553,461.27 553,477.41 553,490.43 " fill="none" id="Transaction&lt;-TransactionFrais" style="stroke: #A80036; stroke-width: 1.0;"/><polygon fill="none" points="546,444.24,553,424.24,560,444.24,546,444.24" style="stroke: #A80036; stroke-width: 1.0;"/><!--reverse link Transaction to TransactionRetrait--><path d="M692.14,435.35 C722.11,455.35 751.66,475.06 774.69,490.43 " fill="none" id="Transaction&lt;-TransactionRetrait" style="stroke: #A80036; stroke-width: 1.0;"/><polygon fill="none" points="688.24,441.16,675.49,424.24,696.01,429.51,688.24,441.16" style="stroke: #A80036; stroke-width: 1.0;"/><!--reverse link Transaction to TransactionDepot--><path d="M818.28,430.51 C883.54,452.16 948.97,473.87 999.05,490.49 " fill="none" id="Transaction&lt;-TransactionDepot" style="stroke: #A80036; stroke-width: 1.0;"/><polygon fill="none" points="815.75,437.05,798.97,424.11,820.16,423.76,815.75,437.05" style="stroke: #A80036; stroke-width: 1.0;"/><!--reverse link CompteBancaire to CompteAvecMargeCredit--><path d="M1348.55,214.69 C1332.16,234.23 1315.54,254.04 1300.47,272 " fill="none" id="CompteBancaire&lt;-CompteAvecMargeCredit" style="stroke: #A80036; stroke-width: 1.0;"/><polygon fill="none" points="1343.39,209.95,1361.61,199.13,1354.11,218.95,1343.39,209.95" style="stroke: #A80036; stroke-width: 1.0;"/><!--reverse link CompteBancaire to CompteAInteret--><path d="M1536.02,214.43 C1559.29,241.34 1583.04,268.82 1602.4,291.22 " fill="none" id="CompteBancaire&lt;-CompteAInteret" style="stroke: #A80036; stroke-width: 1.0;"/><polygon fill="none" points="1530.58,218.84,1522.8,199.13,1541.17,209.68,1530.58,218.84" style="stroke: #A80036; stroke-width: 1.0;"/><!--
@startuml
class ExecutionTransaction {
    + Solde : decimal <<get>>
    + ExecutionTransaction(p_transaction:Transaction, p_solde:decimal)
    + <<const>> LARGEUR_SOLDE : int = 20
    + <<sealed>> <<override>> ToString() : string
    + {static} LigneIntersectionTransaction : string <<get>>
    + {static} EnteteTransaction : string <<get>>
}
ExecutionTransaction - -> "Transaction" Transaction
class Program {
    {static} Main(args:string[]) : void
}
class StringExtensions <<static>> {
    + {static} PadBoth(p_str:string, p_length:int) : string
}
class Transaction {
    + Transaction(p_typeTransaction:TypeTransaction, p_montant:decimal, p_description:string)
    + Description : string <<get>>
    + Montant : decimal <<get>>
    + <<sealed>> <<override>> ToString() : string
    + <<const>> LARGEUR_DESCRIPTION : int = 40
    + <<const>> LARGEUR_TYPE : int = 6
    + <<const>> LARGEUR_MONTANT : int = 15
    + {static} LigneIntersectionTransaction : string <<get>>
    + {static} EnteteTransaction : string <<get>>
}
Transaction - -> "Type" TypeTransaction
class TransactionInteret {
    + TransactionInteret(p_montant:decimal)
}
Transaction <|- - TransactionInteret
class TransactionFrais {
    + TransactionFrais(p_montant:decimal)
}
Transaction <|- - TransactionFrais
enum TypeTransaction {
    DEBIT,
    CREDIT,
}
class TransactionRetrait {
    + TransactionRetrait(p_montant:decimal)
}
Transaction <|- - TransactionRetrait
class TransactionDepot {
    + TransactionDepot(p_montant:decimal)
}
Transaction <|- - TransactionDepot
class CompteAvecMargeCredit {
    + <<override>> Description : string <<get>> = "Compte avec marge de crédit"
    + <<const>> FRAIS_TRANSACTION : decimal = 0.25m
    + <<const>> TAUX_INTERET : decimal = 0.05m
    + CompteAvecMargeCredit()
    + CompteAvecMargeCredit(p_solde:decimal)
    + <<override>> Deposer(p_montant:decimal) : void
    + <<override>> Retirer(p_montant:decimal) : void
}
CompteBancaire <|- - CompteAvecMargeCredit
class CompteAInteret {
    + <<const>> FRAIS_TRANSACTION : decimal = 0.25m
    + <<override>> Description : string <<get>> = "Compte à intérêt"
    + CompteAInteret()
    + CompteAInteret(p_solde:decimal)
}
CompteBancaire <|- - CompteAInteret
class CompteBancaire {
    + Solde : decimal <<get>>
    + <<virtual>> Description : string <<get>> = "Compte général"
    + CompteBancaire()
    + CompteBancaire(p_solde:decimal)
    + <<virtual>> Retirer(p_montant:decimal) : void
    + <<virtual>> Deposer(p_montant:decimal) : void
    + AfficherHistoriqueCompte() : void
    + <<const>> LARGEUR_NUMERO_LIGNE : int = 5
    + {static} LigneIntersectionTransaction : string <<get>>
    + {static} EnteteTransaction : string <<get>>
    + <<sealed>> <<override>> ToString() : string
}
@enduml

PlantUML version 1.2019.09(Mon Aug 26 12:19:51 EDT 2019)
(GPL source distribution)
Java Runtime: OpenJDK Runtime Environment
JVM: OpenJDK 64-Bit Server VM
Java Version: 13.0.2+8
Operating System: Mac OS X
OS Version: 10.15.4
Default Encoding: UTF-8
Language: fr
Country: CA
--></g></svg>