<?xml version="1.0" encoding="UTF-8" standalone="no"?><svg xmlns="http://www.w3.org/2000/svg" xmlns:xlink="http://www.w3.org/1999/xlink" contentScriptType="application/ecmascript" contentStyleType="text/css" height="261px" preserveAspectRatio="none" style="width:244px;height:261px;" version="1.1" viewBox="0 0 244 261" width="244px" zoomAndPan="magnify"><defs><filter height="300%" id="fvos9b1xp4hyj" width="300%" x="-1" y="-1"><feGaussianBlur result="blurOut" stdDeviation="2.0"/><feColorMatrix in="blurOut" result="blurOut2" type="matrix" values="0 0 0 0 0 0 0 0 0 0 0 0 0 0 0 0 0 0 .4 0"/><feOffset dx="4.0" dy="4.0" in="blurOut2" result="blurOut3"/><feBlend in="SourceGraphic" in2="blurOut3" mode="normal"/></filter></defs><g><!--class CoursPlanifie--><rect fill="#FFFFFF" filter="url(#fvos9b1xp4hyj)" height="60.9551" id="CoursPlanifie" style="stroke: #000000; stroke-width: 1.5;" width="223" x="8" y="8"/><ellipse cx="78.25" cy="24" fill="#ADD1B2" rx="11" ry="11" style="stroke: #000000; stroke-width: 1.0;"/><path d="M80.7231,30.1431 Q80.1421,30.4419 79.5029,30.5913 Q78.8638,30.7407 78.1582,30.7407 Q75.6514,30.7407 74.3315,29.0889 Q73.0117,27.437 73.0117,24.3159 Q73.0117,21.1865 74.3315,19.5347 Q75.6514,17.8828 78.1582,17.8828 Q78.8638,17.8828 79.5112,18.0322 Q80.1587,18.1816 80.7231,18.4805 L80.7231,21.2031 Q80.0923,20.6221 79.4988,20.3523 Q78.9053,20.0825 78.2744,20.0825 Q76.9297,20.0825 76.2449,21.1492 Q75.5601,22.2158 75.5601,24.3159 Q75.5601,26.4077 76.2449,27.4744 Q76.9297,28.541 78.2744,28.541 Q78.9053,28.541 79.4988,28.2712 Q80.0923,28.0015 80.7231,27.4204 Z "/><text fill="#000000" font-family="sans-serif" font-size="12" lengthAdjust="spacingAndGlyphs" textLength="74" x="98.75" y="28.5352">CoursPlanifie</text><line style="stroke: #000000; stroke-width: 1.5;" x1="9" x2="230" y1="40" y2="40"/><text fill="#000000" font-family="sans-serif" font-size="11" lengthAdjust="spacingAndGlyphs" textLength="211" x="14" y="54.6348">-m_seancesCours: List&lt;SeanceCours&gt;</text><line style="stroke: #000000; stroke-width: 1.5;" x1="9" x2="230" y1="60.9551" y2="60.9551"/><!--class SeanceCours--><rect fill="#FFFFFF" filter="url(#fvos9b1xp4hyj)" height="60.9551" id="SeanceCours" style="stroke: #000000; stroke-width: 1.5;" width="227" x="6" y="190"/><ellipse cx="78.75" cy="206" fill="#ADD1B2" rx="11" ry="11" style="stroke: #000000; stroke-width: 1.0;"/><path d="M81.2231,212.1431 Q80.6421,212.4419 80.0029,212.5913 Q79.3638,212.7407 78.6582,212.7407 Q76.1514,212.7407 74.8315,211.0889 Q73.5117,209.437 73.5117,206.3159 Q73.5117,203.1865 74.8315,201.5347 Q76.1514,199.8828 78.6582,199.8828 Q79.3638,199.8828 80.0112,200.0322 Q80.6587,200.1816 81.2231,200.4805 L81.2231,203.2031 Q80.5923,202.6221 79.9988,202.3523 Q79.4053,202.0825 78.7744,202.0825 Q77.4297,202.0825 76.7449,203.1492 Q76.0601,204.2158 76.0601,206.3159 Q76.0601,208.4077 76.7449,209.4744 Q77.4297,210.541 78.7744,210.541 Q79.4053,210.541 79.9988,210.2712 Q80.5923,210.0015 81.2231,209.4204 Z "/><text fill="#000000" font-family="sans-serif" font-size="12" lengthAdjust="spacingAndGlyphs" textLength="73" x="99.25" y="210.5352">SeanceCours</text><line style="stroke: #000000; stroke-width: 1.5;" x1="7" x2="232" y1="222" y2="222"/><text fill="#000000" font-family="sans-serif" font-size="11" lengthAdjust="spacingAndGlyphs" textLength="215" x="12" y="236.6348">-m_coursCorrespondant : CoursPlanifie</text><line style="stroke: #000000; stroke-width: 1.5;" x1="7" x2="232" y1="242.9551" y2="242.9551"/><!--link CoursPlanifie to SeanceCours--><path d="M119.5,69.22 C119.5,102.57 119.5,156.36 119.5,189.73 " fill="none" id="CoursPlanifie-SeanceCours" style="stroke: #A80036; stroke-width: 1.0;"/><text fill="#000000" font-family="sans-serif" font-size="13" lengthAdjust="spacingAndGlyphs" textLength="8" x="110.675" y="89.7079">1</text><text fill="#000000" font-family="sans-serif" font-size="13" lengthAdjust="spacingAndGlyphs" textLength="22" x="95.2313" y="179.4418">0..*</text><!--
@startuml CoursSeanceAssociationSimple
skinparam classAttributeIconSize 0
skinparam class {
    BackgroundColor White
    BorderColor #000
}

CoursPlanifie "1" - - - "0..*" SeanceCours

class CoursPlanifie {
    - m_seancesCours: List<SeanceCours>
}
class SeanceCours {
    - m_coursCorrespondant : CoursPlanifie
}
@enduml

PlantUML version 1.2019.09(Mon Aug 26 12:19:51 EDT 2019)
(GPL source distribution)
Java Runtime: OpenJDK Runtime Environment
JVM: OpenJDK 64-Bit Server VM
Java Version: 13.0.2+8
Operating System: Mac OS X
OS Version: 10.15.2
Default Encoding: UTF-8
Language: fr
Country: CA
--></g></svg>