<?xml version="1.0" encoding="UTF-8" standalone="no"?><svg xmlns="http://www.w3.org/2000/svg" xmlns:xlink="http://www.w3.org/1999/xlink" contentScriptType="application/ecmascript" contentStyleType="text/css" height="261px" preserveAspectRatio="none" style="width:230px;height:261px;" version="1.1" viewBox="0 0 230 261" width="230px" zoomAndPan="magnify"><defs><filter height="300%" id="frtm3hdmvs03w" width="300%" x="-1" y="-1"><feGaussianBlur result="blurOut" stdDeviation="2.0"/><feColorMatrix in="blurOut" result="blurOut2" type="matrix" values="0 0 0 0 0 0 0 0 0 0 0 0 0 0 0 0 0 0 .4 0"/><feOffset dx="4.0" dy="4.0" in="blurOut2" result="blurOut3"/><feBlend in="SourceGraphic" in2="blurOut3" mode="normal"/></filter></defs><g><!--class CoursPlanifie--><rect fill="#FFFFFF" filter="url(#frtm3hdmvs03w)" height="60.9551" id="CoursPlanifie" style="stroke: #000000; stroke-width: 1.5;" width="171" x="27" y="8"/><ellipse cx="71.25" cy="24" fill="#ADD1B2" rx="11" ry="11" style="stroke: #000000; stroke-width: 1.0;"/><path d="M73.7231,30.1431 Q73.1421,30.4419 72.5029,30.5913 Q71.8638,30.7407 71.1582,30.7407 Q68.6514,30.7407 67.3315,29.0889 Q66.0117,27.437 66.0117,24.3159 Q66.0117,21.1865 67.3315,19.5347 Q68.6514,17.8828 71.1582,17.8828 Q71.8638,17.8828 72.5112,18.0322 Q73.1587,18.1816 73.7231,18.4805 L73.7231,21.2031 Q73.0923,20.6221 72.4988,20.3523 Q71.9053,20.0825 71.2744,20.0825 Q69.9297,20.0825 69.2449,21.1492 Q68.5601,22.2158 68.5601,24.3159 Q68.5601,26.4077 69.2449,27.4744 Q69.9297,28.541 71.2744,28.541 Q71.9053,28.541 72.4988,28.2712 Q73.0923,28.0015 73.7231,27.4204 Z "/><text fill="#000000" font-family="sans-serif" font-size="12" lengthAdjust="spacingAndGlyphs" textLength="74" x="91.75" y="28.5352">CoursPlanifie</text><line style="stroke: #000000; stroke-width: 1.5;" x1="28" x2="197" y1="40" y2="40"/><text fill="#000000" font-family="sans-serif" font-size="11" lengthAdjust="spacingAndGlyphs" textLength="159" x="33" y="54.6348">-m_etudiants: List&lt;Etudiant&gt;</text><line style="stroke: #000000; stroke-width: 1.5;" x1="28" x2="197" y1="60.9551" y2="60.9551"/><!--class Etudiant--><rect fill="#FFFFFF" filter="url(#frtm3hdmvs03w)" height="60.9551" id="Etudiant" style="stroke: #000000; stroke-width: 1.5;" width="213" x="6" y="190"/><ellipse cx="84.75" cy="206" fill="#ADD1B2" rx="11" ry="11" style="stroke: #000000; stroke-width: 1.0;"/><path d="M87.2231,212.1431 Q86.6421,212.4419 86.0029,212.5913 Q85.3638,212.7407 84.6582,212.7407 Q82.1514,212.7407 80.8315,211.0889 Q79.5117,209.437 79.5117,206.3159 Q79.5117,203.1865 80.8315,201.5347 Q82.1514,199.8828 84.6582,199.8828 Q85.3638,199.8828 86.0112,200.0322 Q86.6587,200.1816 87.2231,200.4805 L87.2231,203.2031 Q86.5923,202.6221 85.9988,202.3523 Q85.4053,202.0825 84.7744,202.0825 Q83.4297,202.0825 82.7449,203.1492 Q82.0601,204.2158 82.0601,206.3159 Q82.0601,208.4077 82.7449,209.4744 Q83.4297,210.541 84.7744,210.541 Q85.4053,210.541 85.9988,210.2712 Q86.5923,210.0015 87.2231,209.4204 Z "/><text fill="#000000" font-family="sans-serif" font-size="12" lengthAdjust="spacingAndGlyphs" textLength="47" x="105.25" y="210.5352">Etudiant</text><line style="stroke: #000000; stroke-width: 1.5;" x1="7" x2="218" y1="222" y2="222"/><text fill="#000000" font-family="sans-serif" font-size="11" lengthAdjust="spacingAndGlyphs" textLength="201" x="12" y="236.6348">-m_coursSuivis : List&lt;CoursPlanifie&gt;</text><line style="stroke: #000000; stroke-width: 1.5;" x1="7" x2="218" y1="242.9551" y2="242.9551"/><!--link CoursPlanifie to Etudiant--><path d="M112.5,69.22 C112.5,102.57 112.5,156.36 112.5,189.73 " fill="none" id="CoursPlanifie-Etudiant" style="stroke: #A80036; stroke-width: 1.0;"/><text fill="#000000" font-family="sans-serif" font-size="13" lengthAdjust="spacingAndGlyphs" textLength="22" x="88.2313" y="89.7079">0..*</text><text fill="#000000" font-family="sans-serif" font-size="13" lengthAdjust="spacingAndGlyphs" textLength="22" x="88.2313" y="179.4418">0..*</text><!--
@startuml EtudiantAssociationSimple
skinparam classAttributeIconSize 0
skinparam class {
    BackgroundColor White
    BorderColor #000
}

CoursPlanifie "0..*" - - - "0..*" Etudiant

class CoursPlanifie {
    - m_etudiants: List<Etudiant>
}
class Etudiant {
    - m_coursSuivis : List<CoursPlanifie>
}
@enduml

PlantUML version 1.2019.09(Mon Aug 26 12:19:51 EDT 2019)
(GPL source distribution)
Java Runtime: OpenJDK Runtime Environment
JVM: OpenJDK 64-Bit Server VM
Java Version: 13.0.2+8
Operating System: Mac OS X
OS Version: 10.15.2
Default Encoding: UTF-8
Language: fr
Country: CA
--></g></svg>