<?xml version="1.0" encoding="us-ascii" standalone="no"?><svg xmlns="http://www.w3.org/2000/svg" xmlns:xlink="http://www.w3.org/1999/xlink" contentStyleType="text/css" height="239px" preserveAspectRatio="none" style="width:906px;height:239px;background:#FFFFFF;" version="1.1" viewBox="0 0 906 239" width="906px" zoomAndPan="magnify"><defs/><g><!--cluster Assembly1--><g id="cluster_Assembly1"><path d="M8.5,6 L8.5,6.5605 L17.875,4.8951 L27.25,6.5154 L36.625,7.0658 L46,4.0976 L55.375,5.7928 L64.75,4.8627 L74.125,4.9773 L83.5,6 L86,8.5 L85.9425,8.4809 L86.8167,12.5284 L89.2671,17.0986 L89.6682,20.9893 L91.4331,25.3322 L93,29.6094 L93,30.7612 L102.9634,29.3806 L112.9268,29.7913 L122.8902,29.5242 L132.8537,30.0854 L142.8171,30.2471 L152.7805,31.1712 L162.7439,31.3989 L172.7073,31.4207 L182.6707,30.2884 L192.6341,30.8456 L202.5976,31.482 L212.561,27.6862 L222.5244,31.4187 L232.4878,28.8187 L242.4512,31.0329 L252.4146,28.2893 L262.378,29.4267 L272.3415,31.587 L282.3049,29.4794 L292.2683,29.8902 L302.2317,30.5124 L312.1951,30.7193 L322.1585,29.599 L332.122,30.3753 L342.0854,28.0829 L352.0488,30.3677 L362.0122,31.0712 L371.9756,30.7948 L381.939,31.2441 L391.9024,28.3212 L401.8659,27.8702 L411.8293,27.9523 L421.7927,29.4524 L431.7561,29.0853 L441.7195,31.4265 L451.6829,29.1436 L461.6463,28.6946 L471.6098,30.2181 L481.5732,27.8311 L491.5366,28.225 L501.5,29.6094 L504,32.1094 L505.7305,32.1094 L505.1618,41.9789 L505.9586,51.8484 L503.1419,61.718 L504.8512,71.5875 L505.5745,81.457 L502.7403,91.3266 L503.7444,101.1961 L504.336,111.0656 L505.738,120.9352 L503.9888,130.8047 L505.2335,140.6742 L502.5232,150.5438 L502.194,160.4133 L505.343,170.2828 L502.0882,180.1523 L505.3572,190.0219 L504.551,199.8914 L503.2856,209.7609 L503.0566,219.6305 L504,229.5 L501.5,232 L501.5,233.2234 L491.4388,231.2018 L481.3776,233.5783 L471.3163,230.526 L461.2551,233.6465 L451.1939,233.2915 L441.1327,232.6532 L431.0714,232.1259 L421.0102,233.9376 L410.949,233.6362 L400.8878,232.4513 L390.8265,232.7152 L380.7653,231.6526 L370.7041,233.9105 L360.6429,232.413 L350.5816,232.4602 L340.5204,230.3777 L330.4592,230.9194 L320.398,233.4153 L310.3367,233.146 L300.2755,231.8855 L290.2143,231.1409 L280.1531,231.4162 L270.0918,230.1702 L260.0306,233.106 L249.9694,233.9722 L239.9082,233.4037 L229.8469,233.8532 L219.7857,231.6354 L209.7245,232.2326 L199.6633,230.9664 L189.602,232.7574 L179.5408,232.658 L169.4796,233.473 L159.4184,231.3876 L149.3571,231.6416 L139.2959,233.1826 L129.2347,233.5129 L119.1735,230.6332 L109.1122,231.483 L99.051,232.398 L88.9898,230.3711 L78.9286,232.9424 L68.8673,232.688 L58.8061,231.7313 L48.7449,232.3793 L38.6837,233.9431 L28.6224,231.1657 L18.5612,232.84 L8.5,232 L6,229.5 L6.7617,229.5 L6.3087,219.4545 L6.3758,209.4091 L6.3026,199.3636 L4.3356,189.3182 L4.9312,179.2727 L4.7692,169.2273 L6.1702,159.1818 L6.235,149.1364 L6.4313,139.0909 L5.2241,129.0455 L5.82,119 L5.6794,108.9545 L7.5383,98.9091 L7.1375,88.8636 L4.7052,78.8182 L5.8055,68.7727 L4.4607,58.7273 L6.769,48.6818 L7.6226,38.6364 L7.4522,28.5909 L4.8385,18.5455 L6,8.5 L8.5,6 " fill="#DDDDFF" style="stroke:#000000;stroke-width:1.5;"/><path d="M6,29.6094 L6,29.8896 L15.6667,29.0569 L25.3333,29.8671 L35,30.1423 L44.6667,28.6582 L54.3333,29.5058 L64,29.0407 L73.6667,29.098 L83.3333,29.5185 L93,29.6094 " fill="#DDDDFF" style="stroke:#000000;stroke-width:1.5;"/><text fill="#000000" font-family="sans-serif" font-size="14" font-weight="bold" lengthAdjust="spacing" textLength="74" x="10" y="22.5332">Assembly1</text></g><!--cluster Assembly2--><g id="cluster_Assembly2"><path d="M530.5,132 L530.5,132.5605 L539.875,130.8951 L549.25,132.5154 L558.625,133.0658 L568,130.0976 L577.375,131.7928 L586.75,130.8627 L596.125,130.9773 L605.5,132 L608,134.5 L607.9425,134.4809 L608.8167,138.5284 L611.2671,143.0986 L611.6682,146.9893 L613.4331,151.3322 L615,155.6094 L615,156.7612 L625.0536,155.3806 L635.1071,155.7913 L645.1607,155.5242 L655.2143,156.0854 L665.2679,156.2471 L675.3214,157.1712 L685.375,157.3989 L695.4286,157.4207 L705.4821,156.2884 L715.5357,156.8456 L725.5893,157.482 L735.6429,153.6862 L745.6964,157.4187 L755.75,154.8187 L765.8036,157.0329 L775.8571,154.2893 L785.9107,155.4267 L795.9643,157.587 L806.0179,155.4794 L816.0714,155.8902 L826.125,156.5124 L836.1786,156.7193 L846.2321,155.599 L856.2857,156.3753 L866.3393,154.0829 L876.3929,156.3677 L886.4464,157.0712 L896.5,155.6094 L899,158.1094 L900.1854,158.1094 L900.6347,168.308 L897.7118,178.5067 L897.2608,188.7054 L897.3429,198.904 L898.843,209.1027 L898.4759,219.3013 L899,229.5 L896.5,232 L896.5,233.8171 L886.6081,231.5342 L876.7162,231.0852 L866.8243,232.6087 L856.9324,230.2218 L847.0405,230.6157 L837.1486,233.7305 L827.2568,233.1618 L817.3649,233.9586 L807.473,231.1419 L797.5811,232.8512 L787.6892,233.5745 L777.7973,230.7403 L767.9054,231.7444 L758.0135,232.336 L748.1216,233.738 L738.2297,231.9888 L728.3378,233.2335 L718.4459,230.5232 L708.5541,230.194 L698.6622,233.343 L688.7703,230.0882 L678.8784,233.3572 L668.9865,232.551 L659.0946,231.2856 L649.2027,231.0566 L639.3108,233.2234 L629.4189,231.2018 L619.527,233.5783 L609.6351,230.526 L599.7432,233.6465 L589.8514,233.2915 L579.9595,232.6532 L570.0676,232.1259 L560.1757,233.9376 L550.2838,233.6362 L540.3919,232.4513 L530.5,232 L528,229.5 L528.7152,229.5 L527.6526,220 L529.9105,210.5 L528.413,201 L528.4602,191.5 L526.3777,182 L526.9194,172.5 L529.4153,163 L529.146,153.5 L527.8855,144 L528,134.5 L530.5,132 " fill="#DDFFFF" style="stroke:#000000;stroke-width:1.5;"/><path d="M528,155.6094 L528,155.8896 L537.6667,155.0569 L547.3333,155.8671 L557,156.1423 L566.6667,154.6582 L576.3333,155.5058 L586,155.0407 L595.6667,155.098 L605.3333,155.5185 L615,155.6094 " fill="#DDFFFF" style="stroke:#000000;stroke-width:1.5;"/><text fill="#000000" font-family="sans-serif" font-size="14" font-weight="bold" lengthAdjust="spacing" textLength="74" x="532" y="148.5332">Assembly2</text></g><!--class Mere--><g id="elem_Mere"><polygon fill="#BDD7EE" points="237,42,237,42.2102,246.92,41.5857,256.84,42.1933,266.76,42.3997,276.68,41.2866,286.6,41.9223,296.52,41.5735,306.44,41.6165,316.36,41.9318,326.28,41.3086,336.2,42.5536,346.12,41.3697,356.04,41.8022,365.96,42.4319,375.88,41.9142,385.8,42.0682,395.72,41.9681,405.64,42.1785,415.56,42.2391,425.48,42.5857,435.4,42.6711,445.32,42.6793,455.24,42.2546,465.16,42.4636,475.08,42.7022,485,42,484.908,41.7779,485.4401,42.3554,485.6693,42.2016,486.1288,42.6037,486.3511,42.4333,486.7678,42.7322,486.7467,42.7235,487.1426,43.1804,487.0457,43.4331,487.2395,43.8063,487.4578,44.1896,487.5,44.5,487.9162,44.5,487.4961,54.6016,487.7872,64.7031,486.9276,74.8047,487.7844,84.9063,488.0482,95.0078,487.5,105.1094,487.6369,105.1661,487.5423,105.5411,487.0583,105.7549,486.8598,106.0868,486.7228,106.4443,486.7678,106.8771,486.7603,106.859,486.3891,106.9631,486.1476,107.3799,485.6848,107.2627,485.3098,107.3573,485,107.6094,485,107.8376,475.08,106.9425,465.16,107.0902,455.24,108.2583,445.32,108.045,435.4,108.3439,425.48,107.2876,415.56,107.9286,405.64,108.1998,395.72,107.137,385.8,107.5135,375.88,107.7354,365.96,108.2611,356.04,107.6052,346.12,108.0719,336.2,107.0556,326.28,106.9321,316.36,108.113,306.44,106.8924,296.52,108.1183,286.6,107.816,276.68,107.3415,266.76,107.2556,256.84,108.0681,246.92,107.31,237,107.6094,237.0755,107.7916,236.5759,107.2927,236.3717,107.5066,236.0011,107.3192,235.617,107.099,235.2322,106.8771,235.2468,106.8832,235.3096,106.6163,235.1283,106.2483,234.845,105.8381,234.729,105.4971,234.5,105.1094,234.3697,105.1094,235.2165,95.0078,234.6549,84.9063,234.6726,74.8047,233.8916,64.7031,234.0948,54.6016,234.5,44.5,234.6634,44.5677,234.7788,44.2013,234.7797,43.7874,234.8401,43.3982,235.0184,43.0579,235.2322,42.7322,235.1447,42.5209,235.6387,42.7135,236.0337,42.6671,236.36,42.455,236.7351,42.3605,237,42" style="stroke:#000000;stroke-width:0.5;"/><polygon fill="#ADD1B2" points="351.8108,60.6756,350.1984,62.8788,348.2912,66.1057,345.5636,68.2804,342.6974,69.4696,340.412,69.5728,337.4747,68.0855,334.7032,67.1139,332.5995,65.1412,331.4961,62.8828,330.8417,61.0845,330.2006,58.7357,329.16,56.7145,329.9596,54.741,330.6602,52.5792,333.2893,50.8695,335.139,48.6511,337.4284,47.9144,340.1501,47.2801,343.6404,47.657,345.5521,48.5585,347.7747,48.9672,350.4772,51.736,351.4193,54.659,351.8286,56.6534,351.365,59.9399" style="stroke:#181818;stroke-width:1.0;"/><path d="M343.5156,53.875 Q343.6719,53.6563 343.8594,53.5469 Q344.0469,53.4375 344.2656,53.4375 Q344.6406,53.4375 344.875,53.6953 Q345.1094,53.9531 345.1094,54.5625 L345.1094,56.0156 Q345.1094,56.625 344.875,56.8906 Q344.6406,57.1563 344.2656,57.1563 Q343.9219,57.1563 343.7188,56.9531 Q343.5156,56.7656 343.4063,56.25 Q343.3594,55.8906 343.1719,55.7031 Q342.8438,55.3281 342.2344,55.1094 Q341.625,54.8906 341,54.8906 Q340.2344,54.8906 339.6016,55.2188 Q338.9688,55.5469 338.4766,56.2969 Q337.9844,57.0469 337.9844,58.0781 L337.9844,59.1719 Q337.9844,60.4063 338.875,61.2266 Q339.7656,62.0469 341.3594,62.0469 Q342.2969,62.0469 342.9531,61.7969 Q343.3438,61.6406 343.7656,61.2031 Q344.0313,60.9375 344.1797,60.8594 Q344.3281,60.7813 344.5313,60.7813 Q344.8594,60.7813 345.1172,61.0391 Q345.375,61.2969 345.375,61.6406 Q345.375,61.9844 345.0313,62.3906 Q344.5313,62.9688 343.7344,63.2969 Q342.6563,63.75 341.3594,63.75 Q339.8438,63.75 338.6406,63.125 Q337.6563,62.625 336.9688,61.5547 Q336.2813,60.4844 336.2813,59.2031 L336.2813,58.0469 Q336.2813,56.7188 336.8984,55.5703 Q337.5156,54.4219 338.6094,53.8047 Q339.7031,53.1875 340.9375,53.1875 Q341.6719,53.1875 342.3203,53.3516 Q342.9688,53.5156 343.5156,53.875 Z " fill="#000000"/><text fill="#000000" font-family="sans-serif" font-size="14" lengthAdjust="spacing" textLength="32" x="361.25" y="63.7285">Mere</text><path d="M235.5,74 L235.5,74.2802 L245.54,73.4476 L255.58,74.2577 L265.62,74.5329 L275.66,73.0488 L285.7,73.8964 L295.74,73.4313 L305.78,73.4887 L315.82,73.9091 L325.86,73.0782 L335.9,74.7382 L345.94,73.1596 L355.98,73.7363 L366.02,74.5759 L376.06,73.8856 L386.1,74.091 L396.14,73.9574 L406.18,74.238 L416.22,74.3188 L426.26,74.7809 L436.3,74.8947 L446.34,74.9057 L456.38,74.3395 L466.42,74.6181 L476.46,74.9363 L486.5,74 " fill="#BDD7EE" style="stroke:#000000;stroke-width:0.5;"/><path d="M235.5,82 L235.5,82.2802 L245.54,81.4476 L255.58,82.2577 L265.62,82.5329 L275.66,81.0488 L285.7,81.8964 L295.74,81.4313 L305.78,81.4887 L315.82,81.9091 L325.86,81.0782 L335.9,82.7382 L345.94,81.1596 L355.98,81.7363 L366.02,82.5759 L376.06,81.8856 L386.1,82.091 L396.14,81.9574 L406.18,82.238 L416.22,82.3188 L426.26,82.7809 L436.3,82.8947 L446.34,82.9057 L456.38,82.3395 L466.42,82.6181 L476.46,82.9363 L486.5,82 " fill="#BDD7EE" style="stroke:#000000;stroke-width:0.5;"/><text fill="#000000" font-family="sans-serif" font-size="14" lengthAdjust="spacing" textLength="241" x="240.5" y="100.5332">protected internal MethodeAAcceder()</text></g><!--class FilleAssembly1--><g id="elem_FilleAssembly1"><polygon fill="#A9D18E" points="300.5,168,300.5,168.2102,310.5833,167.5857,320.6667,168.1933,330.75,168.3997,340.8333,167.2866,350.9167,167.9223,361,167.5735,371.0833,167.6165,381.1667,167.9318,391.25,167.3086,401.3333,168.5536,411.4167,167.3697,421.5,168,421.4748,167.9391,421.9087,168.2795,422.1962,168.2665,422.5694,168.4604,422.9101,168.5759,423.2678,168.7322,423.3227,168.755,423.4879,169.1163,423.741,169.5141,423.9138,169.8785,424.0627,170.2331,424,170.5,424.0849,170.5,424.1545,179.1,424.2341,187.7,423.7596,196.3,424.2262,204.9,424,213.5,423.9087,213.4622,424.0179,213.9216,423.5547,214.144,423.5396,214.5519,423.6426,215.0088,423.2678,215.2678,423.2616,215.2528,422.9276,215.4466,422.6039,215.6649,422.2602,215.8353,421.8531,215.8524,421.5,216,421.5,216.2872,411.4167,215.4276,401.3333,216.2844,391.25,216.5482,381.1667,216.4445,371.0833,216.613,361,215.5169,350.9167,215.3478,340.8333,215.3786,330.75,215.9411,320.6667,215.8035,310.5833,216.6814,300.5,216,300.4777,215.9462,300.1027,215.7479,299.822,215.7774,299.3543,215.3553,299.0196,215.2543,298.7322,215.2678,298.9321,215.3505,298.72,214.9698,298.6655,214.6544,298.1938,214.1661,298.2447,213.8943,298,213.5,298.1968,213.5,297.8425,204.9,297.968,196.3,298.042,187.7,298.2173,179.1,298,170.5,297.9987,170.4995,298.2889,170.2055,298.1223,169.7223,298.2308,169.3529,298.7409,169.15,298.7322,168.7322,298.6408,168.5114,299.1507,168.7425,299.4657,168.503,299.7587,168.2104,300.1013,168.0375,300.5,168" style="stroke:#000000;stroke-width:0.5;"/><polygon fill="#ADD1B2" points="324.0608,186.6756,322.4484,188.8788,320.5412,192.1057,317.8136,194.2804,314.9474,195.4696,312.662,195.5728,309.7247,194.0855,306.9532,193.1139,304.8495,191.1412,303.7461,188.8828,303.0917,187.0845,302.4506,184.7357,301.41,182.7145,302.2096,180.741,302.9102,178.5792,305.5393,176.8695,307.389,174.6511,309.6784,173.9144,312.4001,173.2801,315.8904,173.657,317.8021,174.5585,320.0247,174.9672,322.7272,177.736,323.6693,180.659,324.0786,182.6534,323.615,185.9399" style="stroke:#181818;stroke-width:1.0;"/><path d="M315.7656,179.875 Q315.9219,179.6563 316.1094,179.5469 Q316.2969,179.4375 316.5156,179.4375 Q316.8906,179.4375 317.125,179.6953 Q317.3594,179.9531 317.3594,180.5625 L317.3594,182.0156 Q317.3594,182.625 317.125,182.8906 Q316.8906,183.1563 316.5156,183.1563 Q316.1719,183.1563 315.9688,182.9531 Q315.7656,182.7656 315.6563,182.25 Q315.6094,181.8906 315.4219,181.7031 Q315.0938,181.3281 314.4844,181.1094 Q313.875,180.8906 313.25,180.8906 Q312.4844,180.8906 311.8516,181.2188 Q311.2188,181.5469 310.7266,182.2969 Q310.2344,183.0469 310.2344,184.0781 L310.2344,185.1719 Q310.2344,186.4063 311.125,187.2266 Q312.0156,188.0469 313.6094,188.0469 Q314.5469,188.0469 315.2031,187.7969 Q315.5938,187.6406 316.0156,187.2031 Q316.2813,186.9375 316.4297,186.8594 Q316.5781,186.7813 316.7813,186.7813 Q317.1094,186.7813 317.3672,187.0391 Q317.625,187.2969 317.625,187.6406 Q317.625,187.9844 317.2813,188.3906 Q316.7813,188.9688 315.9844,189.2969 Q314.9063,189.75 313.6094,189.75 Q312.0938,189.75 310.8906,189.125 Q309.9063,188.625 309.2188,187.5547 Q308.5313,186.4844 308.5313,185.2031 L308.5313,184.0469 Q308.5313,182.7188 309.1484,181.5703 Q309.7656,180.4219 310.8594,179.8047 Q311.9531,179.1875 313.1875,179.1875 Q313.9219,179.1875 314.5703,179.3516 Q315.2188,179.5156 315.7656,179.875 Z " fill="#000000"/><text fill="#000000" font-family="sans-serif" font-size="14" lengthAdjust="spacing" textLength="94" x="327" y="189.7285">FilleAssembly1</text><path d="M299,200 L299,200.2802 L309.3333,199.4476 L319.6667,200.2577 L330,200.5329 L340.3333,199.0488 L350.6667,199.8964 L361,199.4313 L371.3333,199.4887 L381.6667,199.9091 L392,199.0782 L402.3333,200.7382 L412.6667,199.1596 L423,200 " fill="#A9D18E" style="stroke:#000000;stroke-width:0.5;"/><path d="M299,208 L299,208.2802 L309.3333,207.4476 L319.6667,208.2577 L330,208.5329 L340.3333,207.0488 L350.6667,207.8964 L361,207.4313 L371.3333,207.4887 L381.6667,207.9091 L392,207.0782 L402.3333,208.7382 L412.6667,207.1596 L423,208 " fill="#A9D18E" style="stroke:#000000;stroke-width:0.5;"/></g><!--class AutreClasseAssembly1--><g id="elem_AutreClasseAssembly1"><polygon fill="#A9D18E" points="25,51,25,51.2102,35.1176,50.5857,45.2353,51.1933,55.3529,51.3997,65.4706,50.2866,75.5882,50.9223,85.7059,50.5735,95.8235,50.6165,105.9412,50.9318,116.0588,50.3086,126.1765,51.5536,136.2941,50.3697,146.4118,50.8022,156.5294,51.4319,166.6471,50.9142,176.7647,51.0682,186.8824,50.9681,197,51,197.0228,51.055,197.3841,51.2201,197.7818,51.4733,198.1463,51.646,198.5009,51.795,198.7678,51.7322,198.8462,51.7647,199.057,52.1449,199.2769,52.5289,198.985,52.7009,199.5625,53.233,199.5,53.5,199.4012,53.5,199.6779,62.1,199.335,70.7,199.4772,79.3,199.7472,87.9,199.5,96.5,199.485,96.4938,199.386,96.867,199.3114,97.2503,199.1888,97.6138,198.913,97.9137,198.7678,98.2678,198.8044,98.3562,198.3412,98.2379,198.0969,98.6482,197.777,98.8759,197.4103,98.9905,197,99,197,99.613,186.8824,98.5169,176.7647,98.3478,166.6471,98.3786,156.5294,98.9411,146.4118,98.8035,136.2941,99.6814,126.1765,98.8253,116.0588,98.6569,105.9412,99.2283,95.8235,98.3332,85.7059,98.4809,75.5882,99.649,65.4706,99.4357,55.3529,99.7345,45.2353,98.6782,35.1176,99.3192,25,99,25.0753,99.1818,24.5862,98.7081,24.2807,98.6776,23.9554,98.5995,23.6689,98.6149,23.2322,98.2678,23.2309,98.2672,23.2282,97.9732,22.7688,97.49,22.5843,97.1207,22.8015,96.9178,22.5,96.5,22.261,96.5,22.6697,87.9,22.5689,79.3,22.4107,70.7,22.3821,62.1,22.5,53.5,22.6413,53.5585,22.5543,53.1083,22.9752,52.8684,22.7691,52.3688,23.2759,52.1645,23.2322,51.7322,23.294,51.8814,23.617,51.6612,23.9454,51.4539,24.3856,51.5167,24.7247,51.3354,25,51" style="stroke:#000000;stroke-width:0.5;"/><polygon fill="#ADD1B2" points="48.5608,69.6756,46.9484,71.8788,45.0412,75.1057,42.3136,77.2804,39.4474,78.4696,37.162,78.5728,34.2247,77.0855,31.4532,76.1139,29.3495,74.1412,28.2461,71.8828,27.5917,70.0845,26.9506,67.7357,25.91,65.7145,26.7096,63.741,27.4102,61.5792,30.0393,59.8695,31.889,57.6511,34.1784,56.9144,36.9001,56.2801,40.3904,56.657,42.3021,57.5585,44.5247,57.9672,47.2272,60.736,48.1693,63.659,48.5786,65.6534,48.115,68.9399" style="stroke:#181818;stroke-width:1.0;"/><path d="M40.2656,62.875 Q40.4219,62.6563 40.6094,62.5469 Q40.7969,62.4375 41.0156,62.4375 Q41.3906,62.4375 41.625,62.6953 Q41.8594,62.9531 41.8594,63.5625 L41.8594,65.0156 Q41.8594,65.625 41.625,65.8906 Q41.3906,66.1563 41.0156,66.1563 Q40.6719,66.1563 40.4688,65.9531 Q40.2656,65.7656 40.1563,65.25 Q40.1094,64.8906 39.9219,64.7031 Q39.5938,64.3281 38.9844,64.1094 Q38.375,63.8906 37.75,63.8906 Q36.9844,63.8906 36.3516,64.2188 Q35.7188,64.5469 35.2266,65.2969 Q34.7344,66.0469 34.7344,67.0781 L34.7344,68.1719 Q34.7344,69.4063 35.625,70.2266 Q36.5156,71.0469 38.1094,71.0469 Q39.0469,71.0469 39.7031,70.7969 Q40.0938,70.6406 40.5156,70.2031 Q40.7813,69.9375 40.9297,69.8594 Q41.0781,69.7813 41.2813,69.7813 Q41.6094,69.7813 41.8672,70.0391 Q42.125,70.2969 42.125,70.6406 Q42.125,70.9844 41.7813,71.3906 Q41.2813,71.9688 40.4844,72.2969 Q39.4063,72.75 38.1094,72.75 Q36.5938,72.75 35.3906,72.125 Q34.4063,71.625 33.7188,70.5547 Q33.0313,69.4844 33.0313,68.2031 L33.0313,67.0469 Q33.0313,65.7188 33.6484,64.5703 Q34.2656,63.4219 35.3594,62.8047 Q36.4531,62.1875 37.6875,62.1875 Q38.4219,62.1875 39.0703,62.3516 Q39.7188,62.5156 40.2656,62.875 Z " fill="#000000"/><text fill="#000000" font-family="sans-serif" font-size="14" lengthAdjust="spacing" textLength="145" x="51.5" y="72.7285">AutreClasseAssembly1</text><path d="M23.5,83 L23.5,83.2802 L33.2222,82.4476 L42.9444,83.2577 L52.6667,83.5329 L62.3889,82.0488 L72.1111,82.8964 L81.8333,82.4313 L91.5556,82.4887 L101.2778,82.9091 L111,82.0782 L120.7222,83.7382 L130.4444,82.1596 L140.1667,82.7363 L149.8889,83.5759 L159.6111,82.8856 L169.3333,83.091 L179.0556,82.9574 L188.7778,83.238 L198.5,83 " fill="#A9D18E" style="stroke:#000000;stroke-width:0.5;"/><path d="M23.5,91 L23.5,91.2802 L33.2222,90.4476 L42.9444,91.2577 L52.6667,91.5329 L62.3889,90.0488 L72.1111,90.8964 L81.8333,90.4313 L91.5556,90.4887 L101.2778,90.9091 L111,90.0782 L120.7222,91.7382 L130.4444,90.1596 L140.1667,90.7363 L149.8889,91.5759 L159.6111,90.8856 L169.3333,91.091 L179.0556,90.9574 L188.7778,91.238 L198.5,91 " fill="#A9D18E" style="stroke:#000000;stroke-width:0.5;"/></g><!--class FilleAssembly2--><g id="elem_FilleAssembly2"><polygon fill="#A9D18E" points="759.5,168,759.5,168.2102,769.5833,167.5857,779.6667,168.1933,789.75,168.3997,799.8333,167.2866,809.9167,167.9223,820,167.5735,830.0833,167.6165,840.1667,167.9318,850.25,167.3086,860.3333,168.5536,870.4167,167.3697,880.5,168,880.4748,167.9391,880.9087,168.2795,881.1962,168.2665,881.5694,168.4604,881.9101,168.5759,882.2678,168.7322,882.3227,168.755,882.4879,169.1163,882.741,169.5141,882.9138,169.8785,883.0627,170.2331,883,170.5,883.0849,170.5,883.1545,179.1,883.2341,187.7,882.7596,196.3,883.2262,204.9,883,213.5,882.9087,213.4622,883.0179,213.9216,882.5547,214.144,882.5396,214.5519,882.6426,215.0088,882.2678,215.2678,882.2616,215.2528,881.9276,215.4466,881.6039,215.6649,881.2602,215.8353,880.8531,215.8524,880.5,216,880.5,216.2872,870.4167,215.4276,860.3333,216.2844,850.25,216.5482,840.1667,216.4445,830.0833,216.613,820,215.5169,809.9167,215.3478,799.8333,215.3786,789.75,215.9411,779.6667,215.8035,769.5833,216.6814,759.5,216,759.4777,215.9462,759.1027,215.7479,758.822,215.7774,758.3543,215.3553,758.0196,215.2543,757.7322,215.2678,757.9321,215.3505,757.72,214.9698,757.6655,214.6544,757.1938,214.1661,757.2447,213.8943,757,213.5,757.1968,213.5,756.8425,204.9,756.968,196.3,757.042,187.7,757.2173,179.1,757,170.5,756.9987,170.4995,757.2889,170.2055,757.1223,169.7223,757.2308,169.3529,757.7409,169.15,757.7322,168.7322,757.6408,168.5114,758.1507,168.7425,758.4657,168.503,758.7587,168.2104,759.1013,168.0375,759.5,168" style="stroke:#000000;stroke-width:0.5;"/><polygon fill="#ADD1B2" points="783.0608,186.6756,781.4484,188.8788,779.5412,192.1057,776.8136,194.2804,773.9474,195.4696,771.662,195.5728,768.7247,194.0855,765.9532,193.1139,763.8495,191.1412,762.7461,188.8828,762.0917,187.0845,761.4506,184.7357,760.41,182.7145,761.2096,180.741,761.9102,178.5792,764.5393,176.8695,766.389,174.6511,768.6784,173.9144,771.4001,173.2801,774.8904,173.657,776.8021,174.5585,779.0247,174.9672,781.7272,177.736,782.6693,180.659,783.0786,182.6534,782.615,185.9399" style="stroke:#181818;stroke-width:1.0;"/><path d="M774.7656,179.875 Q774.9219,179.6563 775.1094,179.5469 Q775.2969,179.4375 775.5156,179.4375 Q775.8906,179.4375 776.125,179.6953 Q776.3594,179.9531 776.3594,180.5625 L776.3594,182.0156 Q776.3594,182.625 776.125,182.8906 Q775.8906,183.1563 775.5156,183.1563 Q775.1719,183.1563 774.9688,182.9531 Q774.7656,182.7656 774.6563,182.25 Q774.6094,181.8906 774.4219,181.7031 Q774.0938,181.3281 773.4844,181.1094 Q772.875,180.8906 772.25,180.8906 Q771.4844,180.8906 770.8516,181.2188 Q770.2188,181.5469 769.7266,182.2969 Q769.2344,183.0469 769.2344,184.0781 L769.2344,185.1719 Q769.2344,186.4063 770.125,187.2266 Q771.0156,188.0469 772.6094,188.0469 Q773.5469,188.0469 774.2031,187.7969 Q774.5938,187.6406 775.0156,187.2031 Q775.2813,186.9375 775.4297,186.8594 Q775.5781,186.7813 775.7813,186.7813 Q776.1094,186.7813 776.3672,187.0391 Q776.625,187.2969 776.625,187.6406 Q776.625,187.9844 776.2813,188.3906 Q775.7813,188.9688 774.9844,189.2969 Q773.9063,189.75 772.6094,189.75 Q771.0938,189.75 769.8906,189.125 Q768.9063,188.625 768.2188,187.5547 Q767.5313,186.4844 767.5313,185.2031 L767.5313,184.0469 Q767.5313,182.7188 768.1484,181.5703 Q768.7656,180.4219 769.8594,179.8047 Q770.9531,179.1875 772.1875,179.1875 Q772.9219,179.1875 773.5703,179.3516 Q774.2188,179.5156 774.7656,179.875 Z " fill="#000000"/><text fill="#000000" font-family="sans-serif" font-size="14" lengthAdjust="spacing" textLength="94" x="786" y="189.7285">FilleAssembly2</text><path d="M758,200 L758,200.2802 L768.3333,199.4476 L778.6667,200.2577 L789,200.5329 L799.3333,199.0488 L809.6667,199.8964 L820,199.4313 L830.3333,199.4887 L840.6667,199.9091 L851,199.0782 L861.3333,200.7382 L871.6667,199.1596 L882,200 " fill="#A9D18E" style="stroke:#000000;stroke-width:0.5;"/><path d="M758,208 L758,208.2802 L768.3333,207.4476 L778.6667,208.2577 L789,208.5329 L799.3333,207.0488 L809.6667,207.8964 L820,207.4313 L830.3333,207.4887 L840.6667,207.9091 L851,207.0782 L861.3333,208.7382 L871.6667,207.1596 L882,208 " fill="#A9D18E" style="stroke:#000000;stroke-width:0.5;"/></g><!--class AutreClasseAssembly2--><g id="elem_AutreClasseAssembly2"><polygon fill="#EB935B" points="547,168,547,168.2102,557.1176,167.5857,567.2353,168.1933,577.3529,168.3997,587.4706,167.2866,597.5882,167.9223,607.7059,167.5735,617.8235,167.6165,627.9412,167.9318,638.0588,167.3086,648.1765,168.5536,658.2941,167.3697,668.4118,167.8022,678.5294,168.4319,688.6471,167.9142,698.7647,168.0682,708.8824,167.9681,719,168,719.0228,168.055,719.3841,168.2201,719.7818,168.4733,720.1463,168.646,720.5009,168.795,720.7678,168.7322,720.8462,168.7647,721.057,169.1449,721.2769,169.5289,720.985,169.7009,721.5625,170.233,721.5,170.5,721.4012,170.5,721.6779,179.1,721.335,187.7,721.4772,196.3,721.7472,204.9,721.5,213.5,721.485,213.4938,721.386,213.867,721.3114,214.2503,721.1888,214.6138,720.913,214.9137,720.7678,215.2678,720.8044,215.3562,720.3412,215.2379,720.0969,215.6482,719.777,215.8759,719.4103,215.9905,719,216,719,216.613,708.8824,215.5169,698.7647,215.3478,688.6471,215.3786,678.5294,215.9411,668.4118,215.8035,658.2941,216.6814,648.1765,215.8253,638.0588,215.6569,627.9412,216.2283,617.8235,215.3332,607.7059,215.4809,597.5882,216.649,587.4706,216.4357,577.3529,216.7345,567.2353,215.6782,557.1176,216.3192,547,216,547.0753,216.1818,546.5862,215.7081,546.2807,215.6776,545.9554,215.5995,545.6689,215.6149,545.2322,215.2678,545.2309,215.2672,545.2282,214.9732,544.7688,214.49,544.5843,214.1207,544.8015,213.9178,544.5,213.5,544.261,213.5,544.6697,204.9,544.5689,196.3,544.4107,187.7,544.3821,179.1,544.5,170.5,544.6413,170.5585,544.5543,170.1083,544.9752,169.8684,544.7691,169.3688,545.2759,169.1645,545.2322,168.7322,545.294,168.8814,545.617,168.6612,545.9454,168.4539,546.3856,168.5167,546.7247,168.3354,547,168" style="stroke:#000000;stroke-width:0.5;"/><polygon fill="#ADD1B2" points="570.5608,186.6756,568.9484,188.8788,567.0412,192.1057,564.3136,194.2804,561.4474,195.4696,559.162,195.5728,556.2247,194.0855,553.4532,193.1139,551.3495,191.1412,550.2461,188.8828,549.5917,187.0845,548.9506,184.7357,547.91,182.7145,548.7096,180.741,549.4102,178.5792,552.0393,176.8695,553.889,174.6511,556.1784,173.9144,558.9001,173.2801,562.3904,173.657,564.3021,174.5585,566.5247,174.9672,569.2272,177.736,570.1693,180.659,570.5786,182.6534,570.115,185.9399" style="stroke:#181818;stroke-width:1.0;"/><path d="M562.2656,179.875 Q562.4219,179.6563 562.6094,179.5469 Q562.7969,179.4375 563.0156,179.4375 Q563.3906,179.4375 563.625,179.6953 Q563.8594,179.9531 563.8594,180.5625 L563.8594,182.0156 Q563.8594,182.625 563.625,182.8906 Q563.3906,183.1563 563.0156,183.1563 Q562.6719,183.1563 562.4688,182.9531 Q562.2656,182.7656 562.1563,182.25 Q562.1094,181.8906 561.9219,181.7031 Q561.5938,181.3281 560.9844,181.1094 Q560.375,180.8906 559.75,180.8906 Q558.9844,180.8906 558.3516,181.2188 Q557.7188,181.5469 557.2266,182.2969 Q556.7344,183.0469 556.7344,184.0781 L556.7344,185.1719 Q556.7344,186.4063 557.625,187.2266 Q558.5156,188.0469 560.1094,188.0469 Q561.0469,188.0469 561.7031,187.7969 Q562.0938,187.6406 562.5156,187.2031 Q562.7813,186.9375 562.9297,186.8594 Q563.0781,186.7813 563.2813,186.7813 Q563.6094,186.7813 563.8672,187.0391 Q564.125,187.2969 564.125,187.6406 Q564.125,187.9844 563.7813,188.3906 Q563.2813,188.9688 562.4844,189.2969 Q561.4063,189.75 560.1094,189.75 Q558.5938,189.75 557.3906,189.125 Q556.4063,188.625 555.7188,187.5547 Q555.0313,186.4844 555.0313,185.2031 L555.0313,184.0469 Q555.0313,182.7188 555.6484,181.5703 Q556.2656,180.4219 557.3594,179.8047 Q558.4531,179.1875 559.6875,179.1875 Q560.4219,179.1875 561.0703,179.3516 Q561.7188,179.5156 562.2656,179.875 Z " fill="#000000"/><text fill="#000000" font-family="sans-serif" font-size="14" lengthAdjust="spacing" textLength="145" x="573.5" y="189.7285">AutreClasseAssembly2</text><path d="M545.5,200 L545.5,200.2802 L555.2222,199.4476 L564.9444,200.2577 L574.6667,200.5329 L584.3889,199.0488 L594.1111,199.8964 L603.8333,199.4313 L613.5556,199.4887 L623.2778,199.9091 L633,199.0782 L642.7222,200.7382 L652.4444,199.1596 L662.1667,199.7363 L671.8889,200.5759 L681.6111,199.8856 L691.3333,200.091 L701.0556,199.9574 L710.7778,200.238 L720.5,200 " fill="#EB935B" style="stroke:#000000;stroke-width:0.5;"/><path d="M545.5,208 L545.5,208.2802 L555.2222,207.4476 L564.9444,208.2577 L574.6667,208.5329 L584.3889,207.0488 L594.1111,207.8964 L603.8333,207.4313 L613.5556,207.4887 L623.2778,207.9091 L633,207.0782 L642.7222,208.7382 L652.4444,207.1596 L662.1667,207.7363 L671.8889,208.5759 L681.6111,207.8856 L691.3333,208.091 L701.0556,207.9574 L710.7778,208.238 L720.5,208 " fill="#EB935B" style="stroke:#000000;stroke-width:0.5;"/></g><!--reverse link Mere to FilleAssembly1--><g id="link_Mere_FilleAssembly1"><path d="M361,126.03 L361.0934,126.03 L360.8159,134.402 L361.0859,142.774 L361.1776,151.146 L360.6829,159.518 L361,167.89 " fill="none" style="stroke:#181818;stroke-width:1.0;"/><polygon fill="none" points="361,108.03,361.0665,108.0522,359.669,111.5863,358.6611,115.2504,357.5264,118.8721,355.9744,122.3548,355,126.03,355,126.0041,357.4,125.8878,359.8,125.9022,362.2,126.0073,364.6,125.7995,367,126.03,367.1751,126.0884,365.6007,122.3636,364.5375,118.8092,363.5366,115.2755,362.1729,111.621,361,108.03" style="stroke:#181818;stroke-width:1.0;"/></g><!--reverse link Mere to FilleAssembly2--><g id="link_Mere_FilleAssembly2"><path d="M505.6891,85.979 L505.6973,86.072 L512.5896,86.4006 L519.5296,87.2747 L526.454,87.9712 L533.3274,88.0834 L540.2715,89.0043 L540.2681,88.97 L547.1367,89.5015 L554.0227,90.2062 L560.9206,91.0314 L567.7771,91.4415 L574.6916,92.433 L574.7188,92.6776 L578.0472,92.5306 L581.455,93.0976 L584.8724,93.7517 L588.2335,93.8989 L591.6243,94.3127 L591.6279,94.3428 L594.949,94.6981 L598.2866,95.1905 L601.6163,95.6167 L604.9611,96.1691 L608.2565,96.3101 L608.2951,96.6059 L611.5447,97.0336 L614.7693,97.2707 L618.0303,97.7869 L621.2931,98.3162 L624.5018,98.4309 L624.4565,98.1136 L627.6987,99.1794 L630.7918,99.2004 L633.9982,100.0157 L637.0879,100.013 L640.2733,100.6807 L640.2686,100.6507 L643.3666,101.4833 L646.3545,101.6131 L649.4073,102.1576 L652.4657,102.737 L655.4846,103.0652 L655.5162,103.2475 L658.3972,103.5684 L661.3322,104.2009 L664.1798,104.3294 L667.1577,105.2095 L670.049,105.5899 L670.0952,105.8292 L672.8526,106.318 L675.633,106.9257 L678.3068,106.9815 L681.0588,107.4419 L683.8799,108.2606 L683.8213,107.9907 L686.4765,108.7995 L689.0657,109.3041 L691.7505,110.2499 L694.272,110.4425 L696.8906,111.0828 L696.8542,110.9348 L699.3357,111.7772 L701.6614,111.9868 L704.0979,112.6464 L706.6428,113.7464 L708.9947,114.0622 L709.0473,114.2485 L711.3056,115.0048 L713.4,115.1815 L715.6996,116.0841 L717.9546,116.8285 L720.1053,117.2045 L720.0395,117.0051 L722.0981,117.8262 L724.1351,118.5819 L726.2145,119.466 L728.1292,119.8513 L730.1359,120.5152 L730.2112,120.7065 L731.8187,120.9831 L733.5714,121.629 L735.5363,122.8144 L737.1106,123.0065 L739,124 L739.1054,124.2002 L742.4412,125.8699 L745.7414,127.4719 L749.1221,129.2268 L752.6887,131.3351 L755.9922,132.9433 L755.9165,132.8338 L759.3388,135.3693 L762.2466,137.1604 L765.7394,139.7978 L768.9028,141.9587 L771.9775,143.9913 L772.047,144.0751 L774.8887,146.4079 L777.9791,149.0409 L780.8449,151.4027 L783.6167,153.6511 L786.4666,155.9936 L786.5484,156.0803 L788.9275,158.3128 L791.6866,160.9477 L794.0159,163.1275 L796.522,165.4945 L798.97,167.8 " fill="none" style="stroke:#181818;stroke-width:1.0;"/><polygon fill="none" points="487.75,84.5,487.7775,84.5644,491.1849,85.8647,494.7538,87.5427,498.2701,89.0977,501.6134,90.2483,505.1961,91.9587,505.1703,91.9566,505.2517,89.5551,505.4631,87.1644,505.7651,84.7812,505.7553,82.3722,506.1821,79.9993,506.2259,80.1785,502.4459,80.6953,498.7936,81.7355,495.157,82.8396,491.4296,83.5721,487.75,84.5" style="stroke:#181818;stroke-width:1.0;"/></g><!--SRC=[bOy_QyCm4CLtVGg1btO8E2wb3NIH8niwTEhGMP6EM4IHpEbCIFzyzyfsQ9LIMdBJeVVqU_VYplfUeTfpxLICWWZjPY1urC4_srVW9OjVbavvSq1B19uJ3f19qs_-ndYQMkdT5iFWpJguWFobimIp4j00pgz5MPRiWx4-kTKMk8WHzXjtNF92olQ4ch5FWC2BMigxfZa9u_GO23I1uTOJe5SkEQaB1eJG6bBIrVLaJYdViDOw1rcOMCdb_OZDhLFYm_jYySEUWyH02Ejn_GltIyCgDMpF6vwbL9STLVrpLC8rzUhcjiwF-WG0]--></g></svg>