<?xml version="1.0" encoding="UTF-8" standalone="no"?><svg xmlns="http://www.w3.org/2000/svg" xmlns:xlink="http://www.w3.org/1999/xlink" contentScriptType="application/ecmascript" contentStyleType="text/css" height="256px" preserveAspectRatio="none" style="width:864px;height:256px;" version="1.1" viewBox="0 0 864 256" width="864px" zoomAndPan="magnify"><defs><filter height="300%" id="fgkl1hhif6xky" width="300%" x="-1" y="-1"><feGaussianBlur result="blurOut" stdDeviation="2.0"/><feColorMatrix in="blurOut" result="blurOut2" type="matrix" values="0 0 0 0 0 0 0 0 0 0 0 0 0 0 0 0 0 0 .4 0"/><feOffset dx="4.0" dy="4.0" in="blurOut2" result="blurOut3"/><feBlend in="SourceGraphic" in2="blurOut3" mode="normal"/></filter></defs><g><!--cluster Assembly1--><polygon fill="#DDDDFF" filter="url(#fgkl1hhif6xky)" points="22,24,22,24.2102,31.4444,23.5857,40.8889,24.1933,50.3333,24.3997,59.7778,23.2866,69.2222,23.9223,78.6667,23.5735,88.1111,23.6165,97.5556,23.9318,107,24,106.78,23.9315,108.5762,28.5525,109.5994,32.9329,111.1371,37.4734,112.7375,42.0334,114,46.4883,114,46.4025,123.8889,46.5565,133.7778,46.4563,143.6667,46.6668,153.5556,46.7274,163.4444,47.074,173.3333,47.1593,183.2222,47.1675,193.1111,46.7429,203,46.9519,212.8889,47.1905,222.7778,45.7671,232.6667,47.1668,242.5556,46.1918,252.4444,47.0221,262.3333,45.9933,272.2222,46.4198,282.1111,47.2299,292,46.4395,301.8889,46.5936,311.7778,46.8269,321.6667,46.9045,331.5556,46.4844,341.4444,46.7755,351.3333,45.9159,361.2222,46.7727,371.1111,47.0365,381,46.9328,390.8889,47.1013,400.7778,46.0052,410.6667,45.8361,420.5556,45.8669,430.4444,46.4294,440.3333,46.2918,450.2222,47.1697,460.1111,46.3136,470,46.4883,469.6569,46.4883,470.2283,56.3639,469.3332,66.2395,469.4809,76.115,470.649,85.9906,470.4357,95.8662,470.7345,105.7418,469.6782,115.6174,470.3192,125.493,470.5904,135.3686,469.5276,145.2441,469.9041,155.1197,470.126,164.9953,470.6518,174.8709,469.9958,184.7465,470.4626,194.6221,469.4462,204.4977,469.3227,214.3732,470.5036,224.2488,469.2831,234.1244,470,244,470,244.509,460.0444,244.2066,450.0889,243.7321,440.1333,243.6462,430.1778,244.4588,420.2222,243.7007,410.2667,244.5919,400.3111,243.4473,390.3556,244.6174,380.4,244.4843,370.4444,244.245,360.4889,244.0472,350.5333,244.7266,340.5778,244.6136,330.6222,244.1693,320.6667,244.2682,310.7111,243.8697,300.7556,244.7165,290.8,244.1549,280.8444,244.1726,270.8889,243.3916,260.9333,243.5948,250.9778,244.5307,241.0222,244.4298,231.0667,243.9571,221.1111,243.6778,211.1556,243.7811,201.2,243.3138,191.2444,244.4147,181.2889,244.7396,171.3333,244.5264,161.3778,244.6949,151.4222,243.8633,141.4667,244.0872,131.5111,243.6124,121.5556,244.284,111.6,244.2468,101.6444,244.5524,91.6889,243.7703,81.7333,243.8656,71.7778,244.4435,61.8222,244.5673,51.8667,243.4875,41.9111,243.8061,31.9556,244.1493,22,244,21.3892,244,22.3534,234,22.258,224,21.8992,214,22.1422,204,22.7287,194,21.6871,184,22.315,174,22.2856,164,22.1158,154,22.1409,144,22.1135,134,21.3758,124,21.5992,114,21.5385,104,22.0638,94,22.0881,84,22.1617,74,21.709,64,21.9325,54,21.8798,44,22.5769,34,22,24" style="stroke: #000000; stroke-width: 1.5;"/><path d="M22,46.4883 L22,46.7685 L32.2222,45.9359 L42.4444,46.746 L52.6667,47.0212 L62.8889,45.5371 L73.1111,46.3847 L83.3333,45.9196 L93.5556,45.9769 L103.7778,46.3974 L114,46.4883 " fill="#DDDDFF" style="stroke: #000000; stroke-width: 1.5;"/><text fill="#000000" font-family="sans-serif" font-size="14" font-weight="bold" lengthAdjust="spacingAndGlyphs" textLength="79" x="26" y="39.5352">Assembly1</text><!--cluster Assembly2--><polygon fill="#DDFFFF" filter="url(#fgkl1hhif6xky)" points="494,145,494,145.2102,503.4444,144.5857,512.8889,145.1933,522.3333,145.3997,531.7778,144.2866,541.2222,144.9223,550.6667,144.5735,560.1111,144.6165,569.5556,144.9318,579,145,578.78,144.9315,580.5762,149.5525,581.5994,153.9329,583.1371,158.4734,584.7375,163.0334,586,167.4883,586,167.4025,595.8462,167.5565,605.6923,167.4563,615.5385,167.6668,625.3846,167.7274,635.2308,168.074,645.0769,168.1593,654.9231,168.1675,664.7692,167.7429,674.6154,167.9519,684.4615,168.1905,694.3077,166.7671,704.1538,168.1668,714,167.1918,723.8462,168.0221,733.6923,166.9933,743.5385,167.4198,753.3846,168.2299,763.2308,167.4395,773.0769,167.5936,782.9231,167.8269,792.7692,167.9045,802.6154,167.4844,812.4615,167.7755,822.3077,166.9159,832.1538,167.7727,842,167.4883,842.5482,167.4883,842.4445,177.0522,842.613,186.6162,841.5169,196.1802,841.3478,205.7441,841.3786,215.3081,841.9411,224.8721,841.8035,234.436,842,244,842,244.6814,832.0571,243.8253,822.1143,243.6569,812.1714,244.2283,802.2286,243.3332,792.2857,243.4809,782.3429,244.649,772.4,244.4357,762.4571,244.7345,752.5143,243.6782,742.5714,244.3192,732.6286,244.5904,722.6857,243.5276,712.7429,243.9041,702.8,244.126,692.8571,244.6518,682.9143,243.9958,672.9714,244.4626,663.0286,243.4462,653.0857,243.3227,643.1429,244.5036,633.2,243.2831,623.2571,244.509,613.3143,244.2066,603.3714,243.7321,593.4286,243.6462,583.4857,244.4588,573.5429,243.7007,563.6,244.5919,553.6571,243.4473,543.7143,244.6174,533.7714,244.4843,523.8286,244.245,513.8857,244.0472,503.9429,244.7266,494,244,494.6136,244,494.1693,234.1,494.2682,224.2,493.8697,214.3,494.7165,204.4,494.1549,194.5,494.1726,184.6,493.3916,174.7,493.5948,164.8,494.5307,154.9,494,145" style="stroke: #000000; stroke-width: 1.5;"/><path d="M494,167.4883 L494,167.7685 L504.2222,166.9359 L514.4444,167.746 L524.6667,168.0212 L534.8889,166.5371 L545.1111,167.3847 L555.3333,166.9196 L565.5556,166.9769 L575.7778,167.3974 L586,167.4883 " fill="#DDFFFF" style="stroke: #000000; stroke-width: 1.5;"/><text fill="#000000" font-family="sans-serif" font-size="14" font-weight="bold" lengthAdjust="spacingAndGlyphs" textLength="79" x="498" y="160.5352">Assembly2</text><!--class Mere--><polygon fill="#BDD7EE" filter="url(#fgkl1hhif6xky)" points="236.5,59,236.5,59.2102,246.3636,58.5857,256.2273,59.1933,266.0909,59.3997,275.9545,58.2866,285.8182,58.9223,295.6818,58.5735,305.5455,58.6165,315.4091,58.9318,325.2727,58.3086,335.1364,59.5536,345,58.3697,354.8636,58.8022,364.7273,59.4319,374.5909,58.9142,384.4545,59.0682,394.3182,58.9681,404.1818,59.1785,414.0455,59.2391,423.9091,59.5857,433.7727,59.6711,443.6364,59.6793,453.5,59,453.7546,59,453.9636,69.1592,454.2022,79.3184,452.7788,89.4775,454.1785,99.6367,453.2035,109.7959,453.5,119.9551,453.5,120.4889,443.6364,119.4601,433.7727,119.8866,423.9091,120.6967,414.0455,119.9063,404.1818,120.0604,394.3182,120.2937,384.4545,120.3713,374.5909,119.9512,364.7273,120.2423,354.8636,119.3827,345,120.2395,335.1364,120.5033,325.2727,120.3996,315.4091,120.5681,305.5455,119.472,295.6818,119.3029,285.8182,119.3337,275.9545,119.8962,266.0909,119.7585,256.2273,120.6365,246.3636,119.7804,236.5,119.9551,236.1569,119.9551,236.7283,109.7959,235.8332,99.6367,235.9809,89.4775,237.149,79.3184,236.9357,69.1592,236.5,59" style="stroke: #000000; stroke-width: 1.5;"/><polygon fill="#BDD7EE" points="236.5,59,236.5,59.2102,246.3636,58.5857,256.2273,59.1933,266.0909,59.3997,275.9545,58.2866,285.8182,58.9223,295.6818,58.5735,305.5455,58.6165,315.4091,58.9318,325.2727,58.3086,335.1364,59.5536,345,58.3697,354.8636,58.8022,364.7273,59.4319,374.5909,58.9142,384.4545,59.0682,394.3182,58.9681,404.1818,59.1785,414.0455,59.2391,423.9091,59.5857,433.7727,59.6711,443.6364,59.6793,453.5,59,453.5849,59,453.6545,65.4,453.7341,71.8,453.2596,78.2,453.7262,84.6,453.5,91,453.5,90.7035,443.6364,91.5338,433.7727,90.505,423.9091,90.9315,414.0455,91.7416,404.1818,90.9513,394.3182,91.1053,384.4545,91.3386,374.5909,91.4162,364.7273,90.9961,354.8636,91.2872,345,90.4276,335.1364,91.2844,325.2727,91.5482,315.4091,91.4445,305.5455,91.613,295.6818,90.5169,285.8182,90.3478,275.9545,90.3786,266.0909,90.9411,256.2273,90.8035,246.3636,91.6814,236.5,91,236.4418,91,236.3856,84.6,236.5761,78.2,236.2777,71.8,236.327,65.4,236.5,59" style="stroke: #000000; stroke-width: 1.5;"/><polygon fill="#ADD1B2" points="337.3108,77.6756,335.6984,79.8788,333.7912,83.1057,331.0636,85.2804,328.1974,86.4696,325.912,86.5728,322.9747,85.0855,320.2032,84.1139,318.0995,82.1412,316.9961,79.8828,316.3417,78.0845,315.7006,75.7357,314.66,73.7145,315.4596,71.741,316.1602,69.5792,318.7893,67.8695,320.639,65.6511,322.9284,64.9144,325.6501,64.2801,329.1404,64.657,331.0521,65.5585,333.2747,65.9672,335.9772,68.736,336.9193,71.659,337.3286,73.6534,336.865,76.9399" style="stroke: #000000; stroke-width: 1.0;"/><path d="M328.7231,81.1431 Q328.1421,81.4419 327.5029,81.5913 Q326.8638,81.7407 326.1582,81.7407 Q323.6514,81.7407 322.3315,80.0889 Q321.0117,78.437 321.0117,75.3159 Q321.0117,72.1865 322.3315,70.5347 Q323.6514,68.8828 326.1582,68.8828 Q326.8638,68.8828 327.5112,69.0322 Q328.1587,69.1816 328.7231,69.4805 L328.7231,72.2031 Q328.0923,71.6221 327.4988,71.3523 Q326.9053,71.0825 326.2744,71.0825 Q324.9297,71.0825 324.2449,72.1492 Q323.5601,73.2158 323.5601,75.3159 Q323.5601,77.4077 324.2449,78.4744 Q324.9297,79.541 326.2744,79.541 Q326.9053,79.541 327.4988,79.2712 Q328.0923,79.0015 328.7231,78.4204 Z "/><text fill="#000000" font-family="sans-serif" font-size="12" lengthAdjust="spacingAndGlyphs" textLength="29" x="346.75" y="79.5352">Mere</text><path d="M237.5,91 L237.5,91.2802 L247.2727,90.4476 L257.0455,91.2577 L266.8182,91.5329 L276.5909,90.0488 L286.3636,90.8964 L296.1364,90.4313 L305.9091,90.4887 L315.6818,90.9091 L325.4545,90.0782 L335.2273,91.7382 L345,90.1596 L354.7727,90.7363 L364.5455,91.5759 L374.3182,90.8856 L384.0909,91.091 L393.8636,90.9574 L403.6364,91.238 L413.4091,91.3188 L423.1818,91.7809 L432.9545,91.8947 L442.7273,91.9057 L452.5,91 " fill="#BDD7EE" style="stroke: #000000; stroke-width: 1.5;"/><path d="M237.5,99 L237.5,99.2802 L247.2727,98.4476 L257.0455,99.2577 L266.8182,99.5329 L276.5909,98.0488 L286.3636,98.8964 L296.1364,98.4313 L305.9091,98.4887 L315.6818,98.9091 L325.4545,98.0782 L335.2273,99.7382 L345,98.1596 L354.7727,98.7363 L364.5455,99.5759 L374.3182,98.8856 L384.0909,99.091 L393.8636,98.9574 L403.6364,99.238 L413.4091,99.3188 L423.1818,99.7809 L432.9545,99.8947 L442.7273,99.9057 L452.5,99 " fill="#BDD7EE" style="stroke: #000000; stroke-width: 1.5;"/><text fill="#000000" font-family="sans-serif" font-size="11" lengthAdjust="spacingAndGlyphs" textLength="205" x="242.5" y="113.6348">protected internal MethodeAAcceder()</text><!--class FilleAssembly1--><polygon fill="#A9D18E" filter="url(#fgkl1hhif6xky)" points="286.5,180,286.5,180.2102,296.25,179.5857,306,180.1933,315.75,180.3997,325.5,179.2866,335.25,179.9223,345,179.5735,354.75,179.6165,364.5,179.9318,374.25,179.3086,384,180.5536,393.75,179.3697,403.5,180,403.3022,180,403.9319,189.6,403.4142,199.2,403.5682,208.8,403.4681,218.4,403.5,228,403.5,228.1785,393.75,228.2391,384,228.5857,374.25,228.6711,364.5,228.6793,354.75,228.2546,345,228.4636,335.25,228.7022,325.5,227.2788,315.75,228.6785,306,227.7035,296.25,228.5338,286.5,228,286.005,228,286.4315,218.4,287.2416,208.8,286.4513,199.2,286.6053,189.6,286.5,180" style="stroke: #000000; stroke-width: 1.5;"/><polygon fill="#A9D18E" points="286.5,180,286.5,180.2102,296.25,179.5857,306,180.1933,315.75,180.3997,325.5,179.2866,335.25,179.9223,345,179.5735,354.75,179.6165,364.5,179.9318,374.25,179.3086,384,180.5536,393.75,179.3697,403.5,180,403.4341,180,403.644,186.4,403.4714,192.8,403.5227,199.2,403.4894,205.6,403.5,212,403.5,212.1785,393.75,212.2391,384,212.5857,374.25,212.6711,364.5,212.6793,354.75,212.2546,345,212.4636,335.25,212.7022,325.5,211.2788,315.75,212.6785,306,211.7035,296.25,212.5338,286.5,212,286.335,212,286.4772,205.6,286.7472,199.2,286.4838,192.8,286.5351,186.4,286.5,180" style="stroke: #000000; stroke-width: 1.5;"/><polygon fill="#ADD1B2" points="312.5608,198.6756,310.9484,200.8788,309.0412,204.1057,306.3136,206.2804,303.4474,207.4696,301.162,207.5728,298.2247,206.0855,295.4532,205.1139,293.3495,203.1412,292.2461,200.8828,291.5917,199.0845,290.9506,196.7357,289.91,194.7145,290.7096,192.741,291.4102,190.5792,294.0393,188.8695,295.889,186.6511,298.1784,185.9144,300.9001,185.2801,304.3904,185.657,306.3021,186.5585,308.5247,186.9672,311.2272,189.736,312.1693,192.659,312.5786,194.6534,312.115,197.9399" style="stroke: #000000; stroke-width: 1.0;"/><path d="M303.9731,202.1431 Q303.3921,202.4419 302.7529,202.5913 Q302.1138,202.7407 301.4082,202.7407 Q298.9014,202.7407 297.5815,201.0889 Q296.2617,199.437 296.2617,196.3159 Q296.2617,193.1865 297.5815,191.5347 Q298.9014,189.8828 301.4082,189.8828 Q302.1138,189.8828 302.7612,190.0322 Q303.4087,190.1816 303.9731,190.4805 L303.9731,193.2031 Q303.3423,192.6221 302.7488,192.3523 Q302.1553,192.0825 301.5244,192.0825 Q300.1797,192.0825 299.4949,193.1492 Q298.8101,194.2158 298.8101,196.3159 Q298.8101,198.4077 299.4949,199.4744 Q300.1797,200.541 301.5244,200.541 Q302.1553,200.541 302.7488,200.2712 Q303.3423,200.0015 303.9731,199.4204 Z "/><text fill="#000000" font-family="sans-serif" font-size="12" lengthAdjust="spacingAndGlyphs" textLength="85" x="315.5" y="200.5352">FilleAssembly1</text><path d="M287.5,212 L287.5,212.2802 L297.0833,211.4476 L306.6667,212.2577 L316.25,212.5329 L325.8333,211.0488 L335.4167,211.8964 L345,211.4313 L354.5833,211.4887 L364.1667,211.9091 L373.75,211.0782 L383.3333,212.7382 L392.9167,211.1596 L402.5,212 " fill="#A9D18E" style="stroke: #000000; stroke-width: 1.5;"/><path d="M287.5,220 L287.5,220.2802 L297.0833,219.4476 L306.6667,220.2577 L316.25,220.5329 L325.8333,219.0488 L335.4167,219.8964 L345,219.4313 L354.5833,219.4887 L364.1667,219.9091 L373.75,219.0782 L383.3333,220.7382 L392.9167,219.1596 L402.5,220 " fill="#A9D18E" style="stroke: #000000; stroke-width: 1.5;"/><!--class AutreClasseAssembly1--><polygon fill="#A9D18E" filter="url(#fgkl1hhif6xky)" points="38.5,65.5,38.5,65.7102,48.6875,65.0857,58.875,65.6933,69.0625,65.8997,79.25,64.7866,89.4375,65.4223,99.625,65.0735,109.8125,65.1165,120,65.4318,130.1875,64.8086,140.375,66.0536,150.5625,64.8697,160.75,65.3022,170.9375,65.9319,181.125,65.4142,191.3125,65.5682,201.5,65.5,201.4681,65.5,201.6785,75.1,201.7391,84.7,202.0857,94.3,202.1711,103.9,201.5,113.5,201.5,114.1793,191.3125,113.7546,181.125,113.9636,170.9375,114.2022,160.75,112.7788,150.5625,114.1785,140.375,113.2035,130.1875,114.0338,120,113.005,109.8125,113.4315,99.625,114.2416,89.4375,113.4513,79.25,113.6053,69.0625,113.8386,58.875,113.9162,48.6875,113.4961,38.5,113.5,38.7872,113.5,37.9276,103.9,38.7844,94.3,39.0482,84.7,38.9445,75.1,38.5,65.5" style="stroke: #000000; stroke-width: 1.5;"/><polygon fill="#A9D18E" points="38.5,65.5,38.5,65.7102,48.6875,65.0857,58.875,65.6933,69.0625,65.8997,79.25,64.7866,89.4375,65.4223,99.625,65.0735,109.8125,65.1165,120,65.4318,130.1875,64.8086,140.375,66.0536,150.5625,64.8697,160.75,65.3022,170.9375,65.9319,181.125,65.4142,191.3125,65.5682,201.5,65.5,201.4894,65.5,201.5595,71.9,201.5797,78.3,201.6952,84.7,201.7237,91.1,201.5,97.5,201.5,98.1793,191.3125,97.7546,181.125,97.9636,170.9375,98.2022,160.75,96.7788,150.5625,98.1785,140.375,97.2035,130.1875,98.0338,120,97.005,109.8125,97.4315,99.625,98.2416,89.4375,97.4513,79.25,97.6053,69.0625,97.8386,58.875,97.9162,48.6875,97.4961,38.5,97.5,38.5957,97.5,38.3092,91.1,38.5948,84.7,38.6827,78.3,38.6482,71.9,38.5,65.5" style="stroke: #000000; stroke-width: 1.5;"/><polygon fill="#ADD1B2" points="64.5608,84.1756,62.9484,86.3788,61.0412,89.6057,58.3136,91.7804,55.4474,92.9696,53.162,93.0728,50.2247,91.5855,47.4532,90.6139,45.3495,88.6412,44.2461,86.3828,43.5917,84.5845,42.9506,82.2357,41.91,80.2145,42.7096,78.241,43.4102,76.0792,46.0393,74.3695,47.889,72.1511,50.1784,71.4144,52.9001,70.7801,56.3904,71.157,58.3021,72.0585,60.5247,72.4672,63.2272,75.236,64.1693,78.159,64.5786,80.1534,64.115,83.4399" style="stroke: #000000; stroke-width: 1.0;"/><path d="M55.9731,87.6431 Q55.3921,87.9419 54.7529,88.0913 Q54.1138,88.2407 53.4082,88.2407 Q50.9014,88.2407 49.5815,86.5889 Q48.2617,84.937 48.2617,81.8159 Q48.2617,78.6865 49.5815,77.0347 Q50.9014,75.3828 53.4082,75.3828 Q54.1138,75.3828 54.7612,75.5322 Q55.4087,75.6816 55.9731,75.9805 L55.9731,78.7031 Q55.3423,78.1221 54.7488,77.8523 Q54.1553,77.5825 53.5244,77.5825 Q52.1797,77.5825 51.4949,78.6492 Q50.8101,79.7158 50.8101,81.8159 Q50.8101,83.9077 51.4949,84.9744 Q52.1797,86.041 53.5244,86.041 Q54.1553,86.041 54.7488,85.7712 Q55.3423,85.5015 55.9731,84.9204 Z "/><text fill="#000000" font-family="sans-serif" font-size="12" lengthAdjust="spacingAndGlyphs" textLength="131" x="67.5" y="86.0352">AutreClasseAssembly1</text><path d="M39.5,97.5 L39.5,97.7802 L49.5625,96.9476 L59.625,97.7577 L69.6875,98.0329 L79.75,96.5488 L89.8125,97.3964 L99.875,96.9313 L109.9375,96.9887 L120,97.4091 L130.0625,96.5782 L140.125,98.2382 L150.1875,96.6596 L160.25,97.2363 L170.3125,98.0759 L180.375,97.3856 L190.4375,97.591 L200.5,97.5 " fill="#A9D18E" style="stroke: #000000; stroke-width: 1.5;"/><path d="M39.5,105.5 L39.5,105.7802 L49.5625,104.9476 L59.625,105.7577 L69.6875,106.0329 L79.75,104.5488 L89.8125,105.3964 L99.875,104.9313 L109.9375,104.9887 L120,105.4091 L130.0625,104.5782 L140.125,106.2382 L150.1875,104.6596 L160.25,105.2363 L170.3125,106.0759 L180.375,105.3856 L190.4375,105.591 L200.5,105.5 " fill="#A9D18E" style="stroke: #000000; stroke-width: 1.5;"/><!--class FilleAssembly2--><polygon fill="#A9D18E" filter="url(#fgkl1hhif6xky)" points="708.5,180,708.5,180.2102,718.25,179.5857,728,180.1933,737.75,180.3997,747.5,179.2866,757.25,179.9223,767,179.5735,776.75,179.6165,786.5,179.9318,796.25,179.3086,806,180.5536,815.75,179.3697,825.5,180,825.3022,180,825.9319,189.6,825.4142,199.2,825.5682,208.8,825.4681,218.4,825.5,228,825.5,228.1785,815.75,228.2391,806,228.5857,796.25,228.6711,786.5,228.6793,776.75,228.2546,767,228.4636,757.25,228.7022,747.5,227.2788,737.75,228.6785,728,227.7035,718.25,228.5338,708.5,228,708.005,228,708.4315,218.4,709.2416,208.8,708.4513,199.2,708.6053,189.6,708.5,180" style="stroke: #000000; stroke-width: 1.5;"/><polygon fill="#A9D18E" points="708.5,180,708.5,180.2102,718.25,179.5857,728,180.1933,737.75,180.3997,747.5,179.2866,757.25,179.9223,767,179.5735,776.75,179.6165,786.5,179.9318,796.25,179.3086,806,180.5536,815.75,179.3697,825.5,180,825.4341,180,825.644,186.4,825.4714,192.8,825.5227,199.2,825.4894,205.6,825.5,212,825.5,212.1785,815.75,212.2391,806,212.5857,796.25,212.6711,786.5,212.6793,776.75,212.2546,767,212.4636,757.25,212.7022,747.5,211.2788,737.75,212.6785,728,211.7035,718.25,212.5338,708.5,212,708.335,212,708.4772,205.6,708.7472,199.2,708.4838,192.8,708.5351,186.4,708.5,180" style="stroke: #000000; stroke-width: 1.5;"/><polygon fill="#ADD1B2" points="734.5608,198.6756,732.9484,200.8788,731.0412,204.1057,728.3136,206.2804,725.4474,207.4696,723.162,207.5728,720.2247,206.0855,717.4532,205.1139,715.3495,203.1412,714.2461,200.8828,713.5917,199.0845,712.9506,196.7357,711.91,194.7145,712.7096,192.741,713.4102,190.5792,716.0393,188.8695,717.889,186.6511,720.1784,185.9144,722.9001,185.2801,726.3904,185.657,728.3021,186.5585,730.5247,186.9672,733.2272,189.736,734.1693,192.659,734.5786,194.6534,734.115,197.9399" style="stroke: #000000; stroke-width: 1.0;"/><path d="M725.9731,202.1431 Q725.3921,202.4419 724.7529,202.5913 Q724.1138,202.7407 723.4082,202.7407 Q720.9014,202.7407 719.5815,201.0889 Q718.2617,199.437 718.2617,196.3159 Q718.2617,193.1865 719.5815,191.5347 Q720.9014,189.8828 723.4082,189.8828 Q724.1138,189.8828 724.7612,190.0322 Q725.4087,190.1816 725.9731,190.4805 L725.9731,193.2031 Q725.3423,192.6221 724.7488,192.3523 Q724.1553,192.0825 723.5244,192.0825 Q722.1797,192.0825 721.4949,193.1492 Q720.8101,194.2158 720.8101,196.3159 Q720.8101,198.4077 721.4949,199.4744 Q722.1797,200.541 723.5244,200.541 Q724.1553,200.541 724.7488,200.2712 Q725.3423,200.0015 725.9731,199.4204 Z "/><text fill="#000000" font-family="sans-serif" font-size="12" lengthAdjust="spacingAndGlyphs" textLength="85" x="737.5" y="200.5352">FilleAssembly2</text><path d="M709.5,212 L709.5,212.2802 L719.0833,211.4476 L728.6667,212.2577 L738.25,212.5329 L747.8333,211.0488 L757.4167,211.8964 L767,211.4313 L776.5833,211.4887 L786.1667,211.9091 L795.75,211.0782 L805.3333,212.7382 L814.9167,211.1596 L824.5,212 " fill="#A9D18E" style="stroke: #000000; stroke-width: 1.5;"/><path d="M709.5,220 L709.5,220.2802 L719.0833,219.4476 L728.6667,220.2577 L738.25,220.5329 L747.8333,219.0488 L757.4167,219.8964 L767,219.4313 L776.5833,219.4887 L786.1667,219.9091 L795.75,219.0782 L805.3333,220.7382 L814.9167,219.1596 L824.5,220 " fill="#A9D18E" style="stroke: #000000; stroke-width: 1.5;"/><!--class AutreClasseAssembly2--><polygon fill="#EB935B" filter="url(#fgkl1hhif6xky)" points="510.5,180,510.5,180.2102,520.6875,179.5857,530.875,180.1933,541.0625,180.3997,551.25,179.2866,561.4375,179.9223,571.625,179.5735,581.8125,179.6165,592,179.9318,602.1875,179.3086,612.375,180.5536,622.5625,179.3697,632.75,179.8022,642.9375,180.4319,653.125,179.9142,663.3125,180.0682,673.5,180,673.4681,180,673.6785,189.6,673.7391,199.2,674.0857,208.8,674.1711,218.4,673.5,228,673.5,228.6793,663.3125,228.2546,653.125,228.4636,642.9375,228.7022,632.75,227.2788,622.5625,228.6785,612.375,227.7035,602.1875,228.5338,592,227.505,581.8125,227.9315,571.625,228.7416,561.4375,227.9513,551.25,228.1053,541.0625,228.3386,530.875,228.4162,520.6875,227.9961,510.5,228,510.7872,228,509.9276,218.4,510.7844,208.8,511.0482,199.2,510.9445,189.6,510.5,180" style="stroke: #000000; stroke-width: 1.5;"/><polygon fill="#EB935B" points="510.5,180,510.5,180.2102,520.6875,179.5857,530.875,180.1933,541.0625,180.3997,551.25,179.2866,561.4375,179.9223,571.625,179.5735,581.8125,179.6165,592,179.9318,602.1875,179.3086,612.375,180.5536,622.5625,179.3697,632.75,179.8022,642.9375,180.4319,653.125,179.9142,663.3125,180.0682,673.5,180,673.4894,180,673.5595,186.4,673.5797,192.8,673.6952,199.2,673.7237,205.6,673.5,212,673.5,212.6793,663.3125,212.2546,653.125,212.4636,642.9375,212.7022,632.75,211.2788,622.5625,212.6785,612.375,211.7035,602.1875,212.5338,592,211.505,581.8125,211.9315,571.625,212.7416,561.4375,211.9513,551.25,212.1053,541.0625,212.3386,530.875,212.4162,520.6875,211.9961,510.5,212,510.5957,212,510.3092,205.6,510.5948,199.2,510.6827,192.8,510.6482,186.4,510.5,180" style="stroke: #000000; stroke-width: 1.5;"/><polygon fill="#ADD1B2" points="536.5608,198.6756,534.9484,200.8788,533.0412,204.1057,530.3136,206.2804,527.4474,207.4696,525.162,207.5728,522.2247,206.0855,519.4532,205.1139,517.3495,203.1412,516.2461,200.8828,515.5917,199.0845,514.9506,196.7357,513.91,194.7145,514.7096,192.741,515.4102,190.5792,518.0393,188.8695,519.889,186.6511,522.1784,185.9144,524.9001,185.2801,528.3904,185.657,530.3021,186.5585,532.5247,186.9672,535.2272,189.736,536.1693,192.659,536.5786,194.6534,536.115,197.9399" style="stroke: #000000; stroke-width: 1.0;"/><path d="M527.9731,202.1431 Q527.3921,202.4419 526.7529,202.5913 Q526.1138,202.7407 525.4082,202.7407 Q522.9014,202.7407 521.5815,201.0889 Q520.2617,199.437 520.2617,196.3159 Q520.2617,193.1865 521.5815,191.5347 Q522.9014,189.8828 525.4082,189.8828 Q526.1138,189.8828 526.7612,190.0322 Q527.4087,190.1816 527.9731,190.4805 L527.9731,193.2031 Q527.3423,192.6221 526.7488,192.3523 Q526.1553,192.0825 525.5244,192.0825 Q524.1797,192.0825 523.4949,193.1492 Q522.8101,194.2158 522.8101,196.3159 Q522.8101,198.4077 523.4949,199.4744 Q524.1797,200.541 525.5244,200.541 Q526.1553,200.541 526.7488,200.2712 Q527.3423,200.0015 527.9731,199.4204 Z "/><text fill="#000000" font-family="sans-serif" font-size="12" lengthAdjust="spacingAndGlyphs" textLength="131" x="539.5" y="200.5352">AutreClasseAssembly2</text><path d="M511.5,212 L511.5,212.2802 L521.5625,211.4476 L531.625,212.2577 L541.6875,212.5329 L551.75,211.0488 L561.8125,211.8964 L571.875,211.4313 L581.9375,211.4887 L592,211.9091 L602.0625,211.0782 L612.125,212.7382 L622.1875,211.1596 L632.25,211.7363 L642.3125,212.5759 L652.375,211.8856 L662.4375,212.091 L672.5,212 " fill="#EB935B" style="stroke: #000000; stroke-width: 1.5;"/><path d="M511.5,220 L511.5,220.2802 L521.5625,219.4476 L531.625,220.2577 L541.6875,220.5329 L551.75,219.0488 L561.8125,219.8964 L571.875,219.4313 L581.9375,219.4887 L592,219.9091 L602.0625,219.0782 L612.125,220.7382 L622.1875,219.1596 L632.25,219.7363 L642.3125,220.5759 L652.375,219.8856 L662.4375,220.091 L672.5,220 " fill="#EB935B" style="stroke: #000000; stroke-width: 1.5;"/><!--reverse link Mere to FilleAssembly1--><path d="M345,140.11 L345.0934,140.11 L344.8159,148.022 L345.0859,155.934 L345.1776,163.846 L344.6829,171.758 L345,179.67 " fill="none" style="stroke: #A80036; stroke-width: 1.0;"/><polygon fill="none" points="338,140.06,338.0661,140.0831,339.2696,136.0144,340.8608,132.0813,342.3257,128.104,343.3756,123.9814,345,120.06,344.9755,120.0514,346.2658,124.013,347.6793,128.0178,349.1786,132.0525,350.3825,135.9839,352,140.06,352,140.2445,349.2,139.8499,346.4,139.9941,343.6,140.204,340.8,140.0314,338,140.06" style="stroke: #A80036; stroke-width: 1.0;"/><!--reverse link Mere to FilleAssembly2--><path d="M473.95,100.1 L473.9591,100.193 L480.1796,100.5269 L486.4533,101.4059 L492.7097,102.1074 L498.909,102.2253 L505.1873,103.151 L505.1836,103.1167 L511.5298,103.6599 L517.895,104.3763 L524.2734,105.2129 L530.6064,105.6349 L537.003,106.6377 L537.0334,106.8818 L543.272,107.1452 L549.5994,108.1214 L555.9376,109.1846 L562.2128,109.7418 L568.5212,110.5651 L568.5254,110.5952 L571.594,110.9772 L574.6816,111.496 L577.7601,111.9488 L580.8561,112.5275 L583.8951,112.6958 L583.9393,112.9908 L586.9341,113.443 L589.9003,113.7049 L592.9083,114.2454 L595.9183,114.7988 L598.8663,114.9388 L598.8147,114.6224 L601.8065,115.7075 L604.6286,115.751 L607.5798,116.5864 L610.398,116.6062 L613.3252,117.2945 L613.3198,117.2645 L616.1505,118.1128 L618.8563,118.2609 L621.6357,118.8221 L624.4214,119.4181 L627.1624,119.7638 L627.1982,119.9453 L629.7833,120.2788 L632.4295,120.9224 L634.9768,121.0642 L637.6717,121.9545 L640.2685,122.3472 L640.3208,122.5852 L642.764,123.0798 L645.2332,123.6926 L647.5816,123.7565 L650.0185,124.2227 L652.5339,125.0455 L652.4673,124.7775 L654.7907,125.5828 L657.039,126.0862 L659.3962,127.0276 L661.5674,127.2211 L663.8492,127.8592 L663.8074,127.7126 L665.9283,128.5428 L667.8701,128.7462 L669.9393,129.3953 L672.1331,130.4805 L674.105,130.7891 L674.1718,130.9709 L677.5967,132.3377 L680.8137,133.1392 L684.291,134.6488 L687.7115,136.0041 L691,137 L690.899,136.8159 L694.1787,138.718 L697.4252,140.5598 L700.7368,142.52 L703.7957,144.0197 L706.9958,145.7767 L707.1161,145.9434 L709.8464,147.738 L712.8088,149.8544 L716.1105,152.4409 L718.7877,154.162 L721.9688,156.5813 L722.117,156.7521 L724.7336,158.9964 L727.3002,161.1829 L729.9799,163.4998 L732.9212,166.1184 L735.4923,168.3102 L735.3987,168.2157 L738.0071,170.8069 L739.9784,172.7557 L742.6742,175.4349 L744.962,177.7029 L747.14,179.86 " fill="none" style="stroke: #A80036; stroke-width: 1.0;"/><polygon fill="none" points="473.11,107.05,473.1389,107.1138,469.193,105.1742,465.4166,103.6087,461.585,101.9213,457.5718,99.8334,453.81,98.3,453.8037,98.2749,457.8852,97.1242,461.9987,96.1001,466.1344,95.164,470.1936,93.9246,474.36,93.11,474.5438,93.1265,473.9007,95.8792,473.7943,98.6801,473.7534,101.4869,473.3315,104.2594,473.11,107.05" style="stroke: #A80036; stroke-width: 1.0;"/><!--
@startuml AccessModifierProtectedInternal
skinparam classAttributeIconSize 0
skinparam handwritten true
skinparam class {
    BackgroundColor White
    BorderColor #000
}

package Assembly1 #DDF {
    class Mere #BDD7EE {
        protected internal MethodeAAcceder()
    }

    class FilleAssembly1 #A9D18E {

    }

    Mere <|- - FilleAssembly1

    class AutreClasseAssembly1 #A9D18E {

    }
}

package Assembly2 #DFF {
    class FilleAssembly2 #A9D18E {

    }

    Mere <|- - FilleAssembly2

    class AutreClasseAssembly2 #EB935B {

    }
}

@enduml

PlantUML version 1.2019.09(Mon Aug 26 12:19:51 EDT 2019)
(GPL source distribution)
Java Runtime: OpenJDK Runtime Environment
JVM: OpenJDK 64-Bit Server VM
Java Version: 13.0.2+8
Operating System: Mac OS X
OS Version: 10.15.4
Default Encoding: UTF-8
Language: fr
Country: CA
--></g></svg>