<?xml version="1.0" encoding="UTF-8" standalone="no"?><svg xmlns="http://www.w3.org/2000/svg" xmlns:xlink="http://www.w3.org/1999/xlink" contentScriptType="application/ecmascript" contentStyleType="text/css" height="256px" preserveAspectRatio="none" style="width:801px;height:256px;" version="1.1" viewBox="0 0 801 256" width="801px" zoomAndPan="magnify"><defs><filter height="300%" id="f1nussi0ubu3ti" width="300%" x="-1" y="-1"><feGaussianBlur result="blurOut" stdDeviation="2.0"/><feColorMatrix in="blurOut" result="blurOut2" type="matrix" values="0 0 0 0 0 0 0 0 0 0 0 0 0 0 0 0 0 0 .4 0"/><feOffset dx="4.0" dy="4.0" in="blurOut2" result="blurOut3"/><feBlend in="SourceGraphic" in2="blurOut3" mode="normal"/></filter></defs><g><!--cluster Assembly1--><polygon fill="#DDDDFF" filter="url(#f1nussi0ubu3ti)" points="22,24,22,24.2102,31.4444,23.5857,40.8889,24.1933,50.3333,24.3997,59.7778,23.2866,69.2222,23.9223,78.6667,23.5735,88.1111,23.6165,97.5556,23.9318,107,24,106.78,23.9315,108.5762,28.5525,109.5994,32.9329,111.1371,37.4734,112.7375,42.0334,114,46.4883,114,46.4025,124.1034,46.5565,134.2069,46.4563,144.3103,46.6668,154.4138,46.7274,164.5172,47.074,174.6207,47.1593,184.7241,47.1675,194.8276,46.7429,204.931,46.9519,215.0345,47.1905,225.1379,45.7671,235.2414,47.1668,245.3448,46.1918,255.4483,47.0221,265.5517,45.9933,275.6552,46.4198,285.7586,47.2299,295.8621,46.4395,305.9655,46.5936,316.069,46.8269,326.1724,46.9045,336.2759,46.4844,346.3793,46.7755,356.4828,45.9159,366.5862,46.7727,376.6897,47.0365,386.7931,46.9328,396.8966,47.1013,407,46.4883,406.5169,46.4883,406.3478,56.3639,406.3786,66.2395,406.9411,76.115,406.8035,85.9906,407.6814,95.8662,406.8253,105.7418,406.6569,115.6174,407.2283,125.493,406.3332,135.3686,406.4809,145.2441,407.649,155.1197,407.4357,164.9953,407.7345,174.8709,406.6782,184.7465,407.3192,194.6221,407.5904,204.4977,406.5276,214.3732,406.9041,224.2488,407.126,234.1244,407,244,407,244.6518,397.1282,243.9958,387.2564,244.4626,377.3846,243.4462,367.5128,243.3227,357.641,244.5036,347.7692,243.2831,337.8974,244.509,328.0256,244.2066,318.1538,243.7321,308.2821,243.6462,298.4103,244.4588,288.5385,243.7007,278.6667,244.5919,268.7949,243.4473,258.9231,244.6174,249.0513,244.4843,239.1795,244.245,229.3077,244.0472,219.4359,244.7266,209.5641,244.6136,199.6923,244.1693,189.8205,244.2682,179.9487,243.8697,170.0769,244.7165,160.2051,244.1549,150.3333,244.1726,140.4615,243.3916,130.5897,243.5948,120.7179,244.5307,110.8462,244.4298,100.9744,243.9571,91.1026,243.6778,81.2308,243.7811,71.359,243.3138,61.4872,244.4147,51.6154,244.7396,41.7436,244.5264,31.8718,244.6949,22,244,21.8633,244,22.0872,234,21.6124,224,22.284,214,22.2468,204,22.5524,194,21.7703,184,21.8656,174,22.4435,164,22.5673,154,21.4875,144,21.8061,134,22.1493,124,21.3892,114,22.3534,104,22.258,94,21.8992,84,22.1422,74,22.7287,64,21.6871,54,22.315,44,22.2856,34,22,24" style="stroke: #000000; stroke-width: 1.5;"/><path d="M22,46.4883 L22,46.7685 L32.2222,45.9359 L42.4444,46.746 L52.6667,47.0212 L62.8889,45.5371 L73.1111,46.3847 L83.3333,45.9196 L93.5556,45.9769 L103.7778,46.3974 L114,46.4883 " fill="#DDDDFF" style="stroke: #000000; stroke-width: 1.5;"/><text fill="#000000" font-family="sans-serif" font-size="14" font-weight="bold" lengthAdjust="spacingAndGlyphs" textLength="79" x="26" y="39.5352">Assembly1</text><!--cluster Assembly2--><polygon fill="#DDFFFF" filter="url(#f1nussi0ubu3ti)" points="431,145,431,145.2102,440.4444,144.5857,449.8889,145.1933,459.3333,145.3997,468.7778,144.2866,478.2222,144.9223,487.6667,144.5735,497.1111,144.6165,506.5556,144.9318,516,145,515.78,144.9315,517.5762,149.5525,518.5994,153.9329,520.1371,158.4734,521.7375,163.0334,523,167.4883,523,167.4025,532.8462,167.5565,542.6923,167.4563,552.5385,167.6668,562.3846,167.7274,572.2308,168.074,582.0769,168.1593,591.9231,168.1675,601.7692,167.7429,611.6154,167.9519,621.4615,168.1905,631.3077,166.7671,641.1538,168.1668,651,167.1918,660.8462,168.0221,670.6923,166.9933,680.5385,167.4198,690.3846,168.2299,700.2308,167.4395,710.0769,167.5936,719.9231,167.8269,729.7692,167.9045,739.6154,167.4844,749.4615,167.7755,759.3077,166.9159,769.1538,167.7727,779,167.4883,779.5482,167.4883,779.4445,177.0522,779.613,186.6162,778.5169,196.1802,778.3478,205.7441,778.3786,215.3081,778.9411,224.8721,778.8035,234.436,779,244,779,244.6814,769.0571,243.8253,759.1143,243.6569,749.1714,244.2283,739.2286,243.3332,729.2857,243.4809,719.3429,244.649,709.4,244.4357,699.4571,244.7345,689.5143,243.6782,679.5714,244.3192,669.6286,244.5904,659.6857,243.5276,649.7429,243.9041,639.8,244.126,629.8571,244.6518,619.9143,243.9958,609.9714,244.4626,600.0286,243.4462,590.0857,243.3227,580.1429,244.5036,570.2,243.2831,560.2571,244.509,550.3143,244.2066,540.3714,243.7321,530.4286,243.6462,520.4857,244.4588,510.5429,243.7007,500.6,244.5919,490.6571,243.4473,480.7143,244.6174,470.7714,244.4843,460.8286,244.245,450.8857,244.0472,440.9429,244.7266,431,244,431.6136,244,431.1693,234.1,431.2682,224.2,430.8697,214.3,431.7165,204.4,431.1549,194.5,431.1726,184.6,430.3916,174.7,430.5948,164.8,431.5307,154.9,431,145" style="stroke: #000000; stroke-width: 1.5;"/><path d="M431,167.4883 L431,167.7685 L441.2222,166.9359 L451.4444,167.746 L461.6667,168.0212 L471.8889,166.5371 L482.1111,167.3847 L492.3333,166.9196 L502.5556,166.9769 L512.7778,167.3974 L523,167.4883 " fill="#DDFFFF" style="stroke: #000000; stroke-width: 1.5;"/><text fill="#000000" font-family="sans-serif" font-size="14" font-weight="bold" lengthAdjust="spacingAndGlyphs" textLength="79" x="435" y="160.5352">Assembly2</text><!--class Mere--><polygon fill="#BDD7EE" filter="url(#f1nussi0ubu3ti)" points="237,59,237,59.2102,247.2667,58.5857,257.5333,59.1933,267.8,59.3997,278.0667,58.2866,288.3333,58.9223,298.6,58.5735,308.8667,58.6165,319.1333,58.9318,329.4,58.3086,339.6667,59.5536,349.9333,58.3697,360.2,58.8022,370.4667,59.4319,380.7333,58.9142,391,59,391.0682,59,390.9681,69.1592,391.1785,79.3184,391.2391,89.4775,391.5857,99.6367,391.6711,109.7959,391,119.9551,391,120.6343,380.7333,120.2097,370.4667,120.4187,360.2,120.6573,349.9333,119.2339,339.6667,120.6336,329.4,119.6586,319.1333,120.4889,308.8667,119.4601,298.6,119.8866,288.3333,120.6967,278.0667,119.9063,267.8,120.0604,257.5333,120.2937,247.2667,120.3713,237,119.9551,236.9961,119.9551,237.2872,109.7959,236.4276,99.6367,237.2844,89.4775,237.5482,79.3184,237.4445,69.1592,237,59" style="stroke: #000000; stroke-width: 1.5;"/><polygon fill="#BDD7EE" points="237,59,237,59.2102,247.2667,58.5857,257.5333,59.1933,267.8,59.3997,278.0667,58.2866,288.3333,58.9223,298.6,58.5735,308.8667,58.6165,319.1333,58.9318,329.4,58.3086,339.6667,59.5536,349.9333,58.3697,360.2,58.8022,370.4667,59.4319,380.7333,58.9142,391,59,391.0227,59,390.9894,65.4,391.0595,71.8,391.0797,78.2,391.1952,84.6,391,91,391,91.6711,380.7333,91.6793,370.4667,91.2546,360.2,91.4636,349.9333,91.7022,339.6667,90.2788,329.4,91.6785,319.1333,90.7035,308.8667,91.5338,298.6,90.505,288.3333,90.9315,278.0667,91.7416,267.8,90.9513,257.5333,91.1053,247.2667,91.3386,237,91,237.1387,91,236.9987,84.6,237.0957,78.2,236.8092,71.8,237.0948,65.4,237,59" style="stroke: #000000; stroke-width: 1.5;"/><polygon fill="#ADD1B2" points="306.3108,77.6756,304.6984,79.8788,302.7912,83.1057,300.0636,85.2804,297.1974,86.4696,294.912,86.5728,291.9747,85.0855,289.2032,84.1139,287.0995,82.1412,285.9961,79.8828,285.3417,78.0845,284.7006,75.7357,283.66,73.7145,284.4596,71.741,285.1602,69.5792,287.7893,67.8695,289.639,65.6511,291.9284,64.9144,294.6501,64.2801,298.1404,64.657,300.0521,65.5585,302.2747,65.9672,304.9772,68.736,305.9193,71.659,306.3286,73.6534,305.865,76.9399" style="stroke: #000000; stroke-width: 1.0;"/><path d="M297.7231,81.1431 Q297.1421,81.4419 296.5029,81.5913 Q295.8638,81.7407 295.1582,81.7407 Q292.6514,81.7407 291.3315,80.0889 Q290.0117,78.437 290.0117,75.3159 Q290.0117,72.1865 291.3315,70.5347 Q292.6514,68.8828 295.1582,68.8828 Q295.8638,68.8828 296.5112,69.0322 Q297.1587,69.1816 297.7231,69.4805 L297.7231,72.2031 Q297.0923,71.6221 296.4988,71.3523 Q295.9053,71.0825 295.2744,71.0825 Q293.9297,71.0825 293.2449,72.1492 Q292.5601,73.2158 292.5601,75.3159 Q292.5601,77.4077 293.2449,78.4744 Q293.9297,79.541 295.2744,79.541 Q295.9053,79.541 296.4988,79.2712 Q297.0923,79.0015 297.7231,78.4204 Z "/><text fill="#000000" font-family="sans-serif" font-size="12" lengthAdjust="spacingAndGlyphs" textLength="29" x="315.75" y="79.5352">Mere</text><path d="M238,91 L238,91.2802 L248.1333,90.4476 L258.2667,91.2577 L268.4,91.5329 L278.5333,90.0488 L288.6667,90.8964 L298.8,90.4313 L308.9333,90.4887 L319.0667,90.9091 L329.2,90.0782 L339.3333,91.7382 L349.4667,90.1596 L359.6,90.7363 L369.7333,91.5759 L379.8667,90.8856 L390,91 " fill="#BDD7EE" style="stroke: #000000; stroke-width: 1.5;"/><path d="M238,99 L238,99.2802 L248.1333,98.4476 L258.2667,99.2577 L268.4,99.5329 L278.5333,98.0488 L288.6667,98.8964 L298.8,98.4313 L308.9333,98.4887 L319.0667,98.9091 L329.2,98.0782 L339.3333,99.7382 L349.4667,98.1596 L359.6,98.7363 L369.7333,99.5759 L379.8667,98.8856 L390,99 " fill="#BDD7EE" style="stroke: #000000; stroke-width: 1.5;"/><text fill="#000000" font-family="sans-serif" font-size="11" lengthAdjust="spacingAndGlyphs" textLength="142" x="243" y="113.6348">public MethodeAAcceder()</text><!--class FilleAssembly1--><polygon fill="#A9D18E" filter="url(#f1nussi0ubu3ti)" points="255.5,180,255.5,180.2102,265.25,179.5857,275,180.1933,284.75,180.3997,294.5,179.2866,304.25,179.9223,314,179.5735,323.75,179.6165,333.5,179.9318,343.25,179.3086,353,180.5536,362.75,179.3697,372.5,180,372.3022,180,372.9319,189.6,372.4142,199.2,372.5682,208.8,372.4681,218.4,372.5,228,372.5,228.1785,362.75,228.2391,353,228.5857,343.25,228.6711,333.5,228.6793,323.75,228.2546,314,228.4636,304.25,228.7022,294.5,227.2788,284.75,228.6785,275,227.7035,265.25,228.5338,255.5,228,255.005,228,255.4315,218.4,256.2416,208.8,255.4513,199.2,255.6053,189.6,255.5,180" style="stroke: #000000; stroke-width: 1.5;"/><polygon fill="#A9D18E" points="255.5,180,255.5,180.2102,265.25,179.5857,275,180.1933,284.75,180.3997,294.5,179.2866,304.25,179.9223,314,179.5735,323.75,179.6165,333.5,179.9318,343.25,179.3086,353,180.5536,362.75,179.3697,372.5,180,372.4341,180,372.644,186.4,372.4714,192.8,372.5227,199.2,372.4894,205.6,372.5,212,372.5,212.1785,362.75,212.2391,353,212.5857,343.25,212.6711,333.5,212.6793,323.75,212.2546,314,212.4636,304.25,212.7022,294.5,211.2788,284.75,212.6785,275,211.7035,265.25,212.5338,255.5,212,255.335,212,255.4772,205.6,255.7472,199.2,255.4838,192.8,255.5351,186.4,255.5,180" style="stroke: #000000; stroke-width: 1.5;"/><polygon fill="#ADD1B2" points="281.5608,198.6756,279.9484,200.8788,278.0412,204.1057,275.3136,206.2804,272.4474,207.4696,270.162,207.5728,267.2247,206.0855,264.4532,205.1139,262.3495,203.1412,261.2461,200.8828,260.5917,199.0845,259.9506,196.7357,258.91,194.7145,259.7096,192.741,260.4102,190.5792,263.0393,188.8695,264.889,186.6511,267.1784,185.9144,269.9001,185.2801,273.3904,185.657,275.3021,186.5585,277.5247,186.9672,280.2272,189.736,281.1693,192.659,281.5786,194.6534,281.115,197.9399" style="stroke: #000000; stroke-width: 1.0;"/><path d="M272.9731,202.1431 Q272.3921,202.4419 271.7529,202.5913 Q271.1138,202.7407 270.4082,202.7407 Q267.9014,202.7407 266.5815,201.0889 Q265.2617,199.437 265.2617,196.3159 Q265.2617,193.1865 266.5815,191.5347 Q267.9014,189.8828 270.4082,189.8828 Q271.1138,189.8828 271.7612,190.0322 Q272.4087,190.1816 272.9731,190.4805 L272.9731,193.2031 Q272.3423,192.6221 271.7488,192.3523 Q271.1553,192.0825 270.5244,192.0825 Q269.1797,192.0825 268.4949,193.1492 Q267.8101,194.2158 267.8101,196.3159 Q267.8101,198.4077 268.4949,199.4744 Q269.1797,200.541 270.5244,200.541 Q271.1553,200.541 271.7488,200.2712 Q272.3423,200.0015 272.9731,199.4204 Z "/><text fill="#000000" font-family="sans-serif" font-size="12" lengthAdjust="spacingAndGlyphs" textLength="85" x="284.5" y="200.5352">FilleAssembly1</text><path d="M256.5,212 L256.5,212.2802 L266.0833,211.4476 L275.6667,212.2577 L285.25,212.5329 L294.8333,211.0488 L304.4167,211.8964 L314,211.4313 L323.5833,211.4887 L333.1667,211.9091 L342.75,211.0782 L352.3333,212.7382 L361.9167,211.1596 L371.5,212 " fill="#A9D18E" style="stroke: #000000; stroke-width: 1.5;"/><path d="M256.5,220 L256.5,220.2802 L266.0833,219.4476 L275.6667,220.2577 L285.25,220.5329 L294.8333,219.0488 L304.4167,219.8964 L314,219.4313 L323.5833,219.4887 L333.1667,219.9091 L342.75,219.0782 L352.3333,220.7382 L361.9167,219.1596 L371.5,220 " fill="#A9D18E" style="stroke: #000000; stroke-width: 1.5;"/><!--class AutreClasseAssembly1--><polygon fill="#A9D18E" filter="url(#f1nussi0ubu3ti)" points="38.5,65.5,38.5,65.7102,48.6875,65.0857,58.875,65.6933,69.0625,65.8997,79.25,64.7866,89.4375,65.4223,99.625,65.0735,109.8125,65.1165,120,65.4318,130.1875,64.8086,140.375,66.0536,150.5625,64.8697,160.75,65.3022,170.9375,65.9319,181.125,65.4142,191.3125,65.5682,201.5,65.5,201.4681,65.5,201.6785,75.1,201.7391,84.7,202.0857,94.3,202.1711,103.9,201.5,113.5,201.5,114.1793,191.3125,113.7546,181.125,113.9636,170.9375,114.2022,160.75,112.7788,150.5625,114.1785,140.375,113.2035,130.1875,114.0338,120,113.005,109.8125,113.4315,99.625,114.2416,89.4375,113.4513,79.25,113.6053,69.0625,113.8386,58.875,113.9162,48.6875,113.4961,38.5,113.5,38.7872,113.5,37.9276,103.9,38.7844,94.3,39.0482,84.7,38.9445,75.1,38.5,65.5" style="stroke: #000000; stroke-width: 1.5;"/><polygon fill="#A9D18E" points="38.5,65.5,38.5,65.7102,48.6875,65.0857,58.875,65.6933,69.0625,65.8997,79.25,64.7866,89.4375,65.4223,99.625,65.0735,109.8125,65.1165,120,65.4318,130.1875,64.8086,140.375,66.0536,150.5625,64.8697,160.75,65.3022,170.9375,65.9319,181.125,65.4142,191.3125,65.5682,201.5,65.5,201.4894,65.5,201.5595,71.9,201.5797,78.3,201.6952,84.7,201.7237,91.1,201.5,97.5,201.5,98.1793,191.3125,97.7546,181.125,97.9636,170.9375,98.2022,160.75,96.7788,150.5625,98.1785,140.375,97.2035,130.1875,98.0338,120,97.005,109.8125,97.4315,99.625,98.2416,89.4375,97.4513,79.25,97.6053,69.0625,97.8386,58.875,97.9162,48.6875,97.4961,38.5,97.5,38.5957,97.5,38.3092,91.1,38.5948,84.7,38.6827,78.3,38.6482,71.9,38.5,65.5" style="stroke: #000000; stroke-width: 1.5;"/><polygon fill="#ADD1B2" points="64.5608,84.1756,62.9484,86.3788,61.0412,89.6057,58.3136,91.7804,55.4474,92.9696,53.162,93.0728,50.2247,91.5855,47.4532,90.6139,45.3495,88.6412,44.2461,86.3828,43.5917,84.5845,42.9506,82.2357,41.91,80.2145,42.7096,78.241,43.4102,76.0792,46.0393,74.3695,47.889,72.1511,50.1784,71.4144,52.9001,70.7801,56.3904,71.157,58.3021,72.0585,60.5247,72.4672,63.2272,75.236,64.1693,78.159,64.5786,80.1534,64.115,83.4399" style="stroke: #000000; stroke-width: 1.0;"/><path d="M55.9731,87.6431 Q55.3921,87.9419 54.7529,88.0913 Q54.1138,88.2407 53.4082,88.2407 Q50.9014,88.2407 49.5815,86.5889 Q48.2617,84.937 48.2617,81.8159 Q48.2617,78.6865 49.5815,77.0347 Q50.9014,75.3828 53.4082,75.3828 Q54.1138,75.3828 54.7612,75.5322 Q55.4087,75.6816 55.9731,75.9805 L55.9731,78.7031 Q55.3423,78.1221 54.7488,77.8523 Q54.1553,77.5825 53.5244,77.5825 Q52.1797,77.5825 51.4949,78.6492 Q50.8101,79.7158 50.8101,81.8159 Q50.8101,83.9077 51.4949,84.9744 Q52.1797,86.041 53.5244,86.041 Q54.1553,86.041 54.7488,85.7712 Q55.3423,85.5015 55.9731,84.9204 Z "/><text fill="#000000" font-family="sans-serif" font-size="12" lengthAdjust="spacingAndGlyphs" textLength="131" x="67.5" y="86.0352">AutreClasseAssembly1</text><path d="M39.5,97.5 L39.5,97.7802 L49.5625,96.9476 L59.625,97.7577 L69.6875,98.0329 L79.75,96.5488 L89.8125,97.3964 L99.875,96.9313 L109.9375,96.9887 L120,97.4091 L130.0625,96.5782 L140.125,98.2382 L150.1875,96.6596 L160.25,97.2363 L170.3125,98.0759 L180.375,97.3856 L190.4375,97.591 L200.5,97.5 " fill="#A9D18E" style="stroke: #000000; stroke-width: 1.5;"/><path d="M39.5,105.5 L39.5,105.7802 L49.5625,104.9476 L59.625,105.7577 L69.6875,106.0329 L79.75,104.5488 L89.8125,105.3964 L99.875,104.9313 L109.9375,104.9887 L120,105.4091 L130.0625,104.5782 L140.125,106.2382 L150.1875,104.6596 L160.25,105.2363 L170.3125,106.0759 L180.375,105.3856 L190.4375,105.591 L200.5,105.5 " fill="#A9D18E" style="stroke: #000000; stroke-width: 1.5;"/><!--class FilleAssembly2--><polygon fill="#A9D18E" filter="url(#f1nussi0ubu3ti)" points="645.5,180,645.5,180.2102,655.25,179.5857,665,180.1933,674.75,180.3997,684.5,179.2866,694.25,179.9223,704,179.5735,713.75,179.6165,723.5,179.9318,733.25,179.3086,743,180.5536,752.75,179.3697,762.5,180,762.3022,180,762.9319,189.6,762.4142,199.2,762.5682,208.8,762.4681,218.4,762.5,228,762.5,228.1785,752.75,228.2391,743,228.5857,733.25,228.6711,723.5,228.6793,713.75,228.2546,704,228.4636,694.25,228.7022,684.5,227.2788,674.75,228.6785,665,227.7035,655.25,228.5338,645.5,228,645.005,228,645.4315,218.4,646.2416,208.8,645.4513,199.2,645.6053,189.6,645.5,180" style="stroke: #000000; stroke-width: 1.5;"/><polygon fill="#A9D18E" points="645.5,180,645.5,180.2102,655.25,179.5857,665,180.1933,674.75,180.3997,684.5,179.2866,694.25,179.9223,704,179.5735,713.75,179.6165,723.5,179.9318,733.25,179.3086,743,180.5536,752.75,179.3697,762.5,180,762.4341,180,762.644,186.4,762.4714,192.8,762.5227,199.2,762.4894,205.6,762.5,212,762.5,212.1785,752.75,212.2391,743,212.5857,733.25,212.6711,723.5,212.6793,713.75,212.2546,704,212.4636,694.25,212.7022,684.5,211.2788,674.75,212.6785,665,211.7035,655.25,212.5338,645.5,212,645.335,212,645.4772,205.6,645.7472,199.2,645.4838,192.8,645.5351,186.4,645.5,180" style="stroke: #000000; stroke-width: 1.5;"/><polygon fill="#ADD1B2" points="671.5608,198.6756,669.9484,200.8788,668.0412,204.1057,665.3136,206.2804,662.4474,207.4696,660.162,207.5728,657.2247,206.0855,654.4532,205.1139,652.3495,203.1412,651.2461,200.8828,650.5917,199.0845,649.9506,196.7357,648.91,194.7145,649.7096,192.741,650.4102,190.5792,653.0393,188.8695,654.889,186.6511,657.1784,185.9144,659.9001,185.2801,663.3904,185.657,665.3021,186.5585,667.5247,186.9672,670.2272,189.736,671.1693,192.659,671.5786,194.6534,671.115,197.9399" style="stroke: #000000; stroke-width: 1.0;"/><path d="M662.9731,202.1431 Q662.3921,202.4419 661.7529,202.5913 Q661.1138,202.7407 660.4082,202.7407 Q657.9014,202.7407 656.5815,201.0889 Q655.2617,199.437 655.2617,196.3159 Q655.2617,193.1865 656.5815,191.5347 Q657.9014,189.8828 660.4082,189.8828 Q661.1138,189.8828 661.7612,190.0322 Q662.4087,190.1816 662.9731,190.4805 L662.9731,193.2031 Q662.3423,192.6221 661.7488,192.3523 Q661.1553,192.0825 660.5244,192.0825 Q659.1797,192.0825 658.4949,193.1492 Q657.8101,194.2158 657.8101,196.3159 Q657.8101,198.4077 658.4949,199.4744 Q659.1797,200.541 660.5244,200.541 Q661.1553,200.541 661.7488,200.2712 Q662.3423,200.0015 662.9731,199.4204 Z "/><text fill="#000000" font-family="sans-serif" font-size="12" lengthAdjust="spacingAndGlyphs" textLength="85" x="674.5" y="200.5352">FilleAssembly2</text><path d="M646.5,212 L646.5,212.2802 L656.0833,211.4476 L665.6667,212.2577 L675.25,212.5329 L684.8333,211.0488 L694.4167,211.8964 L704,211.4313 L713.5833,211.4887 L723.1667,211.9091 L732.75,211.0782 L742.3333,212.7382 L751.9167,211.1596 L761.5,212 " fill="#A9D18E" style="stroke: #000000; stroke-width: 1.5;"/><path d="M646.5,220 L646.5,220.2802 L656.0833,219.4476 L665.6667,220.2577 L675.25,220.5329 L684.8333,219.0488 L694.4167,219.8964 L704,219.4313 L713.5833,219.4887 L723.1667,219.9091 L732.75,219.0782 L742.3333,220.7382 L751.9167,219.1596 L761.5,220 " fill="#A9D18E" style="stroke: #000000; stroke-width: 1.5;"/><!--class AutreClasseAssembly2--><polygon fill="#A9D18E" filter="url(#f1nussi0ubu3ti)" points="447.5,180,447.5,180.2102,457.6875,179.5857,467.875,180.1933,478.0625,180.3997,488.25,179.2866,498.4375,179.9223,508.625,179.5735,518.8125,179.6165,529,179.9318,539.1875,179.3086,549.375,180.5536,559.5625,179.3697,569.75,179.8022,579.9375,180.4319,590.125,179.9142,600.3125,180.0682,610.5,180,610.4681,180,610.6785,189.6,610.7391,199.2,611.0857,208.8,611.1711,218.4,610.5,228,610.5,228.6793,600.3125,228.2546,590.125,228.4636,579.9375,228.7022,569.75,227.2788,559.5625,228.6785,549.375,227.7035,539.1875,228.5338,529,227.505,518.8125,227.9315,508.625,228.7416,498.4375,227.9513,488.25,228.1053,478.0625,228.3386,467.875,228.4162,457.6875,227.9961,447.5,228,447.7872,228,446.9276,218.4,447.7844,208.8,448.0482,199.2,447.9445,189.6,447.5,180" style="stroke: #000000; stroke-width: 1.5;"/><polygon fill="#A9D18E" points="447.5,180,447.5,180.2102,457.6875,179.5857,467.875,180.1933,478.0625,180.3997,488.25,179.2866,498.4375,179.9223,508.625,179.5735,518.8125,179.6165,529,179.9318,539.1875,179.3086,549.375,180.5536,559.5625,179.3697,569.75,179.8022,579.9375,180.4319,590.125,179.9142,600.3125,180.0682,610.5,180,610.4894,180,610.5595,186.4,610.5797,192.8,610.6952,199.2,610.7237,205.6,610.5,212,610.5,212.6793,600.3125,212.2546,590.125,212.4636,579.9375,212.7022,569.75,211.2788,559.5625,212.6785,549.375,211.7035,539.1875,212.5338,529,211.505,518.8125,211.9315,508.625,212.7416,498.4375,211.9513,488.25,212.1053,478.0625,212.3386,467.875,212.4162,457.6875,211.9961,447.5,212,447.5957,212,447.3092,205.6,447.5948,199.2,447.6827,192.8,447.6482,186.4,447.5,180" style="stroke: #000000; stroke-width: 1.5;"/><polygon fill="#ADD1B2" points="473.5608,198.6756,471.9484,200.8788,470.0412,204.1057,467.3136,206.2804,464.4474,207.4696,462.162,207.5728,459.2247,206.0855,456.4532,205.1139,454.3495,203.1412,453.2461,200.8828,452.5917,199.0845,451.9506,196.7357,450.91,194.7145,451.7096,192.741,452.4102,190.5792,455.0393,188.8695,456.889,186.6511,459.1784,185.9144,461.9001,185.2801,465.3904,185.657,467.3021,186.5585,469.5247,186.9672,472.2272,189.736,473.1693,192.659,473.5786,194.6534,473.115,197.9399" style="stroke: #000000; stroke-width: 1.0;"/><path d="M464.9731,202.1431 Q464.3921,202.4419 463.7529,202.5913 Q463.1138,202.7407 462.4082,202.7407 Q459.9014,202.7407 458.5815,201.0889 Q457.2617,199.437 457.2617,196.3159 Q457.2617,193.1865 458.5815,191.5347 Q459.9014,189.8828 462.4082,189.8828 Q463.1138,189.8828 463.7612,190.0322 Q464.4087,190.1816 464.9731,190.4805 L464.9731,193.2031 Q464.3423,192.6221 463.7488,192.3523 Q463.1553,192.0825 462.5244,192.0825 Q461.1797,192.0825 460.4949,193.1492 Q459.8101,194.2158 459.8101,196.3159 Q459.8101,198.4077 460.4949,199.4744 Q461.1797,200.541 462.5244,200.541 Q463.1553,200.541 463.7488,200.2712 Q464.3423,200.0015 464.9731,199.4204 Z "/><text fill="#000000" font-family="sans-serif" font-size="12" lengthAdjust="spacingAndGlyphs" textLength="131" x="476.5" y="200.5352">AutreClasseAssembly2</text><path d="M448.5,212 L448.5,212.2802 L458.5625,211.4476 L468.625,212.2577 L478.6875,212.5329 L488.75,211.0488 L498.8125,211.8964 L508.875,211.4313 L518.9375,211.4887 L529,211.9091 L539.0625,211.0782 L549.125,212.7382 L559.1875,211.1596 L569.25,211.7363 L579.3125,212.5759 L589.375,211.8856 L599.4375,212.091 L609.5,212 " fill="#A9D18E" style="stroke: #000000; stroke-width: 1.5;"/><path d="M448.5,220 L448.5,220.2802 L458.5625,219.4476 L468.625,220.2577 L478.6875,220.5329 L488.75,219.0488 L498.8125,219.8964 L508.875,219.4313 L518.9375,219.4887 L529,219.9091 L539.0625,219.0782 L549.125,220.7382 L559.1875,219.1596 L569.25,219.7363 L579.3125,220.5759 L589.375,219.8856 L599.4375,220.091 L609.5,220 " fill="#A9D18E" style="stroke: #000000; stroke-width: 1.5;"/><!--reverse link Mere to FilleAssembly1--><path d="M314,140.11 L314.0934,140.11 L313.8159,148.022 L314.0859,155.934 L314.1776,163.846 L313.6829,171.758 L314,179.67 " fill="none" style="stroke: #A80036; stroke-width: 1.0;"/><polygon fill="none" points="307,140.06,307.0661,140.0831,308.2696,136.0144,309.8608,132.0813,311.3257,128.104,312.3756,123.9814,314,120.06,313.9755,120.0514,315.2658,124.013,316.6793,128.0178,318.1786,132.0525,319.3825,135.9839,321,140.06,321,140.2445,318.2,139.8499,315.4,139.9941,312.6,140.204,309.8,140.0314,307,140.06" style="stroke: #A80036; stroke-width: 1.0;"/><!--reverse link Mere to FilleAssembly2--><path d="M411.47,98.92 L411.4798,99.0129 L417.4541,99.3703 L423.4858,100.2722 L429.4988,100.9968 L435.4503,101.1382 L441.4869,102.087 L441.4829,102.0526 L447.7114,102.6274 L453.96,103.3751 L460.2227,104.2431 L466.437,104.6967 L472.7191,105.7306 L472.751,105.9746 L478.9664,106.2748 L485.275,107.2873 L491.5949,108.3867 L497.8487,108.9805 L504.1373,109.8402 L504.1416,109.8703 L507.2267,110.2714 L510.3315,110.8092 L513.4268,111.2811 L516.5403,111.8788 L519.5946,112.0664 L519.6402,112.3611 L522.6643,112.8325 L525.6591,113.1137 L528.6968,113.6732 L531.7366,114.2457 L534.7125,114.405 L534.6596,114.0889 L537.6922,115.1924 L540.5507,115.2549 L543.5415,116.1088 L546.3961,116.1478 L549.3623,116.8547 L549.3569,116.8247 L552.232,117.6909 L554.9797,117.8572 L557.8026,118.4364 L560.6318,119.0503 L563.4155,119.4141 L563.4518,119.5955 L566.0807,119.946 L568.7717,120.6064 L571.3623,120.7654 L574.1026,121.6723 L576.7433,122.082 L576.7962,122.3198 L579.281,122.8298 L581.792,123.4579 L584.181,123.5373 L586.6595,124.019 L589.2172,124.8569 L589.15,124.589 L591.5091,125.4076 L593.7924,125.9244 L596.1856,126.879 L598.3913,127.086 L600.7084,127.7375 L600.6663,127.5909 L602.8125,128.432 L604.7785,128.6466 L606.8726,129.3067 L609.0921,130.4026 L611.0884,130.7224 L611.1558,130.9039 L614.5843,132.284 L617.8033,133.0994 L621.2847,134.622 L624.709,135.9905 L628,137 L627.8981,136.8164 L631.1708,138.7339 L634.41,140.5912 L637.7149,142.5667 L640.7648,144.0829 L643.9572,145.8556 L644.0778,146.0221 L646.8043,147.8242 L649.7637,149.9476 L653.0632,152.5405 L655.7365,154.2691 L658.915,156.695 L659.0632,156.8659 L661.6802,159.1107 L664.2471,161.2978 L666.9272,163.6153 L669.8689,166.2345 L672.4403,168.4269 L672.3468,168.3323 L674.9572,170.9205 L676.9314,172.8655 L679.6291,175.5418 L681.9194,177.8064 L684.1,179.96 " fill="none" style="stroke: #A80036; stroke-width: 1.0;"/><polygon fill="none" points="410.55,105.86,410.5795,105.9236,406.6479,103.9527,402.8891,102.3545,399.074,100.6349,395.074,98.5163,391.33,96.95,391.3239,96.9248,395.4123,95.8079,399.5317,94.8178,403.6726,93.9159,407.7394,92.7101,411.91,91.93,412.0937,91.9479,411.4289,94.6956,411.3004,97.4956,411.2373,100.302,410.7935,103.0712,410.55,105.86" style="stroke: #A80036; stroke-width: 1.0;"/><!--
@startuml AccessModifierPublic

skinparam classAttributeIconSize 0
skinparam handwritten true

skinparam class {
    BackgroundColor White
    BorderColor #000
}

package Assembly1 #DDF {
    class Mere #BDD7EE {
        public MethodeAAcceder()
    }

    class FilleAssembly1 #A9D18E {

    }

    Mere <|- - FilleAssembly1

    class AutreClasseAssembly1 #A9D18E {

    }
}

package Assembly2 #DFF {
    class FilleAssembly2 #A9D18E {

    }

    Mere <|- - FilleAssembly2

    class AutreClasseAssembly2 #A9D18E {

    }
}

@enduml

PlantUML version 1.2019.09(Mon Aug 26 12:19:51 EDT 2019)
(GPL source distribution)
Java Runtime: OpenJDK Runtime Environment
JVM: OpenJDK 64-Bit Server VM
Java Version: 13.0.2+8
Operating System: Mac OS X
OS Version: 10.15.4
Default Encoding: UTF-8
Language: fr
Country: CA
--></g></svg>