<?xml version="1.0" encoding="us-ascii" standalone="no"?><svg xmlns="http://www.w3.org/2000/svg" xmlns:xlink="http://www.w3.org/1999/xlink" contentStyleType="text/css" height="239px" preserveAspectRatio="none" style="width:832px;height:239px;background:#FFFFFF;" version="1.1" viewBox="0 0 832 239" width="832px" zoomAndPan="magnify"><defs/><g><!--cluster Assembly1--><g id="cluster_Assembly1"><path d="M8.5,6 L8.5,6.5605 L17.875,4.8951 L27.25,6.5154 L36.625,7.0658 L46,4.0976 L55.375,5.7928 L64.75,4.8627 L74.125,4.9773 L83.5,6 L86,8.5 L85.9425,8.4809 L86.8167,12.5284 L89.2671,17.0986 L89.6682,20.9893 L91.4331,25.3322 L93,29.6094 L93,30.7612 L103.1364,29.3806 L113.2727,29.7913 L123.4091,29.5242 L133.5455,30.0854 L143.6818,30.2471 L153.8182,31.1712 L163.9545,31.3989 L174.0909,31.4207 L184.2273,30.2884 L194.3636,30.8456 L204.5,31.482 L214.6364,27.6862 L224.7727,31.4187 L234.9091,28.8187 L245.0455,31.0329 L255.1818,28.2893 L265.3182,29.4267 L275.4545,31.587 L285.5909,29.4794 L295.7273,29.8902 L305.8636,30.5124 L316,30.7193 L326.1364,29.599 L336.2727,30.3753 L346.4091,28.0829 L356.5455,30.3677 L366.6818,31.0712 L376.8182,30.7948 L386.9545,31.2441 L397.0909,28.3212 L407.2273,27.8702 L417.3636,27.9523 L427.5,29.6094 L430,32.1094 L429.843,32.1094 L429.4759,41.9789 L431.8171,51.8484 L429.5342,61.718 L429.0852,71.5875 L430.6087,81.457 L428.2218,91.3266 L428.6157,101.1961 L431.7305,111.0656 L431.1618,120.9352 L431.9586,130.8047 L429.1419,140.6742 L430.8512,150.5438 L431.5745,160.4133 L428.7403,170.2828 L429.7444,180.1523 L430.336,190.0219 L431.738,199.8914 L429.9888,209.7609 L431.2335,219.6305 L430,229.5 L427.5,232 L427.5,230.5232 L417.5238,230.194 L407.5476,233.343 L397.5714,230.0882 L387.5952,233.3572 L377.619,232.551 L367.6429,231.2856 L357.6667,231.0566 L347.6905,233.2234 L337.7143,231.2018 L327.7381,233.5783 L317.7619,230.526 L307.7857,233.6465 L297.8095,233.2915 L287.8333,232.6532 L277.8571,232.1259 L267.881,233.9376 L257.9048,233.6362 L247.9286,232.4513 L237.9524,232.7152 L227.9762,231.6526 L218,233.9105 L208.0238,232.413 L198.0476,232.4602 L188.0714,230.3777 L178.0952,230.9194 L168.119,233.4153 L158.1429,233.146 L148.1667,231.8855 L138.1905,231.1409 L128.2143,231.4162 L118.2381,230.1702 L108.2619,233.106 L98.2857,233.9722 L88.3095,233.4037 L78.3333,233.8532 L68.3571,231.6354 L58.381,232.2326 L48.4048,230.9664 L38.4286,232.7574 L28.4524,232.658 L18.4762,233.473 L8.5,232 L6,229.5 L5.3876,229.5 L5.6416,219.4545 L7.1826,209.4091 L7.5129,199.3636 L4.6332,189.3182 L5.483,179.2727 L6.398,169.2273 L4.3711,159.1818 L6.9424,149.1364 L6.688,139.0909 L5.7313,129.0455 L6.3793,119 L7.9431,108.9545 L5.1657,98.9091 L6.84,88.8636 L6.7617,78.8182 L6.3087,68.7727 L6.3758,58.7273 L6.3026,48.6818 L4.3356,38.6364 L4.9312,28.5909 L4.7692,18.5455 L6,8.5 L8.5,6 " fill="#DDDDFF" style="stroke:#000000;stroke-width:1.5;"/><path d="M6,29.6094 L6,29.8896 L15.6667,29.0569 L25.3333,29.8671 L35,30.1423 L44.6667,28.6582 L54.3333,29.5058 L64,29.0407 L73.6667,29.098 L83.3333,29.5185 L93,29.6094 " fill="#DDDDFF" style="stroke:#000000;stroke-width:1.5;"/><text fill="#000000" font-family="sans-serif" font-size="14" font-weight="bold" lengthAdjust="spacing" textLength="74" x="10" y="22.5332">Assembly1</text></g><!--cluster Assembly2--><g id="cluster_Assembly2"><path d="M456.5,132 L456.5,132.5605 L465.875,130.8951 L475.25,132.5154 L484.625,133.0658 L494,130.0976 L503.375,131.7928 L512.75,130.8627 L522.125,130.9773 L531.5,132 L534,134.5 L533.9425,134.4809 L534.8167,138.5284 L537.2671,143.0986 L537.6682,146.9893 L539.4331,151.3322 L541,155.6094 L541,156.7612 L551.0536,155.3806 L561.1071,155.7913 L571.1607,155.5242 L581.2143,156.0854 L591.2679,156.2471 L601.3214,157.1712 L611.375,157.3989 L621.4286,157.4207 L631.4821,156.2884 L641.5357,156.8456 L651.5893,157.482 L661.6429,153.6862 L671.6964,157.4187 L681.75,154.8187 L691.8036,157.0329 L701.8571,154.2893 L711.9107,155.4267 L721.9643,157.587 L732.0179,155.4794 L742.0714,155.8902 L752.125,156.5124 L762.1786,156.7193 L772.2321,155.599 L782.2857,156.3753 L792.3393,154.0829 L802.3929,156.3677 L812.4464,157.0712 L822.5,155.6094 L825,158.1094 L826.1854,158.1094 L826.6347,168.308 L823.7118,178.5067 L823.2608,188.7054 L823.3429,198.904 L824.843,209.1027 L824.4759,219.3013 L825,229.5 L822.5,232 L822.5,233.8171 L812.6081,231.5342 L802.7162,231.0852 L792.8243,232.6087 L782.9324,230.2218 L773.0405,230.6157 L763.1486,233.7305 L753.2568,233.1618 L743.3649,233.9586 L733.473,231.1419 L723.5811,232.8512 L713.6892,233.5745 L703.7973,230.7403 L693.9054,231.7444 L684.0135,232.336 L674.1216,233.738 L664.2297,231.9888 L654.3378,233.2335 L644.4459,230.5232 L634.5541,230.194 L624.6622,233.343 L614.7703,230.0882 L604.8784,233.3572 L594.9865,232.551 L585.0946,231.2856 L575.2027,231.0566 L565.3108,233.2234 L555.4189,231.2018 L545.527,233.5783 L535.6351,230.526 L525.7432,233.6465 L515.8514,233.2915 L505.9595,232.6532 L496.0676,232.1259 L486.1757,233.9376 L476.2838,233.6362 L466.3919,232.4513 L456.5,232 L454,229.5 L454.7152,229.5 L453.6526,220 L455.9105,210.5 L454.413,201 L454.4602,191.5 L452.3777,182 L452.9194,172.5 L455.4153,163 L455.146,153.5 L453.8855,144 L454,134.5 L456.5,132 " fill="#DDFFFF" style="stroke:#000000;stroke-width:1.5;"/><path d="M454,155.6094 L454,155.8896 L463.6667,155.0569 L473.3333,155.8671 L483,156.1423 L492.6667,154.6582 L502.3333,155.5058 L512,155.0407 L521.6667,155.098 L531.3333,155.5185 L541,155.6094 " fill="#DDFFFF" style="stroke:#000000;stroke-width:1.5;"/><text fill="#000000" font-family="sans-serif" font-size="14" font-weight="bold" lengthAdjust="spacing" textLength="74" x="458" y="148.5332">Assembly2</text></g><!--class Mere--><g id="elem_Mere"><polygon fill="#BDD7EE" points="237,42,237,42.2102,247.2353,41.5857,257.4706,42.1933,267.7059,42.3997,277.9412,41.2866,288.1765,41.9223,298.4118,41.5735,308.6471,41.6165,318.8824,41.9318,329.1176,41.3086,339.3529,42.5536,349.5882,41.3697,359.8235,41.8022,370.0588,42.4319,380.2941,41.9142,390.5294,42.0682,400.7647,41.9681,411,42,411.0228,42.055,411.3841,42.2201,411.7818,42.4733,412.1463,42.646,412.5009,42.795,412.7678,42.7322,412.8462,42.7647,413.057,43.1449,413.2769,43.5289,412.985,43.7009,413.5625,44.233,413.5,44.5,413.2035,44.5,414.0338,54.6016,413.005,64.7031,413.4315,74.8047,414.2416,84.9063,413.4513,95.0078,413.5,105.1094,413.5324,105.1228,413.4578,105.5061,413.3353,105.8696,413.0595,106.1695,413.0027,106.5602,412.7678,106.8771,412.6947,106.7009,412.4505,107.1112,412.1306,107.3389,411.7638,107.4534,411.4318,107.6517,411,107.6094,411,107.1263,400.7647,106.9572,390.5294,106.988,380.2941,107.5505,370.0588,107.4128,359.8235,108.2908,349.5882,107.4347,339.3529,107.2663,329.1176,107.8376,318.8824,106.9425,308.6471,107.0902,298.4118,108.2583,288.1765,108.045,277.9412,108.3439,267.7059,107.2876,257.4706,107.9286,247.2353,108.1998,237,107.6094,236.9397,107.4639,236.6342,107.4334,236.309,107.3553,236.0225,107.3708,235.5853,107.0223,235.2322,106.8771,235.3747,106.9361,234.9152,106.4529,234.7308,106.0836,234.948,105.8807,234.4257,105.3715,234.5,105.1094,235.009,105.1094,234.7066,95.0078,234.2321,84.9063,234.1462,74.8047,234.9588,64.7031,234.2007,54.6016,234.5,44.5,234.6823,44.5755,234.4762,44.0759,234.983,43.8717,235.0885,43.5011,235.1612,43.117,235.2322,42.7322,235.2383,42.7468,235.6785,42.8096,236.0176,42.6283,236.3145,42.345,236.6807,42.229,237,42" style="stroke:#000000;stroke-width:0.5;"/><polygon fill="#ADD1B2" points="314.8108,60.6756,313.1984,62.8788,311.2912,66.1057,308.5636,68.2804,305.6974,69.4696,303.412,69.5728,300.4747,68.0855,297.7032,67.1139,295.5995,65.1412,294.4961,62.8828,293.8417,61.0845,293.2006,58.7357,292.16,56.7145,292.9596,54.741,293.6602,52.5792,296.2893,50.8695,298.139,48.6511,300.4284,47.9144,303.1501,47.2801,306.6404,47.657,308.5521,48.5585,310.7747,48.9672,313.4772,51.736,314.4193,54.659,314.8286,56.6534,314.365,59.9399" style="stroke:#181818;stroke-width:1.0;"/><path d="M306.5156,53.875 Q306.6719,53.6563 306.8594,53.5469 Q307.0469,53.4375 307.2656,53.4375 Q307.6406,53.4375 307.875,53.6953 Q308.1094,53.9531 308.1094,54.5625 L308.1094,56.0156 Q308.1094,56.625 307.875,56.8906 Q307.6406,57.1563 307.2656,57.1563 Q306.9219,57.1563 306.7188,56.9531 Q306.5156,56.7656 306.4063,56.25 Q306.3594,55.8906 306.1719,55.7031 Q305.8438,55.3281 305.2344,55.1094 Q304.625,54.8906 304,54.8906 Q303.2344,54.8906 302.6016,55.2188 Q301.9688,55.5469 301.4766,56.2969 Q300.9844,57.0469 300.9844,58.0781 L300.9844,59.1719 Q300.9844,60.4063 301.875,61.2266 Q302.7656,62.0469 304.3594,62.0469 Q305.2969,62.0469 305.9531,61.7969 Q306.3438,61.6406 306.7656,61.2031 Q307.0313,60.9375 307.1797,60.8594 Q307.3281,60.7813 307.5313,60.7813 Q307.8594,60.7813 308.1172,61.0391 Q308.375,61.2969 308.375,61.6406 Q308.375,61.9844 308.0313,62.3906 Q307.5313,62.9688 306.7344,63.2969 Q305.6563,63.75 304.3594,63.75 Q302.8438,63.75 301.6406,63.125 Q300.6563,62.625 299.9688,61.5547 Q299.2813,60.4844 299.2813,59.2031 L299.2813,58.0469 Q299.2813,56.7188 299.8984,55.5703 Q300.5156,54.4219 301.6094,53.8047 Q302.7031,53.1875 303.9375,53.1875 Q304.6719,53.1875 305.3203,53.3516 Q305.9688,53.5156 306.5156,53.875 Z " fill="#000000"/><text fill="#000000" font-family="sans-serif" font-size="14" lengthAdjust="spacing" textLength="32" x="324.25" y="63.7285">Mere</text><path d="M235.5,74 L235.5,74.2802 L245.3333,73.4476 L255.1667,74.2577 L265,74.5329 L274.8333,73.0488 L284.6667,73.8964 L294.5,73.4313 L304.3333,73.4887 L314.1667,73.9091 L324,73.0782 L333.8333,74.7382 L343.6667,73.1596 L353.5,73.7363 L363.3333,74.5759 L373.1667,73.8856 L383,74.091 L392.8333,73.9574 L402.6667,74.238 L412.5,74 " fill="#BDD7EE" style="stroke:#000000;stroke-width:0.5;"/><path d="M235.5,82 L235.5,82.2802 L245.3333,81.4476 L255.1667,82.2577 L265,82.5329 L274.8333,81.0488 L284.6667,81.8964 L294.5,81.4313 L304.3333,81.4887 L314.1667,81.9091 L324,81.0782 L333.8333,82.7382 L343.6667,81.1596 L353.5,81.7363 L363.3333,82.5759 L373.1667,81.8856 L383,82.091 L392.8333,81.9574 L402.6667,82.238 L412.5,82 " fill="#BDD7EE" style="stroke:#000000;stroke-width:0.5;"/><text fill="#000000" font-family="sans-serif" font-size="14" lengthAdjust="spacing" textLength="167" x="240.5" y="100.5332">public MethodeAAcceder()</text></g><!--class FilleAssembly1--><g id="elem_FilleAssembly1"><polygon fill="#A9D18E" points="263.5,168,263.5,168.2102,273.5833,167.5857,283.6667,168.1933,293.75,168.3997,303.8333,167.2866,313.9167,167.9223,324,167.5735,334.0833,167.6165,344.1667,167.9318,354.25,167.3086,364.3333,168.5536,374.4167,167.3697,384.5,168,384.4748,167.9391,384.9087,168.2795,385.1962,168.2665,385.5694,168.4604,385.9101,168.5759,386.2678,168.7322,386.3227,168.755,386.4879,169.1163,386.741,169.5141,386.9138,169.8785,387.0627,170.2331,387,170.5,387.0849,170.5,387.1545,179.1,387.2341,187.7,386.7596,196.3,387.2262,204.9,387,213.5,386.9087,213.4622,387.0179,213.9216,386.5547,214.144,386.5396,214.5519,386.6426,215.0088,386.2678,215.2678,386.2616,215.2528,385.9276,215.4466,385.6039,215.6649,385.2602,215.8353,384.8531,215.8524,384.5,216,384.5,216.2872,374.4167,215.4276,364.3333,216.2844,354.25,216.5482,344.1667,216.4445,334.0833,216.613,324,215.5169,313.9167,215.3478,303.8333,215.3786,293.75,215.9411,283.6667,215.8035,273.5833,216.6814,263.5,216,263.4777,215.9462,263.1027,215.7479,262.822,215.7774,262.3543,215.3553,262.0196,215.2543,261.7322,215.2678,261.9321,215.3505,261.72,214.9698,261.6655,214.6544,261.1938,214.1661,261.2447,213.8943,261,213.5,261.1968,213.5,260.8425,204.9,260.968,196.3,261.042,187.7,261.2173,179.1,261,170.5,260.9987,170.4995,261.2889,170.2055,261.1223,169.7223,261.2308,169.3529,261.7409,169.15,261.7322,168.7322,261.6408,168.5114,262.1507,168.7425,262.4657,168.503,262.7587,168.2104,263.1013,168.0375,263.5,168" style="stroke:#000000;stroke-width:0.5;"/><polygon fill="#ADD1B2" points="287.0608,186.6756,285.4484,188.8788,283.5412,192.1057,280.8136,194.2804,277.9474,195.4696,275.662,195.5728,272.7247,194.0855,269.9532,193.1139,267.8495,191.1412,266.7461,188.8828,266.0917,187.0845,265.4506,184.7357,264.41,182.7145,265.2096,180.741,265.9102,178.5792,268.5393,176.8695,270.389,174.6511,272.6784,173.9144,275.4001,173.2801,278.8904,173.657,280.8021,174.5585,283.0247,174.9672,285.7272,177.736,286.6693,180.659,287.0786,182.6534,286.615,185.9399" style="stroke:#181818;stroke-width:1.0;"/><path d="M278.7656,179.875 Q278.9219,179.6563 279.1094,179.5469 Q279.2969,179.4375 279.5156,179.4375 Q279.8906,179.4375 280.125,179.6953 Q280.3594,179.9531 280.3594,180.5625 L280.3594,182.0156 Q280.3594,182.625 280.125,182.8906 Q279.8906,183.1563 279.5156,183.1563 Q279.1719,183.1563 278.9688,182.9531 Q278.7656,182.7656 278.6563,182.25 Q278.6094,181.8906 278.4219,181.7031 Q278.0938,181.3281 277.4844,181.1094 Q276.875,180.8906 276.25,180.8906 Q275.4844,180.8906 274.8516,181.2188 Q274.2188,181.5469 273.7266,182.2969 Q273.2344,183.0469 273.2344,184.0781 L273.2344,185.1719 Q273.2344,186.4063 274.125,187.2266 Q275.0156,188.0469 276.6094,188.0469 Q277.5469,188.0469 278.2031,187.7969 Q278.5938,187.6406 279.0156,187.2031 Q279.2813,186.9375 279.4297,186.8594 Q279.5781,186.7813 279.7813,186.7813 Q280.1094,186.7813 280.3672,187.0391 Q280.625,187.2969 280.625,187.6406 Q280.625,187.9844 280.2813,188.3906 Q279.7813,188.9688 278.9844,189.2969 Q277.9063,189.75 276.6094,189.75 Q275.0938,189.75 273.8906,189.125 Q272.9063,188.625 272.2188,187.5547 Q271.5313,186.4844 271.5313,185.2031 L271.5313,184.0469 Q271.5313,182.7188 272.1484,181.5703 Q272.7656,180.4219 273.8594,179.8047 Q274.9531,179.1875 276.1875,179.1875 Q276.9219,179.1875 277.5703,179.3516 Q278.2188,179.5156 278.7656,179.875 Z " fill="#000000"/><text fill="#000000" font-family="sans-serif" font-size="14" lengthAdjust="spacing" textLength="94" x="290" y="189.7285">FilleAssembly1</text><path d="M262,200 L262,200.2802 L272.3333,199.4476 L282.6667,200.2577 L293,200.5329 L303.3333,199.0488 L313.6667,199.8964 L324,199.4313 L334.3333,199.4887 L344.6667,199.9091 L355,199.0782 L365.3333,200.7382 L375.6667,199.1596 L386,200 " fill="#A9D18E" style="stroke:#000000;stroke-width:0.5;"/><path d="M262,208 L262,208.2802 L272.3333,207.4476 L282.6667,208.2577 L293,208.5329 L303.3333,207.0488 L313.6667,207.8964 L324,207.4313 L334.3333,207.4887 L344.6667,207.9091 L355,207.0782 L365.3333,208.7382 L375.6667,207.1596 L386,208 " fill="#A9D18E" style="stroke:#000000;stroke-width:0.5;"/></g><!--class AutreClasseAssembly1--><g id="elem_AutreClasseAssembly1"><polygon fill="#A9D18E" points="25,51,25,51.2102,35.1176,50.5857,45.2353,51.1933,55.3529,51.3997,65.4706,50.2866,75.5882,50.9223,85.7059,50.5735,95.8235,50.6165,105.9412,50.9318,116.0588,50.3086,126.1765,51.5536,136.2941,50.3697,146.4118,50.8022,156.5294,51.4319,166.6471,50.9142,176.7647,51.0682,186.8824,50.9681,197,51,197.0228,51.055,197.3841,51.2201,197.7818,51.4733,198.1463,51.646,198.5009,51.795,198.7678,51.7322,198.8462,51.7647,199.057,52.1449,199.2769,52.5289,198.985,52.7009,199.5625,53.233,199.5,53.5,199.4012,53.5,199.6779,62.1,199.335,70.7,199.4772,79.3,199.7472,87.9,199.5,96.5,199.485,96.4938,199.386,96.867,199.3114,97.2503,199.1888,97.6138,198.913,97.9137,198.7678,98.2678,198.8044,98.3562,198.3412,98.2379,198.0969,98.6482,197.777,98.8759,197.4103,98.9905,197,99,197,99.613,186.8824,98.5169,176.7647,98.3478,166.6471,98.3786,156.5294,98.9411,146.4118,98.8035,136.2941,99.6814,126.1765,98.8253,116.0588,98.6569,105.9412,99.2283,95.8235,98.3332,85.7059,98.4809,75.5882,99.649,65.4706,99.4357,55.3529,99.7345,45.2353,98.6782,35.1176,99.3192,25,99,25.0753,99.1818,24.5862,98.7081,24.2807,98.6776,23.9554,98.5995,23.6689,98.6149,23.2322,98.2678,23.2309,98.2672,23.2282,97.9732,22.7688,97.49,22.5843,97.1207,22.8015,96.9178,22.5,96.5,22.261,96.5,22.6697,87.9,22.5689,79.3,22.4107,70.7,22.3821,62.1,22.5,53.5,22.6413,53.5585,22.5543,53.1083,22.9752,52.8684,22.7691,52.3688,23.2759,52.1645,23.2322,51.7322,23.294,51.8814,23.617,51.6612,23.9454,51.4539,24.3856,51.5167,24.7247,51.3354,25,51" style="stroke:#000000;stroke-width:0.5;"/><polygon fill="#ADD1B2" points="48.5608,69.6756,46.9484,71.8788,45.0412,75.1057,42.3136,77.2804,39.4474,78.4696,37.162,78.5728,34.2247,77.0855,31.4532,76.1139,29.3495,74.1412,28.2461,71.8828,27.5917,70.0845,26.9506,67.7357,25.91,65.7145,26.7096,63.741,27.4102,61.5792,30.0393,59.8695,31.889,57.6511,34.1784,56.9144,36.9001,56.2801,40.3904,56.657,42.3021,57.5585,44.5247,57.9672,47.2272,60.736,48.1693,63.659,48.5786,65.6534,48.115,68.9399" style="stroke:#181818;stroke-width:1.0;"/><path d="M40.2656,62.875 Q40.4219,62.6563 40.6094,62.5469 Q40.7969,62.4375 41.0156,62.4375 Q41.3906,62.4375 41.625,62.6953 Q41.8594,62.9531 41.8594,63.5625 L41.8594,65.0156 Q41.8594,65.625 41.625,65.8906 Q41.3906,66.1563 41.0156,66.1563 Q40.6719,66.1563 40.4688,65.9531 Q40.2656,65.7656 40.1563,65.25 Q40.1094,64.8906 39.9219,64.7031 Q39.5938,64.3281 38.9844,64.1094 Q38.375,63.8906 37.75,63.8906 Q36.9844,63.8906 36.3516,64.2188 Q35.7188,64.5469 35.2266,65.2969 Q34.7344,66.0469 34.7344,67.0781 L34.7344,68.1719 Q34.7344,69.4063 35.625,70.2266 Q36.5156,71.0469 38.1094,71.0469 Q39.0469,71.0469 39.7031,70.7969 Q40.0938,70.6406 40.5156,70.2031 Q40.7813,69.9375 40.9297,69.8594 Q41.0781,69.7813 41.2813,69.7813 Q41.6094,69.7813 41.8672,70.0391 Q42.125,70.2969 42.125,70.6406 Q42.125,70.9844 41.7813,71.3906 Q41.2813,71.9688 40.4844,72.2969 Q39.4063,72.75 38.1094,72.75 Q36.5938,72.75 35.3906,72.125 Q34.4063,71.625 33.7188,70.5547 Q33.0313,69.4844 33.0313,68.2031 L33.0313,67.0469 Q33.0313,65.7188 33.6484,64.5703 Q34.2656,63.4219 35.3594,62.8047 Q36.4531,62.1875 37.6875,62.1875 Q38.4219,62.1875 39.0703,62.3516 Q39.7188,62.5156 40.2656,62.875 Z " fill="#000000"/><text fill="#000000" font-family="sans-serif" font-size="14" lengthAdjust="spacing" textLength="145" x="51.5" y="72.7285">AutreClasseAssembly1</text><path d="M23.5,83 L23.5,83.2802 L33.2222,82.4476 L42.9444,83.2577 L52.6667,83.5329 L62.3889,82.0488 L72.1111,82.8964 L81.8333,82.4313 L91.5556,82.4887 L101.2778,82.9091 L111,82.0782 L120.7222,83.7382 L130.4444,82.1596 L140.1667,82.7363 L149.8889,83.5759 L159.6111,82.8856 L169.3333,83.091 L179.0556,82.9574 L188.7778,83.238 L198.5,83 " fill="#A9D18E" style="stroke:#000000;stroke-width:0.5;"/><path d="M23.5,91 L23.5,91.2802 L33.2222,90.4476 L42.9444,91.2577 L52.6667,91.5329 L62.3889,90.0488 L72.1111,90.8964 L81.8333,90.4313 L91.5556,90.4887 L101.2778,90.9091 L111,90.0782 L120.7222,91.7382 L130.4444,90.1596 L140.1667,90.7363 L149.8889,91.5759 L159.6111,90.8856 L169.3333,91.091 L179.0556,90.9574 L188.7778,91.238 L198.5,91 " fill="#A9D18E" style="stroke:#000000;stroke-width:0.5;"/></g><!--class FilleAssembly2--><g id="elem_FilleAssembly2"><polygon fill="#A9D18E" points="685.5,168,685.5,168.2102,695.5833,167.5857,705.6667,168.1933,715.75,168.3997,725.8333,167.2866,735.9167,167.9223,746,167.5735,756.0833,167.6165,766.1667,167.9318,776.25,167.3086,786.3333,168.5536,796.4167,167.3697,806.5,168,806.4748,167.9391,806.9087,168.2795,807.1962,168.2665,807.5694,168.4604,807.9101,168.5759,808.2678,168.7322,808.3227,168.755,808.4879,169.1163,808.741,169.5141,808.9138,169.8785,809.0627,170.2331,809,170.5,809.0849,170.5,809.1545,179.1,809.2341,187.7,808.7596,196.3,809.2262,204.9,809,213.5,808.9087,213.4622,809.0179,213.9216,808.5547,214.144,808.5396,214.5519,808.6426,215.0088,808.2678,215.2678,808.2616,215.2528,807.9276,215.4466,807.6039,215.6649,807.2602,215.8353,806.8531,215.8524,806.5,216,806.5,216.2872,796.4167,215.4276,786.3333,216.2844,776.25,216.5482,766.1667,216.4445,756.0833,216.613,746,215.5169,735.9167,215.3478,725.8333,215.3786,715.75,215.9411,705.6667,215.8035,695.5833,216.6814,685.5,216,685.4777,215.9462,685.1027,215.7479,684.822,215.7774,684.3543,215.3553,684.0196,215.2543,683.7322,215.2678,683.9321,215.3505,683.72,214.9698,683.6655,214.6544,683.1938,214.1661,683.2447,213.8943,683,213.5,683.1968,213.5,682.8425,204.9,682.968,196.3,683.042,187.7,683.2173,179.1,683,170.5,682.9987,170.4995,683.2889,170.2055,683.1223,169.7223,683.2308,169.3529,683.7409,169.15,683.7322,168.7322,683.6408,168.5114,684.1507,168.7425,684.4657,168.503,684.7587,168.2104,685.1013,168.0375,685.5,168" style="stroke:#000000;stroke-width:0.5;"/><polygon fill="#ADD1B2" points="709.0608,186.6756,707.4484,188.8788,705.5412,192.1057,702.8136,194.2804,699.9474,195.4696,697.662,195.5728,694.7247,194.0855,691.9532,193.1139,689.8495,191.1412,688.7461,188.8828,688.0917,187.0845,687.4506,184.7357,686.41,182.7145,687.2096,180.741,687.9102,178.5792,690.5393,176.8695,692.389,174.6511,694.6784,173.9144,697.4001,173.2801,700.8904,173.657,702.8021,174.5585,705.0247,174.9672,707.7272,177.736,708.6693,180.659,709.0786,182.6534,708.615,185.9399" style="stroke:#181818;stroke-width:1.0;"/><path d="M700.7656,179.875 Q700.9219,179.6563 701.1094,179.5469 Q701.2969,179.4375 701.5156,179.4375 Q701.8906,179.4375 702.125,179.6953 Q702.3594,179.9531 702.3594,180.5625 L702.3594,182.0156 Q702.3594,182.625 702.125,182.8906 Q701.8906,183.1563 701.5156,183.1563 Q701.1719,183.1563 700.9688,182.9531 Q700.7656,182.7656 700.6563,182.25 Q700.6094,181.8906 700.4219,181.7031 Q700.0938,181.3281 699.4844,181.1094 Q698.875,180.8906 698.25,180.8906 Q697.4844,180.8906 696.8516,181.2188 Q696.2188,181.5469 695.7266,182.2969 Q695.2344,183.0469 695.2344,184.0781 L695.2344,185.1719 Q695.2344,186.4063 696.125,187.2266 Q697.0156,188.0469 698.6094,188.0469 Q699.5469,188.0469 700.2031,187.7969 Q700.5938,187.6406 701.0156,187.2031 Q701.2813,186.9375 701.4297,186.8594 Q701.5781,186.7813 701.7813,186.7813 Q702.1094,186.7813 702.3672,187.0391 Q702.625,187.2969 702.625,187.6406 Q702.625,187.9844 702.2813,188.3906 Q701.7813,188.9688 700.9844,189.2969 Q699.9063,189.75 698.6094,189.75 Q697.0938,189.75 695.8906,189.125 Q694.9063,188.625 694.2188,187.5547 Q693.5313,186.4844 693.5313,185.2031 L693.5313,184.0469 Q693.5313,182.7188 694.1484,181.5703 Q694.7656,180.4219 695.8594,179.8047 Q696.9531,179.1875 698.1875,179.1875 Q698.9219,179.1875 699.5703,179.3516 Q700.2188,179.5156 700.7656,179.875 Z " fill="#000000"/><text fill="#000000" font-family="sans-serif" font-size="14" lengthAdjust="spacing" textLength="94" x="712" y="189.7285">FilleAssembly2</text><path d="M684,200 L684,200.2802 L694.3333,199.4476 L704.6667,200.2577 L715,200.5329 L725.3333,199.0488 L735.6667,199.8964 L746,199.4313 L756.3333,199.4887 L766.6667,199.9091 L777,199.0782 L787.3333,200.7382 L797.6667,199.1596 L808,200 " fill="#A9D18E" style="stroke:#000000;stroke-width:0.5;"/><path d="M684,208 L684,208.2802 L694.3333,207.4476 L704.6667,208.2577 L715,208.5329 L725.3333,207.0488 L735.6667,207.8964 L746,207.4313 L756.3333,207.4887 L766.6667,207.9091 L777,207.0782 L787.3333,208.7382 L797.6667,207.1596 L808,208 " fill="#A9D18E" style="stroke:#000000;stroke-width:0.5;"/></g><!--class AutreClasseAssembly2--><g id="elem_AutreClasseAssembly2"><polygon fill="#A9D18E" points="473,168,473,168.2102,483.1176,167.5857,493.2353,168.1933,503.3529,168.3997,513.4706,167.2866,523.5882,167.9223,533.7059,167.5735,543.8235,167.6165,553.9412,167.9318,564.0588,167.3086,574.1765,168.5536,584.2941,167.3697,594.4118,167.8022,604.5294,168.4319,614.6471,167.9142,624.7647,168.0682,634.8824,167.9681,645,168,645.0228,168.055,645.3841,168.2201,645.7818,168.4733,646.1463,168.646,646.5009,168.795,646.7678,168.7322,646.8462,168.7647,647.057,169.1449,647.2769,169.5289,646.985,169.7009,647.5625,170.233,647.5,170.5,647.4012,170.5,647.6779,179.1,647.335,187.7,647.4772,196.3,647.7472,204.9,647.5,213.5,647.485,213.4938,647.386,213.867,647.3114,214.2503,647.1888,214.6138,646.913,214.9137,646.7678,215.2678,646.8044,215.3562,646.3412,215.2379,646.0969,215.6482,645.777,215.8759,645.4103,215.9905,645,216,645,216.613,634.8824,215.5169,624.7647,215.3478,614.6471,215.3786,604.5294,215.9411,594.4118,215.8035,584.2941,216.6814,574.1765,215.8253,564.0588,215.6569,553.9412,216.2283,543.8235,215.3332,533.7059,215.4809,523.5882,216.649,513.4706,216.4357,503.3529,216.7345,493.2353,215.6782,483.1176,216.3192,473,216,473.0753,216.1818,472.5862,215.7081,472.2807,215.6776,471.9554,215.5995,471.6689,215.6149,471.2322,215.2678,471.2309,215.2672,471.2282,214.9732,470.7688,214.49,470.5843,214.1207,470.8015,213.9178,470.5,213.5,470.261,213.5,470.6697,204.9,470.5689,196.3,470.4107,187.7,470.3821,179.1,470.5,170.5,470.6413,170.5585,470.5543,170.1083,470.9752,169.8684,470.7691,169.3688,471.2759,169.1645,471.2322,168.7322,471.294,168.8814,471.617,168.6612,471.9454,168.4539,472.3856,168.5167,472.7247,168.3354,473,168" style="stroke:#000000;stroke-width:0.5;"/><polygon fill="#ADD1B2" points="496.5608,186.6756,494.9484,188.8788,493.0412,192.1057,490.3136,194.2804,487.4474,195.4696,485.162,195.5728,482.2247,194.0855,479.4532,193.1139,477.3495,191.1412,476.2461,188.8828,475.5917,187.0845,474.9506,184.7357,473.91,182.7145,474.7096,180.741,475.4102,178.5792,478.0393,176.8695,479.889,174.6511,482.1784,173.9144,484.9001,173.2801,488.3904,173.657,490.3021,174.5585,492.5247,174.9672,495.2272,177.736,496.1693,180.659,496.5786,182.6534,496.115,185.9399" style="stroke:#181818;stroke-width:1.0;"/><path d="M488.2656,179.875 Q488.4219,179.6563 488.6094,179.5469 Q488.7969,179.4375 489.0156,179.4375 Q489.3906,179.4375 489.625,179.6953 Q489.8594,179.9531 489.8594,180.5625 L489.8594,182.0156 Q489.8594,182.625 489.625,182.8906 Q489.3906,183.1563 489.0156,183.1563 Q488.6719,183.1563 488.4688,182.9531 Q488.2656,182.7656 488.1563,182.25 Q488.1094,181.8906 487.9219,181.7031 Q487.5938,181.3281 486.9844,181.1094 Q486.375,180.8906 485.75,180.8906 Q484.9844,180.8906 484.3516,181.2188 Q483.7188,181.5469 483.2266,182.2969 Q482.7344,183.0469 482.7344,184.0781 L482.7344,185.1719 Q482.7344,186.4063 483.625,187.2266 Q484.5156,188.0469 486.1094,188.0469 Q487.0469,188.0469 487.7031,187.7969 Q488.0938,187.6406 488.5156,187.2031 Q488.7813,186.9375 488.9297,186.8594 Q489.0781,186.7813 489.2813,186.7813 Q489.6094,186.7813 489.8672,187.0391 Q490.125,187.2969 490.125,187.6406 Q490.125,187.9844 489.7813,188.3906 Q489.2813,188.9688 488.4844,189.2969 Q487.4063,189.75 486.1094,189.75 Q484.5938,189.75 483.3906,189.125 Q482.4063,188.625 481.7188,187.5547 Q481.0313,186.4844 481.0313,185.2031 L481.0313,184.0469 Q481.0313,182.7188 481.6484,181.5703 Q482.2656,180.4219 483.3594,179.8047 Q484.4531,179.1875 485.6875,179.1875 Q486.4219,179.1875 487.0703,179.3516 Q487.7188,179.5156 488.2656,179.875 Z " fill="#000000"/><text fill="#000000" font-family="sans-serif" font-size="14" lengthAdjust="spacing" textLength="145" x="499.5" y="189.7285">AutreClasseAssembly2</text><path d="M471.5,200 L471.5,200.2802 L481.2222,199.4476 L490.9444,200.2577 L500.6667,200.5329 L510.3889,199.0488 L520.1111,199.8964 L529.8333,199.4313 L539.5556,199.4887 L549.2778,199.9091 L559,199.0782 L568.7222,200.7382 L578.4444,199.1596 L588.1667,199.7363 L597.8889,200.5759 L607.6111,199.8856 L617.3333,200.091 L627.0556,199.9574 L636.7778,200.238 L646.5,200 " fill="#A9D18E" style="stroke:#000000;stroke-width:0.5;"/><path d="M471.5,208 L471.5,208.2802 L481.2222,207.4476 L490.9444,208.2577 L500.6667,208.5329 L510.3889,207.0488 L520.1111,207.8964 L529.8333,207.4313 L539.5556,207.4887 L549.2778,207.9091 L559,207.0782 L568.7222,208.7382 L578.4444,207.1596 L588.1667,207.7363 L597.8889,208.5759 L607.6111,207.8856 L617.3333,208.091 L627.0556,207.9574 L636.7778,208.238 L646.5,208 " fill="#A9D18E" style="stroke:#000000;stroke-width:0.5;"/></g><!--reverse link Mere to FilleAssembly1--><g id="link_Mere_FilleAssembly1"><path d="M324,126.03 L324.0934,126.03 L323.8159,134.402 L324.0859,142.774 L324.1776,151.146 L323.6829,159.518 L324,167.89 " fill="none" style="stroke:#181818;stroke-width:1.0;"/><polygon fill="none" points="324,108.03,324.0665,108.0522,322.669,111.5863,321.6611,115.2504,320.5264,118.8721,318.9744,122.3548,318,126.03,318,126.0041,320.4,125.8878,322.8,125.9022,325.2,126.0073,327.6,125.7995,330,126.03,330.1751,126.0884,328.6007,122.3636,327.5375,118.8092,326.5366,115.2755,325.1729,111.621,324,108.03" style="stroke:#181818;stroke-width:1.0;"/></g><!--reverse link Mere to FilleAssembly2--><g id="link_Mere_FilleAssembly2"><path d="M431.7567,84.7023 L431.7656,84.7953 L438.2966,85.143 L444.8796,86.036 L451.4456,86.7514 L457.956,86.883 L464.5434,87.8227 L464.5398,87.7884 L471.2427,88.3493 L477.964,89.0833 L484.6982,89.9378 L491.3882,90.3774 L498.1401,91.398 L498.1697,91.6423 L504.8029,91.9317 L511.5227,92.9342 L518.2529,94.0238 L524.9218,94.6071 L531.623,95.4567 L531.627,95.4868 L534.9031,95.8866 L538.1977,96.4232 L541.4833,96.8938 L544.786,97.4903 L548.0331,97.6763 L548.0764,97.9714 L551.2839,98.4452 L554.4636,98.7287 L557.6842,99.2908 L560.9066,99.866 L564.0684,100.0274 L564.0178,99.7109 L567.225,100.8224 L570.2655,100.8917 L573.4328,101.7534 L576.4696,101.7991 L579.6133,102.5136 L579.6081,102.4836 L582.6582,103.3632 L585.5853,103.5422 L588.585,104.1346 L591.5907,104.7618 L594.5525,105.1385 L594.5879,105.3201 L597.3958,105.6902 L600.2641,106.3707 L603.0347,106.5491 L605.951,107.4763 L608.7705,107.9057 L608.8223,108.1437 L611.4887,108.6813 L614.1809,109.3371 L616.7535,109.4437 L619.4138,109.9528 L622.1517,110.8186 L622.0856,110.5505 L624.6312,111.4057 L627.1024,111.9588 L629.6815,112.9501 L632.0763,113.1931 L634.5807,113.881 L634.5392,113.7343 L636.8806,114.6217 L639.0446,114.8819 L641.3347,115.5882 L643.7484,116.7308 L645.9421,117.0963 L646.003,117.2801 L648.0804,118.0805 L649.9684,118.3093 L652.0937,119.254 L654.1672,120.0428 L656.1203,120.4681 L656.0427,120.273 L657.8805,121.1349 L659.6929,121.9329 L661.5552,122.8564 L663.2234,123.2919 L665,124 L665.0966,124.1815 L668.275,125.5883 L671.6399,127.3454 L675.2773,129.6143 L678.413,130.941 L681.9534,133.0278 L682.0824,133.2136 L685.1996,135.3202 L688.2732,137.3639 L691.4452,139.5495 L694.845,142.0631 L697.9225,144.1125 L697.8376,144.0101 L700.9879,146.7157 L703.5609,148.7247 L706.7903,151.5259 L709.6501,153.881 L712.4103,156.1159 L712.485,156.1952 L714.9266,158.488 L717.6356,161.0646 L720.1031,163.3849 L722.4696,165.5979 L724.92,167.9 " fill="none" style="stroke:#181818;stroke-width:1.0;"/><polygon fill="none" points="413.83,83.08,413.8581,83.1442,417.2519,84.473,420.8102,86.1782,424.3149,87.7608,427.6436,88.9404,431.216,90.6779,431.1902,90.6755,431.2907,88.2748,431.5213,85.8859,431.8423,83.5051,431.8517,81.0962,432.2975,78.7267,432.3398,78.9063,428.5558,79.3929,424.8954,80.4039,421.25,81.4788,417.5169,82.1815,413.83,83.08" style="stroke:#181818;stroke-width:1.0;"/></g><!--SRC=[bOy_QyCm4CLtVOe3B-aGSBoqXIvA54E6JXqwo_8HYoYIEPq8_VVTAzkXTKfewKs7tjFltei7wtjD-WZ6wHWbCzacCUvCy4_s5Q4KySlIQT-Uo3AZ1wQ4OgQDt-5DG9wrDeSzXUJRJN21uBcpZ9CIg4MQNekoBCM747rswps2Z16FZNjPGQ5KVKPDs4SaX6AjrErsUnQ6wLFZhCagTw55AOt1J5_SZ8PC_WRKrZcS7P3tQdKteERMySh3-tBvmpu7oSI4cs7z3NUbLPLRrPUjBgvK_mjL_H6gkXRg4m00]--></g></svg>