<?xml version="1.0" encoding="us-ascii" standalone="no"?><svg xmlns="http://www.w3.org/2000/svg" xmlns:xlink="http://www.w3.org/1999/xlink" contentStyleType="text/css" height="206px" preserveAspectRatio="none" style="width:233px;height:206px;background:#FFFFFF;" version="1.1" viewBox="0 0 233 206" width="233px" zoomAndPan="magnify"><defs/><g><!--class Etudiant--><g id="elem_Etudiant"><rect codeLine="9" fill="#FFFFFF" height="65.6094" id="Etudiant" rx="2.5" ry="2.5" style="stroke:#000000;stroke-width:0.5;" width="219" x="7" y="7"/><ellipse cx="86.25" cy="23" fill="#ADD1B2" rx="11" ry="11" style="stroke:#181818;stroke-width:1.0;"/><path d="M89.0156,18.875 Q89.1719,18.6563 89.3594,18.5469 Q89.5469,18.4375 89.7656,18.4375 Q90.1406,18.4375 90.375,18.6953 Q90.6094,18.9531 90.6094,19.5625 L90.6094,21.0156 Q90.6094,21.625 90.375,21.8906 Q90.1406,22.1563 89.7656,22.1563 Q89.4219,22.1563 89.2188,21.9531 Q89.0156,21.7656 88.9063,21.25 Q88.8594,20.8906 88.6719,20.7031 Q88.3438,20.3281 87.7344,20.1094 Q87.125,19.8906 86.5,19.8906 Q85.7344,19.8906 85.1016,20.2188 Q84.4688,20.5469 83.9766,21.2969 Q83.4844,22.0469 83.4844,23.0781 L83.4844,24.1719 Q83.4844,25.4063 84.375,26.2266 Q85.2656,27.0469 86.8594,27.0469 Q87.7969,27.0469 88.4531,26.7969 Q88.8438,26.6406 89.2656,26.2031 Q89.5313,25.9375 89.6797,25.8594 Q89.8281,25.7813 90.0313,25.7813 Q90.3594,25.7813 90.6172,26.0391 Q90.875,26.2969 90.875,26.6406 Q90.875,26.9844 90.5313,27.3906 Q90.0313,27.9688 89.2344,28.2969 Q88.1563,28.75 86.8594,28.75 Q85.3438,28.75 84.1406,28.125 Q83.1563,27.625 82.4688,26.5547 Q81.7813,25.4844 81.7813,24.2031 L81.7813,23.0469 Q81.7813,21.7188 82.3984,20.5703 Q83.0156,19.4219 84.1094,18.8047 Q85.2031,18.1875 86.4375,18.1875 Q87.1719,18.1875 87.8203,18.3516 Q88.4688,18.5156 89.0156,18.875 Z " fill="#000000"/><text fill="#000000" font-family="sans-serif" font-size="14" lengthAdjust="spacing" textLength="52" x="106.75" y="28.7285">Etudiant</text><line style="stroke:#000000;stroke-width:0.5;" x1="8" x2="225" y1="39" y2="39"/><text fill="#000000" font-family="sans-serif" font-size="14" lengthAdjust="spacing" textLength="207" x="13" y="57.5332">-m_carteEtudiant : CarteEtudiant</text><line style="stroke:#000000;stroke-width:0.5;" x1="8" x2="225" y1="64.6094" y2="64.6094"/></g><!--class CarteEtudiant--><g id="elem_CarteEtudiant"><rect codeLine="12" fill="#FFFFFF" height="48" id="CarteEtudiant" rx="2.5" ry="2.5" style="stroke:#000000;stroke-width:0.5;" width="119" x="57" y="151"/><ellipse cx="72" cy="167" fill="#ADD1B2" rx="11" ry="11" style="stroke:#181818;stroke-width:1.0;"/><path d="M74.7656,162.875 Q74.9219,162.6563 75.1094,162.5469 Q75.2969,162.4375 75.5156,162.4375 Q75.8906,162.4375 76.125,162.6953 Q76.3594,162.9531 76.3594,163.5625 L76.3594,165.0156 Q76.3594,165.625 76.125,165.8906 Q75.8906,166.1563 75.5156,166.1563 Q75.1719,166.1563 74.9688,165.9531 Q74.7656,165.7656 74.6563,165.25 Q74.6094,164.8906 74.4219,164.7031 Q74.0938,164.3281 73.4844,164.1094 Q72.875,163.8906 72.25,163.8906 Q71.4844,163.8906 70.8516,164.2188 Q70.2188,164.5469 69.7266,165.2969 Q69.2344,166.0469 69.2344,167.0781 L69.2344,168.1719 Q69.2344,169.4063 70.125,170.2266 Q71.0156,171.0469 72.6094,171.0469 Q73.5469,171.0469 74.2031,170.7969 Q74.5938,170.6406 75.0156,170.2031 Q75.2813,169.9375 75.4297,169.8594 Q75.5781,169.7813 75.7813,169.7813 Q76.1094,169.7813 76.3672,170.0391 Q76.625,170.2969 76.625,170.6406 Q76.625,170.9844 76.2813,171.3906 Q75.7813,171.9688 74.9844,172.2969 Q73.9063,172.75 72.6094,172.75 Q71.0938,172.75 69.8906,172.125 Q68.9063,171.625 68.2188,170.5547 Q67.5313,169.4844 67.5313,168.2031 L67.5313,167.0469 Q67.5313,165.7188 68.1484,164.5703 Q68.7656,163.4219 69.8594,162.8047 Q70.9531,162.1875 72.1875,162.1875 Q72.9219,162.1875 73.5703,162.3516 Q74.2188,162.5156 74.7656,162.875 Z " fill="#000000"/><text fill="#000000" font-family="sans-serif" font-size="14" lengthAdjust="spacing" textLength="87" x="86" y="172.7285">CarteEtudiant</text><line style="stroke:#000000;stroke-width:0.5;" x1="58" x2="175" y1="183" y2="183"/><line style="stroke:#000000;stroke-width:0.5;" x1="58" x2="175" y1="191" y2="191"/></g><!--link Etudiant to CarteEtudiant--><g id="link_Etudiant_CarteEtudiant"><path codeLine="7" d="M116.5,73.2 C116.5,97.18 116.5,123.37 116.5,144.85 " fill="none" id="Etudiant-to-CarteEtudiant" style="stroke:#181818;stroke-width:1.0;"/><polygon fill="#181818" points="116.5,150.85,120.5,141.85,116.5,145.85,112.5,141.85,116.5,150.85" style="stroke:#181818;stroke-width:1.0;"/><text fill="#000000" font-family="sans-serif" font-size="13" lengthAdjust="spacing" textLength="49" x="117.5" y="117.4951">poss&#232;de</text><text fill="#000000" font-family="sans-serif" font-size="13" lengthAdjust="spacing" textLength="7" x="108.8766" y="94.1">1</text><text fill="#000000" font-family="sans-serif" font-size="13" lengthAdjust="spacing" textLength="7" x="108.6031" y="140.1517">1</text></g><!--SRC=[NOsn2i8m48RtUueZpe6uEWXQ79mT72KcXuQsIRbS5alVn_VmnIm62lMMW_lk_x_SXZXOjZswpkPy4E5mBq9db-8bl0WDvFKBZe3p7Arh7vnAz4tg4kFr6OGgIUo9wtLZZ849u2J51ni5rLQXrllVRYmBBMI7QaWvVzwU541LBR0wDVOtznTQbSog6bnNZp1z0G00]--></g></svg>