<?xml version="1.0" encoding="UTF-8" standalone="no"?><svg xmlns="http://www.w3.org/2000/svg" xmlns:xlink="http://www.w3.org/1999/xlink" contentScriptType="application/ecmascript" contentStyleType="text/css" height="205px" preserveAspectRatio="none" style="width:204px;height:205px;" version="1.1" viewBox="0 0 204 205" width="204px" zoomAndPan="magnify"><defs><filter height="300%" id="f1e7mj1dwut4x4" width="300%" x="-1" y="-1"><feGaussianBlur result="blurOut" stdDeviation="2.0"/><feColorMatrix in="blurOut" result="blurOut2" type="matrix" values="0 0 0 0 0 0 0 0 0 0 0 0 0 0 0 0 0 0 .4 0"/><feOffset dx="4.0" dy="4.0" in="blurOut2" result="blurOut3"/><feBlend in="SourceGraphic" in2="blurOut3" mode="normal"/></filter></defs><g><!--class Etudiant--><rect fill="#FFFFFF" filter="url(#f1e7mj1dwut4x4)" height="60.9551" id="Etudiant" style="stroke: #000000; stroke-width: 1.5;" width="187" x="6" y="8"/><ellipse cx="71.75" cy="24" fill="#ADD1B2" rx="11" ry="11" style="stroke: #000000; stroke-width: 1.0;"/><path d="M74.2231,30.1431 Q73.6421,30.4419 73.0029,30.5913 Q72.3638,30.7407 71.6582,30.7407 Q69.1514,30.7407 67.8315,29.0889 Q66.5117,27.437 66.5117,24.3159 Q66.5117,21.1865 67.8315,19.5347 Q69.1514,17.8828 71.6582,17.8828 Q72.3638,17.8828 73.0112,18.0322 Q73.6587,18.1816 74.2231,18.4805 L74.2231,21.2031 Q73.5923,20.6221 72.9988,20.3523 Q72.4053,20.0825 71.7744,20.0825 Q70.4297,20.0825 69.7449,21.1492 Q69.0601,22.2158 69.0601,24.3159 Q69.0601,26.4077 69.7449,27.4744 Q70.4297,28.541 71.7744,28.541 Q72.4053,28.541 72.9988,28.2712 Q73.5923,28.0015 74.2231,27.4204 Z "/><text fill="#000000" font-family="sans-serif" font-size="12" lengthAdjust="spacingAndGlyphs" textLength="47" x="92.25" y="28.5352">Etudiant</text><line style="stroke: #000000; stroke-width: 1.5;" x1="7" x2="192" y1="40" y2="40"/><text fill="#000000" font-family="sans-serif" font-size="11" lengthAdjust="spacingAndGlyphs" textLength="175" x="12" y="54.6348">-m_carteEtudiant : CarteEtudiant</text><line style="stroke: #000000; stroke-width: 1.5;" x1="7" x2="192" y1="60.9551" y2="60.9551"/><!--class CarteEtudiant--><rect fill="#FFFFFF" filter="url(#f1e7mj1dwut4x4)" height="48" id="CarteEtudiant" style="stroke: #000000; stroke-width: 1.5;" width="110" x="44.5" y="146"/><ellipse cx="59.5" cy="162" fill="#ADD1B2" rx="11" ry="11" style="stroke: #000000; stroke-width: 1.0;"/><path d="M61.9731,168.1431 Q61.3921,168.4419 60.7529,168.5913 Q60.1138,168.7407 59.4082,168.7407 Q56.9014,168.7407 55.5815,167.0889 Q54.2617,165.437 54.2617,162.3159 Q54.2617,159.1865 55.5815,157.5347 Q56.9014,155.8828 59.4082,155.8828 Q60.1138,155.8828 60.7612,156.0322 Q61.4087,156.1816 61.9731,156.4805 L61.9731,159.2031 Q61.3423,158.6221 60.7488,158.3523 Q60.1553,158.0825 59.5244,158.0825 Q58.1797,158.0825 57.4949,159.1492 Q56.8101,160.2158 56.8101,162.3159 Q56.8101,164.4077 57.4949,165.4744 Q58.1797,166.541 59.5244,166.541 Q60.1553,166.541 60.7488,166.2712 Q61.3423,166.0015 61.9731,165.4204 Z "/><text fill="#000000" font-family="sans-serif" font-size="12" lengthAdjust="spacingAndGlyphs" textLength="78" x="73.5" y="166.5352">CarteEtudiant</text><line style="stroke: #000000; stroke-width: 1.5;" x1="45.5" x2="153.5" y1="178" y2="178"/><line style="stroke: #000000; stroke-width: 1.5;" x1="45.5" x2="153.5" y1="186" y2="186"/><!--link Etudiant to CarteEtudiant--><path d="M99.5,69.21 C99.5,90.69 99.5,119.53 99.5,140.68 " fill="none" id="Etudiant-&gt;CarteEtudiant" style="stroke: #A80036; stroke-width: 1.0;"/><polygon fill="#A80036" points="99.5,145.88,103.5,136.88,99.5,140.88,95.5,136.88,99.5,145.88" style="stroke: #A80036; stroke-width: 1.0;"/><text fill="#000000" font-family="sans-serif" font-size="13" lengthAdjust="spacingAndGlyphs" textLength="52" x="100.5" y="112.5684">possède</text><text fill="#000000" font-family="sans-serif" font-size="13" lengthAdjust="spacingAndGlyphs" textLength="8" x="90.675" y="89.6958">1</text><text fill="#000000" font-family="sans-serif" font-size="13" lengthAdjust="spacingAndGlyphs" textLength="8" x="90.475" y="135.3855">1</text><!--
@startuml EtudiantCarteAssociationSimple
skinparam classAttributeIconSize 0
skinparam class {
    BackgroundColor White
    BorderColor #000
}

Etudiant "1" - -> "1" CarteEtudiant : "possède"

class Etudiant {
    - m_carteEtudiant : CarteEtudiant
}
class CarteEtudiant {
}
@enduml

PlantUML version 1.2019.09(Mon Aug 26 12:19:51 EDT 2019)
(GPL source distribution)
Java Runtime: OpenJDK Runtime Environment
JVM: OpenJDK 64-Bit Server VM
Java Version: 13.0.2+8
Operating System: Mac OS X
OS Version: 10.15.2
Default Encoding: UTF-8
Language: fr
Country: CA
--></g></svg>