<?xml version="1.0" encoding="UTF-8" standalone="no"?><svg xmlns="http://www.w3.org/2000/svg" xmlns:xlink="http://www.w3.org/1999/xlink" contentScriptType="application/ecmascript" contentStyleType="text/css" height="261px" preserveAspectRatio="none" style="width:204px;height:261px;" version="1.1" viewBox="0 0 204 261" width="204px" zoomAndPan="magnify"><defs><filter height="300%" id="f10l4uk341mq21" width="300%" x="-1" y="-1"><feGaussianBlur result="blurOut" stdDeviation="2.0"/><feColorMatrix in="blurOut" result="blurOut2" type="matrix" values="0 0 0 0 0 0 0 0 0 0 0 0 0 0 0 0 0 0 .4 0"/><feOffset dx="4.0" dy="4.0" in="blurOut2" result="blurOut3"/><feBlend in="SourceGraphic" in2="blurOut3" mode="normal"/></filter></defs><g><!--class Etudiant--><rect fill="#FFFFFF" filter="url(#f10l4uk341mq21)" height="60.9551" id="Etudiant" style="stroke: #000000; stroke-width: 1.5;" width="187" x="6" y="8"/><ellipse cx="71.75" cy="24" fill="#ADD1B2" rx="11" ry="11" style="stroke: #000000; stroke-width: 1.0;"/><path d="M74.2231,30.1431 Q73.6421,30.4419 73.0029,30.5913 Q72.3638,30.7407 71.6582,30.7407 Q69.1514,30.7407 67.8315,29.0889 Q66.5117,27.437 66.5117,24.3159 Q66.5117,21.1865 67.8315,19.5347 Q69.1514,17.8828 71.6582,17.8828 Q72.3638,17.8828 73.0112,18.0322 Q73.6587,18.1816 74.2231,18.4805 L74.2231,21.2031 Q73.5923,20.6221 72.9988,20.3523 Q72.4053,20.0825 71.7744,20.0825 Q70.4297,20.0825 69.7449,21.1492 Q69.0601,22.2158 69.0601,24.3159 Q69.0601,26.4077 69.7449,27.4744 Q70.4297,28.541 71.7744,28.541 Q72.4053,28.541 72.9988,28.2712 Q73.5923,28.0015 74.2231,27.4204 Z "/><text fill="#000000" font-family="sans-serif" font-size="12" lengthAdjust="spacingAndGlyphs" textLength="47" x="92.25" y="28.5352">Etudiant</text><line style="stroke: #000000; stroke-width: 1.5;" x1="7" x2="192" y1="40" y2="40"/><text fill="#000000" font-family="sans-serif" font-size="11" lengthAdjust="spacingAndGlyphs" textLength="175" x="12" y="54.6348">-m_carteEtudiant : CarteEtudiant</text><line style="stroke: #000000; stroke-width: 1.5;" x1="7" x2="192" y1="60.9551" y2="60.9551"/><!--class CarteEtudiant--><rect fill="#FFFFFF" filter="url(#f10l4uk341mq21)" height="60.9551" id="CarteEtudiant" style="stroke: #000000; stroke-width: 1.5;" width="131" x="34" y="190"/><ellipse cx="58.45" cy="206" fill="#ADD1B2" rx="11" ry="11" style="stroke: #000000; stroke-width: 1.0;"/><path d="M60.9231,212.1431 Q60.3421,212.4419 59.7029,212.5913 Q59.0638,212.7407 58.3582,212.7407 Q55.8514,212.7407 54.5315,211.0889 Q53.2117,209.437 53.2117,206.3159 Q53.2117,203.1865 54.5315,201.5347 Q55.8514,199.8828 58.3582,199.8828 Q59.0638,199.8828 59.7112,200.0322 Q60.3587,200.1816 60.9231,200.4805 L60.9231,203.2031 Q60.2923,202.6221 59.6988,202.3523 Q59.1053,202.0825 58.4744,202.0825 Q57.1297,202.0825 56.4449,203.1492 Q55.7601,204.2158 55.7601,206.3159 Q55.7601,208.4077 56.4449,209.4744 Q57.1297,210.541 58.4744,210.541 Q59.1053,210.541 59.6988,210.2712 Q60.2923,210.0015 60.9231,209.4204 Z "/><text fill="#000000" font-family="sans-serif" font-size="12" lengthAdjust="spacingAndGlyphs" textLength="78" x="74.55" y="210.5352">CarteEtudiant</text><line style="stroke: #000000; stroke-width: 1.5;" x1="35" x2="164" y1="222" y2="222"/><text fill="#000000" font-family="sans-serif" font-size="11" lengthAdjust="spacingAndGlyphs" textLength="119" x="40" y="236.6348">-m_etudiant : Etudiant</text><line style="stroke: #000000; stroke-width: 1.5;" x1="35" x2="164" y1="242.9551" y2="242.9551"/><!--link Etudiant to CarteEtudiant--><path d="M99.5,69.22 C99.5,102.57 99.5,156.36 99.5,189.73 " fill="none" id="Etudiant-CarteEtudiant" style="stroke: #A80036; stroke-width: 1.0;"/><text fill="#000000" font-family="sans-serif" font-size="13" lengthAdjust="spacingAndGlyphs" textLength="8" x="90.675" y="89.7079">1</text><text fill="#000000" font-family="sans-serif" font-size="13" lengthAdjust="spacingAndGlyphs" textLength="8" x="90.675" y="179.4418">1</text><!--
@startuml EtudiantCarteAssociationSimple
skinparam classAttributeIconSize 0
skinparam class {
    BackgroundColor White
    BorderColor #000
}

Etudiant "1" - - - "1" CarteEtudiant

class Etudiant {
    - m_carteEtudiant : CarteEtudiant
}
class CarteEtudiant {
    - m_etudiant : Etudiant
}
@enduml

PlantUML version 1.2019.09(Mon Aug 26 12:19:51 EDT 2019)
(GPL source distribution)
Java Runtime: OpenJDK Runtime Environment
JVM: OpenJDK 64-Bit Server VM
Java Version: 13.0.2+8
Operating System: Mac OS X
OS Version: 10.15.2
Default Encoding: UTF-8
Language: fr
Country: CA
--></g></svg>