<?xml version="1.0" encoding="us-ascii" standalone="no"?><svg xmlns="http://www.w3.org/2000/svg" xmlns:xlink="http://www.w3.org/1999/xlink" contentStyleType="text/css" height="266px" preserveAspectRatio="none" style="width:233px;height:266px;background:#FFFFFF;" version="1.1" viewBox="0 0 233 266" width="233px" zoomAndPan="magnify"><defs/><g><!--class Etudiant--><g id="elem_Etudiant"><rect codeLine="9" fill="#FFFFFF" height="65.6094" id="Etudiant" rx="2.5" ry="2.5" style="stroke:#000000;stroke-width:0.5;" width="219" x="7" y="7"/><ellipse cx="86.25" cy="23" fill="#ADD1B2" rx="11" ry="11" style="stroke:#181818;stroke-width:1.0;"/><path d="M89.0156,18.875 Q89.1719,18.6563 89.3594,18.5469 Q89.5469,18.4375 89.7656,18.4375 Q90.1406,18.4375 90.375,18.6953 Q90.6094,18.9531 90.6094,19.5625 L90.6094,21.0156 Q90.6094,21.625 90.375,21.8906 Q90.1406,22.1563 89.7656,22.1563 Q89.4219,22.1563 89.2188,21.9531 Q89.0156,21.7656 88.9063,21.25 Q88.8594,20.8906 88.6719,20.7031 Q88.3438,20.3281 87.7344,20.1094 Q87.125,19.8906 86.5,19.8906 Q85.7344,19.8906 85.1016,20.2188 Q84.4688,20.5469 83.9766,21.2969 Q83.4844,22.0469 83.4844,23.0781 L83.4844,24.1719 Q83.4844,25.4063 84.375,26.2266 Q85.2656,27.0469 86.8594,27.0469 Q87.7969,27.0469 88.4531,26.7969 Q88.8438,26.6406 89.2656,26.2031 Q89.5313,25.9375 89.6797,25.8594 Q89.8281,25.7813 90.0313,25.7813 Q90.3594,25.7813 90.6172,26.0391 Q90.875,26.2969 90.875,26.6406 Q90.875,26.9844 90.5313,27.3906 Q90.0313,27.9688 89.2344,28.2969 Q88.1563,28.75 86.8594,28.75 Q85.3438,28.75 84.1406,28.125 Q83.1563,27.625 82.4688,26.5547 Q81.7813,25.4844 81.7813,24.2031 L81.7813,23.0469 Q81.7813,21.7188 82.3984,20.5703 Q83.0156,19.4219 84.1094,18.8047 Q85.2031,18.1875 86.4375,18.1875 Q87.1719,18.1875 87.8203,18.3516 Q88.4688,18.5156 89.0156,18.875 Z " fill="#000000"/><text fill="#000000" font-family="sans-serif" font-size="14" lengthAdjust="spacing" textLength="52" x="106.75" y="28.7285">Etudiant</text><line style="stroke:#000000;stroke-width:0.5;" x1="8" x2="225" y1="39" y2="39"/><text fill="#000000" font-family="sans-serif" font-size="14" lengthAdjust="spacing" textLength="207" x="13" y="57.5332">-m_carteEtudiant : CarteEtudiant</text><line style="stroke:#000000;stroke-width:0.5;" x1="8" x2="225" y1="64.6094" y2="64.6094"/></g><!--class CarteEtudiant--><g id="elem_CarteEtudiant"><rect codeLine="12" fill="#FFFFFF" height="65.6094" id="CarteEtudiant" rx="2.5" ry="2.5" style="stroke:#000000;stroke-width:0.5;" width="151" x="41" y="194"/><ellipse cx="70.4" cy="210" fill="#ADD1B2" rx="11" ry="11" style="stroke:#181818;stroke-width:1.0;"/><path d="M73.1656,205.875 Q73.3219,205.6563 73.5094,205.5469 Q73.6969,205.4375 73.9156,205.4375 Q74.2906,205.4375 74.525,205.6953 Q74.7594,205.9531 74.7594,206.5625 L74.7594,208.0156 Q74.7594,208.625 74.525,208.8906 Q74.2906,209.1563 73.9156,209.1563 Q73.5719,209.1563 73.3688,208.9531 Q73.1656,208.7656 73.0563,208.25 Q73.0094,207.8906 72.8219,207.7031 Q72.4938,207.3281 71.8844,207.1094 Q71.275,206.8906 70.65,206.8906 Q69.8844,206.8906 69.2516,207.2188 Q68.6188,207.5469 68.1266,208.2969 Q67.6344,209.0469 67.6344,210.0781 L67.6344,211.1719 Q67.6344,212.4063 68.525,213.2266 Q69.4156,214.0469 71.0094,214.0469 Q71.9469,214.0469 72.6031,213.7969 Q72.9938,213.6406 73.4156,213.2031 Q73.6813,212.9375 73.8297,212.8594 Q73.9781,212.7813 74.1813,212.7813 Q74.5094,212.7813 74.7672,213.0391 Q75.025,213.2969 75.025,213.6406 Q75.025,213.9844 74.6813,214.3906 Q74.1813,214.9688 73.3844,215.2969 Q72.3063,215.75 71.0094,215.75 Q69.4938,215.75 68.2906,215.125 Q67.3063,214.625 66.6188,213.5547 Q65.9313,212.4844 65.9313,211.2031 L65.9313,210.0469 Q65.9313,208.7188 66.5484,207.5703 Q67.1656,206.4219 68.2594,205.8047 Q69.3531,205.1875 70.5875,205.1875 Q71.3219,205.1875 71.9703,205.3516 Q72.6188,205.5156 73.1656,205.875 Z " fill="#000000"/><text fill="#000000" font-family="sans-serif" font-size="14" lengthAdjust="spacing" textLength="87" x="87.6" y="215.7285">CarteEtudiant</text><line style="stroke:#000000;stroke-width:0.5;" x1="42" x2="191" y1="226" y2="226"/><text fill="#000000" font-family="sans-serif" font-size="14" lengthAdjust="spacing" textLength="139" x="47" y="244.5332">-m_etudiant : Etudiant</text><line style="stroke:#000000;stroke-width:0.5;" x1="42" x2="191" y1="251.6094" y2="251.6094"/></g><!--link Etudiant to CarteEtudiant--><g id="link_Etudiant_CarteEtudiant"><path codeLine="7" d="M116.5,73.22 C116.5,107.08 116.5,160.01 116.5,193.83 " fill="none" id="Etudiant-CarteEtudiant" style="stroke:#181818;stroke-width:1.0;"/><text fill="#000000" font-family="sans-serif" font-size="13" lengthAdjust="spacing" textLength="7" x="108.8766" y="94.1235">1</text><text fill="#000000" font-family="sans-serif" font-size="13" lengthAdjust="spacing" textLength="7" x="108.7781" y="182.9103">1</text></g><!--SRC=[NOqn3i8m34Ltdy8gSwImia75mCp0M9dKWgXjWXnd0VNk80AqnOkb_z-pK-V3ZOG6T3sbj5KLVyxA1nV3qTyPBQGbWW_0r-p8THU9ERHrxAFWwUgLInEbPIdfobeB8y1US-ifA5Rh2eqnxrsJA7yRW7BzHvOt1eV6pJdS_7dZHroaCvidSNAU]--></g></svg>