<?xml version="1.0" encoding="us-ascii" standalone="no"?><svg xmlns="http://www.w3.org/2000/svg" xmlns:xlink="http://www.w3.org/1999/xlink" contentStyleType="text/css" height="239px" preserveAspectRatio="none" style="width:842px;height:239px;background:#FFFFFF;" version="1.1" viewBox="0 0 842 239" width="842px" zoomAndPan="magnify"><defs/><g><!--cluster Assembly1--><g id="cluster_Assembly1"><path d="M8.5,6 L8.5,6.5605 L17.875,4.8951 L27.25,6.5154 L36.625,7.0658 L46,4.0976 L55.375,5.7928 L64.75,4.8627 L74.125,4.9773 L83.5,6 L86,8.5 L85.9425,8.4809 L86.8167,12.5284 L89.2671,17.0986 L89.6682,20.9893 L91.4331,25.3322 L93,29.6094 L93,30.7612 L103.1324,29.3806 L113.2647,29.7913 L123.3971,29.5242 L133.5294,30.0854 L143.6618,30.2471 L153.7941,31.1712 L163.9265,31.3989 L174.0588,31.4207 L184.1912,30.2884 L194.3235,30.8456 L204.4559,31.482 L214.5882,27.6862 L224.7206,31.4187 L234.8529,28.8187 L244.9853,31.0329 L255.1176,28.2893 L265.25,29.4267 L275.3824,31.587 L285.5147,29.4794 L295.6471,29.8902 L305.7794,30.5124 L315.9118,30.7193 L326.0441,29.599 L336.1765,30.3753 L346.3088,28.0829 L356.4412,30.3677 L366.5735,31.0712 L376.7059,30.7948 L386.8382,31.2441 L396.9706,28.3212 L407.1029,27.8702 L417.2353,27.9523 L427.3676,29.4524 L437.5,29.6094 L440,32.1094 L439.4759,32.1094 L441.8171,41.9789 L439.5342,51.8484 L439.0852,61.718 L440.6087,71.5875 L438.2218,81.457 L438.6157,91.3266 L441.7305,101.1961 L441.1618,111.0656 L441.9586,120.9352 L439.1419,130.8047 L440.8512,140.6742 L441.5745,150.5438 L438.7403,160.4133 L439.7444,170.2828 L440.336,180.1523 L441.738,190.0219 L439.9888,199.8914 L441.2335,209.7609 L438.5232,219.6305 L440,229.5 L437.5,232 L437.5,230.194 L427.5233,233.343 L417.5465,230.0882 L407.5698,233.3572 L397.593,232.551 L387.6163,231.2856 L377.6395,231.0566 L367.6628,233.2234 L357.686,231.2018 L347.7093,233.5783 L337.7326,230.526 L327.7558,233.6465 L317.7791,233.2915 L307.8023,232.6532 L297.8256,232.1259 L287.8488,233.9376 L277.8721,233.6362 L267.8953,232.4513 L257.9186,232.7152 L247.9419,231.6526 L237.9651,233.9105 L227.9884,232.413 L218.0116,232.4602 L208.0349,230.3777 L198.0581,230.9194 L188.0814,233.4153 L178.1047,233.146 L168.1279,231.8855 L158.1512,231.1409 L148.1744,231.4162 L138.1977,230.1702 L128.2209,233.106 L118.2442,233.9722 L108.2674,233.4037 L98.2907,233.8532 L88.314,231.6354 L78.3372,232.2326 L68.3605,230.9664 L58.3837,232.7574 L48.407,232.658 L38.4302,233.473 L28.4535,231.3876 L18.4767,231.6416 L8.5,232 L6,229.5 L7.1826,229.5 L7.5129,219.4545 L4.6332,209.4091 L5.483,199.3636 L6.398,189.3182 L4.3711,179.2727 L6.9424,169.2273 L6.688,159.1818 L5.7313,149.1364 L6.3793,139.0909 L7.9431,129.0455 L5.1657,119 L6.84,108.9545 L6.7617,98.9091 L6.3087,88.8636 L6.3758,78.8182 L6.3026,68.7727 L4.3356,58.7273 L4.9312,48.6818 L4.7692,38.6364 L6.1702,28.5909 L6.235,18.5455 L6,8.5 L8.5,6 " fill="#DDDDFF" style="stroke:#000000;stroke-width:1.5;"/><path d="M6,29.6094 L6,29.8896 L15.6667,29.0569 L25.3333,29.8671 L35,30.1423 L44.6667,28.6582 L54.3333,29.5058 L64,29.0407 L73.6667,29.098 L83.3333,29.5185 L93,29.6094 " fill="#DDDDFF" style="stroke:#000000;stroke-width:1.5;"/><text fill="#000000" font-family="sans-serif" font-size="14" font-weight="bold" lengthAdjust="spacing" textLength="74" x="10" y="22.5332">Assembly1</text></g><!--cluster Assembly2--><g id="cluster_Assembly2"><path d="M466.5,132 L466.5,132.5605 L475.875,130.8951 L485.25,132.5154 L494.625,133.0658 L504,130.0976 L513.375,131.7928 L522.75,130.8627 L532.125,130.9773 L541.5,132 L544,134.5 L543.9425,134.4809 L544.8167,138.5284 L547.2671,143.0986 L547.6682,146.9893 L549.4331,151.3322 L551,155.6094 L551,156.7612 L561.0536,155.3806 L571.1071,155.7913 L581.1607,155.5242 L591.2143,156.0854 L601.2679,156.2471 L611.3214,157.1712 L621.375,157.3989 L631.4286,157.4207 L641.4821,156.2884 L651.5357,156.8456 L661.5893,157.482 L671.6429,153.6862 L681.6964,157.4187 L691.75,154.8187 L701.8036,157.0329 L711.8571,154.2893 L721.9107,155.4267 L731.9643,157.587 L742.0179,155.4794 L752.0714,155.8902 L762.125,156.5124 L772.1786,156.7193 L782.2321,155.599 L792.2857,156.3753 L802.3393,154.0829 L812.3929,156.3677 L822.4464,157.0712 L832.5,155.6094 L835,158.1094 L836.1854,158.1094 L836.6347,168.308 L833.7118,178.5067 L833.2608,188.7054 L833.3429,198.904 L834.843,209.1027 L834.4759,219.3013 L835,229.5 L832.5,232 L832.5,233.8171 L822.6081,231.5342 L812.7162,231.0852 L802.8243,232.6087 L792.9324,230.2218 L783.0405,230.6157 L773.1486,233.7305 L763.2568,233.1618 L753.3649,233.9586 L743.473,231.1419 L733.5811,232.8512 L723.6892,233.5745 L713.7973,230.7403 L703.9054,231.7444 L694.0135,232.336 L684.1216,233.738 L674.2297,231.9888 L664.3378,233.2335 L654.4459,230.5232 L644.5541,230.194 L634.6622,233.343 L624.7703,230.0882 L614.8784,233.3572 L604.9865,232.551 L595.0946,231.2856 L585.2027,231.0566 L575.3108,233.2234 L565.4189,231.2018 L555.527,233.5783 L545.6351,230.526 L535.7432,233.6465 L525.8514,233.2915 L515.9595,232.6532 L506.0676,232.1259 L496.1757,233.9376 L486.2838,233.6362 L476.3919,232.4513 L466.5,232 L464,229.5 L464.7152,229.5 L463.6526,220 L465.9105,210.5 L464.413,201 L464.4602,191.5 L462.3777,182 L462.9194,172.5 L465.4153,163 L465.146,153.5 L463.8855,144 L464,134.5 L466.5,132 " fill="#DDFFFF" style="stroke:#000000;stroke-width:1.5;"/><path d="M464,155.6094 L464,155.8896 L473.6667,155.0569 L483.3333,155.8671 L493,156.1423 L502.6667,154.6582 L512.3333,155.5058 L522,155.0407 L531.6667,155.098 L541.3333,155.5185 L551,155.6094 " fill="#DDFFFF" style="stroke:#000000;stroke-width:1.5;"/><text fill="#000000" font-family="sans-serif" font-size="14" font-weight="bold" lengthAdjust="spacing" textLength="74" x="468" y="148.5332">Assembly2</text></g><!--class Mere--><g id="elem_Mere"><polygon fill="#BDD7EE" points="237,42,237,42.2102,247.2222,41.5857,257.4444,42.1933,267.6667,42.3997,277.8889,41.2866,288.1111,41.9223,298.3333,41.5735,308.5556,41.6165,318.7778,41.9318,329,41.3086,339.2222,42.5536,349.4444,41.3697,359.6667,41.8022,369.8889,42.4319,380.1111,41.9142,390.3333,42.0682,400.5556,41.9681,410.7778,42.1785,421,42,421.0305,42.0736,421.4283,42.3268,421.7927,42.4996,422.1473,42.6485,422.4467,42.6642,422.7678,42.7322,422.9105,42.7914,423.1305,43.1754,422.8386,43.3473,423.4161,43.8794,423.2622,44.1086,423.5,44.5,424.0338,44.5,423.005,54.6016,423.4315,64.7031,424.2416,74.8047,423.4513,84.9063,423.6053,95.0078,423.5,105.1094,423.6043,105.1526,423.4817,105.516,423.2059,105.816,423.1491,106.2067,422.7379,106.4506,422.7678,106.8771,422.804,106.9647,422.4841,107.1924,422.1174,107.3069,421.7853,107.5053,421.2919,107.3142,421,107.6094,421,106.9572,410.7778,106.988,400.5556,107.5505,390.3333,107.4128,380.1111,108.2908,369.8889,107.4347,359.6667,107.2663,349.4444,107.8376,339.2222,106.9425,329,107.0902,318.7778,108.2583,308.5556,108.045,298.3333,108.3439,288.1111,107.2876,277.8889,107.9286,267.6667,108.1998,257.4444,107.137,247.2222,107.5135,237,107.6094,237.0161,107.6482,236.7296,107.6636,236.2924,107.3152,235.9983,107.3125,235.5151,106.853,235.2322,106.8771,235.0237,106.7908,235.2409,106.5878,234.7186,106.0786,234.9496,105.8814,234.7101,105.4893,234.5,105.1094,234.2321,105.1094,234.1462,95.0078,234.9588,84.9063,234.2007,74.8047,235.0919,64.7031,233.9473,54.6016,234.5,44.5,234.6901,44.5788,234.7956,44.2082,234.8683,43.8241,234.9539,43.4454,235.3096,43.1785,235.2322,42.7322,235.3105,42.9212,235.6074,42.6379,235.9736,42.5219,236.2763,42.2528,236.7378,42.3671,237,42" style="stroke:#000000;stroke-width:0.5;"/><polygon fill="#ADD1B2" points="319.8108,60.6756,318.1984,62.8788,316.2912,66.1057,313.5636,68.2804,310.6974,69.4696,308.412,69.5728,305.4747,68.0855,302.7032,67.1139,300.5995,65.1412,299.4961,62.8828,298.8417,61.0845,298.2006,58.7357,297.16,56.7145,297.9596,54.741,298.6602,52.5792,301.2893,50.8695,303.139,48.6511,305.4284,47.9144,308.1501,47.2801,311.6404,47.657,313.5521,48.5585,315.7747,48.9672,318.4772,51.736,319.4193,54.659,319.8286,56.6534,319.365,59.9399" style="stroke:#181818;stroke-width:1.0;"/><path d="M311.5156,53.875 Q311.6719,53.6563 311.8594,53.5469 Q312.0469,53.4375 312.2656,53.4375 Q312.6406,53.4375 312.875,53.6953 Q313.1094,53.9531 313.1094,54.5625 L313.1094,56.0156 Q313.1094,56.625 312.875,56.8906 Q312.6406,57.1563 312.2656,57.1563 Q311.9219,57.1563 311.7188,56.9531 Q311.5156,56.7656 311.4063,56.25 Q311.3594,55.8906 311.1719,55.7031 Q310.8438,55.3281 310.2344,55.1094 Q309.625,54.8906 309,54.8906 Q308.2344,54.8906 307.6016,55.2188 Q306.9688,55.5469 306.4766,56.2969 Q305.9844,57.0469 305.9844,58.0781 L305.9844,59.1719 Q305.9844,60.4063 306.875,61.2266 Q307.7656,62.0469 309.3594,62.0469 Q310.2969,62.0469 310.9531,61.7969 Q311.3438,61.6406 311.7656,61.2031 Q312.0313,60.9375 312.1797,60.8594 Q312.3281,60.7813 312.5313,60.7813 Q312.8594,60.7813 313.1172,61.0391 Q313.375,61.2969 313.375,61.6406 Q313.375,61.9844 313.0313,62.3906 Q312.5313,62.9688 311.7344,63.2969 Q310.6563,63.75 309.3594,63.75 Q307.8438,63.75 306.6406,63.125 Q305.6563,62.625 304.9688,61.5547 Q304.2813,60.4844 304.2813,59.2031 L304.2813,58.0469 Q304.2813,56.7188 304.8984,55.5703 Q305.5156,54.4219 306.6094,53.8047 Q307.7031,53.1875 308.9375,53.1875 Q309.6719,53.1875 310.3203,53.3516 Q310.9688,53.5156 311.5156,53.875 Z " fill="#000000"/><text fill="#000000" font-family="sans-serif" font-size="14" lengthAdjust="spacing" textLength="32" x="329.25" y="63.7285">Mere</text><path d="M235.5,74 L235.5,74.2802 L245.3421,73.4476 L255.1842,74.2577 L265.0263,74.5329 L274.8684,73.0488 L284.7105,73.8964 L294.5526,73.4313 L304.3947,73.4887 L314.2368,73.9091 L324.0789,73.0782 L333.9211,74.7382 L343.7632,73.1596 L353.6053,73.7363 L363.4474,74.5759 L373.2895,73.8856 L383.1316,74.091 L392.9737,73.9574 L402.8158,74.238 L412.6579,74.3188 L422.5,74 " fill="#BDD7EE" style="stroke:#000000;stroke-width:0.5;"/><path d="M235.5,82 L235.5,82.2802 L245.3421,81.4476 L255.1842,82.2577 L265.0263,82.5329 L274.8684,81.0488 L284.7105,81.8964 L294.5526,81.4313 L304.3947,81.4887 L314.2368,81.9091 L324.0789,81.0782 L333.9211,82.7382 L343.7632,81.1596 L353.6053,81.7363 L363.4474,82.5759 L373.2895,81.8856 L383.1316,82.091 L392.9737,81.9574 L402.8158,82.238 L412.6579,82.3188 L422.5,82 " fill="#BDD7EE" style="stroke:#000000;stroke-width:0.5;"/><text fill="#000000" font-family="sans-serif" font-size="14" lengthAdjust="spacing" textLength="177" x="240.5" y="100.5332">internal MethodeAAcceder()</text></g><!--class FilleAssembly1--><g id="elem_FilleAssembly1"><polygon fill="#A9D18E" points="268.5,168,268.5,168.2102,278.5833,167.5857,288.6667,168.1933,298.75,168.3997,308.8333,167.2866,318.9167,167.9223,329,167.5735,339.0833,167.6165,349.1667,167.9318,359.25,167.3086,369.3333,168.5536,379.4167,167.3697,389.5,168,389.4748,167.9391,389.9087,168.2795,390.1962,168.2665,390.5694,168.4604,390.9101,168.5759,391.2678,168.7322,391.3227,168.755,391.4879,169.1163,391.741,169.5141,391.9138,169.8785,392.0627,170.2331,392,170.5,392.0849,170.5,392.1545,179.1,392.2341,187.7,391.7596,196.3,392.2262,204.9,392,213.5,391.9087,213.4622,392.0179,213.9216,391.5547,214.144,391.5396,214.5519,391.6426,215.0088,391.2678,215.2678,391.2616,215.2528,390.9276,215.4466,390.6039,215.6649,390.2602,215.8353,389.8531,215.8524,389.5,216,389.5,216.2872,379.4167,215.4276,369.3333,216.2844,359.25,216.5482,349.1667,216.4445,339.0833,216.613,329,215.5169,318.9167,215.3478,308.8333,215.3786,298.75,215.9411,288.6667,215.8035,278.5833,216.6814,268.5,216,268.4777,215.9462,268.1027,215.7479,267.822,215.7774,267.3543,215.3553,267.0196,215.2543,266.7322,215.2678,266.9321,215.3505,266.72,214.9698,266.6655,214.6544,266.1938,214.1661,266.2447,213.8943,266,213.5,266.1968,213.5,265.8425,204.9,265.968,196.3,266.042,187.7,266.2173,179.1,266,170.5,265.9987,170.4995,266.2889,170.2055,266.1223,169.7223,266.2308,169.3529,266.7409,169.15,266.7322,168.7322,266.6408,168.5114,267.1507,168.7425,267.4657,168.503,267.7587,168.2104,268.1013,168.0375,268.5,168" style="stroke:#000000;stroke-width:0.5;"/><polygon fill="#ADD1B2" points="292.0608,186.6756,290.4484,188.8788,288.5412,192.1057,285.8136,194.2804,282.9474,195.4696,280.662,195.5728,277.7247,194.0855,274.9532,193.1139,272.8495,191.1412,271.7461,188.8828,271.0917,187.0845,270.4506,184.7357,269.41,182.7145,270.2096,180.741,270.9102,178.5792,273.5393,176.8695,275.389,174.6511,277.6784,173.9144,280.4001,173.2801,283.8904,173.657,285.8021,174.5585,288.0247,174.9672,290.7272,177.736,291.6693,180.659,292.0786,182.6534,291.615,185.9399" style="stroke:#181818;stroke-width:1.0;"/><path d="M283.7656,179.875 Q283.9219,179.6563 284.1094,179.5469 Q284.2969,179.4375 284.5156,179.4375 Q284.8906,179.4375 285.125,179.6953 Q285.3594,179.9531 285.3594,180.5625 L285.3594,182.0156 Q285.3594,182.625 285.125,182.8906 Q284.8906,183.1563 284.5156,183.1563 Q284.1719,183.1563 283.9688,182.9531 Q283.7656,182.7656 283.6563,182.25 Q283.6094,181.8906 283.4219,181.7031 Q283.0938,181.3281 282.4844,181.1094 Q281.875,180.8906 281.25,180.8906 Q280.4844,180.8906 279.8516,181.2188 Q279.2188,181.5469 278.7266,182.2969 Q278.2344,183.0469 278.2344,184.0781 L278.2344,185.1719 Q278.2344,186.4063 279.125,187.2266 Q280.0156,188.0469 281.6094,188.0469 Q282.5469,188.0469 283.2031,187.7969 Q283.5938,187.6406 284.0156,187.2031 Q284.2813,186.9375 284.4297,186.8594 Q284.5781,186.7813 284.7813,186.7813 Q285.1094,186.7813 285.3672,187.0391 Q285.625,187.2969 285.625,187.6406 Q285.625,187.9844 285.2813,188.3906 Q284.7813,188.9688 283.9844,189.2969 Q282.9063,189.75 281.6094,189.75 Q280.0938,189.75 278.8906,189.125 Q277.9063,188.625 277.2188,187.5547 Q276.5313,186.4844 276.5313,185.2031 L276.5313,184.0469 Q276.5313,182.7188 277.1484,181.5703 Q277.7656,180.4219 278.8594,179.8047 Q279.9531,179.1875 281.1875,179.1875 Q281.9219,179.1875 282.5703,179.3516 Q283.2188,179.5156 283.7656,179.875 Z " fill="#000000"/><text fill="#000000" font-family="sans-serif" font-size="14" lengthAdjust="spacing" textLength="94" x="295" y="189.7285">FilleAssembly1</text><path d="M267,200 L267,200.2802 L277.3333,199.4476 L287.6667,200.2577 L298,200.5329 L308.3333,199.0488 L318.6667,199.8964 L329,199.4313 L339.3333,199.4887 L349.6667,199.9091 L360,199.0782 L370.3333,200.7382 L380.6667,199.1596 L391,200 " fill="#A9D18E" style="stroke:#000000;stroke-width:0.5;"/><path d="M267,208 L267,208.2802 L277.3333,207.4476 L287.6667,208.2577 L298,208.5329 L308.3333,207.0488 L318.6667,207.8964 L329,207.4313 L339.3333,207.4887 L349.6667,207.9091 L360,207.0782 L370.3333,208.7382 L380.6667,207.1596 L391,208 " fill="#A9D18E" style="stroke:#000000;stroke-width:0.5;"/></g><!--class AutreClasseAssembly1--><g id="elem_AutreClasseAssembly1"><polygon fill="#A9D18E" points="25,51,25,51.2102,35.1176,50.5857,45.2353,51.1933,55.3529,51.3997,65.4706,50.2866,75.5882,50.9223,85.7059,50.5735,95.8235,50.6165,105.9412,50.9318,116.0588,50.3086,126.1765,51.5536,136.2941,50.3697,146.4118,50.8022,156.5294,51.4319,166.6471,50.9142,176.7647,51.0682,186.8824,50.9681,197,51,197.0228,51.055,197.3841,51.2201,197.7818,51.4733,198.1463,51.646,198.5009,51.795,198.7678,51.7322,198.8462,51.7647,199.057,52.1449,199.2769,52.5289,198.985,52.7009,199.5625,53.233,199.5,53.5,199.4012,53.5,199.6779,62.1,199.335,70.7,199.4772,79.3,199.7472,87.9,199.5,96.5,199.485,96.4938,199.386,96.867,199.3114,97.2503,199.1888,97.6138,198.913,97.9137,198.7678,98.2678,198.8044,98.3562,198.3412,98.2379,198.0969,98.6482,197.777,98.8759,197.4103,98.9905,197,99,197,99.613,186.8824,98.5169,176.7647,98.3478,166.6471,98.3786,156.5294,98.9411,146.4118,98.8035,136.2941,99.6814,126.1765,98.8253,116.0588,98.6569,105.9412,99.2283,95.8235,98.3332,85.7059,98.4809,75.5882,99.649,65.4706,99.4357,55.3529,99.7345,45.2353,98.6782,35.1176,99.3192,25,99,25.0753,99.1818,24.5862,98.7081,24.2807,98.6776,23.9554,98.5995,23.6689,98.6149,23.2322,98.2678,23.2309,98.2672,23.2282,97.9732,22.7688,97.49,22.5843,97.1207,22.8015,96.9178,22.5,96.5,22.261,96.5,22.6697,87.9,22.5689,79.3,22.4107,70.7,22.3821,62.1,22.5,53.5,22.6413,53.5585,22.5543,53.1083,22.9752,52.8684,22.7691,52.3688,23.2759,52.1645,23.2322,51.7322,23.294,51.8814,23.617,51.6612,23.9454,51.4539,24.3856,51.5167,24.7247,51.3354,25,51" style="stroke:#000000;stroke-width:0.5;"/><polygon fill="#ADD1B2" points="48.5608,69.6756,46.9484,71.8788,45.0412,75.1057,42.3136,77.2804,39.4474,78.4696,37.162,78.5728,34.2247,77.0855,31.4532,76.1139,29.3495,74.1412,28.2461,71.8828,27.5917,70.0845,26.9506,67.7357,25.91,65.7145,26.7096,63.741,27.4102,61.5792,30.0393,59.8695,31.889,57.6511,34.1784,56.9144,36.9001,56.2801,40.3904,56.657,42.3021,57.5585,44.5247,57.9672,47.2272,60.736,48.1693,63.659,48.5786,65.6534,48.115,68.9399" style="stroke:#181818;stroke-width:1.0;"/><path d="M40.2656,62.875 Q40.4219,62.6563 40.6094,62.5469 Q40.7969,62.4375 41.0156,62.4375 Q41.3906,62.4375 41.625,62.6953 Q41.8594,62.9531 41.8594,63.5625 L41.8594,65.0156 Q41.8594,65.625 41.625,65.8906 Q41.3906,66.1563 41.0156,66.1563 Q40.6719,66.1563 40.4688,65.9531 Q40.2656,65.7656 40.1563,65.25 Q40.1094,64.8906 39.9219,64.7031 Q39.5938,64.3281 38.9844,64.1094 Q38.375,63.8906 37.75,63.8906 Q36.9844,63.8906 36.3516,64.2188 Q35.7188,64.5469 35.2266,65.2969 Q34.7344,66.0469 34.7344,67.0781 L34.7344,68.1719 Q34.7344,69.4063 35.625,70.2266 Q36.5156,71.0469 38.1094,71.0469 Q39.0469,71.0469 39.7031,70.7969 Q40.0938,70.6406 40.5156,70.2031 Q40.7813,69.9375 40.9297,69.8594 Q41.0781,69.7813 41.2813,69.7813 Q41.6094,69.7813 41.8672,70.0391 Q42.125,70.2969 42.125,70.6406 Q42.125,70.9844 41.7813,71.3906 Q41.2813,71.9688 40.4844,72.2969 Q39.4063,72.75 38.1094,72.75 Q36.5938,72.75 35.3906,72.125 Q34.4063,71.625 33.7188,70.5547 Q33.0313,69.4844 33.0313,68.2031 L33.0313,67.0469 Q33.0313,65.7188 33.6484,64.5703 Q34.2656,63.4219 35.3594,62.8047 Q36.4531,62.1875 37.6875,62.1875 Q38.4219,62.1875 39.0703,62.3516 Q39.7188,62.5156 40.2656,62.875 Z " fill="#000000"/><text fill="#000000" font-family="sans-serif" font-size="14" lengthAdjust="spacing" textLength="145" x="51.5" y="72.7285">AutreClasseAssembly1</text><path d="M23.5,83 L23.5,83.2802 L33.2222,82.4476 L42.9444,83.2577 L52.6667,83.5329 L62.3889,82.0488 L72.1111,82.8964 L81.8333,82.4313 L91.5556,82.4887 L101.2778,82.9091 L111,82.0782 L120.7222,83.7382 L130.4444,82.1596 L140.1667,82.7363 L149.8889,83.5759 L159.6111,82.8856 L169.3333,83.091 L179.0556,82.9574 L188.7778,83.238 L198.5,83 " fill="#A9D18E" style="stroke:#000000;stroke-width:0.5;"/><path d="M23.5,91 L23.5,91.2802 L33.2222,90.4476 L42.9444,91.2577 L52.6667,91.5329 L62.3889,90.0488 L72.1111,90.8964 L81.8333,90.4313 L91.5556,90.4887 L101.2778,90.9091 L111,90.0782 L120.7222,91.7382 L130.4444,90.1596 L140.1667,90.7363 L149.8889,91.5759 L159.6111,90.8856 L169.3333,91.091 L179.0556,90.9574 L188.7778,91.238 L198.5,91 " fill="#A9D18E" style="stroke:#000000;stroke-width:0.5;"/></g><!--class FilleAssembly2--><g id="elem_FilleAssembly2"><polygon fill="#EB935B" points="695.5,168,695.5,168.2102,705.5833,167.5857,715.6667,168.1933,725.75,168.3997,735.8333,167.2866,745.9167,167.9223,756,167.5735,766.0833,167.6165,776.1667,167.9318,786.25,167.3086,796.3333,168.5536,806.4167,167.3697,816.5,168,816.4748,167.9391,816.9087,168.2795,817.1962,168.2665,817.5694,168.4604,817.9101,168.5759,818.2678,168.7322,818.3227,168.755,818.4879,169.1163,818.741,169.5141,818.9138,169.8785,819.0627,170.2331,819,170.5,819.0849,170.5,819.1545,179.1,819.2341,187.7,818.7596,196.3,819.2262,204.9,819,213.5,818.9087,213.4622,819.0179,213.9216,818.5547,214.144,818.5396,214.5519,818.6426,215.0088,818.2678,215.2678,818.2616,215.2528,817.9276,215.4466,817.6039,215.6649,817.2602,215.8353,816.8531,215.8524,816.5,216,816.5,216.2872,806.4167,215.4276,796.3333,216.2844,786.25,216.5482,776.1667,216.4445,766.0833,216.613,756,215.5169,745.9167,215.3478,735.8333,215.3786,725.75,215.9411,715.6667,215.8035,705.5833,216.6814,695.5,216,695.4777,215.9462,695.1027,215.7479,694.822,215.7774,694.3543,215.3553,694.0196,215.2543,693.7322,215.2678,693.9321,215.3505,693.72,214.9698,693.6655,214.6544,693.1938,214.1661,693.2447,213.8943,693,213.5,693.1968,213.5,692.8425,204.9,692.968,196.3,693.042,187.7,693.2173,179.1,693,170.5,692.9987,170.4995,693.2889,170.2055,693.1223,169.7223,693.2308,169.3529,693.7409,169.15,693.7322,168.7322,693.6408,168.5114,694.1507,168.7425,694.4657,168.503,694.7587,168.2104,695.1013,168.0375,695.5,168" style="stroke:#000000;stroke-width:0.5;"/><polygon fill="#ADD1B2" points="719.0608,186.6756,717.4484,188.8788,715.5412,192.1057,712.8136,194.2804,709.9474,195.4696,707.662,195.5728,704.7247,194.0855,701.9532,193.1139,699.8495,191.1412,698.7461,188.8828,698.0917,187.0845,697.4506,184.7357,696.41,182.7145,697.2096,180.741,697.9102,178.5792,700.5393,176.8695,702.389,174.6511,704.6784,173.9144,707.4001,173.2801,710.8904,173.657,712.8021,174.5585,715.0247,174.9672,717.7272,177.736,718.6693,180.659,719.0786,182.6534,718.615,185.9399" style="stroke:#181818;stroke-width:1.0;"/><path d="M710.7656,179.875 Q710.9219,179.6563 711.1094,179.5469 Q711.2969,179.4375 711.5156,179.4375 Q711.8906,179.4375 712.125,179.6953 Q712.3594,179.9531 712.3594,180.5625 L712.3594,182.0156 Q712.3594,182.625 712.125,182.8906 Q711.8906,183.1563 711.5156,183.1563 Q711.1719,183.1563 710.9688,182.9531 Q710.7656,182.7656 710.6563,182.25 Q710.6094,181.8906 710.4219,181.7031 Q710.0938,181.3281 709.4844,181.1094 Q708.875,180.8906 708.25,180.8906 Q707.4844,180.8906 706.8516,181.2188 Q706.2188,181.5469 705.7266,182.2969 Q705.2344,183.0469 705.2344,184.0781 L705.2344,185.1719 Q705.2344,186.4063 706.125,187.2266 Q707.0156,188.0469 708.6094,188.0469 Q709.5469,188.0469 710.2031,187.7969 Q710.5938,187.6406 711.0156,187.2031 Q711.2813,186.9375 711.4297,186.8594 Q711.5781,186.7813 711.7813,186.7813 Q712.1094,186.7813 712.3672,187.0391 Q712.625,187.2969 712.625,187.6406 Q712.625,187.9844 712.2813,188.3906 Q711.7813,188.9688 710.9844,189.2969 Q709.9063,189.75 708.6094,189.75 Q707.0938,189.75 705.8906,189.125 Q704.9063,188.625 704.2188,187.5547 Q703.5313,186.4844 703.5313,185.2031 L703.5313,184.0469 Q703.5313,182.7188 704.1484,181.5703 Q704.7656,180.4219 705.8594,179.8047 Q706.9531,179.1875 708.1875,179.1875 Q708.9219,179.1875 709.5703,179.3516 Q710.2188,179.5156 710.7656,179.875 Z " fill="#000000"/><text fill="#000000" font-family="sans-serif" font-size="14" lengthAdjust="spacing" textLength="94" x="722" y="189.7285">FilleAssembly2</text><path d="M694,200 L694,200.2802 L704.3333,199.4476 L714.6667,200.2577 L725,200.5329 L735.3333,199.0488 L745.6667,199.8964 L756,199.4313 L766.3333,199.4887 L776.6667,199.9091 L787,199.0782 L797.3333,200.7382 L807.6667,199.1596 L818,200 " fill="#EB935B" style="stroke:#000000;stroke-width:0.5;"/><path d="M694,208 L694,208.2802 L704.3333,207.4476 L714.6667,208.2577 L725,208.5329 L735.3333,207.0488 L745.6667,207.8964 L756,207.4313 L766.3333,207.4887 L776.6667,207.9091 L787,207.0782 L797.3333,208.7382 L807.6667,207.1596 L818,208 " fill="#EB935B" style="stroke:#000000;stroke-width:0.5;"/></g><!--class AutreClasseAssembly2--><g id="elem_AutreClasseAssembly2"><polygon fill="#EB935B" points="483,168,483,168.2102,493.1176,167.5857,503.2353,168.1933,513.3529,168.3997,523.4706,167.2866,533.5882,167.9223,543.7059,167.5735,553.8235,167.6165,563.9412,167.9318,574.0588,167.3086,584.1765,168.5536,594.2941,167.3697,604.4118,167.8022,614.5294,168.4319,624.6471,167.9142,634.7647,168.0682,644.8824,167.9681,655,168,655.0228,168.055,655.3841,168.2201,655.7818,168.4733,656.1463,168.646,656.5009,168.795,656.7678,168.7322,656.8462,168.7647,657.057,169.1449,657.2769,169.5289,656.985,169.7009,657.5625,170.233,657.5,170.5,657.4012,170.5,657.6779,179.1,657.335,187.7,657.4772,196.3,657.7472,204.9,657.5,213.5,657.485,213.4938,657.386,213.867,657.3114,214.2503,657.1888,214.6138,656.913,214.9137,656.7678,215.2678,656.8044,215.3562,656.3412,215.2379,656.0969,215.6482,655.777,215.8759,655.4103,215.9905,655,216,655,216.613,644.8824,215.5169,634.7647,215.3478,624.6471,215.3786,614.5294,215.9411,604.4118,215.8035,594.2941,216.6814,584.1765,215.8253,574.0588,215.6569,563.9412,216.2283,553.8235,215.3332,543.7059,215.4809,533.5882,216.649,523.4706,216.4357,513.3529,216.7345,503.2353,215.6782,493.1176,216.3192,483,216,483.0753,216.1818,482.5862,215.7081,482.2807,215.6776,481.9554,215.5995,481.6689,215.6149,481.2322,215.2678,481.2309,215.2672,481.2282,214.9732,480.7688,214.49,480.5843,214.1207,480.8015,213.9178,480.5,213.5,480.261,213.5,480.6697,204.9,480.5689,196.3,480.4107,187.7,480.3821,179.1,480.5,170.5,480.6413,170.5585,480.5543,170.1083,480.9752,169.8684,480.7691,169.3688,481.2759,169.1645,481.2322,168.7322,481.294,168.8814,481.617,168.6612,481.9454,168.4539,482.3856,168.5167,482.7247,168.3354,483,168" style="stroke:#000000;stroke-width:0.5;"/><polygon fill="#ADD1B2" points="506.5608,186.6756,504.9484,188.8788,503.0412,192.1057,500.3136,194.2804,497.4474,195.4696,495.162,195.5728,492.2247,194.0855,489.4532,193.1139,487.3495,191.1412,486.2461,188.8828,485.5917,187.0845,484.9506,184.7357,483.91,182.7145,484.7096,180.741,485.4102,178.5792,488.0393,176.8695,489.889,174.6511,492.1784,173.9144,494.9001,173.2801,498.3904,173.657,500.3021,174.5585,502.5247,174.9672,505.2272,177.736,506.1693,180.659,506.5786,182.6534,506.115,185.9399" style="stroke:#181818;stroke-width:1.0;"/><path d="M498.2656,179.875 Q498.4219,179.6563 498.6094,179.5469 Q498.7969,179.4375 499.0156,179.4375 Q499.3906,179.4375 499.625,179.6953 Q499.8594,179.9531 499.8594,180.5625 L499.8594,182.0156 Q499.8594,182.625 499.625,182.8906 Q499.3906,183.1563 499.0156,183.1563 Q498.6719,183.1563 498.4688,182.9531 Q498.2656,182.7656 498.1563,182.25 Q498.1094,181.8906 497.9219,181.7031 Q497.5938,181.3281 496.9844,181.1094 Q496.375,180.8906 495.75,180.8906 Q494.9844,180.8906 494.3516,181.2188 Q493.7188,181.5469 493.2266,182.2969 Q492.7344,183.0469 492.7344,184.0781 L492.7344,185.1719 Q492.7344,186.4063 493.625,187.2266 Q494.5156,188.0469 496.1094,188.0469 Q497.0469,188.0469 497.7031,187.7969 Q498.0938,187.6406 498.5156,187.2031 Q498.7813,186.9375 498.9297,186.8594 Q499.0781,186.7813 499.2813,186.7813 Q499.6094,186.7813 499.8672,187.0391 Q500.125,187.2969 500.125,187.6406 Q500.125,187.9844 499.7813,188.3906 Q499.2813,188.9688 498.4844,189.2969 Q497.4063,189.75 496.1094,189.75 Q494.5938,189.75 493.3906,189.125 Q492.4063,188.625 491.7188,187.5547 Q491.0313,186.4844 491.0313,185.2031 L491.0313,184.0469 Q491.0313,182.7188 491.6484,181.5703 Q492.2656,180.4219 493.3594,179.8047 Q494.4531,179.1875 495.6875,179.1875 Q496.4219,179.1875 497.0703,179.3516 Q497.7188,179.5156 498.2656,179.875 Z " fill="#000000"/><text fill="#000000" font-family="sans-serif" font-size="14" lengthAdjust="spacing" textLength="145" x="509.5" y="189.7285">AutreClasseAssembly2</text><path d="M481.5,200 L481.5,200.2802 L491.2222,199.4476 L500.9444,200.2577 L510.6667,200.5329 L520.3889,199.0488 L530.1111,199.8964 L539.8333,199.4313 L549.5556,199.4887 L559.2778,199.9091 L569,199.0782 L578.7222,200.7382 L588.4444,199.1596 L598.1667,199.7363 L607.8889,200.5759 L617.6111,199.8856 L627.3333,200.091 L637.0556,199.9574 L646.7778,200.238 L656.5,200 " fill="#EB935B" style="stroke:#000000;stroke-width:0.5;"/><path d="M481.5,208 L481.5,208.2802 L491.2222,207.4476 L500.9444,208.2577 L510.6667,208.5329 L520.3889,207.0488 L530.1111,207.8964 L539.8333,207.4313 L549.5556,207.4887 L559.2778,207.9091 L569,207.0782 L578.7222,208.7382 L588.4444,207.1596 L598.1667,207.7363 L607.8889,208.5759 L617.6111,207.8856 L627.3333,208.091 L637.0556,207.9574 L646.7778,208.238 L656.5,208 " fill="#EB935B" style="stroke:#000000;stroke-width:0.5;"/></g><!--reverse link Mere to FilleAssembly1--><g id="link_Mere_FilleAssembly1"><path d="M329,126.03 L329.0934,126.03 L328.8159,134.402 L329.0859,142.774 L329.1776,151.146 L328.6829,159.518 L329,167.89 " fill="none" style="stroke:#181818;stroke-width:1.0;"/><polygon fill="none" points="329,108.03,329.0665,108.0522,327.669,111.5863,326.6611,115.2504,325.5264,118.8721,323.9744,122.3548,323,126.03,323,126.0041,325.4,125.8878,327.8,125.9022,330.2,126.0073,332.6,125.7995,335,126.03,335.1751,126.0884,333.6007,122.3636,332.5375,118.8092,331.5366,115.2755,330.1729,111.621,329,108.03" style="stroke:#181818;stroke-width:1.0;"/></g><!--reverse link Mere to FilleAssembly2--><g id="link_Mere_FilleAssembly2"><path d="M441.7688,84.9092 L441.7776,85.0022 L448.3672,85.3473 L455.0081,86.2377 L461.6323,86.9505 L468.2017,87.0795 L474.847,88.0166 L474.8434,87.9823 L481.5733,88.5388 L488.3214,89.2684 L495.0823,90.1184 L501.7994,90.5536 L508.5778,91.5698 L508.6071,91.8141 L515.2436,92.0977 L521.9658,93.0946 L528.6985,94.1785 L535.3704,94.7561 L542.0742,95.5999 L542.0782,95.63 L545.3489,96.0266 L548.638,96.5601 L551.9183,97.0275 L555.2154,97.6209 L558.4574,97.8037 L558.5005,98.0988 L561.6994,98.5693 L564.8705,98.8495 L568.0824,99.4083 L571.2961,99.9802 L574.4494,100.1383 L574.3989,99.8218 L577.5949,100.9301 L580.6247,100.996 L583.7808,101.8544 L586.8068,101.8967 L589.9394,102.6079 L589.9341,102.5779 L592.9717,103.4542 L595.8865,103.6299 L598.8737,104.219 L601.8671,104.8429 L604.8165,105.2163 L604.8518,105.3979 L607.6468,105.7648 L610.5022,106.442 L613.26,106.6172 L616.1633,107.5412 L618.9698,107.9674 L619.0216,108.2054 L621.6756,108.7399 L624.3553,109.3927 L626.9154,109.4962 L629.5632,110.0023 L632.2886,110.865 L632.2225,110.5969 L634.757,111.4493 L637.217,111.9995 L639.785,112.988 L642.1686,113.2282 L644.6618,113.9132 L644.6203,113.7665 L646.9528,114.6514 L649.1079,114.9091 L651.3891,115.6128 L653.7939,116.7528 L655.9787,117.1158 L656.0396,117.2997 L658.1113,118.0979 L659.9936,118.3245 L662.1131,119.2671 L664.1809,120.0537 L666.1284,120.4768 L666.0509,120.2817 L667.887,121.1418 L669.6977,121.9381 L671.5583,122.8599 L673.225,123.2936 L675,124 L675.0965,124.1815 L678.2763,125.5859 L681.6424,127.3407 L685.2806,129.6074 L688.4178,130.9316 L691.9592,133.0162 L692.0881,133.2021 L695.206,135.3075 L698.2802,137.3499 L701.4528,139.5343 L704.8531,142.0468 L707.9312,144.095 L707.8464,143.9925 L710.9968,146.6978 L713.5701,148.7063 L716.7996,151.5071 L719.6597,153.8618 L722.4202,156.0963 L722.4948,156.1755 L724.9365,158.4683 L727.6455,161.0448 L730.113,163.365 L732.4796,165.578 L734.93,167.88 " fill="none" style="stroke:#181818;stroke-width:1.0;"/><polygon fill="none" points="423.84,83.31,423.868,83.3742,427.264,84.6985,430.824,86.3993,434.3306,87.9774,437.6617,89.1524,441.2358,90.8855,441.21,90.8832,441.3074,88.4823,441.5349,86.0931,441.8528,83.7119,441.8591,81.303,442.3019,78.9329,442.3445,79.1125,438.561,79.6039,434.9019,80.6196,431.258,81.6993,427.5258,82.4068,423.84,83.31" style="stroke:#181818;stroke-width:1.0;"/></g><!--SRC=[ZOynQyCm48Lt_Oe3B-qGS59A6-WYHpPaoDIXio8ViOWYXTEPqgJvxvNjq3ebjBdfq7lwthsujNwlIU_0E1sZP2QxRXcN9lXNUq38HVosDDhNxsIPqGDJYoEf_mr70MaARROR2gsl5y45WhV6CWvAe1ffUCtoF1Sd8VR9hJS8CaRShTt753AbgZDgmAwG4B92gQUoF0lTMCz8NhkaSnDgbD8OJFox-zwIs3-8oZg7emWvLzFd3ZQszZaldvF9B_iO95icN7JhNxWhlMQfLtNPwo8bwMKnVtWiRZjgzizHLt0dyGK0]--></g></svg>