<?xml version="1.0" encoding="UTF-8" standalone="no"?><svg xmlns="http://www.w3.org/2000/svg" xmlns:xlink="http://www.w3.org/1999/xlink" contentScriptType="application/ecmascript" contentStyleType="text/css" height="256px" preserveAspectRatio="none" style="width:809px;height:256px;" version="1.1" viewBox="0 0 809 256" width="809px" zoomAndPan="magnify"><defs><filter height="300%" id="f1ol26fn45ayts" width="300%" x="-1" y="-1"><feGaussianBlur result="blurOut" stdDeviation="2.0"/><feColorMatrix in="blurOut" result="blurOut2" type="matrix" values="0 0 0 0 0 0 0 0 0 0 0 0 0 0 0 0 0 0 .4 0"/><feOffset dx="4.0" dy="4.0" in="blurOut2" result="blurOut3"/><feBlend in="SourceGraphic" in2="blurOut3" mode="normal"/></filter></defs><g><!--cluster Assembly1--><polygon fill="#DDDDFF" filter="url(#f1ol26fn45ayts)" points="22,24,22,24.2102,31.4444,23.5857,40.8889,24.1933,50.3333,24.3997,59.7778,23.2866,69.2222,23.9223,78.6667,23.5735,88.1111,23.6165,97.5556,23.9318,107,24,106.78,23.9315,108.5762,28.5525,109.5994,32.9329,111.1371,37.4734,112.7375,42.0334,114,46.4883,114,46.4025,124.0333,46.5565,134.0667,46.4563,144.1,46.6668,154.1333,46.7274,164.1667,47.074,174.2,47.1593,184.2333,47.1675,194.2667,46.7429,204.3,46.9519,214.3333,47.1905,224.3667,45.7671,234.4,47.1668,244.4333,46.1918,254.4667,47.0221,264.5,45.9933,274.5333,46.4198,284.5667,47.2299,294.6,46.4395,304.6333,46.5936,314.6667,46.8269,324.7,46.9045,334.7333,46.4844,344.7667,46.7755,354.8,45.9159,364.8333,46.7727,374.8667,47.0365,384.9,46.9328,394.9333,47.1013,404.9667,46.0052,415,46.4883,414.3478,46.4883,414.3786,56.3639,414.9411,66.2395,414.8035,76.115,415.6814,85.9906,414.8253,95.8662,414.6569,105.7418,415.2283,115.6174,414.3332,125.493,414.4809,135.3686,415.649,145.2441,415.4357,155.1197,415.7345,164.9953,414.6782,174.8709,415.3192,184.7465,415.5904,194.6221,414.5276,204.4977,414.9041,214.3732,415.126,224.2488,415.6518,234.1244,415,244,415,243.9958,404.9231,244.4626,394.8462,243.4462,384.7692,243.3227,374.6923,244.5036,364.6154,243.2831,354.5385,244.509,344.4615,244.2066,334.3846,243.7321,324.3077,243.6462,314.2308,244.4588,304.1538,243.7007,294.0769,244.5919,284,243.4473,273.9231,244.6174,263.8462,244.4843,253.7692,244.245,243.6923,244.0472,233.6154,244.7266,223.5385,244.6136,213.4615,244.1693,203.3846,244.2682,193.3077,243.8697,183.2308,244.7165,173.1538,244.1549,163.0769,244.1726,153,243.3916,142.9231,243.5948,132.8462,244.5307,122.7692,244.4298,112.6923,243.9571,102.6154,243.6778,92.5385,243.7811,82.4615,243.3138,72.3846,244.4147,62.3077,244.7396,52.2308,244.5264,42.1538,244.6949,32.0769,243.8633,22,244,22.0872,244,21.6124,234,22.284,224,22.2468,214,22.5524,204,21.7703,194,21.8656,184,22.4435,174,22.5673,164,21.4875,154,21.8061,144,22.1493,134,21.3892,124,22.3534,114,22.258,104,21.8992,94,22.1422,84,22.7287,74,21.6871,64,22.315,54,22.2856,44,22.1158,34,22,24" style="stroke: #000000; stroke-width: 1.5;"/><path d="M22,46.4883 L22,46.7685 L32.2222,45.9359 L42.4444,46.746 L52.6667,47.0212 L62.8889,45.5371 L73.1111,46.3847 L83.3333,45.9196 L93.5556,45.9769 L103.7778,46.3974 L114,46.4883 " fill="#DDDDFF" style="stroke: #000000; stroke-width: 1.5;"/><text fill="#000000" font-family="sans-serif" font-size="14" font-weight="bold" lengthAdjust="spacingAndGlyphs" textLength="79" x="26" y="39.5352">Assembly1</text><!--cluster Assembly2--><polygon fill="#DDFFFF" filter="url(#f1ol26fn45ayts)" points="439,145,439,145.2102,448.4444,144.5857,457.8889,145.1933,467.3333,145.3997,476.7778,144.2866,486.2222,144.9223,495.6667,144.5735,505.1111,144.6165,514.5556,144.9318,524,145,523.78,144.9315,525.5762,149.5525,526.5994,153.9329,528.1371,158.4734,529.7375,163.0334,531,167.4883,531,167.4025,540.8462,167.5565,550.6923,167.4563,560.5385,167.6668,570.3846,167.7274,580.2308,168.074,590.0769,168.1593,599.9231,168.1675,609.7692,167.7429,619.6154,167.9519,629.4615,168.1905,639.3077,166.7671,649.1538,168.1668,659,167.1918,668.8462,168.0221,678.6923,166.9933,688.5385,167.4198,698.3846,168.2299,708.2308,167.4395,718.0769,167.5936,727.9231,167.8269,737.7692,167.9045,747.6154,167.4844,757.4615,167.7755,767.3077,166.9159,777.1538,167.7727,787,167.4883,787.5482,167.4883,787.4445,177.0522,787.613,186.6162,786.5169,196.1802,786.3478,205.7441,786.3786,215.3081,786.9411,224.8721,786.8035,234.436,787,244,787,244.6814,777.0571,243.8253,767.1143,243.6569,757.1714,244.2283,747.2286,243.3332,737.2857,243.4809,727.3429,244.649,717.4,244.4357,707.4571,244.7345,697.5143,243.6782,687.5714,244.3192,677.6286,244.5904,667.6857,243.5276,657.7429,243.9041,647.8,244.126,637.8571,244.6518,627.9143,243.9958,617.9714,244.4626,608.0286,243.4462,598.0857,243.3227,588.1429,244.5036,578.2,243.2831,568.2571,244.509,558.3143,244.2066,548.3714,243.7321,538.4286,243.6462,528.4857,244.4588,518.5429,243.7007,508.6,244.5919,498.6571,243.4473,488.7143,244.6174,478.7714,244.4843,468.8286,244.245,458.8857,244.0472,448.9429,244.7266,439,244,439.6136,244,439.1693,234.1,439.2682,224.2,438.8697,214.3,439.7165,204.4,439.1549,194.5,439.1726,184.6,438.3916,174.7,438.5948,164.8,439.5307,154.9,439,145" style="stroke: #000000; stroke-width: 1.5;"/><path d="M439,167.4883 L439,167.7685 L449.2222,166.9359 L459.4444,167.746 L469.6667,168.0212 L479.8889,166.5371 L490.1111,167.3847 L500.3333,166.9196 L510.5556,166.9769 L520.7778,167.3974 L531,167.4883 " fill="#DDFFFF" style="stroke: #000000; stroke-width: 1.5;"/><text fill="#000000" font-family="sans-serif" font-size="14" font-weight="bold" lengthAdjust="spacingAndGlyphs" textLength="79" x="443" y="160.5352">Assembly2</text><!--class Mere--><polygon fill="#BDD7EE" filter="url(#f1ol26fn45ayts)" points="237,59,237,59.2102,247.125,58.5857,257.25,59.1933,267.375,59.3997,277.5,58.2866,287.625,58.9223,297.75,58.5735,307.875,58.6165,318,58.9318,328.125,58.3086,338.25,59.5536,348.375,58.3697,358.5,58.8022,368.625,59.4319,378.75,58.9142,388.875,59.0682,399,59,398.9681,59,399.1785,69.1592,399.2391,79.3184,399.5857,89.4775,399.6711,99.6367,399.6793,109.7959,399,119.9551,399,120.2097,388.875,120.4187,378.75,120.6573,368.625,119.2339,358.5,120.6336,348.375,119.6586,338.25,120.4889,328.125,119.4601,318,119.8866,307.875,120.6967,297.75,119.9063,287.625,120.0604,277.5,120.2937,267.375,120.3713,257.25,119.9512,247.125,120.2423,237,119.9551,236.4276,119.9551,237.2844,109.7959,237.5482,99.6367,237.4445,89.4775,237.613,79.3184,236.5169,69.1592,237,59" style="stroke: #000000; stroke-width: 1.5;"/><polygon fill="#BDD7EE" points="237,59,237,59.2102,247.125,58.5857,257.25,59.1933,267.375,59.3997,277.5,58.2866,287.625,58.9223,297.75,58.5735,307.875,58.6165,318,58.9318,328.125,58.3086,338.25,59.5536,348.375,58.3697,358.5,58.8022,368.625,59.4319,378.75,58.9142,388.875,59.0682,399,59,398.9894,59,399.0595,65.4,399.0797,71.8,399.1952,78.2,399.2237,84.6,399,91,399,91.6793,388.875,91.2546,378.75,91.4636,368.625,91.7022,358.5,90.2788,348.375,91.6785,338.25,90.7035,328.125,91.5338,318,90.505,307.875,90.9315,297.75,91.7416,287.625,90.9513,277.5,91.1053,267.375,91.3386,257.25,91.4162,247.125,90.9961,237,91,237.0957,91,236.8092,84.6,237.0948,78.2,237.1827,71.8,237.1482,65.4,237,59" style="stroke: #000000; stroke-width: 1.5;"/><polygon fill="#ADD1B2" points="310.3108,77.6756,308.6984,79.8788,306.7912,83.1057,304.0636,85.2804,301.1974,86.4696,298.912,86.5728,295.9747,85.0855,293.2032,84.1139,291.0995,82.1412,289.9961,79.8828,289.3417,78.0845,288.7006,75.7357,287.66,73.7145,288.4596,71.741,289.1602,69.5792,291.7893,67.8695,293.639,65.6511,295.9284,64.9144,298.6501,64.2801,302.1404,64.657,304.0521,65.5585,306.2747,65.9672,308.9772,68.736,309.9193,71.659,310.3286,73.6534,309.865,76.9399" style="stroke: #000000; stroke-width: 1.0;"/><path d="M301.7231,81.1431 Q301.1421,81.4419 300.5029,81.5913 Q299.8638,81.7407 299.1582,81.7407 Q296.6514,81.7407 295.3315,80.0889 Q294.0117,78.437 294.0117,75.3159 Q294.0117,72.1865 295.3315,70.5347 Q296.6514,68.8828 299.1582,68.8828 Q299.8638,68.8828 300.5112,69.0322 Q301.1587,69.1816 301.7231,69.4805 L301.7231,72.2031 Q301.0923,71.6221 300.4988,71.3523 Q299.9053,71.0825 299.2744,71.0825 Q297.9297,71.0825 297.2449,72.1492 Q296.5601,73.2158 296.5601,75.3159 Q296.5601,77.4077 297.2449,78.4744 Q297.9297,79.541 299.2744,79.541 Q299.9053,79.541 300.4988,79.2712 Q301.0923,79.0015 301.7231,78.4204 Z "/><text fill="#000000" font-family="sans-serif" font-size="12" lengthAdjust="spacingAndGlyphs" textLength="29" x="319.75" y="79.5352">Mere</text><path d="M238,91 L238,91.2802 L248,90.4476 L258,91.2577 L268,91.5329 L278,90.0488 L288,90.8964 L298,90.4313 L308,90.4887 L318,90.9091 L328,90.0782 L338,91.7382 L348,90.1596 L358,90.7363 L368,91.5759 L378,90.8856 L388,91.091 L398,91 " fill="#BDD7EE" style="stroke: #000000; stroke-width: 1.5;"/><path d="M238,99 L238,99.2802 L248,98.4476 L258,99.2577 L268,99.5329 L278,98.0488 L288,98.8964 L298,98.4313 L308,98.4887 L318,98.9091 L328,98.0782 L338,99.7382 L348,98.1596 L358,98.7363 L368,99.5759 L378,98.8856 L388,99.091 L398,99 " fill="#BDD7EE" style="stroke: #000000; stroke-width: 1.5;"/><text fill="#000000" font-family="sans-serif" font-size="11" lengthAdjust="spacingAndGlyphs" textLength="150" x="243" y="113.6348">internal MethodeAAcceder()</text><!--class FilleAssembly1--><polygon fill="#A9D18E" filter="url(#f1ol26fn45ayts)" points="259.5,180,259.5,180.2102,269.25,179.5857,279,180.1933,288.75,180.3997,298.5,179.2866,308.25,179.9223,318,179.5735,327.75,179.6165,337.5,179.9318,347.25,179.3086,357,180.5536,366.75,179.3697,376.5,180,376.3022,180,376.9319,189.6,376.4142,199.2,376.5682,208.8,376.4681,218.4,376.5,228,376.5,228.1785,366.75,228.2391,357,228.5857,347.25,228.6711,337.5,228.6793,327.75,228.2546,318,228.4636,308.25,228.7022,298.5,227.2788,288.75,228.6785,279,227.7035,269.25,228.5338,259.5,228,259.005,228,259.4315,218.4,260.2416,208.8,259.4513,199.2,259.6053,189.6,259.5,180" style="stroke: #000000; stroke-width: 1.5;"/><polygon fill="#A9D18E" points="259.5,180,259.5,180.2102,269.25,179.5857,279,180.1933,288.75,180.3997,298.5,179.2866,308.25,179.9223,318,179.5735,327.75,179.6165,337.5,179.9318,347.25,179.3086,357,180.5536,366.75,179.3697,376.5,180,376.4341,180,376.644,186.4,376.4714,192.8,376.5227,199.2,376.4894,205.6,376.5,212,376.5,212.1785,366.75,212.2391,357,212.5857,347.25,212.6711,337.5,212.6793,327.75,212.2546,318,212.4636,308.25,212.7022,298.5,211.2788,288.75,212.6785,279,211.7035,269.25,212.5338,259.5,212,259.335,212,259.4772,205.6,259.7472,199.2,259.4838,192.8,259.5351,186.4,259.5,180" style="stroke: #000000; stroke-width: 1.5;"/><polygon fill="#ADD1B2" points="285.5608,198.6756,283.9484,200.8788,282.0412,204.1057,279.3136,206.2804,276.4474,207.4696,274.162,207.5728,271.2247,206.0855,268.4532,205.1139,266.3495,203.1412,265.2461,200.8828,264.5917,199.0845,263.9506,196.7357,262.91,194.7145,263.7096,192.741,264.4102,190.5792,267.0393,188.8695,268.889,186.6511,271.1784,185.9144,273.9001,185.2801,277.3904,185.657,279.3021,186.5585,281.5247,186.9672,284.2272,189.736,285.1693,192.659,285.5786,194.6534,285.115,197.9399" style="stroke: #000000; stroke-width: 1.0;"/><path d="M276.9731,202.1431 Q276.3921,202.4419 275.7529,202.5913 Q275.1138,202.7407 274.4082,202.7407 Q271.9014,202.7407 270.5815,201.0889 Q269.2617,199.437 269.2617,196.3159 Q269.2617,193.1865 270.5815,191.5347 Q271.9014,189.8828 274.4082,189.8828 Q275.1138,189.8828 275.7612,190.0322 Q276.4087,190.1816 276.9731,190.4805 L276.9731,193.2031 Q276.3423,192.6221 275.7488,192.3523 Q275.1553,192.0825 274.5244,192.0825 Q273.1797,192.0825 272.4949,193.1492 Q271.8101,194.2158 271.8101,196.3159 Q271.8101,198.4077 272.4949,199.4744 Q273.1797,200.541 274.5244,200.541 Q275.1553,200.541 275.7488,200.2712 Q276.3423,200.0015 276.9731,199.4204 Z "/><text fill="#000000" font-family="sans-serif" font-size="12" lengthAdjust="spacingAndGlyphs" textLength="85" x="288.5" y="200.5352">FilleAssembly1</text><path d="M260.5,212 L260.5,212.2802 L270.0833,211.4476 L279.6667,212.2577 L289.25,212.5329 L298.8333,211.0488 L308.4167,211.8964 L318,211.4313 L327.5833,211.4887 L337.1667,211.9091 L346.75,211.0782 L356.3333,212.7382 L365.9167,211.1596 L375.5,212 " fill="#A9D18E" style="stroke: #000000; stroke-width: 1.5;"/><path d="M260.5,220 L260.5,220.2802 L270.0833,219.4476 L279.6667,220.2577 L289.25,220.5329 L298.8333,219.0488 L308.4167,219.8964 L318,219.4313 L327.5833,219.4887 L337.1667,219.9091 L346.75,219.0782 L356.3333,220.7382 L365.9167,219.1596 L375.5,220 " fill="#A9D18E" style="stroke: #000000; stroke-width: 1.5;"/><!--class AutreClasseAssembly1--><polygon fill="#A9D18E" filter="url(#f1ol26fn45ayts)" points="38.5,65.5,38.5,65.7102,48.6875,65.0857,58.875,65.6933,69.0625,65.8997,79.25,64.7866,89.4375,65.4223,99.625,65.0735,109.8125,65.1165,120,65.4318,130.1875,64.8086,140.375,66.0536,150.5625,64.8697,160.75,65.3022,170.9375,65.9319,181.125,65.4142,191.3125,65.5682,201.5,65.5,201.4681,65.5,201.6785,75.1,201.7391,84.7,202.0857,94.3,202.1711,103.9,201.5,113.5,201.5,114.1793,191.3125,113.7546,181.125,113.9636,170.9375,114.2022,160.75,112.7788,150.5625,114.1785,140.375,113.2035,130.1875,114.0338,120,113.005,109.8125,113.4315,99.625,114.2416,89.4375,113.4513,79.25,113.6053,69.0625,113.8386,58.875,113.9162,48.6875,113.4961,38.5,113.5,38.7872,113.5,37.9276,103.9,38.7844,94.3,39.0482,84.7,38.9445,75.1,38.5,65.5" style="stroke: #000000; stroke-width: 1.5;"/><polygon fill="#A9D18E" points="38.5,65.5,38.5,65.7102,48.6875,65.0857,58.875,65.6933,69.0625,65.8997,79.25,64.7866,89.4375,65.4223,99.625,65.0735,109.8125,65.1165,120,65.4318,130.1875,64.8086,140.375,66.0536,150.5625,64.8697,160.75,65.3022,170.9375,65.9319,181.125,65.4142,191.3125,65.5682,201.5,65.5,201.4894,65.5,201.5595,71.9,201.5797,78.3,201.6952,84.7,201.7237,91.1,201.5,97.5,201.5,98.1793,191.3125,97.7546,181.125,97.9636,170.9375,98.2022,160.75,96.7788,150.5625,98.1785,140.375,97.2035,130.1875,98.0338,120,97.005,109.8125,97.4315,99.625,98.2416,89.4375,97.4513,79.25,97.6053,69.0625,97.8386,58.875,97.9162,48.6875,97.4961,38.5,97.5,38.5957,97.5,38.3092,91.1,38.5948,84.7,38.6827,78.3,38.6482,71.9,38.5,65.5" style="stroke: #000000; stroke-width: 1.5;"/><polygon fill="#ADD1B2" points="64.5608,84.1756,62.9484,86.3788,61.0412,89.6057,58.3136,91.7804,55.4474,92.9696,53.162,93.0728,50.2247,91.5855,47.4532,90.6139,45.3495,88.6412,44.2461,86.3828,43.5917,84.5845,42.9506,82.2357,41.91,80.2145,42.7096,78.241,43.4102,76.0792,46.0393,74.3695,47.889,72.1511,50.1784,71.4144,52.9001,70.7801,56.3904,71.157,58.3021,72.0585,60.5247,72.4672,63.2272,75.236,64.1693,78.159,64.5786,80.1534,64.115,83.4399" style="stroke: #000000; stroke-width: 1.0;"/><path d="M55.9731,87.6431 Q55.3921,87.9419 54.7529,88.0913 Q54.1138,88.2407 53.4082,88.2407 Q50.9014,88.2407 49.5815,86.5889 Q48.2617,84.937 48.2617,81.8159 Q48.2617,78.6865 49.5815,77.0347 Q50.9014,75.3828 53.4082,75.3828 Q54.1138,75.3828 54.7612,75.5322 Q55.4087,75.6816 55.9731,75.9805 L55.9731,78.7031 Q55.3423,78.1221 54.7488,77.8523 Q54.1553,77.5825 53.5244,77.5825 Q52.1797,77.5825 51.4949,78.6492 Q50.8101,79.7158 50.8101,81.8159 Q50.8101,83.9077 51.4949,84.9744 Q52.1797,86.041 53.5244,86.041 Q54.1553,86.041 54.7488,85.7712 Q55.3423,85.5015 55.9731,84.9204 Z "/><text fill="#000000" font-family="sans-serif" font-size="12" lengthAdjust="spacingAndGlyphs" textLength="131" x="67.5" y="86.0352">AutreClasseAssembly1</text><path d="M39.5,97.5 L39.5,97.7802 L49.5625,96.9476 L59.625,97.7577 L69.6875,98.0329 L79.75,96.5488 L89.8125,97.3964 L99.875,96.9313 L109.9375,96.9887 L120,97.4091 L130.0625,96.5782 L140.125,98.2382 L150.1875,96.6596 L160.25,97.2363 L170.3125,98.0759 L180.375,97.3856 L190.4375,97.591 L200.5,97.5 " fill="#A9D18E" style="stroke: #000000; stroke-width: 1.5;"/><path d="M39.5,105.5 L39.5,105.7802 L49.5625,104.9476 L59.625,105.7577 L69.6875,106.0329 L79.75,104.5488 L89.8125,105.3964 L99.875,104.9313 L109.9375,104.9887 L120,105.4091 L130.0625,104.5782 L140.125,106.2382 L150.1875,104.6596 L160.25,105.2363 L170.3125,106.0759 L180.375,105.3856 L190.4375,105.591 L200.5,105.5 " fill="#A9D18E" style="stroke: #000000; stroke-width: 1.5;"/><!--class FilleAssembly2--><polygon fill="#EB935B" filter="url(#f1ol26fn45ayts)" points="653.5,180,653.5,180.2102,663.25,179.5857,673,180.1933,682.75,180.3997,692.5,179.2866,702.25,179.9223,712,179.5735,721.75,179.6165,731.5,179.9318,741.25,179.3086,751,180.5536,760.75,179.3697,770.5,180,770.3022,180,770.9319,189.6,770.4142,199.2,770.5682,208.8,770.4681,218.4,770.5,228,770.5,228.1785,760.75,228.2391,751,228.5857,741.25,228.6711,731.5,228.6793,721.75,228.2546,712,228.4636,702.25,228.7022,692.5,227.2788,682.75,228.6785,673,227.7035,663.25,228.5338,653.5,228,653.005,228,653.4315,218.4,654.2416,208.8,653.4513,199.2,653.6053,189.6,653.5,180" style="stroke: #000000; stroke-width: 1.5;"/><polygon fill="#EB935B" points="653.5,180,653.5,180.2102,663.25,179.5857,673,180.1933,682.75,180.3997,692.5,179.2866,702.25,179.9223,712,179.5735,721.75,179.6165,731.5,179.9318,741.25,179.3086,751,180.5536,760.75,179.3697,770.5,180,770.4341,180,770.644,186.4,770.4714,192.8,770.5227,199.2,770.4894,205.6,770.5,212,770.5,212.1785,760.75,212.2391,751,212.5857,741.25,212.6711,731.5,212.6793,721.75,212.2546,712,212.4636,702.25,212.7022,692.5,211.2788,682.75,212.6785,673,211.7035,663.25,212.5338,653.5,212,653.335,212,653.4772,205.6,653.7472,199.2,653.4838,192.8,653.5351,186.4,653.5,180" style="stroke: #000000; stroke-width: 1.5;"/><polygon fill="#ADD1B2" points="679.5608,198.6756,677.9484,200.8788,676.0412,204.1057,673.3136,206.2804,670.4474,207.4696,668.162,207.5728,665.2247,206.0855,662.4532,205.1139,660.3495,203.1412,659.2461,200.8828,658.5917,199.0845,657.9506,196.7357,656.91,194.7145,657.7096,192.741,658.4102,190.5792,661.0393,188.8695,662.889,186.6511,665.1784,185.9144,667.9001,185.2801,671.3904,185.657,673.3021,186.5585,675.5247,186.9672,678.2272,189.736,679.1693,192.659,679.5786,194.6534,679.115,197.9399" style="stroke: #000000; stroke-width: 1.0;"/><path d="M670.9731,202.1431 Q670.3921,202.4419 669.7529,202.5913 Q669.1138,202.7407 668.4082,202.7407 Q665.9014,202.7407 664.5815,201.0889 Q663.2617,199.437 663.2617,196.3159 Q663.2617,193.1865 664.5815,191.5347 Q665.9014,189.8828 668.4082,189.8828 Q669.1138,189.8828 669.7612,190.0322 Q670.4087,190.1816 670.9731,190.4805 L670.9731,193.2031 Q670.3423,192.6221 669.7488,192.3523 Q669.1553,192.0825 668.5244,192.0825 Q667.1797,192.0825 666.4949,193.1492 Q665.8101,194.2158 665.8101,196.3159 Q665.8101,198.4077 666.4949,199.4744 Q667.1797,200.541 668.5244,200.541 Q669.1553,200.541 669.7488,200.2712 Q670.3423,200.0015 670.9731,199.4204 Z "/><text fill="#000000" font-family="sans-serif" font-size="12" lengthAdjust="spacingAndGlyphs" textLength="85" x="682.5" y="200.5352">FilleAssembly2</text><path d="M654.5,212 L654.5,212.2802 L664.0833,211.4476 L673.6667,212.2577 L683.25,212.5329 L692.8333,211.0488 L702.4167,211.8964 L712,211.4313 L721.5833,211.4887 L731.1667,211.9091 L740.75,211.0782 L750.3333,212.7382 L759.9167,211.1596 L769.5,212 " fill="#EB935B" style="stroke: #000000; stroke-width: 1.5;"/><path d="M654.5,220 L654.5,220.2802 L664.0833,219.4476 L673.6667,220.2577 L683.25,220.5329 L692.8333,219.0488 L702.4167,219.8964 L712,219.4313 L721.5833,219.4887 L731.1667,219.9091 L740.75,219.0782 L750.3333,220.7382 L759.9167,219.1596 L769.5,220 " fill="#EB935B" style="stroke: #000000; stroke-width: 1.5;"/><!--class AutreClasseAssembly2--><polygon fill="#EB935B" filter="url(#f1ol26fn45ayts)" points="455.5,180,455.5,180.2102,465.6875,179.5857,475.875,180.1933,486.0625,180.3997,496.25,179.2866,506.4375,179.9223,516.625,179.5735,526.8125,179.6165,537,179.9318,547.1875,179.3086,557.375,180.5536,567.5625,179.3697,577.75,179.8022,587.9375,180.4319,598.125,179.9142,608.3125,180.0682,618.5,180,618.4681,180,618.6785,189.6,618.7391,199.2,619.0857,208.8,619.1711,218.4,618.5,228,618.5,228.6793,608.3125,228.2546,598.125,228.4636,587.9375,228.7022,577.75,227.2788,567.5625,228.6785,557.375,227.7035,547.1875,228.5338,537,227.505,526.8125,227.9315,516.625,228.7416,506.4375,227.9513,496.25,228.1053,486.0625,228.3386,475.875,228.4162,465.6875,227.9961,455.5,228,455.7872,228,454.9276,218.4,455.7844,208.8,456.0482,199.2,455.9445,189.6,455.5,180" style="stroke: #000000; stroke-width: 1.5;"/><polygon fill="#EB935B" points="455.5,180,455.5,180.2102,465.6875,179.5857,475.875,180.1933,486.0625,180.3997,496.25,179.2866,506.4375,179.9223,516.625,179.5735,526.8125,179.6165,537,179.9318,547.1875,179.3086,557.375,180.5536,567.5625,179.3697,577.75,179.8022,587.9375,180.4319,598.125,179.9142,608.3125,180.0682,618.5,180,618.4894,180,618.5595,186.4,618.5797,192.8,618.6952,199.2,618.7237,205.6,618.5,212,618.5,212.6793,608.3125,212.2546,598.125,212.4636,587.9375,212.7022,577.75,211.2788,567.5625,212.6785,557.375,211.7035,547.1875,212.5338,537,211.505,526.8125,211.9315,516.625,212.7416,506.4375,211.9513,496.25,212.1053,486.0625,212.3386,475.875,212.4162,465.6875,211.9961,455.5,212,455.5957,212,455.3092,205.6,455.5948,199.2,455.6827,192.8,455.6482,186.4,455.5,180" style="stroke: #000000; stroke-width: 1.5;"/><polygon fill="#ADD1B2" points="481.5608,198.6756,479.9484,200.8788,478.0412,204.1057,475.3136,206.2804,472.4474,207.4696,470.162,207.5728,467.2247,206.0855,464.4532,205.1139,462.3495,203.1412,461.2461,200.8828,460.5917,199.0845,459.9506,196.7357,458.91,194.7145,459.7096,192.741,460.4102,190.5792,463.0393,188.8695,464.889,186.6511,467.1784,185.9144,469.9001,185.2801,473.3904,185.657,475.3021,186.5585,477.5247,186.9672,480.2272,189.736,481.1693,192.659,481.5786,194.6534,481.115,197.9399" style="stroke: #000000; stroke-width: 1.0;"/><path d="M472.9731,202.1431 Q472.3921,202.4419 471.7529,202.5913 Q471.1138,202.7407 470.4082,202.7407 Q467.9014,202.7407 466.5815,201.0889 Q465.2617,199.437 465.2617,196.3159 Q465.2617,193.1865 466.5815,191.5347 Q467.9014,189.8828 470.4082,189.8828 Q471.1138,189.8828 471.7612,190.0322 Q472.4087,190.1816 472.9731,190.4805 L472.9731,193.2031 Q472.3423,192.6221 471.7488,192.3523 Q471.1553,192.0825 470.5244,192.0825 Q469.1797,192.0825 468.4949,193.1492 Q467.8101,194.2158 467.8101,196.3159 Q467.8101,198.4077 468.4949,199.4744 Q469.1797,200.541 470.5244,200.541 Q471.1553,200.541 471.7488,200.2712 Q472.3423,200.0015 472.9731,199.4204 Z "/><text fill="#000000" font-family="sans-serif" font-size="12" lengthAdjust="spacingAndGlyphs" textLength="131" x="484.5" y="200.5352">AutreClasseAssembly2</text><path d="M456.5,212 L456.5,212.2802 L466.5625,211.4476 L476.625,212.2577 L486.6875,212.5329 L496.75,211.0488 L506.8125,211.8964 L516.875,211.4313 L526.9375,211.4887 L537,211.9091 L547.0625,211.0782 L557.125,212.7382 L567.1875,211.1596 L577.25,211.7363 L587.3125,212.5759 L597.375,211.8856 L607.4375,212.091 L617.5,212 " fill="#EB935B" style="stroke: #000000; stroke-width: 1.5;"/><path d="M456.5,220 L456.5,220.2802 L466.5625,219.4476 L476.625,220.2577 L486.6875,220.5329 L496.75,219.0488 L506.8125,219.8964 L516.875,219.4313 L526.9375,219.4887 L537,219.9091 L547.0625,219.0782 L557.125,220.7382 L567.1875,219.1596 L577.25,219.7363 L587.3125,220.5759 L597.375,219.8856 L607.4375,220.091 L617.5,220 " fill="#EB935B" style="stroke: #000000; stroke-width: 1.5;"/><!--reverse link Mere to FilleAssembly1--><path d="M318,140.11 L318.0934,140.11 L317.8159,148.022 L318.0859,155.934 L318.1776,163.846 L317.6829,171.758 L318,179.67 " fill="none" style="stroke: #A80036; stroke-width: 1.0;"/><polygon fill="none" points="311,140.06,311.0661,140.0831,312.2696,136.0144,313.8608,132.0813,315.3257,128.104,316.3756,123.9814,318,120.06,317.9755,120.0514,319.2658,124.013,320.6793,128.0178,322.1786,132.0525,323.3825,135.9839,325,140.06,325,140.2445,322.2,139.8499,319.4,139.9941,316.6,140.204,313.8,140.0314,311,140.06" style="stroke: #A80036; stroke-width: 1.0;"/><!--reverse link Mere to FilleAssembly2--><path d="M419.6,99.11 L419.6097,99.2029 L425.6174,99.5577 L431.682,100.4572 L437.7281,101.1792 L443.7133,101.3181 L449.7828,102.2643 L449.7788,102.23 L456.0202,102.8005 L462.2817,103.5439 L468.5571,104.4077 L474.7845,104.857 L481.0791,105.8867 L481.1108,106.1307 L487.3241,106.4254 L493.6299,107.4326 L499.9471,108.5266 L506.1986,109.1149 L512.4846,109.9692 L512.4889,109.9993 L515.5685,110.3974 L518.6678,110.9323 L521.7576,111.4012 L524.8654,111.9959 L527.9144,112.1805 L527.9598,112.4753 L530.9765,112.9435 L533.9639,113.2216 L536.9941,113.7781 L540.0264,114.3476 L542.995,114.5038 L542.9423,114.1876 L545.9657,115.2881 L548.8156,115.3475 L551.7974,116.1983 L554.6434,116.2341 L557.6007,116.938 L557.5953,116.908 L560.4607,117.7711 L563.199,117.9343 L566.0123,118.5105 L568.8319,119.1214 L571.6061,119.4822 L571.6423,119.6636 L574.2616,120.0111 L576.9428,120.6686 L579.5239,120.8246 L582.2544,121.7286 L584.8855,122.1353 L584.9383,122.3732 L587.4139,122.8804 L589.9157,123.5057 L592.2957,123.5824 L594.765,124.0612 L597.3134,124.8964 L597.2463,124.6285 L599.5973,125.4446 L601.8726,125.9589 L604.2576,126.911 L606.4554,127.1155 L608.7644,127.7644 L608.7223,127.6179 L610.8621,128.4567 L612.8219,128.6692 L614.9097,129.3271 L617.1228,130.4208 L619.1129,130.7384 L619.1802,130.9199 L622.6038,132.2968 L625.818,133.1089 L629.2945,134.6284 L632.7138,135.9937 L636,137 L635.8982,136.8163 L639.1719,138.7316 L642.4123,140.5867 L645.7182,142.5599 L648.7695,144.0737 L651.963,145.8442 L652.0836,146.0107 L654.8108,147.8118 L657.7707,149.9342 L661.0707,152.5262 L663.7447,154.2538 L666.9237,156.6788 L667.072,156.8496 L669.6892,159.0947 L672.2563,161.2819 L674.9366,163.5996 L677.8785,166.2189 L680.4502,168.4114 L680.3566,168.3168 L682.9672,170.9061 L684.9413,172.8522 L687.6391,175.5296 L689.9294,177.7953 L692.11,179.95 " fill="none" style="stroke: #A80036; stroke-width: 1.0;"/><polygon fill="none" points="418.5,106.04,418.5294,106.1036,414.5941,104.1366,410.831,102.5425,407.0119,100.8269,403.0083,98.7121,399.26,97.15,399.2538,97.1248,403.3421,96.0019,407.4615,95.0059,411.6026,94.0979,415.6691,92.8862,419.84,92.1,420.0237,92.1177,419.3629,94.8679,419.2384,97.6697,419.1793,100.4778,418.7395,103.2493,418.5,106.04" style="stroke: #A80036; stroke-width: 1.0;"/><!--
@startuml AccessModifierInternal
skinparam classAttributeIconSize 0
skinparam handwritten true
skinparam class {
    BackgroundColor White
    BorderColor #000
}

package Assembly1 #DDF {
    class Mere #BDD7EE {
        internal MethodeAAcceder()
    }

    class FilleAssembly1 #A9D18E {

    }

    Mere <|- - FilleAssembly1

    class AutreClasseAssembly1 #A9D18E {

    }
}

package Assembly2 #DFF {
    class FilleAssembly2 #EB935B {

    }

    Mere <|- - FilleAssembly2

    class AutreClasseAssembly2 #EB935B {

    }
}

@enduml

PlantUML version 1.2019.09(Mon Aug 26 12:19:51 EDT 2019)
(GPL source distribution)
Java Runtime: OpenJDK Runtime Environment
JVM: OpenJDK 64-Bit Server VM
Java Version: 13.0.2+8
Operating System: Mac OS X
OS Version: 10.15.4
Default Encoding: UTF-8
Language: fr
Country: CA
--></g></svg>