<?xml version="1.0" encoding="us-ascii" standalone="no"?><svg xmlns="http://www.w3.org/2000/svg" xmlns:xlink="http://www.w3.org/1999/xlink" contentStyleType="text/css" height="293px" preserveAspectRatio="none" style="width:799px;height:293px;background:#FFFFFF;" version="1.1" viewBox="0 0 799 293" width="799px" zoomAndPan="magnify"><defs/><g><!--class IFormeGeometrique--><g id="elem_IFormeGeometrique"><polygon fill="#BDD7EE" points="327,7,327,7.2102,336.8125,6.5857,346.625,7.1933,356.4375,7.3997,366.25,6.2866,376.0625,6.9223,385.875,6.5735,395.6875,6.6165,405.5,6.9318,415.3125,6.3086,425.125,7.5536,434.9375,6.3697,444.75,6.8022,454.5625,7.4319,464.375,6.9142,474.1875,7.0682,484,7,483.9959,6.9902,484.3763,7.2014,484.7376,7.3665,485.1354,7.6197,485.4998,7.7924,485.7678,7.7322,485.977,7.8189,485.9926,8.1183,486.2034,8.4985,486.4234,8.8825,486.1315,9.0545,486.5,9.5,487.1785,9.5,486.2035,19.2773,487.0338,29.0547,486.005,38.832,486.4315,48.6094,487.2416,58.3867,486.4513,68.1641,486.6053,77.9414,486.5,87.7188,486.6043,87.7619,486.4817,88.1254,486.2059,88.4254,486.1491,88.816,485.7379,89.0599,485.7678,89.4865,485.804,89.5741,485.4841,89.8018,485.1174,89.9163,484.7853,90.1146,484.2919,89.9235,484,90.2188,484,89.5666,474.1875,89.5973,464.375,90.1599,454.5625,90.0222,444.75,90.9002,434.9375,90.0441,425.125,89.8757,415.3125,90.447,405.5,89.5519,395.6875,89.6996,385.875,90.8677,376.0625,90.6544,366.25,90.9532,356.4375,89.897,346.625,90.5379,336.8125,90.8092,327,90.2188,326.9397,90.0733,326.6342,90.0428,326.309,89.9647,326.0225,89.9801,325.5853,89.6317,325.2322,89.4865,325.3747,89.5455,324.9152,89.0623,324.7308,88.693,324.948,88.4901,324.4257,87.9808,324.5,87.7188,325.009,87.7188,324.7066,77.9414,324.2321,68.1641,324.1462,58.3867,324.9588,48.6094,324.2007,38.832,325.0919,29.0547,323.9473,19.2773,324.5,9.5,324.6901,9.5788,324.7956,9.2082,324.8683,8.8241,324.9539,8.4454,325.3096,8.1785,325.2322,7.7322,325.3105,7.9212,325.6074,7.6379,325.9736,7.5219,326.2763,7.2528,326.7378,7.3671,327,7" style="stroke:#000000;stroke-width:0.5;"/><polygon fill="#B4A7E5" points="351.9108,25.6756,350.2984,27.8788,348.3912,31.1057,345.6636,33.2804,342.7974,34.4696,340.512,34.5728,337.5747,33.0855,334.8032,32.1139,332.6995,30.1412,331.5961,27.8828,330.9417,26.0845,330.3006,23.7357,329.26,21.7145,330.0596,19.741,330.7602,17.5792,333.3893,15.8695,335.239,13.6511,337.5284,12.9144,340.2501,12.2801,343.7404,12.657,345.6521,13.5585,347.8747,13.9672,350.5772,16.736,351.5193,19.659,351.9286,21.6534,351.465,24.9399" style="stroke:#181818;stroke-width:1.0;"/><path d="M341.8031,19.6406 L341.8031,26.2969 L343.5219,26.2969 Q344.1313,26.2969 344.3969,26.5313 Q344.6625,26.7656 344.6625,27.1563 Q344.6625,27.5313 344.3969,27.7656 Q344.1313,28 343.5219,28 L338.3813,28 Q337.7719,28 337.5063,27.7656 Q337.2406,27.5313 337.2406,27.1406 Q337.2406,26.7656 337.5063,26.5313 Q337.7719,26.2969 338.3813,26.2969 L340.1,26.2969 L340.1,19.6406 L338.3813,19.6406 Q337.7719,19.6406 337.5063,19.4063 Q337.2406,19.1719 337.2406,18.7813 Q337.2406,18.4063 337.5063,18.1719 Q337.7719,17.9375 338.3813,17.9375 L343.5219,17.9375 Q344.1313,17.9375 344.3969,18.1719 Q344.6625,18.4063 344.6625,18.7813 Q344.6625,19.1719 344.3969,19.4063 Q344.1313,19.6406 343.5219,19.6406 L341.8031,19.6406 Z " fill="#000000"/><text fill="#000000" font-family="sans-serif" font-size="14" font-style="italic" lengthAdjust="spacing" textLength="127" x="355.15" y="28.7285">IFormeGeometrique</text><path d="M325.5,39 L325.5,39.2802 L335.5,38.4476 L345.5,39.2577 L355.5,39.5329 L365.5,38.0488 L375.5,38.8964 L385.5,38.4313 L395.5,38.4887 L405.5,38.9091 L415.5,38.0782 L425.5,39.7382 L435.5,38.1596 L445.5,38.7363 L455.5,39.5759 L465.5,38.8856 L475.5,39.091 L485.5,39 " fill="#BDD7EE" style="stroke:#000000;stroke-width:0.5;"/><path d="M325.5,47 L325.5,47.2802 L335.5,46.4476 L345.5,47.2577 L355.5,47.5329 L365.5,46.0488 L375.5,46.8964 L385.5,46.4313 L395.5,46.4887 L405.5,46.9091 L415.5,46.0782 L425.5,47.7382 L435.5,46.1596 L445.5,46.7363 L455.5,47.5759 L465.5,46.8856 L475.5,47.091 L485.5,47 " fill="#BDD7EE" style="stroke:#000000;stroke-width:0.5;"/><text fill="#000000" font-family="sans-serif" font-size="14" font-style="italic" lengthAdjust="spacing" textLength="74" x="330.5" y="65.5332">+Dessiner()</text><text fill="#000000" font-family="sans-serif" font-size="14" font-style="italic" lengthAdjust="spacing" textLength="150" x="330.5" y="83.1426">+CalculerAire() : double</text></g><!--class Carre--><g id="elem_Carre"><polygon fill="#A9D18E" points="9.5,159,9.5,159.2102,19.5,158.5857,29.5,159.1933,39.5,159.3997,49.5,158.2866,59.5,158.9223,69.5,158.5735,79.5,158.6165,89.5,158.9318,99.5,158.3086,109.5,159.5536,119.5,158.3697,129.5,158.8022,139.5,159.4319,149.5,158.9142,159.5,159.0682,169.5,158.9681,179.5,159.1785,189.5,159.2391,199.5,159.5857,209.5,159.6711,219.5,159.6793,229.5,159.2546,239.5,159.4636,249.5,159,249.5896,159.2163,249.7616,158.9244,250.2937,159.5018,250.5228,159.348,250.9823,159.7502,251.2678,159.7322,251.1153,159.6691,251.3931,160.077,251.789,160.5339,251.6921,160.7867,251.886,161.1599,252,161.5,252.3386,161.5,252.4162,171.8125,251.9961,182.125,252.2872,192.4375,251.4276,202.75,252.2844,213.0625,252.5482,223.375,252.4445,233.6875,252.613,244,251.5169,254.3125,251.3478,264.625,252,274.9375,251.8086,274.8582,251.8354,275.2835,251.6466,275.6195,251.7705,276.0851,251.3604,276.3294,251.2678,276.7053,251.224,276.5996,250.9433,276.922,250.4756,276.7928,250.1409,276.9847,249.9363,277.4909,249.5,277.4375,249.5,277.8732,239.5,278.172,229.5,277.1157,219.5,277.7567,209.5,278.0279,199.5,276.9651,189.5,277.3416,179.5,277.5635,169.5,278.0893,159.5,277.4333,149.5,277.9001,139.5,276.8837,129.5,276.7602,119.5,277.9411,109.5,276.7206,99.5,277.9465,89.5,277.6441,79.5,277.1696,69.5,277.0837,59.5,277.8963,49.5,277.1382,39.5,278.0294,29.5,276.8848,19.5,278.0549,9.5,277.4375,9.5618,277.5866,9.1777,277.3665,8.7989,277.1591,8.532,277.2219,8.1641,277.0407,7.7322,276.7053,7.7844,276.7269,7.6684,276.3859,7.3992,275.9815,7.5135,275.736,7.1941,275.3108,7,274.9375,7.1726,274.9375,6.3916,264.625,6.5948,254.3125,7.5307,244,7.4298,233.6875,6.9571,223.375,6.6778,213.0625,6.7811,202.75,6.3138,192.4375,7.4147,182.125,7.7396,171.8125,7,161.5,7.1621,161.5671,7.3605,161.2351,7.2508,160.7755,7.4662,160.4505,7.4664,160.0363,7.7322,159.7322,7.7685,159.8197,8.1173,159.6618,8.5098,159.6095,8.7636,159.2222,9.1293,159.1051,9.5,159" style="stroke:#000000;stroke-width:0.5;"/><polygon fill="#ADD1B2" points="118.3108,177.6756,116.6984,179.8788,114.7912,183.1057,112.0636,185.2804,109.1974,186.4696,106.912,186.5728,103.9747,185.0855,101.2032,184.1139,99.0995,182.1412,97.9961,179.8828,97.3417,178.0845,96.7006,175.7357,95.66,173.7145,96.4596,171.741,97.1602,169.5792,99.7893,167.8695,101.639,165.6511,103.9284,164.9144,106.6501,164.2801,110.1404,164.657,112.0521,165.5585,114.2747,165.9672,116.9772,168.736,117.9193,171.659,118.3286,173.6534,117.865,176.9399" style="stroke:#181818;stroke-width:1.0;"/><path d="M110.0156,170.875 Q110.1719,170.6563 110.3594,170.5469 Q110.5469,170.4375 110.7656,170.4375 Q111.1406,170.4375 111.375,170.6953 Q111.6094,170.9531 111.6094,171.5625 L111.6094,173.0156 Q111.6094,173.625 111.375,173.8906 Q111.1406,174.1563 110.7656,174.1563 Q110.4219,174.1563 110.2188,173.9531 Q110.0156,173.7656 109.9063,173.25 Q109.8594,172.8906 109.6719,172.7031 Q109.3438,172.3281 108.7344,172.1094 Q108.125,171.8906 107.5,171.8906 Q106.7344,171.8906 106.1016,172.2188 Q105.4688,172.5469 104.9766,173.2969 Q104.4844,174.0469 104.4844,175.0781 L104.4844,176.1719 Q104.4844,177.4063 105.375,178.2266 Q106.2656,179.0469 107.8594,179.0469 Q108.7969,179.0469 109.4531,178.7969 Q109.8438,178.6406 110.2656,178.2031 Q110.5313,177.9375 110.6797,177.8594 Q110.8281,177.7813 111.0313,177.7813 Q111.3594,177.7813 111.6172,178.0391 Q111.875,178.2969 111.875,178.6406 Q111.875,178.9844 111.5313,179.3906 Q111.0313,179.9688 110.2344,180.2969 Q109.1563,180.75 107.8594,180.75 Q106.3438,180.75 105.1406,180.125 Q104.1563,179.625 103.4688,178.5547 Q102.7813,177.4844 102.7813,176.2031 L102.7813,175.0469 Q102.7813,173.7188 103.3984,172.5703 Q104.0156,171.4219 105.1094,170.8047 Q106.2031,170.1875 107.4375,170.1875 Q108.1719,170.1875 108.8203,170.3516 Q109.4688,170.5156 110.0156,170.875 Z " fill="#000000"/><text fill="#000000" font-family="sans-serif" font-size="14" lengthAdjust="spacing" textLength="36" x="127.75" y="180.7285">Carre</text><path d="M8,191 L8,191.2802 L18.125,190.4476 L28.25,191.2577 L38.375,191.5329 L48.5,190.0488 L58.625,190.8964 L68.75,190.4313 L78.875,190.4887 L89,190.9091 L99.125,190.0782 L109.25,191.7382 L119.375,190.1596 L129.5,190.7363 L139.625,191.5759 L149.75,190.8856 L159.875,191.091 L170,190.9574 L180.125,191.238 L190.25,191.3188 L200.375,191.7809 L210.5,191.8947 L220.625,191.9057 L230.75,191.3395 L240.875,191.6181 L251,191 " fill="#A9D18E" style="stroke:#000000;stroke-width:0.5;"/><text fill="#000000" font-family="sans-serif" font-size="14" lengthAdjust="spacing" textLength="233" x="13" y="209.5332">+LongueurCote : double &#171;get&#187; &#171;set&#187;</text><text fill="#000000" font-family="sans-serif" font-size="14" lengthAdjust="spacing" textLength="224" x="13" y="227.1426">+PointDepart : Point2D &#171;get&#187; &#171;set&#187;</text><path d="M8,234.2188 L8,234.499 L18.125,233.6663 L28.25,234.4765 L38.375,234.7517 L48.5,233.2676 L58.625,234.1151 L68.75,233.6501 L78.875,233.7074 L89,234.1279 L99.125,233.2969 L109.25,234.9569 L119.375,233.3784 L129.5,233.9551 L139.625,234.7947 L149.75,234.1044 L159.875,234.3097 L170,234.1762 L180.125,234.4568 L190.25,234.5376 L200.375,234.9997 L210.5,235.1135 L220.625,235.1244 L230.75,234.5583 L240.875,234.8369 L251,234.2188 " fill="#A9D18E" style="stroke:#000000;stroke-width:0.5;"/><text fill="#000000" font-family="sans-serif" font-size="14" lengthAdjust="spacing" textLength="146" x="13" y="252.752">+Dessiner() &#171;override&#187;</text><text fill="#000000" font-family="sans-serif" font-size="14" lengthAdjust="spacing" textLength="222" x="13" y="270.3613">+CalculerAire() : double &#171;override&#187;</text></g><!--class Rectangle--><g id="elem_Rectangle"><polygon fill="#A9D18E" points="290,150,290,150.2102,300.0435,149.5857,310.087,150.1933,320.1304,150.3997,330.1739,149.2866,340.2174,149.9223,350.2609,149.5735,360.3043,149.6165,370.3478,149.9318,380.3913,149.3086,390.4348,150.5536,400.4783,149.3697,410.5217,149.8022,420.5652,150.4319,430.6087,149.9142,440.6522,150.0682,450.6957,149.9681,460.7391,150.1785,470.7826,150.2391,480.8261,150.5857,490.8696,150.6711,500.913,150.6793,510.9565,150.2546,521,150,521.0591,150.1428,521.4431,150.3627,521.6151,150.0708,522.1472,150.6483,522.3764,150.4945,522.7678,150.7322,522.9322,150.8003,522.7618,151.0226,523.0396,151.4306,523.4355,151.8875,523.3385,152.1402,523.5,152.5,523.6053,152.5,523.8386,162.5805,523.9162,172.6611,523.4961,182.7416,523.7872,192.8221,522.9276,202.9026,523.7844,212.9832,524.0482,223.0637,523.9445,233.1442,524.113,243.2248,523.0169,253.3053,522.8478,263.3858,522.8786,273.4663,523.5,283.5469,523.4819,283.5394,523.293,283.8754,523.417,284.3409,523.0069,284.5853,522.8086,284.9173,522.7678,285.3146,522.7969,285.3849,522.3292,285.2557,521.9944,285.4477,521.7899,285.9538,521.4091,286.0346,521,286.0469,521,286.7814,510.9565,285.7251,500.913,286.3661,490.8696,286.6373,480.8261,285.5745,470.7826,285.951,460.7391,286.1729,450.6957,286.6986,440.6522,286.0427,430.6087,286.5094,420.5652,285.4931,410.5217,285.3696,400.4783,286.5505,390.4348,285.3299,380.3913,286.5558,370.3478,286.2535,360.3043,285.779,350.2609,285.6931,340.2174,286.5056,330.1739,285.7475,320.1304,286.6387,310.087,285.4941,300.0435,286.6643,290,286.0469,290.0618,286.196,289.6777,285.9759,289.2989,285.7685,289.032,285.8313,288.6641,285.65,288.2322,285.3146,288.2844,285.3362,288.1684,284.9953,287.8992,284.5909,288.0135,284.3454,287.6941,283.9202,287.5,283.5469,287.6726,283.5469,286.8916,273.4663,287.0948,263.3858,288.0307,253.3053,287.9298,243.2248,287.4571,233.1442,287.1778,223.0637,287.2811,212.9832,286.8138,202.9026,287.9147,192.8221,288.2396,182.7416,288.0264,172.6611,288.1949,162.5805,287.5,152.5,287.4579,152.4826,287.6733,152.1576,287.6735,151.7435,288.0268,151.4756,288.1618,151.1173,288.2322,150.7322,288.3027,150.9023,288.5565,150.5151,288.9222,150.3979,289.3495,150.4295,289.7188,150.3212,290,150" style="stroke:#000000;stroke-width:0.5;"/><polygon fill="#ADD1B2" points="380.3108,168.6756,378.6984,170.8788,376.7912,174.1057,374.0636,176.2804,371.1974,177.4696,368.912,177.5728,365.9747,176.0855,363.2032,175.1139,361.0995,173.1412,359.9961,170.8828,359.3417,169.0845,358.7006,166.7357,357.66,164.7145,358.4596,162.741,359.1602,160.5792,361.7893,158.8695,363.639,156.6511,365.9284,155.9144,368.6501,155.2801,372.1404,155.657,374.0521,156.5585,376.2747,156.9672,378.9772,159.736,379.9193,162.659,380.3286,164.6534,379.865,167.9399" style="stroke:#181818;stroke-width:1.0;"/><path d="M372.0156,161.875 Q372.1719,161.6563 372.3594,161.5469 Q372.5469,161.4375 372.7656,161.4375 Q373.1406,161.4375 373.375,161.6953 Q373.6094,161.9531 373.6094,162.5625 L373.6094,164.0156 Q373.6094,164.625 373.375,164.8906 Q373.1406,165.1563 372.7656,165.1563 Q372.4219,165.1563 372.2188,164.9531 Q372.0156,164.7656 371.9063,164.25 Q371.8594,163.8906 371.6719,163.7031 Q371.3438,163.3281 370.7344,163.1094 Q370.125,162.8906 369.5,162.8906 Q368.7344,162.8906 368.1016,163.2188 Q367.4688,163.5469 366.9766,164.2969 Q366.4844,165.0469 366.4844,166.0781 L366.4844,167.1719 Q366.4844,168.4063 367.375,169.2266 Q368.2656,170.0469 369.8594,170.0469 Q370.7969,170.0469 371.4531,169.7969 Q371.8438,169.6406 372.2656,169.2031 Q372.5313,168.9375 372.6797,168.8594 Q372.8281,168.7813 373.0313,168.7813 Q373.3594,168.7813 373.6172,169.0391 Q373.875,169.2969 373.875,169.6406 Q373.875,169.9844 373.5313,170.3906 Q373.0313,170.9688 372.2344,171.2969 Q371.1563,171.75 369.8594,171.75 Q368.3438,171.75 367.1406,171.125 Q366.1563,170.625 365.4688,169.5547 Q364.7813,168.4844 364.7813,167.2031 L364.7813,166.0469 Q364.7813,164.7188 365.3984,163.5703 Q366.0156,162.4219 367.1094,161.8047 Q368.2031,161.1875 369.4375,161.1875 Q370.1719,161.1875 370.8203,161.3516 Q371.4688,161.5156 372.0156,161.875 Z " fill="#000000"/><text fill="#000000" font-family="sans-serif" font-size="14" lengthAdjust="spacing" textLength="64" x="389.75" y="171.7285">Rectangle</text><path d="M288.5,182 L288.5,182.2802 L298.6739,181.4476 L308.8478,182.2577 L319.0217,182.5329 L329.1957,181.0488 L339.3696,181.8964 L349.5435,181.4313 L359.7174,181.4887 L369.8913,181.9091 L380.0652,181.0782 L390.2391,182.7382 L400.413,181.1596 L410.587,181.7363 L420.7609,182.5759 L430.9348,181.8856 L441.1087,182.091 L451.2826,181.9574 L461.4565,182.238 L471.6304,182.3188 L481.8043,182.7809 L491.9783,182.8947 L502.1522,182.9057 L512.3261,182.3395 L522.5,182 " fill="#A9D18E" style="stroke:#000000;stroke-width:0.5;"/><text fill="#000000" font-family="sans-serif" font-size="14" lengthAdjust="spacing" textLength="192" x="293.5" y="200.5332">+Hauteur : double &#171;get&#187; &#171;set&#187;</text><text fill="#000000" font-family="sans-serif" font-size="14" lengthAdjust="spacing" textLength="192" x="293.5" y="218.1426">+Largeur : double &#171;get&#187; &#171;set&#187;</text><text fill="#000000" font-family="sans-serif" font-size="14" lengthAdjust="spacing" textLength="224" x="293.5" y="235.752">+PointDepart : Point2D &#171;get&#187; &#171;set&#187;</text><path d="M288.5,242.8281 L288.5,243.1084 L298.6739,242.2757 L308.8478,243.0858 L319.0217,243.361 L329.1957,241.8769 L339.3696,242.7245 L349.5435,242.2595 L359.7174,242.3168 L369.8913,242.7372 L380.0652,241.9063 L390.2391,243.5663 L400.413,241.9878 L410.587,242.5644 L420.7609,243.4041 L430.9348,242.7138 L441.1087,242.9191 L451.2826,242.7855 L461.4565,243.0662 L471.6304,243.147 L481.8043,243.609 L491.9783,243.7229 L502.1522,243.7338 L512.3261,243.1676 L522.5,242.8281 " fill="#A9D18E" style="stroke:#000000;stroke-width:0.5;"/><text fill="#000000" font-family="sans-serif" font-size="14" lengthAdjust="spacing" textLength="146" x="293.5" y="261.3613">+Dessiner() &#171;override&#187;</text><text fill="#000000" font-family="sans-serif" font-size="14" lengthAdjust="spacing" textLength="222" x="293.5" y="278.9707">+CalculerAire() : double &#171;override&#187;</text></g><!--class Cercle--><g id="elem_Cercle"><polygon fill="#A9D18E" points="561,159,561,159.2102,570.9565,158.5857,580.913,159.1933,590.8696,159.3997,600.8261,158.2866,610.7826,158.9223,620.7391,158.5735,630.6957,158.6165,640.6522,158.9318,650.6087,158.3086,660.5652,159.5536,670.5217,158.3697,680.4783,158.8022,690.4348,159.4319,700.3913,158.9142,710.3478,159.0682,720.3043,158.9681,730.2609,159.1785,740.2174,159.2391,750.1739,159.5857,760.1304,159.6711,770.087,159.6793,780.0435,159.2546,790,159,790.0591,159.1428,790.4431,159.3627,790.6151,159.0708,791.1472,159.6483,791.3764,159.4945,791.7678,159.7322,791.9322,159.8003,791.7618,160.0226,792.0396,160.4306,792.4355,160.8875,792.3385,161.1402,792.5,161.5,792.6053,161.5,792.8386,171.8125,792.9162,182.125,792.4961,192.4375,792.7872,202.75,791.9276,213.0625,792.7844,223.375,793.0482,233.6875,792.9445,244,793.113,254.3125,792.0169,264.625,792.5,274.9375,792.2992,274.8543,792.1622,275.2118,792.189,275.6371,792.0001,275.9731,792.1241,276.4386,791.7678,276.7053,791.7455,276.6515,791.3705,276.7461,791.0898,277.0685,790.622,276.9392,790.2873,277.1312,790,277.4375,790,278.0865,780.0435,277.8732,770.087,278.172,760.1304,277.1157,750.1739,277.7567,740.2174,278.0279,730.2609,276.9651,720.3043,277.3416,710.3478,277.5635,700.3913,278.0893,690.4348,277.4333,680.4783,277.9001,670.5217,276.8837,660.5652,276.7602,650.6087,277.9411,640.6522,276.7206,630.6957,277.9465,620.7391,277.6441,610.7826,277.1696,600.8261,277.0837,590.8696,277.8963,580.913,277.1382,570.9565,278.0294,561,277.4375,560.9295,277.2673,560.7252,277.4812,560.3547,277.2938,559.9706,277.0736,559.5918,276.8663,559.2322,276.7053,559.456,276.798,559.2747,276.43,558.9915,276.0198,558.8755,275.6788,558.6063,275.2744,558.5,274.9375,559.2165,274.9375,558.6549,264.625,558.6726,254.3125,557.8916,244,558.0948,233.6875,559.0307,223.375,558.9298,213.0625,558.4571,202.75,558.1778,192.4375,558.2811,182.125,557.8138,171.8125,558.5,161.5,558.6277,161.5529,558.8742,161.2408,558.955,160.86,559.1534,160.528,559.0437,160.0683,559.2322,159.7322,559.2434,159.7591,559.5363,159.4664,559.9756,159.5268,560.3244,159.3689,560.7169,159.3166,561,159" style="stroke:#000000;stroke-width:0.5;"/><polygon fill="#ADD1B2" points="661.8108,177.6756,660.1984,179.8788,658.2912,183.1057,655.5636,185.2804,652.6974,186.4696,650.412,186.5728,647.4747,185.0855,644.7032,184.1139,642.5995,182.1412,641.4961,179.8828,640.8417,178.0845,640.2006,175.7357,639.16,173.7145,639.9596,171.741,640.6602,169.5792,643.2893,167.8695,645.139,165.6511,647.4284,164.9144,650.1501,164.2801,653.6404,164.657,655.5521,165.5585,657.7747,165.9672,660.4772,168.736,661.4193,171.659,661.8286,173.6534,661.365,176.9399" style="stroke:#181818;stroke-width:1.0;"/><path d="M653.5156,170.875 Q653.6719,170.6563 653.8594,170.5469 Q654.0469,170.4375 654.2656,170.4375 Q654.6406,170.4375 654.875,170.6953 Q655.1094,170.9531 655.1094,171.5625 L655.1094,173.0156 Q655.1094,173.625 654.875,173.8906 Q654.6406,174.1563 654.2656,174.1563 Q653.9219,174.1563 653.7188,173.9531 Q653.5156,173.7656 653.4063,173.25 Q653.3594,172.8906 653.1719,172.7031 Q652.8438,172.3281 652.2344,172.1094 Q651.625,171.8906 651,171.8906 Q650.2344,171.8906 649.6016,172.2188 Q648.9688,172.5469 648.4766,173.2969 Q647.9844,174.0469 647.9844,175.0781 L647.9844,176.1719 Q647.9844,177.4063 648.875,178.2266 Q649.7656,179.0469 651.3594,179.0469 Q652.2969,179.0469 652.9531,178.7969 Q653.3438,178.6406 653.7656,178.2031 Q654.0313,177.9375 654.1797,177.8594 Q654.3281,177.7813 654.5313,177.7813 Q654.8594,177.7813 655.1172,178.0391 Q655.375,178.2969 655.375,178.6406 Q655.375,178.9844 655.0313,179.3906 Q654.5313,179.9688 653.7344,180.2969 Q652.6563,180.75 651.3594,180.75 Q649.8438,180.75 648.6406,180.125 Q647.6563,179.625 646.9688,178.5547 Q646.2813,177.4844 646.2813,176.2031 L646.2813,175.0469 Q646.2813,173.7188 646.8984,172.5703 Q647.5156,171.4219 648.6094,170.8047 Q649.7031,170.1875 650.9375,170.1875 Q651.6719,170.1875 652.3203,170.3516 Q652.9688,170.5156 653.5156,170.875 Z " fill="#000000"/><text fill="#000000" font-family="sans-serif" font-size="14" lengthAdjust="spacing" textLength="41" x="671.25" y="180.7285">Cercle</text><path d="M559.5,191 L559.5,191.2802 L569.587,190.4476 L579.6739,191.2577 L589.7609,191.5329 L599.8478,190.0488 L609.9348,190.8964 L620.0217,190.4313 L630.1087,190.4887 L640.1957,190.9091 L650.2826,190.0782 L660.3696,191.7382 L670.4565,190.1596 L680.5435,190.7363 L690.6304,191.5759 L700.7174,190.8856 L710.8043,191.091 L720.8913,190.9574 L730.9783,191.238 L741.0652,191.3188 L751.1522,191.7809 L761.2391,191.8947 L771.3261,191.9057 L781.413,191.3395 L791.5,191 " fill="#A9D18E" style="stroke:#000000;stroke-width:0.5;"/><text fill="#000000" font-family="sans-serif" font-size="14" lengthAdjust="spacing" textLength="183" x="564.5" y="209.5332">+Rayon : double &#171;get&#187; &#171;set&#187;</text><text fill="#000000" font-family="sans-serif" font-size="14" lengthAdjust="spacing" textLength="192" x="564.5" y="227.1426">+Centre : Point2D &#171;get&#187; &#171;set&#187;</text><path d="M559.5,234.2188 L559.5,234.499 L569.587,233.6663 L579.6739,234.4765 L589.7609,234.7517 L599.8478,233.2676 L609.9348,234.1151 L620.0217,233.6501 L630.1087,233.7074 L640.1957,234.1279 L650.2826,233.2969 L660.3696,234.9569 L670.4565,233.3784 L680.5435,233.9551 L690.6304,234.7947 L700.7174,234.1044 L710.8043,234.3097 L720.8913,234.1762 L730.9783,234.4568 L741.0652,234.5376 L751.1522,234.9997 L761.2391,235.1135 L771.3261,235.1244 L781.413,234.5583 L791.5,234.2188 " fill="#A9D18E" style="stroke:#000000;stroke-width:0.5;"/><text fill="#000000" font-family="sans-serif" font-size="14" lengthAdjust="spacing" textLength="146" x="564.5" y="252.752">+Dessiner() &#171;override&#187;</text><text fill="#000000" font-family="sans-serif" font-size="14" lengthAdjust="spacing" textLength="222" x="564.5" y="270.3613">+CalculerAire() : double &#171;override&#187;</text></g><!--reverse link IFormeGeometrique to Carre--><g id="link_IFormeGeometrique_Carre"><path d="M323.302,99.3885 L323.4474,99.6281 L314.0943,104.33 L305.5935,110.4364 L296.8152,116.0854 L287.1241,120.2304 L278.6428,126.3688 L269.4804,131.385 L260.5891,136.8478 L251.8861,142.621 L242.5339,147.3244 L234.4741,154.1573 L225.17,158.94 " fill="none" style="stroke:#181818;stroke-width:1.0;stroke-dasharray:7.0,7.0;"/><polygon fill="none" points="338.69,90.05,338.7055,90.1183,334.9592,90.7572,331.3039,91.7965,327.619,92.7054,323.8365,93.1855,320.1891,94.2592,320.167,94.2458,321.3127,96.2372,322.5701,98.2964,323.9051,100.4026,324.9727,102.3466,326.4148,104.5179,326.5555,104.6373,328.7096,101.4884,331.2746,98.6881,333.8897,95.9303,336.2132,92.9251,338.69,90.05" style="stroke:#181818;stroke-width:1.0;"/></g><!--reverse link IFormeGeometrique to Rectangle--><g id="link_IFormeGeometrique_Rectangle"><path d="M405.5,108.05 L405.5934,108.05 L405.3159,116.382 L405.5859,124.714 L405.6776,133.046 L405.1829,141.378 L405.5,149.71 " fill="none" style="stroke:#181818;stroke-width:1.0;stroke-dasharray:7.0,7.0;"/><polygon fill="none" points="405.5,90.05,405.5665,90.0722,404.169,93.6063,403.1611,97.2704,402.0264,100.8921,400.4744,104.3748,399.5,108.05,399.5,108.0241,401.9,107.9078,404.3,107.9222,406.7,108.0273,409.1,107.8195,411.5,108.05,411.6751,108.1084,410.1007,104.3836,409.0375,100.8292,408.0366,97.2955,406.6729,93.641,405.5,90.05" style="stroke:#181818;stroke-width:1.0;"/></g><!--reverse link IFormeGeometrique to Cercle--><g id="link_IFormeGeometrique_Cercle"><path d="M486.1559,99.5388 L486.3036,99.7769 L494.5696,104.4694 L503.7016,110.558 L512.5516,116.1919 L520.4741,120.3309 L529.6258,126.4513 L538.0856,131.4562 L546.8208,136.905 L555.7473,142.6624 L564.0142,147.3564 L573.5942,154.1672 L581.91,158.94 " fill="none" style="stroke:#181818;stroke-width:1.0;stroke-dasharray:7.0,7.0;"/><polygon fill="none" points="470.86,90.05,470.9139,90.0948,473.1804,92.8792,475.7627,95.9262,478.2422,98.8876,480.3835,101.5678,482.9929,104.6374,482.9709,104.6237,484.1373,102.523,485.4147,100.4911,486.7691,98.5071,487.8578,96.3581,489.3188,94.4401,489.3615,94.6197,485.5784,93.3577,481.92,92.62,478.2768,91.9461,474.5451,90.9002,470.86,90.05" style="stroke:#181818;stroke-width:1.0;"/></g><!--SRC=[nP9FJm8n4CNl_HHDk6XCoEh5FzcGm2ug2GU31y-b-rmQbbQdKuqYtztAaWM36pnfBvFslPd-9ZD-RkoJ8hMGkbBUzvd9J0DZf9szD- -GYV2DPQPiyKg66LOo1OWTRPqkbqB6Cr1wNf8BjiXSvKW-p0oZLXmLeFgraoI9M0bXB8CUbOOSNJjQu0PkWOZn720xWpm_7mutTKza3k-D1HqTowMQUYQbURNHCbNfK87wXX3rArcuCAsmQuo_rPoP8ehL-vVvwSMs-jZPCY14FiOsFqrBSAyNe_-A6- -TYzmvOlCShUlRMTxYtQ5EK_S28bEWKTkulraRyWaqArjM-_ItAiujq27miQBo5xR_wYy3wH-QcwWtPmynPx1C-2FS_MLDFxhTUhFQn6PuhTdhxeKGdm00]--></g></svg>