<?xml version="1.0" encoding="UTF-8" standalone="no"?><svg xmlns="http://www.w3.org/2000/svg" xmlns:xlink="http://www.w3.org/1999/xlink" contentScriptType="application/ecmascript" contentStyleType="text/css" height="92px" preserveAspectRatio="none" style="width:194px;height:92px;" version="1.1" viewBox="0 0 194 92" width="194px" zoomAndPan="magnify"><defs><filter height="300%" id="f1q3dh5vsmlx0d" width="300%" x="-1" y="-1"><feGaussianBlur result="blurOut" stdDeviation="2.0"/><feColorMatrix in="blurOut" result="blurOut2" type="matrix" values="0 0 0 0 0 0 0 0 0 0 0 0 0 0 0 0 0 0 .4 0"/><feOffset dx="4.0" dy="4.0" in="blurOut2" result="blurOut3"/><feBlend in="SourceGraphic" in2="blurOut3" mode="normal"/></filter></defs><g><!--class Rapport--><rect fill="#FFFFFF" filter="url(#f1q3dh5vsmlx0d)" height="73.9102" id="Rapport" style="stroke: #000000; stroke-width: 1.5;" width="177" x="6" y="8"/><ellipse cx="66.75" cy="24" fill="#ADD1B2" rx="11" ry="11" style="stroke: #000000; stroke-width: 1.0;"/><path d="M69.2231,30.1431 Q68.6421,30.4419 68.0029,30.5913 Q67.3638,30.7407 66.6582,30.7407 Q64.1514,30.7407 62.8315,29.0889 Q61.5117,27.437 61.5117,24.3159 Q61.5117,21.1865 62.8315,19.5347 Q64.1514,17.8828 66.6582,17.8828 Q67.3638,17.8828 68.0112,18.0322 Q68.6587,18.1816 69.2231,18.4805 L69.2231,21.2031 Q68.5923,20.6221 67.9988,20.3523 Q67.4053,20.0825 66.7744,20.0825 Q65.4297,20.0825 64.7449,21.1492 Q64.0601,22.2158 64.0601,24.3159 Q64.0601,26.4077 64.7449,27.4744 Q65.4297,28.541 66.7744,28.541 Q67.4053,28.541 67.9988,28.2712 Q68.5923,28.0015 69.2231,27.4204 Z "/><text fill="#000000" font-family="sans-serif" font-size="12" lengthAdjust="spacingAndGlyphs" textLength="47" x="87.25" y="28.5352">Rapport</text><line style="stroke: #000000; stroke-width: 1.5;" x1="7" x2="182" y1="40" y2="40"/><line style="stroke: #000000; stroke-width: 1.5;" x1="7" x2="182" y1="48" y2="48"/><text fill="#000000" font-family="sans-serif" font-size="11" lengthAdjust="spacingAndGlyphs" textLength="165" x="12" y="62.6348">+CompilerDonnees(annee: int)</text><text fill="#000000" font-family="sans-serif" font-size="11" lengthAdjust="spacingAndGlyphs" textLength="66" x="12" y="75.5898">+Imprimer()</text><!--
@startuml Rapport
skinparam classAttributeIconSize 0
skinparam class {
    BackgroundColor White
    BorderColor #000
}
class Rapport {
    + CompilerDonnees(annee: int)
    + Imprimer()
}
@enduml

PlantUML version 1.2019.09(Mon Aug 26 12:19:51 EDT 2019)
(GPL source distribution)
Java Runtime: OpenJDK Runtime Environment
JVM: OpenJDK 64-Bit Server VM
Java Version: 13.0.2+8
Operating System: Mac OS X
OS Version: 10.15.2
Default Encoding: UTF-8
Language: fr
Country: CA
--></g></svg>