<?xml version="1.0" encoding="us-ascii" standalone="no"?><svg xmlns="http://www.w3.org/2000/svg" xmlns:xlink="http://www.w3.org/1999/xlink" contentStyleType="text/css" height="104px" preserveAspectRatio="none" style="width:227px;height:104px;background:#FFFFFF;" version="1.1" viewBox="0 0 227 104" width="227px" zoomAndPan="magnify"><defs/><g><!--class Rapport--><g id="elem_Rapport"><rect codeLine="6" fill="#FFFFFF" height="83.2188" id="Rapport" rx="2.5" ry="2.5" style="stroke:#000000;stroke-width:0.5;" width="206" x="7" y="7"/><ellipse cx="80.25" cy="23" fill="#ADD1B2" rx="11" ry="11" style="stroke:#181818;stroke-width:1.0;"/><path d="M83.0156,18.875 Q83.1719,18.6563 83.3594,18.5469 Q83.5469,18.4375 83.7656,18.4375 Q84.1406,18.4375 84.375,18.6953 Q84.6094,18.9531 84.6094,19.5625 L84.6094,21.0156 Q84.6094,21.625 84.375,21.8906 Q84.1406,22.1563 83.7656,22.1563 Q83.4219,22.1563 83.2188,21.9531 Q83.0156,21.7656 82.9063,21.25 Q82.8594,20.8906 82.6719,20.7031 Q82.3438,20.3281 81.7344,20.1094 Q81.125,19.8906 80.5,19.8906 Q79.7344,19.8906 79.1016,20.2188 Q78.4688,20.5469 77.9766,21.2969 Q77.4844,22.0469 77.4844,23.0781 L77.4844,24.1719 Q77.4844,25.4063 78.375,26.2266 Q79.2656,27.0469 80.8594,27.0469 Q81.7969,27.0469 82.4531,26.7969 Q82.8438,26.6406 83.2656,26.2031 Q83.5313,25.9375 83.6797,25.8594 Q83.8281,25.7813 84.0313,25.7813 Q84.3594,25.7813 84.6172,26.0391 Q84.875,26.2969 84.875,26.6406 Q84.875,26.9844 84.5313,27.3906 Q84.0313,27.9688 83.2344,28.2969 Q82.1563,28.75 80.8594,28.75 Q79.3438,28.75 78.1406,28.125 Q77.1563,27.625 76.4688,26.5547 Q75.7813,25.4844 75.7813,24.2031 L75.7813,23.0469 Q75.7813,21.7188 76.3984,20.5703 Q77.0156,19.4219 78.1094,18.8047 Q79.2031,18.1875 80.4375,18.1875 Q81.1719,18.1875 81.8203,18.3516 Q82.4688,18.5156 83.0156,18.875 Z " fill="#000000"/><text fill="#000000" font-family="sans-serif" font-size="14" lengthAdjust="spacing" textLength="51" x="100.75" y="28.7285">Rapport</text><line style="stroke:#000000;stroke-width:0.5;" x1="8" x2="212" y1="39" y2="39"/><line style="stroke:#000000;stroke-width:0.5;" x1="8" x2="212" y1="47" y2="47"/><text fill="#000000" font-family="sans-serif" font-size="14" lengthAdjust="spacing" textLength="194" x="13" y="65.5332">+CompilerDonnees(annee: int)</text><text fill="#000000" font-family="sans-serif" font-size="14" lengthAdjust="spacing" textLength="72" x="13" y="83.1426">+Imprimer()</text></g><!--SRC=[LOon3i8m34JtV8KbbbOicTcWB5rXO0wf1LOJEtBS1TH_1vGkt7BItRkhCt496ZB456ezcYdT5yCn2b_fXU1T_KVWxU2hKuZpGsNXQP0a2hSd6RP6T49jwSvxxrRNXfTGYgXj1tiO91TAg6TXHgnT-Da1YAtVY34NfOpQzMxz0000]--></g></svg>