<?xml version="1.0" encoding="us-ascii" standalone="no"?><svg xmlns="http://www.w3.org/2000/svg" xmlns:xlink="http://www.w3.org/1999/xlink" contentStyleType="text/css" height="363px" preserveAspectRatio="none" style="width:934px;height:363px;background:#FFFFFF;" version="1.1" viewBox="0 0 934 363" width="934px" zoomAndPan="magnify"><defs/><g><!--class Animal--><g id="elem_Animal"><rect codeLine="9" fill="#FFFFFF" height="171.2656" id="Animal" rx="2.5" ry="2.5" style="stroke:#000000;stroke-width:0.5;" width="453" x="243" y="7"/><ellipse cx="444.25" cy="23" fill="#ADD1B2" rx="11" ry="11" style="stroke:#181818;stroke-width:1.0;"/><path d="M447.0156,18.875 Q447.1719,18.6563 447.3594,18.5469 Q447.5469,18.4375 447.7656,18.4375 Q448.1406,18.4375 448.375,18.6953 Q448.6094,18.9531 448.6094,19.5625 L448.6094,21.0156 Q448.6094,21.625 448.375,21.8906 Q448.1406,22.1563 447.7656,22.1563 Q447.4219,22.1563 447.2188,21.9531 Q447.0156,21.7656 446.9063,21.25 Q446.8594,20.8906 446.6719,20.7031 Q446.3438,20.3281 445.7344,20.1094 Q445.125,19.8906 444.5,19.8906 Q443.7344,19.8906 443.1016,20.2188 Q442.4688,20.5469 441.9766,21.2969 Q441.4844,22.0469 441.4844,23.0781 L441.4844,24.1719 Q441.4844,25.4063 442.375,26.2266 Q443.2656,27.0469 444.8594,27.0469 Q445.7969,27.0469 446.4531,26.7969 Q446.8438,26.6406 447.2656,26.2031 Q447.5313,25.9375 447.6797,25.8594 Q447.8281,25.7813 448.0313,25.7813 Q448.3594,25.7813 448.6172,26.0391 Q448.875,26.2969 448.875,26.6406 Q448.875,26.9844 448.5313,27.3906 Q448.0313,27.9688 447.2344,28.2969 Q446.1563,28.75 444.8594,28.75 Q443.3438,28.75 442.1406,28.125 Q441.1563,27.625 440.4688,26.5547 Q439.7813,25.4844 439.7813,24.2031 L439.7813,23.0469 Q439.7813,21.7188 440.3984,20.5703 Q441.0156,19.4219 442.1094,18.8047 Q443.2031,18.1875 444.4375,18.1875 Q445.1719,18.1875 445.8203,18.3516 Q446.4688,18.5156 447.0156,18.875 Z " fill="#000000"/><text fill="#000000" font-family="sans-serif" font-size="14" lengthAdjust="spacing" textLength="42" x="464.75" y="28.7285">Animal</text><line style="stroke:#000000;stroke-width:0.5;" x1="244" x2="695" y1="39" y2="39"/><text fill="#000000" font-family="sans-serif" font-size="14" lengthAdjust="spacing" textLength="196" x="249" y="57.5332">-m_energieAccumulee : double</text><text fill="#000000" font-family="sans-serif" font-size="14" lengthAdjust="spacing" textLength="302" x="249" y="75.1426">+DateNaissance : DateTime &#171;get&#187; &#171;private set&#187;</text><text fill="#000000" font-family="sans-serif" font-size="14" lengthAdjust="spacing" textLength="230" x="249" y="92.752">+Masse : double &#171;get&#187; &#171;private set&#187;</text><line style="stroke:#000000;stroke-width:0.5;" x1="244" x2="695" y1="99.8281" y2="99.8281"/><text fill="#000000" font-family="sans-serif" font-size="14" lengthAdjust="spacing" textLength="441" x="249" y="118.3613">+Animal(dateNaissance : DateTime, masse : double, energie : double)</text><text fill="#000000" font-family="sans-serif" font-size="14" lengthAdjust="spacing" textLength="319" x="249" y="135.9707">+GagnerEnergie(energieGagneeKCalorie: double)</text><text fill="#000000" font-family="sans-serif" font-size="14" lengthAdjust="spacing" textLength="347" x="249" y="153.5801">+DepenserEnergie(energieDepenseeKCalorie: double)</text><text fill="#000000" font-family="sans-serif" font-size="14" lengthAdjust="spacing" textLength="109" x="249" y="171.1895">+EmettreUnSon()</text></g><!--class Poule--><g id="elem_Poule"><rect codeLine="19" fill="#FFFFFF" height="100.8281" id="Poule" rx="2.5" ry="2.5" style="stroke:#000000;stroke-width:0.5;" width="447" x="7" y="246.5"/><ellipse cx="208.25" cy="262.5" fill="#ADD1B2" rx="11" ry="11" style="stroke:#181818;stroke-width:1.0;"/><path d="M211.0156,258.375 Q211.1719,258.1563 211.3594,258.0469 Q211.5469,257.9375 211.7656,257.9375 Q212.1406,257.9375 212.375,258.1953 Q212.6094,258.4531 212.6094,259.0625 L212.6094,260.5156 Q212.6094,261.125 212.375,261.3906 Q212.1406,261.6563 211.7656,261.6563 Q211.4219,261.6563 211.2188,261.4531 Q211.0156,261.2656 210.9063,260.75 Q210.8594,260.3906 210.6719,260.2031 Q210.3438,259.8281 209.7344,259.6094 Q209.125,259.3906 208.5,259.3906 Q207.7344,259.3906 207.1016,259.7188 Q206.4688,260.0469 205.9766,260.7969 Q205.4844,261.5469 205.4844,262.5781 L205.4844,263.6719 Q205.4844,264.9063 206.375,265.7266 Q207.2656,266.5469 208.8594,266.5469 Q209.7969,266.5469 210.4531,266.2969 Q210.8438,266.1406 211.2656,265.7031 Q211.5313,265.4375 211.6797,265.3594 Q211.8281,265.2813 212.0313,265.2813 Q212.3594,265.2813 212.6172,265.5391 Q212.875,265.7969 212.875,266.1406 Q212.875,266.4844 212.5313,266.8906 Q212.0313,267.4688 211.2344,267.7969 Q210.1563,268.25 208.8594,268.25 Q207.3438,268.25 206.1406,267.625 Q205.1563,267.125 204.4688,266.0547 Q203.7813,264.9844 203.7813,263.7031 L203.7813,262.5469 Q203.7813,261.2188 204.3984,260.0703 Q205.0156,258.9219 206.1094,258.3047 Q207.2031,257.6875 208.4375,257.6875 Q209.1719,257.6875 209.8203,257.8516 Q210.4688,258.0156 211.0156,258.375 Z " fill="#000000"/><text fill="#000000" font-family="sans-serif" font-size="14" lengthAdjust="spacing" textLength="36" x="228.75" y="268.2285">Poule</text><line style="stroke:#000000;stroke-width:0.5;" x1="8" x2="453" y1="278.5" y2="278.5"/><line style="stroke:#000000;stroke-width:0.5;" x1="8" x2="453" y1="286.5" y2="286.5"/><text fill="#000000" font-family="sans-serif" font-size="14" lengthAdjust="spacing" textLength="435" x="13" y="305.0332">+Poule(dateNaissance : DateTime, masse : double, energie : double)</text><text fill="#000000" font-family="sans-serif" font-size="14" lengthAdjust="spacing" textLength="334" x="13" y="322.6426">+MangerGraines(masseAbsorbeeGrammes : double)</text><text fill="#000000" font-family="sans-serif" font-size="14" lengthAdjust="spacing" textLength="109" x="13" y="340.252">+EmettreUnSon()</text></g><!--class Lion--><g id="elem_Lion"><rect codeLine="25" fill="#FFFFFF" height="118.4375" id="Lion" rx="2.5" ry="2.5" style="stroke:#000000;stroke-width:0.5;" width="438" x="489.5" y="238"/><ellipse cx="690.75" cy="254" fill="#ADD1B2" rx="11" ry="11" style="stroke:#181818;stroke-width:1.0;"/><path d="M693.5156,249.875 Q693.6719,249.6563 693.8594,249.5469 Q694.0469,249.4375 694.2656,249.4375 Q694.6406,249.4375 694.875,249.6953 Q695.1094,249.9531 695.1094,250.5625 L695.1094,252.0156 Q695.1094,252.625 694.875,252.8906 Q694.6406,253.1563 694.2656,253.1563 Q693.9219,253.1563 693.7188,252.9531 Q693.5156,252.7656 693.4063,252.25 Q693.3594,251.8906 693.1719,251.7031 Q692.8438,251.3281 692.2344,251.1094 Q691.625,250.8906 691,250.8906 Q690.2344,250.8906 689.6016,251.2188 Q688.9688,251.5469 688.4766,252.2969 Q687.9844,253.0469 687.9844,254.0781 L687.9844,255.1719 Q687.9844,256.4063 688.875,257.2266 Q689.7656,258.0469 691.3594,258.0469 Q692.2969,258.0469 692.9531,257.7969 Q693.3438,257.6406 693.7656,257.2031 Q694.0313,256.9375 694.1797,256.8594 Q694.3281,256.7813 694.5313,256.7813 Q694.8594,256.7813 695.1172,257.0391 Q695.375,257.2969 695.375,257.6406 Q695.375,257.9844 695.0313,258.3906 Q694.5313,258.9688 693.7344,259.2969 Q692.6563,259.75 691.3594,259.75 Q689.8438,259.75 688.6406,259.125 Q687.6563,258.625 686.9688,257.5547 Q686.2813,256.4844 686.2813,255.2031 L686.2813,254.0469 Q686.2813,252.7188 686.8984,251.5703 Q687.5156,250.4219 688.6094,249.8047 Q689.7031,249.1875 690.9375,249.1875 Q691.6719,249.1875 692.3203,249.3516 Q692.9688,249.5156 693.5156,249.875 Z " fill="#000000"/><text fill="#000000" font-family="sans-serif" font-size="14" lengthAdjust="spacing" textLength="27" x="711.25" y="259.7285">Lion</text><line style="stroke:#000000;stroke-width:0.5;" x1="490.5" x2="926.5" y1="270" y2="270"/><line style="stroke:#000000;stroke-width:0.5;" x1="490.5" x2="926.5" y1="278" y2="278"/><text fill="#000000" font-family="sans-serif" font-size="14" lengthAdjust="spacing" textLength="426" x="495.5" y="296.5332">+Lion(dateNaissance : DateTime, masse : double, energie : double)</text><text fill="#000000" font-family="sans-serif" font-size="14" lengthAdjust="spacing" textLength="321" x="495.5" y="314.1426">+MangerZebre(masseAbsorbeeGrammes : double)</text><text fill="#000000" font-family="sans-serif" font-size="14" lengthAdjust="spacing" textLength="331" x="495.5" y="331.752">+MangerGazelle(masseAbsorbeeGrammes : double)</text><text fill="#000000" font-family="sans-serif" font-size="14" lengthAdjust="spacing" textLength="109" x="495.5" y="349.3613">+EmettreUnSon()</text></g><!--reverse link Animal to Poule--><g id="link_Animal_Poule"><path codeLine="6" d="M355.797,189.8364 C328.417,213.0364 313.37,225.78 289.15,246.31 " fill="none" id="Animal-backto-Poule" style="stroke:#181818;stroke-width:1.0;"/><polygon fill="none" points="369.53,178.2,351.9182,185.2587,359.6758,194.4141,369.53,178.2" style="stroke:#181818;stroke-width:1.0;"/></g><!--reverse link Animal to Lion--><g id="link_Animal_Lion"><path codeLine="7" d="M583.2019,189.8376 C606.8719,209.8976 617.85,219.19 639.77,237.76 " fill="none" id="Animal-backto-Lion" style="stroke:#181818;stroke-width:1.0;"/><polygon fill="none" points="569.47,178.2,579.3227,194.4149,587.0811,185.2603,569.47,178.2" style="stroke:#181818;stroke-width:1.0;"/></g><!--SRC=[hL9DIyD04BtdLmnuIMaBEKifnBOKqOfGHV0Ya-GHb-v7sKqyLFtlRhfB9KgnIFUop9jvRzxChji8lMNBYah9pkLDOqNHDhWkZLwB7IXBNB-4tXFovuhBJMrDgwkPaSRIqwje43B6Lh01lSYoBFbCSYqKIvfyZCTqRrg97d8hZ4wI81xnq6DCwWKQjXR8ox9LdWYwfCgqXGozXZJd1dSid6DTTiakVX0AD9dKQAPJVs-jUFCekIwEj9LlzgtrHt4mbLP7Mer8zTH654qVa44KMdBjCukGJMFL7iJDZFt217vIvjX2kr-a21-bBHJyK-9HhurE1_u9udxtsu_h7ORe37EjMDUmIyj2mwLxLbuuOml0Wqh1qQa6kyzmyDS5PxFtZCBYD7Dn7jv1IlnldYy0]--></g></svg>