<?xml version="1.0" encoding="UTF-8" standalone="no"?><svg xmlns="http://www.w3.org/2000/svg" xmlns:xlink="http://www.w3.org/1999/xlink" contentScriptType="application/ecmascript" contentStyleType="text/css" height="205px" preserveAspectRatio="none" style="width:143px;height:205px;" version="1.1" viewBox="0 0 143 205" width="143px" zoomAndPan="magnify"><defs><filter height="300%" id="f1oaj868z2ri1o" width="300%" x="-1" y="-1"><feGaussianBlur result="blurOut" stdDeviation="2.0"/><feColorMatrix in="blurOut" result="blurOut2" type="matrix" values="0 0 0 0 0 0 0 0 0 0 0 0 0 0 0 0 0 0 .4 0"/><feOffset dx="4.0" dy="4.0" in="blurOut2" result="blurOut3"/><feBlend in="SourceGraphic" in2="blurOut3" mode="normal"/></filter></defs><g><!--class Humain--><rect fill="#FFFFFF" filter="url(#f1oaj868z2ri1o)" height="60.9551" id="Humain" style="stroke: #000000; stroke-width: 1.5;" width="126" x="6" y="8"/><ellipse cx="43.5" cy="24" fill="#ADD1B2" rx="11" ry="11" style="stroke: #000000; stroke-width: 1.0;"/><path d="M45.9731,30.1431 Q45.3921,30.4419 44.7529,30.5913 Q44.1138,30.7407 43.4082,30.7407 Q40.9014,30.7407 39.5815,29.0889 Q38.2617,27.437 38.2617,24.3159 Q38.2617,21.1865 39.5815,19.5347 Q40.9014,17.8828 43.4082,17.8828 Q44.1138,17.8828 44.7612,18.0322 Q45.4087,18.1816 45.9731,18.4805 L45.9731,21.2031 Q45.3423,20.6221 44.7488,20.3523 Q44.1553,20.0825 43.5244,20.0825 Q42.1797,20.0825 41.4949,21.1492 Q40.8101,22.2158 40.8101,24.3159 Q40.8101,26.4077 41.4949,27.4744 Q42.1797,28.541 43.5244,28.541 Q44.1553,28.541 44.7488,28.2712 Q45.3423,28.0015 45.9731,27.4204 Z "/><text fill="#000000" font-family="sans-serif" font-size="12" lengthAdjust="spacingAndGlyphs" textLength="44" x="62.5" y="28.5352">Humain</text><line style="stroke: #000000; stroke-width: 1.5;" x1="7" x2="131" y1="40" y2="40"/><text fill="#000000" font-family="sans-serif" font-size="11" lengthAdjust="spacingAndGlyphs" textLength="114" x="12" y="54.6348">-m_cerveau: Cerveau</text><line style="stroke: #000000; stroke-width: 1.5;" x1="7" x2="131" y1="60.9551" y2="60.9551"/><!--class Cerveau--><rect fill="#FFFFFF" filter="url(#f1oaj868z2ri1o)" height="48" id="Cerveau" style="stroke: #000000; stroke-width: 1.5;" width="79" x="29.5" y="146"/><ellipse cx="44.5" cy="162" fill="#ADD1B2" rx="11" ry="11" style="stroke: #000000; stroke-width: 1.0;"/><path d="M46.9731,168.1431 Q46.3921,168.4419 45.7529,168.5913 Q45.1138,168.7407 44.4082,168.7407 Q41.9014,168.7407 40.5815,167.0889 Q39.2617,165.437 39.2617,162.3159 Q39.2617,159.1865 40.5815,157.5347 Q41.9014,155.8828 44.4082,155.8828 Q45.1138,155.8828 45.7612,156.0322 Q46.4087,156.1816 46.9731,156.4805 L46.9731,159.2031 Q46.3423,158.6221 45.7488,158.3523 Q45.1553,158.0825 44.5244,158.0825 Q43.1797,158.0825 42.4949,159.1492 Q41.8101,160.2158 41.8101,162.3159 Q41.8101,164.4077 42.4949,165.4744 Q43.1797,166.541 44.5244,166.541 Q45.1553,166.541 45.7488,166.2712 Q46.3423,166.0015 46.9731,165.4204 Z "/><text fill="#000000" font-family="sans-serif" font-size="12" lengthAdjust="spacingAndGlyphs" textLength="47" x="58.5" y="166.5352">Cerveau</text><line style="stroke: #000000; stroke-width: 1.5;" x1="30.5" x2="107.5" y1="178" y2="178"/><line style="stroke: #000000; stroke-width: 1.5;" x1="30.5" x2="107.5" y1="186" y2="186"/><!--reverse link Humain to Cerveau--><path d="M69,82.5 C69,103.65 69,128.32 69,145.88 " fill="none" id="Humain&lt;-Cerveau" style="stroke: #A80036; stroke-width: 1.0;"/><polygon fill="#A80036" points="69,69.21,65,75.21,69,81.21,73,75.21,69,69.21" style="stroke: #A80036; stroke-width: 1.0;"/><text fill="#000000" font-family="sans-serif" font-size="13" lengthAdjust="spacingAndGlyphs" textLength="7" x="70" y="112.5684">a</text><text fill="#000000" font-family="sans-serif" font-size="13" lengthAdjust="spacingAndGlyphs" textLength="8" x="60.175" y="89.6958">1</text><text fill="#000000" font-family="sans-serif" font-size="13" lengthAdjust="spacingAndGlyphs" textLength="8" x="59.975" y="135.3855">1</text><!--
@startuml HumainComposition
skinparam classAttributeIconSize 0
skinparam class {
    BackgroundColor White
    BorderColor #000
}

Humain "1" *- - "1" Cerveau : "a"

class Humain {
    - m_cerveau: Cerveau
}
class Cerveau {

}
@enduml

PlantUML version 1.2019.09(Mon Aug 26 12:19:51 EDT 2019)
(GPL source distribution)
Java Runtime: OpenJDK Runtime Environment
JVM: OpenJDK 64-Bit Server VM
Java Version: 13.0.2+8
Operating System: Mac OS X
OS Version: 10.15.2
Default Encoding: UTF-8
Language: fr
Country: CA
--></g></svg>