<?xml version="1.0" encoding="us-ascii" standalone="no"?><svg xmlns="http://www.w3.org/2000/svg" xmlns:xlink="http://www.w3.org/1999/xlink" contentStyleType="text/css" height="206px" preserveAspectRatio="none" style="width:163px;height:206px;background:#FFFFFF;" version="1.1" viewBox="0 0 163 206" width="163px" zoomAndPan="magnify"><defs/><g><!--class Humain--><g id="elem_Humain"><rect codeLine="9" fill="#FFFFFF" height="65.6094" id="Humain" rx="2.5" ry="2.5" style="stroke:#000000;stroke-width:0.5;" width="149" x="7" y="7"/><ellipse cx="53.75" cy="23" fill="#ADD1B2" rx="11" ry="11" style="stroke:#181818;stroke-width:1.0;"/><path d="M56.5156,18.875 Q56.6719,18.6563 56.8594,18.5469 Q57.0469,18.4375 57.2656,18.4375 Q57.6406,18.4375 57.875,18.6953 Q58.1094,18.9531 58.1094,19.5625 L58.1094,21.0156 Q58.1094,21.625 57.875,21.8906 Q57.6406,22.1563 57.2656,22.1563 Q56.9219,22.1563 56.7188,21.9531 Q56.5156,21.7656 56.4063,21.25 Q56.3594,20.8906 56.1719,20.7031 Q55.8438,20.3281 55.2344,20.1094 Q54.625,19.8906 54,19.8906 Q53.2344,19.8906 52.6016,20.2188 Q51.9688,20.5469 51.4766,21.2969 Q50.9844,22.0469 50.9844,23.0781 L50.9844,24.1719 Q50.9844,25.4063 51.875,26.2266 Q52.7656,27.0469 54.3594,27.0469 Q55.2969,27.0469 55.9531,26.7969 Q56.3438,26.6406 56.7656,26.2031 Q57.0313,25.9375 57.1797,25.8594 Q57.3281,25.7813 57.5313,25.7813 Q57.8594,25.7813 58.1172,26.0391 Q58.375,26.2969 58.375,26.6406 Q58.375,26.9844 58.0313,27.3906 Q57.5313,27.9688 56.7344,28.2969 Q55.6563,28.75 54.3594,28.75 Q52.8438,28.75 51.6406,28.125 Q50.6563,27.625 49.9688,26.5547 Q49.2813,25.4844 49.2813,24.2031 L49.2813,23.0469 Q49.2813,21.7188 49.8984,20.5703 Q50.5156,19.4219 51.6094,18.8047 Q52.7031,18.1875 53.9375,18.1875 Q54.6719,18.1875 55.3203,18.3516 Q55.9688,18.5156 56.5156,18.875 Z " fill="#000000"/><text fill="#000000" font-family="sans-serif" font-size="14" lengthAdjust="spacing" textLength="47" x="74.25" y="28.7285">Humain</text><line style="stroke:#000000;stroke-width:0.5;" x1="8" x2="155" y1="39" y2="39"/><text fill="#000000" font-family="sans-serif" font-size="14" lengthAdjust="spacing" textLength="137" x="13" y="57.5332">-m_cerveau: Cerveau</text><line style="stroke:#000000;stroke-width:0.5;" x1="8" x2="155" y1="64.6094" y2="64.6094"/></g><!--class Cerveau--><g id="elem_Cerveau"><rect codeLine="12" fill="#FFFFFF" height="48" id="Cerveau" rx="2.5" ry="2.5" style="stroke:#000000;stroke-width:0.5;" width="86" x="38.5" y="151"/><ellipse cx="53.5" cy="167" fill="#ADD1B2" rx="11" ry="11" style="stroke:#181818;stroke-width:1.0;"/><path d="M56.2656,162.875 Q56.4219,162.6563 56.6094,162.5469 Q56.7969,162.4375 57.0156,162.4375 Q57.3906,162.4375 57.625,162.6953 Q57.8594,162.9531 57.8594,163.5625 L57.8594,165.0156 Q57.8594,165.625 57.625,165.8906 Q57.3906,166.1563 57.0156,166.1563 Q56.6719,166.1563 56.4688,165.9531 Q56.2656,165.7656 56.1563,165.25 Q56.1094,164.8906 55.9219,164.7031 Q55.5938,164.3281 54.9844,164.1094 Q54.375,163.8906 53.75,163.8906 Q52.9844,163.8906 52.3516,164.2188 Q51.7188,164.5469 51.2266,165.2969 Q50.7344,166.0469 50.7344,167.0781 L50.7344,168.1719 Q50.7344,169.4063 51.625,170.2266 Q52.5156,171.0469 54.1094,171.0469 Q55.0469,171.0469 55.7031,170.7969 Q56.0938,170.6406 56.5156,170.2031 Q56.7813,169.9375 56.9297,169.8594 Q57.0781,169.7813 57.2813,169.7813 Q57.6094,169.7813 57.8672,170.0391 Q58.125,170.2969 58.125,170.6406 Q58.125,170.9844 57.7813,171.3906 Q57.2813,171.9688 56.4844,172.2969 Q55.4063,172.75 54.1094,172.75 Q52.5938,172.75 51.3906,172.125 Q50.4063,171.625 49.7188,170.5547 Q49.0313,169.4844 49.0313,168.2031 L49.0313,167.0469 Q49.0313,165.7188 49.6484,164.5703 Q50.2656,163.4219 51.3594,162.8047 Q52.4531,162.1875 53.6875,162.1875 Q54.4219,162.1875 55.0703,162.3516 Q55.7188,162.5156 56.2656,162.875 Z " fill="#000000"/><text fill="#000000" font-family="sans-serif" font-size="14" lengthAdjust="spacing" textLength="54" x="67.5" y="172.7285">Cerveau</text><line style="stroke:#000000;stroke-width:0.5;" x1="39.5" x2="123.5" y1="183" y2="183"/><line style="stroke:#000000;stroke-width:0.5;" x1="39.5" x2="123.5" y1="191" y2="191"/></g><!--reverse link Humain to Cerveau--><g id="link_Humain_Cerveau"><path codeLine="7" d="M81.5,85.2 C81.5,109.18 81.5,129.37 81.5,150.85 " fill="none" id="Humain-backto-Cerveau" style="stroke:#181818;stroke-width:1.0;"/><polygon fill="#181818" points="81.5,73.2,77.5,79.2,81.5,85.2,85.5,79.2,81.5,73.2" style="stroke:#181818;stroke-width:1.0;"/><text fill="#000000" font-family="sans-serif" font-size="13" lengthAdjust="spacing" textLength="7" x="82.5" y="117.4951">a</text><text fill="#000000" font-family="sans-serif" font-size="13" lengthAdjust="spacing" textLength="7" x="73.8766" y="94.1">1</text><text fill="#000000" font-family="sans-serif" font-size="13" lengthAdjust="spacing" textLength="7" x="73.6031" y="140.1517">1</text></g><!--SRC=[LSqn3i8m30NGtQUmmeOKAQpTe0lC38p8f1P4RHFa90nKlJiLfWDUBDdFtxaFyKb28_g1SjwN8k5M2vzyYkVmPdIG_mbEW4iToFTtIJLsRHgIuEKH2kicISUYqurp3cQ0OnqfH3GxWrjhlxrbUJ5LRD2G0T3idzCN5iUhLzMiV0bJkPvF0FC7]--></g></svg>