<?xml version="1.0" encoding="UTF-8" standalone="no"?><svg xmlns="http://www.w3.org/2000/svg" xmlns:xlink="http://www.w3.org/1999/xlink" contentScriptType="application/ecmascript" contentStyleType="text/css" height="291px" preserveAspectRatio="none" style="width:460px;height:291px;" version="1.1" viewBox="0 0 460 291" width="460px" zoomAndPan="magnify"><defs><filter height="300%" id="f1gxsdwy7uf48g" width="300%" x="-1" y="-1"><feGaussianBlur result="blurOut" stdDeviation="2.0"/><feColorMatrix in="blurOut" result="blurOut2" type="matrix" values="0 0 0 0 0 0 0 0 0 0 0 0 0 0 0 0 0 0 .4 0"/><feOffset dx="4.0" dy="4.0" in="blurOut2" result="blurOut3"/><feBlend in="SourceGraphic" in2="blurOut3" mode="normal"/></filter></defs><g><!--class Carre--><polygon fill="#A9D18E" filter="url(#f1gxsdwy7uf48g)" points="6,14.5,6,14.7102,15.8571,14.0857,25.7143,14.6933,35.5714,14.8997,45.4286,13.7866,55.2857,14.4223,65.1429,14.0735,75,14.1165,84.8571,14.4318,94.7143,13.8086,104.5714,15.0536,114.4286,13.8697,124.2857,14.3022,134.1429,14.9319,144,14.4142,153.8571,14.5682,163.7143,14.4681,173.5714,14.6785,183.4286,14.7391,193.2857,15.0857,203.1429,15.1711,213,14.5,213.6793,14.5,213.2546,24.482,213.4636,34.4641,213.7022,44.4461,212.2788,54.4281,213.6785,64.4102,212.7035,74.3922,213.5338,84.3742,212.505,94.3563,212.9315,104.3383,213,114.3203,213,115.0619,203.1429,114.2716,193.2857,114.4256,183.4286,114.6589,173.5714,114.7365,163.7143,114.3164,153.8571,114.6075,144,113.7479,134.1429,114.6047,124.2857,114.8685,114.4286,114.7648,104.5714,114.9333,94.7143,113.8372,84.8571,113.6681,75,113.6989,65.1429,114.2614,55.2857,114.1238,45.4286,115.0017,35.5714,114.1456,25.7143,113.9773,15.8571,114.5486,6,114.3203,5.3332,114.3203,5.4809,104.3383,6.649,94.3563,6.4357,84.3742,6.7345,74.3922,5.6782,64.4102,6.3192,54.4281,6.5904,44.4461,5.5276,34.4641,5.9041,24.482,6,14.5" style="stroke: #000000; stroke-width: 1.5;"/><polygon fill="#A9D18E" points="6,14.5,6,14.7102,15.8571,14.0857,25.7143,14.6933,35.5714,14.8997,45.4286,13.7866,55.2857,14.4223,65.1429,14.0735,75,14.1165,84.8571,14.4318,94.7143,13.8086,104.5714,15.0536,114.4286,13.8697,124.2857,14.3022,134.1429,14.9319,144,14.4142,153.8571,14.5682,163.7143,14.4681,173.5714,14.6785,183.4286,14.7391,193.2857,15.0857,203.1429,15.1711,213,14.5,213.2264,14.5,213.0849,20.9,213.1545,27.3,213.2341,33.7,212.7596,40.1,213,46.5,213,47.1785,203.1429,46.2035,193.2857,47.0338,183.4286,46.005,173.5714,46.4315,163.7143,47.2416,153.8571,46.4513,144,46.6053,134.1429,46.8386,124.2857,46.9162,114.4286,46.4961,104.5714,46.7872,94.7143,45.9276,84.8571,46.7844,75,47.0482,65.1429,46.9445,55.2857,47.113,45.4286,46.0169,35.5714,45.8478,25.7143,45.8786,15.8571,46.4411,6,46.5,5.9345,46.5,6.2271,40.1,5.9418,33.7,5.8856,27.3,6.0761,20.9,6,14.5" style="stroke: #000000; stroke-width: 1.5;"/><polygon fill="#ADD1B2" points="100.3108,33.1756,98.6984,35.3788,96.7912,38.6057,94.0636,40.7804,91.1974,41.9696,88.912,42.0728,85.9747,40.5855,83.2032,39.6139,81.0995,37.6412,79.9961,35.3828,79.3417,33.5845,78.7006,31.2357,77.66,29.2145,78.4596,27.241,79.1602,25.0792,81.7893,23.3695,83.639,21.1511,85.9284,20.4144,88.6501,19.7801,92.1404,20.157,94.0521,21.0585,96.2747,21.4672,98.9772,24.236,99.9193,27.159,100.3286,29.1534,99.865,32.4399" style="stroke: #000000; stroke-width: 1.0;"/><path d="M91.7231,36.6431 Q91.1421,36.9419 90.5029,37.0913 Q89.8638,37.2407 89.1582,37.2407 Q86.6514,37.2407 85.3315,35.5889 Q84.0117,33.937 84.0117,30.8159 Q84.0117,27.6865 85.3315,26.0347 Q86.6514,24.3828 89.1582,24.3828 Q89.8638,24.3828 90.5112,24.5322 Q91.1587,24.6816 91.7231,24.9805 L91.7231,27.7031 Q91.0923,27.1221 90.4988,26.8523 Q89.9053,26.5825 89.2744,26.5825 Q87.9297,26.5825 87.2449,27.6492 Q86.5601,28.7158 86.5601,30.8159 Q86.5601,32.9077 87.2449,33.9744 Q87.9297,35.041 89.2744,35.041 Q89.9053,35.041 90.4988,34.7712 Q91.0923,34.5015 91.7231,33.9204 Z "/><text fill="#000000" font-family="sans-serif" font-size="12" lengthAdjust="spacingAndGlyphs" textLength="32" x="109.75" y="35.0352">Carre</text><path d="M7,46.5 L7,46.7802 L16.7619,45.9476 L26.5238,46.7577 L36.2857,47.0329 L46.0476,45.5488 L55.8095,46.3964 L65.5714,45.9313 L75.3333,45.9887 L85.0952,46.4091 L94.8571,45.5782 L104.619,47.2382 L114.381,45.6596 L124.1429,46.2363 L133.9048,47.0759 L143.6667,46.3856 L153.4286,46.591 L163.1905,46.4574 L172.9524,46.738 L182.7143,46.8188 L192.4762,47.2809 L202.2381,47.3947 L212,46.5 " fill="#A9D18E" style="stroke: #000000; stroke-width: 1.5;"/><text fill="#000000" font-family="sans-serif" font-size="11" lengthAdjust="spacingAndGlyphs" textLength="195" x="12" y="61.1348">+LongueurCote : double «get» «set»</text><text fill="#000000" font-family="sans-serif" font-size="11" lengthAdjust="spacingAndGlyphs" textLength="186" x="12" y="74.0898">+PointDepart : Point2D «get» «set»</text><path d="M7,80.4102 L7,80.6904 L16.7619,79.8577 L26.5238,80.6679 L36.2857,80.9431 L46.0476,79.459 L55.8095,80.3065 L65.5714,79.8415 L75.3333,79.8988 L85.0952,80.3193 L94.8571,79.4883 L104.619,81.1483 L114.381,79.5698 L124.1429,80.1465 L133.9048,80.9861 L143.6667,80.2958 L153.4286,80.5011 L163.1905,80.3676 L172.9524,80.6482 L182.7143,80.729 L192.4762,81.1911 L202.2381,81.3049 L212,80.4102 " fill="#A9D18E" style="stroke: #000000; stroke-width: 1.5;"/><text fill="#000000" font-family="sans-serif" font-size="11" lengthAdjust="spacingAndGlyphs" textLength="124" x="12" y="95.0449">+Dessiner() «override»</text><text fill="#000000" font-family="sans-serif" font-size="11" lengthAdjust="spacingAndGlyphs" textLength="189" x="12" y="108">+CalculerAire() : double «override»</text><!--class Rectangle--><polygon fill="#A9D18E" filter="url(#f1gxsdwy7uf48g)" points="248,8,248,8.2102,258.05,7.5857,268.1,8.1933,278.15,8.3997,288.2,7.2866,298.25,7.9223,308.3,7.5735,318.35,7.6165,328.4,7.9318,338.45,7.3086,348.5,8.5536,358.55,7.3697,368.6,7.8022,378.65,8.4319,388.7,7.9142,398.75,8.0682,408.8,7.9681,418.85,8.1785,428.9,8.2391,438.95,8.5857,449,8,449.6711,8,449.6793,18.2523,449.2546,28.5046,449.4636,38.7569,449.7022,49.0092,448.2788,59.2615,449.6785,69.5138,448.7035,79.7662,449.5338,90.0185,448.505,100.2708,448.9315,110.5231,449,120.7754,449,121.517,438.95,120.7267,428.9,120.8807,418.85,121.114,408.8,121.1916,398.75,120.7715,388.7,121.0626,378.65,120.203,368.6,121.0598,358.55,121.3236,348.5,121.2199,338.45,121.3884,328.4,120.2923,318.35,120.1232,308.3,120.154,298.25,120.7165,288.2,120.5789,278.15,121.4568,268.1,120.6007,258.05,120.4323,248,120.7754,248.2283,120.7754,247.3332,110.5231,247.4809,100.2708,248.649,90.0185,248.4357,79.7662,248.7345,69.5138,247.6782,59.2615,248.3192,49.0092,248.5904,38.7569,247.5276,28.5046,247.9041,18.2523,248,8" style="stroke: #000000; stroke-width: 1.5;"/><polygon fill="#A9D18E" points="248,8,248,8.2102,258.05,7.5857,268.1,8.1933,278.15,8.3997,288.2,7.2866,298.25,7.9223,308.3,7.5735,318.35,7.6165,328.4,7.9318,338.45,7.3086,348.5,8.5536,358.55,7.3697,368.6,7.8022,378.65,8.4319,388.7,7.9142,398.75,8.0682,408.8,7.9681,418.85,8.1785,428.9,8.2391,438.95,8.5857,449,8,449.2237,8,449.2264,14.4,449.0849,20.8,449.1545,27.2,449.2341,33.6,449,40,449,39.2788,438.95,40.6785,428.9,39.7035,418.85,40.5338,408.8,39.505,398.75,39.9315,388.7,40.7416,378.65,39.9513,368.6,40.1053,358.55,40.3386,348.5,40.4162,338.45,39.9961,328.4,40.2872,318.35,39.4276,308.3,40.2844,298.25,40.5482,288.2,40.4445,278.15,40.613,268.1,39.5169,258.05,39.3478,248,40,247.7929,40,247.9804,33.6,247.9345,27.2,248.2271,20.8,247.9418,14.4,248,8" style="stroke: #000000; stroke-width: 1.5;"/><polygon fill="#ADD1B2" points="327.3108,26.6756,325.6984,28.8788,323.7912,32.1057,321.0636,34.2804,318.1974,35.4696,315.912,35.5728,312.9747,34.0855,310.2032,33.1139,308.0995,31.1412,306.9961,28.8828,306.3417,27.0845,305.7006,24.7357,304.66,22.7145,305.4596,20.741,306.1602,18.5792,308.7893,16.8695,310.639,14.6511,312.9284,13.9144,315.6501,13.2801,319.1404,13.657,321.0521,14.5585,323.2747,14.9672,325.9772,17.736,326.9193,20.659,327.3286,22.6534,326.865,25.9399" style="stroke: #000000; stroke-width: 1.0;"/><path d="M318.7231,30.1431 Q318.1421,30.4419 317.5029,30.5913 Q316.8638,30.7407 316.1582,30.7407 Q313.6514,30.7407 312.3315,29.0889 Q311.0117,27.437 311.0117,24.3159 Q311.0117,21.1865 312.3315,19.5347 Q313.6514,17.8828 316.1582,17.8828 Q316.8638,17.8828 317.5112,18.0322 Q318.1587,18.1816 318.7231,18.4805 L318.7231,21.2031 Q318.0923,20.6221 317.4988,20.3523 Q316.9053,20.0825 316.2744,20.0825 Q314.9297,20.0825 314.2449,21.1492 Q313.5601,22.2158 313.5601,24.3159 Q313.5601,26.4077 314.2449,27.4744 Q314.9297,28.541 316.2744,28.541 Q316.9053,28.541 317.4988,28.2712 Q318.0923,28.0015 318.7231,27.4204 Z "/><text fill="#000000" font-family="sans-serif" font-size="12" lengthAdjust="spacingAndGlyphs" textLength="56" x="336.75" y="28.5352">Rectangle</text><path d="M249,40 L249,40.2802 L258.95,39.4476 L268.9,40.2577 L278.85,40.5329 L288.8,39.0488 L298.75,39.8964 L308.7,39.4313 L318.65,39.4887 L328.6,39.9091 L338.55,39.0782 L348.5,40.7382 L358.45,39.1596 L368.4,39.7363 L378.35,40.5759 L388.3,39.8856 L398.25,40.091 L408.2,39.9574 L418.15,40.238 L428.1,40.3188 L438.05,40.7809 L448,40 " fill="#A9D18E" style="stroke: #000000; stroke-width: 1.5;"/><text fill="#000000" font-family="sans-serif" font-size="11" lengthAdjust="spacingAndGlyphs" textLength="161" x="254" y="54.6348">+Hauteur : double «get» «set»</text><text fill="#000000" font-family="sans-serif" font-size="11" lengthAdjust="spacingAndGlyphs" textLength="160" x="254" y="67.5898">+Largeur : double «get» «set»</text><text fill="#000000" font-family="sans-serif" font-size="11" lengthAdjust="spacingAndGlyphs" textLength="186" x="254" y="80.5449">+PointDepart : Point2D «get» «set»</text><path d="M249,86.8652 L249,87.1455 L258.95,86.3128 L268.9,87.1229 L278.85,87.3981 L288.8,85.914 L298.75,86.7616 L308.7,86.2966 L318.65,86.3539 L328.6,86.7744 L338.55,85.9434 L348.5,87.6034 L358.45,86.0249 L368.4,86.6015 L378.35,87.4412 L388.3,86.7509 L398.25,86.9562 L408.2,86.8226 L418.15,87.1033 L428.1,87.1841 L438.05,87.6462 L448,86.8652 " fill="#A9D18E" style="stroke: #000000; stroke-width: 1.5;"/><text fill="#000000" font-family="sans-serif" font-size="11" lengthAdjust="spacingAndGlyphs" textLength="124" x="254" y="101.5">+Dessiner() «override»</text><text fill="#000000" font-family="sans-serif" font-size="11" lengthAdjust="spacingAndGlyphs" textLength="189" x="254" y="114.4551">+CalculerAire() : double «override»</text><!--class Cercle--><polygon fill="#A9D18E" filter="url(#f1gxsdwy7uf48g)" points="9,181,9,181.2102,19.05,180.5857,29.1,181.1933,39.15,181.3997,49.2,180.2866,59.25,180.9223,69.3,180.5735,79.35,180.6165,89.4,180.9318,99.45,180.3086,109.5,181.5536,119.55,180.3697,129.6,180.8022,139.65,181.4319,149.7,180.9142,159.75,181.0682,169.8,180.9681,179.85,181.1785,189.9,181.2391,199.95,181.5857,210,181,210.6711,181,210.6793,190.982,210.2546,200.9641,210.4636,210.9461,210.7022,220.9281,209.2788,230.9102,210.6785,240.8922,209.7035,250.8742,210.5338,260.8563,209.505,270.8383,210,280.8203,210,280.7518,199.95,281.5619,189.9,280.7716,179.85,280.9256,169.8,281.1589,159.75,281.2365,149.7,280.8164,139.65,281.1075,129.6,280.2479,119.55,281.1047,109.5,281.3685,99.45,281.2648,89.4,281.4333,79.35,280.3372,69.3,280.1681,59.25,280.1989,49.2,280.7614,39.15,280.6238,29.1,281.5017,19.05,280.6456,9,280.8203,8.6569,280.8203,9.2283,270.8383,8.3332,260.8563,8.4809,250.8742,9.649,240.8922,9.4357,230.9102,9.7345,220.9281,8.6782,210.9461,9.3192,200.9641,9.5904,190.982,9,181" style="stroke: #000000; stroke-width: 1.5;"/><polygon fill="#A9D18E" points="9,181,9,181.2102,19.05,180.5857,29.1,181.1933,39.15,181.3997,49.2,180.2866,59.25,180.9223,69.3,180.5735,79.35,180.6165,89.4,180.9318,99.45,180.3086,109.5,181.5536,119.55,180.3697,129.6,180.8022,139.65,181.4319,149.7,180.9142,159.75,181.0682,169.8,180.9681,179.85,181.1785,189.9,181.2391,199.95,181.5857,210,181,210.2237,181,210.2264,187.4,210.0849,193.8,210.1545,200.2,210.2341,206.6,210,213,210,212.2788,199.95,213.6785,189.9,212.7035,179.85,213.5338,169.8,212.505,159.75,212.9315,149.7,213.7416,139.65,212.9513,129.6,213.1053,119.55,213.3386,109.5,213.4162,99.45,212.9961,89.4,213.2872,79.35,212.4276,69.3,213.2844,59.25,213.5482,49.2,213.4445,39.15,213.613,29.1,212.5169,19.05,212.3478,9,213,8.7929,213,8.9804,206.6,8.9345,200.2,9.2271,193.8,8.9418,187.4,9,181" style="stroke: #000000; stroke-width: 1.5;"/><polygon fill="#ADD1B2" points="98.3108,199.6756,96.6984,201.8788,94.7912,205.1057,92.0636,207.2804,89.1974,208.4696,86.912,208.5728,83.9747,207.0855,81.2032,206.1139,79.0995,204.1412,77.9961,201.8828,77.3417,200.0845,76.7006,197.7357,75.66,195.7145,76.4596,193.741,77.1602,191.5792,79.7893,189.8695,81.639,187.6511,83.9284,186.9144,86.6501,186.2801,90.1404,186.657,92.0521,187.5585,94.2747,187.9672,96.9772,190.736,97.9193,193.659,98.3286,195.6534,97.865,198.9399" style="stroke: #000000; stroke-width: 1.0;"/><path d="M89.7231,203.1431 Q89.1421,203.4419 88.5029,203.5913 Q87.8638,203.7407 87.1582,203.7407 Q84.6514,203.7407 83.3315,202.0889 Q82.0117,200.437 82.0117,197.3159 Q82.0117,194.1865 83.3315,192.5347 Q84.6514,190.8828 87.1582,190.8828 Q87.8638,190.8828 88.5112,191.0322 Q89.1587,191.1816 89.7231,191.4805 L89.7231,194.2031 Q89.0923,193.6221 88.4988,193.3523 Q87.9053,193.0825 87.2744,193.0825 Q85.9297,193.0825 85.2449,194.1492 Q84.5601,195.2158 84.5601,197.3159 Q84.5601,199.4077 85.2449,200.4744 Q85.9297,201.541 87.2744,201.541 Q87.9053,201.541 88.4988,201.2712 Q89.0923,201.0015 89.7231,200.4204 Z "/><text fill="#000000" font-family="sans-serif" font-size="12" lengthAdjust="spacingAndGlyphs" textLength="36" x="107.75" y="201.5352">Cercle</text><path d="M10,213 L10,213.2802 L19.95,212.4476 L29.9,213.2577 L39.85,213.5329 L49.8,212.0488 L59.75,212.8964 L69.7,212.4313 L79.65,212.4887 L89.6,212.9091 L99.55,212.0782 L109.5,213.7382 L119.45,212.1596 L129.4,212.7363 L139.35,213.5759 L149.3,212.8856 L159.25,213.091 L169.2,212.9574 L179.15,213.238 L189.1,213.3188 L199.05,213.7809 L209,213 " fill="#A9D18E" style="stroke: #000000; stroke-width: 1.5;"/><text fill="#000000" font-family="sans-serif" font-size="11" lengthAdjust="spacingAndGlyphs" textLength="151" x="15" y="227.6348">+Rayon : double «get» «set»</text><text fill="#000000" font-family="sans-serif" font-size="11" lengthAdjust="spacingAndGlyphs" textLength="159" x="15" y="240.5898">+Centre : Point2D «get» «set»</text><path d="M10,246.9102 L10,247.1904 L19.95,246.3577 L29.9,247.1679 L39.85,247.4431 L49.8,245.959 L59.75,246.8065 L69.7,246.3415 L79.65,246.3988 L89.6,246.8193 L99.55,245.9883 L109.5,247.6483 L119.45,246.0698 L129.4,246.6465 L139.35,247.4861 L149.3,246.7958 L159.25,247.0011 L169.2,246.8676 L179.15,247.1482 L189.1,247.229 L199.05,247.6911 L209,246.9102 " fill="#A9D18E" style="stroke: #000000; stroke-width: 1.5;"/><text fill="#000000" font-family="sans-serif" font-size="11" lengthAdjust="spacingAndGlyphs" textLength="124" x="15" y="261.5449">+Dessiner() «override»</text><text fill="#000000" font-family="sans-serif" font-size="11" lengthAdjust="spacingAndGlyphs" textLength="189" x="15" y="274.5">+CalculerAire() : double «override»</text><!--link Carre to Rectangle--><!--link Carre to Cercle--><!--
@startuml DiagClasseFormeGeometriquesSansClasseMere

skinparam classAttributeIconSize 0
skinparam handwritten true

skinparam class {
    BackgroundColor White
    BorderColor #000
}

class Carre #A9D18E {
    + LongueurCote : double <<get>> <<set>>
    + PointDepart : Point2D <<get>> <<set>>
    + Dessiner() <<override>>
    + CalculerAire() : double <<override>>
}

class Rectangle #A9D18E {
    + Hauteur : double <<get>> <<set>>
    + Largeur : double <<get>> <<set>>
    + PointDepart : Point2D <<get>> <<set>>
    + Dessiner() <<override>>
    + CalculerAire() : double <<override>>
}

class Cercle #A9D18E {
    + Rayon : double <<get>> <<set>>
    + Centre : Point2D <<get>> <<set>>
    + Dessiner() <<override>>
    + CalculerAire() : double <<override>>
}
@enduml

PlantUML version 1.2019.09(Mon Aug 26 12:19:51 EDT 2019)
(GPL source distribution)
Java Runtime: OpenJDK Runtime Environment
JVM: OpenJDK 64-Bit Server VM
Java Version: 13.0.2+8
Operating System: Mac OS X
OS Version: 10.15.4
Default Encoding: UTF-8
Language: fr
Country: CA
--></g></svg>