<?xml version="1.0" encoding="us-ascii" standalone="no"?><svg xmlns="http://www.w3.org/2000/svg" xmlns:xlink="http://www.w3.org/1999/xlink" contentStyleType="text/css" height="328px" preserveAspectRatio="none" style="width:530px;height:328px;background:#FFFFFF;" version="1.1" viewBox="0 0 530 328" width="530px" zoomAndPan="magnify"><defs/><g><!--class Carre--><g id="elem_Carre"><polygon fill="#A9D18E" points="9.5,16,9.5,16.2102,19.5,15.5857,29.5,16.1933,39.5,16.3997,49.5,15.2866,59.5,15.9223,69.5,15.5735,79.5,15.6165,89.5,15.9318,99.5,15.3086,109.5,16.5536,119.5,15.3697,129.5,15.8022,139.5,16.4319,149.5,15.9142,159.5,16.0682,169.5,15.9681,179.5,16.1785,189.5,16.2391,199.5,16.5857,209.5,16.6711,219.5,16.6793,229.5,16.2546,239.5,16.4636,249.5,16,249.5896,16.2163,249.7616,15.9244,250.2937,16.5018,250.5228,16.348,250.9823,16.7502,251.2678,16.7322,251.1153,16.6691,251.3931,17.077,251.789,17.5339,251.6921,17.7867,251.886,18.1599,252,18.5,252.3386,18.5,252.4162,28.8125,251.9961,39.125,252.2872,49.4375,251.4276,59.75,252.2844,70.0625,252.5482,80.375,252.4445,90.6875,252.613,101,251.5169,111.3125,251.3478,121.625,252,131.9375,251.8086,131.8582,251.8354,132.2835,251.6466,132.6195,251.7705,133.0851,251.3604,133.3294,251.2678,133.7053,251.224,133.5996,250.9433,133.922,250.4756,133.7928,250.1409,133.9847,249.9363,134.4909,249.5,134.4375,249.5,134.8732,239.5,135.172,229.5,134.1157,219.5,134.7567,209.5,135.0279,199.5,133.9651,189.5,134.3416,179.5,134.5635,169.5,135.0893,159.5,134.4333,149.5,134.9001,139.5,133.8837,129.5,133.7602,119.5,134.9411,109.5,133.7206,99.5,134.9465,89.5,134.6441,79.5,134.1696,69.5,134.0837,59.5,134.8963,49.5,134.1382,39.5,135.0294,29.5,133.8848,19.5,135.0549,9.5,134.4375,9.5618,134.5866,9.1777,134.3665,8.7989,134.1591,8.532,134.2219,8.1641,134.0407,7.7322,133.7053,7.7844,133.7269,7.6684,133.3859,7.3992,132.9815,7.5135,132.736,7.1941,132.3108,7,131.9375,7.1726,131.9375,6.3916,121.625,6.5948,111.3125,7.5307,101,7.4298,90.6875,6.9571,80.375,6.6778,70.0625,6.7811,59.75,6.3138,49.4375,7.4147,39.125,7.7396,28.8125,7,18.5,7.1621,18.5671,7.3605,18.2351,7.2508,17.7755,7.4662,17.4505,7.4664,17.0363,7.7322,16.7322,7.7685,16.8197,8.1173,16.6618,8.5098,16.6095,8.7636,16.2222,9.1293,16.1051,9.5,16" style="stroke:#000000;stroke-width:0.5;"/><polygon fill="#ADD1B2" points="118.3108,34.6756,116.6984,36.8788,114.7912,40.1057,112.0636,42.2804,109.1974,43.4696,106.912,43.5728,103.9747,42.0855,101.2032,41.1139,99.0995,39.1412,97.9961,36.8828,97.3417,35.0845,96.7006,32.7357,95.66,30.7145,96.4596,28.741,97.1602,26.5792,99.7893,24.8695,101.639,22.6511,103.9284,21.9144,106.6501,21.2801,110.1404,21.657,112.0521,22.5585,114.2747,22.9672,116.9772,25.736,117.9193,28.659,118.3286,30.6534,117.865,33.9399" style="stroke:#181818;stroke-width:1.0;"/><path d="M110.0156,27.875 Q110.1719,27.6563 110.3594,27.5469 Q110.5469,27.4375 110.7656,27.4375 Q111.1406,27.4375 111.375,27.6953 Q111.6094,27.9531 111.6094,28.5625 L111.6094,30.0156 Q111.6094,30.625 111.375,30.8906 Q111.1406,31.1563 110.7656,31.1563 Q110.4219,31.1563 110.2188,30.9531 Q110.0156,30.7656 109.9063,30.25 Q109.8594,29.8906 109.6719,29.7031 Q109.3438,29.3281 108.7344,29.1094 Q108.125,28.8906 107.5,28.8906 Q106.7344,28.8906 106.1016,29.2188 Q105.4688,29.5469 104.9766,30.2969 Q104.4844,31.0469 104.4844,32.0781 L104.4844,33.1719 Q104.4844,34.4063 105.375,35.2266 Q106.2656,36.0469 107.8594,36.0469 Q108.7969,36.0469 109.4531,35.7969 Q109.8438,35.6406 110.2656,35.2031 Q110.5313,34.9375 110.6797,34.8594 Q110.8281,34.7813 111.0313,34.7813 Q111.3594,34.7813 111.6172,35.0391 Q111.875,35.2969 111.875,35.6406 Q111.875,35.9844 111.5313,36.3906 Q111.0313,36.9688 110.2344,37.2969 Q109.1563,37.75 107.8594,37.75 Q106.3438,37.75 105.1406,37.125 Q104.1563,36.625 103.4688,35.5547 Q102.7813,34.4844 102.7813,33.2031 L102.7813,32.0469 Q102.7813,30.7188 103.3984,29.5703 Q104.0156,28.4219 105.1094,27.8047 Q106.2031,27.1875 107.4375,27.1875 Q108.1719,27.1875 108.8203,27.3516 Q109.4688,27.5156 110.0156,27.875 Z " fill="#000000"/><text fill="#000000" font-family="sans-serif" font-size="14" lengthAdjust="spacing" textLength="36" x="127.75" y="37.7285">Carre</text><path d="M8,48 L8,48.2802 L18.125,47.4476 L28.25,48.2577 L38.375,48.5329 L48.5,47.0488 L58.625,47.8964 L68.75,47.4313 L78.875,47.4887 L89,47.9091 L99.125,47.0782 L109.25,48.7382 L119.375,47.1596 L129.5,47.7363 L139.625,48.5759 L149.75,47.8856 L159.875,48.091 L170,47.9574 L180.125,48.238 L190.25,48.3188 L200.375,48.7809 L210.5,48.8947 L220.625,48.9057 L230.75,48.3395 L240.875,48.6181 L251,48 " fill="#A9D18E" style="stroke:#000000;stroke-width:0.5;"/><text fill="#000000" font-family="sans-serif" font-size="14" lengthAdjust="spacing" textLength="233" x="13" y="66.5332">+LongueurCote : double &#171;get&#187; &#171;set&#187;</text><text fill="#000000" font-family="sans-serif" font-size="14" lengthAdjust="spacing" textLength="224" x="13" y="84.1426">+PointDepart : Point2D &#171;get&#187; &#171;set&#187;</text><path d="M8,91.2188 L8,91.499 L18.125,90.6663 L28.25,91.4765 L38.375,91.7517 L48.5,90.2676 L58.625,91.1151 L68.75,90.6501 L78.875,90.7074 L89,91.1279 L99.125,90.2969 L109.25,91.9569 L119.375,90.3784 L129.5,90.9551 L139.625,91.7947 L149.75,91.1044 L159.875,91.3097 L170,91.1762 L180.125,91.4568 L190.25,91.5376 L200.375,91.9997 L210.5,92.1135 L220.625,92.1244 L230.75,91.5583 L240.875,91.8369 L251,91.2188 " fill="#A9D18E" style="stroke:#000000;stroke-width:0.5;"/><text fill="#000000" font-family="sans-serif" font-size="14" lengthAdjust="spacing" textLength="146" x="13" y="109.752">+Dessiner() &#171;override&#187;</text><text fill="#000000" font-family="sans-serif" font-size="14" lengthAdjust="spacing" textLength="222" x="13" y="127.3613">+CalculerAire() : double &#171;override&#187;</text></g><!--class Rectangle--><g id="elem_Rectangle"><polygon fill="#A9D18E" points="290,7,290,7.2102,300.0435,6.5857,310.087,7.1933,320.1304,7.3997,330.1739,6.2866,340.2174,6.9223,350.2609,6.5735,360.3043,6.6165,370.3478,6.9318,380.3913,6.3086,390.4348,7.5536,400.4783,6.3697,410.5217,6.8022,420.5652,7.4319,430.6087,6.9142,440.6522,7.0682,450.6957,6.9681,460.7391,7.1785,470.7826,7.2391,480.8261,7.5857,490.8696,7.6711,500.913,7.6793,510.9565,7.2546,521,7,521.0591,7.1428,521.4431,7.3627,521.6151,7.0708,522.1472,7.6483,522.3764,7.4945,522.7678,7.7322,522.9322,7.8003,522.7618,8.0226,523.0396,8.4306,523.4355,8.8875,523.3385,9.1402,523.5,9.5,523.6053,9.5,523.8386,19.5805,523.9162,29.6611,523.4961,39.7416,523.7872,49.8221,522.9276,59.9026,523.7844,69.9832,524.0482,80.0637,523.9445,90.1442,524.113,100.2248,523.0169,110.3053,522.8478,120.3858,522.8786,130.4663,523.5,140.5469,523.4819,140.5394,523.293,140.8754,523.417,141.3409,523.0069,141.5853,522.8086,141.9173,522.7678,142.3146,522.7969,142.3849,522.3292,142.2557,521.9944,142.4477,521.7899,142.9538,521.4091,143.0346,521,143.0469,521,143.7814,510.9565,142.7251,500.913,143.3661,490.8696,143.6373,480.8261,142.5745,470.7826,142.951,460.7391,143.1729,450.6957,143.6986,440.6522,143.0427,430.6087,143.5094,420.5652,142.4931,410.5217,142.3696,400.4783,143.5505,390.4348,142.3299,380.3913,143.5558,370.3478,143.2535,360.3043,142.779,350.2609,142.6931,340.2174,143.5056,330.1739,142.7475,320.1304,143.6387,310.087,142.4941,300.0435,143.6643,290,143.0469,290.0618,143.196,289.6777,142.9759,289.2989,142.7685,289.032,142.8313,288.6641,142.65,288.2322,142.3146,288.2844,142.3362,288.1684,141.9953,287.8992,141.5909,288.0135,141.3454,287.6941,140.9202,287.5,140.5469,287.6726,140.5469,286.8916,130.4663,287.0948,120.3858,288.0307,110.3053,287.9298,100.2248,287.4571,90.1442,287.1778,80.0637,287.2811,69.9832,286.8138,59.9026,287.9147,49.8221,288.2396,39.7416,288.0264,29.6611,288.1949,19.5805,287.5,9.5,287.4579,9.4826,287.6733,9.1576,287.6735,8.7435,288.0268,8.4756,288.1618,8.1173,288.2322,7.7322,288.3027,7.9023,288.5565,7.5151,288.9222,7.3979,289.3495,7.4295,289.7188,7.3212,290,7" style="stroke:#000000;stroke-width:0.5;"/><polygon fill="#ADD1B2" points="380.3108,25.6756,378.6984,27.8788,376.7912,31.1057,374.0636,33.2804,371.1974,34.4696,368.912,34.5728,365.9747,33.0855,363.2032,32.1139,361.0995,30.1412,359.9961,27.8828,359.3417,26.0845,358.7006,23.7357,357.66,21.7145,358.4596,19.741,359.1602,17.5792,361.7893,15.8695,363.639,13.6511,365.9284,12.9144,368.6501,12.2801,372.1404,12.657,374.0521,13.5585,376.2747,13.9672,378.9772,16.736,379.9193,19.659,380.3286,21.6534,379.865,24.9399" style="stroke:#181818;stroke-width:1.0;"/><path d="M372.0156,18.875 Q372.1719,18.6563 372.3594,18.5469 Q372.5469,18.4375 372.7656,18.4375 Q373.1406,18.4375 373.375,18.6953 Q373.6094,18.9531 373.6094,19.5625 L373.6094,21.0156 Q373.6094,21.625 373.375,21.8906 Q373.1406,22.1563 372.7656,22.1563 Q372.4219,22.1563 372.2188,21.9531 Q372.0156,21.7656 371.9063,21.25 Q371.8594,20.8906 371.6719,20.7031 Q371.3438,20.3281 370.7344,20.1094 Q370.125,19.8906 369.5,19.8906 Q368.7344,19.8906 368.1016,20.2188 Q367.4688,20.5469 366.9766,21.2969 Q366.4844,22.0469 366.4844,23.0781 L366.4844,24.1719 Q366.4844,25.4063 367.375,26.2266 Q368.2656,27.0469 369.8594,27.0469 Q370.7969,27.0469 371.4531,26.7969 Q371.8438,26.6406 372.2656,26.2031 Q372.5313,25.9375 372.6797,25.8594 Q372.8281,25.7813 373.0313,25.7813 Q373.3594,25.7813 373.6172,26.0391 Q373.875,26.2969 373.875,26.6406 Q373.875,26.9844 373.5313,27.3906 Q373.0313,27.9688 372.2344,28.2969 Q371.1563,28.75 369.8594,28.75 Q368.3438,28.75 367.1406,28.125 Q366.1563,27.625 365.4688,26.5547 Q364.7813,25.4844 364.7813,24.2031 L364.7813,23.0469 Q364.7813,21.7188 365.3984,20.5703 Q366.0156,19.4219 367.1094,18.8047 Q368.2031,18.1875 369.4375,18.1875 Q370.1719,18.1875 370.8203,18.3516 Q371.4688,18.5156 372.0156,18.875 Z " fill="#000000"/><text fill="#000000" font-family="sans-serif" font-size="14" lengthAdjust="spacing" textLength="64" x="389.75" y="28.7285">Rectangle</text><path d="M288.5,39 L288.5,39.2802 L298.6739,38.4476 L308.8478,39.2577 L319.0217,39.5329 L329.1957,38.0488 L339.3696,38.8964 L349.5435,38.4313 L359.7174,38.4887 L369.8913,38.9091 L380.0652,38.0782 L390.2391,39.7382 L400.413,38.1596 L410.587,38.7363 L420.7609,39.5759 L430.9348,38.8856 L441.1087,39.091 L451.2826,38.9574 L461.4565,39.238 L471.6304,39.3188 L481.8043,39.7809 L491.9783,39.8947 L502.1522,39.9057 L512.3261,39.3395 L522.5,39 " fill="#A9D18E" style="stroke:#000000;stroke-width:0.5;"/><text fill="#000000" font-family="sans-serif" font-size="14" lengthAdjust="spacing" textLength="192" x="293.5" y="57.5332">+Hauteur : double &#171;get&#187; &#171;set&#187;</text><text fill="#000000" font-family="sans-serif" font-size="14" lengthAdjust="spacing" textLength="192" x="293.5" y="75.1426">+Largeur : double &#171;get&#187; &#171;set&#187;</text><text fill="#000000" font-family="sans-serif" font-size="14" lengthAdjust="spacing" textLength="224" x="293.5" y="92.752">+PointDepart : Point2D &#171;get&#187; &#171;set&#187;</text><path d="M288.5,99.8281 L288.5,100.1084 L298.6739,99.2757 L308.8478,100.0858 L319.0217,100.361 L329.1957,98.8769 L339.3696,99.7245 L349.5435,99.2595 L359.7174,99.3168 L369.8913,99.7372 L380.0652,98.9063 L390.2391,100.5663 L400.413,98.9878 L410.587,99.5644 L420.7609,100.4041 L430.9348,99.7138 L441.1087,99.9191 L451.2826,99.7855 L461.4565,100.0662 L471.6304,100.147 L481.8043,100.609 L491.9783,100.7229 L502.1522,100.7338 L512.3261,100.1676 L522.5,99.8281 " fill="#A9D18E" style="stroke:#000000;stroke-width:0.5;"/><text fill="#000000" font-family="sans-serif" font-size="14" lengthAdjust="spacing" textLength="146" x="293.5" y="118.3613">+Dessiner() &#171;override&#187;</text><text fill="#000000" font-family="sans-serif" font-size="14" lengthAdjust="spacing" textLength="222" x="293.5" y="135.9707">+CalculerAire() : double &#171;override&#187;</text></g><!--class Cercle--><g id="elem_Cercle"><polygon fill="#A9D18E" points="15,203,15,203.2102,24.9565,202.5857,34.913,203.1933,44.8696,203.3997,54.8261,202.2866,64.7826,202.9223,74.7391,202.5735,84.6957,202.6165,94.6522,202.9318,104.6087,202.3086,114.5652,203.5536,124.5217,202.3697,134.4783,202.8022,144.4348,203.4319,154.3913,202.9142,164.3478,203.0682,174.3043,202.9681,184.2609,203.1785,194.2174,203.2391,204.1739,203.5857,214.1304,203.6711,224.087,203.6793,234.0435,203.2546,244,203,244.0591,203.1428,244.4431,203.3627,244.6151,203.0708,245.1472,203.6483,245.3764,203.4945,245.7678,203.7322,245.9322,203.8003,245.7618,204.0226,246.0396,204.4306,246.4355,204.8875,246.3385,205.1402,246.5,205.5,246.6053,205.5,246.8386,215.8125,246.9162,226.125,246.4961,236.4375,246.7872,246.75,245.9276,257.0625,246.7844,267.375,247.0482,277.6875,246.9445,288,247.113,298.3125,246.0169,308.625,246.5,318.9375,246.2992,318.8543,246.1622,319.2118,246.189,319.6371,246.0001,319.9731,246.1241,320.4386,245.7678,320.7053,245.7455,320.6515,245.3705,320.7461,245.0898,321.0685,244.622,320.9392,244.2873,321.1312,244,321.4375,244,322.0865,234.0435,321.8732,224.087,322.172,214.1304,321.1157,204.1739,321.7567,194.2174,322.0279,184.2609,320.9651,174.3043,321.3416,164.3478,321.5635,154.3913,322.0893,144.4348,321.4333,134.4783,321.9001,124.5217,320.8837,114.5652,320.7602,104.6087,321.9411,94.6522,320.7206,84.6957,321.9465,74.7391,321.6441,64.7826,321.1696,54.8261,321.0837,44.8696,321.8963,34.913,321.1382,24.9565,322.0294,15,321.4375,14.9295,321.2673,14.7252,321.4812,14.3547,321.2938,13.9706,321.0736,13.5918,320.8663,13.2322,320.7053,13.456,320.798,13.2747,320.43,12.9915,320.0198,12.8755,319.6788,12.6063,319.2744,12.5,318.9375,13.2165,318.9375,12.6549,308.625,12.6726,298.3125,11.8916,288,12.0948,277.6875,13.0307,267.375,12.9298,257.0625,12.4571,246.75,12.1778,236.4375,12.2811,226.125,11.8138,215.8125,12.5,205.5,12.6277,205.5529,12.8742,205.2408,12.955,204.86,13.1534,204.528,13.0437,204.0683,13.2322,203.7322,13.2434,203.7591,13.5363,203.4664,13.9756,203.5268,14.3244,203.3689,14.7169,203.3166,15,203" style="stroke:#000000;stroke-width:0.5;"/><polygon fill="#ADD1B2" points="115.8108,221.6756,114.1984,223.8788,112.2912,227.1057,109.5636,229.2804,106.6974,230.4696,104.412,230.5728,101.4747,229.0855,98.7032,228.1139,96.5995,226.1412,95.4961,223.8828,94.8417,222.0845,94.2006,219.7357,93.16,217.7145,93.9596,215.741,94.6602,213.5792,97.2893,211.8695,99.139,209.6511,101.4284,208.9144,104.1501,208.2801,107.6404,208.657,109.5521,209.5585,111.7747,209.9672,114.4772,212.736,115.4193,215.659,115.8286,217.6534,115.365,220.9399" style="stroke:#181818;stroke-width:1.0;"/><path d="M107.5156,214.875 Q107.6719,214.6563 107.8594,214.5469 Q108.0469,214.4375 108.2656,214.4375 Q108.6406,214.4375 108.875,214.6953 Q109.1094,214.9531 109.1094,215.5625 L109.1094,217.0156 Q109.1094,217.625 108.875,217.8906 Q108.6406,218.1563 108.2656,218.1563 Q107.9219,218.1563 107.7188,217.9531 Q107.5156,217.7656 107.4063,217.25 Q107.3594,216.8906 107.1719,216.7031 Q106.8438,216.3281 106.2344,216.1094 Q105.625,215.8906 105,215.8906 Q104.2344,215.8906 103.6016,216.2188 Q102.9688,216.5469 102.4766,217.2969 Q101.9844,218.0469 101.9844,219.0781 L101.9844,220.1719 Q101.9844,221.4063 102.875,222.2266 Q103.7656,223.0469 105.3594,223.0469 Q106.2969,223.0469 106.9531,222.7969 Q107.3438,222.6406 107.7656,222.2031 Q108.0313,221.9375 108.1797,221.8594 Q108.3281,221.7813 108.5313,221.7813 Q108.8594,221.7813 109.1172,222.0391 Q109.375,222.2969 109.375,222.6406 Q109.375,222.9844 109.0313,223.3906 Q108.5313,223.9688 107.7344,224.2969 Q106.6563,224.75 105.3594,224.75 Q103.8438,224.75 102.6406,224.125 Q101.6563,223.625 100.9688,222.5547 Q100.2813,221.4844 100.2813,220.2031 L100.2813,219.0469 Q100.2813,217.7188 100.8984,216.5703 Q101.5156,215.4219 102.6094,214.8047 Q103.7031,214.1875 104.9375,214.1875 Q105.6719,214.1875 106.3203,214.3516 Q106.9688,214.5156 107.5156,214.875 Z " fill="#000000"/><text fill="#000000" font-family="sans-serif" font-size="14" lengthAdjust="spacing" textLength="41" x="125.25" y="224.7285">Cercle</text><path d="M13.5,235 L13.5,235.2802 L23.587,234.4476 L33.6739,235.2577 L43.7609,235.5329 L53.8478,234.0488 L63.9348,234.8964 L74.0217,234.4313 L84.1087,234.4887 L94.1957,234.9091 L104.2826,234.0782 L114.3696,235.7382 L124.4565,234.1596 L134.5435,234.7363 L144.6304,235.5759 L154.7174,234.8856 L164.8043,235.091 L174.8913,234.9574 L184.9783,235.238 L195.0652,235.3188 L205.1522,235.7809 L215.2391,235.8947 L225.3261,235.9057 L235.413,235.3395 L245.5,235 " fill="#A9D18E" style="stroke:#000000;stroke-width:0.5;"/><text fill="#000000" font-family="sans-serif" font-size="14" lengthAdjust="spacing" textLength="183" x="18.5" y="253.5332">+Rayon : double &#171;get&#187; &#171;set&#187;</text><text fill="#000000" font-family="sans-serif" font-size="14" lengthAdjust="spacing" textLength="192" x="18.5" y="271.1426">+Centre : Point2D &#171;get&#187; &#171;set&#187;</text><path d="M13.5,278.2188 L13.5,278.499 L23.587,277.6663 L33.6739,278.4765 L43.7609,278.7517 L53.8478,277.2676 L63.9348,278.1151 L74.0217,277.6501 L84.1087,277.7074 L94.1957,278.1279 L104.2826,277.2969 L114.3696,278.9569 L124.4565,277.3784 L134.5435,277.9551 L144.6304,278.7947 L154.7174,278.1044 L164.8043,278.3097 L174.8913,278.1762 L184.9783,278.4568 L195.0652,278.5376 L205.1522,278.9997 L215.2391,279.1135 L225.3261,279.1244 L235.413,278.5583 L245.5,278.2188 " fill="#A9D18E" style="stroke:#000000;stroke-width:0.5;"/><text fill="#000000" font-family="sans-serif" font-size="14" lengthAdjust="spacing" textLength="146" x="18.5" y="296.752">+Dessiner() &#171;override&#187;</text><text fill="#000000" font-family="sans-serif" font-size="14" lengthAdjust="spacing" textLength="222" x="18.5" y="314.3613">+CalculerAire() : double &#171;override&#187;</text></g><!--SRC=[nP31IWCn48RlUOf0BugNrPDAATHTGQ47gGVFq-pFDZHEP39HL7ntOxSi2ohrP7CPal-Rv9kaZUSd4dgqBb1ASrNngwouTP7l_HjiPTA0h8dR5_6gOAkIOKRPjjs-6rlM5RbD9p5pMySGnJwilQ9FehIG_dHILPNvCARlh4a4TZA_Q4xFhtVtdDX5v2uZbmw5lRHjpAi0EvrsqDcirFHLT-nTzAmDYeuMTBixQtvX6wJa6N9qN8Bu317VOaXh2Yu7oDmB2Z5wTuGEvaiu9Ux2T_iRAZ-PPP_uWgJx0tQe-Mg8-s6u9Rr6tkTSWrNmBxgV]--></g></svg>