<?xml version="1.0" encoding="us-ascii" standalone="no"?><svg xmlns="http://www.w3.org/2000/svg" xmlns:xlink="http://www.w3.org/1999/xlink" contentStyleType="text/css" height="239px" preserveAspectRatio="none" style="width:838px;height:239px;background:#FFFFFF;" version="1.1" viewBox="0 0 838 239" width="838px" zoomAndPan="magnify"><defs/><g><!--cluster Assembly1--><g id="cluster_Assembly1"><path d="M8.5,6 L8.5,6.5605 L17.875,4.8951 L27.25,6.5154 L36.625,7.0658 L46,4.0976 L55.375,5.7928 L64.75,4.8627 L74.125,4.9773 L83.5,6 L86,8.5 L85.9425,8.4809 L86.8167,12.5284 L89.2671,17.0986 L89.6682,20.9893 L91.4331,25.3322 L93,29.6094 L93,30.7612 L103.0147,29.3806 L113.0294,29.7913 L123.0441,29.5242 L133.0588,30.0854 L143.0735,30.2471 L153.0882,31.1712 L163.1029,31.3989 L173.1176,31.4207 L183.1324,30.2884 L193.1471,30.8456 L203.1618,31.482 L213.1765,27.6862 L223.1912,31.4187 L233.2059,28.8187 L243.2206,31.0329 L253.2353,28.2893 L263.25,29.4267 L273.2647,31.587 L283.2794,29.4794 L293.2941,29.8902 L303.3088,30.5124 L313.3235,30.7193 L323.3382,29.599 L333.3529,30.3753 L343.3676,28.0829 L353.3824,30.3677 L363.3971,31.0712 L373.4118,30.7948 L383.4265,31.2441 L393.4412,28.3212 L403.4559,27.8702 L413.4706,27.9523 L423.4853,29.4524 L433.5,29.6094 L436,32.1094 L435.4759,32.1094 L437.8171,41.9789 L435.5342,51.8484 L435.0852,61.718 L436.6087,71.5875 L434.2218,81.457 L434.6157,91.3266 L437.7305,101.1961 L437.1618,111.0656 L437.9586,120.9352 L435.1419,130.8047 L436.8512,140.6742 L437.5745,150.5438 L434.7403,160.4133 L435.7444,170.2828 L436.336,180.1523 L437.738,190.0219 L435.9888,199.8914 L437.2335,209.7609 L434.5232,219.6305 L436,229.5 L433.5,232 L433.5,230.194 L423.6163,233.343 L413.7326,230.0882 L403.8488,233.3572 L393.9651,232.551 L384.0814,231.2856 L374.1977,231.0566 L364.314,233.2234 L354.4302,231.2018 L344.5465,233.5783 L334.6628,230.526 L324.7791,233.6465 L314.8953,233.2915 L305.0116,232.6532 L295.1279,232.1259 L285.2442,233.9376 L275.3605,233.6362 L265.4767,232.4513 L255.593,232.7152 L245.7093,231.6526 L235.8256,233.9105 L225.9419,232.413 L216.0581,232.4602 L206.1744,230.3777 L196.2907,230.9194 L186.407,233.4153 L176.5233,233.146 L166.6395,231.8855 L156.7558,231.1409 L146.8721,231.4162 L136.9884,230.1702 L127.1047,233.106 L117.2209,233.9722 L107.3372,233.4037 L97.4535,233.8532 L87.5698,231.6354 L77.686,232.2326 L67.8023,230.9664 L57.9186,232.7574 L48.0349,232.658 L38.1512,233.473 L28.2674,231.3876 L18.3837,231.6416 L8.5,232 L6,229.5 L7.1826,229.5 L7.5129,219.4545 L4.6332,209.4091 L5.483,199.3636 L6.398,189.3182 L4.3711,179.2727 L6.9424,169.2273 L6.688,159.1818 L5.7313,149.1364 L6.3793,139.0909 L7.9431,129.0455 L5.1657,119 L6.84,108.9545 L6.7617,98.9091 L6.3087,88.8636 L6.3758,78.8182 L6.3026,68.7727 L4.3356,58.7273 L4.9312,48.6818 L4.7692,38.6364 L6.1702,28.5909 L6.235,18.5455 L6,8.5 L8.5,6 " fill="#DDDDFF" style="stroke:#000000;stroke-width:1.5;"/><path d="M6,29.6094 L6,29.8896 L15.6667,29.0569 L25.3333,29.8671 L35,30.1423 L44.6667,28.6582 L54.3333,29.5058 L64,29.0407 L73.6667,29.098 L83.3333,29.5185 L93,29.6094 " fill="#DDDDFF" style="stroke:#000000;stroke-width:1.5;"/><text fill="#000000" font-family="sans-serif" font-size="14" font-weight="bold" lengthAdjust="spacing" textLength="74" x="10" y="22.5332">Assembly1</text></g><!--cluster Assembly2--><g id="cluster_Assembly2"><path d="M462.5,132 L462.5,132.5605 L471.875,130.8951 L481.25,132.5154 L490.625,133.0658 L500,130.0976 L509.375,131.7928 L518.75,130.8627 L528.125,130.9773 L537.5,132 L540,134.5 L539.9425,134.4809 L540.8167,138.5284 L543.2671,143.0986 L543.6682,146.9893 L545.4331,151.3322 L547,155.6094 L547,156.7612 L557.0536,155.3806 L567.1071,155.7913 L577.1607,155.5242 L587.2143,156.0854 L597.2679,156.2471 L607.3214,157.1712 L617.375,157.3989 L627.4286,157.4207 L637.4821,156.2884 L647.5357,156.8456 L657.5893,157.482 L667.6429,153.6862 L677.6964,157.4187 L687.75,154.8187 L697.8036,157.0329 L707.8571,154.2893 L717.9107,155.4267 L727.9643,157.587 L738.0179,155.4794 L748.0714,155.8902 L758.125,156.5124 L768.1786,156.7193 L778.2321,155.599 L788.2857,156.3753 L798.3393,154.0829 L808.3929,156.3677 L818.4464,157.0712 L828.5,155.6094 L831,158.1094 L832.1854,158.1094 L832.6347,168.308 L829.7118,178.5067 L829.2608,188.7054 L829.3429,198.904 L830.843,209.1027 L830.4759,219.3013 L831,229.5 L828.5,232 L828.5,233.8171 L818.6081,231.5342 L808.7162,231.0852 L798.8243,232.6087 L788.9324,230.2218 L779.0405,230.6157 L769.1486,233.7305 L759.2568,233.1618 L749.3649,233.9586 L739.473,231.1419 L729.5811,232.8512 L719.6892,233.5745 L709.7973,230.7403 L699.9054,231.7444 L690.0135,232.336 L680.1216,233.738 L670.2297,231.9888 L660.3378,233.2335 L650.4459,230.5232 L640.5541,230.194 L630.6622,233.343 L620.7703,230.0882 L610.8784,233.3572 L600.9865,232.551 L591.0946,231.2856 L581.2027,231.0566 L571.3108,233.2234 L561.4189,231.2018 L551.527,233.5783 L541.6351,230.526 L531.7432,233.6465 L521.8514,233.2915 L511.9595,232.6532 L502.0676,232.1259 L492.1757,233.9376 L482.2838,233.6362 L472.3919,232.4513 L462.5,232 L460,229.5 L460.7152,229.5 L459.6526,220 L461.9105,210.5 L460.413,201 L460.4602,191.5 L458.3777,182 L458.9194,172.5 L461.4153,163 L461.146,153.5 L459.8855,144 L460,134.5 L462.5,132 " fill="#DDFFFF" style="stroke:#000000;stroke-width:1.5;"/><path d="M460,155.6094 L460,155.8896 L469.6667,155.0569 L479.3333,155.8671 L489,156.1423 L498.6667,154.6582 L508.3333,155.5058 L518,155.0407 L527.6667,155.098 L537.3333,155.5185 L547,155.6094 " fill="#DDFFFF" style="stroke:#000000;stroke-width:1.5;"/><text fill="#000000" font-family="sans-serif" font-size="14" font-weight="bold" lengthAdjust="spacing" textLength="74" x="464" y="148.5332">Assembly2</text></g><!--class Mere--><g id="elem_Mere"><polygon fill="#BDD7EE" points="237,42,237,42.2102,247,41.5857,257,42.1933,267,42.3997,277,41.2866,287,41.9223,297,41.5735,307,41.6165,317,41.9318,327,41.3086,337,42.5536,347,41.3697,357,41.8022,367,42.4319,377,41.9142,387,42.0682,397,41.9681,407,42.1785,417,42,417.0305,42.0736,417.4283,42.3268,417.7927,42.4996,418.1473,42.6485,418.4467,42.6642,418.7678,42.7322,418.9105,42.7914,419.1305,43.1754,418.8386,43.3473,419.4161,43.8794,419.2622,44.1086,419.5,44.5,420.0338,44.5,419.005,54.6016,419.4315,64.7031,420.2416,74.8047,419.4513,84.9063,419.6053,95.0078,419.5,105.1094,419.6043,105.1526,419.4817,105.516,419.2059,105.816,419.1491,106.2067,418.7379,106.4506,418.7678,106.8771,418.804,106.9647,418.4841,107.1924,418.1174,107.3069,417.7853,107.5053,417.2919,107.3142,417,107.6094,417,106.9572,407,106.988,397,107.5505,387,107.4128,377,108.2908,367,107.4347,357,107.2663,347,107.8376,337,106.9425,327,107.0902,317,108.2583,307,108.045,297,108.3439,287,107.2876,277,107.9286,267,108.1998,257,107.137,247,107.5135,237,107.6094,237.0161,107.6482,236.7296,107.6636,236.2924,107.3152,235.9983,107.3125,235.5151,106.853,235.2322,106.8771,235.0237,106.7908,235.2409,106.5878,234.7186,106.0786,234.9496,105.8814,234.7101,105.4893,234.5,105.1094,234.2321,105.1094,234.1462,95.0078,234.9588,84.9063,234.2007,74.8047,235.0919,64.7031,233.9473,54.6016,234.5,44.5,234.6901,44.5788,234.7956,44.2082,234.8683,43.8241,234.9539,43.4454,235.3096,43.1785,235.2322,42.7322,235.3105,42.9212,235.6074,42.6379,235.9736,42.5219,236.2763,42.2528,236.7378,42.3671,237,42" style="stroke:#000000;stroke-width:0.5;"/><polygon fill="#ADD1B2" points="317.8108,60.6756,316.1984,62.8788,314.2912,66.1057,311.5636,68.2804,308.6974,69.4696,306.412,69.5728,303.4747,68.0855,300.7032,67.1139,298.5995,65.1412,297.4961,62.8828,296.8417,61.0845,296.2006,58.7357,295.16,56.7145,295.9596,54.741,296.6602,52.5792,299.2893,50.8695,301.139,48.6511,303.4284,47.9144,306.1501,47.2801,309.6404,47.657,311.5521,48.5585,313.7747,48.9672,316.4772,51.736,317.4193,54.659,317.8286,56.6534,317.365,59.9399" style="stroke:#181818;stroke-width:1.0;"/><path d="M309.5156,53.875 Q309.6719,53.6563 309.8594,53.5469 Q310.0469,53.4375 310.2656,53.4375 Q310.6406,53.4375 310.875,53.6953 Q311.1094,53.9531 311.1094,54.5625 L311.1094,56.0156 Q311.1094,56.625 310.875,56.8906 Q310.6406,57.1563 310.2656,57.1563 Q309.9219,57.1563 309.7188,56.9531 Q309.5156,56.7656 309.4063,56.25 Q309.3594,55.8906 309.1719,55.7031 Q308.8438,55.3281 308.2344,55.1094 Q307.625,54.8906 307,54.8906 Q306.2344,54.8906 305.6016,55.2188 Q304.9688,55.5469 304.4766,56.2969 Q303.9844,57.0469 303.9844,58.0781 L303.9844,59.1719 Q303.9844,60.4063 304.875,61.2266 Q305.7656,62.0469 307.3594,62.0469 Q308.2969,62.0469 308.9531,61.7969 Q309.3438,61.6406 309.7656,61.2031 Q310.0313,60.9375 310.1797,60.8594 Q310.3281,60.7813 310.5313,60.7813 Q310.8594,60.7813 311.1172,61.0391 Q311.375,61.2969 311.375,61.6406 Q311.375,61.9844 311.0313,62.3906 Q310.5313,62.9688 309.7344,63.2969 Q308.6563,63.75 307.3594,63.75 Q305.8438,63.75 304.6406,63.125 Q303.6563,62.625 302.9688,61.5547 Q302.2813,60.4844 302.2813,59.2031 L302.2813,58.0469 Q302.2813,56.7188 302.8984,55.5703 Q303.5156,54.4219 304.6094,53.8047 Q305.7031,53.1875 306.9375,53.1875 Q307.6719,53.1875 308.3203,53.3516 Q308.9688,53.5156 309.5156,53.875 Z " fill="#000000"/><text fill="#000000" font-family="sans-serif" font-size="14" lengthAdjust="spacing" textLength="32" x="327.25" y="63.7285">Mere</text><path d="M235.5,74 L235.5,74.2802 L245.6667,73.4476 L255.8333,74.2577 L266,74.5329 L276.1667,73.0488 L286.3333,73.8964 L296.5,73.4313 L306.6667,73.4887 L316.8333,73.9091 L327,73.0782 L337.1667,74.7382 L347.3333,73.1596 L357.5,73.7363 L367.6667,74.5759 L377.8333,73.8856 L388,74.091 L398.1667,73.9574 L408.3333,74.238 L418.5,74 " fill="#BDD7EE" style="stroke:#000000;stroke-width:0.5;"/><path d="M235.5,82 L235.5,82.2802 L245.6667,81.4476 L255.8333,82.2577 L266,82.5329 L276.1667,81.0488 L286.3333,81.8964 L296.5,81.4313 L306.6667,81.4887 L316.8333,81.9091 L327,81.0782 L337.1667,82.7382 L347.3333,81.1596 L357.5,81.7363 L367.6667,82.5759 L377.8333,81.8856 L388,82.091 L398.1667,81.9574 L408.3333,82.238 L418.5,82 " fill="#BDD7EE" style="stroke:#000000;stroke-width:0.5;"/><text fill="#000000" font-family="sans-serif" font-size="14" lengthAdjust="spacing" textLength="173" x="240.5" y="100.5332">private MethodeAAcceder()</text></g><!--class FilleAssembly1--><g id="elem_FilleAssembly1"><polygon fill="#EB935B" points="266.5,168,266.5,168.2102,276.5833,167.5857,286.6667,168.1933,296.75,168.3997,306.8333,167.2866,316.9167,167.9223,327,167.5735,337.0833,167.6165,347.1667,167.9318,357.25,167.3086,367.3333,168.5536,377.4167,167.3697,387.5,168,387.4748,167.9391,387.9087,168.2795,388.1962,168.2665,388.5694,168.4604,388.9101,168.5759,389.2678,168.7322,389.3227,168.755,389.4879,169.1163,389.741,169.5141,389.9138,169.8785,390.0627,170.2331,390,170.5,390.0849,170.5,390.1545,179.1,390.2341,187.7,389.7596,196.3,390.2262,204.9,390,213.5,389.9087,213.4622,390.0179,213.9216,389.5547,214.144,389.5396,214.5519,389.6426,215.0088,389.2678,215.2678,389.2616,215.2528,388.9276,215.4466,388.6039,215.6649,388.2602,215.8353,387.8531,215.8524,387.5,216,387.5,216.2872,377.4167,215.4276,367.3333,216.2844,357.25,216.5482,347.1667,216.4445,337.0833,216.613,327,215.5169,316.9167,215.3478,306.8333,215.3786,296.75,215.9411,286.6667,215.8035,276.5833,216.6814,266.5,216,266.4777,215.9462,266.1027,215.7479,265.822,215.7774,265.3543,215.3553,265.0196,215.2543,264.7322,215.2678,264.9321,215.3505,264.72,214.9698,264.6655,214.6544,264.1938,214.1661,264.2447,213.8943,264,213.5,264.1968,213.5,263.8425,204.9,263.968,196.3,264.042,187.7,264.2173,179.1,264,170.5,263.9987,170.4995,264.2889,170.2055,264.1223,169.7223,264.2308,169.3529,264.7409,169.15,264.7322,168.7322,264.6408,168.5114,265.1507,168.7425,265.4657,168.503,265.7587,168.2104,266.1013,168.0375,266.5,168" style="stroke:#000000;stroke-width:0.5;"/><polygon fill="#ADD1B2" points="290.0608,186.6756,288.4484,188.8788,286.5412,192.1057,283.8136,194.2804,280.9474,195.4696,278.662,195.5728,275.7247,194.0855,272.9532,193.1139,270.8495,191.1412,269.7461,188.8828,269.0917,187.0845,268.4506,184.7357,267.41,182.7145,268.2096,180.741,268.9102,178.5792,271.5393,176.8695,273.389,174.6511,275.6784,173.9144,278.4001,173.2801,281.8904,173.657,283.8021,174.5585,286.0247,174.9672,288.7272,177.736,289.6693,180.659,290.0786,182.6534,289.615,185.9399" style="stroke:#181818;stroke-width:1.0;"/><path d="M281.7656,179.875 Q281.9219,179.6563 282.1094,179.5469 Q282.2969,179.4375 282.5156,179.4375 Q282.8906,179.4375 283.125,179.6953 Q283.3594,179.9531 283.3594,180.5625 L283.3594,182.0156 Q283.3594,182.625 283.125,182.8906 Q282.8906,183.1563 282.5156,183.1563 Q282.1719,183.1563 281.9688,182.9531 Q281.7656,182.7656 281.6563,182.25 Q281.6094,181.8906 281.4219,181.7031 Q281.0938,181.3281 280.4844,181.1094 Q279.875,180.8906 279.25,180.8906 Q278.4844,180.8906 277.8516,181.2188 Q277.2188,181.5469 276.7266,182.2969 Q276.2344,183.0469 276.2344,184.0781 L276.2344,185.1719 Q276.2344,186.4063 277.125,187.2266 Q278.0156,188.0469 279.6094,188.0469 Q280.5469,188.0469 281.2031,187.7969 Q281.5938,187.6406 282.0156,187.2031 Q282.2813,186.9375 282.4297,186.8594 Q282.5781,186.7813 282.7813,186.7813 Q283.1094,186.7813 283.3672,187.0391 Q283.625,187.2969 283.625,187.6406 Q283.625,187.9844 283.2813,188.3906 Q282.7813,188.9688 281.9844,189.2969 Q280.9063,189.75 279.6094,189.75 Q278.0938,189.75 276.8906,189.125 Q275.9063,188.625 275.2188,187.5547 Q274.5313,186.4844 274.5313,185.2031 L274.5313,184.0469 Q274.5313,182.7188 275.1484,181.5703 Q275.7656,180.4219 276.8594,179.8047 Q277.9531,179.1875 279.1875,179.1875 Q279.9219,179.1875 280.5703,179.3516 Q281.2188,179.5156 281.7656,179.875 Z " fill="#000000"/><text fill="#000000" font-family="sans-serif" font-size="14" lengthAdjust="spacing" textLength="94" x="293" y="189.7285">FilleAssembly1</text><path d="M265,200 L265,200.2802 L275.3333,199.4476 L285.6667,200.2577 L296,200.5329 L306.3333,199.0488 L316.6667,199.8964 L327,199.4313 L337.3333,199.4887 L347.6667,199.9091 L358,199.0782 L368.3333,200.7382 L378.6667,199.1596 L389,200 " fill="#EB935B" style="stroke:#000000;stroke-width:0.5;"/><path d="M265,208 L265,208.2802 L275.3333,207.4476 L285.6667,208.2577 L296,208.5329 L306.3333,207.0488 L316.6667,207.8964 L327,207.4313 L337.3333,207.4887 L347.6667,207.9091 L358,207.0782 L368.3333,208.7382 L378.6667,207.1596 L389,208 " fill="#EB935B" style="stroke:#000000;stroke-width:0.5;"/></g><!--class AutreClasseAssembly1--><g id="elem_AutreClasseAssembly1"><polygon fill="#EB935B" points="25,51,25,51.2102,35.1176,50.5857,45.2353,51.1933,55.3529,51.3997,65.4706,50.2866,75.5882,50.9223,85.7059,50.5735,95.8235,50.6165,105.9412,50.9318,116.0588,50.3086,126.1765,51.5536,136.2941,50.3697,146.4118,50.8022,156.5294,51.4319,166.6471,50.9142,176.7647,51.0682,186.8824,50.9681,197,51,197.0228,51.055,197.3841,51.2201,197.7818,51.4733,198.1463,51.646,198.5009,51.795,198.7678,51.7322,198.8462,51.7647,199.057,52.1449,199.2769,52.5289,198.985,52.7009,199.5625,53.233,199.5,53.5,199.4012,53.5,199.6779,62.1,199.335,70.7,199.4772,79.3,199.7472,87.9,199.5,96.5,199.485,96.4938,199.386,96.867,199.3114,97.2503,199.1888,97.6138,198.913,97.9137,198.7678,98.2678,198.8044,98.3562,198.3412,98.2379,198.0969,98.6482,197.777,98.8759,197.4103,98.9905,197,99,197,99.613,186.8824,98.5169,176.7647,98.3478,166.6471,98.3786,156.5294,98.9411,146.4118,98.8035,136.2941,99.6814,126.1765,98.8253,116.0588,98.6569,105.9412,99.2283,95.8235,98.3332,85.7059,98.4809,75.5882,99.649,65.4706,99.4357,55.3529,99.7345,45.2353,98.6782,35.1176,99.3192,25,99,25.0753,99.1818,24.5862,98.7081,24.2807,98.6776,23.9554,98.5995,23.6689,98.6149,23.2322,98.2678,23.2309,98.2672,23.2282,97.9732,22.7688,97.49,22.5843,97.1207,22.8015,96.9178,22.5,96.5,22.261,96.5,22.6697,87.9,22.5689,79.3,22.4107,70.7,22.3821,62.1,22.5,53.5,22.6413,53.5585,22.5543,53.1083,22.9752,52.8684,22.7691,52.3688,23.2759,52.1645,23.2322,51.7322,23.294,51.8814,23.617,51.6612,23.9454,51.4539,24.3856,51.5167,24.7247,51.3354,25,51" style="stroke:#000000;stroke-width:0.5;"/><polygon fill="#ADD1B2" points="48.5608,69.6756,46.9484,71.8788,45.0412,75.1057,42.3136,77.2804,39.4474,78.4696,37.162,78.5728,34.2247,77.0855,31.4532,76.1139,29.3495,74.1412,28.2461,71.8828,27.5917,70.0845,26.9506,67.7357,25.91,65.7145,26.7096,63.741,27.4102,61.5792,30.0393,59.8695,31.889,57.6511,34.1784,56.9144,36.9001,56.2801,40.3904,56.657,42.3021,57.5585,44.5247,57.9672,47.2272,60.736,48.1693,63.659,48.5786,65.6534,48.115,68.9399" style="stroke:#181818;stroke-width:1.0;"/><path d="M40.2656,62.875 Q40.4219,62.6563 40.6094,62.5469 Q40.7969,62.4375 41.0156,62.4375 Q41.3906,62.4375 41.625,62.6953 Q41.8594,62.9531 41.8594,63.5625 L41.8594,65.0156 Q41.8594,65.625 41.625,65.8906 Q41.3906,66.1563 41.0156,66.1563 Q40.6719,66.1563 40.4688,65.9531 Q40.2656,65.7656 40.1563,65.25 Q40.1094,64.8906 39.9219,64.7031 Q39.5938,64.3281 38.9844,64.1094 Q38.375,63.8906 37.75,63.8906 Q36.9844,63.8906 36.3516,64.2188 Q35.7188,64.5469 35.2266,65.2969 Q34.7344,66.0469 34.7344,67.0781 L34.7344,68.1719 Q34.7344,69.4063 35.625,70.2266 Q36.5156,71.0469 38.1094,71.0469 Q39.0469,71.0469 39.7031,70.7969 Q40.0938,70.6406 40.5156,70.2031 Q40.7813,69.9375 40.9297,69.8594 Q41.0781,69.7813 41.2813,69.7813 Q41.6094,69.7813 41.8672,70.0391 Q42.125,70.2969 42.125,70.6406 Q42.125,70.9844 41.7813,71.3906 Q41.2813,71.9688 40.4844,72.2969 Q39.4063,72.75 38.1094,72.75 Q36.5938,72.75 35.3906,72.125 Q34.4063,71.625 33.7188,70.5547 Q33.0313,69.4844 33.0313,68.2031 L33.0313,67.0469 Q33.0313,65.7188 33.6484,64.5703 Q34.2656,63.4219 35.3594,62.8047 Q36.4531,62.1875 37.6875,62.1875 Q38.4219,62.1875 39.0703,62.3516 Q39.7188,62.5156 40.2656,62.875 Z " fill="#000000"/><text fill="#000000" font-family="sans-serif" font-size="14" lengthAdjust="spacing" textLength="145" x="51.5" y="72.7285">AutreClasseAssembly1</text><path d="M23.5,83 L23.5,83.2802 L33.2222,82.4476 L42.9444,83.2577 L52.6667,83.5329 L62.3889,82.0488 L72.1111,82.8964 L81.8333,82.4313 L91.5556,82.4887 L101.2778,82.9091 L111,82.0782 L120.7222,83.7382 L130.4444,82.1596 L140.1667,82.7363 L149.8889,83.5759 L159.6111,82.8856 L169.3333,83.091 L179.0556,82.9574 L188.7778,83.238 L198.5,83 " fill="#EB935B" style="stroke:#000000;stroke-width:0.5;"/><path d="M23.5,91 L23.5,91.2802 L33.2222,90.4476 L42.9444,91.2577 L52.6667,91.5329 L62.3889,90.0488 L72.1111,90.8964 L81.8333,90.4313 L91.5556,90.4887 L101.2778,90.9091 L111,90.0782 L120.7222,91.7382 L130.4444,90.1596 L140.1667,90.7363 L149.8889,91.5759 L159.6111,90.8856 L169.3333,91.091 L179.0556,90.9574 L188.7778,91.238 L198.5,91 " fill="#EB935B" style="stroke:#000000;stroke-width:0.5;"/></g><!--class FilleAssembly2--><g id="elem_FilleAssembly2"><polygon fill="#EB935B" points="691.5,168,691.5,168.2102,701.5833,167.5857,711.6667,168.1933,721.75,168.3997,731.8333,167.2866,741.9167,167.9223,752,167.5735,762.0833,167.6165,772.1667,167.9318,782.25,167.3086,792.3333,168.5536,802.4167,167.3697,812.5,168,812.4748,167.9391,812.9087,168.2795,813.1962,168.2665,813.5694,168.4604,813.9101,168.5759,814.2678,168.7322,814.3227,168.755,814.4879,169.1163,814.741,169.5141,814.9138,169.8785,815.0627,170.2331,815,170.5,815.0849,170.5,815.1545,179.1,815.2341,187.7,814.7596,196.3,815.2262,204.9,815,213.5,814.9087,213.4622,815.0179,213.9216,814.5547,214.144,814.5396,214.5519,814.6426,215.0088,814.2678,215.2678,814.2616,215.2528,813.9276,215.4466,813.6039,215.6649,813.2602,215.8353,812.8531,215.8524,812.5,216,812.5,216.2872,802.4167,215.4276,792.3333,216.2844,782.25,216.5482,772.1667,216.4445,762.0833,216.613,752,215.5169,741.9167,215.3478,731.8333,215.3786,721.75,215.9411,711.6667,215.8035,701.5833,216.6814,691.5,216,691.4777,215.9462,691.1027,215.7479,690.822,215.7774,690.3543,215.3553,690.0196,215.2543,689.7322,215.2678,689.9321,215.3505,689.72,214.9698,689.6655,214.6544,689.1938,214.1661,689.2447,213.8943,689,213.5,689.1968,213.5,688.8425,204.9,688.968,196.3,689.042,187.7,689.2173,179.1,689,170.5,688.9987,170.4995,689.2889,170.2055,689.1223,169.7223,689.2308,169.3529,689.7409,169.15,689.7322,168.7322,689.6408,168.5114,690.1507,168.7425,690.4657,168.503,690.7587,168.2104,691.1013,168.0375,691.5,168" style="stroke:#000000;stroke-width:0.5;"/><polygon fill="#ADD1B2" points="715.0608,186.6756,713.4484,188.8788,711.5412,192.1057,708.8136,194.2804,705.9474,195.4696,703.662,195.5728,700.7247,194.0855,697.9532,193.1139,695.8495,191.1412,694.7461,188.8828,694.0917,187.0845,693.4506,184.7357,692.41,182.7145,693.2096,180.741,693.9102,178.5792,696.5393,176.8695,698.389,174.6511,700.6784,173.9144,703.4001,173.2801,706.8904,173.657,708.8021,174.5585,711.0247,174.9672,713.7272,177.736,714.6693,180.659,715.0786,182.6534,714.615,185.9399" style="stroke:#181818;stroke-width:1.0;"/><path d="M706.7656,179.875 Q706.9219,179.6563 707.1094,179.5469 Q707.2969,179.4375 707.5156,179.4375 Q707.8906,179.4375 708.125,179.6953 Q708.3594,179.9531 708.3594,180.5625 L708.3594,182.0156 Q708.3594,182.625 708.125,182.8906 Q707.8906,183.1563 707.5156,183.1563 Q707.1719,183.1563 706.9688,182.9531 Q706.7656,182.7656 706.6563,182.25 Q706.6094,181.8906 706.4219,181.7031 Q706.0938,181.3281 705.4844,181.1094 Q704.875,180.8906 704.25,180.8906 Q703.4844,180.8906 702.8516,181.2188 Q702.2188,181.5469 701.7266,182.2969 Q701.2344,183.0469 701.2344,184.0781 L701.2344,185.1719 Q701.2344,186.4063 702.125,187.2266 Q703.0156,188.0469 704.6094,188.0469 Q705.5469,188.0469 706.2031,187.7969 Q706.5938,187.6406 707.0156,187.2031 Q707.2813,186.9375 707.4297,186.8594 Q707.5781,186.7813 707.7813,186.7813 Q708.1094,186.7813 708.3672,187.0391 Q708.625,187.2969 708.625,187.6406 Q708.625,187.9844 708.2813,188.3906 Q707.7813,188.9688 706.9844,189.2969 Q705.9063,189.75 704.6094,189.75 Q703.0938,189.75 701.8906,189.125 Q700.9063,188.625 700.2188,187.5547 Q699.5313,186.4844 699.5313,185.2031 L699.5313,184.0469 Q699.5313,182.7188 700.1484,181.5703 Q700.7656,180.4219 701.8594,179.8047 Q702.9531,179.1875 704.1875,179.1875 Q704.9219,179.1875 705.5703,179.3516 Q706.2188,179.5156 706.7656,179.875 Z " fill="#000000"/><text fill="#000000" font-family="sans-serif" font-size="14" lengthAdjust="spacing" textLength="94" x="718" y="189.7285">FilleAssembly2</text><path d="M690,200 L690,200.2802 L700.3333,199.4476 L710.6667,200.2577 L721,200.5329 L731.3333,199.0488 L741.6667,199.8964 L752,199.4313 L762.3333,199.4887 L772.6667,199.9091 L783,199.0782 L793.3333,200.7382 L803.6667,199.1596 L814,200 " fill="#EB935B" style="stroke:#000000;stroke-width:0.5;"/><path d="M690,208 L690,208.2802 L700.3333,207.4476 L710.6667,208.2577 L721,208.5329 L731.3333,207.0488 L741.6667,207.8964 L752,207.4313 L762.3333,207.4887 L772.6667,207.9091 L783,207.0782 L793.3333,208.7382 L803.6667,207.1596 L814,208 " fill="#EB935B" style="stroke:#000000;stroke-width:0.5;"/></g><!--class AutreClasseAssembly2--><g id="elem_AutreClasseAssembly2"><polygon fill="#EB935B" points="479,168,479,168.2102,489.1176,167.5857,499.2353,168.1933,509.3529,168.3997,519.4706,167.2866,529.5882,167.9223,539.7059,167.5735,549.8235,167.6165,559.9412,167.9318,570.0588,167.3086,580.1765,168.5536,590.2941,167.3697,600.4118,167.8022,610.5294,168.4319,620.6471,167.9142,630.7647,168.0682,640.8824,167.9681,651,168,651.0228,168.055,651.3841,168.2201,651.7818,168.4733,652.1463,168.646,652.5009,168.795,652.7678,168.7322,652.8462,168.7647,653.057,169.1449,653.2769,169.5289,652.985,169.7009,653.5625,170.233,653.5,170.5,653.4012,170.5,653.6779,179.1,653.335,187.7,653.4772,196.3,653.7472,204.9,653.5,213.5,653.485,213.4938,653.386,213.867,653.3114,214.2503,653.1888,214.6138,652.913,214.9137,652.7678,215.2678,652.8044,215.3562,652.3412,215.2379,652.0969,215.6482,651.777,215.8759,651.4103,215.9905,651,216,651,216.613,640.8824,215.5169,630.7647,215.3478,620.6471,215.3786,610.5294,215.9411,600.4118,215.8035,590.2941,216.6814,580.1765,215.8253,570.0588,215.6569,559.9412,216.2283,549.8235,215.3332,539.7059,215.4809,529.5882,216.649,519.4706,216.4357,509.3529,216.7345,499.2353,215.6782,489.1176,216.3192,479,216,479.0753,216.1818,478.5862,215.7081,478.2807,215.6776,477.9554,215.5995,477.6689,215.6149,477.2322,215.2678,477.2309,215.2672,477.2282,214.9732,476.7688,214.49,476.5843,214.1207,476.8015,213.9178,476.5,213.5,476.261,213.5,476.6697,204.9,476.5689,196.3,476.4107,187.7,476.3821,179.1,476.5,170.5,476.6413,170.5585,476.5543,170.1083,476.9752,169.8684,476.7691,169.3688,477.2759,169.1645,477.2322,168.7322,477.294,168.8814,477.617,168.6612,477.9454,168.4539,478.3856,168.5167,478.7247,168.3354,479,168" style="stroke:#000000;stroke-width:0.5;"/><polygon fill="#ADD1B2" points="502.5608,186.6756,500.9484,188.8788,499.0412,192.1057,496.3136,194.2804,493.4474,195.4696,491.162,195.5728,488.2247,194.0855,485.4532,193.1139,483.3495,191.1412,482.2461,188.8828,481.5917,187.0845,480.9506,184.7357,479.91,182.7145,480.7096,180.741,481.4102,178.5792,484.0393,176.8695,485.889,174.6511,488.1784,173.9144,490.9001,173.2801,494.3904,173.657,496.3021,174.5585,498.5247,174.9672,501.2272,177.736,502.1693,180.659,502.5786,182.6534,502.115,185.9399" style="stroke:#181818;stroke-width:1.0;"/><path d="M494.2656,179.875 Q494.4219,179.6563 494.6094,179.5469 Q494.7969,179.4375 495.0156,179.4375 Q495.3906,179.4375 495.625,179.6953 Q495.8594,179.9531 495.8594,180.5625 L495.8594,182.0156 Q495.8594,182.625 495.625,182.8906 Q495.3906,183.1563 495.0156,183.1563 Q494.6719,183.1563 494.4688,182.9531 Q494.2656,182.7656 494.1563,182.25 Q494.1094,181.8906 493.9219,181.7031 Q493.5938,181.3281 492.9844,181.1094 Q492.375,180.8906 491.75,180.8906 Q490.9844,180.8906 490.3516,181.2188 Q489.7188,181.5469 489.2266,182.2969 Q488.7344,183.0469 488.7344,184.0781 L488.7344,185.1719 Q488.7344,186.4063 489.625,187.2266 Q490.5156,188.0469 492.1094,188.0469 Q493.0469,188.0469 493.7031,187.7969 Q494.0938,187.6406 494.5156,187.2031 Q494.7813,186.9375 494.9297,186.8594 Q495.0781,186.7813 495.2813,186.7813 Q495.6094,186.7813 495.8672,187.0391 Q496.125,187.2969 496.125,187.6406 Q496.125,187.9844 495.7813,188.3906 Q495.2813,188.9688 494.4844,189.2969 Q493.4063,189.75 492.1094,189.75 Q490.5938,189.75 489.3906,189.125 Q488.4063,188.625 487.7188,187.5547 Q487.0313,186.4844 487.0313,185.2031 L487.0313,184.0469 Q487.0313,182.7188 487.6484,181.5703 Q488.2656,180.4219 489.3594,179.8047 Q490.4531,179.1875 491.6875,179.1875 Q492.4219,179.1875 493.0703,179.3516 Q493.7188,179.5156 494.2656,179.875 Z " fill="#000000"/><text fill="#000000" font-family="sans-serif" font-size="14" lengthAdjust="spacing" textLength="145" x="505.5" y="189.7285">AutreClasseAssembly2</text><path d="M477.5,200 L477.5,200.2802 L487.2222,199.4476 L496.9444,200.2577 L506.6667,200.5329 L516.3889,199.0488 L526.1111,199.8964 L535.8333,199.4313 L545.5556,199.4887 L555.2778,199.9091 L565,199.0782 L574.7222,200.7382 L584.4444,199.1596 L594.1667,199.7363 L603.8889,200.5759 L613.6111,199.8856 L623.3333,200.091 L633.0556,199.9574 L642.7778,200.238 L652.5,200 " fill="#EB935B" style="stroke:#000000;stroke-width:0.5;"/><path d="M477.5,208 L477.5,208.2802 L487.2222,207.4476 L496.9444,208.2577 L506.6667,208.5329 L516.3889,207.0488 L526.1111,207.8964 L535.8333,207.4313 L545.5556,207.4887 L555.2778,207.9091 L565,207.0782 L574.7222,208.7382 L584.4444,207.1596 L594.1667,207.7363 L603.8889,208.5759 L613.6111,207.8856 L623.3333,208.091 L633.0556,207.9574 L642.7778,208.238 L652.5,208 " fill="#EB935B" style="stroke:#000000;stroke-width:0.5;"/></g><!--reverse link Mere to FilleAssembly1--><g id="link_Mere_FilleAssembly1"><path d="M327,126.03 L327.0934,126.03 L326.8159,134.402 L327.0859,142.774 L327.1776,151.146 L326.6829,159.518 L327,167.89 " fill="none" style="stroke:#181818;stroke-width:1.0;"/><polygon fill="none" points="327,108.03,327.0665,108.0522,325.669,111.5863,324.6611,115.2504,323.5264,118.8721,321.9744,122.3548,321,126.03,321,126.0041,323.4,125.8878,325.8,125.9022,328.2,126.0073,330.6,125.7995,333,126.03,333.1751,126.0884,331.6007,122.3636,330.5375,118.8092,329.5366,115.2755,328.1729,111.621,327,108.03" style="stroke:#181818;stroke-width:1.0;"/></g><!--reverse link Mere to FilleAssembly2--><g id="link_Mere_FilleAssembly2"><path d="M437.588,84.8084 L437.5968,84.9014 L444.1653,85.2478 L450.7853,86.1393 L457.3886,86.8533 L463.9367,86.9835 L470.5611,87.9218 L470.5575,87.8875 L477.2806,88.4459 L484.0219,89.1775 L490.776,90.0295 L497.4862,90.4666 L504.2578,91.4848 L504.2873,91.7291 L510.9275,92.0152 L517.6537,93.0146 L524.3905,94.101 L531.0661,94.6811 L537.7739,95.5275 L537.778,95.5576 L541.0536,95.9556 L544.3476,96.4905 L547.6328,96.9594 L550.9349,97.5542 L554.1817,97.7383 L554.2248,98.0335 L557.4301,98.5055 L560.6075,98.7872 L563.8256,99.3475 L567.0457,99.9209 L570.2052,100.0805 L570.1547,99.7639 L573.358,100.8737 L576.395,100.9412 L579.5584,101.8011 L582.5916,101.845 L585.7316,102.5577 L585.7263,102.5277 L588.7717,103.4056 L591.6943,103.5828 L594.6893,104.1735 L597.6904,104.7989 L600.6477,105.1739 L600.683,105.3555 L603.4859,105.7239 L606.3492,106.4027 L609.1148,106.5794 L612.026,107.505 L614.8405,107.9327 L614.8923,108.1708 L617.5538,108.7068 L620.241,109.3611 L622.8088,109.4661 L625.4641,109.9737 L628.197,110.838 L628.131,110.5699 L630.6722,111.4237 L633.139,111.9755 L635.7138,112.9655 L638.1043,113.2071 L640.6043,113.8936 L640.5628,113.7469 L642.9009,114.6332 L645.0616,114.8923 L647.3484,115.5974 L649.7587,116.7389 L651.9492,117.1033 L652.0101,117.2871 L654.0857,118.0867 L655.9721,118.3146 L658.0955,119.2585 L660.1673,120.0464 L662.1188,120.4708 L662.0412,120.2757 L663.8793,121.1371 L665.6919,121.9345 L667.5545,122.8575 L669.2231,123.2924 L671,124 L671.0966,124.1815 L674.2762,125.5871 L677.6423,127.3431 L681.2807,129.6108 L684.4177,130.9363 L687.9592,133.022 L688.0882,133.2079 L691.206,135.3138 L694.2802,137.3569 L697.4528,139.5419 L700.8531,142.0549 L703.9312,144.1038 L703.8464,144.0013 L706.9968,146.7068 L709.5701,148.7155 L712.7996,151.5165 L715.6597,153.8714 L718.4202,156.1061 L718.4948,156.1853 L720.9365,158.4782 L723.6455,161.0547 L726.113,163.3749 L728.4796,165.588 L730.93,167.89 " fill="none" style="stroke:#181818;stroke-width:1.0;"/><polygon fill="none" points="419.66,83.2,419.688,83.2642,423.0832,84.5903,426.6425,86.2928,430.1484,87.8728,433.4784,89.0496,437.0518,90.7844,437.026,90.7821,437.1247,88.3813,437.3534,85.9922,437.6726,83.6112,437.6801,81.2023,438.1241,78.8324,438.1666,79.012,434.383,79.5015,430.7233,80.5153,427.0788,81.5931,423.3462,82.2987,419.66,83.2" style="stroke:#181818;stroke-width:1.0;"/></g><!--SRC=[bOynRy8m48Lt_ugJij01AGsg458NXoGI0rE7piOv4GjZH-SBLMdxtsiI1A52hNhJoU_vk_V2phXMaTg3jYe4oKncqp6kj7SlveYGYd2nDChLRsIOqG5JXoEf_mqV0kBaIk-sv3jNBxtr1A-DOHmKJpNIy9gaQIg-X6YZMsqHP0YutzZtHqYAeZgZ1kmQ2I79Ys9UbcVXD2sPWsACCZU-HYcrneYVFFIEYBuIAcCjZYwK-MBsb4VMsDgVUVwSJd_Ono3PCU7ojFw6krChYxMgsretLxB_XSh-29NT2_KD]--></g></svg>