<?xml version="1.0" encoding="UTF-8" standalone="no"?><svg xmlns="http://www.w3.org/2000/svg" xmlns:xlink="http://www.w3.org/1999/xlink" contentScriptType="application/ecmascript" contentStyleType="text/css" height="256px" preserveAspectRatio="none" style="width:805px;height:256px;" version="1.1" viewBox="0 0 805 256" width="805px" zoomAndPan="magnify"><defs><filter height="300%" id="f1rc990dh1flts" width="300%" x="-1" y="-1"><feGaussianBlur result="blurOut" stdDeviation="2.0"/><feColorMatrix in="blurOut" result="blurOut2" type="matrix" values="0 0 0 0 0 0 0 0 0 0 0 0 0 0 0 0 0 0 .4 0"/><feOffset dx="4.0" dy="4.0" in="blurOut2" result="blurOut3"/><feBlend in="SourceGraphic" in2="blurOut3" mode="normal"/></filter></defs><g><!--cluster Assembly1--><polygon fill="#DDDDFF" filter="url(#f1rc990dh1flts)" points="22,24,22,24.2102,31.4444,23.5857,40.8889,24.1933,50.3333,24.3997,59.7778,23.2866,69.2222,23.9223,78.6667,23.5735,88.1111,23.6165,97.5556,23.9318,107,24,106.78,23.9315,108.5762,28.5525,109.5994,32.9329,111.1371,37.4734,112.7375,42.0334,114,46.4883,114,46.4025,123.9,46.5565,133.8,46.4563,143.7,46.6668,153.6,46.7274,163.5,47.074,173.4,47.1593,183.3,47.1675,193.2,46.7429,203.1,46.9519,213,47.1905,222.9,45.7671,232.8,47.1668,242.7,46.1918,252.6,47.0221,262.5,45.9933,272.4,46.4198,282.3,47.2299,292.2,46.4395,302.1,46.5936,312,46.8269,321.9,46.9045,331.8,46.4844,341.7,46.7755,351.6,45.9159,361.5,46.7727,371.4,47.0365,381.3,46.9328,391.2,47.1013,401.1,46.0052,411,46.4883,410.3478,46.4883,410.3786,56.3639,410.9411,66.2395,410.8035,76.115,411.6814,85.9906,410.8253,95.8662,410.6569,105.7418,411.2283,115.6174,410.3332,125.493,410.4809,135.3686,411.649,145.2441,411.4357,155.1197,411.7345,164.9953,410.6782,174.8709,411.3192,184.7465,411.5904,194.6221,410.5276,204.4977,410.9041,214.3732,411.126,224.2488,411.6518,234.1244,411,244,411,243.9958,401.0256,244.4626,391.0513,243.4462,381.0769,243.3227,371.1026,244.5036,361.1282,243.2831,351.1538,244.509,341.1795,244.2066,331.2051,243.7321,321.2308,243.6462,311.2564,244.4588,301.2821,243.7007,291.3077,244.5919,281.3333,243.4473,271.359,244.6174,261.3846,244.4843,251.4103,244.245,241.4359,244.0472,231.4615,244.7266,221.4872,244.6136,211.5128,244.1693,201.5385,244.2682,191.5641,243.8697,181.5897,244.7165,171.6154,244.1549,161.641,244.1726,151.6667,243.3916,141.6923,243.5948,131.7179,244.5307,121.7436,244.4298,111.7692,243.9571,101.7949,243.6778,91.8205,243.7811,81.8462,243.3138,71.8718,244.4147,61.8974,244.7396,51.9231,244.5264,41.9487,244.6949,31.9744,243.8633,22,244,22.0872,244,21.6124,234,22.284,224,22.2468,214,22.5524,204,21.7703,194,21.8656,184,22.4435,174,22.5673,164,21.4875,154,21.8061,144,22.1493,134,21.3892,124,22.3534,114,22.258,104,21.8992,94,22.1422,84,22.7287,74,21.6871,64,22.315,54,22.2856,44,22.1158,34,22,24" style="stroke: #000000; stroke-width: 1.5;"/><path d="M22,46.4883 L22,46.7685 L32.2222,45.9359 L42.4444,46.746 L52.6667,47.0212 L62.8889,45.5371 L73.1111,46.3847 L83.3333,45.9196 L93.5556,45.9769 L103.7778,46.3974 L114,46.4883 " fill="#DDDDFF" style="stroke: #000000; stroke-width: 1.5;"/><text fill="#000000" font-family="sans-serif" font-size="14" font-weight="bold" lengthAdjust="spacingAndGlyphs" textLength="79" x="26" y="39.5352">Assembly1</text><!--cluster Assembly2--><polygon fill="#DDFFFF" filter="url(#f1rc990dh1flts)" points="435,145,435,145.2102,444.4444,144.5857,453.8889,145.1933,463.3333,145.3997,472.7778,144.2866,482.2222,144.9223,491.6667,144.5735,501.1111,144.6165,510.5556,144.9318,520,145,519.78,144.9315,521.5762,149.5525,522.5994,153.9329,524.1371,158.4734,525.7375,163.0334,527,167.4883,527,167.4025,536.8462,167.5565,546.6923,167.4563,556.5385,167.6668,566.3846,167.7274,576.2308,168.074,586.0769,168.1593,595.9231,168.1675,605.7692,167.7429,615.6154,167.9519,625.4615,168.1905,635.3077,166.7671,645.1538,168.1668,655,167.1918,664.8462,168.0221,674.6923,166.9933,684.5385,167.4198,694.3846,168.2299,704.2308,167.4395,714.0769,167.5936,723.9231,167.8269,733.7692,167.9045,743.6154,167.4844,753.4615,167.7755,763.3077,166.9159,773.1538,167.7727,783,167.4883,783.5482,167.4883,783.4445,177.0522,783.613,186.6162,782.5169,196.1802,782.3478,205.7441,782.3786,215.3081,782.9411,224.8721,782.8035,234.436,783,244,783,244.6814,773.0571,243.8253,763.1143,243.6569,753.1714,244.2283,743.2286,243.3332,733.2857,243.4809,723.3429,244.649,713.4,244.4357,703.4571,244.7345,693.5143,243.6782,683.5714,244.3192,673.6286,244.5904,663.6857,243.5276,653.7429,243.9041,643.8,244.126,633.8571,244.6518,623.9143,243.9958,613.9714,244.4626,604.0286,243.4462,594.0857,243.3227,584.1429,244.5036,574.2,243.2831,564.2571,244.509,554.3143,244.2066,544.3714,243.7321,534.4286,243.6462,524.4857,244.4588,514.5429,243.7007,504.6,244.5919,494.6571,243.4473,484.7143,244.6174,474.7714,244.4843,464.8286,244.245,454.8857,244.0472,444.9429,244.7266,435,244,435.6136,244,435.1693,234.1,435.2682,224.2,434.8697,214.3,435.7165,204.4,435.1549,194.5,435.1726,184.6,434.3916,174.7,434.5948,164.8,435.5307,154.9,435,145" style="stroke: #000000; stroke-width: 1.5;"/><path d="M435,167.4883 L435,167.7685 L445.2222,166.9359 L455.4444,167.746 L465.6667,168.0212 L475.8889,166.5371 L486.1111,167.3847 L496.3333,166.9196 L506.5556,166.9769 L516.7778,167.3974 L527,167.4883 " fill="#DDFFFF" style="stroke: #000000; stroke-width: 1.5;"/><text fill="#000000" font-family="sans-serif" font-size="14" font-weight="bold" lengthAdjust="spacingAndGlyphs" textLength="79" x="439" y="160.5352">Assembly2</text><!--class Mere--><polygon fill="#BDD7EE" filter="url(#f1rc990dh1flts)" points="237,59,237,59.2102,246.875,58.5857,256.75,59.1933,266.625,59.3997,276.5,58.2866,286.375,58.9223,296.25,58.5735,306.125,58.6165,316,58.9318,325.875,58.3086,335.75,59.5536,345.625,58.3697,355.5,58.8022,365.375,59.4319,375.25,58.9142,385.125,59.0682,395,59,394.9681,59,395.1785,69.1592,395.2391,79.3184,395.5857,89.4775,395.6711,99.6367,395.6793,109.7959,395,119.9551,395,120.2097,385.125,120.4187,375.25,120.6573,365.375,119.2339,355.5,120.6336,345.625,119.6586,335.75,120.4889,325.875,119.4601,316,119.8866,306.125,120.6967,296.25,119.9063,286.375,120.0604,276.5,120.2937,266.625,120.3713,256.75,119.9512,246.875,120.2423,237,119.9551,236.4276,119.9551,237.2844,109.7959,237.5482,99.6367,237.4445,89.4775,237.613,79.3184,236.5169,69.1592,237,59" style="stroke: #000000; stroke-width: 1.5;"/><polygon fill="#BDD7EE" points="237,59,237,59.2102,246.875,58.5857,256.75,59.1933,266.625,59.3997,276.5,58.2866,286.375,58.9223,296.25,58.5735,306.125,58.6165,316,58.9318,325.875,58.3086,335.75,59.5536,345.625,58.3697,355.5,58.8022,365.375,59.4319,375.25,58.9142,385.125,59.0682,395,59,394.9894,59,395.0595,65.4,395.0797,71.8,395.1952,78.2,395.2237,84.6,395,91,395,91.6793,385.125,91.2546,375.25,91.4636,365.375,91.7022,355.5,90.2788,345.625,91.6785,335.75,90.7035,325.875,91.5338,316,90.505,306.125,90.9315,296.25,91.7416,286.375,90.9513,276.5,91.1053,266.625,91.3386,256.75,91.4162,246.875,90.9961,237,91,237.0957,91,236.8092,84.6,237.0948,78.2,237.1827,71.8,237.1482,65.4,237,59" style="stroke: #000000; stroke-width: 1.5;"/><polygon fill="#ADD1B2" points="308.3108,77.6756,306.6984,79.8788,304.7912,83.1057,302.0636,85.2804,299.1974,86.4696,296.912,86.5728,293.9747,85.0855,291.2032,84.1139,289.0995,82.1412,287.9961,79.8828,287.3417,78.0845,286.7006,75.7357,285.66,73.7145,286.4596,71.741,287.1602,69.5792,289.7893,67.8695,291.639,65.6511,293.9284,64.9144,296.6501,64.2801,300.1404,64.657,302.0521,65.5585,304.2747,65.9672,306.9772,68.736,307.9193,71.659,308.3286,73.6534,307.865,76.9399" style="stroke: #000000; stroke-width: 1.0;"/><path d="M299.7231,81.1431 Q299.1421,81.4419 298.5029,81.5913 Q297.8638,81.7407 297.1582,81.7407 Q294.6514,81.7407 293.3315,80.0889 Q292.0117,78.437 292.0117,75.3159 Q292.0117,72.1865 293.3315,70.5347 Q294.6514,68.8828 297.1582,68.8828 Q297.8638,68.8828 298.5112,69.0322 Q299.1587,69.1816 299.7231,69.4805 L299.7231,72.2031 Q299.0923,71.6221 298.4988,71.3523 Q297.9053,71.0825 297.2744,71.0825 Q295.9297,71.0825 295.2449,72.1492 Q294.5601,73.2158 294.5601,75.3159 Q294.5601,77.4077 295.2449,78.4744 Q295.9297,79.541 297.2744,79.541 Q297.9053,79.541 298.4988,79.2712 Q299.0923,79.0015 299.7231,78.4204 Z "/><text fill="#000000" font-family="sans-serif" font-size="12" lengthAdjust="spacingAndGlyphs" textLength="29" x="317.75" y="79.5352">Mere</text><path d="M238,91 L238,91.2802 L247.75,90.4476 L257.5,91.2577 L267.25,91.5329 L277,90.0488 L286.75,90.8964 L296.5,90.4313 L306.25,90.4887 L316,90.9091 L325.75,90.0782 L335.5,91.7382 L345.25,90.1596 L355,90.7363 L364.75,91.5759 L374.5,90.8856 L384.25,91.091 L394,91 " fill="#BDD7EE" style="stroke: #000000; stroke-width: 1.5;"/><path d="M238,99 L238,99.2802 L247.75,98.4476 L257.5,99.2577 L267.25,99.5329 L277,98.0488 L286.75,98.8964 L296.5,98.4313 L306.25,98.4887 L316,98.9091 L325.75,98.0782 L335.5,99.7382 L345.25,98.1596 L355,98.7363 L364.75,99.5759 L374.5,98.8856 L384.25,99.091 L394,99 " fill="#BDD7EE" style="stroke: #000000; stroke-width: 1.5;"/><text fill="#000000" font-family="sans-serif" font-size="11" lengthAdjust="spacingAndGlyphs" textLength="146" x="243" y="113.6348">private MethodeAAcceder()</text><!--class FilleAssembly1--><polygon fill="#EB935B" filter="url(#f1rc990dh1flts)" points="257.5,180,257.5,180.2102,267.25,179.5857,277,180.1933,286.75,180.3997,296.5,179.2866,306.25,179.9223,316,179.5735,325.75,179.6165,335.5,179.9318,345.25,179.3086,355,180.5536,364.75,179.3697,374.5,180,374.3022,180,374.9319,189.6,374.4142,199.2,374.5682,208.8,374.4681,218.4,374.5,228,374.5,228.1785,364.75,228.2391,355,228.5857,345.25,228.6711,335.5,228.6793,325.75,228.2546,316,228.4636,306.25,228.7022,296.5,227.2788,286.75,228.6785,277,227.7035,267.25,228.5338,257.5,228,257.005,228,257.4315,218.4,258.2416,208.8,257.4513,199.2,257.6053,189.6,257.5,180" style="stroke: #000000; stroke-width: 1.5;"/><polygon fill="#EB935B" points="257.5,180,257.5,180.2102,267.25,179.5857,277,180.1933,286.75,180.3997,296.5,179.2866,306.25,179.9223,316,179.5735,325.75,179.6165,335.5,179.9318,345.25,179.3086,355,180.5536,364.75,179.3697,374.5,180,374.4341,180,374.644,186.4,374.4714,192.8,374.5227,199.2,374.4894,205.6,374.5,212,374.5,212.1785,364.75,212.2391,355,212.5857,345.25,212.6711,335.5,212.6793,325.75,212.2546,316,212.4636,306.25,212.7022,296.5,211.2788,286.75,212.6785,277,211.7035,267.25,212.5338,257.5,212,257.335,212,257.4772,205.6,257.7472,199.2,257.4838,192.8,257.5351,186.4,257.5,180" style="stroke: #000000; stroke-width: 1.5;"/><polygon fill="#ADD1B2" points="283.5608,198.6756,281.9484,200.8788,280.0412,204.1057,277.3136,206.2804,274.4474,207.4696,272.162,207.5728,269.2247,206.0855,266.4532,205.1139,264.3495,203.1412,263.2461,200.8828,262.5917,199.0845,261.9506,196.7357,260.91,194.7145,261.7096,192.741,262.4102,190.5792,265.0393,188.8695,266.889,186.6511,269.1784,185.9144,271.9001,185.2801,275.3904,185.657,277.3021,186.5585,279.5247,186.9672,282.2272,189.736,283.1693,192.659,283.5786,194.6534,283.115,197.9399" style="stroke: #000000; stroke-width: 1.0;"/><path d="M274.9731,202.1431 Q274.3921,202.4419 273.7529,202.5913 Q273.1138,202.7407 272.4082,202.7407 Q269.9014,202.7407 268.5815,201.0889 Q267.2617,199.437 267.2617,196.3159 Q267.2617,193.1865 268.5815,191.5347 Q269.9014,189.8828 272.4082,189.8828 Q273.1138,189.8828 273.7612,190.0322 Q274.4087,190.1816 274.9731,190.4805 L274.9731,193.2031 Q274.3423,192.6221 273.7488,192.3523 Q273.1553,192.0825 272.5244,192.0825 Q271.1797,192.0825 270.4949,193.1492 Q269.8101,194.2158 269.8101,196.3159 Q269.8101,198.4077 270.4949,199.4744 Q271.1797,200.541 272.5244,200.541 Q273.1553,200.541 273.7488,200.2712 Q274.3423,200.0015 274.9731,199.4204 Z "/><text fill="#000000" font-family="sans-serif" font-size="12" lengthAdjust="spacingAndGlyphs" textLength="85" x="286.5" y="200.5352">FilleAssembly1</text><path d="M258.5,212 L258.5,212.2802 L268.0833,211.4476 L277.6667,212.2577 L287.25,212.5329 L296.8333,211.0488 L306.4167,211.8964 L316,211.4313 L325.5833,211.4887 L335.1667,211.9091 L344.75,211.0782 L354.3333,212.7382 L363.9167,211.1596 L373.5,212 " fill="#EB935B" style="stroke: #000000; stroke-width: 1.5;"/><path d="M258.5,220 L258.5,220.2802 L268.0833,219.4476 L277.6667,220.2577 L287.25,220.5329 L296.8333,219.0488 L306.4167,219.8964 L316,219.4313 L325.5833,219.4887 L335.1667,219.9091 L344.75,219.0782 L354.3333,220.7382 L363.9167,219.1596 L373.5,220 " fill="#EB935B" style="stroke: #000000; stroke-width: 1.5;"/><!--class AutreClasseAssembly1--><polygon fill="#EB935B" filter="url(#f1rc990dh1flts)" points="38.5,65.5,38.5,65.7102,48.6875,65.0857,58.875,65.6933,69.0625,65.8997,79.25,64.7866,89.4375,65.4223,99.625,65.0735,109.8125,65.1165,120,65.4318,130.1875,64.8086,140.375,66.0536,150.5625,64.8697,160.75,65.3022,170.9375,65.9319,181.125,65.4142,191.3125,65.5682,201.5,65.5,201.4681,65.5,201.6785,75.1,201.7391,84.7,202.0857,94.3,202.1711,103.9,201.5,113.5,201.5,114.1793,191.3125,113.7546,181.125,113.9636,170.9375,114.2022,160.75,112.7788,150.5625,114.1785,140.375,113.2035,130.1875,114.0338,120,113.005,109.8125,113.4315,99.625,114.2416,89.4375,113.4513,79.25,113.6053,69.0625,113.8386,58.875,113.9162,48.6875,113.4961,38.5,113.5,38.7872,113.5,37.9276,103.9,38.7844,94.3,39.0482,84.7,38.9445,75.1,38.5,65.5" style="stroke: #000000; stroke-width: 1.5;"/><polygon fill="#EB935B" points="38.5,65.5,38.5,65.7102,48.6875,65.0857,58.875,65.6933,69.0625,65.8997,79.25,64.7866,89.4375,65.4223,99.625,65.0735,109.8125,65.1165,120,65.4318,130.1875,64.8086,140.375,66.0536,150.5625,64.8697,160.75,65.3022,170.9375,65.9319,181.125,65.4142,191.3125,65.5682,201.5,65.5,201.4894,65.5,201.5595,71.9,201.5797,78.3,201.6952,84.7,201.7237,91.1,201.5,97.5,201.5,98.1793,191.3125,97.7546,181.125,97.9636,170.9375,98.2022,160.75,96.7788,150.5625,98.1785,140.375,97.2035,130.1875,98.0338,120,97.005,109.8125,97.4315,99.625,98.2416,89.4375,97.4513,79.25,97.6053,69.0625,97.8386,58.875,97.9162,48.6875,97.4961,38.5,97.5,38.5957,97.5,38.3092,91.1,38.5948,84.7,38.6827,78.3,38.6482,71.9,38.5,65.5" style="stroke: #000000; stroke-width: 1.5;"/><polygon fill="#ADD1B2" points="64.5608,84.1756,62.9484,86.3788,61.0412,89.6057,58.3136,91.7804,55.4474,92.9696,53.162,93.0728,50.2247,91.5855,47.4532,90.6139,45.3495,88.6412,44.2461,86.3828,43.5917,84.5845,42.9506,82.2357,41.91,80.2145,42.7096,78.241,43.4102,76.0792,46.0393,74.3695,47.889,72.1511,50.1784,71.4144,52.9001,70.7801,56.3904,71.157,58.3021,72.0585,60.5247,72.4672,63.2272,75.236,64.1693,78.159,64.5786,80.1534,64.115,83.4399" style="stroke: #000000; stroke-width: 1.0;"/><path d="M55.9731,87.6431 Q55.3921,87.9419 54.7529,88.0913 Q54.1138,88.2407 53.4082,88.2407 Q50.9014,88.2407 49.5815,86.5889 Q48.2617,84.937 48.2617,81.8159 Q48.2617,78.6865 49.5815,77.0347 Q50.9014,75.3828 53.4082,75.3828 Q54.1138,75.3828 54.7612,75.5322 Q55.4087,75.6816 55.9731,75.9805 L55.9731,78.7031 Q55.3423,78.1221 54.7488,77.8523 Q54.1553,77.5825 53.5244,77.5825 Q52.1797,77.5825 51.4949,78.6492 Q50.8101,79.7158 50.8101,81.8159 Q50.8101,83.9077 51.4949,84.9744 Q52.1797,86.041 53.5244,86.041 Q54.1553,86.041 54.7488,85.7712 Q55.3423,85.5015 55.9731,84.9204 Z "/><text fill="#000000" font-family="sans-serif" font-size="12" lengthAdjust="spacingAndGlyphs" textLength="131" x="67.5" y="86.0352">AutreClasseAssembly1</text><path d="M39.5,97.5 L39.5,97.7802 L49.5625,96.9476 L59.625,97.7577 L69.6875,98.0329 L79.75,96.5488 L89.8125,97.3964 L99.875,96.9313 L109.9375,96.9887 L120,97.4091 L130.0625,96.5782 L140.125,98.2382 L150.1875,96.6596 L160.25,97.2363 L170.3125,98.0759 L180.375,97.3856 L190.4375,97.591 L200.5,97.5 " fill="#EB935B" style="stroke: #000000; stroke-width: 1.5;"/><path d="M39.5,105.5 L39.5,105.7802 L49.5625,104.9476 L59.625,105.7577 L69.6875,106.0329 L79.75,104.5488 L89.8125,105.3964 L99.875,104.9313 L109.9375,104.9887 L120,105.4091 L130.0625,104.5782 L140.125,106.2382 L150.1875,104.6596 L160.25,105.2363 L170.3125,106.0759 L180.375,105.3856 L190.4375,105.591 L200.5,105.5 " fill="#EB935B" style="stroke: #000000; stroke-width: 1.5;"/><!--class FilleAssembly2--><polygon fill="#EB935B" filter="url(#f1rc990dh1flts)" points="649.5,180,649.5,180.2102,659.25,179.5857,669,180.1933,678.75,180.3997,688.5,179.2866,698.25,179.9223,708,179.5735,717.75,179.6165,727.5,179.9318,737.25,179.3086,747,180.5536,756.75,179.3697,766.5,180,766.3022,180,766.9319,189.6,766.4142,199.2,766.5682,208.8,766.4681,218.4,766.5,228,766.5,228.1785,756.75,228.2391,747,228.5857,737.25,228.6711,727.5,228.6793,717.75,228.2546,708,228.4636,698.25,228.7022,688.5,227.2788,678.75,228.6785,669,227.7035,659.25,228.5338,649.5,228,649.005,228,649.4315,218.4,650.2416,208.8,649.4513,199.2,649.6053,189.6,649.5,180" style="stroke: #000000; stroke-width: 1.5;"/><polygon fill="#EB935B" points="649.5,180,649.5,180.2102,659.25,179.5857,669,180.1933,678.75,180.3997,688.5,179.2866,698.25,179.9223,708,179.5735,717.75,179.6165,727.5,179.9318,737.25,179.3086,747,180.5536,756.75,179.3697,766.5,180,766.4341,180,766.644,186.4,766.4714,192.8,766.5227,199.2,766.4894,205.6,766.5,212,766.5,212.1785,756.75,212.2391,747,212.5857,737.25,212.6711,727.5,212.6793,717.75,212.2546,708,212.4636,698.25,212.7022,688.5,211.2788,678.75,212.6785,669,211.7035,659.25,212.5338,649.5,212,649.335,212,649.4772,205.6,649.7472,199.2,649.4838,192.8,649.5351,186.4,649.5,180" style="stroke: #000000; stroke-width: 1.5;"/><polygon fill="#ADD1B2" points="675.5608,198.6756,673.9484,200.8788,672.0412,204.1057,669.3136,206.2804,666.4474,207.4696,664.162,207.5728,661.2247,206.0855,658.4532,205.1139,656.3495,203.1412,655.2461,200.8828,654.5917,199.0845,653.9506,196.7357,652.91,194.7145,653.7096,192.741,654.4102,190.5792,657.0393,188.8695,658.889,186.6511,661.1784,185.9144,663.9001,185.2801,667.3904,185.657,669.3021,186.5585,671.5247,186.9672,674.2272,189.736,675.1693,192.659,675.5786,194.6534,675.115,197.9399" style="stroke: #000000; stroke-width: 1.0;"/><path d="M666.9731,202.1431 Q666.3921,202.4419 665.7529,202.5913 Q665.1138,202.7407 664.4082,202.7407 Q661.9014,202.7407 660.5815,201.0889 Q659.2617,199.437 659.2617,196.3159 Q659.2617,193.1865 660.5815,191.5347 Q661.9014,189.8828 664.4082,189.8828 Q665.1138,189.8828 665.7612,190.0322 Q666.4087,190.1816 666.9731,190.4805 L666.9731,193.2031 Q666.3423,192.6221 665.7488,192.3523 Q665.1553,192.0825 664.5244,192.0825 Q663.1797,192.0825 662.4949,193.1492 Q661.8101,194.2158 661.8101,196.3159 Q661.8101,198.4077 662.4949,199.4744 Q663.1797,200.541 664.5244,200.541 Q665.1553,200.541 665.7488,200.2712 Q666.3423,200.0015 666.9731,199.4204 Z "/><text fill="#000000" font-family="sans-serif" font-size="12" lengthAdjust="spacingAndGlyphs" textLength="85" x="678.5" y="200.5352">FilleAssembly2</text><path d="M650.5,212 L650.5,212.2802 L660.0833,211.4476 L669.6667,212.2577 L679.25,212.5329 L688.8333,211.0488 L698.4167,211.8964 L708,211.4313 L717.5833,211.4887 L727.1667,211.9091 L736.75,211.0782 L746.3333,212.7382 L755.9167,211.1596 L765.5,212 " fill="#EB935B" style="stroke: #000000; stroke-width: 1.5;"/><path d="M650.5,220 L650.5,220.2802 L660.0833,219.4476 L669.6667,220.2577 L679.25,220.5329 L688.8333,219.0488 L698.4167,219.8964 L708,219.4313 L717.5833,219.4887 L727.1667,219.9091 L736.75,219.0782 L746.3333,220.7382 L755.9167,219.1596 L765.5,220 " fill="#EB935B" style="stroke: #000000; stroke-width: 1.5;"/><!--class AutreClasseAssembly2--><polygon fill="#EB935B" filter="url(#f1rc990dh1flts)" points="451.5,180,451.5,180.2102,461.6875,179.5857,471.875,180.1933,482.0625,180.3997,492.25,179.2866,502.4375,179.9223,512.625,179.5735,522.8125,179.6165,533,179.9318,543.1875,179.3086,553.375,180.5536,563.5625,179.3697,573.75,179.8022,583.9375,180.4319,594.125,179.9142,604.3125,180.0682,614.5,180,614.4681,180,614.6785,189.6,614.7391,199.2,615.0857,208.8,615.1711,218.4,614.5,228,614.5,228.6793,604.3125,228.2546,594.125,228.4636,583.9375,228.7022,573.75,227.2788,563.5625,228.6785,553.375,227.7035,543.1875,228.5338,533,227.505,522.8125,227.9315,512.625,228.7416,502.4375,227.9513,492.25,228.1053,482.0625,228.3386,471.875,228.4162,461.6875,227.9961,451.5,228,451.7872,228,450.9276,218.4,451.7844,208.8,452.0482,199.2,451.9445,189.6,451.5,180" style="stroke: #000000; stroke-width: 1.5;"/><polygon fill="#EB935B" points="451.5,180,451.5,180.2102,461.6875,179.5857,471.875,180.1933,482.0625,180.3997,492.25,179.2866,502.4375,179.9223,512.625,179.5735,522.8125,179.6165,533,179.9318,543.1875,179.3086,553.375,180.5536,563.5625,179.3697,573.75,179.8022,583.9375,180.4319,594.125,179.9142,604.3125,180.0682,614.5,180,614.4894,180,614.5595,186.4,614.5797,192.8,614.6952,199.2,614.7237,205.6,614.5,212,614.5,212.6793,604.3125,212.2546,594.125,212.4636,583.9375,212.7022,573.75,211.2788,563.5625,212.6785,553.375,211.7035,543.1875,212.5338,533,211.505,522.8125,211.9315,512.625,212.7416,502.4375,211.9513,492.25,212.1053,482.0625,212.3386,471.875,212.4162,461.6875,211.9961,451.5,212,451.5957,212,451.3092,205.6,451.5948,199.2,451.6827,192.8,451.6482,186.4,451.5,180" style="stroke: #000000; stroke-width: 1.5;"/><polygon fill="#ADD1B2" points="477.5608,198.6756,475.9484,200.8788,474.0412,204.1057,471.3136,206.2804,468.4474,207.4696,466.162,207.5728,463.2247,206.0855,460.4532,205.1139,458.3495,203.1412,457.2461,200.8828,456.5917,199.0845,455.9506,196.7357,454.91,194.7145,455.7096,192.741,456.4102,190.5792,459.0393,188.8695,460.889,186.6511,463.1784,185.9144,465.9001,185.2801,469.3904,185.657,471.3021,186.5585,473.5247,186.9672,476.2272,189.736,477.1693,192.659,477.5786,194.6534,477.115,197.9399" style="stroke: #000000; stroke-width: 1.0;"/><path d="M468.9731,202.1431 Q468.3921,202.4419 467.7529,202.5913 Q467.1138,202.7407 466.4082,202.7407 Q463.9014,202.7407 462.5815,201.0889 Q461.2617,199.437 461.2617,196.3159 Q461.2617,193.1865 462.5815,191.5347 Q463.9014,189.8828 466.4082,189.8828 Q467.1138,189.8828 467.7612,190.0322 Q468.4087,190.1816 468.9731,190.4805 L468.9731,193.2031 Q468.3423,192.6221 467.7488,192.3523 Q467.1553,192.0825 466.5244,192.0825 Q465.1797,192.0825 464.4949,193.1492 Q463.8101,194.2158 463.8101,196.3159 Q463.8101,198.4077 464.4949,199.4744 Q465.1797,200.541 466.5244,200.541 Q467.1553,200.541 467.7488,200.2712 Q468.3423,200.0015 468.9731,199.4204 Z "/><text fill="#000000" font-family="sans-serif" font-size="12" lengthAdjust="spacingAndGlyphs" textLength="131" x="480.5" y="200.5352">AutreClasseAssembly2</text><path d="M452.5,212 L452.5,212.2802 L462.5625,211.4476 L472.625,212.2577 L482.6875,212.5329 L492.75,211.0488 L502.8125,211.8964 L512.875,211.4313 L522.9375,211.4887 L533,211.9091 L543.0625,211.0782 L553.125,212.7382 L563.1875,211.1596 L573.25,211.7363 L583.3125,212.5759 L593.375,211.8856 L603.4375,212.091 L613.5,212 " fill="#EB935B" style="stroke: #000000; stroke-width: 1.5;"/><path d="M452.5,220 L452.5,220.2802 L462.5625,219.4476 L472.625,220.2577 L482.6875,220.5329 L492.75,219.0488 L502.8125,219.8964 L512.875,219.4313 L522.9375,219.4887 L533,219.9091 L543.0625,219.0782 L553.125,220.7382 L563.1875,219.1596 L573.25,219.7363 L583.3125,220.5759 L593.375,219.8856 L603.4375,220.091 L613.5,220 " fill="#EB935B" style="stroke: #000000; stroke-width: 1.5;"/><!--reverse link Mere to FilleAssembly1--><path d="M316,140.11 L316.0934,140.11 L315.8159,148.022 L316.0859,155.934 L316.1776,163.846 L315.6829,171.758 L316,179.67 " fill="none" style="stroke: #A80036; stroke-width: 1.0;"/><polygon fill="none" points="309,140.06,309.0661,140.0831,310.2696,136.0144,311.8608,132.0813,313.3257,128.104,314.3756,123.9814,316,120.06,315.9755,120.0514,317.2658,124.013,318.6793,128.0178,320.1786,132.0525,321.3825,135.9839,323,140.06,323,140.2445,320.2,139.8499,317.4,139.9941,314.6,140.204,311.8,140.0314,309,140.06" style="stroke: #A80036; stroke-width: 1.0;"/><!--reverse link Mere to FilleAssembly2--><path d="M415.53,99.02 L415.5397,99.1129 L421.5308,99.4684 L427.579,100.3685 L433.6086,101.0913 L439.577,101.2309 L445.6301,102.1777 L445.6261,102.1434 L451.8611,102.7158 L458.1163,103.4611 L464.3854,104.3266 L470.6064,104.7778 L476.8948,105.8094 L476.9267,106.0534 L483.1412,106.3507 L489.4485,107.3605 L495.7673,108.4572 L502.0201,109.0481 L508.3075,109.9051 L508.3118,109.9351 L511.3943,110.3348 L514.4964,110.8711 L517.5891,111.3416 L520.6998,111.9378 L523.7516,112.1239 L523.7971,112.4186 L526.8176,112.8885 L529.8087,113.1682 L532.8428,113.7262 L535.8789,114.2972 L538.8513,114.455 L538.7985,114.1388 L541.8266,115.2409 L544.6808,115.3019 L547.6673,116.1543 L550.5176,116.1918 L553.4795,116.8972 L553.4741,116.8673 L556.3444,117.7319 L559.0875,117.8967 L561.9057,118.4745 L564.7302,119.087 L567.5092,119.4493 L567.5455,119.6307 L570.1697,119.9797 L572.8559,120.6388 L575.4417,120.7963 L578.1772,121.7018 L580.8132,122.11 L580.8661,122.3478 L583.3464,122.8565 L585.8529,123.4832 L588.2374,123.5613 L590.7114,124.0416 L593.2645,124.8781 L593.1974,124.6102 L595.5525,125.4276 L597.8319,125.9431 L600.221,126.8965 L602.4228,127.1022 L604.736,127.7524 L604.6938,127.6059 L606.8369,128.4458 L608.7999,128.6593 L610.8909,129.3182 L613.1072,130.413 L615.1004,130.7316 L615.1677,130.9132 L618.5939,132.2914 L621.8105,133.1049 L625.2895,134.6257 L628.7113,135.9924 L632,137 L631.8982,136.8164 L635.1716,138.7327 L638.4117,140.5889 L641.7173,142.5632 L644.7682,144.0782 L647.9614,145.8498 L648.082,146.0163 L650.8085,147.8178 L653.7677,149.9407 L657.0671,152.5329 L659.7403,154.2609 L662.9188,156.6863 L663.067,156.8571 L665.6835,159.1018 L668.2499,161.2886 L670.9295,163.6059 L673.8707,166.2249 L676.4417,168.417 L676.3482,168.3225 L678.9584,170.9106 L680.9323,172.8556 L683.6297,175.5319 L685.9197,177.7964 L688.1,179.95 " fill="none" style="stroke: #A80036; stroke-width: 1.0;"/><polygon fill="none" points="414.51,105.95,414.5394,106.0136,410.606,104.0447,406.8451,102.4485,403.028,100.7309,399.0261,98.6142,395.28,97.05,395.2739,97.0248,399.3643,95.9059,403.4857,94.9138,407.6286,94.0099,411.6973,92.8021,415.87,92.02,416.0537,92.0379,415.3889,94.7856,415.2604,97.5856,415.1973,100.392,414.7535,103.1612,414.51,105.95" style="stroke: #A80036; stroke-width: 1.0;"/><!--
@startuml AccessModifierPrivate
skinparam classAttributeIconSize 0
skinparam handwritten true
skinparam class {
    BackgroundColor White
    BorderColor #000
}

package Assembly1 #DDF {
    class Mere #BDD7EE {
        private MethodeAAcceder()
    }

    class FilleAssembly1 #EB935B {

    }

    Mere <|- - FilleAssembly1

    class AutreClasseAssembly1 #EB935B {

    }
}

package Assembly2 #DFF {
    class FilleAssembly2 #EB935B {

    }

    Mere <|- - FilleAssembly2

    class AutreClasseAssembly2 #EB935B {

    }
}

@enduml

PlantUML version 1.2019.09(Mon Aug 26 12:19:51 EDT 2019)
(GPL source distribution)
Java Runtime: OpenJDK Runtime Environment
JVM: OpenJDK 64-Bit Server VM
Java Version: 13.0.2+8
Operating System: Mac OS X
OS Version: 10.15.4
Default Encoding: UTF-8
Language: fr
Country: CA
--></g></svg>