<?xml version="1.0" encoding="us-ascii" standalone="no"?><svg xmlns="http://www.w3.org/2000/svg" xmlns:xlink="http://www.w3.org/1999/xlink" contentStyleType="text/css" height="280px" preserveAspectRatio="none" style="width:347px;height:280px;background:#FFFFFF;" version="1.1" viewBox="0 0 347 280" width="347px" zoomAndPan="magnify"><defs/><g><rect fill="none" height="141.7578" style="stroke:#000000;stroke-width:1.5;" width="331" x="10" y="84.9609"/><rect fill="none" height="48.7031" style="stroke:#000000;stroke-width:1.5;" width="311" x="20" y="110.3125"/><line style="stroke:#181818;stroke-width:0.5;stroke-dasharray:5.0,5.0;" x1="69" x2="69" y1="37.6094" y2="243.7188"/><line style="stroke:#181818;stroke-width:0.5;stroke-dasharray:5.0,5.0;" x1="249" x2="249" y1="37.6094" y2="243.7188"/><rect fill="#E2E2F0" height="31.6094" rx="2.5" ry="2.5" style="stroke:#181818;stroke-width:0.5;" width="79" x="30" y="5"/><text fill="#000000" font-family="sans-serif" font-size="14" lengthAdjust="spacing" textLength="65" x="37" y="26.5332">SousPrgm</text><rect fill="#E2E2F0" height="31.6094" rx="2.5" ry="2.5" style="stroke:#181818;stroke-width:0.5;" width="79" x="30" y="242.7188"/><text fill="#000000" font-family="sans-serif" font-size="14" lengthAdjust="spacing" textLength="65" x="37" y="264.252">SousPrgm</text><rect fill="#E2E2F0" height="31.6094" rx="2.5" ry="2.5" style="stroke:#181818;stroke-width:0.5;" width="143" x="178" y="5"/><text fill="#000000" font-family="sans-serif" font-size="14" lengthAdjust="spacing" textLength="129" x="185" y="26.5332">MonnayeurCafetiere</text><rect fill="#E2E2F0" height="31.6094" rx="2.5" ry="2.5" style="stroke:#181818;stroke-width:0.5;" width="143" x="178" y="242.7188"/><text fill="#000000" font-family="sans-serif" font-size="14" lengthAdjust="spacing" textLength="129" x="185" y="264.252">MonnayeurCafetiere</text><polygon fill="#181818" points="237.5,65.9609,247.5,69.9609,237.5,73.9609,241.5,69.9609" style="stroke:#181818;stroke-width:1.0;"/><line style="stroke:#181818;stroke-width:1.0;" x1="69.5" x2="243.5" y1="69.9609" y2="69.9609"/><text fill="#000000" font-family="sans-serif" font-size="13" lengthAdjust="spacing" textLength="51" x="76.5" y="65.1045">Initialiser</text><path d="M10,84.9609 L83,84.9609 L83,93.3125 L73,103.3125 L10,103.3125 L10,84.9609 " fill="#EEEEEE" style="stroke:#000000;stroke-width:1.5;"/><rect fill="none" height="141.7578" style="stroke:#000000;stroke-width:1.5;" width="331" x="10" y="84.9609"/><text fill="#000000" font-family="sans-serif" font-size="13" font-weight="bold" lengthAdjust="spacing" textLength="28" x="25" y="99.4561">loop</text><text fill="#000000" font-family="sans-serif" font-size="11" font-weight="bold" lengthAdjust="spacing" textLength="28" x="98" y="98.3799">[vrai]</text><path d="M20,110.3125 L93,110.3125 L93,118.6641 L83,128.6641 L20,128.6641 L20,110.3125 " fill="#EEEEEE" style="stroke:#000000;stroke-width:1.5;"/><rect fill="none" height="48.7031" style="stroke:#000000;stroke-width:1.5;" width="311" x="20" y="110.3125"/><text fill="#000000" font-family="sans-serif" font-size="13" font-weight="bold" lengthAdjust="spacing" textLength="28" x="35" y="124.8076">loop</text><text fill="#000000" font-family="sans-serif" font-size="11" font-weight="bold" lengthAdjust="spacing" textLength="90" x="108" y="123.7314">[valeurPiece &gt; 0]</text><polygon fill="#181818" points="237.5,147.0156,247.5,151.0156,237.5,155.0156,241.5,151.0156" style="stroke:#181818;stroke-width:1.0;"/><line style="stroke:#181818;stroke-width:1.0;" x1="69.5" x2="243.5" y1="151.0156" y2="151.0156"/><text fill="#000000" font-family="sans-serif" font-size="13" lengthAdjust="spacing" textLength="156" x="76.5" y="146.1592">RecevoirPiece(valeurPiece)</text><polygon fill="#181818" points="237.5,184.3672,247.5,188.3672,237.5,192.3672,241.5,188.3672" style="stroke:#181818;stroke-width:1.0;"/><line style="stroke:#181818;stroke-width:1.0;" x1="69.5" x2="243.5" y1="188.3672" y2="188.3672"/><text fill="#000000" font-family="sans-serif" font-size="13" lengthAdjust="spacing" textLength="89" x="76.5" y="183.5107">ConfirmerVente</text><polygon fill="#181818" points="237.5,214.7188,247.5,218.7188,237.5,222.7188,241.5,218.7188" style="stroke:#181818;stroke-width:1.0;"/><line style="stroke:#181818;stroke-width:1.0;" x1="69.5" x2="243.5" y1="218.7188" y2="218.7188"/><text fill="#000000" font-family="sans-serif" font-size="13" lengthAdjust="spacing" textLength="90" x="76.5" y="213.8623">RendreMonnaie</text><!--SRC=[ZOsn2eD044Jx_OejaoAGEeMDLOg0H4X_n34idBjXFGN_FkVPsCNfXk6zQMqQ6_yCVAduOQfXmUHrw9443hxnNIL9Y3B2YQBPbsSFGfopjH0pqGZUu8glPLZJ_XC_Cp6RREXffpaN1xGZEYIgJNln0Vw29j31S-qSPH9GBZy0]--></g></svg>