<?xml version="1.0" encoding="us-ascii" standalone="no"?><svg xmlns="http://www.w3.org/2000/svg" xmlns:xlink="http://www.w3.org/1999/xlink" contentStyleType="text/css" height="239px" preserveAspectRatio="none" style="width:855px;height:239px;background:#FFFFFF;" version="1.1" viewBox="0 0 855 239" width="855px" zoomAndPan="magnify"><defs/><g><!--cluster Assembly1--><g id="cluster_Assembly1"><path d="M8.5,6 L8.5,6.5605 L17.875,4.8951 L27.25,6.5154 L36.625,7.0658 L46,4.0976 L55.375,5.7928 L64.75,4.8627 L74.125,4.9773 L83.5,6 L86,8.5 L85.9425,8.4809 L86.8167,12.5284 L89.2671,17.0986 L89.6682,20.9893 L91.4331,25.3322 L93,29.6094 L93,30.7612 L102.9306,29.3806 L112.8611,29.7913 L122.7917,29.5242 L132.7222,30.0854 L142.6528,30.2471 L152.5833,31.1712 L162.5139,31.3989 L172.4444,31.4207 L182.375,30.2884 L192.3056,30.8456 L202.2361,31.482 L212.1667,27.6862 L222.0972,31.4187 L232.0278,28.8187 L241.9583,31.0329 L251.8889,28.2893 L261.8194,29.4267 L271.75,31.587 L281.6806,29.4794 L291.6111,29.8902 L301.5417,30.5124 L311.4722,30.7193 L321.4028,29.599 L331.3333,30.3753 L341.2639,28.0829 L351.1944,30.3677 L361.125,31.0712 L371.0556,30.7948 L380.9861,31.2441 L390.9167,28.3212 L400.8472,27.8702 L410.7778,27.9523 L420.7083,29.4524 L430.6389,29.0853 L440.5694,31.4265 L450.5,29.6094 L453,32.1094 L452.5342,32.1094 L452.0852,41.9789 L453.6087,51.8484 L451.2218,61.718 L451.6157,71.5875 L454.7305,81.457 L454.1618,91.3266 L454.9586,101.1961 L452.1419,111.0656 L453.8512,120.9352 L454.5745,130.8047 L451.7403,140.6742 L452.7444,150.5438 L453.336,160.4133 L454.738,170.2828 L452.9888,180.1523 L454.2335,190.0219 L451.5232,199.8914 L451.194,209.7609 L454.343,219.6305 L453,229.5 L450.5,232 L450.5,230.0882 L440.4545,233.3572 L430.4091,232.551 L420.3636,231.2856 L410.3182,231.0566 L400.2727,233.2234 L390.2273,231.2018 L380.1818,233.5783 L370.1364,230.526 L360.0909,233.6465 L350.0455,233.2915 L340,232.6532 L329.9545,232.1259 L319.9091,233.9376 L309.8636,233.6362 L299.8182,232.4513 L289.7727,232.7152 L279.7273,231.6526 L269.6818,233.9105 L259.6364,232.413 L249.5909,232.4602 L239.5455,230.3777 L229.5,230.9194 L219.4545,233.4153 L209.4091,233.146 L199.3636,231.8855 L189.3182,231.1409 L179.2727,231.4162 L169.2273,230.1702 L159.1818,233.106 L149.1364,233.9722 L139.0909,233.4037 L129.0455,233.8532 L119,231.6354 L108.9545,232.2326 L98.9091,230.9664 L88.8636,232.7574 L78.8182,232.658 L68.7727,233.473 L58.7273,231.3876 L48.6818,231.6416 L38.6364,233.1826 L28.5909,233.5129 L18.5455,230.6332 L8.5,232 L6,229.5 L5.483,229.5 L6.398,219.4545 L4.3711,209.4091 L6.9424,199.3636 L6.688,189.3182 L5.7313,179.2727 L6.3793,169.2273 L7.9431,159.1818 L5.1657,149.1364 L6.84,139.0909 L6.7617,129.0455 L6.3087,119 L6.3758,108.9545 L6.3026,98.9091 L4.3356,88.8636 L4.9312,78.8182 L4.7692,68.7727 L6.1702,58.7273 L6.235,48.6818 L6.4313,38.6364 L5.2241,28.5909 L5.82,18.5455 L6,8.5 L8.5,6 " fill="#DDDDFF" style="stroke:#000000;stroke-width:1.5;"/><path d="M6,29.6094 L6,29.8896 L15.6667,29.0569 L25.3333,29.8671 L35,30.1423 L44.6667,28.6582 L54.3333,29.5058 L64,29.0407 L73.6667,29.098 L83.3333,29.5185 L93,29.6094 " fill="#DDDDFF" style="stroke:#000000;stroke-width:1.5;"/><text fill="#000000" font-family="sans-serif" font-size="14" font-weight="bold" lengthAdjust="spacing" textLength="74" x="10" y="22.5332">Assembly1</text></g><!--cluster Assembly2--><g id="cluster_Assembly2"><path d="M479.5,132 L479.5,132.5605 L488.875,130.8951 L498.25,132.5154 L507.625,133.0658 L517,130.0976 L526.375,131.7928 L535.75,130.8627 L545.125,130.9773 L554.5,132 L557,134.5 L556.9425,134.4809 L557.8167,138.5284 L560.2671,143.0986 L560.6682,146.9893 L562.4331,151.3322 L564,155.6094 L564,156.7612 L574.0536,155.3806 L584.1071,155.7913 L594.1607,155.5242 L604.2143,156.0854 L614.2679,156.2471 L624.3214,157.1712 L634.375,157.3989 L644.4286,157.4207 L654.4821,156.2884 L664.5357,156.8456 L674.5893,157.482 L684.6429,153.6862 L694.6964,157.4187 L704.75,154.8187 L714.8036,157.0329 L724.8571,154.2893 L734.9107,155.4267 L744.9643,157.587 L755.0179,155.4794 L765.0714,155.8902 L775.125,156.5124 L785.1786,156.7193 L795.2321,155.599 L805.2857,156.3753 L815.3393,154.0829 L825.3929,156.3677 L835.4464,157.0712 L845.5,155.6094 L848,158.1094 L849.1854,158.1094 L849.6347,168.308 L846.7118,178.5067 L846.2608,188.7054 L846.3429,198.904 L847.843,209.1027 L847.4759,219.3013 L848,229.5 L845.5,232 L845.5,233.8171 L835.6081,231.5342 L825.7162,231.0852 L815.8243,232.6087 L805.9324,230.2218 L796.0405,230.6157 L786.1486,233.7305 L776.2568,233.1618 L766.3649,233.9586 L756.473,231.1419 L746.5811,232.8512 L736.6892,233.5745 L726.7973,230.7403 L716.9054,231.7444 L707.0135,232.336 L697.1216,233.738 L687.2297,231.9888 L677.3378,233.2335 L667.4459,230.5232 L657.5541,230.194 L647.6622,233.343 L637.7703,230.0882 L627.8784,233.3572 L617.9865,232.551 L608.0946,231.2856 L598.2027,231.0566 L588.3108,233.2234 L578.4189,231.2018 L568.527,233.5783 L558.6351,230.526 L548.7432,233.6465 L538.8514,233.2915 L528.9595,232.6532 L519.0676,232.1259 L509.1757,233.9376 L499.2838,233.6362 L489.3919,232.4513 L479.5,232 L477,229.5 L477.7152,229.5 L476.6526,220 L478.9105,210.5 L477.413,201 L477.4602,191.5 L475.3777,182 L475.9194,172.5 L478.4153,163 L478.146,153.5 L476.8855,144 L477,134.5 L479.5,132 " fill="#DDFFFF" style="stroke:#000000;stroke-width:1.5;"/><path d="M477,155.6094 L477,155.8896 L486.6667,155.0569 L496.3333,155.8671 L506,156.1423 L515.6667,154.6582 L525.3333,155.5058 L535,155.0407 L544.6667,155.098 L554.3333,155.5185 L564,155.6094 " fill="#DDFFFF" style="stroke:#000000;stroke-width:1.5;"/><text fill="#000000" font-family="sans-serif" font-size="14" font-weight="bold" lengthAdjust="spacing" textLength="74" x="481" y="148.5332">Assembly2</text></g><!--class Mere--><g id="elem_Mere"><polygon fill="#BDD7EE" points="237.5,42,237.5,42.2102,247.35,41.5857,257.2,42.1933,267.05,42.3997,276.9,41.2866,286.75,41.9223,296.6,41.5735,306.45,41.6165,316.3,41.9318,326.15,41.3086,336,42.5536,345.85,41.3697,355.7,41.8022,365.55,42.4319,375.4,41.9142,385.25,42.0682,395.1,41.9681,404.95,42.1785,414.8,42.2391,424.65,42.5857,434.5,42,434.5856,42.2067,434.9402,42.3556,435.2396,42.3713,435.6198,42.5821,436.0038,42.802,436.2678,42.7322,436.0457,42.6402,436.6232,43.1723,436.4693,43.4015,436.8715,43.861,436.7011,44.0833,437,44.5,436.9315,44.5,437.7416,54.6016,436.9513,64.7031,437.1053,74.8047,437.3386,84.9063,437.4162,95.0078,437,105.1094,436.9988,105.1089,436.942,105.4996,436.5308,105.7435,436.6482,106.2063,436.583,106.5935,436.2678,106.8771,436.3245,107.014,435.9924,107.2124,435.499,107.0213,435.1239,107.1156,434.7743,107.2716,434.5,107.6094,434.5,107.5505,424.65,107.4128,414.8,108.2908,404.95,107.4347,395.1,107.2663,385.25,107.8376,375.4,106.9425,365.55,107.0902,355.7,108.2583,345.85,108.045,336,108.3439,326.15,107.2876,316.3,107.9286,306.45,108.1998,296.6,107.137,286.75,107.5135,276.9,107.7354,267.05,108.2611,257.2,107.6052,247.35,108.0719,237.5,107.6094,237.4294,107.4388,237.0601,107.2544,236.8571,107.4716,236.3479,106.9492,236.1507,107.1803,235.7322,106.8771,235.7959,106.9035,235.5033,106.4894,235.3304,106.1249,235.4342,105.875,235.0543,105.4247,235,105.1094,235.5919,105.1094,234.4473,95.0078,235.6174,84.9063,235.4843,74.8047,235.245,64.7031,235.0472,54.6016,235,44.5,235.2238,44.5927,235.3354,44.2247,235.345,43.8145,235.5219,43.4736,235.5457,43.0692,235.7322,42.7322,235.8236,42.9529,236.1055,42.6335,236.4614,42.4925,236.7153,42.1055,237.0948,42.0217,237.5,42" style="stroke:#000000;stroke-width:0.5;"/><polygon fill="#ADD1B2" points="326.8108,60.6756,325.1984,62.8788,323.2912,66.1057,320.5636,68.2804,317.6974,69.4696,315.412,69.5728,312.4747,68.0855,309.7032,67.1139,307.5995,65.1412,306.4961,62.8828,305.8417,61.0845,305.2006,58.7357,304.16,56.7145,304.9596,54.741,305.6602,52.5792,308.2893,50.8695,310.139,48.6511,312.4284,47.9144,315.1501,47.2801,318.6404,47.657,320.5521,48.5585,322.7747,48.9672,325.4772,51.736,326.4193,54.659,326.8286,56.6534,326.365,59.9399" style="stroke:#181818;stroke-width:1.0;"/><path d="M318.5156,53.875 Q318.6719,53.6563 318.8594,53.5469 Q319.0469,53.4375 319.2656,53.4375 Q319.6406,53.4375 319.875,53.6953 Q320.1094,53.9531 320.1094,54.5625 L320.1094,56.0156 Q320.1094,56.625 319.875,56.8906 Q319.6406,57.1563 319.2656,57.1563 Q318.9219,57.1563 318.7188,56.9531 Q318.5156,56.7656 318.4063,56.25 Q318.3594,55.8906 318.1719,55.7031 Q317.8438,55.3281 317.2344,55.1094 Q316.625,54.8906 316,54.8906 Q315.2344,54.8906 314.6016,55.2188 Q313.9688,55.5469 313.4766,56.2969 Q312.9844,57.0469 312.9844,58.0781 L312.9844,59.1719 Q312.9844,60.4063 313.875,61.2266 Q314.7656,62.0469 316.3594,62.0469 Q317.2969,62.0469 317.9531,61.7969 Q318.3438,61.6406 318.7656,61.2031 Q319.0313,60.9375 319.1797,60.8594 Q319.3281,60.7813 319.5313,60.7813 Q319.8594,60.7813 320.1172,61.0391 Q320.375,61.2969 320.375,61.6406 Q320.375,61.9844 320.0313,62.3906 Q319.5313,62.9688 318.7344,63.2969 Q317.6563,63.75 316.3594,63.75 Q314.8438,63.75 313.6406,63.125 Q312.6563,62.625 311.9688,61.5547 Q311.2813,60.4844 311.2813,59.2031 L311.2813,58.0469 Q311.2813,56.7188 311.8984,55.5703 Q312.5156,54.4219 313.6094,53.8047 Q314.7031,53.1875 315.9375,53.1875 Q316.6719,53.1875 317.3203,53.3516 Q317.9688,53.5156 318.5156,53.875 Z " fill="#000000"/><text fill="#000000" font-family="sans-serif" font-size="14" lengthAdjust="spacing" textLength="32" x="336.25" y="63.7285">Mere</text><path d="M236,74 L236,74.2802 L246,73.4476 L256,74.2577 L266,74.5329 L276,73.0488 L286,73.8964 L296,73.4313 L306,73.4887 L316,73.9091 L326,73.0782 L336,74.7382 L346,73.1596 L356,73.7363 L366,74.5759 L376,73.8856 L386,74.091 L396,73.9574 L406,74.238 L416,74.3188 L426,74.7809 L436,74 " fill="#BDD7EE" style="stroke:#000000;stroke-width:0.5;"/><path d="M236,82 L236,82.2802 L246,81.4476 L256,82.2577 L266,82.5329 L276,81.0488 L286,81.8964 L296,81.4313 L306,81.4887 L316,81.9091 L326,81.0782 L336,82.7382 L346,81.1596 L356,81.7363 L366,82.5759 L376,81.8856 L386,82.091 L396,81.9574 L406,82.238 L416,82.3188 L426,82.7809 L436,82 " fill="#BDD7EE" style="stroke:#000000;stroke-width:0.5;"/><text fill="#000000" font-family="sans-serif" font-size="14" lengthAdjust="spacing" textLength="190" x="241" y="100.5332">protected MethodeAAcceder()</text></g><!--class FilleAssembly1--><g id="elem_FilleAssembly1"><polygon fill="#A9D18E" points="275.5,168,275.5,168.2102,285.5833,167.5857,295.6667,168.1933,305.75,168.3997,315.8333,167.2866,325.9167,167.9223,336,167.5735,346.0833,167.6165,356.1667,167.9318,366.25,167.3086,376.3333,168.5536,386.4167,167.3697,396.5,168,396.4748,167.9391,396.9087,168.2795,397.1962,168.2665,397.5694,168.4604,397.9101,168.5759,398.2678,168.7322,398.3227,168.755,398.4879,169.1163,398.741,169.5141,398.9138,169.8785,399.0627,170.2331,399,170.5,399.0849,170.5,399.1545,179.1,399.2341,187.7,398.7596,196.3,399.2262,204.9,399,213.5,398.9087,213.4622,399.0179,213.9216,398.5547,214.144,398.5396,214.5519,398.6426,215.0088,398.2678,215.2678,398.2616,215.2528,397.9276,215.4466,397.6039,215.6649,397.2602,215.8353,396.8531,215.8524,396.5,216,396.5,216.2872,386.4167,215.4276,376.3333,216.2844,366.25,216.5482,356.1667,216.4445,346.0833,216.613,336,215.5169,325.9167,215.3478,315.8333,215.3786,305.75,215.9411,295.6667,215.8035,285.5833,216.6814,275.5,216,275.4777,215.9462,275.1027,215.7479,274.822,215.7774,274.3543,215.3553,274.0196,215.2543,273.7322,215.2678,273.9321,215.3505,273.72,214.9698,273.6655,214.6544,273.1938,214.1661,273.2447,213.8943,273,213.5,273.1968,213.5,272.8425,204.9,272.968,196.3,273.042,187.7,273.2173,179.1,273,170.5,272.9987,170.4995,273.2889,170.2055,273.1223,169.7223,273.2308,169.3529,273.7409,169.15,273.7322,168.7322,273.6408,168.5114,274.1507,168.7425,274.4657,168.503,274.7587,168.2104,275.1013,168.0375,275.5,168" style="stroke:#000000;stroke-width:0.5;"/><polygon fill="#ADD1B2" points="299.0608,186.6756,297.4484,188.8788,295.5412,192.1057,292.8136,194.2804,289.9474,195.4696,287.662,195.5728,284.7247,194.0855,281.9532,193.1139,279.8495,191.1412,278.7461,188.8828,278.0917,187.0845,277.4506,184.7357,276.41,182.7145,277.2096,180.741,277.9102,178.5792,280.5393,176.8695,282.389,174.6511,284.6784,173.9144,287.4001,173.2801,290.8904,173.657,292.8021,174.5585,295.0247,174.9672,297.7272,177.736,298.6693,180.659,299.0786,182.6534,298.615,185.9399" style="stroke:#181818;stroke-width:1.0;"/><path d="M290.7656,179.875 Q290.9219,179.6563 291.1094,179.5469 Q291.2969,179.4375 291.5156,179.4375 Q291.8906,179.4375 292.125,179.6953 Q292.3594,179.9531 292.3594,180.5625 L292.3594,182.0156 Q292.3594,182.625 292.125,182.8906 Q291.8906,183.1563 291.5156,183.1563 Q291.1719,183.1563 290.9688,182.9531 Q290.7656,182.7656 290.6563,182.25 Q290.6094,181.8906 290.4219,181.7031 Q290.0938,181.3281 289.4844,181.1094 Q288.875,180.8906 288.25,180.8906 Q287.4844,180.8906 286.8516,181.2188 Q286.2188,181.5469 285.7266,182.2969 Q285.2344,183.0469 285.2344,184.0781 L285.2344,185.1719 Q285.2344,186.4063 286.125,187.2266 Q287.0156,188.0469 288.6094,188.0469 Q289.5469,188.0469 290.2031,187.7969 Q290.5938,187.6406 291.0156,187.2031 Q291.2813,186.9375 291.4297,186.8594 Q291.5781,186.7813 291.7813,186.7813 Q292.1094,186.7813 292.3672,187.0391 Q292.625,187.2969 292.625,187.6406 Q292.625,187.9844 292.2813,188.3906 Q291.7813,188.9688 290.9844,189.2969 Q289.9063,189.75 288.6094,189.75 Q287.0938,189.75 285.8906,189.125 Q284.9063,188.625 284.2188,187.5547 Q283.5313,186.4844 283.5313,185.2031 L283.5313,184.0469 Q283.5313,182.7188 284.1484,181.5703 Q284.7656,180.4219 285.8594,179.8047 Q286.9531,179.1875 288.1875,179.1875 Q288.9219,179.1875 289.5703,179.3516 Q290.2188,179.5156 290.7656,179.875 Z " fill="#000000"/><text fill="#000000" font-family="sans-serif" font-size="14" lengthAdjust="spacing" textLength="94" x="302" y="189.7285">FilleAssembly1</text><path d="M274,200 L274,200.2802 L284.3333,199.4476 L294.6667,200.2577 L305,200.5329 L315.3333,199.0488 L325.6667,199.8964 L336,199.4313 L346.3333,199.4887 L356.6667,199.9091 L367,199.0782 L377.3333,200.7382 L387.6667,199.1596 L398,200 " fill="#A9D18E" style="stroke:#000000;stroke-width:0.5;"/><path d="M274,208 L274,208.2802 L284.3333,207.4476 L294.6667,208.2577 L305,208.5329 L315.3333,207.0488 L325.6667,207.8964 L336,207.4313 L346.3333,207.4887 L356.6667,207.9091 L367,207.0782 L377.3333,208.7382 L387.6667,207.1596 L398,208 " fill="#A9D18E" style="stroke:#000000;stroke-width:0.5;"/></g><!--class AutreClasseAssembly1--><g id="elem_AutreClasseAssembly1"><polygon fill="#EB935B" points="25,51,25,51.2102,35.1176,50.5857,45.2353,51.1933,55.3529,51.3997,65.4706,50.2866,75.5882,50.9223,85.7059,50.5735,95.8235,50.6165,105.9412,50.9318,116.0588,50.3086,126.1765,51.5536,136.2941,50.3697,146.4118,50.8022,156.5294,51.4319,166.6471,50.9142,176.7647,51.0682,186.8824,50.9681,197,51,197.0228,51.055,197.3841,51.2201,197.7818,51.4733,198.1463,51.646,198.5009,51.795,198.7678,51.7322,198.8462,51.7647,199.057,52.1449,199.2769,52.5289,198.985,52.7009,199.5625,53.233,199.5,53.5,199.4012,53.5,199.6779,62.1,199.335,70.7,199.4772,79.3,199.7472,87.9,199.5,96.5,199.485,96.4938,199.386,96.867,199.3114,97.2503,199.1888,97.6138,198.913,97.9137,198.7678,98.2678,198.8044,98.3562,198.3412,98.2379,198.0969,98.6482,197.777,98.8759,197.4103,98.9905,197,99,197,99.613,186.8824,98.5169,176.7647,98.3478,166.6471,98.3786,156.5294,98.9411,146.4118,98.8035,136.2941,99.6814,126.1765,98.8253,116.0588,98.6569,105.9412,99.2283,95.8235,98.3332,85.7059,98.4809,75.5882,99.649,65.4706,99.4357,55.3529,99.7345,45.2353,98.6782,35.1176,99.3192,25,99,25.0753,99.1818,24.5862,98.7081,24.2807,98.6776,23.9554,98.5995,23.6689,98.6149,23.2322,98.2678,23.2309,98.2672,23.2282,97.9732,22.7688,97.49,22.5843,97.1207,22.8015,96.9178,22.5,96.5,22.261,96.5,22.6697,87.9,22.5689,79.3,22.4107,70.7,22.3821,62.1,22.5,53.5,22.6413,53.5585,22.5543,53.1083,22.9752,52.8684,22.7691,52.3688,23.2759,52.1645,23.2322,51.7322,23.294,51.8814,23.617,51.6612,23.9454,51.4539,24.3856,51.5167,24.7247,51.3354,25,51" style="stroke:#000000;stroke-width:0.5;"/><polygon fill="#ADD1B2" points="48.5608,69.6756,46.9484,71.8788,45.0412,75.1057,42.3136,77.2804,39.4474,78.4696,37.162,78.5728,34.2247,77.0855,31.4532,76.1139,29.3495,74.1412,28.2461,71.8828,27.5917,70.0845,26.9506,67.7357,25.91,65.7145,26.7096,63.741,27.4102,61.5792,30.0393,59.8695,31.889,57.6511,34.1784,56.9144,36.9001,56.2801,40.3904,56.657,42.3021,57.5585,44.5247,57.9672,47.2272,60.736,48.1693,63.659,48.5786,65.6534,48.115,68.9399" style="stroke:#181818;stroke-width:1.0;"/><path d="M40.2656,62.875 Q40.4219,62.6563 40.6094,62.5469 Q40.7969,62.4375 41.0156,62.4375 Q41.3906,62.4375 41.625,62.6953 Q41.8594,62.9531 41.8594,63.5625 L41.8594,65.0156 Q41.8594,65.625 41.625,65.8906 Q41.3906,66.1563 41.0156,66.1563 Q40.6719,66.1563 40.4688,65.9531 Q40.2656,65.7656 40.1563,65.25 Q40.1094,64.8906 39.9219,64.7031 Q39.5938,64.3281 38.9844,64.1094 Q38.375,63.8906 37.75,63.8906 Q36.9844,63.8906 36.3516,64.2188 Q35.7188,64.5469 35.2266,65.2969 Q34.7344,66.0469 34.7344,67.0781 L34.7344,68.1719 Q34.7344,69.4063 35.625,70.2266 Q36.5156,71.0469 38.1094,71.0469 Q39.0469,71.0469 39.7031,70.7969 Q40.0938,70.6406 40.5156,70.2031 Q40.7813,69.9375 40.9297,69.8594 Q41.0781,69.7813 41.2813,69.7813 Q41.6094,69.7813 41.8672,70.0391 Q42.125,70.2969 42.125,70.6406 Q42.125,70.9844 41.7813,71.3906 Q41.2813,71.9688 40.4844,72.2969 Q39.4063,72.75 38.1094,72.75 Q36.5938,72.75 35.3906,72.125 Q34.4063,71.625 33.7188,70.5547 Q33.0313,69.4844 33.0313,68.2031 L33.0313,67.0469 Q33.0313,65.7188 33.6484,64.5703 Q34.2656,63.4219 35.3594,62.8047 Q36.4531,62.1875 37.6875,62.1875 Q38.4219,62.1875 39.0703,62.3516 Q39.7188,62.5156 40.2656,62.875 Z " fill="#000000"/><text fill="#000000" font-family="sans-serif" font-size="14" lengthAdjust="spacing" textLength="145" x="51.5" y="72.7285">AutreClasseAssembly1</text><path d="M23.5,83 L23.5,83.2802 L33.2222,82.4476 L42.9444,83.2577 L52.6667,83.5329 L62.3889,82.0488 L72.1111,82.8964 L81.8333,82.4313 L91.5556,82.4887 L101.2778,82.9091 L111,82.0782 L120.7222,83.7382 L130.4444,82.1596 L140.1667,82.7363 L149.8889,83.5759 L159.6111,82.8856 L169.3333,83.091 L179.0556,82.9574 L188.7778,83.238 L198.5,83 " fill="#EB935B" style="stroke:#000000;stroke-width:0.5;"/><path d="M23.5,91 L23.5,91.2802 L33.2222,90.4476 L42.9444,91.2577 L52.6667,91.5329 L62.3889,90.0488 L72.1111,90.8964 L81.8333,90.4313 L91.5556,90.4887 L101.2778,90.9091 L111,90.0782 L120.7222,91.7382 L130.4444,90.1596 L140.1667,90.7363 L149.8889,91.5759 L159.6111,90.8856 L169.3333,91.091 L179.0556,90.9574 L188.7778,91.238 L198.5,91 " fill="#EB935B" style="stroke:#000000;stroke-width:0.5;"/></g><!--class FilleAssembly2--><g id="elem_FilleAssembly2"><polygon fill="#A9D18E" points="708.5,168,708.5,168.2102,718.5833,167.5857,728.6667,168.1933,738.75,168.3997,748.8333,167.2866,758.9167,167.9223,769,167.5735,779.0833,167.6165,789.1667,167.9318,799.25,167.3086,809.3333,168.5536,819.4167,167.3697,829.5,168,829.4748,167.9391,829.9087,168.2795,830.1962,168.2665,830.5694,168.4604,830.9101,168.5759,831.2678,168.7322,831.3227,168.755,831.4879,169.1163,831.741,169.5141,831.9138,169.8785,832.0627,170.2331,832,170.5,832.0849,170.5,832.1545,179.1,832.2341,187.7,831.7596,196.3,832.2262,204.9,832,213.5,831.9087,213.4622,832.0179,213.9216,831.5547,214.144,831.5396,214.5519,831.6426,215.0088,831.2678,215.2678,831.2616,215.2528,830.9276,215.4466,830.6039,215.6649,830.2602,215.8353,829.8531,215.8524,829.5,216,829.5,216.2872,819.4167,215.4276,809.3333,216.2844,799.25,216.5482,789.1667,216.4445,779.0833,216.613,769,215.5169,758.9167,215.3478,748.8333,215.3786,738.75,215.9411,728.6667,215.8035,718.5833,216.6814,708.5,216,708.4777,215.9462,708.1027,215.7479,707.822,215.7774,707.3543,215.3553,707.0196,215.2543,706.7322,215.2678,706.9321,215.3505,706.72,214.9698,706.6655,214.6544,706.1938,214.1661,706.2447,213.8943,706,213.5,706.1968,213.5,705.8425,204.9,705.968,196.3,706.042,187.7,706.2173,179.1,706,170.5,705.9987,170.4995,706.2889,170.2055,706.1223,169.7223,706.2308,169.3529,706.7409,169.15,706.7322,168.7322,706.6408,168.5114,707.1507,168.7425,707.4657,168.503,707.7587,168.2104,708.1013,168.0375,708.5,168" style="stroke:#000000;stroke-width:0.5;"/><polygon fill="#ADD1B2" points="732.0608,186.6756,730.4484,188.8788,728.5412,192.1057,725.8136,194.2804,722.9474,195.4696,720.662,195.5728,717.7247,194.0855,714.9532,193.1139,712.8495,191.1412,711.7461,188.8828,711.0917,187.0845,710.4506,184.7357,709.41,182.7145,710.2096,180.741,710.9102,178.5792,713.5393,176.8695,715.389,174.6511,717.6784,173.9144,720.4001,173.2801,723.8904,173.657,725.8021,174.5585,728.0247,174.9672,730.7272,177.736,731.6693,180.659,732.0786,182.6534,731.615,185.9399" style="stroke:#181818;stroke-width:1.0;"/><path d="M723.7656,179.875 Q723.9219,179.6563 724.1094,179.5469 Q724.2969,179.4375 724.5156,179.4375 Q724.8906,179.4375 725.125,179.6953 Q725.3594,179.9531 725.3594,180.5625 L725.3594,182.0156 Q725.3594,182.625 725.125,182.8906 Q724.8906,183.1563 724.5156,183.1563 Q724.1719,183.1563 723.9688,182.9531 Q723.7656,182.7656 723.6563,182.25 Q723.6094,181.8906 723.4219,181.7031 Q723.0938,181.3281 722.4844,181.1094 Q721.875,180.8906 721.25,180.8906 Q720.4844,180.8906 719.8516,181.2188 Q719.2188,181.5469 718.7266,182.2969 Q718.2344,183.0469 718.2344,184.0781 L718.2344,185.1719 Q718.2344,186.4063 719.125,187.2266 Q720.0156,188.0469 721.6094,188.0469 Q722.5469,188.0469 723.2031,187.7969 Q723.5938,187.6406 724.0156,187.2031 Q724.2813,186.9375 724.4297,186.8594 Q724.5781,186.7813 724.7813,186.7813 Q725.1094,186.7813 725.3672,187.0391 Q725.625,187.2969 725.625,187.6406 Q725.625,187.9844 725.2813,188.3906 Q724.7813,188.9688 723.9844,189.2969 Q722.9063,189.75 721.6094,189.75 Q720.0938,189.75 718.8906,189.125 Q717.9063,188.625 717.2188,187.5547 Q716.5313,186.4844 716.5313,185.2031 L716.5313,184.0469 Q716.5313,182.7188 717.1484,181.5703 Q717.7656,180.4219 718.8594,179.8047 Q719.9531,179.1875 721.1875,179.1875 Q721.9219,179.1875 722.5703,179.3516 Q723.2188,179.5156 723.7656,179.875 Z " fill="#000000"/><text fill="#000000" font-family="sans-serif" font-size="14" lengthAdjust="spacing" textLength="94" x="735" y="189.7285">FilleAssembly2</text><path d="M707,200 L707,200.2802 L717.3333,199.4476 L727.6667,200.2577 L738,200.5329 L748.3333,199.0488 L758.6667,199.8964 L769,199.4313 L779.3333,199.4887 L789.6667,199.9091 L800,199.0782 L810.3333,200.7382 L820.6667,199.1596 L831,200 " fill="#A9D18E" style="stroke:#000000;stroke-width:0.5;"/><path d="M707,208 L707,208.2802 L717.3333,207.4476 L727.6667,208.2577 L738,208.5329 L748.3333,207.0488 L758.6667,207.8964 L769,207.4313 L779.3333,207.4887 L789.6667,207.9091 L800,207.0782 L810.3333,208.7382 L820.6667,207.1596 L831,208 " fill="#A9D18E" style="stroke:#000000;stroke-width:0.5;"/></g><!--class AutreClasseAssembly2--><g id="elem_AutreClasseAssembly2"><polygon fill="#EB935B" points="496,168,496,168.2102,506.1176,167.5857,516.2353,168.1933,526.3529,168.3997,536.4706,167.2866,546.5882,167.9223,556.7059,167.5735,566.8235,167.6165,576.9412,167.9318,587.0588,167.3086,597.1765,168.5536,607.2941,167.3697,617.4118,167.8022,627.5294,168.4319,637.6471,167.9142,647.7647,168.0682,657.8824,167.9681,668,168,668.0228,168.055,668.3841,168.2201,668.7818,168.4733,669.1463,168.646,669.5009,168.795,669.7678,168.7322,669.8462,168.7647,670.057,169.1449,670.2769,169.5289,669.985,169.7009,670.5625,170.233,670.5,170.5,670.4012,170.5,670.6779,179.1,670.335,187.7,670.4772,196.3,670.7472,204.9,670.5,213.5,670.485,213.4938,670.386,213.867,670.3114,214.2503,670.1888,214.6138,669.913,214.9137,669.7678,215.2678,669.8044,215.3562,669.3412,215.2379,669.0969,215.6482,668.777,215.8759,668.4103,215.9905,668,216,668,216.613,657.8824,215.5169,647.7647,215.3478,637.6471,215.3786,627.5294,215.9411,617.4118,215.8035,607.2941,216.6814,597.1765,215.8253,587.0588,215.6569,576.9412,216.2283,566.8235,215.3332,556.7059,215.4809,546.5882,216.649,536.4706,216.4357,526.3529,216.7345,516.2353,215.6782,506.1176,216.3192,496,216,496.0753,216.1818,495.5862,215.7081,495.2807,215.6776,494.9554,215.5995,494.6689,215.6149,494.2322,215.2678,494.2309,215.2672,494.2282,214.9732,493.7688,214.49,493.5843,214.1207,493.8015,213.9178,493.5,213.5,493.261,213.5,493.6697,204.9,493.5689,196.3,493.4107,187.7,493.3821,179.1,493.5,170.5,493.6413,170.5585,493.5543,170.1083,493.9752,169.8684,493.7691,169.3688,494.2759,169.1645,494.2322,168.7322,494.294,168.8814,494.617,168.6612,494.9454,168.4539,495.3856,168.5167,495.7247,168.3354,496,168" style="stroke:#000000;stroke-width:0.5;"/><polygon fill="#ADD1B2" points="519.5608,186.6756,517.9484,188.8788,516.0412,192.1057,513.3136,194.2804,510.4474,195.4696,508.162,195.5728,505.2247,194.0855,502.4532,193.1139,500.3495,191.1412,499.2461,188.8828,498.5917,187.0845,497.9506,184.7357,496.91,182.7145,497.7096,180.741,498.4102,178.5792,501.0393,176.8695,502.889,174.6511,505.1784,173.9144,507.9001,173.2801,511.3904,173.657,513.3021,174.5585,515.5247,174.9672,518.2272,177.736,519.1693,180.659,519.5786,182.6534,519.115,185.9399" style="stroke:#181818;stroke-width:1.0;"/><path d="M511.2656,179.875 Q511.4219,179.6563 511.6094,179.5469 Q511.7969,179.4375 512.0156,179.4375 Q512.3906,179.4375 512.625,179.6953 Q512.8594,179.9531 512.8594,180.5625 L512.8594,182.0156 Q512.8594,182.625 512.625,182.8906 Q512.3906,183.1563 512.0156,183.1563 Q511.6719,183.1563 511.4688,182.9531 Q511.2656,182.7656 511.1563,182.25 Q511.1094,181.8906 510.9219,181.7031 Q510.5938,181.3281 509.9844,181.1094 Q509.375,180.8906 508.75,180.8906 Q507.9844,180.8906 507.3516,181.2188 Q506.7188,181.5469 506.2266,182.2969 Q505.7344,183.0469 505.7344,184.0781 L505.7344,185.1719 Q505.7344,186.4063 506.625,187.2266 Q507.5156,188.0469 509.1094,188.0469 Q510.0469,188.0469 510.7031,187.7969 Q511.0938,187.6406 511.5156,187.2031 Q511.7813,186.9375 511.9297,186.8594 Q512.0781,186.7813 512.2813,186.7813 Q512.6094,186.7813 512.8672,187.0391 Q513.125,187.2969 513.125,187.6406 Q513.125,187.9844 512.7813,188.3906 Q512.2813,188.9688 511.4844,189.2969 Q510.4063,189.75 509.1094,189.75 Q507.5938,189.75 506.3906,189.125 Q505.4063,188.625 504.7188,187.5547 Q504.0313,186.4844 504.0313,185.2031 L504.0313,184.0469 Q504.0313,182.7188 504.6484,181.5703 Q505.2656,180.4219 506.3594,179.8047 Q507.4531,179.1875 508.6875,179.1875 Q509.4219,179.1875 510.0703,179.3516 Q510.7188,179.5156 511.2656,179.875 Z " fill="#000000"/><text fill="#000000" font-family="sans-serif" font-size="14" lengthAdjust="spacing" textLength="145" x="522.5" y="189.7285">AutreClasseAssembly2</text><path d="M494.5,200 L494.5,200.2802 L504.2222,199.4476 L513.9444,200.2577 L523.6667,200.5329 L533.3889,199.0488 L543.1111,199.8964 L552.8333,199.4313 L562.5556,199.4887 L572.2778,199.9091 L582,199.0782 L591.7222,200.7382 L601.4444,199.1596 L611.1667,199.7363 L620.8889,200.5759 L630.6111,199.8856 L640.3333,200.091 L650.0556,199.9574 L659.7778,200.238 L669.5,200 " fill="#EB935B" style="stroke:#000000;stroke-width:0.5;"/><path d="M494.5,208 L494.5,208.2802 L504.2222,207.4476 L513.9444,208.2577 L523.6667,208.5329 L533.3889,207.0488 L543.1111,207.8964 L552.8333,207.4313 L562.5556,207.4887 L572.2778,207.9091 L582,207.0782 L591.7222,208.7382 L601.4444,207.1596 L611.1667,207.7363 L620.8889,208.5759 L630.6111,207.8856 L640.3333,208.091 L650.0556,207.9574 L659.7778,208.238 L669.5,208 " fill="#EB935B" style="stroke:#000000;stroke-width:0.5;"/></g><!--reverse link Mere to FilleAssembly1--><g id="link_Mere_FilleAssembly1"><path d="M336,126.03 L336.0934,126.03 L335.8159,134.402 L336.0859,142.774 L336.1776,151.146 L335.6829,159.518 L336,167.89 " fill="none" style="stroke:#181818;stroke-width:1.0;"/><polygon fill="none" points="336,108.03,336.0665,108.0522,334.669,111.5863,333.6611,115.2504,332.5264,118.8721,330.9744,122.3548,330,126.03,330,126.0041,332.4,125.8878,334.8,125.9022,337.2,126.0073,339.6,125.7995,342,126.03,342.1751,126.0884,340.6007,122.3636,339.5375,118.8092,338.5366,115.2755,337.1729,111.621,336,108.03" style="stroke:#181818;stroke-width:1.0;"/></g><!--reverse link Mere to FilleAssembly2--><g id="link_Mere_FilleAssembly2"><path d="M455.0508,85.1667 L455.0594,85.2597 L461.712,85.6026 L468.4151,86.4906 L475.1018,87.2012 L481.7343,87.3278 L488.4417,88.2627 L488.4381,88.2283 L495.1925,88.7799 L501.9649,89.5046 L508.7498,90.3497 L515.4915,90.78 L522.2938,91.7913 L522.323,92.0356 L528.9551,92.3124 L535.6723,93.3025 L542.4,94.3796 L549.0672,94.9503 L555.7662,95.7874 L555.7702,95.8175 L559.0305,96.2102 L562.3091,96.7398 L565.5789,97.2033 L568.8655,97.7928 L572.0972,97.9717 L572.1401,98.2668 L575.3248,98.7333 L578.4817,99.0093 L581.6793,99.5641 L584.8787,100.1319 L588.0179,100.2859 L587.9676,99.9693 L591.1463,101.0734 L594.1594,101.1351 L597.2983,101.9893 L600.3076,102.0274 L603.4232,102.7344 L603.418,102.7044 L606.437,103.5765 L609.3334,103.7479 L612.3022,104.3327 L615.277,104.9523 L618.2081,105.3215 L618.2433,105.5031 L621.0196,105.8658 L623.8561,106.5389 L626.5951,106.7099 L629.4795,107.6297 L632.2673,108.0517 L632.3191,108.2897 L634.955,108.8202 L637.6166,109.4689 L640.1587,109.5684 L642.7884,110.0704 L645.4958,110.9292 L645.4297,110.661 L647.948,111.5096 L650.3919,112.0561 L652.9438,113.0408 L655.3113,113.2772 L657.7884,113.9584 L657.7468,113.8117 L660.0663,114.6931 L662.2083,114.9474 L664.4765,115.6476 L666.8683,116.7842 L669.04,117.1437 L669.1009,117.3275 L671.1638,118.1228 L673.0373,118.3463 L675.148,119.2858 L677.207,120.0694 L679.1456,120.4895 L679.0682,120.2943 L680.9008,121.152 L682.708,121.9457 L684.565,122.8651 L686.2284,123.2962 L688,124 L688.0964,124.1816 L691.2776,125.5833 L694.6449,127.3355 L698.2839,129.5998 L701.4226,130.9213 L704.965,133.0034 L705.0939,133.1894 L708.2123,135.2932 L711.2872,137.3342 L714.4604,139.5171 L717.8611,142.0283 L720.94,144.075 L720.8551,143.9725 L724.0058,146.6779 L726.5793,148.6864 L729.809,151.4873 L732.6693,153.842 L735.43,156.0766 L735.5047,156.1558 L737.9464,158.4505 L740.6555,161.0289 L743.1231,163.3511 L745.4896,165.566 L747.94,167.87 " fill="none" style="stroke:#181818;stroke-width:1.0;"/><polygon fill="none" points="437.12,83.59,437.1479,83.6543,440.5461,84.974,444.1077,86.6706,447.6162,88.2444,450.9495,89.4148,454.5252,91.1437,454.4994,91.1414,454.5938,88.7404,454.8184,86.3509,455.1333,83.9693,455.1366,81.5604,455.5764,79.1898,455.6192,79.3693,451.8364,79.8655,448.1785,80.8857,444.5359,81.97,440.8046,82.6821,437.12,83.59" style="stroke:#181818;stroke-width:1.0;"/></g><!--SRC=[bOy_QyCm4CLtVGg1btO8E2wb3NIH8niwTEhGMP6EM4IHpEbCIFzyzyfsQ9GIABtfq7lwlNjnPtslKEsvTYf6GOHsCn0yw-1VxJlmaiKVIwUyEQ0b0iy91yYawJV_O3nDhVHkYs7mPXrSGFxMMO9P2MW0vzUYB4lsnLYVt6eBNCG8-uqxBdaXPNj2pTWNGE15BUL3qvo4SNeC19h090DrmO0GMaCAkBcTF0b-PhJMESWon4ek7qTQRfs2dZuNYr_s72G6GbYFQuvhwjNTVNt6NIbMfMBjPR6BbEf_HrL_75LTE-eR]--></g></svg>