<?xml version="1.0" encoding="UTF-8" standalone="no"?><svg xmlns="http://www.w3.org/2000/svg" xmlns:xlink="http://www.w3.org/1999/xlink" contentScriptType="application/ecmascript" contentStyleType="text/css" height="256px" preserveAspectRatio="none" style="width:820px;height:256px;" version="1.1" viewBox="0 0 820 256" width="820px" zoomAndPan="magnify"><defs><filter height="300%" id="ffx7fpe1blycq" width="300%" x="-1" y="-1"><feGaussianBlur result="blurOut" stdDeviation="2.0"/><feColorMatrix in="blurOut" result="blurOut2" type="matrix" values="0 0 0 0 0 0 0 0 0 0 0 0 0 0 0 0 0 0 .4 0"/><feOffset dx="4.0" dy="4.0" in="blurOut2" result="blurOut3"/><feBlend in="SourceGraphic" in2="blurOut3" mode="normal"/></filter></defs><g><!--cluster Assembly1--><polygon fill="#DDDDFF" filter="url(#ffx7fpe1blycq)" points="22,24,22,24.2102,31.4444,23.5857,40.8889,24.1933,50.3333,24.3997,59.7778,23.2866,69.2222,23.9223,78.6667,23.5735,88.1111,23.6165,97.5556,23.9318,107,24,106.78,23.9315,108.5762,28.5525,109.5994,32.9329,111.1371,37.4734,112.7375,42.0334,114,46.4883,114,46.4025,124.0645,46.5565,134.129,46.4563,144.1935,46.6668,154.2581,46.7274,164.3226,47.074,174.3871,47.1593,184.4516,47.1675,194.5161,46.7429,204.5806,46.9519,214.6452,47.1905,224.7097,45.7671,234.7742,47.1668,244.8387,46.1918,254.9032,47.0221,264.9677,45.9933,275.0323,46.4198,285.0968,47.2299,295.1613,46.4395,305.2258,46.5936,315.2903,46.8269,325.3548,46.9045,335.4194,46.4844,345.4839,46.7755,355.5484,45.9159,365.6129,46.7727,375.6774,47.0365,385.7419,46.9328,395.8065,47.1013,405.871,46.0052,415.9355,45.8361,426,46.4883,425.3786,46.4883,425.9411,56.3639,425.8035,66.2395,426.6814,76.115,425.8253,85.9906,425.6569,95.8662,426.2283,105.7418,425.3332,115.6174,425.4809,125.493,426.649,135.3686,426.4357,145.2441,426.7345,155.1197,425.6782,164.9953,426.3192,174.8709,426.5904,184.7465,425.5276,194.6221,425.9041,204.4977,426.126,214.3732,426.6518,224.2488,425.9958,234.1244,426,244,426,244.4626,415.9,243.4462,405.8,243.3227,395.7,244.5036,385.6,243.2831,375.5,244.509,365.4,244.2066,355.3,243.7321,345.2,243.6462,335.1,244.4588,325,243.7007,314.9,244.5919,304.8,243.4473,294.7,244.6174,284.6,244.4843,274.5,244.245,264.4,244.0472,254.3,244.7266,244.2,244.6136,234.1,244.1693,224,244.2682,213.9,243.8697,203.8,244.7165,193.7,244.1549,183.6,244.1726,173.5,243.3916,163.4,243.5948,153.3,244.5307,143.2,244.4298,133.1,243.9571,123,243.6778,112.9,243.7811,102.8,243.3138,92.7,244.4147,82.6,244.7396,72.5,244.5264,62.4,244.6949,52.3,243.8633,42.2,244.0872,32.1,243.6124,22,244,22.284,244,22.2468,234,22.5524,224,21.7703,214,21.8656,204,22.4435,194,22.5673,184,21.4875,174,21.8061,164,22.1493,154,21.3892,144,22.3534,134,22.258,124,21.8992,114,22.1422,104,22.7287,94,21.6871,84,22.315,74,22.2856,64,22.1158,54,22.1409,44,22.1135,34,22,24" style="stroke: #000000; stroke-width: 1.5;"/><path d="M22,46.4883 L22,46.7685 L32.2222,45.9359 L42.4444,46.746 L52.6667,47.0212 L62.8889,45.5371 L73.1111,46.3847 L83.3333,45.9196 L93.5556,45.9769 L103.7778,46.3974 L114,46.4883 " fill="#DDDDFF" style="stroke: #000000; stroke-width: 1.5;"/><text fill="#000000" font-family="sans-serif" font-size="14" font-weight="bold" lengthAdjust="spacingAndGlyphs" textLength="79" x="26" y="39.5352">Assembly1</text><!--cluster Assembly2--><polygon fill="#DDFFFF" filter="url(#ffx7fpe1blycq)" points="450,145,450,145.2102,459.4444,144.5857,468.8889,145.1933,478.3333,145.3997,487.7778,144.2866,497.2222,144.9223,506.6667,144.5735,516.1111,144.6165,525.5556,144.9318,535,145,534.78,144.9315,536.5762,149.5525,537.5994,153.9329,539.1371,158.4734,540.7375,163.0334,542,167.4883,542,167.4025,551.8462,167.5565,561.6923,167.4563,571.5385,167.6668,581.3846,167.7274,591.2308,168.074,601.0769,168.1593,610.9231,168.1675,620.7692,167.7429,630.6154,167.9519,640.4615,168.1905,650.3077,166.7671,660.1538,168.1668,670,167.1918,679.8462,168.0221,689.6923,166.9933,699.5385,167.4198,709.3846,168.2299,719.2308,167.4395,729.0769,167.5936,738.9231,167.8269,748.7692,167.9045,758.6154,167.4844,768.4615,167.7755,778.3077,166.9159,788.1538,167.7727,798,167.4883,798.5482,167.4883,798.4445,177.0522,798.613,186.6162,797.5169,196.1802,797.3478,205.7441,797.3786,215.3081,797.9411,224.8721,797.8035,234.436,798,244,798,244.6814,788.0571,243.8253,778.1143,243.6569,768.1714,244.2283,758.2286,243.3332,748.2857,243.4809,738.3429,244.649,728.4,244.4357,718.4571,244.7345,708.5143,243.6782,698.5714,244.3192,688.6286,244.5904,678.6857,243.5276,668.7429,243.9041,658.8,244.126,648.8571,244.6518,638.9143,243.9958,628.9714,244.4626,619.0286,243.4462,609.0857,243.3227,599.1429,244.5036,589.2,243.2831,579.2571,244.509,569.3143,244.2066,559.3714,243.7321,549.4286,243.6462,539.4857,244.4588,529.5429,243.7007,519.6,244.5919,509.6571,243.4473,499.7143,244.6174,489.7714,244.4843,479.8286,244.245,469.8857,244.0472,459.9429,244.7266,450,244,450.6136,244,450.1693,234.1,450.2682,224.2,449.8697,214.3,450.7165,204.4,450.1549,194.5,450.1726,184.6,449.3916,174.7,449.5948,164.8,450.5307,154.9,450,145" style="stroke: #000000; stroke-width: 1.5;"/><path d="M450,167.4883 L450,167.7685 L460.2222,166.9359 L470.4444,167.746 L480.6667,168.0212 L490.8889,166.5371 L501.1111,167.3847 L511.3333,166.9196 L521.5556,166.9769 L531.7778,167.3974 L542,167.4883 " fill="#DDFFFF" style="stroke: #000000; stroke-width: 1.5;"/><text fill="#000000" font-family="sans-serif" font-size="14" font-weight="bold" lengthAdjust="spacingAndGlyphs" textLength="79" x="454" y="160.5352">Assembly2</text><!--class Mere--><polygon fill="#BDD7EE" filter="url(#ffx7fpe1blycq)" points="236.5,59,236.5,59.2102,246.6765,58.5857,256.8529,59.1933,267.0294,59.3997,277.2059,58.2866,287.3824,58.9223,297.5588,58.5735,307.7353,58.6165,317.9118,58.9318,328.0882,58.3086,338.2647,59.5536,348.4412,58.3697,358.6176,58.8022,368.7941,59.4319,378.9706,58.9142,389.1471,59.0682,399.3235,58.9681,409.5,59,409.6785,59,409.7391,69.1592,410.0857,79.3184,410.1711,89.4775,410.1793,99.6367,409.7546,109.7959,409.5,119.9551,409.5,120.4187,399.3235,120.6573,389.1471,119.2339,378.9706,120.6336,368.7941,119.6586,358.6176,120.4889,348.4412,119.4601,338.2647,119.8866,328.0882,120.6967,317.9118,119.9063,307.7353,120.0604,297.5588,120.2937,287.3824,120.3713,277.2059,119.9512,267.0294,120.2423,256.8529,119.3827,246.6765,120.2395,236.5,119.9551,237.0482,119.9551,236.9445,109.7959,237.113,99.6367,236.0169,89.4775,235.8478,79.3184,235.8786,69.1592,236.5,59" style="stroke: #000000; stroke-width: 1.5;"/><polygon fill="#BDD7EE" points="236.5,59,236.5,59.2102,246.6765,58.5857,256.8529,59.1933,267.0294,59.3997,277.2059,58.2866,287.3824,58.9223,297.5588,58.5735,307.7353,58.6165,317.9118,58.9318,328.0882,58.3086,338.2647,59.5536,348.4412,58.3697,358.6176,58.8022,368.7941,59.4319,378.9706,58.9142,389.1471,59.0682,399.3235,58.9681,409.5,59,409.5595,59,409.5797,65.4,409.6952,71.8,409.7237,78.2,409.7264,84.6,409.5,91,409.5,91.2546,399.3235,91.4636,389.1471,91.7022,378.9706,90.2788,368.7941,91.6785,358.6176,90.7035,348.4412,91.5338,338.2647,90.505,328.0882,90.9315,317.9118,91.7416,307.7353,90.9513,297.5588,91.1053,287.3824,91.3386,277.2059,91.4162,267.0294,90.9961,256.8529,91.2872,246.6765,90.4276,236.5,91,236.5948,91,236.6827,84.6,236.6482,78.2,236.7043,71.8,236.339,65.4,236.5,59" style="stroke: #000000; stroke-width: 1.5;"/><polygon fill="#ADD1B2" points="315.3108,77.6756,313.6984,79.8788,311.7912,83.1057,309.0636,85.2804,306.1974,86.4696,303.912,86.5728,300.9747,85.0855,298.2032,84.1139,296.0995,82.1412,294.9961,79.8828,294.3417,78.0845,293.7006,75.7357,292.66,73.7145,293.4596,71.741,294.1602,69.5792,296.7893,67.8695,298.639,65.6511,300.9284,64.9144,303.6501,64.2801,307.1404,64.657,309.0521,65.5585,311.2747,65.9672,313.9772,68.736,314.9193,71.659,315.3286,73.6534,314.865,76.9399" style="stroke: #000000; stroke-width: 1.0;"/><path d="M306.7231,81.1431 Q306.1421,81.4419 305.5029,81.5913 Q304.8638,81.7407 304.1582,81.7407 Q301.6514,81.7407 300.3315,80.0889 Q299.0117,78.437 299.0117,75.3159 Q299.0117,72.1865 300.3315,70.5347 Q301.6514,68.8828 304.1582,68.8828 Q304.8638,68.8828 305.5112,69.0322 Q306.1587,69.1816 306.7231,69.4805 L306.7231,72.2031 Q306.0923,71.6221 305.4988,71.3523 Q304.9053,71.0825 304.2744,71.0825 Q302.9297,71.0825 302.2449,72.1492 Q301.5601,73.2158 301.5601,75.3159 Q301.5601,77.4077 302.2449,78.4744 Q302.9297,79.541 304.2744,79.541 Q304.9053,79.541 305.4988,79.2712 Q306.0923,79.0015 306.7231,78.4204 Z "/><text fill="#000000" font-family="sans-serif" font-size="12" lengthAdjust="spacingAndGlyphs" textLength="29" x="324.75" y="79.5352">Mere</text><path d="M237.5,91 L237.5,91.2802 L247.5588,90.4476 L257.6176,91.2577 L267.6765,91.5329 L277.7353,90.0488 L287.7941,90.8964 L297.8529,90.4313 L307.9118,90.4887 L317.9706,90.9091 L328.0294,90.0782 L338.0882,91.7382 L348.1471,90.1596 L358.2059,90.7363 L368.2647,91.5759 L378.3235,90.8856 L388.3824,91.091 L398.4412,90.9574 L408.5,91 " fill="#BDD7EE" style="stroke: #000000; stroke-width: 1.5;"/><path d="M237.5,99 L237.5,99.2802 L247.5588,98.4476 L257.6176,99.2577 L267.6765,99.5329 L277.7353,98.0488 L287.7941,98.8964 L297.8529,98.4313 L307.9118,98.4887 L317.9706,98.9091 L328.0294,98.0782 L338.0882,99.7382 L348.1471,98.1596 L358.2059,98.7363 L368.2647,99.5759 L378.3235,98.8856 L388.3824,99.091 L398.4412,98.9574 L408.5,99 " fill="#BDD7EE" style="stroke: #000000; stroke-width: 1.5;"/><text fill="#000000" font-family="sans-serif" font-size="11" lengthAdjust="spacingAndGlyphs" textLength="161" x="242.5" y="113.6348">protected MethodeAAcceder()</text><!--class FilleAssembly1--><polygon fill="#A9D18E" filter="url(#ffx7fpe1blycq)" points="264.5,180,264.5,180.2102,274.25,179.5857,284,180.1933,293.75,180.3997,303.5,179.2866,313.25,179.9223,323,179.5735,332.75,179.6165,342.5,179.9318,352.25,179.3086,362,180.5536,371.75,179.3697,381.5,180,381.3022,180,381.9319,189.6,381.4142,199.2,381.5682,208.8,381.4681,218.4,381.5,228,381.5,228.1785,371.75,228.2391,362,228.5857,352.25,228.6711,342.5,228.6793,332.75,228.2546,323,228.4636,313.25,228.7022,303.5,227.2788,293.75,228.6785,284,227.7035,274.25,228.5338,264.5,228,264.005,228,264.4315,218.4,265.2416,208.8,264.4513,199.2,264.6053,189.6,264.5,180" style="stroke: #000000; stroke-width: 1.5;"/><polygon fill="#A9D18E" points="264.5,180,264.5,180.2102,274.25,179.5857,284,180.1933,293.75,180.3997,303.5,179.2866,313.25,179.9223,323,179.5735,332.75,179.6165,342.5,179.9318,352.25,179.3086,362,180.5536,371.75,179.3697,381.5,180,381.4341,180,381.644,186.4,381.4714,192.8,381.5227,199.2,381.4894,205.6,381.5,212,381.5,212.1785,371.75,212.2391,362,212.5857,352.25,212.6711,342.5,212.6793,332.75,212.2546,323,212.4636,313.25,212.7022,303.5,211.2788,293.75,212.6785,284,211.7035,274.25,212.5338,264.5,212,264.335,212,264.4772,205.6,264.7472,199.2,264.4838,192.8,264.5351,186.4,264.5,180" style="stroke: #000000; stroke-width: 1.5;"/><polygon fill="#ADD1B2" points="290.5608,198.6756,288.9484,200.8788,287.0412,204.1057,284.3136,206.2804,281.4474,207.4696,279.162,207.5728,276.2247,206.0855,273.4532,205.1139,271.3495,203.1412,270.2461,200.8828,269.5917,199.0845,268.9506,196.7357,267.91,194.7145,268.7096,192.741,269.4102,190.5792,272.0393,188.8695,273.889,186.6511,276.1784,185.9144,278.9001,185.2801,282.3904,185.657,284.3021,186.5585,286.5247,186.9672,289.2272,189.736,290.1693,192.659,290.5786,194.6534,290.115,197.9399" style="stroke: #000000; stroke-width: 1.0;"/><path d="M281.9731,202.1431 Q281.3921,202.4419 280.7529,202.5913 Q280.1138,202.7407 279.4082,202.7407 Q276.9014,202.7407 275.5815,201.0889 Q274.2617,199.437 274.2617,196.3159 Q274.2617,193.1865 275.5815,191.5347 Q276.9014,189.8828 279.4082,189.8828 Q280.1138,189.8828 280.7612,190.0322 Q281.4087,190.1816 281.9731,190.4805 L281.9731,193.2031 Q281.3423,192.6221 280.7488,192.3523 Q280.1553,192.0825 279.5244,192.0825 Q278.1797,192.0825 277.4949,193.1492 Q276.8101,194.2158 276.8101,196.3159 Q276.8101,198.4077 277.4949,199.4744 Q278.1797,200.541 279.5244,200.541 Q280.1553,200.541 280.7488,200.2712 Q281.3423,200.0015 281.9731,199.4204 Z "/><text fill="#000000" font-family="sans-serif" font-size="12" lengthAdjust="spacingAndGlyphs" textLength="85" x="293.5" y="200.5352">FilleAssembly1</text><path d="M265.5,212 L265.5,212.2802 L275.0833,211.4476 L284.6667,212.2577 L294.25,212.5329 L303.8333,211.0488 L313.4167,211.8964 L323,211.4313 L332.5833,211.4887 L342.1667,211.9091 L351.75,211.0782 L361.3333,212.7382 L370.9167,211.1596 L380.5,212 " fill="#A9D18E" style="stroke: #000000; stroke-width: 1.5;"/><path d="M265.5,220 L265.5,220.2802 L275.0833,219.4476 L284.6667,220.2577 L294.25,220.5329 L303.8333,219.0488 L313.4167,219.8964 L323,219.4313 L332.5833,219.4887 L342.1667,219.9091 L351.75,219.0782 L361.3333,220.7382 L370.9167,219.1596 L380.5,220 " fill="#A9D18E" style="stroke: #000000; stroke-width: 1.5;"/><!--class AutreClasseAssembly1--><polygon fill="#EB935B" filter="url(#ffx7fpe1blycq)" points="38.5,65.5,38.5,65.7102,48.6875,65.0857,58.875,65.6933,69.0625,65.8997,79.25,64.7866,89.4375,65.4223,99.625,65.0735,109.8125,65.1165,120,65.4318,130.1875,64.8086,140.375,66.0536,150.5625,64.8697,160.75,65.3022,170.9375,65.9319,181.125,65.4142,191.3125,65.5682,201.5,65.5,201.4681,65.5,201.6785,75.1,201.7391,84.7,202.0857,94.3,202.1711,103.9,201.5,113.5,201.5,114.1793,191.3125,113.7546,181.125,113.9636,170.9375,114.2022,160.75,112.7788,150.5625,114.1785,140.375,113.2035,130.1875,114.0338,120,113.005,109.8125,113.4315,99.625,114.2416,89.4375,113.4513,79.25,113.6053,69.0625,113.8386,58.875,113.9162,48.6875,113.4961,38.5,113.5,38.7872,113.5,37.9276,103.9,38.7844,94.3,39.0482,84.7,38.9445,75.1,38.5,65.5" style="stroke: #000000; stroke-width: 1.5;"/><polygon fill="#EB935B" points="38.5,65.5,38.5,65.7102,48.6875,65.0857,58.875,65.6933,69.0625,65.8997,79.25,64.7866,89.4375,65.4223,99.625,65.0735,109.8125,65.1165,120,65.4318,130.1875,64.8086,140.375,66.0536,150.5625,64.8697,160.75,65.3022,170.9375,65.9319,181.125,65.4142,191.3125,65.5682,201.5,65.5,201.4894,65.5,201.5595,71.9,201.5797,78.3,201.6952,84.7,201.7237,91.1,201.5,97.5,201.5,98.1793,191.3125,97.7546,181.125,97.9636,170.9375,98.2022,160.75,96.7788,150.5625,98.1785,140.375,97.2035,130.1875,98.0338,120,97.005,109.8125,97.4315,99.625,98.2416,89.4375,97.4513,79.25,97.6053,69.0625,97.8386,58.875,97.9162,48.6875,97.4961,38.5,97.5,38.5957,97.5,38.3092,91.1,38.5948,84.7,38.6827,78.3,38.6482,71.9,38.5,65.5" style="stroke: #000000; stroke-width: 1.5;"/><polygon fill="#ADD1B2" points="64.5608,84.1756,62.9484,86.3788,61.0412,89.6057,58.3136,91.7804,55.4474,92.9696,53.162,93.0728,50.2247,91.5855,47.4532,90.6139,45.3495,88.6412,44.2461,86.3828,43.5917,84.5845,42.9506,82.2357,41.91,80.2145,42.7096,78.241,43.4102,76.0792,46.0393,74.3695,47.889,72.1511,50.1784,71.4144,52.9001,70.7801,56.3904,71.157,58.3021,72.0585,60.5247,72.4672,63.2272,75.236,64.1693,78.159,64.5786,80.1534,64.115,83.4399" style="stroke: #000000; stroke-width: 1.0;"/><path d="M55.9731,87.6431 Q55.3921,87.9419 54.7529,88.0913 Q54.1138,88.2407 53.4082,88.2407 Q50.9014,88.2407 49.5815,86.5889 Q48.2617,84.937 48.2617,81.8159 Q48.2617,78.6865 49.5815,77.0347 Q50.9014,75.3828 53.4082,75.3828 Q54.1138,75.3828 54.7612,75.5322 Q55.4087,75.6816 55.9731,75.9805 L55.9731,78.7031 Q55.3423,78.1221 54.7488,77.8523 Q54.1553,77.5825 53.5244,77.5825 Q52.1797,77.5825 51.4949,78.6492 Q50.8101,79.7158 50.8101,81.8159 Q50.8101,83.9077 51.4949,84.9744 Q52.1797,86.041 53.5244,86.041 Q54.1553,86.041 54.7488,85.7712 Q55.3423,85.5015 55.9731,84.9204 Z "/><text fill="#000000" font-family="sans-serif" font-size="12" lengthAdjust="spacingAndGlyphs" textLength="131" x="67.5" y="86.0352">AutreClasseAssembly1</text><path d="M39.5,97.5 L39.5,97.7802 L49.5625,96.9476 L59.625,97.7577 L69.6875,98.0329 L79.75,96.5488 L89.8125,97.3964 L99.875,96.9313 L109.9375,96.9887 L120,97.4091 L130.0625,96.5782 L140.125,98.2382 L150.1875,96.6596 L160.25,97.2363 L170.3125,98.0759 L180.375,97.3856 L190.4375,97.591 L200.5,97.5 " fill="#EB935B" style="stroke: #000000; stroke-width: 1.5;"/><path d="M39.5,105.5 L39.5,105.7802 L49.5625,104.9476 L59.625,105.7577 L69.6875,106.0329 L79.75,104.5488 L89.8125,105.3964 L99.875,104.9313 L109.9375,104.9887 L120,105.4091 L130.0625,104.5782 L140.125,106.2382 L150.1875,104.6596 L160.25,105.2363 L170.3125,106.0759 L180.375,105.3856 L190.4375,105.591 L200.5,105.5 " fill="#EB935B" style="stroke: #000000; stroke-width: 1.5;"/><!--class FilleAssembly2--><polygon fill="#A9D18E" filter="url(#ffx7fpe1blycq)" points="664.5,180,664.5,180.2102,674.25,179.5857,684,180.1933,693.75,180.3997,703.5,179.2866,713.25,179.9223,723,179.5735,732.75,179.6165,742.5,179.9318,752.25,179.3086,762,180.5536,771.75,179.3697,781.5,180,781.3022,180,781.9319,189.6,781.4142,199.2,781.5682,208.8,781.4681,218.4,781.5,228,781.5,228.1785,771.75,228.2391,762,228.5857,752.25,228.6711,742.5,228.6793,732.75,228.2546,723,228.4636,713.25,228.7022,703.5,227.2788,693.75,228.6785,684,227.7035,674.25,228.5338,664.5,228,664.005,228,664.4315,218.4,665.2416,208.8,664.4513,199.2,664.6053,189.6,664.5,180" style="stroke: #000000; stroke-width: 1.5;"/><polygon fill="#A9D18E" points="664.5,180,664.5,180.2102,674.25,179.5857,684,180.1933,693.75,180.3997,703.5,179.2866,713.25,179.9223,723,179.5735,732.75,179.6165,742.5,179.9318,752.25,179.3086,762,180.5536,771.75,179.3697,781.5,180,781.4341,180,781.644,186.4,781.4714,192.8,781.5227,199.2,781.4894,205.6,781.5,212,781.5,212.1785,771.75,212.2391,762,212.5857,752.25,212.6711,742.5,212.6793,732.75,212.2546,723,212.4636,713.25,212.7022,703.5,211.2788,693.75,212.6785,684,211.7035,674.25,212.5338,664.5,212,664.335,212,664.4772,205.6,664.7472,199.2,664.4838,192.8,664.5351,186.4,664.5,180" style="stroke: #000000; stroke-width: 1.5;"/><polygon fill="#ADD1B2" points="690.5608,198.6756,688.9484,200.8788,687.0412,204.1057,684.3136,206.2804,681.4474,207.4696,679.162,207.5728,676.2247,206.0855,673.4532,205.1139,671.3495,203.1412,670.2461,200.8828,669.5917,199.0845,668.9506,196.7357,667.91,194.7145,668.7096,192.741,669.4102,190.5792,672.0393,188.8695,673.889,186.6511,676.1784,185.9144,678.9001,185.2801,682.3904,185.657,684.3021,186.5585,686.5247,186.9672,689.2272,189.736,690.1693,192.659,690.5786,194.6534,690.115,197.9399" style="stroke: #000000; stroke-width: 1.0;"/><path d="M681.9731,202.1431 Q681.3921,202.4419 680.7529,202.5913 Q680.1138,202.7407 679.4082,202.7407 Q676.9014,202.7407 675.5815,201.0889 Q674.2617,199.437 674.2617,196.3159 Q674.2617,193.1865 675.5815,191.5347 Q676.9014,189.8828 679.4082,189.8828 Q680.1138,189.8828 680.7612,190.0322 Q681.4087,190.1816 681.9731,190.4805 L681.9731,193.2031 Q681.3423,192.6221 680.7488,192.3523 Q680.1553,192.0825 679.5244,192.0825 Q678.1797,192.0825 677.4949,193.1492 Q676.8101,194.2158 676.8101,196.3159 Q676.8101,198.4077 677.4949,199.4744 Q678.1797,200.541 679.5244,200.541 Q680.1553,200.541 680.7488,200.2712 Q681.3423,200.0015 681.9731,199.4204 Z "/><text fill="#000000" font-family="sans-serif" font-size="12" lengthAdjust="spacingAndGlyphs" textLength="85" x="693.5" y="200.5352">FilleAssembly2</text><path d="M665.5,212 L665.5,212.2802 L675.0833,211.4476 L684.6667,212.2577 L694.25,212.5329 L703.8333,211.0488 L713.4167,211.8964 L723,211.4313 L732.5833,211.4887 L742.1667,211.9091 L751.75,211.0782 L761.3333,212.7382 L770.9167,211.1596 L780.5,212 " fill="#A9D18E" style="stroke: #000000; stroke-width: 1.5;"/><path d="M665.5,220 L665.5,220.2802 L675.0833,219.4476 L684.6667,220.2577 L694.25,220.5329 L703.8333,219.0488 L713.4167,219.8964 L723,219.4313 L732.5833,219.4887 L742.1667,219.9091 L751.75,219.0782 L761.3333,220.7382 L770.9167,219.1596 L780.5,220 " fill="#A9D18E" style="stroke: #000000; stroke-width: 1.5;"/><!--class AutreClasseAssembly2--><polygon fill="#EB935B" filter="url(#ffx7fpe1blycq)" points="466.5,180,466.5,180.2102,476.6875,179.5857,486.875,180.1933,497.0625,180.3997,507.25,179.2866,517.4375,179.9223,527.625,179.5735,537.8125,179.6165,548,179.9318,558.1875,179.3086,568.375,180.5536,578.5625,179.3697,588.75,179.8022,598.9375,180.4319,609.125,179.9142,619.3125,180.0682,629.5,180,629.4681,180,629.6785,189.6,629.7391,199.2,630.0857,208.8,630.1711,218.4,629.5,228,629.5,228.6793,619.3125,228.2546,609.125,228.4636,598.9375,228.7022,588.75,227.2788,578.5625,228.6785,568.375,227.7035,558.1875,228.5338,548,227.505,537.8125,227.9315,527.625,228.7416,517.4375,227.9513,507.25,228.1053,497.0625,228.3386,486.875,228.4162,476.6875,227.9961,466.5,228,466.7872,228,465.9276,218.4,466.7844,208.8,467.0482,199.2,466.9445,189.6,466.5,180" style="stroke: #000000; stroke-width: 1.5;"/><polygon fill="#EB935B" points="466.5,180,466.5,180.2102,476.6875,179.5857,486.875,180.1933,497.0625,180.3997,507.25,179.2866,517.4375,179.9223,527.625,179.5735,537.8125,179.6165,548,179.9318,558.1875,179.3086,568.375,180.5536,578.5625,179.3697,588.75,179.8022,598.9375,180.4319,609.125,179.9142,619.3125,180.0682,629.5,180,629.4894,180,629.5595,186.4,629.5797,192.8,629.6952,199.2,629.7237,205.6,629.5,212,629.5,212.6793,619.3125,212.2546,609.125,212.4636,598.9375,212.7022,588.75,211.2788,578.5625,212.6785,568.375,211.7035,558.1875,212.5338,548,211.505,537.8125,211.9315,527.625,212.7416,517.4375,211.9513,507.25,212.1053,497.0625,212.3386,486.875,212.4162,476.6875,211.9961,466.5,212,466.5957,212,466.3092,205.6,466.5948,199.2,466.6827,192.8,466.6482,186.4,466.5,180" style="stroke: #000000; stroke-width: 1.5;"/><polygon fill="#ADD1B2" points="492.5608,198.6756,490.9484,200.8788,489.0412,204.1057,486.3136,206.2804,483.4474,207.4696,481.162,207.5728,478.2247,206.0855,475.4532,205.1139,473.3495,203.1412,472.2461,200.8828,471.5917,199.0845,470.9506,196.7357,469.91,194.7145,470.7096,192.741,471.4102,190.5792,474.0393,188.8695,475.889,186.6511,478.1784,185.9144,480.9001,185.2801,484.3904,185.657,486.3021,186.5585,488.5247,186.9672,491.2272,189.736,492.1693,192.659,492.5786,194.6534,492.115,197.9399" style="stroke: #000000; stroke-width: 1.0;"/><path d="M483.9731,202.1431 Q483.3921,202.4419 482.7529,202.5913 Q482.1138,202.7407 481.4082,202.7407 Q478.9014,202.7407 477.5815,201.0889 Q476.2617,199.437 476.2617,196.3159 Q476.2617,193.1865 477.5815,191.5347 Q478.9014,189.8828 481.4082,189.8828 Q482.1138,189.8828 482.7612,190.0322 Q483.4087,190.1816 483.9731,190.4805 L483.9731,193.2031 Q483.3423,192.6221 482.7488,192.3523 Q482.1553,192.0825 481.5244,192.0825 Q480.1797,192.0825 479.4949,193.1492 Q478.8101,194.2158 478.8101,196.3159 Q478.8101,198.4077 479.4949,199.4744 Q480.1797,200.541 481.5244,200.541 Q482.1553,200.541 482.7488,200.2712 Q483.3423,200.0015 483.9731,199.4204 Z "/><text fill="#000000" font-family="sans-serif" font-size="12" lengthAdjust="spacingAndGlyphs" textLength="131" x="495.5" y="200.5352">AutreClasseAssembly2</text><path d="M467.5,212 L467.5,212.2802 L477.5625,211.4476 L487.625,212.2577 L497.6875,212.5329 L507.75,211.0488 L517.8125,211.8964 L527.875,211.4313 L537.9375,211.4887 L548,211.9091 L558.0625,211.0782 L568.125,212.7382 L578.1875,211.1596 L588.25,211.7363 L598.3125,212.5759 L608.375,211.8856 L618.4375,212.091 L628.5,212 " fill="#EB935B" style="stroke: #000000; stroke-width: 1.5;"/><path d="M467.5,220 L467.5,220.2802 L477.5625,219.4476 L487.625,220.2577 L497.6875,220.5329 L507.75,219.0488 L517.8125,219.8964 L527.875,219.4313 L537.9375,219.4887 L548,219.9091 L558.0625,219.0782 L568.125,220.7382 L578.1875,219.1596 L588.25,219.7363 L598.3125,220.5759 L608.375,219.8856 L618.4375,220.091 L628.5,220 " fill="#EB935B" style="stroke: #000000; stroke-width: 1.5;"/><!--reverse link Mere to FilleAssembly1--><path d="M323,140.11 L323.0934,140.11 L322.8159,148.022 L323.0859,155.934 L323.1776,163.846 L322.6829,171.758 L323,179.67 " fill="none" style="stroke: #A80036; stroke-width: 1.0;"/><polygon fill="none" points="316,140.06,316.0661,140.0831,317.2696,136.0144,318.8608,132.0813,320.3257,128.104,321.3756,123.9814,323,120.06,322.9755,120.0514,324.2658,124.013,325.6793,128.0178,327.1786,132.0525,328.3825,135.9839,330,140.06,330,140.2445,327.2,139.8499,324.4,139.9941,321.6,140.204,318.8,140.0314,316,140.06" style="stroke: #A80036; stroke-width: 1.0;"/><!--reverse link Mere to FilleAssembly2--><path d="M429.72,99.28 L429.7295,99.3729 L435.801,99.7231 L441.9284,100.618 L448.0376,101.3355 L454.0869,101.4697 L460.2191,102.4114 L460.2152,102.3771 L466.4996,102.9417 L472.8037,103.6794 L479.1215,104.5374 L485.3921,104.9809 L491.7289,106.0048 L491.7603,106.2489 L498.0009,106.5371 L504.333,107.538 L510.6763,108.6257 L516.9546,109.2076 L523.2671,110.0556 L523.2714,110.0856 L526.3596,110.4806 L529.4673,111.0123 L532.5657,111.478 L535.6818,112.0696 L538.7398,112.2509 L538.7848,112.5457 L541.8077,113.0109 L544.8015,113.2859 L547.8378,113.8393 L550.8761,114.4057 L553.8512,114.5588 L553.7989,114.2425 L556.8259,115.3402 L559.6807,115.3966 L562.6664,116.2447 L565.5172,116.2775 L568.4786,116.9785 L568.4732,116.9486 L571.3412,117.8091 L574.0829,117.9696 L576.8991,118.5432 L579.7217,119.1515 L582.499,119.5096 L582.5351,119.691 L585.1568,120.0362 L587.8402,120.6915 L590.4238,120.8451 L593.1562,121.747 L595.7897,122.1514 L595.8424,122.3893 L598.3201,122.8947 L600.8239,123.5182 L603.2063,123.5929 L605.6777,124.0699 L608.228,124.9033 L608.1611,124.6353 L610.5142,125.4502 L612.792,125.9631 L615.1791,126.914 L617.3795,127.1171 L619.6909,127.7647 L619.6489,127.6181 L621.7918,128.4563 L623.7552,128.6679 L625.8463,129.3251 L628.0622,130.4182 L630.0558,130.735 L630.1229,130.9166 L633.5578,132.2942 L636.7839,133.1069 L640.2715,134.6271 L643.7022,135.9931 L647,137 L646.8984,136.8163 L650.1731,138.7284 L653.4146,140.5804 L656.7214,142.5506 L659.7741,144.0611 L662.9688,145.8284 L663.0893,145.995 L665.8172,147.7949 L668.7778,149.9162 L672.0782,152.5072 L674.7529,154.2336 L677.9325,156.6575 L678.0807,156.8284 L680.6982,159.0734 L683.2655,161.2607 L685.946,163.5784 L688.8881,166.1978 L691.46,168.3903 L691.3664,168.2958 L693.977,170.8852 L695.9512,172.8316 L698.649,175.5092 L700.9394,177.7751 L703.12,179.93 " fill="none" style="stroke: #A80036; stroke-width: 1.0;"/><polygon fill="none" points="428.85,106.23,428.8793,106.2937,424.9423,104.3345,421.1769,102.7485,417.3557,101.041,413.3507,98.9339,409.6,97.38,409.5938,97.3549,413.6799,96.224,417.7973,95.2199,421.9365,94.3039,426.0006,93.0843,430.17,92.29,430.3537,92.3074,429.6968,95.0582,429.5764,97.8598,429.5213,100.6676,429.0855,103.4393,428.85,106.23" style="stroke: #A80036; stroke-width: 1.0;"/><!--
@startuml AccessModifierProtected
skinparam classAttributeIconSize 0
skinparam handwritten true
skinparam class {
    BackgroundColor White
    BorderColor #000
}

package Assembly1 #DDF {
    class Mere #BDD7EE {
        protected MethodeAAcceder()
    }

    class FilleAssembly1 #A9D18E {

    }

    Mere <|- - FilleAssembly1

    class AutreClasseAssembly1 #EB935B {

    }
}

package Assembly2 #DFF {
    class FilleAssembly2 #A9D18E {

    }

    Mere <|- - FilleAssembly2

    class AutreClasseAssembly2 #EB935B {

    }
}

@enduml

PlantUML version 1.2019.09(Mon Aug 26 12:19:51 EDT 2019)
(GPL source distribution)
Java Runtime: OpenJDK Runtime Environment
JVM: OpenJDK 64-Bit Server VM
Java Version: 13.0.2+8
Operating System: Mac OS X
OS Version: 10.15.4
Default Encoding: UTF-8
Language: fr
Country: CA
--></g></svg>