<?xml version="1.0" encoding="UTF-8" standalone="no"?><svg xmlns="http://www.w3.org/2000/svg" xmlns:xlink="http://www.w3.org/1999/xlink" contentScriptType="application/ecmascript" contentStyleType="text/css" height="256px" preserveAspectRatio="none" style="width:860px;height:256px;" version="1.1" viewBox="0 0 860 256" width="860px" zoomAndPan="magnify"><defs><filter height="300%" id="fofeg3u2nioh0" width="300%" x="-1" y="-1"><feGaussianBlur result="blurOut" stdDeviation="2.0"/><feColorMatrix in="blurOut" result="blurOut2" type="matrix" values="0 0 0 0 0 0 0 0 0 0 0 0 0 0 0 0 0 0 .4 0"/><feOffset dx="4.0" dy="4.0" in="blurOut2" result="blurOut3"/><feBlend in="SourceGraphic" in2="blurOut3" mode="normal"/></filter></defs><g><!--cluster Assembly1--><polygon fill="#DDDDFF" filter="url(#fofeg3u2nioh0)" points="22,24,22,24.2102,31.4444,23.5857,40.8889,24.1933,50.3333,24.3997,59.7778,23.2866,69.2222,23.9223,78.6667,23.5735,88.1111,23.6165,97.5556,23.9318,107,24,106.78,23.9315,108.5762,28.5525,109.5994,32.9329,111.1371,37.4734,112.7375,42.0334,114,46.4883,114,46.4025,124.0571,46.5565,134.1143,46.4563,144.1714,46.6668,154.2286,46.7274,164.2857,47.074,174.3429,47.1593,184.4,47.1675,194.4571,46.7429,204.5143,46.9519,214.5714,47.1905,224.6286,45.7671,234.6857,47.1668,244.7429,46.1918,254.8,47.0221,264.8571,45.9933,274.9143,46.4198,284.9714,47.2299,295.0286,46.4395,305.0857,46.5936,315.1429,46.8269,325.2,46.9045,335.2571,46.4844,345.3143,46.7755,355.3714,45.9159,365.4286,46.7727,375.4857,47.0365,385.5429,46.9328,395.6,47.1013,405.6571,46.0052,415.7143,45.8361,425.7714,45.8669,435.8286,46.4294,445.8857,46.2918,455.9429,47.1697,466,46.4883,465.8253,46.4883,465.6569,56.3639,466.2283,66.2395,465.3332,76.115,465.4809,85.9906,466.649,95.8662,466.4357,105.7418,466.7345,115.6174,465.6782,125.493,466.3192,135.3686,466.5904,145.2441,465.5276,155.1197,465.9041,164.9953,466.126,174.8709,466.6518,184.7465,465.9958,194.6221,466.4626,204.4977,465.4462,214.3732,465.3227,224.2488,466.5036,234.1244,466,244,466,243.2831,455.9091,244.509,445.8182,244.2066,435.7273,243.7321,425.6364,243.6462,415.5455,244.4588,405.4545,243.7007,395.3636,244.5919,385.2727,243.4473,375.1818,244.6174,365.0909,244.4843,355,244.245,344.9091,244.0472,334.8182,244.7266,324.7273,244.6136,314.6364,244.1693,304.5455,244.2682,294.4545,243.8697,284.3636,244.7165,274.2727,244.1549,264.1818,244.1726,254.0909,243.3916,244,243.5948,233.9091,244.5307,223.8182,244.4298,213.7273,243.9571,203.6364,243.6778,193.5455,243.7811,183.4545,243.3138,173.3636,244.4147,163.2727,244.7396,153.1818,244.5264,143.0909,244.6949,133,243.8633,122.9091,244.0872,112.8182,243.6124,102.7273,244.284,92.6364,244.2468,82.5455,244.5524,72.4545,243.7703,62.3636,243.8656,52.2727,244.4435,42.1818,244.5673,32.0909,243.4875,22,244,21.8061,244,22.1493,234,21.3892,224,22.3534,214,22.258,204,21.8992,194,22.1422,184,22.7287,174,21.6871,164,22.315,154,22.2856,144,22.1158,134,22.1409,124,22.1135,114,21.3758,104,21.5992,94,21.5385,84,22.0638,74,22.0881,64,22.1617,54,21.709,44,21.9325,34,22,24" style="stroke: #000000; stroke-width: 1.5;"/><path d="M22,46.4883 L22,46.7685 L32.2222,45.9359 L42.4444,46.746 L52.6667,47.0212 L62.8889,45.5371 L73.1111,46.3847 L83.3333,45.9196 L93.5556,45.9769 L103.7778,46.3974 L114,46.4883 " fill="#DDDDFF" style="stroke: #000000; stroke-width: 1.5;"/><text fill="#000000" font-family="sans-serif" font-size="14" font-weight="bold" lengthAdjust="spacingAndGlyphs" textLength="79" x="26" y="39.5352">Assembly1</text><!--cluster Assembly2--><polygon fill="#DDFFFF" filter="url(#fofeg3u2nioh0)" points="490,145,490,145.2102,499.4444,144.5857,508.8889,145.1933,518.3333,145.3997,527.7778,144.2866,537.2222,144.9223,546.6667,144.5735,556.1111,144.6165,565.5556,144.9318,575,145,574.78,144.9315,576.5762,149.5525,577.5994,153.9329,579.1371,158.4734,580.7375,163.0334,582,167.4883,582,167.4025,591.8462,167.5565,601.6923,167.4563,611.5385,167.6668,621.3846,167.7274,631.2308,168.074,641.0769,168.1593,650.9231,168.1675,660.7692,167.7429,670.6154,167.9519,680.4615,168.1905,690.3077,166.7671,700.1538,168.1668,710,167.1918,719.8462,168.0221,729.6923,166.9933,739.5385,167.4198,749.3846,168.2299,759.2308,167.4395,769.0769,167.5936,778.9231,167.8269,788.7692,167.9045,798.6154,167.4844,808.4615,167.7755,818.3077,166.9159,828.1538,167.7727,838,167.4883,838.5482,167.4883,838.4445,177.0522,838.613,186.6162,837.5169,196.1802,837.3478,205.7441,837.3786,215.3081,837.9411,224.8721,837.8035,234.436,838,244,838,244.6814,828.0571,243.8253,818.1143,243.6569,808.1714,244.2283,798.2286,243.3332,788.2857,243.4809,778.3429,244.649,768.4,244.4357,758.4571,244.7345,748.5143,243.6782,738.5714,244.3192,728.6286,244.5904,718.6857,243.5276,708.7429,243.9041,698.8,244.126,688.8571,244.6518,678.9143,243.9958,668.9714,244.4626,659.0286,243.4462,649.0857,243.3227,639.1429,244.5036,629.2,243.2831,619.2571,244.509,609.3143,244.2066,599.3714,243.7321,589.4286,243.6462,579.4857,244.4588,569.5429,243.7007,559.6,244.5919,549.6571,243.4473,539.7143,244.6174,529.7714,244.4843,519.8286,244.245,509.8857,244.0472,499.9429,244.7266,490,244,490.6136,244,490.1693,234.1,490.2682,224.2,489.8697,214.3,490.7165,204.4,490.1549,194.5,490.1726,184.6,489.3916,174.7,489.5948,164.8,490.5307,154.9,490,145" style="stroke: #000000; stroke-width: 1.5;"/><path d="M490,167.4883 L490,167.7685 L500.2222,166.9359 L510.4444,167.746 L520.6667,168.0212 L530.8889,166.5371 L541.1111,167.3847 L551.3333,166.9196 L561.5556,166.9769 L571.7778,167.3974 L582,167.4883 " fill="#DDFFFF" style="stroke: #000000; stroke-width: 1.5;"/><text fill="#000000" font-family="sans-serif" font-size="14" font-weight="bold" lengthAdjust="spacingAndGlyphs" textLength="79" x="494" y="160.5352">Assembly2</text><!--class Mere--><polygon fill="#BDD7EE" filter="url(#fofeg3u2nioh0)" points="236.5,59,236.5,59.2102,246.6429,58.5857,256.7857,59.1933,266.9286,59.3997,277.0714,58.2866,287.2143,58.9223,297.3571,58.5735,307.5,58.6165,317.6429,58.9318,327.7857,58.3086,337.9286,59.5536,348.0714,58.3697,358.2143,58.8022,368.3571,59.4319,378.5,58.9142,388.6429,59.0682,398.7857,58.9681,408.9286,59.1785,419.0714,59.2391,429.2143,59.5857,439.3571,59.6711,449.5,59,450.1793,59,449.7546,69.1592,449.9636,79.3184,450.2022,89.4775,448.7788,99.6367,450.1785,109.7959,449.5,119.9551,449.5,119.6586,439.3571,120.4889,429.2143,119.4601,419.0714,119.8866,408.9286,120.6967,398.7857,119.9063,388.6429,120.0604,378.5,120.2937,368.3571,120.3713,358.2143,119.9512,348.0714,120.2423,337.9286,119.3827,327.7857,120.2395,317.6429,120.5033,307.5,120.3996,297.3571,120.5681,287.2143,119.472,277.0714,119.3029,266.9286,119.3337,256.7857,119.8962,246.6429,119.7585,236.5,119.9551,237.1814,119.9551,236.3253,109.7959,236.1569,99.6367,236.7283,89.4775,235.8332,79.3184,235.9809,69.1592,236.5,59" style="stroke: #000000; stroke-width: 1.5;"/><polygon fill="#BDD7EE" points="236.5,59,236.5,59.2102,246.6429,58.5857,256.7857,59.1933,266.9286,59.3997,277.0714,58.2866,287.2143,58.9223,297.3571,58.5735,307.5,58.6165,317.6429,58.9318,327.7857,58.3086,337.9286,59.5536,348.0714,58.3697,358.2143,58.8022,368.3571,59.4319,378.5,58.9142,388.6429,59.0682,398.7857,58.9681,408.9286,59.1785,419.0714,59.2391,429.2143,59.5857,439.3571,59.6711,449.5,59,449.7264,59,449.5849,65.4,449.6545,71.8,449.7341,78.2,449.2596,84.6,449.5,91,449.5,91.6785,439.3571,90.7035,429.2143,91.5338,419.0714,90.505,408.9286,90.9315,398.7857,91.7416,388.6429,90.9513,378.5,91.1053,368.3571,91.3386,358.2143,91.4162,348.0714,90.9961,337.9286,91.2872,327.7857,90.4276,317.6429,91.2844,307.5,91.5482,297.3571,91.4445,287.2143,91.613,277.0714,90.5169,266.9286,90.3478,256.7857,90.3786,246.6429,90.9411,236.5,91,236.4345,91,236.7271,84.6,236.4418,78.2,236.3856,71.8,236.5761,65.4,236.5,59" style="stroke: #000000; stroke-width: 1.5;"/><polygon fill="#ADD1B2" points="335.3108,77.6756,333.6984,79.8788,331.7912,83.1057,329.0636,85.2804,326.1974,86.4696,323.912,86.5728,320.9747,85.0855,318.2032,84.1139,316.0995,82.1412,314.9961,79.8828,314.3417,78.0845,313.7006,75.7357,312.66,73.7145,313.4596,71.741,314.1602,69.5792,316.7893,67.8695,318.639,65.6511,320.9284,64.9144,323.6501,64.2801,327.1404,64.657,329.0521,65.5585,331.2747,65.9672,333.9772,68.736,334.9193,71.659,335.3286,73.6534,334.865,76.9399" style="stroke: #000000; stroke-width: 1.0;"/><path d="M326.7231,81.1431 Q326.1421,81.4419 325.5029,81.5913 Q324.8638,81.7407 324.1582,81.7407 Q321.6514,81.7407 320.3315,80.0889 Q319.0117,78.437 319.0117,75.3159 Q319.0117,72.1865 320.3315,70.5347 Q321.6514,68.8828 324.1582,68.8828 Q324.8638,68.8828 325.5112,69.0322 Q326.1587,69.1816 326.7231,69.4805 L326.7231,72.2031 Q326.0923,71.6221 325.4988,71.3523 Q324.9053,71.0825 324.2744,71.0825 Q322.9297,71.0825 322.2449,72.1492 Q321.5601,73.2158 321.5601,75.3159 Q321.5601,77.4077 322.2449,78.4744 Q322.9297,79.541 324.2744,79.541 Q324.9053,79.541 325.4988,79.2712 Q326.0923,79.0015 326.7231,78.4204 Z "/><text fill="#000000" font-family="sans-serif" font-size="12" lengthAdjust="spacingAndGlyphs" textLength="29" x="344.75" y="79.5352">Mere</text><path d="M237.5,91 L237.5,91.2802 L247.5476,90.4476 L257.5952,91.2577 L267.6429,91.5329 L277.6905,90.0488 L287.7381,90.8964 L297.7857,90.4313 L307.8333,90.4887 L317.881,90.9091 L327.9286,90.0782 L337.9762,91.7382 L348.0238,90.1596 L358.0714,90.7363 L368.119,91.5759 L378.1667,90.8856 L388.2143,91.091 L398.2619,90.9574 L408.3095,91.238 L418.3571,91.3188 L428.4048,91.7809 L438.4524,91.8947 L448.5,91 " fill="#BDD7EE" style="stroke: #000000; stroke-width: 1.5;"/><path d="M237.5,99 L237.5,99.2802 L247.5476,98.4476 L257.5952,99.2577 L267.6429,99.5329 L277.6905,98.0488 L287.7381,98.8964 L297.7857,98.4313 L307.8333,98.4887 L317.881,98.9091 L327.9286,98.0782 L337.9762,99.7382 L348.0238,98.1596 L358.0714,98.7363 L368.119,99.5759 L378.1667,98.8856 L388.2143,99.091 L398.2619,98.9574 L408.3095,99.238 L418.3571,99.3188 L428.4048,99.7809 L438.4524,99.8947 L448.5,99 " fill="#BDD7EE" style="stroke: #000000; stroke-width: 1.5;"/><text fill="#000000" font-family="sans-serif" font-size="11" lengthAdjust="spacingAndGlyphs" textLength="201" x="242.5" y="113.6348">private protected MethodeAAcceder()</text><!--class FilleAssembly1--><polygon fill="#A9D18E" filter="url(#fofeg3u2nioh0)" points="284.5,180,284.5,180.2102,294.25,179.5857,304,180.1933,313.75,180.3997,323.5,179.2866,333.25,179.9223,343,179.5735,352.75,179.6165,362.5,179.9318,372.25,179.3086,382,180.5536,391.75,179.3697,401.5,180,401.3022,180,401.9319,189.6,401.4142,199.2,401.5682,208.8,401.4681,218.4,401.5,228,401.5,228.1785,391.75,228.2391,382,228.5857,372.25,228.6711,362.5,228.6793,352.75,228.2546,343,228.4636,333.25,228.7022,323.5,227.2788,313.75,228.6785,304,227.7035,294.25,228.5338,284.5,228,284.005,228,284.4315,218.4,285.2416,208.8,284.4513,199.2,284.6053,189.6,284.5,180" style="stroke: #000000; stroke-width: 1.5;"/><polygon fill="#A9D18E" points="284.5,180,284.5,180.2102,294.25,179.5857,304,180.1933,313.75,180.3997,323.5,179.2866,333.25,179.9223,343,179.5735,352.75,179.6165,362.5,179.9318,372.25,179.3086,382,180.5536,391.75,179.3697,401.5,180,401.4341,180,401.644,186.4,401.4714,192.8,401.5227,199.2,401.4894,205.6,401.5,212,401.5,212.1785,391.75,212.2391,382,212.5857,372.25,212.6711,362.5,212.6793,352.75,212.2546,343,212.4636,333.25,212.7022,323.5,211.2788,313.75,212.6785,304,211.7035,294.25,212.5338,284.5,212,284.335,212,284.4772,205.6,284.7472,199.2,284.4838,192.8,284.5351,186.4,284.5,180" style="stroke: #000000; stroke-width: 1.5;"/><polygon fill="#ADD1B2" points="310.5608,198.6756,308.9484,200.8788,307.0412,204.1057,304.3136,206.2804,301.4474,207.4696,299.162,207.5728,296.2247,206.0855,293.4532,205.1139,291.3495,203.1412,290.2461,200.8828,289.5917,199.0845,288.9506,196.7357,287.91,194.7145,288.7096,192.741,289.4102,190.5792,292.0393,188.8695,293.889,186.6511,296.1784,185.9144,298.9001,185.2801,302.3904,185.657,304.3021,186.5585,306.5247,186.9672,309.2272,189.736,310.1693,192.659,310.5786,194.6534,310.115,197.9399" style="stroke: #000000; stroke-width: 1.0;"/><path d="M301.9731,202.1431 Q301.3921,202.4419 300.7529,202.5913 Q300.1138,202.7407 299.4082,202.7407 Q296.9014,202.7407 295.5815,201.0889 Q294.2617,199.437 294.2617,196.3159 Q294.2617,193.1865 295.5815,191.5347 Q296.9014,189.8828 299.4082,189.8828 Q300.1138,189.8828 300.7612,190.0322 Q301.4087,190.1816 301.9731,190.4805 L301.9731,193.2031 Q301.3423,192.6221 300.7488,192.3523 Q300.1553,192.0825 299.5244,192.0825 Q298.1797,192.0825 297.4949,193.1492 Q296.8101,194.2158 296.8101,196.3159 Q296.8101,198.4077 297.4949,199.4744 Q298.1797,200.541 299.5244,200.541 Q300.1553,200.541 300.7488,200.2712 Q301.3423,200.0015 301.9731,199.4204 Z "/><text fill="#000000" font-family="sans-serif" font-size="12" lengthAdjust="spacingAndGlyphs" textLength="85" x="313.5" y="200.5352">FilleAssembly1</text><path d="M285.5,212 L285.5,212.2802 L295.0833,211.4476 L304.6667,212.2577 L314.25,212.5329 L323.8333,211.0488 L333.4167,211.8964 L343,211.4313 L352.5833,211.4887 L362.1667,211.9091 L371.75,211.0782 L381.3333,212.7382 L390.9167,211.1596 L400.5,212 " fill="#A9D18E" style="stroke: #000000; stroke-width: 1.5;"/><path d="M285.5,220 L285.5,220.2802 L295.0833,219.4476 L304.6667,220.2577 L314.25,220.5329 L323.8333,219.0488 L333.4167,219.8964 L343,219.4313 L352.5833,219.4887 L362.1667,219.9091 L371.75,219.0782 L381.3333,220.7382 L390.9167,219.1596 L400.5,220 " fill="#A9D18E" style="stroke: #000000; stroke-width: 1.5;"/><!--class AutreClasseAssembly1--><polygon fill="#EB935B" filter="url(#fofeg3u2nioh0)" points="38.5,65.5,38.5,65.7102,48.6875,65.0857,58.875,65.6933,69.0625,65.8997,79.25,64.7866,89.4375,65.4223,99.625,65.0735,109.8125,65.1165,120,65.4318,130.1875,64.8086,140.375,66.0536,150.5625,64.8697,160.75,65.3022,170.9375,65.9319,181.125,65.4142,191.3125,65.5682,201.5,65.5,201.4681,65.5,201.6785,75.1,201.7391,84.7,202.0857,94.3,202.1711,103.9,201.5,113.5,201.5,114.1793,191.3125,113.7546,181.125,113.9636,170.9375,114.2022,160.75,112.7788,150.5625,114.1785,140.375,113.2035,130.1875,114.0338,120,113.005,109.8125,113.4315,99.625,114.2416,89.4375,113.4513,79.25,113.6053,69.0625,113.8386,58.875,113.9162,48.6875,113.4961,38.5,113.5,38.7872,113.5,37.9276,103.9,38.7844,94.3,39.0482,84.7,38.9445,75.1,38.5,65.5" style="stroke: #000000; stroke-width: 1.5;"/><polygon fill="#EB935B" points="38.5,65.5,38.5,65.7102,48.6875,65.0857,58.875,65.6933,69.0625,65.8997,79.25,64.7866,89.4375,65.4223,99.625,65.0735,109.8125,65.1165,120,65.4318,130.1875,64.8086,140.375,66.0536,150.5625,64.8697,160.75,65.3022,170.9375,65.9319,181.125,65.4142,191.3125,65.5682,201.5,65.5,201.4894,65.5,201.5595,71.9,201.5797,78.3,201.6952,84.7,201.7237,91.1,201.5,97.5,201.5,98.1793,191.3125,97.7546,181.125,97.9636,170.9375,98.2022,160.75,96.7788,150.5625,98.1785,140.375,97.2035,130.1875,98.0338,120,97.005,109.8125,97.4315,99.625,98.2416,89.4375,97.4513,79.25,97.6053,69.0625,97.8386,58.875,97.9162,48.6875,97.4961,38.5,97.5,38.5957,97.5,38.3092,91.1,38.5948,84.7,38.6827,78.3,38.6482,71.9,38.5,65.5" style="stroke: #000000; stroke-width: 1.5;"/><polygon fill="#ADD1B2" points="64.5608,84.1756,62.9484,86.3788,61.0412,89.6057,58.3136,91.7804,55.4474,92.9696,53.162,93.0728,50.2247,91.5855,47.4532,90.6139,45.3495,88.6412,44.2461,86.3828,43.5917,84.5845,42.9506,82.2357,41.91,80.2145,42.7096,78.241,43.4102,76.0792,46.0393,74.3695,47.889,72.1511,50.1784,71.4144,52.9001,70.7801,56.3904,71.157,58.3021,72.0585,60.5247,72.4672,63.2272,75.236,64.1693,78.159,64.5786,80.1534,64.115,83.4399" style="stroke: #000000; stroke-width: 1.0;"/><path d="M55.9731,87.6431 Q55.3921,87.9419 54.7529,88.0913 Q54.1138,88.2407 53.4082,88.2407 Q50.9014,88.2407 49.5815,86.5889 Q48.2617,84.937 48.2617,81.8159 Q48.2617,78.6865 49.5815,77.0347 Q50.9014,75.3828 53.4082,75.3828 Q54.1138,75.3828 54.7612,75.5322 Q55.4087,75.6816 55.9731,75.9805 L55.9731,78.7031 Q55.3423,78.1221 54.7488,77.8523 Q54.1553,77.5825 53.5244,77.5825 Q52.1797,77.5825 51.4949,78.6492 Q50.8101,79.7158 50.8101,81.8159 Q50.8101,83.9077 51.4949,84.9744 Q52.1797,86.041 53.5244,86.041 Q54.1553,86.041 54.7488,85.7712 Q55.3423,85.5015 55.9731,84.9204 Z "/><text fill="#000000" font-family="sans-serif" font-size="12" lengthAdjust="spacingAndGlyphs" textLength="131" x="67.5" y="86.0352">AutreClasseAssembly1</text><path d="M39.5,97.5 L39.5,97.7802 L49.5625,96.9476 L59.625,97.7577 L69.6875,98.0329 L79.75,96.5488 L89.8125,97.3964 L99.875,96.9313 L109.9375,96.9887 L120,97.4091 L130.0625,96.5782 L140.125,98.2382 L150.1875,96.6596 L160.25,97.2363 L170.3125,98.0759 L180.375,97.3856 L190.4375,97.591 L200.5,97.5 " fill="#EB935B" style="stroke: #000000; stroke-width: 1.5;"/><path d="M39.5,105.5 L39.5,105.7802 L49.5625,104.9476 L59.625,105.7577 L69.6875,106.0329 L79.75,104.5488 L89.8125,105.3964 L99.875,104.9313 L109.9375,104.9887 L120,105.4091 L130.0625,104.5782 L140.125,106.2382 L150.1875,104.6596 L160.25,105.2363 L170.3125,106.0759 L180.375,105.3856 L190.4375,105.591 L200.5,105.5 " fill="#EB935B" style="stroke: #000000; stroke-width: 1.5;"/><!--class FilleAssembly2--><polygon fill="#EB935B" filter="url(#fofeg3u2nioh0)" points="704.5,180,704.5,180.2102,714.25,179.5857,724,180.1933,733.75,180.3997,743.5,179.2866,753.25,179.9223,763,179.5735,772.75,179.6165,782.5,179.9318,792.25,179.3086,802,180.5536,811.75,179.3697,821.5,180,821.3022,180,821.9319,189.6,821.4142,199.2,821.5682,208.8,821.4681,218.4,821.5,228,821.5,228.1785,811.75,228.2391,802,228.5857,792.25,228.6711,782.5,228.6793,772.75,228.2546,763,228.4636,753.25,228.7022,743.5,227.2788,733.75,228.6785,724,227.7035,714.25,228.5338,704.5,228,704.005,228,704.4315,218.4,705.2416,208.8,704.4513,199.2,704.6053,189.6,704.5,180" style="stroke: #000000; stroke-width: 1.5;"/><polygon fill="#EB935B" points="704.5,180,704.5,180.2102,714.25,179.5857,724,180.1933,733.75,180.3997,743.5,179.2866,753.25,179.9223,763,179.5735,772.75,179.6165,782.5,179.9318,792.25,179.3086,802,180.5536,811.75,179.3697,821.5,180,821.4341,180,821.644,186.4,821.4714,192.8,821.5227,199.2,821.4894,205.6,821.5,212,821.5,212.1785,811.75,212.2391,802,212.5857,792.25,212.6711,782.5,212.6793,772.75,212.2546,763,212.4636,753.25,212.7022,743.5,211.2788,733.75,212.6785,724,211.7035,714.25,212.5338,704.5,212,704.335,212,704.4772,205.6,704.7472,199.2,704.4838,192.8,704.5351,186.4,704.5,180" style="stroke: #000000; stroke-width: 1.5;"/><polygon fill="#ADD1B2" points="730.5608,198.6756,728.9484,200.8788,727.0412,204.1057,724.3136,206.2804,721.4474,207.4696,719.162,207.5728,716.2247,206.0855,713.4532,205.1139,711.3495,203.1412,710.2461,200.8828,709.5917,199.0845,708.9506,196.7357,707.91,194.7145,708.7096,192.741,709.4102,190.5792,712.0393,188.8695,713.889,186.6511,716.1784,185.9144,718.9001,185.2801,722.3904,185.657,724.3021,186.5585,726.5247,186.9672,729.2272,189.736,730.1693,192.659,730.5786,194.6534,730.115,197.9399" style="stroke: #000000; stroke-width: 1.0;"/><path d="M721.9731,202.1431 Q721.3921,202.4419 720.7529,202.5913 Q720.1138,202.7407 719.4082,202.7407 Q716.9014,202.7407 715.5815,201.0889 Q714.2617,199.437 714.2617,196.3159 Q714.2617,193.1865 715.5815,191.5347 Q716.9014,189.8828 719.4082,189.8828 Q720.1138,189.8828 720.7612,190.0322 Q721.4087,190.1816 721.9731,190.4805 L721.9731,193.2031 Q721.3423,192.6221 720.7488,192.3523 Q720.1553,192.0825 719.5244,192.0825 Q718.1797,192.0825 717.4949,193.1492 Q716.8101,194.2158 716.8101,196.3159 Q716.8101,198.4077 717.4949,199.4744 Q718.1797,200.541 719.5244,200.541 Q720.1553,200.541 720.7488,200.2712 Q721.3423,200.0015 721.9731,199.4204 Z "/><text fill="#000000" font-family="sans-serif" font-size="12" lengthAdjust="spacingAndGlyphs" textLength="85" x="733.5" y="200.5352">FilleAssembly2</text><path d="M705.5,212 L705.5,212.2802 L715.0833,211.4476 L724.6667,212.2577 L734.25,212.5329 L743.8333,211.0488 L753.4167,211.8964 L763,211.4313 L772.5833,211.4887 L782.1667,211.9091 L791.75,211.0782 L801.3333,212.7382 L810.9167,211.1596 L820.5,212 " fill="#EB935B" style="stroke: #000000; stroke-width: 1.5;"/><path d="M705.5,220 L705.5,220.2802 L715.0833,219.4476 L724.6667,220.2577 L734.25,220.5329 L743.8333,219.0488 L753.4167,219.8964 L763,219.4313 L772.5833,219.4887 L782.1667,219.9091 L791.75,219.0782 L801.3333,220.7382 L810.9167,219.1596 L820.5,220 " fill="#EB935B" style="stroke: #000000; stroke-width: 1.5;"/><!--class AutreClasseAssembly2--><polygon fill="#EB935B" filter="url(#fofeg3u2nioh0)" points="506.5,180,506.5,180.2102,516.6875,179.5857,526.875,180.1933,537.0625,180.3997,547.25,179.2866,557.4375,179.9223,567.625,179.5735,577.8125,179.6165,588,179.9318,598.1875,179.3086,608.375,180.5536,618.5625,179.3697,628.75,179.8022,638.9375,180.4319,649.125,179.9142,659.3125,180.0682,669.5,180,669.4681,180,669.6785,189.6,669.7391,199.2,670.0857,208.8,670.1711,218.4,669.5,228,669.5,228.6793,659.3125,228.2546,649.125,228.4636,638.9375,228.7022,628.75,227.2788,618.5625,228.6785,608.375,227.7035,598.1875,228.5338,588,227.505,577.8125,227.9315,567.625,228.7416,557.4375,227.9513,547.25,228.1053,537.0625,228.3386,526.875,228.4162,516.6875,227.9961,506.5,228,506.7872,228,505.9276,218.4,506.7844,208.8,507.0482,199.2,506.9445,189.6,506.5,180" style="stroke: #000000; stroke-width: 1.5;"/><polygon fill="#EB935B" points="506.5,180,506.5,180.2102,516.6875,179.5857,526.875,180.1933,537.0625,180.3997,547.25,179.2866,557.4375,179.9223,567.625,179.5735,577.8125,179.6165,588,179.9318,598.1875,179.3086,608.375,180.5536,618.5625,179.3697,628.75,179.8022,638.9375,180.4319,649.125,179.9142,659.3125,180.0682,669.5,180,669.4894,180,669.5595,186.4,669.5797,192.8,669.6952,199.2,669.7237,205.6,669.5,212,669.5,212.6793,659.3125,212.2546,649.125,212.4636,638.9375,212.7022,628.75,211.2788,618.5625,212.6785,608.375,211.7035,598.1875,212.5338,588,211.505,577.8125,211.9315,567.625,212.7416,557.4375,211.9513,547.25,212.1053,537.0625,212.3386,526.875,212.4162,516.6875,211.9961,506.5,212,506.5957,212,506.3092,205.6,506.5948,199.2,506.6827,192.8,506.6482,186.4,506.5,180" style="stroke: #000000; stroke-width: 1.5;"/><polygon fill="#ADD1B2" points="532.5608,198.6756,530.9484,200.8788,529.0412,204.1057,526.3136,206.2804,523.4474,207.4696,521.162,207.5728,518.2247,206.0855,515.4532,205.1139,513.3495,203.1412,512.2461,200.8828,511.5917,199.0845,510.9506,196.7357,509.91,194.7145,510.7096,192.741,511.4102,190.5792,514.0393,188.8695,515.889,186.6511,518.1784,185.9144,520.9001,185.2801,524.3904,185.657,526.3021,186.5585,528.5247,186.9672,531.2272,189.736,532.1693,192.659,532.5786,194.6534,532.115,197.9399" style="stroke: #000000; stroke-width: 1.0;"/><path d="M523.9731,202.1431 Q523.3921,202.4419 522.7529,202.5913 Q522.1138,202.7407 521.4082,202.7407 Q518.9014,202.7407 517.5815,201.0889 Q516.2617,199.437 516.2617,196.3159 Q516.2617,193.1865 517.5815,191.5347 Q518.9014,189.8828 521.4082,189.8828 Q522.1138,189.8828 522.7612,190.0322 Q523.4087,190.1816 523.9731,190.4805 L523.9731,193.2031 Q523.3423,192.6221 522.7488,192.3523 Q522.1553,192.0825 521.5244,192.0825 Q520.1797,192.0825 519.4949,193.1492 Q518.8101,194.2158 518.8101,196.3159 Q518.8101,198.4077 519.4949,199.4744 Q520.1797,200.541 521.5244,200.541 Q522.1553,200.541 522.7488,200.2712 Q523.3423,200.0015 523.9731,199.4204 Z "/><text fill="#000000" font-family="sans-serif" font-size="12" lengthAdjust="spacingAndGlyphs" textLength="131" x="535.5" y="200.5352">AutreClasseAssembly2</text><path d="M507.5,212 L507.5,212.2802 L517.5625,211.4476 L527.625,212.2577 L537.6875,212.5329 L547.75,211.0488 L557.8125,211.8964 L567.875,211.4313 L577.9375,211.4887 L588,211.9091 L598.0625,211.0782 L608.125,212.7382 L618.1875,211.1596 L628.25,211.7363 L638.3125,212.5759 L648.375,211.8856 L658.4375,212.091 L668.5,212 " fill="#EB935B" style="stroke: #000000; stroke-width: 1.5;"/><path d="M507.5,220 L507.5,220.2802 L517.5625,219.4476 L527.625,220.2577 L537.6875,220.5329 L547.75,219.0488 L557.8125,219.8964 L567.875,219.4313 L577.9375,219.4887 L588,219.9091 L598.0625,219.0782 L608.125,220.7382 L618.1875,219.1596 L628.25,219.7363 L638.3125,220.5759 L648.375,219.8856 L658.4375,220.091 L668.5,220 " fill="#EB935B" style="stroke: #000000; stroke-width: 1.5;"/><!--reverse link Mere to FilleAssembly1--><path d="M343,140.11 L343.0934,140.11 L342.8159,148.022 L343.0859,155.934 L343.1776,163.846 L342.6829,171.758 L343,179.67 " fill="none" style="stroke: #A80036; stroke-width: 1.0;"/><polygon fill="none" points="336,140.06,336.0661,140.0831,337.2696,136.0144,338.8608,132.0813,340.3257,128.104,341.3756,123.9814,343,120.06,342.9755,120.0514,344.2658,124.013,345.6793,128.0178,347.1786,132.0525,348.3825,135.9839,350,140.06,350,140.2445,347.2,139.8499,344.4,139.9941,341.6,140.204,338.8,140.0314,336,140.06" style="stroke: #A80036; stroke-width: 1.0;"/><!--reverse link Mere to FilleAssembly2--><path d="M469.98,100.04 L469.9891,100.133 L476.1968,100.4686 L482.458,101.3492 L488.7018,102.0524 L494.8883,102.1719 L501.1541,103.0994 L501.1503,103.065 L507.4905,103.6102 L513.8497,104.3284 L520.2221,105.1669 L526.549,105.5908 L532.9397,106.5955 L532.9702,106.8396 L539.2076,107.105 L545.5341,108.0832 L551.8714,109.1484 L558.1456,109.7076 L564.4529,110.5329 L564.4571,110.563 L567.5266,110.946 L570.6152,111.4658 L573.6945,111.9196 L576.7914,112.4993 L579.8312,112.6686 L579.8755,112.9635 L582.8718,113.4166 L585.8395,113.6795 L588.8491,114.2209 L591.8606,114.7754 L594.81,114.9163 L594.7584,114.5999 L597.7523,115.6859 L600.5763,115.7303 L603.5295,116.5666 L606.3496,116.5874 L609.2788,117.2766 L609.2734,117.2466 L612.1064,118.0957 L614.8143,118.2446 L617.596,118.8067 L620.3839,119.4035 L623.1271,119.7501 L623.1629,119.9316 L625.7502,120.2658 L628.3987,120.9102 L630.9482,121.0528 L633.6454,121.9439 L636.2444,122.3373 L636.2968,122.5753 L638.7421,123.0706 L641.2133,123.684 L643.5638,123.7486 L646.0028,124.2155 L648.5203,125.0389 L648.4537,124.7709 L650.7788,125.5768 L653.0288,126.0807 L655.3878,127.0227 L657.5608,127.2168 L659.8443,127.8554 L659.8024,127.7088 L661.9245,128.5393 L663.8675,128.7432 L665.9379,129.3927 L668.1328,130.4783 L670.1059,130.7874 L670.1727,130.9691 L673.5974,132.3363 L676.8142,133.1382 L680.2913,134.6481 L683.7117,136.0038 L687,137 L686.8989,136.816 L690.1778,138.7189 L693.4236,140.5615 L696.7344,142.5226 L699.7924,144.0232 L702.9916,145.7811 L703.1119,145.9478 L705.8422,147.7425 L708.8048,149.8591 L712.1066,152.4457 L714.7839,154.1668 L717.965,156.5863 L718.1132,156.7571 L720.7304,159.0015 L723.2974,161.1881 L725.9776,163.5052 L728.9193,166.1239 L731.4909,168.3158 L731.3973,168.2213 L734.006,170.8134 L735.9776,172.763 L738.6736,175.4431 L740.9618,177.712 L743.14,179.87 " fill="none" style="stroke: #A80036; stroke-width: 1.0;"/><polygon fill="none" points="469.2,107,469.229,107.0638,465.2849,105.1223,461.5106,103.5547,457.6811,101.8653,453.6697,99.7755,449.91,98.24,449.9037,98.2149,453.9852,97.0642,458.0987,96.0401,462.2344,95.104,466.2936,93.8646,470.46,93.05,470.6438,93.0666,469.9988,95.8211,469.8903,98.6241,469.8474,101.433,469.4235,104.2074,469.2,107" style="stroke: #A80036; stroke-width: 1.0;"/><!--
@startuml AccessModifierPrivateProtected
skinparam classAttributeIconSize 0
skinparam handwritten true
skinparam class {
    BackgroundColor White
    BorderColor #000
}

package Assembly1 #DDF {
    class Mere #BDD7EE {
        private protected MethodeAAcceder()
    }

    class FilleAssembly1 #A9D18E {

    }

    Mere <|- - FilleAssembly1

    class AutreClasseAssembly1 #EB935B {

    }
}

package Assembly2 #DFF {
    class FilleAssembly2 #EB935B {

    }

    Mere <|- - FilleAssembly2

    class AutreClasseAssembly2 #EB935B {

    }
}

@enduml

PlantUML version 1.2019.09(Mon Aug 26 12:19:51 EDT 2019)
(GPL source distribution)
Java Runtime: OpenJDK Runtime Environment
JVM: OpenJDK 64-Bit Server VM
Java Version: 13.0.2+8
Operating System: Mac OS X
OS Version: 10.15.4
Default Encoding: UTF-8
Language: fr
Country: CA
--></g></svg>