<?xml version="1.0" encoding="us-ascii" standalone="no"?><svg xmlns="http://www.w3.org/2000/svg" xmlns:xlink="http://www.w3.org/1999/xlink" contentStyleType="text/css" height="239px" preserveAspectRatio="none" style="width:902px;height:239px;background:#FFFFFF;" version="1.1" viewBox="0 0 902 239" width="902px" zoomAndPan="magnify"><defs/><g><!--cluster Assembly1--><g id="cluster_Assembly1"><path d="M8.5,6 L8.5,6.5605 L17.875,4.8951 L27.25,6.5154 L36.625,7.0658 L46,4.0976 L55.375,5.7928 L64.75,4.8627 L74.125,4.9773 L83.5,6 L86,8.5 L85.9425,8.4809 L86.8167,12.5284 L89.2671,17.0986 L89.6682,20.9893 L91.4331,25.3322 L93,29.6094 L93,30.7612 L103.1125,29.3806 L113.225,29.7913 L123.3375,29.5242 L133.45,30.0854 L143.5625,30.2471 L153.675,31.1712 L163.7875,31.3989 L173.9,31.4207 L184.0125,30.2884 L194.125,30.8456 L204.2375,31.482 L214.35,27.6862 L224.4625,31.4187 L234.575,28.8187 L244.6875,31.0329 L254.8,28.2893 L264.9125,29.4267 L275.025,31.587 L285.1375,29.4794 L295.25,29.8902 L305.3625,30.5124 L315.475,30.7193 L325.5875,29.599 L335.7,30.3753 L345.8125,28.0829 L355.925,30.3677 L366.0375,31.0712 L376.15,30.7948 L386.2625,31.2441 L396.375,28.3212 L406.4875,27.8702 L416.6,27.9523 L426.7125,29.4524 L436.825,29.0853 L446.9375,31.4265 L457.05,29.1436 L467.1625,28.6946 L477.275,30.2181 L487.3875,27.8311 L497.5,29.6094 L500,32.1094 L498.6157,32.1094 L501.7305,41.9789 L501.1618,51.8484 L501.9586,61.718 L499.1419,71.5875 L500.8512,81.457 L501.5745,91.3266 L498.7403,101.1961 L499.7444,111.0656 L500.336,120.9352 L501.738,130.8047 L499.9888,140.6742 L501.2335,150.5438 L498.5232,160.4133 L498.194,170.2828 L501.343,180.1523 L498.0882,190.0219 L501.3572,199.8914 L500.551,209.7609 L499.2856,219.6305 L500,229.5 L497.5,232 L497.5,231.0566 L487.5204,233.2234 L477.5408,231.2018 L467.5612,233.5783 L457.5816,230.526 L447.602,233.6465 L437.6224,233.2915 L427.6429,232.6532 L417.6633,232.1259 L407.6837,233.9376 L397.7041,233.6362 L387.7245,232.4513 L377.7449,232.7152 L367.7653,231.6526 L357.7857,233.9105 L347.8061,232.413 L337.8265,232.4602 L327.8469,230.3777 L317.8673,230.9194 L307.8878,233.4153 L297.9082,233.146 L287.9286,231.8855 L277.949,231.1409 L267.9694,231.4162 L257.9898,230.1702 L248.0102,233.106 L238.0306,233.9722 L228.051,233.4037 L218.0714,233.8532 L208.0918,231.6354 L198.1122,232.2326 L188.1327,230.9664 L178.1531,232.7574 L168.1735,232.658 L158.1939,233.473 L148.2143,231.3876 L138.2347,231.6416 L128.2551,233.1826 L118.2755,233.5129 L108.2959,230.6332 L98.3163,231.483 L88.3367,232.398 L78.3571,230.3711 L68.3776,232.9424 L58.398,232.688 L48.4184,231.7313 L38.4388,232.3793 L28.4592,233.9431 L18.4796,231.1657 L8.5,232 L6,229.5 L6.84,229.5 L6.7617,219.4545 L6.3087,209.4091 L6.3758,199.3636 L6.3026,189.3182 L4.3356,179.2727 L4.9312,169.2273 L4.7692,159.1818 L6.1702,149.1364 L6.235,139.0909 L6.4313,129.0455 L5.2241,119 L5.82,108.9545 L5.6794,98.9091 L7.5383,88.8636 L7.1375,78.8182 L4.7052,68.7727 L5.8055,58.7273 L4.4607,48.6818 L6.769,38.6364 L7.6226,28.5909 L7.4522,18.5455 L6,8.5 L8.5,6 " fill="#DDDDFF" style="stroke:#000000;stroke-width:1.5;"/><path d="M6,29.6094 L6,29.8896 L15.6667,29.0569 L25.3333,29.8671 L35,30.1423 L44.6667,28.6582 L54.3333,29.5058 L64,29.0407 L73.6667,29.098 L83.3333,29.5185 L93,29.6094 " fill="#DDDDFF" style="stroke:#000000;stroke-width:1.5;"/><text fill="#000000" font-family="sans-serif" font-size="14" font-weight="bold" lengthAdjust="spacing" textLength="74" x="10" y="22.5332">Assembly1</text></g><!--cluster Assembly2--><g id="cluster_Assembly2"><path d="M526.5,132 L526.5,132.5605 L535.875,130.8951 L545.25,132.5154 L554.625,133.0658 L564,130.0976 L573.375,131.7928 L582.75,130.8627 L592.125,130.9773 L601.5,132 L604,134.5 L603.9425,134.4809 L604.8167,138.5284 L607.2671,143.0986 L607.6682,146.9893 L609.4331,151.3322 L611,155.6094 L611,156.7612 L621.0536,155.3806 L631.1071,155.7913 L641.1607,155.5242 L651.2143,156.0854 L661.2679,156.2471 L671.3214,157.1712 L681.375,157.3989 L691.4286,157.4207 L701.4821,156.2884 L711.5357,156.8456 L721.5893,157.482 L731.6429,153.6862 L741.6964,157.4187 L751.75,154.8187 L761.8036,157.0329 L771.8571,154.2893 L781.9107,155.4267 L791.9643,157.587 L802.0179,155.4794 L812.0714,155.8902 L822.125,156.5124 L832.1786,156.7193 L842.2321,155.599 L852.2857,156.3753 L862.3393,154.0829 L872.3929,156.3677 L882.4464,157.0712 L892.5,155.6094 L895,158.1094 L896.1854,158.1094 L896.6347,168.308 L893.7118,178.5067 L893.2608,188.7054 L893.3429,198.904 L894.843,209.1027 L894.4759,219.3013 L895,229.5 L892.5,232 L892.5,233.8171 L882.6081,231.5342 L872.7162,231.0852 L862.8243,232.6087 L852.9324,230.2218 L843.0405,230.6157 L833.1486,233.7305 L823.2568,233.1618 L813.3649,233.9586 L803.473,231.1419 L793.5811,232.8512 L783.6892,233.5745 L773.7973,230.7403 L763.9054,231.7444 L754.0135,232.336 L744.1216,233.738 L734.2297,231.9888 L724.3378,233.2335 L714.4459,230.5232 L704.5541,230.194 L694.6622,233.343 L684.7703,230.0882 L674.8784,233.3572 L664.9865,232.551 L655.0946,231.2856 L645.2027,231.0566 L635.3108,233.2234 L625.4189,231.2018 L615.527,233.5783 L605.6351,230.526 L595.7432,233.6465 L585.8514,233.2915 L575.9595,232.6532 L566.0676,232.1259 L556.1757,233.9376 L546.2838,233.6362 L536.3919,232.4513 L526.5,232 L524,229.5 L524.7152,229.5 L523.6526,220 L525.9105,210.5 L524.413,201 L524.4602,191.5 L522.3777,182 L522.9194,172.5 L525.4153,163 L525.146,153.5 L523.8855,144 L524,134.5 L526.5,132 " fill="#DDFFFF" style="stroke:#000000;stroke-width:1.5;"/><path d="M524,155.6094 L524,155.8896 L533.6667,155.0569 L543.3333,155.8671 L553,156.1423 L562.6667,154.6582 L572.3333,155.5058 L582,155.0407 L591.6667,155.098 L601.3333,155.5185 L611,155.6094 " fill="#DDFFFF" style="stroke:#000000;stroke-width:1.5;"/><text fill="#000000" font-family="sans-serif" font-size="14" font-weight="bold" lengthAdjust="spacing" textLength="74" x="528" y="148.5332">Assembly2</text></g><!--class Mere--><g id="elem_Mere"><polygon fill="#BDD7EE" points="237,42,237,42.2102,247.1667,41.5857,257.3333,42.1933,267.5,42.3997,277.6667,41.2866,287.8333,41.9223,298,41.5735,308.1667,41.6165,318.3333,41.9318,328.5,41.3086,338.6667,42.5536,348.8333,41.3697,359,41.8022,369.1667,42.4319,379.3333,41.9142,389.5,42.0682,399.6667,41.9681,409.8333,42.1785,420,42.2391,430.1667,42.5857,440.3333,42.6711,450.5,42.6793,460.6667,42.2546,470.8333,42.4636,481,42,481.0896,42.2163,481.2616,41.9244,481.7937,42.5018,482.0228,42.348,482.4823,42.7502,482.7678,42.7322,482.6153,42.6691,482.8931,43.077,483.289,43.5339,483.1921,43.7867,483.386,44.1599,483.5,44.5,483.8386,44.5,483.9162,54.6016,483.4961,64.7031,483.7872,74.8047,482.9276,84.9063,483.7844,95.0078,483.5,105.1094,483.6688,105.1793,483.4905,105.5196,483.3959,105.8947,482.9119,106.1084,482.7134,106.4404,482.7678,106.8771,482.6885,106.6858,482.4067,107.0055,482.0356,107.1095,481.794,107.5263,481.3313,107.4091,481,107.6094,481,107.2663,470.8333,107.8376,460.6667,106.9425,450.5,107.0902,440.3333,108.2583,430.1667,108.045,420,108.3439,409.8333,107.2876,399.6667,107.9286,389.5,108.1998,379.3333,107.137,369.1667,107.5135,359,107.7354,348.8333,108.2611,338.6667,107.6052,328.5,108.0719,318.3333,107.0556,308.1667,106.9321,298,108.113,287.8333,106.8924,277.6667,108.1183,267.5,107.816,257.3333,107.3415,247.1667,107.2556,237,107.6094,237.0585,107.7507,236.6083,107.3707,236.3684,107.4988,235.8688,106.9998,235.6645,107.2137,235.2322,106.8771,235.3814,106.9389,235.1612,106.5548,234.9539,106.1761,235.0167,105.9092,234.8354,105.5412,234.5,105.1094,234.6693,105.1094,234.7682,95.0078,234.3697,84.9063,235.2165,74.8047,234.6549,64.7031,234.6726,54.6016,234.5,44.5,234.3127,44.4224,234.5217,44.0948,234.9563,43.8606,235.0717,43.4942,235.0726,43.0803,235.2322,42.7322,235.1911,42.633,235.5579,42.5184,235.8518,42.228,236.3458,42.4206,236.7408,42.3742,237,42" style="stroke:#000000;stroke-width:0.5;"/><polygon fill="#ADD1B2" points="349.8108,60.6756,348.1984,62.8788,346.2912,66.1057,343.5636,68.2804,340.6974,69.4696,338.412,69.5728,335.4747,68.0855,332.7032,67.1139,330.5995,65.1412,329.4961,62.8828,328.8417,61.0845,328.2006,58.7357,327.16,56.7145,327.9596,54.741,328.6602,52.5792,331.2893,50.8695,333.139,48.6511,335.4284,47.9144,338.1501,47.2801,341.6404,47.657,343.5521,48.5585,345.7747,48.9672,348.4772,51.736,349.4193,54.659,349.8286,56.6534,349.365,59.9399" style="stroke:#181818;stroke-width:1.0;"/><path d="M341.5156,53.875 Q341.6719,53.6563 341.8594,53.5469 Q342.0469,53.4375 342.2656,53.4375 Q342.6406,53.4375 342.875,53.6953 Q343.1094,53.9531 343.1094,54.5625 L343.1094,56.0156 Q343.1094,56.625 342.875,56.8906 Q342.6406,57.1563 342.2656,57.1563 Q341.9219,57.1563 341.7188,56.9531 Q341.5156,56.7656 341.4063,56.25 Q341.3594,55.8906 341.1719,55.7031 Q340.8438,55.3281 340.2344,55.1094 Q339.625,54.8906 339,54.8906 Q338.2344,54.8906 337.6016,55.2188 Q336.9688,55.5469 336.4766,56.2969 Q335.9844,57.0469 335.9844,58.0781 L335.9844,59.1719 Q335.9844,60.4063 336.875,61.2266 Q337.7656,62.0469 339.3594,62.0469 Q340.2969,62.0469 340.9531,61.7969 Q341.3438,61.6406 341.7656,61.2031 Q342.0313,60.9375 342.1797,60.8594 Q342.3281,60.7813 342.5313,60.7813 Q342.8594,60.7813 343.1172,61.0391 Q343.375,61.2969 343.375,61.6406 Q343.375,61.9844 343.0313,62.3906 Q342.5313,62.9688 341.7344,63.2969 Q340.6563,63.75 339.3594,63.75 Q337.8438,63.75 336.6406,63.125 Q335.6563,62.625 334.9688,61.5547 Q334.2813,60.4844 334.2813,59.2031 L334.2813,58.0469 Q334.2813,56.7188 334.8984,55.5703 Q335.5156,54.4219 336.6094,53.8047 Q337.7031,53.1875 338.9375,53.1875 Q339.6719,53.1875 340.3203,53.3516 Q340.9688,53.5156 341.5156,53.875 Z " fill="#000000"/><text fill="#000000" font-family="sans-serif" font-size="14" lengthAdjust="spacing" textLength="32" x="359.25" y="63.7285">Mere</text><path d="M235.5,74 L235.5,74.2802 L245.38,73.4476 L255.26,74.2577 L265.14,74.5329 L275.02,73.0488 L284.9,73.8964 L294.78,73.4313 L304.66,73.4887 L314.54,73.9091 L324.42,73.0782 L334.3,74.7382 L344.18,73.1596 L354.06,73.7363 L363.94,74.5759 L373.82,73.8856 L383.7,74.091 L393.58,73.9574 L403.46,74.238 L413.34,74.3188 L423.22,74.7809 L433.1,74.8947 L442.98,74.9057 L452.86,74.3395 L462.74,74.6181 L472.62,74.9363 L482.5,74 " fill="#BDD7EE" style="stroke:#000000;stroke-width:0.5;"/><path d="M235.5,82 L235.5,82.2802 L245.38,81.4476 L255.26,82.2577 L265.14,82.5329 L275.02,81.0488 L284.9,81.8964 L294.78,81.4313 L304.66,81.4887 L314.54,81.9091 L324.42,81.0782 L334.3,82.7382 L344.18,81.1596 L354.06,81.7363 L363.94,82.5759 L373.82,81.8856 L383.7,82.091 L393.58,81.9574 L403.46,82.238 L413.34,82.3188 L423.22,82.7809 L433.1,82.8947 L442.98,82.9057 L452.86,82.3395 L462.74,82.6181 L472.62,82.9363 L482.5,82 " fill="#BDD7EE" style="stroke:#000000;stroke-width:0.5;"/><text fill="#000000" font-family="sans-serif" font-size="14" lengthAdjust="spacing" textLength="237" x="240.5" y="100.5332">private protected MethodeAAcceder()</text></g><!--class FilleAssembly1--><g id="elem_FilleAssembly1"><polygon fill="#A9D18E" points="298.5,168,298.5,168.2102,308.5833,167.5857,318.6667,168.1933,328.75,168.3997,338.8333,167.2866,348.9167,167.9223,359,167.5735,369.0833,167.6165,379.1667,167.9318,389.25,167.3086,399.3333,168.5536,409.4167,167.3697,419.5,168,419.4748,167.9391,419.9087,168.2795,420.1962,168.2665,420.5694,168.4604,420.9101,168.5759,421.2678,168.7322,421.3227,168.755,421.4879,169.1163,421.741,169.5141,421.9138,169.8785,422.0627,170.2331,422,170.5,422.0849,170.5,422.1545,179.1,422.2341,187.7,421.7596,196.3,422.2262,204.9,422,213.5,421.9087,213.4622,422.0179,213.9216,421.5547,214.144,421.5396,214.5519,421.6426,215.0088,421.2678,215.2678,421.2616,215.2528,420.9276,215.4466,420.6039,215.6649,420.2602,215.8353,419.8531,215.8524,419.5,216,419.5,216.2872,409.4167,215.4276,399.3333,216.2844,389.25,216.5482,379.1667,216.4445,369.0833,216.613,359,215.5169,348.9167,215.3478,338.8333,215.3786,328.75,215.9411,318.6667,215.8035,308.5833,216.6814,298.5,216,298.4777,215.9462,298.1027,215.7479,297.822,215.7774,297.3543,215.3553,297.0196,215.2543,296.7322,215.2678,296.9321,215.3505,296.72,214.9698,296.6655,214.6544,296.1938,214.1661,296.2447,213.8943,296,213.5,296.1968,213.5,295.8425,204.9,295.968,196.3,296.042,187.7,296.2173,179.1,296,170.5,295.9987,170.4995,296.2889,170.2055,296.1223,169.7223,296.2308,169.3529,296.7409,169.15,296.7322,168.7322,296.6408,168.5114,297.1507,168.7425,297.4657,168.503,297.7587,168.2104,298.1013,168.0375,298.5,168" style="stroke:#000000;stroke-width:0.5;"/><polygon fill="#ADD1B2" points="322.0608,186.6756,320.4484,188.8788,318.5412,192.1057,315.8136,194.2804,312.9474,195.4696,310.662,195.5728,307.7247,194.0855,304.9532,193.1139,302.8495,191.1412,301.7461,188.8828,301.0917,187.0845,300.4506,184.7357,299.41,182.7145,300.2096,180.741,300.9102,178.5792,303.5393,176.8695,305.389,174.6511,307.6784,173.9144,310.4001,173.2801,313.8904,173.657,315.8021,174.5585,318.0247,174.9672,320.7272,177.736,321.6693,180.659,322.0786,182.6534,321.615,185.9399" style="stroke:#181818;stroke-width:1.0;"/><path d="M313.7656,179.875 Q313.9219,179.6563 314.1094,179.5469 Q314.2969,179.4375 314.5156,179.4375 Q314.8906,179.4375 315.125,179.6953 Q315.3594,179.9531 315.3594,180.5625 L315.3594,182.0156 Q315.3594,182.625 315.125,182.8906 Q314.8906,183.1563 314.5156,183.1563 Q314.1719,183.1563 313.9688,182.9531 Q313.7656,182.7656 313.6563,182.25 Q313.6094,181.8906 313.4219,181.7031 Q313.0938,181.3281 312.4844,181.1094 Q311.875,180.8906 311.25,180.8906 Q310.4844,180.8906 309.8516,181.2188 Q309.2188,181.5469 308.7266,182.2969 Q308.2344,183.0469 308.2344,184.0781 L308.2344,185.1719 Q308.2344,186.4063 309.125,187.2266 Q310.0156,188.0469 311.6094,188.0469 Q312.5469,188.0469 313.2031,187.7969 Q313.5938,187.6406 314.0156,187.2031 Q314.2813,186.9375 314.4297,186.8594 Q314.5781,186.7813 314.7813,186.7813 Q315.1094,186.7813 315.3672,187.0391 Q315.625,187.2969 315.625,187.6406 Q315.625,187.9844 315.2813,188.3906 Q314.7813,188.9688 313.9844,189.2969 Q312.9063,189.75 311.6094,189.75 Q310.0938,189.75 308.8906,189.125 Q307.9063,188.625 307.2188,187.5547 Q306.5313,186.4844 306.5313,185.2031 L306.5313,184.0469 Q306.5313,182.7188 307.1484,181.5703 Q307.7656,180.4219 308.8594,179.8047 Q309.9531,179.1875 311.1875,179.1875 Q311.9219,179.1875 312.5703,179.3516 Q313.2188,179.5156 313.7656,179.875 Z " fill="#000000"/><text fill="#000000" font-family="sans-serif" font-size="14" lengthAdjust="spacing" textLength="94" x="325" y="189.7285">FilleAssembly1</text><path d="M297,200 L297,200.2802 L307.3333,199.4476 L317.6667,200.2577 L328,200.5329 L338.3333,199.0488 L348.6667,199.8964 L359,199.4313 L369.3333,199.4887 L379.6667,199.9091 L390,199.0782 L400.3333,200.7382 L410.6667,199.1596 L421,200 " fill="#A9D18E" style="stroke:#000000;stroke-width:0.5;"/><path d="M297,208 L297,208.2802 L307.3333,207.4476 L317.6667,208.2577 L328,208.5329 L338.3333,207.0488 L348.6667,207.8964 L359,207.4313 L369.3333,207.4887 L379.6667,207.9091 L390,207.0782 L400.3333,208.7382 L410.6667,207.1596 L421,208 " fill="#A9D18E" style="stroke:#000000;stroke-width:0.5;"/></g><!--class AutreClasseAssembly1--><g id="elem_AutreClasseAssembly1"><polygon fill="#EB935B" points="25,51,25,51.2102,35.1176,50.5857,45.2353,51.1933,55.3529,51.3997,65.4706,50.2866,75.5882,50.9223,85.7059,50.5735,95.8235,50.6165,105.9412,50.9318,116.0588,50.3086,126.1765,51.5536,136.2941,50.3697,146.4118,50.8022,156.5294,51.4319,166.6471,50.9142,176.7647,51.0682,186.8824,50.9681,197,51,197.0228,51.055,197.3841,51.2201,197.7818,51.4733,198.1463,51.646,198.5009,51.795,198.7678,51.7322,198.8462,51.7647,199.057,52.1449,199.2769,52.5289,198.985,52.7009,199.5625,53.233,199.5,53.5,199.4012,53.5,199.6779,62.1,199.335,70.7,199.4772,79.3,199.7472,87.9,199.5,96.5,199.485,96.4938,199.386,96.867,199.3114,97.2503,199.1888,97.6138,198.913,97.9137,198.7678,98.2678,198.8044,98.3562,198.3412,98.2379,198.0969,98.6482,197.777,98.8759,197.4103,98.9905,197,99,197,99.613,186.8824,98.5169,176.7647,98.3478,166.6471,98.3786,156.5294,98.9411,146.4118,98.8035,136.2941,99.6814,126.1765,98.8253,116.0588,98.6569,105.9412,99.2283,95.8235,98.3332,85.7059,98.4809,75.5882,99.649,65.4706,99.4357,55.3529,99.7345,45.2353,98.6782,35.1176,99.3192,25,99,25.0753,99.1818,24.5862,98.7081,24.2807,98.6776,23.9554,98.5995,23.6689,98.6149,23.2322,98.2678,23.2309,98.2672,23.2282,97.9732,22.7688,97.49,22.5843,97.1207,22.8015,96.9178,22.5,96.5,22.261,96.5,22.6697,87.9,22.5689,79.3,22.4107,70.7,22.3821,62.1,22.5,53.5,22.6413,53.5585,22.5543,53.1083,22.9752,52.8684,22.7691,52.3688,23.2759,52.1645,23.2322,51.7322,23.294,51.8814,23.617,51.6612,23.9454,51.4539,24.3856,51.5167,24.7247,51.3354,25,51" style="stroke:#000000;stroke-width:0.5;"/><polygon fill="#ADD1B2" points="48.5608,69.6756,46.9484,71.8788,45.0412,75.1057,42.3136,77.2804,39.4474,78.4696,37.162,78.5728,34.2247,77.0855,31.4532,76.1139,29.3495,74.1412,28.2461,71.8828,27.5917,70.0845,26.9506,67.7357,25.91,65.7145,26.7096,63.741,27.4102,61.5792,30.0393,59.8695,31.889,57.6511,34.1784,56.9144,36.9001,56.2801,40.3904,56.657,42.3021,57.5585,44.5247,57.9672,47.2272,60.736,48.1693,63.659,48.5786,65.6534,48.115,68.9399" style="stroke:#181818;stroke-width:1.0;"/><path d="M40.2656,62.875 Q40.4219,62.6563 40.6094,62.5469 Q40.7969,62.4375 41.0156,62.4375 Q41.3906,62.4375 41.625,62.6953 Q41.8594,62.9531 41.8594,63.5625 L41.8594,65.0156 Q41.8594,65.625 41.625,65.8906 Q41.3906,66.1563 41.0156,66.1563 Q40.6719,66.1563 40.4688,65.9531 Q40.2656,65.7656 40.1563,65.25 Q40.1094,64.8906 39.9219,64.7031 Q39.5938,64.3281 38.9844,64.1094 Q38.375,63.8906 37.75,63.8906 Q36.9844,63.8906 36.3516,64.2188 Q35.7188,64.5469 35.2266,65.2969 Q34.7344,66.0469 34.7344,67.0781 L34.7344,68.1719 Q34.7344,69.4063 35.625,70.2266 Q36.5156,71.0469 38.1094,71.0469 Q39.0469,71.0469 39.7031,70.7969 Q40.0938,70.6406 40.5156,70.2031 Q40.7813,69.9375 40.9297,69.8594 Q41.0781,69.7813 41.2813,69.7813 Q41.6094,69.7813 41.8672,70.0391 Q42.125,70.2969 42.125,70.6406 Q42.125,70.9844 41.7813,71.3906 Q41.2813,71.9688 40.4844,72.2969 Q39.4063,72.75 38.1094,72.75 Q36.5938,72.75 35.3906,72.125 Q34.4063,71.625 33.7188,70.5547 Q33.0313,69.4844 33.0313,68.2031 L33.0313,67.0469 Q33.0313,65.7188 33.6484,64.5703 Q34.2656,63.4219 35.3594,62.8047 Q36.4531,62.1875 37.6875,62.1875 Q38.4219,62.1875 39.0703,62.3516 Q39.7188,62.5156 40.2656,62.875 Z " fill="#000000"/><text fill="#000000" font-family="sans-serif" font-size="14" lengthAdjust="spacing" textLength="145" x="51.5" y="72.7285">AutreClasseAssembly1</text><path d="M23.5,83 L23.5,83.2802 L33.2222,82.4476 L42.9444,83.2577 L52.6667,83.5329 L62.3889,82.0488 L72.1111,82.8964 L81.8333,82.4313 L91.5556,82.4887 L101.2778,82.9091 L111,82.0782 L120.7222,83.7382 L130.4444,82.1596 L140.1667,82.7363 L149.8889,83.5759 L159.6111,82.8856 L169.3333,83.091 L179.0556,82.9574 L188.7778,83.238 L198.5,83 " fill="#EB935B" style="stroke:#000000;stroke-width:0.5;"/><path d="M23.5,91 L23.5,91.2802 L33.2222,90.4476 L42.9444,91.2577 L52.6667,91.5329 L62.3889,90.0488 L72.1111,90.8964 L81.8333,90.4313 L91.5556,90.4887 L101.2778,90.9091 L111,90.0782 L120.7222,91.7382 L130.4444,90.1596 L140.1667,90.7363 L149.8889,91.5759 L159.6111,90.8856 L169.3333,91.091 L179.0556,90.9574 L188.7778,91.238 L198.5,91 " fill="#EB935B" style="stroke:#000000;stroke-width:0.5;"/></g><!--class FilleAssembly2--><g id="elem_FilleAssembly2"><polygon fill="#EB935B" points="755.5,168,755.5,168.2102,765.5833,167.5857,775.6667,168.1933,785.75,168.3997,795.8333,167.2866,805.9167,167.9223,816,167.5735,826.0833,167.6165,836.1667,167.9318,846.25,167.3086,856.3333,168.5536,866.4167,167.3697,876.5,168,876.4748,167.9391,876.9087,168.2795,877.1962,168.2665,877.5694,168.4604,877.9101,168.5759,878.2678,168.7322,878.3227,168.755,878.4879,169.1163,878.741,169.5141,878.9138,169.8785,879.0627,170.2331,879,170.5,879.0849,170.5,879.1545,179.1,879.2341,187.7,878.7596,196.3,879.2262,204.9,879,213.5,878.9087,213.4622,879.0179,213.9216,878.5547,214.144,878.5396,214.5519,878.6426,215.0088,878.2678,215.2678,878.2616,215.2528,877.9276,215.4466,877.6039,215.6649,877.2602,215.8353,876.8531,215.8524,876.5,216,876.5,216.2872,866.4167,215.4276,856.3333,216.2844,846.25,216.5482,836.1667,216.4445,826.0833,216.613,816,215.5169,805.9167,215.3478,795.8333,215.3786,785.75,215.9411,775.6667,215.8035,765.5833,216.6814,755.5,216,755.4777,215.9462,755.1027,215.7479,754.822,215.7774,754.3543,215.3553,754.0196,215.2543,753.7322,215.2678,753.9321,215.3505,753.72,214.9698,753.6655,214.6544,753.1938,214.1661,753.2447,213.8943,753,213.5,753.1968,213.5,752.8425,204.9,752.968,196.3,753.042,187.7,753.2173,179.1,753,170.5,752.9987,170.4995,753.2889,170.2055,753.1223,169.7223,753.2308,169.3529,753.7409,169.15,753.7322,168.7322,753.6408,168.5114,754.1507,168.7425,754.4657,168.503,754.7587,168.2104,755.1013,168.0375,755.5,168" style="stroke:#000000;stroke-width:0.5;"/><polygon fill="#ADD1B2" points="779.0608,186.6756,777.4484,188.8788,775.5412,192.1057,772.8136,194.2804,769.9474,195.4696,767.662,195.5728,764.7247,194.0855,761.9532,193.1139,759.8495,191.1412,758.7461,188.8828,758.0917,187.0845,757.4506,184.7357,756.41,182.7145,757.2096,180.741,757.9102,178.5792,760.5393,176.8695,762.389,174.6511,764.6784,173.9144,767.4001,173.2801,770.8904,173.657,772.8021,174.5585,775.0247,174.9672,777.7272,177.736,778.6693,180.659,779.0786,182.6534,778.615,185.9399" style="stroke:#181818;stroke-width:1.0;"/><path d="M770.7656,179.875 Q770.9219,179.6563 771.1094,179.5469 Q771.2969,179.4375 771.5156,179.4375 Q771.8906,179.4375 772.125,179.6953 Q772.3594,179.9531 772.3594,180.5625 L772.3594,182.0156 Q772.3594,182.625 772.125,182.8906 Q771.8906,183.1563 771.5156,183.1563 Q771.1719,183.1563 770.9688,182.9531 Q770.7656,182.7656 770.6563,182.25 Q770.6094,181.8906 770.4219,181.7031 Q770.0938,181.3281 769.4844,181.1094 Q768.875,180.8906 768.25,180.8906 Q767.4844,180.8906 766.8516,181.2188 Q766.2188,181.5469 765.7266,182.2969 Q765.2344,183.0469 765.2344,184.0781 L765.2344,185.1719 Q765.2344,186.4063 766.125,187.2266 Q767.0156,188.0469 768.6094,188.0469 Q769.5469,188.0469 770.2031,187.7969 Q770.5938,187.6406 771.0156,187.2031 Q771.2813,186.9375 771.4297,186.8594 Q771.5781,186.7813 771.7813,186.7813 Q772.1094,186.7813 772.3672,187.0391 Q772.625,187.2969 772.625,187.6406 Q772.625,187.9844 772.2813,188.3906 Q771.7813,188.9688 770.9844,189.2969 Q769.9063,189.75 768.6094,189.75 Q767.0938,189.75 765.8906,189.125 Q764.9063,188.625 764.2188,187.5547 Q763.5313,186.4844 763.5313,185.2031 L763.5313,184.0469 Q763.5313,182.7188 764.1484,181.5703 Q764.7656,180.4219 765.8594,179.8047 Q766.9531,179.1875 768.1875,179.1875 Q768.9219,179.1875 769.5703,179.3516 Q770.2188,179.5156 770.7656,179.875 Z " fill="#000000"/><text fill="#000000" font-family="sans-serif" font-size="14" lengthAdjust="spacing" textLength="94" x="782" y="189.7285">FilleAssembly2</text><path d="M754,200 L754,200.2802 L764.3333,199.4476 L774.6667,200.2577 L785,200.5329 L795.3333,199.0488 L805.6667,199.8964 L816,199.4313 L826.3333,199.4887 L836.6667,199.9091 L847,199.0782 L857.3333,200.7382 L867.6667,199.1596 L878,200 " fill="#EB935B" style="stroke:#000000;stroke-width:0.5;"/><path d="M754,208 L754,208.2802 L764.3333,207.4476 L774.6667,208.2577 L785,208.5329 L795.3333,207.0488 L805.6667,207.8964 L816,207.4313 L826.3333,207.4887 L836.6667,207.9091 L847,207.0782 L857.3333,208.7382 L867.6667,207.1596 L878,208 " fill="#EB935B" style="stroke:#000000;stroke-width:0.5;"/></g><!--class AutreClasseAssembly2--><g id="elem_AutreClasseAssembly2"><polygon fill="#EB935B" points="543,168,543,168.2102,553.1176,167.5857,563.2353,168.1933,573.3529,168.3997,583.4706,167.2866,593.5882,167.9223,603.7059,167.5735,613.8235,167.6165,623.9412,167.9318,634.0588,167.3086,644.1765,168.5536,654.2941,167.3697,664.4118,167.8022,674.5294,168.4319,684.6471,167.9142,694.7647,168.0682,704.8824,167.9681,715,168,715.0228,168.055,715.3841,168.2201,715.7818,168.4733,716.1463,168.646,716.5009,168.795,716.7678,168.7322,716.8462,168.7647,717.057,169.1449,717.2769,169.5289,716.985,169.7009,717.5625,170.233,717.5,170.5,717.4012,170.5,717.6779,179.1,717.335,187.7,717.4772,196.3,717.7472,204.9,717.5,213.5,717.485,213.4938,717.386,213.867,717.3114,214.2503,717.1888,214.6138,716.913,214.9137,716.7678,215.2678,716.8044,215.3562,716.3412,215.2379,716.0969,215.6482,715.777,215.8759,715.4103,215.9905,715,216,715,216.613,704.8824,215.5169,694.7647,215.3478,684.6471,215.3786,674.5294,215.9411,664.4118,215.8035,654.2941,216.6814,644.1765,215.8253,634.0588,215.6569,623.9412,216.2283,613.8235,215.3332,603.7059,215.4809,593.5882,216.649,583.4706,216.4357,573.3529,216.7345,563.2353,215.6782,553.1176,216.3192,543,216,543.0753,216.1818,542.5862,215.7081,542.2807,215.6776,541.9554,215.5995,541.6689,215.6149,541.2322,215.2678,541.2309,215.2672,541.2282,214.9732,540.7688,214.49,540.5843,214.1207,540.8015,213.9178,540.5,213.5,540.261,213.5,540.6697,204.9,540.5689,196.3,540.4107,187.7,540.3821,179.1,540.5,170.5,540.6413,170.5585,540.5543,170.1083,540.9752,169.8684,540.7691,169.3688,541.2759,169.1645,541.2322,168.7322,541.294,168.8814,541.617,168.6612,541.9454,168.4539,542.3856,168.5167,542.7247,168.3354,543,168" style="stroke:#000000;stroke-width:0.5;"/><polygon fill="#ADD1B2" points="566.5608,186.6756,564.9484,188.8788,563.0412,192.1057,560.3136,194.2804,557.4474,195.4696,555.162,195.5728,552.2247,194.0855,549.4532,193.1139,547.3495,191.1412,546.2461,188.8828,545.5917,187.0845,544.9506,184.7357,543.91,182.7145,544.7096,180.741,545.4102,178.5792,548.0393,176.8695,549.889,174.6511,552.1784,173.9144,554.9001,173.2801,558.3904,173.657,560.3021,174.5585,562.5247,174.9672,565.2272,177.736,566.1693,180.659,566.5786,182.6534,566.115,185.9399" style="stroke:#181818;stroke-width:1.0;"/><path d="M558.2656,179.875 Q558.4219,179.6563 558.6094,179.5469 Q558.7969,179.4375 559.0156,179.4375 Q559.3906,179.4375 559.625,179.6953 Q559.8594,179.9531 559.8594,180.5625 L559.8594,182.0156 Q559.8594,182.625 559.625,182.8906 Q559.3906,183.1563 559.0156,183.1563 Q558.6719,183.1563 558.4688,182.9531 Q558.2656,182.7656 558.1563,182.25 Q558.1094,181.8906 557.9219,181.7031 Q557.5938,181.3281 556.9844,181.1094 Q556.375,180.8906 555.75,180.8906 Q554.9844,180.8906 554.3516,181.2188 Q553.7188,181.5469 553.2266,182.2969 Q552.7344,183.0469 552.7344,184.0781 L552.7344,185.1719 Q552.7344,186.4063 553.625,187.2266 Q554.5156,188.0469 556.1094,188.0469 Q557.0469,188.0469 557.7031,187.7969 Q558.0938,187.6406 558.5156,187.2031 Q558.7813,186.9375 558.9297,186.8594 Q559.0781,186.7813 559.2813,186.7813 Q559.6094,186.7813 559.8672,187.0391 Q560.125,187.2969 560.125,187.6406 Q560.125,187.9844 559.7813,188.3906 Q559.2813,188.9688 558.4844,189.2969 Q557.4063,189.75 556.1094,189.75 Q554.5938,189.75 553.3906,189.125 Q552.4063,188.625 551.7188,187.5547 Q551.0313,186.4844 551.0313,185.2031 L551.0313,184.0469 Q551.0313,182.7188 551.6484,181.5703 Q552.2656,180.4219 553.3594,179.8047 Q554.4531,179.1875 555.6875,179.1875 Q556.4219,179.1875 557.0703,179.3516 Q557.7188,179.5156 558.2656,179.875 Z " fill="#000000"/><text fill="#000000" font-family="sans-serif" font-size="14" lengthAdjust="spacing" textLength="145" x="569.5" y="189.7285">AutreClasseAssembly2</text><path d="M541.5,200 L541.5,200.2802 L551.2222,199.4476 L560.9444,200.2577 L570.6667,200.5329 L580.3889,199.0488 L590.1111,199.8964 L599.8333,199.4313 L609.5556,199.4887 L619.2778,199.9091 L629,199.0782 L638.7222,200.7382 L648.4444,199.1596 L658.1667,199.7363 L667.8889,200.5759 L677.6111,199.8856 L687.3333,200.091 L697.0556,199.9574 L706.7778,200.238 L716.5,200 " fill="#EB935B" style="stroke:#000000;stroke-width:0.5;"/><path d="M541.5,208 L541.5,208.2802 L551.2222,207.4476 L560.9444,208.2577 L570.6667,208.5329 L580.3889,207.0488 L590.1111,207.8964 L599.8333,207.4313 L609.5556,207.4887 L619.2778,207.9091 L629,207.0782 L638.7222,208.7382 L648.4444,207.1596 L658.1667,207.7363 L667.8889,208.5759 L677.6111,207.8856 L687.3333,208.091 L697.0556,207.9574 L706.7778,208.238 L716.5,208 " fill="#EB935B" style="stroke:#000000;stroke-width:0.5;"/></g><!--reverse link Mere to FilleAssembly1--><g id="link_Mere_FilleAssembly1"><path d="M359,126.03 L359.0934,126.03 L358.8159,134.402 L359.0859,142.774 L359.1776,151.146 L358.6829,159.518 L359,167.89 " fill="none" style="stroke:#181818;stroke-width:1.0;"/><polygon fill="none" points="359,108.03,359.0665,108.0522,357.669,111.5863,356.6611,115.2504,355.5264,118.8721,353.9744,122.3548,353,126.03,353,126.0041,355.4,125.8878,357.8,125.9022,360.2,126.0073,362.6,125.7995,365,126.03,365.1751,126.0884,363.6007,122.3636,362.5375,118.8092,361.5366,115.2755,360.1729,111.621,359,108.03" style="stroke:#181818;stroke-width:1.0;"/></g><!--reverse link Mere to FilleAssembly2--><g id="link_Mere_FilleAssembly2"><path d="M501.5986,85.9151 L501.6068,86.0081 L508.4849,86.3378 L515.411,87.2129 L522.3214,87.9104 L529.1805,88.0237 L536.1106,88.9457 L536.1072,88.9113 L542.9711,89.4443 L549.8522,90.1506 L556.7454,90.9773 L563.5972,91.3889 L570.507,92.382 L570.5342,92.6265 L573.8629,92.4804 L577.2711,93.0482 L580.689,93.7032 L584.0504,93.8514 L587.4416,94.2661 L587.4452,94.2962 L590.7682,94.6524 L594.1076,95.1457 L597.4392,95.5729 L600.7858,96.1262 L604.083,96.2682 L604.1217,96.564 L607.3742,96.9927 L610.6018,97.2307 L613.8659,97.748 L617.1317,98.2783 L620.3433,98.394 L620.298,98.0766 L623.5441,99.1435 L626.6411,99.1654 L629.8515,99.9817 L632.945,99.98 L636.1343,100.6488 L636.1296,100.6187 L639.2321,101.4523 L642.2244,101.5832 L645.2818,102.1287 L648.3446,102.7091 L651.368,103.0383 L651.3996,103.2206 L654.2853,103.5425 L657.2251,104.1759 L660.0774,104.3054 L663.0602,105.1866 L665.9562,105.568 L666.0024,105.8072 L668.7646,106.297 L671.5498,106.9056 L674.2284,106.9624 L676.9851,107.4237 L679.811,108.2434 L679.7524,107.9735 L682.4121,108.7831 L685.0057,109.2887 L687.6951,110.2353 L690.2211,110.4288 L692.8442,111.07 L692.8077,110.922 L695.2931,111.7652 L697.6228,111.9756 L700.0632,112.636 L702.6119,113.7368 L704.9677,114.0535 L705.0204,114.2398 L707.2817,114.9968 L709.3792,115.1742 L711.6819,116.0775 L713.9398,116.8226 L716.0936,117.1993 L716.0278,116.9999 L718.0883,117.8215 L720.1272,118.5779 L722.2085,119.4625 L724.1251,119.8484 L726.1337,120.5129 L726.209,120.7042 L727.8169,120.9813 L729.5701,121.6276 L731.5354,122.8135 L733.1101,123.0061 L735,124 L735.1054,124.2002 L738.4412,125.8708 L741.7413,127.4736 L745.122,129.2294 L748.6886,131.3384 L751.992,132.9475 L751.9164,132.8381 L755.3384,135.3734 L758.246,137.1644 L761.7386,139.8017 L764.9018,141.9626 L767.9763,143.995 L768.0457,144.0788 L770.8869,146.4112 L773.9767,149.0437 L776.8419,151.405 L779.6131,153.6529 L782.4623,155.995 L782.5442,156.0817 L784.9221,158.3139 L787.6801,160.9485 L790.0082,163.128 L792.5131,165.4948 L794.96,167.8 " fill="none" style="stroke:#181818;stroke-width:1.0;"/><polygon fill="none" points="483.66,84.43,483.6876,84.4944,487.0944,85.796,490.6628,87.4751,494.1786,89.0313,497.5213,90.1831,501.1036,91.8946,501.0778,91.8925,501.1599,89.4911,501.3722,87.1005,501.675,84.7173,501.666,82.3083,502.0937,79.9355,502.1374,80.1148,498.3572,80.6303,494.7046,81.6693,491.0676,82.7721,487.34,83.5033,483.66,84.43" style="stroke:#181818;stroke-width:1.0;"/></g><!--SRC=[XOy_JyCm4CLtVmfBMM2eb0OXgCJYr8d4mCJ0xDgdngfhH-SBY7_V7IUfg0iLt6BBx_dttiMTzRr2jUVQgHW54ThDG72lWt-qRy1B5hyjdVBc1IqHU4uuG2PDl_axusbgfNTR38Ctw-02ygVE4inAG0CulnPbMR9FnlhaLblW8aRORzphaXTIjWVKZ7q015xKKjuqpK4OfqVxh0ZI6GWqWKb6we818RI657HnENbJo97LMkSWon8hkRmTgRbr2hpxM2n-s7EG60XXFLvpN5Elhgxh8-xCWbLQi3rTy2Ib-atvgrJrJwdgNAal]--></g></svg>